<?xml version="1.0" encoding="utf-8"?>
<!-- Generator: Adobe Illustrator 25.0.0, SVG Export Plug-In . SVG Version: 6.00 Build 0)  -->
<svg version="1.1" id="Calque_1" xmlns="http://www.w3.org/2000/svg" xmlns:xlink="http://www.w3.org/1999/xlink" x="0px" y="0px"
	 viewBox="0 0 303.62 416.47" style="enable-background:new 0 0 303.62 416.47;" xml:space="preserve">
<style type="text/css">
	.st0{fill:#D8D8D8;}
	.st1{fill:#A0A0A0;}
	.st2{fill:#707070;}
</style>
<path class="st0" d="M109.59,8.13c-5.68,3.46-0.39,13.88-9,22c-3.72,3.51-6.05,2.83-11,8c-2.32,2.43-5.93,6.29-7,12
	c-0.92,4.89,1,5.9,0,9c-2,6.2-10.67,5.28-19,11c-7.88,5.41-14.77,16.28-13,25c1.88,9.25,12,8.56,17,19c5.25,10.87-2.77,17.68-3,34
	c-0.26,19,10.44,19.57,18,47c6.94,25.18,2.73,42.15,11,45c4.85,1.67,7-3.91,20-6c12.09-1.95,16.46,1.9,21-2
	c5.76-4.95,1.44-13.46,8-18c2.75-1.91,3.93-0.69,11-4c4-1.89,6.08-2.84,8-5c3.57-4,2-6.85,5-10c3.52-3.7,7.1-1.26,12-4
	c7.25-4.05,3.78-11.82,11-19s15.25-3.89,18-10s-4.25-11.46-1-17c2.73-4.65,8.62-2.53,12-8c2.61-4.23,0-6.95,3-11
	c2.27-3.06,4.47-2.46,9-6c3.14-2.46,4.85-4.9,7-8c2.62-3.77,6.88-9.89,8-18c1.48-10.69-3.82-15.09,0-21c2.26-3.5,4.62-2.74,7-7
	c2.95-5.27,0.25-8.09,3-12c3.24-4.62,8.49-2.81,11-7c2-3.34,0.14-6.94-1-12c-3.21-14.18,3.81-19.33,1-25c-7.27-14.67-67.46-7-101,6
	c-4.42,1.71-9.57,4-17,4C128.32,20.22,117.04,3.58,109.59,8.13z"/>
<path class="st1" d="M118.59,71.13c-2.84,3.84,25.1,27.62,42,42c23,19.54,29.51,22.18,34,20c6-2.94,8.51-14.67,5-23
	c-4.15-9.86-15-11-38-20C131.71,78.41,120.4,68.68,118.59,71.13z"/>
<path class="st1" d="M129.59,56.13c-2.95,6.41,67.18,52.62,80,40c3.15-3.1,2.43-9.35,1-13c-3.4-8.64-14.13-11.11-38-17
	C131.92,56.13,130.06,55.13,129.59,56.13z"/>
<path class="st1" d="M139.59,39.13c0.47-5.46,96.89-9.92,100,6c1.36,7-14.86,19-30,19c-9.27,0-13.55-4.54-27-11
	C156.8,40.73,139.39,41.45,139.59,39.13z"/>
<path class="st1" d="M105.59,89.13c-1.43,1.6,5.44,9.43,13,19c24.9,31.54,29.81,47.31,43,48c1.25,0.07,6.47,0.34,10-3
	c5.2-4.92,3.31-14.43,3-16c-2.31-11.62-11.82-16.11-59-44C112.27,91.13,106.71,87.88,105.59,89.13z"/>
<path class="st1" d="M89.59,106.13c-4.49,2.54,23.89,83.05,50,81c8.89-0.7,17.7-11,17-19c-0.83-9.52-14.76-11.65-33-25
	C98.72,124.92,91.83,104.86,89.59,106.13z"/>
<path class="st1" d="M78.59,112.13c-7.39,2.24,7.77,101.17,28,102c6.1,0.25,10.74-8.5,11-9c5-9.68-0.07-20.66-19-57
	C85.97,123.91,79.65,111.81,78.59,112.13z"/>
<path class="st2" d="M110.59,50.13c-6-0.18-12.79,8.75-11,15c0.72,2.52,2.81,4,7,7c5.2,3.71,7.84,5.6,11,5c5.3-1,9.43-8.51,8-14
	c-0.68-2.64-2.79-4.42-7-8C114.72,51.84,112.78,50.19,110.59,50.13z"/>
<path class="st2" d="M119.59,0.13c2.54-0.57,3.73,0.73,13,5c22,10.11,28,8.64,30,13c6.15,13.32-36.52,56.37-52,48
	C95.9,58.18,104.84,3.44,119.59,0.13z"/>
<path class="st2" d="M92.59,66.13c-12.8,1.27-39.83,7.33-41,20c-0.41,4.44,6.73,11.29,21,25c12,11.54,14.61,12.46,17,12
	c4.64-0.9,5.52-6.45,14-28c6.94-17.63,9.64-22.28,7-26C107.48,64.75,99.64,65.43,92.59,66.13z"/>
<path class="st2" d="M121.59,66.13c1.87,8.58,20.91,10.51,47,14c39.2,5.25,74.34,11.36,75,8c0.29-1.5-7-2.84-12-11
	c-1.31-2.16-2.94-4.84-3-8c-0.2-10.79,18.09-16.7,17-21c-1-3.85-16.23-1.7-33-2c-38.14-0.68-56.32-13.48-73-4
	c-6.18,3.66-11.34,8.82-15,15C122.48,61.04,121.04,63.59,121.59,66.13z"/>
<path class="st2" d="M100.59,83.13c-4.47,10.83-0.46,21.94,1,26c17.8,49.57,28.93,90.89,36,89c4.14-1.1,2.54-15.86,10-18
	c1.79-0.51,3.86,0,8,1c8.91,2.17,10.52,4.66,12,4c7.29-3.26-22.3-68.51-39-101c-2.46-4.79-7.25-13.85-14-14
	C108.37,69.99,102.93,77.46,100.59,83.13z"/>
<path class="st0" d="M72.59,275.13c-1.07-4.57-4.65-8-3-12c2-4.95,10.14-6.06,17-7c2.18-0.3,4.72-0.54,23,0c9.68,0.29,13.9,0.5,20-1
	c3.05-0.85,6.05-1.85,9-3c11.41-4.12,14.63-6.42,19-5c3.33,1.09,2.78,2.86,6,4c5.76,2,9.61-2.88,19-6c1.43-0.47,9.3-1,25-2
	c9.29-0.6,14-0.86,15,1c2,3.54-6.94,8.63-6,15c1,7,12.77,7.93,25,15c13.37,7.73,11.33,13.51,29,32c21.35,22.34,32.42,22.36,33,33
	c0.73,13.38-15.92,29.14-28,28c-5.87-0.55-9.21-4.95-13-3c-4.49,2.31-1.54,9.41-7,17c-0.43,0.59-6.58,8.9-15,9
	c-6.83,0.08-10.83-5.29-15-3c-2.3,1.26-1.35,3-4,5c-5.32,3.91-15,1-15,1s-4.47-4.52-7-4c-3.85,0.79-0.59,12.72-7,18
	c-5,4.15-15.28,3.58-20-1c-1.95-1.89-2.62-4.14-4-4c-2.2,0.23-1.46,6-5,10c-4.32,4.82-14.11,5.84-20,2s-5.75-11-9-11
	s-3.13,6.73-9,10c-5.4,3-12,1-15,0c-2.69-0.84-6.93-2.17-10-6c-3.79-4.73-2.6-9.29-5-10c-2.95-0.87-4.77,6-11,8s-14.55-1.82-19-7
	c-4.87-5.67-4-11.48-7-12c-3.86-0.66-5.46,8.89-13,11c-6.9,1.93-14.22-3.64-16-5c-7.81-6-6.63-11.95-13-15
	c-7.46-3.57-13.92,2.36-16,0c-4.27-4.84,14.86-38.94,47-67C57.96,301.13,75.5,287.58,72.59,275.13z"/>
<path class="st1" d="M85.59,291.13c-8.84-6.15-70.64,52.7-60,74c2.09,4.18,6.84,6.66,11,7C62.24,374.22,94.32,297.2,85.59,291.13z"
	/>
<path class="st1" d="M120.59,290.13c-2-1.09-8,7.53-23,27c-30.16,39-39.33,47.25-36,57c2.74,8,13.08,14.59,21,13
	c9.91-2,11.51-15.87,29-66C118.69,300.78,122.59,291.21,120.59,290.13z"/>
<path class="st1" d="M139.59,291.13c-0.77-0.12-1.91,0.42-11,21c-22.22,50.29-21.89,61.7-18,70c0.53,1.13,4.3,9.16,9,9
	c5-0.17,8.56-9.46,11-17C141.33,340.9,146,292.13,139.59,291.13z"/>
<path class="st1" d="M151.59,286.13c9.85-0.83,35.42,84.95,12,101c-5.07,3.47-14.21,4.9-19,1c-6.18-5-3.47-17.53-2-25
	C152.73,311.64,146.27,286.58,151.59,286.13z"/>
<path class="st1" d="M171.59,279.13c-3,1.83,5.2,11.89,10,41s0.52,42.53,11,51c6.41,5.18,16.75,7.17,22,3c2.37-1.88,5.4-6.36,3-21
	C211.13,313.67,177.59,275.51,171.59,279.13z"/>
<path class="st1" d="M192.59,274.13c-0.14,0.16,2.78,2.22,7,7c29.54,33.46,18,81.14,33,86c7.72,2.5,21.15-6.77,24-18
	C264.38,318.47,193.25,273.38,192.59,274.13z"/>
<path class="st2" d="M150.02,271.82c-3.95-4.47-15.13-3.34-18.46,2.23c-1.35,2.25-1,4.8-0.32,9.9c0.84,6.33,1.28,9.55,3.87,11.44
	c4.36,3.18,12.66,1.06,15.69-3.74c1.45-2.3,1.32-5.06,1.05-10.57C151.59,276,151.47,273.46,150.02,271.82z"/>
<path class="st2" d="M192.65,244.19c2.16,1.46,2,3.22,5.25,12.9c7.64,23,12.84,26.33,11,30.78c-5.51,13.6-66.1,11.91-70.58-5.11
	C134.1,266.61,180.15,235.7,192.65,244.19z"/>
<path class="st2" d="M126.04,269.63c-14.68-12.23-39.95-20.74-48.45-11.5c-1.5,1.63-1.83,3.11-2,26c-0.14,18.22,0,20.33,2,22
	c3.2,2.73,7.58,1.26,34.82-8.64c15.26-5.54,22.91-8.41,23.75-12.67C137.3,279.02,130.29,273.18,126.04,269.63z"/>
<path class="st2" d="M151.59,283.13c-3.83,8,7.36,19.68,27,42c29.81,33.87,49.06,58.07,53.44,55.11c0.66-0.44,0.44-1.13,1.56-17.11
	c0.39-5.61,0.47-6.18,1-7c4.8-7.36,24,0.56,26.29-3.66c2-3.7-10.9-13-25.29-26.34c-4.57-4.24-48.29-45.13-58-49
	c-3.47-1.47-7.32-1.82-11-1l0,0C160.59,276.74,153.87,278.39,151.59,283.13z"/>
<path class="st2" d="M117.59,280.99c-10.49,5.13-14.81,16-16.48,20.13c-18.18,45-41,81.24-33.48,86c4.26,2.7,14.45-7.07,20.88-2.35
	c2.08,1.52,4.82,5.33,5.33,6.05c2.06,2.89,2.47,4.31,3.69,6.2c2.67,4.13,7.46,7.85,10.1,8.1c10.64,1,16.67-51.24,30.26-104.84
	c1.18-4.65,3.88-15.05-1.2-19.76C132.08,276.3,123.06,278.29,117.59,280.99z"/>
</svg>
