<?xml version="1.0" encoding="utf-8"?>
<!-- Generator: Adobe Illustrator 25.0.0, SVG Export Plug-In . SVG Version: 6.00 Build 0)  -->
<svg version="1.1" id="Calque_1" xmlns="http://www.w3.org/2000/svg" xmlns:xlink="http://www.w3.org/1999/xlink" x="0px" y="0px"
	 viewBox="0 0 385.58 343.48" style="enable-background:new 0 0 385.58 343.48;" xml:space="preserve">
<style type="text/css">
	.st0{fill:#A0A0A0;}
	.st1{fill:#707070;}
	.st2{fill:#D8D8D8;}
</style>
<path class="st0" d="M177.93,299.48c-4.86,8.54-74.88-9-121-60.49c-9.34-10.42-15.79-17.63-20.76-29.79
	c-18.34-44.85,7.18-99.22,37.92-130c14.38-14.27,31.61-25.34,50.56-32.5c34.21-12.88,63.82-8.74,87.57-5.42
	c14.84,2.08,43.58,6.38,75.84,24.38c17.19,9.6,43.3,24.17,62.29,55.07c8,12.94,27.52,44.78,19,82.16
	c-6.58,28.75-26.18,45-46.94,62.3c-32.02,26.57-89.24,58.04-122.82,38.86c-6.06-3.47-13.8-10-12.64-12.64
	c1.77-4,22.17,6.13,45.14,6.32c35.94,0.29,63.53-24,87.58-45.14c22.76-20,36.36-32,41.53-53.27c7.44-30.66-8.23-57.55-16.25-71.32
	c-21.6-37.06-55.06-53.16-74-62.3c-28.69-13.82-60.25-20.63-92.08-19.86c-20.18,0.55-44.53,1.22-70.43,16.25
	c-26.68,15.48-40.83,38-48.75,50.56c-7.37,11.71-13.19,21-16.25,35.21c-6.59,30.68,5.75,55.85,9,62.29
	c8,15.84,18.45,25.4,26.18,32.51c10.6,10.07,22.8,18.31,36.11,24.37c28.94,12.92,49.17,8.22,60.49,25.28
	C177.21,295.25,178.9,297.79,177.93,299.48z"/>
<path class="st1" d="M98.41,253.99c-4.54-2.23-3.46-6.86-8.13-9.93c-5-3.31-13.16-2.47-18.05,0.9c-11.6,8-8.68,32.75,0,47.85
	c2.55,4.46,5,8.58,9.93,10.84c12.84,5.87,28.88-7.17,33.4-10.84c6.73-5.46,18.71-15.2,16.25-26.18c-1.59-7.12-9-13.52-16.25-14.44
	C107.96,251.23,103.87,256.68,98.41,253.99z"/>
<path class="st1" d="M202.52,275.76c-6.3-0.53-6.38-5.85-14.44-8.13c-9.93-2.79-20.46,1.72-25.28,10.84
	c-4.38,7.85-2.77,15.93-1.81,20.76c1.84,9.27,6.37,15.34,15.35,27.09c8.62,11.28,13,16.93,19,17.15c1.56,0.06,4.39-0.16,14.44-8.12
	c11.26-8.93,18.05-14.31,23.48-24.38c3.78-7,7.62-14.15,5.41-22.57c-0.2-0.78-2.88-10.39-11.73-14.45c-3.12-1.37-6.52-1.99-9.93-1.8
	C209.1,272.47,207.95,276.22,202.52,275.76z"/>
<path class="st1" d="M314.23,242.05c-4.42,3.63-8.4-0.46-15.53,2.75c-7.49,3.37-7.21,9.73-13.14,10.58c-5,0.71-6.27-3.66-12.33-3.54
	c-5.52,0.12-12.26,3.9-13.5,9.75c-0.89,4.2,1.24,8.62,3.82,11.14c3.38,3.3,6.48,2.29,8.19,5.31s-0.41,5.63-0.58,10.08
	c-0.24,6.34,3.57,11.25,6.43,14.93c9.87,12.7,28.63,13.08,31.2,13.1c18.28,0.11,39.8-11.1,45.8-30.56c2.85-9.26,4-26.18-4.21-32.6
	c-2.69-2.11-7.08-3.63-8.43-8.16c-0.91-3.09,0.54-4.34,0.1-8.89c-0.2-2.1-0.77-8.06-4.64-10.78c-4.62-3.25-12.94-1.19-17.18,3.47
	C315.73,233.59,318.59,238.43,314.23,242.05z"/>
<path class="st1" d="M43.53,121.83c-3.58-1.8-2.63-4.46-7.24-7c-3.59-1.88-7.7-2.54-11.7-1.88c-9.37,1.36-15,9.28-17.24,12.52
	C0.49,135.21-2.03,149,2.7,160.94c1.3,3.28,3.91,9.87,10.76,13.84c7.31,4.24,15.1,3,17.17,2.62c8.31-1.46,9-5.66,15-5.64
	c8.56,0,10.93,8.32,16.66,7.2c6.88-1.35,12.81-15.09,8.52-23.82c-1.5-2.77-3.69-5.11-6.37-6.77c-4.54-2.78-9.49-2.85-9.47-3
	s12.56,4.27,18.26-0.83c4.35-3.88,4.54-13.15,0.31-18.85c-2.18-2.77-5.22-4.74-8.64-5.59C55.41,117.61,49.98,125.05,43.53,121.83z"
	/>
<path class="st1" d="M75.87,93.56c4-2.82,6.16-0.91,9.62-3.5c3.61-2.71,6.14-8.49,4.29-12.35c-2.29-4.8-10.71-5.36-16.17-3.54
	C62.11,78,56.33,94.83,60.45,99.79c1.72,2.08,5.59,2.56,8.23,1.54C72.28,99.94,71.71,96.51,75.87,93.56z"/>
<path class="st1" d="M121.08,59.93c2.79-1.51,4.76,0.72,8-0.56c3.51-1.37,6-5.84,6.09-9.57c0.12-8.83-13.61-16.32-24.49-17.37
	c-3.21-0.3-6.21-0.55-9.15,1.15c-7.67,4.44-6.82,17.39-6.58,21c0.35,5.43,1,15.1,7.5,17.83c4.22,1.76,10.18,0.31,13.29-3.08
	C119.02,65.82,117.72,61.74,121.08,59.93z"/>
<path class="st1" d="M278.75,74.05c7,3.75,5.83,8.39,12.17,11.57c6.61,3.33,17,2.82,21.28-2.72c5.36-6.87,0-19.64-6.62-26.34
	c-14-14.09-43-10.29-47.26-0.61c-1.79,4,0.33,10.08,3.76,13.22C266.75,73.41,271.37,70.05,278.75,74.05z"/>
<path class="st1" d="M334.37,140.24c2,4.12-0.31,6.82,0.78,10.84c1.74,6.43,10.2,9.29,10.91,9.51c10.94,3.54,23.89-5.72,30.32-14.29
	c7.66-10.2,12-27.34,3.69-40.4c-12-18.76-43.32-18.56-54.83-5.67c-4.12,4.62-7.7,13.11-5.65,20.71c1.64,5.28,4.72,10,8.88,13.64
	C331.28,137.05,333.07,137.55,334.37,140.24z"/>
<path class="st1" d="M48.59,202.72c0.19-8-4.12-16.35-6.32-16.26c-3.34,0.15-5.82,20.06-4.51,37.92c0.45,6.2,1.66,22.84,6.32,23.48
	c3.55,0.48,7.42-8.58,9.93-14.45c1.79-4.2,6.88-16.1,2.7-19.86c-2.13-1.92-5.12-0.29-7.22-2.71
	C47.72,208.77,48.59,205.97,48.59,202.72z"/>
<path class="st1" d="M354.41,194.55c-2.83,7.45-7.58,6.85-9.93,13.54c-2.46,7-0.64,17.18,5.41,20.77c7.5,4.44,19.49-2.46,25.28-9.93
	c12.19-15.72,4.73-43.94-5.41-46.95c-4.25-1.26-10,1.61-12.64,5.41C353.48,182.57,357.38,186.73,354.41,194.55z"/>
<path class="st1" d="M190.12,51.83c-4.58,2.4-3.85,7.72-7.28,12.93c-3,4.55-8.72,8.41-14.4,8.64c-11.14,0.44-19.6-11.49-20.72-21
	c-0.44-2.72-0.18-5.5,0.76-8.09c3.52-9,15.26-10.87,14.82-13.12c-0.56-2.93-20,1.93-23.2-4s9.7-22.86,20.15-21.7
	c6.94,0.78,14.62,9.75,17.79,13.45c2.93,3.42,4.68,6.29,8.4,7.13c4.52,1,8.72-1.68,10.23-2.68c9.78-6.48,7-16.66,13.69-20.48
	c8.77-5,27,4.78,27,12.48c-0.1,8.17-20.85,13.64-19.74,17.2c0.83,2.65,11.85-1.42,17.73,4.38c4.35,4.28,5,13.13,0.94,19.12
	c-5,7.31-14.62,6.73-16.94,6.59c-4.63-0.41-9.08-1.98-12.93-4.57c-4.66-3.23-6.23-6.72-10.83-7.22
	C193.72,50.66,191.81,50.99,190.12,51.83z"/>
<path class="st2" d="M196.89,272.4c-6.3-0.53-6.37-5.85-14.44-8.13c-9.93-2.79-20.46,1.72-25.28,10.84
	c-4.38,7.85-2.77,15.93-1.81,20.76c1.85,9.27,6.37,15.34,15.35,27.09c8.62,11.28,13,16.93,19,17.15c1.56,0.06,4.4-0.16,14.44-8.12
	c11.26-8.93,18.05-14.31,23.48-24.38c3.78-7,7.62-14.15,5.42-22.57c-0.21-0.79-2.89-10.39-11.74-14.45
	c-3.12-1.37-6.52-1.99-9.93-1.8C203.47,269.11,202.32,272.86,196.89,272.4z"/>
<path class="st2" d="M358.5,195.66c-2.83,7.45-7.58,6.85-9.93,13.54c-2.46,7-0.63,17.18,5.41,20.77c7.5,4.44,19.49-2.46,25.28-9.93
	c12.19-15.72,4.73-43.94-5.41-47c-4.25-1.26-10,1.61-12.64,5.41C357.59,183.68,361.47,187.84,358.5,195.66z"/>
<path class="st2" d="M44.31,199.27c0.2-8-4.12-16.35-6.32-16.25c-3.34,0.15-5.82,20-4.51,37.92c0.45,6.19,1.67,22.83,6.32,23.47
	c3.55,0.49,7.42-8.58,9.93-14.44c1.8-4.21,6.88-16.11,2.71-19.87c-2.14-1.92-5.13-0.29-7.22-2.7
	C43.42,205.32,44.24,202.53,44.31,199.27z"/>
<path class="st2" d="M330.85,139.89c2,4.12-0.31,6.81,0.78,10.84c1.74,6.43,10.2,9.28,10.91,9.51c10.94,3.53,23.88-5.73,30.31-14.29
	c7.66-10.2,12-27.35,3.7-40.41c-12-18.75-43.32-18.56-54.83-5.66c-4.12,4.61-7.7,13.1-5.65,20.7c1.63,5.28,4.71,10.01,8.88,13.64
	C327.76,136.66,329.59,137.19,330.85,139.89z"/>
<path class="st2" d="M93.07,249.83c-4.54-2.24-3.46-6.86-8.13-9.93c-5-3.31-13.16-2.48-18.06,0.9c-11.59,8-8.67,32.75,0,47.85
	c2.56,4.46,5,8.58,9.94,10.83c12.84,5.88,28.88-7.16,33.4-10.83c6.73-5.47,18.71-15.2,16.25-26.18c-1.59-7.12-9-13.53-16.25-14.45
	C102.59,247.05,98.53,252.52,93.07,249.83z"/>
<path class="st2" d="M307.74,241.94c-4.42,3.64-8.39-0.46-15.52,2.75c-7.49,3.38-7.21,9.74-13.14,10.58
	c-5,0.71-6.28-3.66-12.34-3.53c-5.51,0.11-12.25,3.9-13.49,9.74c-0.89,4.2,1.24,8.62,3.81,11.14c3.38,3.31,6.49,2.3,8.19,5.32
	s-0.4,5.62-0.57,10.08c-0.25,6.33,3.57,11.24,6.43,14.92c9.87,12.7,28.62,13.08,31.2,13.1c18.28,0.12,39.82-11.05,45.82-30.55
	c2.85-9.25,4-26.18-4.21-32.59c-2.69-2.11-7.09-3.64-8.43-8.17c-0.92-3.08,0.54-4.34,0.1-8.89c-0.2-2.1-0.77-8.06-4.64-10.78
	c-4.62-3.25-12.94-1.19-17.19,3.47C309.25,233.49,312.12,238.34,307.74,241.94z"/>
<path class="st2" d="M43.28,118.42c-3.57-1.8-2.63-4.45-7.24-7c-3.61-1.87-7.72-2.52-11.73-1.84c-9.37,1.35-15,9.27-17.24,12.52
	c-6.86,9.73-9.38,23.52-4.64,35.47c1.29,3.28,3.91,9.87,10.75,13.84c7.31,4.24,15.11,3,17.17,2.62c8.32-1.47,9-5.66,15.06-5.64
	c8.55,0,10.92,8.32,16.66,7.19c6.87-1.35,12.81-15.08,8.52-23.82c-1.51-2.77-3.7-5.1-6.38-6.76c-4.54-2.79-9.49-2.86-9.47-3
	s12.56,4.28,18.27-0.82c4.34-3.88,4.53-13.15,0.31-18.85c-2.18-2.78-5.22-4.74-8.65-5.59C55.17,114.2,49.73,121.67,43.28,118.42z"/>
<path class="st2" d="M280.29,71.15c7,3.75,5.83,8.39,12.16,11.57c6.62,3.33,17,2.82,21.29-2.72c5.36-6.87,0-19.64-6.63-26.34
	c-14-14.09-43-10.29-47.25-0.62c-1.8,4.06,0.33,10.09,3.76,13.23C268.29,70.54,272.91,67.2,280.29,71.15z"/>
<path class="st2" d="M195.09,50.3c-4.58,2.4-3.85,7.72-7.28,12.94c-3,4.54-8.73,8.4-14.4,8.63c-11.15,0.44-19.6-11.48-20.72-21
	c-0.45-2.72-0.19-5.5,0.75-8.09c3.53-9,15.26-10.87,14.83-13.13c-0.57-2.93-20,1.93-23.21-4s9.71-22.87,20.16-21.7
	c6.94,0.77,14.62,9.74,17.79,13.44c2.93,3.42,4.68,6.29,8.4,7.13c4.52,1,8.72-1.68,10.22-2.67c9.79-6.48,7-16.67,13.7-20.49
	c8.76-5,27,4.78,27,12.48c-0.16,8.21-20.9,13.7-19.74,17.27c0.82,2.64,11.85-1.42,17.73,4.37c4.34,4.28,5.05,13.13,0.93,19.13
	c-5,7.3-14.61,6.72-16.93,6.58c-4.63-0.4-9.08-1.98-12.93-4.57c-4.66-3.23-6.24-6.72-10.84-7.22
	C198.69,49.16,196.78,49.47,195.09,50.3z"/>
<path class="st2" d="M124.28,58.05c2.79-1.51,4.77,0.72,8-0.56c3.52-1.37,6-5.84,6.09-9.57c0.12-8.83-13.61-16.32-24.49-17.37
	c-3.21-0.3-6.2-0.55-9.15,1.15c-7.67,4.44-6.82,17.39-6.58,21c0.36,5.43,1,15.1,7.5,17.83c4.22,1.76,10.18,0.31,13.3-3.08
	S120.92,59.81,124.28,58.05z"/>
<path class="st2" d="M75.79,90.63c4-2.82,6.16-0.91,9.62-3.5s6.14-8.49,4.29-12.35c-2.29-4.79-10.7-5.36-16.17-3.54
	c-11.5,3.83-17.28,20.66-13.16,25.62c1.72,2.08,5.59,2.56,8.23,1.54C72.2,97.05,71.59,93.58,75.79,90.63z"/>
</svg>
