<?xml version="1.0" standalone="no"?><!-- Generator: Gravit.io --><svg xmlns="http://www.w3.org/2000/svg" xmlns:xlink="http://www.w3.org/1999/xlink" style="isolation:isolate" viewBox="0 0 612.84 607.79" width="612.84" height="607.79"><defs><clipPath id="_clipPath_pdhzFR0cY8ZAIBsXaRW0H3ohoBiQdDwL"><rect width="612.84" height="607.79"/></clipPath></defs><g clip-path="url(#_clipPath_pdhzFR0cY8ZAIBsXaRW0H3ohoBiQdDwL)"><path d=" M 401.593 249.287 C 397.913 255.737 344.963 242.457 310.103 203.537 C 303.043 195.657 298.163 190.207 294.403 181.007 C 280.533 147.087 299.823 106.007 323.073 82.697 C 333.937 71.908 346.958 63.535 361.283 58.127 C 387.153 48.387 409.543 51.517 427.503 54.027 C 438.733 55.597 460.503 58.847 484.853 72.457 C 497.853 79.717 517.603 90.737 531.973 114.107 C 537.973 123.897 552.773 147.967 546.303 176.237 C 541.303 197.987 526.503 210.307 510.803 223.347 C 486.603 243.457 443.333 267.257 417.943 252.707 C 413.363 250.127 407.513 245.127 408.393 243.127 C 409.733 240.077 425.153 247.767 442.523 247.907 C 469.703 248.127 490.573 229.777 508.753 213.777 C 525.973 198.627 536.253 189.577 540.163 173.487 C 545.793 150.307 533.943 129.967 527.873 119.547 C 511.543 91.547 486.243 79.347 471.873 72.437 C 450.174 61.995 426.306 56.854 402.233 57.437 C 386.973 57.857 368.563 58.367 348.983 69.727 C 328.803 81.437 318.093 98.457 312.113 107.967 C 306.543 116.817 302.113 123.817 299.823 134.597 C 294.823 157.797 304.173 176.827 306.653 181.707 C 312.733 193.707 320.603 200.907 326.453 206.277 C 334.466 213.901 343.696 220.133 353.763 224.717 C 375.643 234.487 390.943 230.937 399.503 243.837 C 401.013 246.127 402.293 248.007 401.593 249.287 Z " fill="rgb(160,160,160)"/><path d=" M 341.423 214.877 C 337.993 213.187 338.803 209.697 335.273 207.367 C 331.473 204.877 325.323 205.497 321.623 208.057 C 312.853 214.057 315.063 232.817 321.623 244.237 C 323.553 247.607 325.403 250.727 329.133 252.437 C 338.843 256.877 350.973 247.017 354.393 244.237 C 359.483 240.107 368.543 232.747 366.683 224.437 C 365.483 219.057 359.893 214.207 354.393 213.517 C 348.643 212.787 345.593 216.917 341.423 214.877 Z " fill="rgb(112,112,112)"/><path d=" M 420.153 231.347 C 415.393 230.947 415.333 226.927 409.233 225.197 C 401.723 223.086 393.759 226.501 390.113 233.397 C 386.803 239.327 388.023 245.397 388.753 249.097 C 390.143 256.097 393.563 260.687 400.353 269.577 C 406.873 278.117 410.223 282.387 414.693 282.577 C 415.873 282.627 418.023 282.457 425.613 276.437 C 434.133 269.687 439.263 265.617 443.373 257.997 C 446.233 252.697 449.133 247.297 447.463 240.937 C 447.313 240.337 445.283 233.077 438.593 230.007 C 436.231 228.968 433.658 228.502 431.083 228.647 C 425.133 228.857 424.263 231.687 420.153 231.347 Z " fill="rgb(112,112,112)"/><path d=" M 504.593 205.837 C 501.253 208.597 498.243 205.497 492.853 207.927 C 487.183 210.477 487.403 215.287 482.913 215.927 C 479.133 216.467 478.173 213.167 473.583 213.257 C 469.413 213.347 464.313 216.207 463.383 220.627 C 462.713 223.807 464.323 227.147 466.263 229.047 C 468.823 231.557 471.173 230.787 472.463 233.047 C 473.753 235.307 472.153 237.297 472.023 240.667 C 471.843 245.457 474.723 249.167 476.883 251.957 C 484.353 261.557 498.533 261.847 500.483 261.857 C 514.303 261.957 530.603 253.497 535.133 238.757 C 537.283 231.757 538.133 218.957 531.953 214.107 C 529.953 212.507 526.593 211.357 525.573 207.937 C 524.883 205.597 525.983 204.657 525.653 201.207 C 525.503 199.617 525.063 195.117 522.143 193.057 C 518.643 190.597 512.353 192.157 509.143 195.677 C 505.773 199.447 507.943 203.127 504.593 205.837 Z " fill="rgb(112,112,112)"/><path d=" M 299.923 114.937 C 297.213 113.577 297.923 111.567 294.443 109.617 C 291.724 108.197 288.615 107.708 285.593 108.227 C 278.503 109.227 274.283 115.227 272.593 117.687 C 267.403 125.047 265.503 135.477 269.083 144.517 C 270.083 146.997 272.083 151.977 277.213 154.987 C 281.184 157.137 285.778 157.844 290.213 156.987 C 296.503 155.887 296.993 152.707 301.593 152.727 C 308.063 152.727 309.853 159.017 314.193 158.167 C 319.393 157.167 323.883 146.757 320.633 140.167 C 319.504 138.066 317.842 136.299 315.813 135.047 C 313.605 133.82 311.174 133.048 308.663 132.777 C 308.663 132.587 318.153 136.007 322.473 132.147 C 325.753 129.217 325.903 122.207 322.703 117.897 C 321.053 115.799 318.752 114.31 316.163 113.667 C 308.903 111.747 304.803 117.397 299.923 114.937 Z " fill="rgb(112,112,112)"/><path d=" M 324.373 93.557 C 327.373 91.427 329.033 92.867 331.653 90.907 C 334.273 88.947 336.293 84.487 334.893 81.567 C 333.163 77.947 326.803 77.517 322.663 78.897 C 313.973 81.797 309.603 94.517 312.663 98.267 C 313.973 99.837 316.893 100.207 318.893 99.427 C 321.663 98.377 321.233 95.787 324.373 93.557 Z " fill="rgb(112,112,112)"/><path d=" M 358.593 68.127 C 360.703 66.977 362.203 68.667 364.673 67.707 C 367.323 66.707 369.243 63.287 369.273 60.467 C 369.363 53.787 358.983 48.117 350.753 47.327 C 348.323 47.097 346.063 46.907 343.833 48.197 C 338.033 51.557 338.683 61.347 338.833 64.107 C 339.093 68.207 339.573 75.517 344.503 77.587 C 348.033 78.831 351.965 77.923 354.593 75.257 C 357.013 72.577 356.023 69.497 358.593 68.127 Z " fill="rgb(112,112,112)"/><path d=" M 477.803 78.777 C 483.123 81.617 482.213 85.127 487.003 87.537 C 492.003 90.047 499.833 89.667 503.103 85.477 C 507.103 80.277 503.103 70.617 498.103 65.557 C 487.493 54.897 465.603 57.777 462.363 65.087 C 461.013 68.157 462.613 72.717 465.213 75.087 C 468.733 78.317 472.223 75.797 477.803 78.777 Z " fill="rgb(112,112,112)"/><path d=" M 519.863 128.857 C 521.363 131.977 519.633 134.017 520.453 137.057 C 521.773 141.927 528.173 144.057 528.703 144.247 C 536.983 146.917 546.773 139.917 551.633 133.447 C 557.423 125.727 560.723 112.767 554.433 102.887 C 545.433 88.707 521.663 88.887 512.963 98.607 C 509.853 102.097 507.143 108.517 508.693 114.257 C 509.927 118.253 512.25 121.827 515.403 124.577 C 517.533 126.417 518.883 126.817 519.863 128.857 Z " fill="rgb(112,112,112)"/><path d=" M 303.773 176.127 C 303.913 170.077 300.653 163.767 298.993 163.837 C 296.463 163.947 294.593 178.997 295.573 192.507 C 295.923 197.197 296.833 209.777 300.353 210.267 C 303.043 210.627 305.973 203.777 307.863 199.337 C 309.223 196.157 313.073 187.157 309.913 184.337 C 308.303 182.887 306.043 184.117 304.453 182.287 C 303.093 180.677 303.713 178.567 303.773 176.127 Z " fill="rgb(112,112,112)"/><path d=" M 535.023 169.927 C 532.883 175.567 529.283 175.107 527.513 180.167 C 525.653 185.457 527.033 193.167 531.603 195.877 C 537.273 199.237 546.343 194.017 550.723 188.367 C 559.933 176.477 554.293 155.137 546.623 152.857 C 543.413 151.857 539.093 154.077 537.063 156.957 C 534.313 160.867 537.263 164.017 535.023 169.927 Z " fill="rgb(112,112,112)"/><path d=" M 410.783 61.997 C 407.313 63.807 407.863 67.837 405.273 71.777 C 403.013 75.217 398.673 78.137 394.383 78.307 C 385.953 78.647 379.563 69.627 378.713 62.447 C 378.378 60.391 378.574 58.285 379.283 56.327 C 381.953 49.497 390.823 48.107 390.493 46.407 C 390.073 44.187 375.353 47.867 372.943 43.407 C 370.533 38.947 380.283 26.117 388.193 26.997 C 393.433 27.587 399.193 34.367 401.643 37.167 C 403.863 39.757 405.183 41.927 408.003 42.557 C 411.413 43.327 414.593 41.287 415.733 40.557 C 423.133 35.657 421.033 27.957 426.083 25.067 C 432.713 21.267 446.533 28.677 446.463 34.507 C 446.393 40.677 430.693 44.817 431.543 47.507 C 432.163 49.507 440.543 46.427 444.943 50.807 C 448.233 54.047 448.763 60.747 445.653 65.277 C 441.863 70.797 434.653 70.357 432.843 70.277 C 429.343 69.968 425.978 68.778 423.063 66.817 C 419.543 64.377 418.353 61.737 414.873 61.357 C 413.476 61.168 412.055 61.39 410.783 61.997 Z " fill="rgb(112,112,112)"/><path d=" M 415.903 228.807 C 411.133 228.397 411.073 224.377 404.973 222.657 C 397.468 220.537 389.503 223.951 385.863 230.847 C 382.553 236.787 383.763 242.847 384.493 246.557 C 385.883 253.557 389.313 258.147 396.103 267.037 C 402.613 275.567 405.963 279.837 410.433 280.037 C 411.613 280.087 413.763 279.917 421.363 273.897 C 429.873 267.147 435.013 263.077 439.113 255.457 C 441.973 250.147 444.883 244.757 443.213 238.387 C 443.053 237.797 441.033 230.537 434.333 227.467 C 431.972 226.425 429.399 225.956 426.823 226.097 C 420.873 226.317 420.003 229.127 415.903 228.807 Z " fill="rgb(216,216,216)"/><path d=" M 538.113 170.767 C 535.973 176.407 532.383 175.947 530.603 181.007 C 528.743 186.297 530.123 194.007 534.703 196.717 C 540.373 200.077 549.433 194.857 553.813 189.207 C 563.033 177.317 557.393 155.977 549.723 153.697 C 546.503 152.747 542.183 154.917 540.163 157.797 C 537.413 161.707 540.363 164.857 538.113 170.767 Z " fill="rgb(216,216,216)"/><path d=" M 300.513 173.497 C 300.663 167.447 297.393 161.137 295.733 161.207 C 293.203 161.317 291.333 176.377 292.323 189.887 C 292.663 194.567 293.583 207.157 297.103 207.637 C 299.783 208.007 302.713 201.147 304.613 196.717 C 305.963 193.537 309.813 184.537 306.663 181.717 C 305.043 180.257 302.783 181.497 301.193 179.667 C 299.833 178.127 300.453 175.967 300.513 173.497 Z " fill="rgb(216,216,216)"/><path d=" M 517.203 128.587 C 518.703 131.707 516.973 133.747 517.793 136.787 C 519.103 141.657 525.503 143.787 526.043 143.987 C 534.313 146.657 544.103 139.657 548.973 133.177 C 554.763 125.457 558.063 112.497 551.763 102.617 C 542.763 88.437 519.003 88.617 510.303 98.337 C 507.183 101.827 504.473 108.247 506.033 113.987 C 507.267 117.983 509.59 121.557 512.743 124.307 C 514.863 126.127 516.223 126.557 517.203 128.587 Z " fill="rgb(216,216,216)"/><path d=" M 337.383 211.737 C 333.953 210.047 334.763 206.547 331.233 204.227 C 327.443 201.727 321.283 202.357 317.583 204.907 C 308.813 210.907 311.023 229.667 317.583 241.097 C 319.513 244.467 321.363 247.577 325.093 249.287 C 334.803 253.727 346.933 243.867 350.353 241.097 C 355.443 236.957 364.503 229.597 362.643 221.297 C 361.443 215.907 355.853 211.067 350.353 210.367 C 344.593 209.637 341.513 213.767 337.383 211.737 Z " fill="rgb(216,216,216)"/><path d=" M 499.733 205.767 C 496.383 208.517 493.383 205.427 487.993 207.847 C 482.323 210.397 482.533 215.207 478.053 215.847 C 474.273 216.387 473.303 213.077 468.723 213.177 C 464.553 213.267 459.453 216.127 458.513 220.547 C 457.843 223.717 459.453 227.067 461.403 228.967 C 463.963 231.467 466.303 230.707 467.593 232.967 C 468.883 235.227 467.293 237.227 467.163 240.597 C 466.973 245.387 469.863 249.097 472.023 251.877 C 479.493 261.487 493.673 261.777 495.623 261.787 C 509.443 261.877 525.733 253.427 530.273 238.677 C 532.423 231.677 533.273 218.887 527.093 214.037 C 525.093 212.437 521.733 211.287 520.713 207.857 C 520.023 205.527 521.123 204.577 520.793 201.137 C 520.633 199.547 520.203 195.047 517.273 192.987 C 513.783 190.527 507.493 192.087 504.273 195.607 C 500.863 199.377 503.033 203.047 499.733 205.767 Z " fill="rgb(216,216,216)"/><path d=" M 299.733 112.357 C 297.033 110.997 297.733 108.987 294.263 107.037 C 291.531 105.625 288.415 105.138 285.383 105.647 C 278.303 106.647 274.083 112.647 272.383 115.117 C 267.203 122.477 265.293 132.907 268.873 141.937 C 269.873 144.417 271.873 149.407 277.013 152.407 C 282.533 155.617 288.433 154.657 290.013 154.407 C 296.303 153.297 296.793 150.127 301.403 150.147 C 307.873 150.147 309.663 156.437 314.003 155.587 C 319.203 154.587 323.683 144.177 320.443 137.587 C 319.306 135.494 317.645 133.733 315.623 132.477 C 313.411 131.25 310.977 130.475 308.463 130.197 C 308.463 130.017 317.953 133.437 322.273 129.577 C 325.553 126.637 325.703 119.577 322.503 115.317 C 320.855 113.224 318.557 111.74 315.973 111.097 C 308.723 109.127 304.593 114.817 299.733 112.357 Z " fill="rgb(216,216,216)"/><path d=" M 478.963 76.607 C 484.283 79.447 483.373 82.957 488.163 85.367 C 493.163 87.877 500.993 87.497 504.263 83.297 C 508.323 78.107 504.263 68.447 499.263 63.387 C 488.653 52.727 466.763 55.597 463.523 62.917 C 462.173 65.987 463.773 70.547 466.373 72.917 C 469.893 76.127 473.383 73.627 478.963 76.607 Z " fill="rgb(216,216,216)"/><path d=" M 414.533 60.847 C 411.073 62.657 411.623 66.687 409.033 70.627 C 406.773 74.057 402.433 76.977 398.133 77.157 C 389.713 77.487 383.313 68.467 382.473 61.297 C 382.133 59.242 382.329 57.134 383.043 55.177 C 385.713 48.347 394.583 46.957 394.253 45.247 C 393.823 43.037 379.103 46.707 376.703 42.247 C 374.303 37.787 384.043 24.957 391.943 25.837 C 397.193 26.417 403.003 33.207 405.403 35.997 C 407.613 38.587 408.933 40.757 411.753 41.397 C 415.173 42.167 418.353 40.127 419.483 39.397 C 426.883 34.497 424.793 26.797 429.843 23.907 C 436.473 20.117 450.293 27.527 450.223 33.347 C 450.143 39.527 434.453 43.657 435.293 46.347 C 435.913 48.347 444.293 45.277 448.703 49.657 C 451.993 52.897 452.523 59.587 449.413 64.117 C 445.623 69.637 438.353 69.207 436.603 69.117 C 433.103 68.812 429.739 67.625 426.823 65.667 C 423.293 63.217 422.113 60.587 418.633 60.197 C 417.232 60.007 415.806 60.233 414.533 60.847 Z " fill="rgb(216,216,216)"/><path d=" M 360.983 66.667 C 363.093 65.517 364.593 67.207 367.063 66.247 C 369.723 65.247 371.633 61.827 371.663 59.007 C 371.753 52.327 361.373 46.657 353.143 45.867 C 350.723 45.637 348.453 45.447 346.223 46.737 C 340.433 50.097 341.073 59.887 341.223 62.647 C 341.493 66.747 341.963 74.057 346.893 76.127 C 350.397 77.332 354.282 76.427 356.893 73.797 C 359.433 71.127 358.443 68.037 360.983 66.667 Z " fill="rgb(216,216,216)"/><path d=" M 324.313 91.337 C 327.313 89.207 328.973 90.657 331.593 88.697 C 334.213 86.737 336.233 82.277 334.833 79.357 C 333.103 75.727 326.743 75.357 322.603 76.677 C 313.913 79.577 309.543 92.307 312.653 96.057 C 313.963 97.627 316.883 97.987 318.883 97.217 C 321.593 96.127 321.173 93.577 324.313 91.337 Z " fill="rgb(216,216,216)"/><path d=" M 109.593 8.127 C 103.913 11.587 109.203 22.007 100.593 30.127 C 96.873 33.637 94.543 32.957 89.593 38.127 C 87.273 40.557 83.663 44.417 82.593 50.127 C 81.673 55.017 83.593 56.027 82.593 59.127 C 80.593 65.327 71.923 64.407 63.593 70.127 C 55.713 75.537 48.823 86.407 50.593 95.127 C 52.473 104.377 62.593 103.687 67.593 114.127 C 72.843 124.997 64.823 131.807 64.593 148.127 C 64.333 167.127 75.033 167.697 82.593 195.127 C 89.533 220.307 85.323 237.277 93.593 240.127 C 98.443 241.797 100.593 236.217 113.593 234.127 C 125.683 232.177 130.053 236.027 134.593 232.127 C 140.353 227.177 136.033 218.667 142.593 214.127 C 145.343 212.217 146.523 213.437 153.593 210.127 C 157.593 208.237 159.673 207.287 161.593 205.127 C 165.163 201.127 163.593 198.277 166.593 195.127 C 170.113 191.427 173.693 193.867 178.593 191.127 C 185.843 187.077 182.373 179.307 189.593 172.127 C 196.813 164.947 204.843 168.237 207.593 162.127 C 210.343 156.017 203.343 150.667 206.593 145.127 C 209.323 140.477 215.213 142.597 218.593 137.127 C 221.203 132.897 218.593 130.177 221.593 126.127 C 223.863 123.067 226.063 123.667 230.593 120.127 C 233.733 117.667 235.443 115.227 237.593 112.127 C 240.213 108.357 244.473 102.237 245.593 94.127 C 247.073 83.437 241.773 79.037 245.593 73.127 C 247.853 69.627 250.213 70.387 252.593 66.127 C 255.543 60.857 252.843 58.037 255.593 54.127 C 258.833 49.507 264.083 51.317 266.593 47.127 C 268.593 43.787 266.733 40.187 265.593 35.127 C 262.383 20.947 269.403 15.797 266.593 10.127 C 259.323 -4.543 199.133 3.127 165.593 16.127 C 161.173 17.837 156.023 20.127 148.593 20.127 C 128.323 20.217 117.043 3.577 109.593 8.127 Z " fill="rgb(216,216,216)"/><path d=" M 118.593 71.127 C 115.753 74.967 143.693 98.747 160.593 113.127 C 183.593 132.667 190.103 135.307 194.593 133.127 C 200.593 130.187 203.103 118.457 199.593 110.127 C 195.443 100.267 184.593 99.127 161.593 90.127 C 131.713 78.407 120.403 68.677 118.593 71.127 Z " fill="rgb(160,160,160)"/><path d=" M 129.593 56.127 C 126.643 62.537 196.773 108.747 209.593 96.127 C 212.743 93.027 212.023 86.777 210.593 83.127 C 207.193 74.487 196.463 72.017 172.593 66.127 C 131.923 56.127 130.063 55.127 129.593 56.127 Z " fill="rgb(160,160,160)"/><path d=" M 139.593 39.127 C 140.063 33.667 236.483 29.207 239.593 45.127 C 240.953 52.127 224.733 64.127 209.593 64.127 C 200.323 64.127 196.043 59.587 182.593 53.127 C 156.803 40.727 139.393 41.447 139.593 39.127 Z " fill="rgb(160,160,160)"/><path d=" M 105.593 89.127 C 104.163 90.727 111.033 98.557 118.593 108.127 C 143.493 139.667 148.403 155.437 161.593 156.127 C 162.843 156.197 168.063 156.467 171.593 153.127 C 176.793 148.207 174.903 138.697 174.593 137.127 C 172.283 125.507 162.773 121.017 115.593 93.127 C 112.273 91.127 106.713 87.877 105.593 89.127 Z " fill="rgb(160,160,160)"/><path d=" M 89.593 106.127 C 85.103 108.667 113.483 189.177 139.593 187.127 C 148.483 186.427 157.293 176.127 156.593 168.127 C 155.763 158.607 141.833 156.477 123.593 143.127 C 98.723 124.917 91.833 104.857 89.593 106.127 Z " fill="rgb(160,160,160)"/><path d=" M 78.593 112.127 C 71.203 114.367 86.363 213.297 106.593 214.127 C 112.693 214.377 117.333 205.627 117.593 205.127 C 122.593 195.447 117.523 184.467 98.593 148.127 C 85.973 123.907 79.653 111.807 78.593 112.127 Z " fill="rgb(160,160,160)"/><path d=" M 110.593 50.127 C 104.593 49.947 97.803 58.877 99.593 65.127 C 100.313 67.647 102.403 69.127 106.593 72.127 C 111.793 75.837 114.433 77.727 117.593 77.127 C 122.893 76.127 127.023 68.617 125.593 63.127 C 124.913 60.487 122.803 58.707 118.593 55.127 C 114.723 51.837 112.783 50.187 110.593 50.127 Z " fill="rgb(112,112,112)"/><path d=" M 119.593 0.127 C 122.133 -0.443 123.323 0.857 132.593 5.127 C 154.593 15.237 160.593 13.767 162.593 18.127 C 168.743 31.447 126.073 74.497 110.593 66.127 C 95.903 58.177 104.843 3.437 119.593 0.127 Z " fill="rgb(112,112,112)"/><path d=" M 92.593 66.127 C 79.793 67.397 52.763 73.457 51.593 86.127 C 51.183 90.567 58.323 97.417 72.593 111.127 C 84.593 122.667 87.203 123.587 89.593 123.127 C 94.233 122.227 95.113 116.677 103.593 95.127 C 110.533 77.497 113.233 72.847 110.593 69.127 C 107.483 64.747 99.643 65.427 92.593 66.127 Z " fill="rgb(112,112,112)"/><path d=" M 121.593 66.127 C 123.463 74.707 142.503 76.637 168.593 80.127 C 207.793 85.377 242.933 91.487 243.593 88.127 C 243.883 86.627 236.593 85.287 231.593 77.127 C 230.283 74.967 228.653 72.287 228.593 69.127 C 228.393 58.337 246.683 52.427 245.593 48.127 C 244.593 44.277 229.363 46.427 212.593 46.127 C 174.453 45.447 156.273 32.647 139.593 42.127 C 133.408 45.782 128.248 50.942 124.593 57.127 C 122.483 61.037 121.043 63.587 121.593 66.127 Z " fill="rgb(112,112,112)"/><path d=" M 100.593 83.127 C 96.123 93.957 100.133 105.067 101.593 109.127 C 119.393 158.697 130.523 200.017 137.593 198.127 C 141.733 197.027 140.133 182.267 147.593 180.127 C 149.383 179.617 151.453 180.127 155.593 181.127 C 164.503 183.297 166.113 185.787 167.593 185.127 C 174.883 181.867 145.293 116.617 128.593 84.127 C 126.133 79.337 121.343 70.277 114.593 70.127 C 108.373 69.987 102.933 77.457 100.593 83.127 Z " fill="rgb(112,112,112)"/><path d=" M 72.593 275.127 C 71.523 270.557 67.943 267.127 69.593 263.127 C 71.593 258.177 79.733 257.067 86.593 256.127 C 88.773 255.827 91.313 255.587 109.593 256.127 C 119.273 256.417 123.493 256.627 129.593 255.127 C 132.641 254.278 135.645 253.277 138.593 252.127 C 150.003 248.007 153.223 245.707 157.593 247.127 C 160.923 248.217 160.373 249.987 163.593 251.127 C 169.353 253.127 173.203 248.247 182.593 245.127 C 184.023 244.657 191.893 244.127 207.593 243.127 C 216.883 242.527 221.593 242.267 222.593 244.127 C 224.593 247.667 215.653 252.757 216.593 259.127 C 217.593 266.127 229.363 267.057 241.593 274.127 C 254.963 281.857 252.923 287.637 270.593 306.127 C 291.943 328.467 303.013 328.487 303.593 339.127 C 304.323 352.507 287.673 368.267 275.593 367.127 C 269.723 366.577 266.383 362.177 262.593 364.127 C 258.103 366.437 261.053 373.537 255.593 381.127 C 255.163 381.717 249.013 390.027 240.593 390.127 C 233.763 390.207 229.763 384.837 225.593 387.127 C 223.293 388.387 224.243 390.127 221.593 392.127 C 216.273 396.037 206.593 393.127 206.593 393.127 C 206.593 393.127 202.123 388.607 199.593 389.127 C 195.743 389.917 199.003 401.847 192.593 407.127 C 187.593 411.277 177.313 410.707 172.593 406.127 C 170.643 404.237 169.973 401.987 168.593 402.127 C 166.393 402.357 167.133 408.127 163.593 412.127 C 159.273 416.947 149.483 417.967 143.593 414.127 C 137.703 410.287 137.843 403.127 134.593 403.127 C 131.343 403.127 131.463 409.857 125.593 413.127 C 120.193 416.127 113.593 414.127 110.593 413.127 C 107.903 412.287 103.663 410.957 100.593 407.127 C 96.803 402.397 97.993 397.837 95.593 397.127 C 92.643 396.257 90.823 403.127 84.593 405.127 C 78.363 407.127 70.043 403.307 65.593 398.127 C 60.723 392.457 61.593 386.647 58.593 386.127 C 54.733 385.467 53.133 395.017 45.593 397.127 C 38.693 399.057 31.373 393.487 29.593 392.127 C 21.783 386.127 22.963 380.177 16.593 377.127 C 9.133 373.557 2.673 379.487 0.593 377.127 C -3.677 372.287 15.453 338.187 47.593 310.127 C 57.963 301.127 75.503 287.577 72.593 275.127 Z " fill="rgb(216,216,216)"/><path d=" M 85.593 291.127 C 76.753 284.977 14.953 343.827 25.593 365.127 C 27.683 369.307 32.433 371.787 36.593 372.127 C 62.243 374.217 94.323 297.197 85.593 291.127 Z " fill="rgb(160,160,160)"/><path d=" M 120.593 290.127 C 118.593 289.037 112.593 297.657 97.593 317.127 C 67.433 356.127 58.263 364.377 61.593 374.127 C 64.333 382.127 74.673 388.717 82.593 387.127 C 92.503 385.127 94.103 371.257 111.593 321.127 C 118.693 300.777 122.593 291.207 120.593 290.127 Z " fill="rgb(160,160,160)"/><path d=" M 139.593 291.127 C 138.823 291.007 137.683 291.547 128.593 312.127 C 106.373 362.417 106.703 373.827 110.593 382.127 C 111.123 383.257 114.893 391.287 119.593 391.127 C 124.593 390.957 128.153 381.667 130.593 374.127 C 141.333 340.897 146.003 292.127 139.593 291.127 Z " fill="rgb(160,160,160)"/><path d=" M 151.593 286.127 C 161.443 285.297 187.013 371.077 163.593 387.127 C 158.523 390.597 149.383 392.027 144.593 388.127 C 138.413 383.127 141.123 370.597 142.593 363.127 C 152.733 311.637 146.273 286.577 151.593 286.127 Z " fill="rgb(160,160,160)"/><path d=" M 171.593 279.127 C 168.593 280.957 176.793 291.017 181.593 320.127 C 186.393 349.237 182.113 362.657 192.593 371.127 C 199.003 376.307 209.343 378.297 214.593 374.127 C 216.963 372.247 219.993 367.767 217.593 353.127 C 211.133 313.667 177.593 275.507 171.593 279.127 Z " fill="rgb(160,160,160)"/><path d=" M 192.593 274.127 C 192.453 274.287 195.373 276.347 199.593 281.127 C 229.133 314.587 217.593 362.267 232.593 367.127 C 240.313 369.627 253.743 360.357 256.593 349.127 C 264.383 318.467 193.253 273.377 192.593 274.127 Z " fill="rgb(160,160,160)"/><path d=" M 150.023 271.817 C 146.073 267.347 134.893 268.477 131.563 274.047 C 130.213 276.297 130.563 278.847 131.243 283.947 C 132.083 290.277 132.523 293.497 135.113 295.387 C 139.473 298.567 147.773 296.447 150.803 291.647 C 152.253 289.347 152.123 286.587 151.853 281.077 C 151.593 275.997 151.473 273.457 150.023 271.817 Z " fill="rgb(112,112,112)"/><path d=" M 192.653 244.187 C 194.813 245.647 194.653 247.407 197.903 257.087 C 205.543 280.087 210.743 283.417 208.903 287.867 C 203.393 301.467 142.803 299.777 138.323 282.757 C 134.103 266.607 180.153 235.697 192.653 244.187 Z " fill="rgb(112,112,112)"/><path d=" M 126.043 269.627 C 111.363 257.397 86.093 248.887 77.593 258.127 C 76.093 259.757 75.763 261.237 75.593 284.127 C 75.453 302.347 75.593 304.457 77.593 306.127 C 80.793 308.857 85.173 307.387 112.413 297.487 C 127.673 291.947 135.323 289.077 136.163 284.817 C 137.303 279.017 130.293 273.177 126.043 269.627 Z " fill="rgb(112,112,112)"/><path d=" M 151.593 283.127 C 147.763 291.127 158.953 302.807 178.593 325.127 C 208.403 358.997 227.653 383.197 232.033 380.237 C 232.693 379.797 232.473 379.107 233.593 363.127 C 233.983 357.517 234.063 356.947 234.593 356.127 C 239.393 348.767 258.593 356.687 260.883 352.467 C 262.883 348.767 249.983 339.467 235.593 326.127 C 231.023 321.887 187.303 280.997 177.593 277.127 C 174.12 275.655 170.274 275.305 166.593 276.127 L 166.593 276.127 C 160.593 276.737 153.873 278.387 151.593 283.127 Z " fill="rgb(112,112,112)"/><path d=" M 117.593 280.987 C 107.103 286.117 102.783 296.987 101.113 301.117 C 82.933 346.117 60.113 382.357 67.633 387.117 C 71.893 389.817 82.083 380.047 88.513 384.767 C 90.593 386.287 93.333 390.097 93.843 390.817 C 95.903 393.707 96.313 395.127 97.533 397.017 C 100.203 401.147 104.993 404.867 107.633 405.117 C 118.273 406.117 124.303 353.877 137.893 300.277 C 139.073 295.627 141.773 285.227 136.693 280.517 C 132.083 276.297 123.063 278.287 117.593 280.987 Z " fill="rgb(112,112,112)"/><path d=" M 265.113 389.957 C 271.223 390.027 271.813 397.017 282.283 399.857 C 285.422 400.809 288.726 401.095 291.983 400.697 C 296.403 400.077 296.673 398.587 300.633 398.067 C 305.033 397.487 311.443 398.427 314.243 402.437 C 315.873 404.767 315.293 406.937 316.683 407.367 C 318.443 407.907 319.683 404.607 323.683 402.577 C 323.913 402.457 329.343 399.777 334.283 401.687 C 339.223 403.597 339.223 408.627 342.673 408.927 C 346.453 409.257 347.243 403.307 352.863 402.057 C 358.053 400.897 363.593 404.637 365.353 405.827 C 369.353 408.547 369.353 410.457 371.513 410.567 C 375.693 410.787 376.243 403.427 383.513 400.307 C 384.753 399.777 389.873 397.787 394.683 399.757 C 397.683 400.967 398.083 402.697 400.323 402.757 C 403.543 402.857 404.833 399.357 408.783 396.407 C 411.993 394.017 412.783 395.087 422.633 392.207 C 431.913 389.487 436.563 388.127 439.403 385.207 C 442.083 382.477 443.333 379.427 446.143 379.387 C 448.953 379.347 450.073 382.077 451.513 381.527 C 453.943 380.617 450.513 372.947 454.163 368.447 C 456.563 365.447 459.303 367.227 467.473 362.517 C 470.263 360.907 472.393 359.297 472.473 357.217 C 472.543 355.477 471.133 354.887 471.473 353.757 C 472.183 350.937 481.293 353.117 484.183 348.947 C 485.963 346.397 483.183 344.567 484.183 339.517 C 485.033 334.907 487.563 335.127 493.183 325.457 C 495.683 321.127 496.243 319.227 496.533 317.827 C 497.203 314.627 496.533 313.757 497.533 311.827 C 499.253 308.627 502.273 308.947 503.403 306.267 C 504.043 304.767 503.483 303.727 502.403 299.947 C 500.033 291.417 501.343 291.507 499.593 287.577 C 497.193 282.177 494.283 280.997 494.973 278.577 C 495.593 276.417 498.643 274.857 501.373 274.747 C 506.863 274.507 508.933 280.197 519.243 289.617 C 523.163 293.207 523.443 292.907 532.793 301.027 C 540.943 308.107 542.423 309.797 542.363 312.097 C 542.223 317.727 533.003 320.167 533.743 325.377 C 534.163 328.267 537.243 329.377 536.743 332.037 C 536.263 334.497 533.423 334.877 533.463 336.817 C 533.523 339.097 537.463 339.457 537.903 342.077 C 538.343 344.697 534.903 345.617 535.153 348.587 C 535.323 350.897 537.423 351.297 537.593 353.517 C 537.673 354.667 537.223 356.107 533.713 359.417 C 527.993 364.797 523.773 366.047 524.043 368.017 C 524.313 369.987 528.043 370.277 527.953 371.557 C 527.863 372.837 524.703 372.327 522.153 374.257 C 518.673 376.887 520.663 380.497 517.603 384.147 C 513.933 388.507 508.033 386.937 507.143 390.147 C 506.393 392.827 510.213 394.937 509.243 397.067 C 508.103 399.557 502.493 397.477 499.993 400.817 C 498.853 402.337 499.643 403.237 498.103 407.057 C 497.539 408.676 496.726 410.198 495.693 411.567 C 491.533 416.457 483.213 413.107 481.253 416.897 C 480.183 418.897 482.343 420.477 481.093 422.617 C 479.653 425.087 476.243 423.907 471.843 426.367 C 468.323 428.367 469.013 429.917 465.973 431.927 C 461.253 435.037 458.133 432.187 450.473 433.797 C 443.353 435.287 444.733 438.027 437.163 439.727 C 430.283 441.277 426.163 439.727 423.053 443.067 C 421.293 444.997 421.803 446.447 419.783 447.837 C 417.193 449.617 415.013 448.177 410.603 448.737 C 405.223 449.407 405.603 451.907 400.483 452.737 C 394.713 453.737 393.093 450.687 387.923 451.827 C 383.823 452.727 383.763 454.827 379.203 457.307 C 373.043 460.617 366.733 460.167 359.113 459.627 C 350.243 458.997 349.573 457.187 343.443 457.767 C 335.613 458.517 335.293 461.607 329.593 461.977 C 318.353 462.697 315.833 450.907 304.453 450.707 C 295.453 450.547 292.813 457.917 284.293 455.887 C 279.573 454.757 280.083 452.477 273.013 449.887 C 269.013 448.397 263.273 446.067 257.253 446.777 C 252.373 447.357 252.643 449.267 244.183 452.297 C 237.363 454.747 233.953 455.967 231.673 454.547 C 225.903 450.937 230.073 434.227 231.163 429.857 C 231.473 428.637 232.823 424.457 235.533 416.117 C 238.533 406.797 239.483 404.317 239.253 400.237 C 238.933 394.657 236.733 391.287 237.863 390.567 C 239.643 389.447 243.573 397.407 250.123 397.707 C 256.803 398.127 258.443 389.877 265.113 389.957 Z " fill="rgb(216,216,216)"/><path d=" M 552.443 323.827 C 553.056 323.641 553.647 323.386 554.203 323.067 C 552.718 326.118 553.184 329.759 555.388 332.339 C 557.593 334.919 561.117 335.947 564.363 334.957 C 564.988 334.769 565.589 334.507 566.153 334.177 C 564.312 337.001 564.306 340.644 566.136 343.475 C 567.967 346.306 571.291 347.796 574.623 347.277 C 573.353 350.031 573.643 353.253 575.382 355.738 C 577.122 358.222 580.05 359.596 583.073 359.347 C 580.925 362.684 581.36 367.062 584.122 369.912 C 586.885 372.762 591.247 373.333 594.65 371.29 C 598.053 369.247 599.6 365.129 598.383 361.351 C 597.167 357.573 593.508 355.131 589.553 355.457 C 591.376 352.63 591.369 348.995 589.533 346.176 C 587.697 343.358 584.375 341.881 581.053 342.407 C 581.926 340.526 582.075 338.39 581.473 336.407 C 580.102 331.895 575.335 329.348 570.823 330.717 C 570.198 330.912 569.598 331.177 569.033 331.507 C 570.99 328.499 570.86 324.588 568.708 321.717 C 566.555 318.845 562.839 317.623 559.403 318.657 C 558.789 318.847 558.199 319.106 557.643 319.427 C 559.399 315.792 558.367 311.423 555.169 308.959 C 551.971 306.494 547.484 306.609 544.416 309.234 C 541.349 311.859 540.542 316.275 542.482 319.815 C 544.423 323.356 548.58 325.051 552.443 323.877 L 552.443 323.827 Z " fill="rgb(160,160,160)"/><path d=" M 608.593 392.547 C 607.614 389.315 604.823 386.963 601.473 386.547 C 604.53 383.916 605.329 379.504 603.39 375.968 C 601.45 372.431 597.301 370.733 593.439 371.897 C 589.577 373.06 587.055 376.767 587.391 380.786 C 587.728 384.806 590.831 388.042 594.833 388.547 C 592.33 390.705 591.299 394.115 592.188 397.299 C 593.076 400.482 595.724 402.866 598.983 403.417 C 596.45 405.39 595.24 408.619 595.852 411.771 C 596.465 414.923 598.795 417.465 601.883 418.347 C 601.449 418.402 601.021 418.492 600.603 418.617 C 596.981 419.715 594.514 423.067 594.542 426.851 C 594.569 430.636 597.085 433.951 600.723 434.997 C 600.29 435.059 599.863 435.149 599.443 435.267 C 596.366 436.207 594.08 438.798 593.531 441.967 C 592.982 445.137 594.262 448.346 596.843 450.267 C 596.164 450.301 595.492 450.419 594.843 450.617 C 592.685 451.27 590.876 452.755 589.815 454.743 C 588.753 456.731 588.526 459.06 589.183 461.217 C 589.593 462.592 590.351 463.839 591.383 464.837 C 591.163 464.887 590.933 464.937 590.713 465.007 C 588.04 465.82 585.938 467.895 585.089 470.556 C 584.241 473.218 584.754 476.126 586.463 478.337 C 583.425 477.089 579.94 477.703 577.512 479.913 C 575.084 482.124 574.146 485.535 575.103 488.677 C 575.224 489.056 575.371 489.427 575.543 489.787 C 572.928 488.916 570.053 489.369 567.833 491.001 C 565.613 492.633 564.322 495.241 564.373 497.997 C 561.694 497 558.695 497.417 556.391 499.107 C 554.086 500.797 552.787 503.533 552.933 506.387 C 551.2 504.005 548.357 502.691 545.421 502.915 C 542.484 503.14 539.873 504.87 538.523 507.487 C 536.375 504.656 532.694 503.459 529.293 504.487 C 527.545 505.016 526.018 506.101 524.943 507.577 C 524.9 506.899 524.783 506.228 524.593 505.577 C 523.714 502.683 521.364 500.474 518.421 499.776 C 515.479 499.078 512.387 499.996 510.303 502.187 C 510.849 498.698 509.182 495.234 506.114 493.486 C 503.045 491.737 499.216 492.068 496.493 494.317 C 497.404 491.314 496.587 488.053 494.367 485.835 C 492.146 483.617 488.885 482.802 485.883 483.717 L 485.593 483.817 C 485.9 480.977 484.762 478.172 482.563 476.349 C 480.364 474.526 477.396 473.928 474.663 474.757 C 474.053 474.946 473.467 475.201 472.913 475.517 C 474.545 472.165 473.799 468.141 471.075 465.596 C 468.351 463.051 464.286 462.581 461.053 464.437 C 462.533 461.399 462.071 457.773 459.877 455.204 C 457.683 452.634 454.174 451.61 450.943 452.597 C 450.463 452.74 449.998 452.927 449.553 453.157 C 449.887 451.719 449.835 450.218 449.403 448.807 C 448.036 444.317 443.291 441.784 438.8 443.148 C 434.31 444.512 431.775 449.256 433.136 453.747 C 434.498 458.238 439.241 460.776 443.733 459.417 C 444.213 459.27 444.678 459.079 445.123 458.847 C 444.788 460.285 444.84 461.785 445.273 463.197 C 445.926 465.357 447.412 467.168 449.402 468.231 C 451.392 469.295 453.724 469.524 455.883 468.867 C 456.492 468.677 457.078 468.423 457.633 468.107 C 456 471.458 456.746 475.483 459.47 478.028 C 462.194 480.573 466.259 481.043 469.493 479.187 C 467.996 482.224 468.448 485.861 470.643 488.44 C 472.837 491.019 476.354 492.047 479.593 491.057 L 479.893 490.957 C 479.766 492.097 479.875 493.25 480.213 494.347 C 480.866 496.504 482.35 498.314 484.338 499.377 C 486.326 500.44 488.655 500.67 490.813 500.017 C 491.91 499.7 492.93 499.162 493.813 498.437 C 492.668 502.205 494.263 506.266 497.665 508.25 C 501.068 510.233 505.387 509.619 508.103 506.767 C 507.897 508.029 507.982 509.322 508.353 510.547 C 509.273 513.642 511.869 515.947 515.051 516.494 C 518.234 517.042 521.451 515.737 523.353 513.127 C 523.385 513.805 523.503 514.477 523.703 515.127 C 524.71 518.433 527.619 520.801 531.062 521.115 C 534.504 521.429 537.794 519.627 539.383 516.557 C 541.639 519.488 545.534 520.62 549.011 519.356 C 552.487 518.092 554.745 514.723 554.593 511.027 C 556.771 514.029 560.646 515.269 564.163 514.09 C 567.68 512.911 570.024 509.585 569.953 505.877 C 572.981 507 576.384 506.311 578.736 504.097 C 581.088 501.883 581.981 498.527 581.043 495.437 C 580.92 495.059 580.777 494.688 580.613 494.327 C 583.625 495.328 586.945 494.565 589.218 492.349 C 591.491 490.133 592.337 486.834 591.413 483.797 C 591.116 482.807 590.638 481.881 590.003 481.067 C 593.785 482.642 598.152 481.298 600.396 477.87 C 602.639 474.442 602.121 469.901 599.163 467.067 C 599.386 467.028 599.606 466.974 599.823 466.907 C 602.922 465.994 605.235 463.401 605.789 460.218 C 606.343 457.034 605.042 453.813 602.433 451.907 C 606.589 451.675 609.974 448.48 610.443 444.344 C 610.913 440.207 608.332 436.334 604.333 435.177 C 604.766 435.121 605.194 435.031 605.613 434.907 C 609.234 433.808 611.701 430.457 611.673 426.672 C 611.646 422.887 609.13 419.572 605.493 418.527 C 609.662 417.943 612.782 414.405 612.84 410.195 C 612.897 405.986 609.875 402.364 605.723 401.667 C 608.453 399.499 609.59 395.888 608.593 392.547 L 608.593 392.547 Z " fill="rgb(160,160,160)"/><circle vector-effect="non-scaling-stroke" cx="0" cy="0" r="1" transform="matrix(8.54,0,0,8.54,241.713,496.927)" fill="rgb(160,160,160)"/><path d=" M 240.653 488.327 C 244.057 487.3 246.468 484.269 246.702 480.721 C 246.935 477.172 244.943 473.851 241.703 472.387 C 245.352 470.713 247.342 466.724 246.486 462.802 C 245.629 458.88 242.157 456.084 238.143 456.084 C 234.128 456.084 230.656 458.88 229.799 462.802 C 228.943 466.724 230.934 470.713 234.583 472.387 C 230.515 474.274 228.6 478.986 230.198 483.176 C 231.795 487.366 236.361 489.606 240.653 488.307 L 240.653 488.327 Z " fill="rgb(160,160,160)"/><path d=" M 440.523 439.687 C 439.339 435.798 435.578 433.282 431.531 433.673 C 427.485 434.064 424.275 437.253 423.858 441.296 C 423.44 445.34 425.931 449.118 429.813 450.327 C 426.845 451.338 424.673 453.897 424.157 456.989 C 423.641 460.081 424.864 463.207 427.343 465.127 C 424.702 466.292 422.831 468.714 422.371 471.563 C 421.911 474.411 422.924 477.3 425.063 479.237 C 422.49 480.793 420.929 483.59 420.954 486.596 C 420.978 489.602 422.585 492.373 425.183 493.887 C 424.545 493.927 423.914 494.041 423.303 494.227 C 420.221 495.161 417.929 497.752 417.379 500.925 C 416.829 504.098 418.115 507.31 420.703 509.227 C 420.008 509.265 419.32 509.383 418.653 509.577 C 414.14 510.952 411.593 515.722 412.963 520.237 C 413.449 521.855 414.411 523.291 415.723 524.357 C 412.093 523.992 408.632 525.971 407.104 529.283 C 405.577 532.596 406.319 536.513 408.953 539.037 C 407.687 538.831 406.391 538.917 405.163 539.287 C 402.994 539.945 401.175 541.438 400.108 543.437 C 399.041 545.437 398.812 547.779 399.473 549.947 C 399.625 550.452 399.826 550.941 400.073 551.407 C 397.321 551.311 394.692 552.549 393.014 554.731 C 391.336 556.914 390.814 559.772 391.613 562.407 Q 391.733 562.797 391.883 563.157 C 390.986 563.138 390.092 563.26 389.233 563.517 C 387.068 564.185 385.258 565.686 384.201 567.689 C 383.143 569.691 382.924 572.032 383.593 574.197 C 383.69 574.521 383.81 574.839 383.953 575.147 C 380.981 573.329 377.204 573.498 374.407 575.574 C 371.61 577.65 370.354 581.216 371.233 584.587 C 368.677 582.513 365.157 582.093 362.185 583.507 C 359.213 584.92 357.317 587.916 357.313 591.207 C 355.283 588.191 351.567 586.79 348.051 587.716 C 344.536 588.642 341.992 591.692 341.713 595.317 C 340.127 592.291 336.889 590.503 333.483 590.773 C 330.078 591.043 327.162 593.319 326.073 596.557 C 326.335 593.723 325.167 590.945 322.959 589.151 C 320.75 587.356 317.793 586.781 315.073 587.617 C 313.456 588.103 312.022 589.061 310.953 590.367 C 311.221 587.527 310.058 584.741 307.851 582.935 C 305.644 581.129 302.682 580.541 299.953 581.367 C 299.191 581.602 298.465 581.938 297.793 582.367 C 298.187 580.858 298.156 579.269 297.703 577.777 C 296.895 575.103 294.83 572.994 292.174 572.131 C 289.518 571.268 286.608 571.759 284.383 573.447 C 286.062 570.397 285.723 566.633 283.524 563.934 C 281.326 561.234 277.709 560.14 274.383 561.167 C 274.058 561.266 273.741 561.386 273.433 561.527 C 275.263 558.56 275.101 554.777 273.024 551.977 C 270.946 549.177 267.373 547.925 264.003 548.817 C 266.18 546.131 266.523 542.397 264.872 539.36 C 263.22 536.322 259.9 534.58 256.463 534.947 C 259.182 532.823 260.355 529.27 259.433 525.945 C 258.512 522.62 255.677 520.177 252.253 519.757 C 255.308 517.126 256.107 512.715 254.169 509.179 C 252.23 505.643 248.082 503.945 244.221 505.107 C 240.359 506.268 237.836 509.973 238.17 513.991 C 238.503 518.01 241.602 521.248 245.603 521.757 C 242.733 524.188 241.792 528.211 243.286 531.663 C 244.78 535.115 248.356 537.183 252.093 536.757 C 248.858 539.237 247.83 543.659 249.639 547.312 C 251.448 550.965 255.589 552.827 259.523 551.757 C 257.161 554.671 256.978 558.785 259.071 561.898 C 261.163 565.011 265.042 566.394 268.633 565.307 C 268.974 565.211 269.308 565.091 269.633 564.947 C 267.776 567.97 267.982 571.827 270.151 574.635 C 272.319 577.443 275.998 578.618 279.393 577.587 C 280.351 577.29 281.251 576.83 282.053 576.227 C 280.938 578.235 280.689 580.611 281.363 582.807 C 282.145 585.37 284.084 587.418 286.601 588.339 C 289.117 589.261 291.92 588.949 294.173 587.497 C 293.406 590.483 294.311 593.651 296.539 595.782 C 298.768 597.914 301.973 598.676 304.923 597.777 C 306.541 597.29 307.977 596.328 309.043 595.017 C 308.739 599.269 311.619 603.094 315.789 603.978 C 319.96 604.863 324.144 602.536 325.593 598.527 C 325.49 599.621 325.602 600.725 325.923 601.777 C 327.134 605.687 330.949 608.187 335.017 607.738 C 339.086 607.289 342.263 604.017 342.593 599.937 C 344.422 603.419 348.394 605.201 352.212 604.253 C 356.029 603.304 358.705 599.87 358.693 595.937 C 361.003 599.416 365.492 600.711 369.3 598.997 C 373.109 597.283 375.116 593.063 374.043 589.027 C 376.953 591.376 381.054 591.559 384.161 589.476 C 387.269 587.394 388.659 583.532 387.593 579.947 C 387.495 579.606 387.375 579.272 387.233 578.947 C 390.253 580.805 394.108 580.601 396.915 578.434 C 399.722 576.267 400.896 572.589 399.863 569.197 C 399.793 568.937 399.693 568.687 399.603 568.447 C 402.333 568.503 404.926 567.248 406.576 565.072 C 408.226 562.896 408.734 560.061 407.943 557.447 C 407.782 556.943 407.578 556.454 407.333 555.987 C 410.084 556.083 412.713 554.844 414.391 552.662 C 416.07 550.48 416.591 547.621 415.793 544.987 C 415.37 543.575 414.584 542.299 413.513 541.287 C 417.302 541.865 421.013 539.844 422.582 536.346 C 424.151 532.848 423.194 528.733 420.243 526.287 C 424.079 526.706 427.721 524.5 429.125 520.904 C 430.529 517.309 429.348 513.219 426.243 510.927 C 426.921 510.889 427.592 510.772 428.243 510.577 C 431.488 509.589 433.842 506.774 434.239 503.405 C 434.636 500.036 433 496.751 430.073 495.037 C 430.714 494.996 431.348 494.882 431.963 494.697 C 436.474 493.326 439.021 488.559 437.653 484.047 C 437.21 482.574 436.373 481.249 435.233 480.217 C 438.552 478.186 440.084 474.173 438.963 470.447 C 438.454 468.769 437.437 467.291 436.053 466.217 C 439.332 464.787 441.374 461.464 441.166 457.892 C 440.958 454.32 438.546 451.257 435.123 450.217 C 439.45 448.716 441.829 444.076 440.523 439.687 Z " fill="rgb(160,160,160)"/><path d=" M 463.743 505.997 C 461.383 504.447 456.193 506.437 455.433 509.297 C 454.673 512.157 458.743 515.797 458.303 516.187 C 457.863 516.577 455.683 513.187 452.743 513.187 C 449.803 513.187 446.553 516.887 446.933 519.607 C 447.213 521.607 449.313 522.337 448.933 523.607 C 448.553 524.877 446.303 524.487 445.103 526.317 C 444.293 527.768 444.245 529.523 444.973 531.017 C 445.873 532.867 447.643 533.247 447.473 534.137 C 447.303 535.027 445.983 534.727 444.853 535.717 C 443.103 537.217 442.643 540.717 443.943 542.977 C 445.243 545.237 447.323 544.657 448.303 547.087 C 448.732 548.052 448.786 549.144 448.453 550.147 C 447.993 551.297 447.183 551.257 446.753 552.217 C 445.993 553.887 447.223 556.797 449.193 557.687 C 450.983 558.497 452.593 557.267 453.193 558.027 C 453.793 558.787 451.683 560.537 451.643 563.157 C 451.643 566.027 454.153 569.157 456.643 569.397 C 458.763 569.577 460.173 567.547 460.913 568.107 C 461.813 568.787 459.383 571.697 460.503 574.437 C 461.423 576.299 463.278 577.519 465.353 577.627 C 465.793 577.627 467.823 577.797 468.903 576.547 C 469.633 575.707 469.473 574.767 469.903 574.687 C 470.563 574.567 470.903 576.847 472.623 578.527 C 474.343 580.207 477.133 581.167 479.383 580.347 C 481.633 579.527 481.773 577.577 483.223 577.637 C 485.063 577.707 485.223 580.967 487.573 581.747 C 489.923 582.527 493.373 580.657 494.243 578.167 C 495.243 575.327 492.643 572.167 493.723 571.337 C 494.233 570.947 494.823 571.617 496.073 571.407 C 497.803 571.107 499.073 569.407 499.693 567.977 C 500.783 565.267 499.133 563.597 500.313 562.357 C 501.233 561.357 502.383 562.247 504.583 561.057 C 505.622 560.593 506.472 559.789 506.993 558.777 C 507.673 557.167 506.913 555.447 506.403 554.297 C 505.033 551.187 503.133 550.717 503.263 549.047 C 503.363 547.777 504.553 547.827 505.453 546.047 C 506.596 543.587 506.317 540.701 504.723 538.507 C 503.423 536.877 502.073 537.147 501.513 535.597 C 500.953 534.047 502.023 533.597 501.853 531.597 C 501.58 529.484 500.438 527.581 498.703 526.347 C 496.903 525.037 494.963 524.957 495.003 524.347 C 495.043 523.737 496.413 523.927 496.913 522.997 C 497.413 522.067 496.843 520.397 495.833 519.437 C 493.713 517.437 490.683 519.437 489.073 517.617 C 487.933 516.337 489.073 514.997 487.773 513.347 C 486.661 512.099 485.028 511.447 483.363 511.587 C 481.363 511.747 480.713 513.057 479.803 512.667 C 478.603 512.137 479.583 509.667 478.293 507.667 C 476.623 505.037 471.703 504.007 469.183 505.777 C 466.663 507.547 467.023 511.367 466.183 511.337 C 465.343 511.307 465.883 507.387 463.743 505.997 Z " fill="rgb(160,160,160)"/><circle vector-effect="non-scaling-stroke" cx="0" cy="0" r="1" transform="matrix(15.23,0,0,15.23,452.143,492.047)" fill="rgb(160,160,160)"/><ellipse vector-effect="non-scaling-stroke" cx="0" cy="0" rx="1" ry="1" transform="matrix(22.464,-6.786,8.294,27.456,476.709,546.508)" fill="rgb(112,112,112)"/><path d=" M 402.413 393.427 C 400.533 393.917 399.133 390.607 397.073 391.167 C 395.543 391.587 394.533 393.897 394.593 395.797 C 394.693 398.687 397.233 399.447 397.033 401.267 C 396.723 404.037 390.713 403.667 387.943 407.137 C 384.753 411.137 386.703 419.137 390.063 424.347 C 397.303 435.517 412.273 435.437 412.383 441.627 C 412.453 445.087 407.833 446.987 408.863 450.467 C 409.513 452.667 412.003 454.017 413.923 454.357 C 417.693 455.037 420.663 452.127 421.523 451.277 C 424.033 448.807 423.153 447.397 425.203 445.507 C 428.083 442.857 430.533 444.967 436.083 442.977 C 441.633 440.987 443.233 437.417 446.313 438.317 C 448.233 438.887 448.143 440.427 450.233 441.007 C 453.547 441.827 456.969 440.137 458.333 437.007 C 459.853 433.067 456.843 429.007 454.103 428.207 C 451.663 427.527 450.103 429.727 448.913 429.007 C 446.643 427.667 450.323 419.337 451.833 407.937 C 453.003 399.107 453.903 392.347 449.833 388.377 C 447.403 386.037 441.833 383.317 437.933 384.997 C 436.683 385.537 435.453 386.597 434.383 386.077 C 433.133 385.477 433.773 383.567 432.383 382.027 C 430.993 380.487 428.383 380.207 426.543 380.697 C 423.143 381.597 422.313 385.147 420.793 384.767 C 419.793 384.527 419.993 383.057 418.353 379.297 C 417.641 377.365 416.573 375.584 415.203 374.047 C 414.171 372.804 412.813 371.872 411.283 371.357 C 407.893 370.357 403.283 372.137 401.763 375.797 C 401.131 377.55 401.163 379.475 401.853 381.207 C 402.613 382.887 403.543 382.897 404.353 384.327 C 406.133 387.497 404.593 392.867 402.413 393.427 Z " fill="rgb(160,160,160)"/><ellipse vector-effect="non-scaling-stroke" cx="0" cy="0" rx="1" ry="1" transform="matrix(16.098,-5.707,7.074,19.953,424.789,417.135)" fill="rgb(112,112,112)"/><path d=" M 254.743 423.497 C 253.503 423.497 253.453 420.707 250.083 413.267 C 246.253 404.807 242.443 399.827 243.423 398.997 C 244.403 398.167 246.813 401.997 251.333 401.997 C 255.333 401.997 256.883 399.147 258.443 399.837 C 262.453 401.657 258.233 423.547 254.743 423.497 Z " fill="rgb(112,112,112)"/><path d=" M 271.593 399.757 C 267.443 401.947 268.863 420.417 276.363 423.147 C 285.443 426.457 300.283 405.547 298.063 402.587 C 296.873 400.997 291.503 405.657 282.983 404.057 C 276.093 402.757 273.793 398.597 271.593 399.757 Z " fill="rgb(112,112,112)"/><path d=" M 307.593 405.897 C 303.813 407.567 305.383 426.727 311.213 428.087 C 317.953 429.647 328.883 407.087 326.863 405.477 C 325.863 404.657 322.283 409.797 316.423 409.427 C 311.433 409.127 309.493 405.127 307.593 405.897 Z " fill="rgb(112,112,112)"/><path d=" M 337.093 410.927 C 334.243 412.657 336.333 425.627 341.093 426.777 C 347.233 428.257 356.593 409.997 354.983 408.597 C 354.043 407.777 350.043 413.237 343.823 412.757 C 339.983 412.457 338.453 410.127 337.093 410.927 Z " fill="rgb(112,112,112)"/><path d=" M 363.343 413.047 C 361.183 414.107 363.343 428.527 368.343 429.397 C 373.953 430.397 381.123 413.397 379.343 412.067 C 378.243 411.227 374.163 417.007 368.893 416.017 C 365.593 415.397 364.363 412.547 363.343 413.047 Z " fill="rgb(112,112,112)"/><path d=" M 241.383 448.517 C 239.783 446.607 248.513 429.697 262.093 429.807 C 276.613 429.927 284.413 449.397 283.143 450.587 C 282.233 451.447 276.763 442.587 266.253 440.967 C 252.923 438.917 242.853 450.287 241.383 448.517 Z " fill="rgb(112,112,112)"/><path d=" M 291.183 448.927 C 289.893 446.747 301.023 431.427 312.483 434.697 C 322.913 437.697 325.773 453.827 323.483 455.437 C 321.683 456.667 317.483 448.837 307.733 447.017 C 298.443 445.307 292.063 450.407 291.183 448.927 Z " fill="rgb(112,112,112)"/><path d=" M 331.683 454.487 C 329.773 451.347 341.143 434.777 353.533 436.987 C 363.313 438.727 369.683 451.437 367.393 454.507 C 365.823 456.627 360.983 453.067 349.813 452.857 C 338.153 452.647 332.813 456.347 331.683 454.487 Z " fill="rgb(112,112,112)"/><path d=" M 379.043 449.427 C 375.183 447.427 375.163 435.077 379.493 432.987 C 385.303 430.177 399.103 445.857 397.403 448.507 C 396.543 449.837 392.403 446.967 384.943 448.407 C 381.413 449.127 380.403 450.127 379.043 449.427 Z " fill="rgb(112,112,112)"/><path d=" M 461.253 372.467 C 463.523 372.357 469.153 394.837 464.113 397.217 C 459.903 399.217 449.113 386.797 450.343 385.087 C 450.803 384.417 452.733 385.987 455.033 385.217 C 460.193 383.497 459.673 372.537 461.253 372.467 Z " fill="rgb(112,112,112)"/><path d=" M 474.003 422.127 C 472.643 422.307 466.003 407.287 471.243 402.777 C 476.683 398.127 491.183 407.777 490.543 410.117 C 490.043 411.927 480.373 408.617 476.113 413.717 C 473.253 417.177 474.773 422.047 474.003 422.127 Z " fill="rgb(112,112,112)"/><path d=" M 467.503 367.467 C 466.333 370.157 479.403 380.957 483.183 378.227 C 487.183 375.307 479.413 357.777 477.853 358.107 C 477.123 358.267 478.443 362.277 476.023 364.877 C 473.203 367.917 468.173 365.907 467.503 367.467 Z " fill="rgb(112,112,112)"/><path d=" M 486.663 353.887 C 485.883 358.817 494.173 366.107 497.663 364.517 C 502.763 362.197 498.553 340.397 495.733 340.267 C 494.733 340.217 494.633 342.917 491.063 347.897 C 488.273 351.767 486.953 352.067 486.663 353.887 Z " fill="rgb(112,112,112)"/><path d=" M 497.403 330.447 C 497.753 328.087 500.963 328.017 503.213 324.017 C 506.083 318.927 503.843 313.737 504.673 313.487 C 506.483 312.957 518.843 337.047 513.803 340.987 C 510.023 343.947 496.663 335.467 497.403 330.447 Z " fill="rgb(112,112,112)"/><path d=" M 507.223 288.647 C 509.823 287.647 525.593 313.747 521.973 316.777 C 519.823 318.577 509.793 313.067 507.713 305.577 C 507.353 304.307 507.243 301.437 507.033 295.697 C 506.873 291.127 506.793 288.827 507.223 288.647 Z " fill="rgb(112,112,112)"/><path d=" M 491.943 401.957 C 489.203 401.957 484.443 386.327 488.683 383.547 C 492.923 380.767 505.853 392.257 504.583 395.017 C 503.883 396.547 499.223 394.627 495.343 397.827 C 492.953 399.797 492.963 401.967 491.943 401.957 Z " fill="rgb(112,112,112)"/><path d=" M 504.123 385.847 C 503.293 385.077 503.543 383.997 503.823 379.727 C 504.353 371.487 503.823 368.957 505.063 368.477 C 506.783 367.827 508.453 372.267 512.473 372.477 C 515.603 372.617 517.083 370.047 518.163 370.757 C 519.753 371.757 518.563 378.757 514.073 382.867 C 511.003 385.647 505.983 387.537 504.123 385.847 Z " fill="rgb(112,112,112)"/><path d=" M 522.593 362.377 C 525.843 363.097 531.133 358.107 531.313 352.747 C 531.373 350.617 530.683 347.337 528.653 346.567 C 526.923 345.897 525.783 347.677 521.053 349.647 C 516.323 351.617 513.693 351.387 513.453 352.727 C 513.253 353.827 514.903 354.347 518.023 357.557 C 521.143 360.767 521.183 362.057 522.593 362.377 Z " fill="rgb(112,112,112)"/><path d=" M 528.443 338.127 C 527.653 338.127 527.443 336.907 525.303 332.877 C 522.383 327.407 520.973 326.287 521.503 325.487 C 522.503 324.037 528.973 324.707 531.043 328.797 C 533.033 332.677 530.133 338.127 528.443 338.127 Z " fill="rgb(112,112,112)"/></g></svg>