<?xml version="1.0" encoding="utf-8"?>
<!-- Generator: Adobe Illustrator 25.0.0, SVG Export Plug-In . SVG Version: 6.00 Build 0)  -->
<svg version="1.1" id="Calque_1" xmlns="http://www.w3.org/2000/svg" xmlns:xlink="http://www.w3.org/1999/xlink" x="0px" y="0px"
	 viewBox="0 0 465.26 425.72" style="enable-background:new 0 0 465.26 425.72;" xml:space="preserve">
<style type="text/css">
	.st0{fill:#D8D8D8;}
	.st1{fill:#A0A0A0;}
	.st2{fill:#707070;}
</style>
<path class="st0" d="M38.04,168.65c7.46-0.65,9,7.79,22.11,10c3.94,0.78,8,0.73,11.92-0.15c5.31-1.27,5.45-3.12,10.22-4.23
	c5.29-1.24,13.2-0.86,17.1,3.69c2.26,2.64,1.82,5.35,3.57,5.71c2.2,0.45,3.34-3.72,7.95-6.68c0.26-0.16,6.56-4.09,12.8-2.35
	c6.4,1.78,6.86,7.86,11.09,7.82c4.65-0.06,4.9-7.4,11.59-9.6c6.19-2,13.38,1.86,15.66,3.09c5.25,2.84,5.48,5.16,8.08,5
	c5.12-0.23,4.91-9.26,13.39-13.93c1.44-0.8,7.44-3.83,13.54-2c3.77,1.12,4.49,3.18,7.23,3c3.93-0.27,5.09-4.69,9.55-8.75
	c3.61-3.3,4.73-2.1,16.36-6.78c11-4.43,16.48-6.64,19.6-10.52c2.93-3.64,4.09-7.5,7.5-7.9s5.11,2.81,6.81,2
	c2.84-1.4-2.28-10.33,1.65-16.26c2.57-3.87,6.12-2.1,15.51-8.82c3.2-2.29,5.6-4.51,5.46-7c-0.12-2.13-1.91-2.68-1.69-4.09
	c0.53-3.52,11.88-2,14.91-7.38c1.86-3.33-1.7-5.23-1.17-11.49c0.49-5.72,3.59-5.75,9.23-18.2c2.52-5.58,3-8,3.17-9.7
	c0.43-4-0.5-4.95,0.52-7.41c1.71-4.1,5.43-4.07,6.49-7.47c0.59-1.91-0.22-3.11-1.95-7.58c-3.91-10.11-2.3-10.16-4.9-14.74
	c-3.58-6.29-7.27-7.38-6.71-10.4c0.5-2.7,4-5,7.33-5.43c6.67-1,9.87,5.73,23.56,16c5.21,3.89,5.52,3.5,17.88,12.27
	c10.77,7.64,12.78,9.53,13,12.33c0.5,6.89-10.44,11-8.9,17.22c0.85,3.47,4.73,4.42,4.41,7.76c-0.3,3-3.71,3.86-3.42,6.2
	c0.34,2.78,5.23,2.74,6,5.89c0.77,3-3.19,4.66-2.57,8.25c0.49,2.79,3.1,3,3.57,5.71c0.24,1.39-0.14,3.21-4,7.66
	c-6.32,7.24-11.31,9.27-10.75,11.64c0.52,2.19,5.2,2.27,5.19,3.84s-3.86,1.33-6.73,4c-3.93,3.62-1.08,7.78-4.37,12.59
	c-3.95,5.75-11.32,4.55-12,8.57c-0.59,3.35,4.31,5.47,3.39,8.18c-1.08,3.17-8.17,1.31-10.82,5.68c-1.21,2-0.13,3-1.55,7.83
	c-0.5,2.04-1.31,3.99-2.4,5.78c-4.48,6.46-15,3.38-16.95,8.23c-1.05,2.63,1.76,4.23,0.49,7c-1.46,3.18-5.75,2.16-10.82,5.68
	c-4,2.82-3,4.67-6.48,7.48c-5.37,4.35-9.51,1.26-18.65,4.13c-8.5,2.68-6.49,5.84-15.51,8.83c-8.2,2.71-13.44,1.28-16.78,5.75
	c-1.92,2.57-1.12,4.27-3.42,6.21c-2.94,2.48-5.76,1-11.07,2.19c-6.48,1.47-5.73,4.47-11.85,6.11c-6.91,1.86-9.25-1.61-15.41,0.39
	c-4.89,1.59-4.7,4.2-10,7.73c-7.11,4.76-14.84,5-24.19,5.23c-10.89,0.3-11.92-1.83-19.32-0.38c-9.45,1.85-9.46,5.65-16.36,6.78
	c-13.61,2.23-18.09-11.82-32-10.7c-11,0.89-13.31,10.18-23.94,8.72c-5.89-0.81-5.54-3.65-14.46-6c-5.09-1.34-12.33-3.49-19.57-1.9
	c-5.88,1.29-5.32,3.58-15.26,8.29c-8,3.81-12,5.71-15,4.24c-7.47-3.71-4.39-24.56-3.58-30c0.22-1.53,1.37-6.77,3.67-17.27
	c2.56-11.71,3.39-14.85,2.62-19.79c-1-6.76-4.13-10.6-2.84-11.61c2-1.58,7.77,7.65,15.79,7.23
	C28.89,179.54,29.91,169.35,38.04,168.65z"/>
<path class="st1" d="M380.14,53.63c0.71-0.31,1.38-0.69,2-1.15c-2.05,5.4,0.66,11.43,6.06,13.48c2.52,0.96,5.31,0.9,7.79-0.15
	c0.74-0.31,1.44-0.71,2.09-1.17c-2.67,5.11-0.7,11.42,4.41,14.09c2.3,1.2,4.97,1.51,7.48,0.85c-1.89,5.44,0.98,11.39,6.42,13.28
	c1.71,0.59,3.54,0.74,5.31,0.41c-2.64,5.14-0.62,11.44,4.52,14.09c5.14,2.64,11.44,0.62,14.09-4.52c2.64-5.14,0.62-11.44-4.52-14.09
	c-2.05-1.05-4.38-1.4-6.65-0.99c2.68-5.11,0.71-11.42-4.4-14.09c-2.3-1.21-4.97-1.51-7.48-0.86c1.86-5.46-1.05-11.39-6.51-13.25
	c-2.42-0.83-5.06-0.74-7.41,0.25c-0.74,0.31-1.44,0.7-2.08,1.17c2.68-5.11,0.7-11.43-4.41-14.1c-2.75-1.44-6-1.58-8.87-0.39
	c-0.73,0.3-1.41,0.68-2.05,1.14c1.98-5.41-0.8-11.41-6.22-13.39c-5.41-1.98-11.41,0.8-13.39,6.22s0.8,11.41,6.22,13.39
	c2.46,0.9,5.18,0.84,7.6-0.17V53.63z"/>
<path class="st1" d="M456.81,130.6c-1.58-3.81-5.26-6.33-9.38-6.44c3.98-4.19,3.81-10.81-0.38-14.79
	c-4.19-3.98-10.81-3.81-14.79,0.38c-3.98,4.19-3.81,10.81,0.38,14.79c1.87,1.78,4.34,2.81,6.93,2.87c-3.97,4.19-3.8,10.8,0.38,14.77
	c1.76,1.67,4.05,2.68,6.47,2.85c-4.18,3.97-4.35,10.58-0.38,14.76c1.52,1.6,3.52,2.68,5.69,3.08c-0.52,0.13-1.03,0.29-1.52,0.49
	c-5.33,2.21-7.86,8.32-5.65,13.66c1.36,3.27,4.28,5.63,7.76,6.27c-0.52,0.13-1.03,0.29-1.52,0.49c-5.33,2.2-7.87,8.3-5.68,13.63
	c0.86,2.08,2.37,3.84,4.31,4.99c-0.82,0.12-1.63,0.34-2.4,0.66c-5.31,2.2-7.83,8.29-5.63,13.6c0.67,1.62,1.74,3.05,3.11,4.14
	l-0.79,0.28c-5.3,2.21-7.81,8.29-5.61,13.6c0.48,1.16,1.17,2.22,2.03,3.13c-5.5-1.67-11.3,1.44-12.97,6.93
	c-0.71,2.33-0.57,4.83,0.37,7.07c0.19,0.45,0.41,0.88,0.67,1.3c-5.6-1.26-11.17,2.25-12.43,7.85c-0.26,1.15-0.32,2.33-0.19,3.5
	c-5.54-1.47-11.23,1.82-12.7,7.36c-0.37,1.38-0.45,2.82-0.23,4.23c-3.83-4.28-10.4-4.65-14.68-0.82c-1.19,1.06-2.12,2.39-2.72,3.87
	c-3.9-4.2-10.47-4.44-14.67-0.54c-0.73,0.68-1.35,1.45-1.86,2.3c-0.12-0.84-0.35-1.66-0.67-2.45c-2.21-5.31-8.3-7.82-13.61-5.61
	c-1.65,0.68-3.09,1.78-4.19,3.18c0.34-5.72-4.03-10.64-9.75-10.97c-1.59-0.09-3.19,0.18-4.66,0.8c-1.27,0.53-2.43,1.3-3.4,2.28
	c1.14-5.63-2.49-11.12-8.12-12.26c-2.04-0.41-4.15-0.21-6.07,0.59l-0.35,0.16c0.09-5.74-4.49-10.47-10.23-10.56
	c-1.43-0.02-2.84,0.25-4.16,0.8c-0.71,0.3-1.38,0.68-2,1.14c1.96-5.4-0.84-11.36-6.24-13.32c-2.45-0.89-5.14-0.82-7.54,0.18
	c-0.72,0.31-1.41,0.69-2.05,1.14c2-5.38-0.74-11.36-6.12-13.36c-2.47-0.92-5.19-0.86-7.62,0.15c-0.56,0.23-1.1,0.52-1.61,0.85
	c0.72-5.7-3.33-10.91-9.03-11.62c-5.7-0.72-10.91,3.33-11.62,9.03c-0.72,5.7,3.33,10.91,9.03,11.62c1.79,0.22,3.61-0.02,5.28-0.71
	c0.56-0.24,1.1-0.52,1.62-0.85c-0.72,5.69,3.32,10.89,9.01,11.61c2.59,0.33,5.21-0.34,7.34-1.86c-1.99,5.39,0.77,11.37,6.15,13.36
	c3.22,1.19,6.83,0.71,9.63-1.28c-0.92,2.45-0.87,5.16,0.14,7.58c2.2,5.31,8.29,7.83,13.6,5.63l0.34-0.17
	c-0.06,5.75,4.55,10.47,10.31,10.53c1.4,0.01,2.79-0.25,4.09-0.79c1.27-0.53,2.43-1.31,3.4-2.29c-1.12,5.64,2.55,11.12,8.19,12.23
	c3.84,0.76,7.79-0.7,10.21-3.78c-0.33,5.73,4.05,10.65,9.79,10.98c1.57,0.09,3.13-0.18,4.58-0.78c2.07-0.85,3.8-2.36,4.94-4.28
	c0.12,0.84,0.35,1.66,0.67,2.45c2.19,5.31,8.28,7.83,13.58,5.64c2.6-1.08,4.66-3.16,5.7-5.78c3.9,4.21,10.48,4.46,14.68,0.55
	c2.52-2.34,3.73-5.78,3.21-9.18c3.82,4.29,10.39,4.67,14.68,0.85c2.53-2.25,3.81-5.6,3.42-8.96c5.55,1.46,11.23-1.86,12.69-7.41
	c0.57-2.19,0.42-4.5-0.44-6.59c-0.19-0.45-0.41-0.89-0.66-1.31c2.09,0.48,4.29,0.3,6.27-0.53c5.31-2.2,7.83-8.29,5.63-13.6
	c-0.47-1.16-1.15-2.23-2-3.15c5.51,1.65,11.31-1.48,12.96-6.99c1.22-4.06-0.16-8.46-3.47-11.11c0.26-0.08,0.52-0.17,0.79-0.28
	c5.3-2.19,7.83-8.27,5.63-13.57c-0.86-2.08-2.37-3.82-4.3-4.97c0.83-0.13,1.64-0.35,2.42-0.67c5.33-2.2,7.88-8.31,5.67-13.65
	c-1.36-3.28-4.29-5.66-7.78-6.29c0.52-0.12,1.03-0.28,1.52-0.48c5.33-2.2,7.88-8.31,5.67-13.65c-1.36-3.28-4.29-5.66-7.78-6.29
	c0.52-0.13,1.03-0.29,1.53-0.49c5.33-2.21,7.87-8.32,5.66-13.65c-1.52-3.66-4.97-6.15-8.93-6.43
	C457.51,139.22,458.49,134.6,456.81,130.6z"/>
<circle class="st1" cx="22.37" cy="301.77" r="10.46"/>
<path class="st1" d="M20.04,291.41c5.33-2.2,7.87-8.3,5.68-13.63c-1.15-2.79-3.44-4.94-6.3-5.91c4.99-2.93,6.66-9.34,3.73-14.33
	c-2.93-4.99-9.34-6.66-14.33-3.73c-4.99,2.93-6.66,9.34-3.73,14.33c1.27,2.16,3.27,3.8,5.65,4.61c-4.97,2.93-6.63,9.33-3.7,14.31
	C9.68,291.54,15.22,293.4,20.04,291.41z"/>
<path class="st1" d="M257.68,208.19c-2.22-5.33-8.34-7.85-13.66-5.63s-7.85,8.34-5.63,13.66c1.33,3.19,4.15,5.52,7.54,6.22
	c-5.24,2.42-7.53,8.63-5.11,13.87c0.84,1.82,2.18,3.36,3.87,4.43c-5.02,2.84-6.78,9.21-3.94,14.23c0.72,1.26,1.69,2.36,2.85,3.23
	c-4.61,3.46-5.54,10.01-2.07,14.62c1.04,1.38,2.41,2.49,3.98,3.21c-5.69,0.95-9.52,6.34-8.57,12.02c0.51,3.03,2.32,5.68,4.96,7.25
	c-0.85,0.12-1.67,0.34-2.46,0.67c-5.33,2.22-7.86,8.34-5.64,13.68c0.79,1.9,2.13,3.53,3.84,4.67c-5.77-0.03-10.47,4.63-10.5,10.4
	c-0.02,3.24,1.47,6.3,4.02,8.29c-5.76-0.34-10.7,4.06-11.03,9.81c-0.09,1.58,0.18,3.16,0.78,4.62c0.26,0.59,0.56,1.17,0.91,1.71
	c-5.76,0.36-10.14,5.32-9.78,11.08c0.07,1.15,0.33,2.28,0.78,3.35c0.12,0.3,0.27,0.59,0.41,0.88c-5.75,0.45-10.05,5.47-9.6,11.22
	c0.09,1.1,0.35,2.18,0.77,3.2c0.16,0.38,0.34,0.76,0.55,1.12c-5.19-2.52-11.43-0.36-13.95,4.83c-1.24,2.56-1.39,5.51-0.41,8.17
	c-4.83-3.17-11.32-1.82-14.48,3.01c-1.32,2.01-1.9,4.41-1.66,6.8c-3.66-4.46-10.25-5.1-14.71-1.44c-2.48,2.04-3.88,5.1-3.81,8.31
	c-3.17-4.82-9.64-6.16-14.46-2.99c-2.25,1.48-3.84,3.76-4.44,6.38c-0.04-5.77-4.75-10.42-10.52-10.38
	c-3.47,0.02-6.71,1.77-8.63,4.66c0-1.37-0.27-2.73-0.8-4c-2.21-5.33-8.32-7.87-13.65-5.66c0,0-0.01,0-0.01,0
	c-0.9,0.38-1.75,0.88-2.51,1.49c0.3-1.89,0.07-3.82-0.66-5.59c-2.16-5.36-8.25-7.96-13.61-5.8c-0.02,0.01-0.03,0.01-0.05,0.02
	c-1.14,0.47-2.18,1.15-3.08,2c2.28-5.3-0.18-11.45-5.48-13.73c-2.6-1.11-5.53-1.13-8.14-0.04c-0.39,0.17-0.76,0.36-1.12,0.56
	c2.53-5.17,0.39-11.42-4.79-13.95c-2.57-1.25-5.53-1.4-8.21-0.41c3.19-4.81,1.87-11.3-2.94-14.48c-2.32-1.54-5.17-2.08-7.9-1.52
	c4.18-3.98,4.34-10.58,0.36-14.76c-1.92-2.02-4.57-3.19-7.36-3.24c3.98-4.19,3.81-10.81-0.37-14.79
	c-4.19-3.98-10.81-3.81-14.79,0.37s-3.81,10.81,0.37,14.79c1.88,1.78,4.35,2.81,6.94,2.88c-3.97,4.19-3.8,10.8,0.38,14.77
	c2.48,2.36,5.96,3.35,9.31,2.66c-4.17,3.98-4.33,10.59-0.36,14.76c2.88,3.03,7.29,4.04,11.21,2.58c-3.18,4.82-1.84,11.31,2.98,14.49
	c2.89,1.91,6.54,2.25,9.75,0.93c0.38-0.16,0.76-0.35,1.12-0.56c-2.52,5.19-0.35,11.44,4.84,13.96c3.86,1.88,8.48,1.2,11.64-1.71
	c-2.27,5.31,0.2,11.45,5.5,13.72c2.59,1.11,5.51,1.12,8.11,0.04c0.9-0.38,1.74-0.88,2.51-1.49c-0.86,5.71,3.08,11.03,8.78,11.88
	c3.99,0.6,7.96-1.15,10.22-4.49c-0.02,5.77,4.64,10.47,10.41,10.49c4.88,0.02,9.12-3.34,10.22-8.09
	c0.09,5.77,4.84,10.38,10.61,10.29c5.77-0.09,10.38-4.84,10.29-10.61c3.18,4.82,9.67,6.15,14.49,2.96c3.23-2.13,5.01-5.87,4.65-9.72
	c3.65,4.46,10.23,5.12,14.69,1.46c3.45-2.83,4.73-7.54,3.17-11.72c4.82,3.18,11.31,1.84,14.49-2.98c1.91-2.89,2.25-6.54,0.93-9.75
	c-0.16-0.38-0.34-0.76-0.55-1.12c5.18,2.53,11.43,0.37,13.96-4.81c1.31-2.69,1.4-5.82,0.25-8.59c-0.12-0.3-0.26-0.6-0.41-0.88
	c1.09-0.08,2.17-0.34,3.18-0.76c5.33-2.21,7.87-8.32,5.66-13.65c0,0,0-0.01,0-0.01c-0.25-0.6-0.55-1.17-0.91-1.71
	c1.14-0.08,2.27-0.34,3.33-0.77c5.34-2.18,7.91-8.27,5.74-13.62c-0.68-1.67-1.79-3.13-3.22-4.23c5.77,0.32,10.7-4.1,11.02-9.87
	c0.2-3.68-1.55-7.2-4.62-9.26c5.77,0.04,10.47-4.61,10.51-10.37c0.02-3.71-1.92-7.15-5.12-9.05c0.84-0.12,1.67-0.35,2.46-0.67
	c5.33-2.2,7.87-8.3,5.67-13.63c-1.01-2.44-2.9-4.41-5.3-5.51c5.69-0.95,9.53-6.33,8.57-12.02c-0.45-2.66-1.91-5.05-4.07-6.66
	c4.61-3.46,5.54-10.01,2.08-14.62c-0.76-1.01-1.69-1.87-2.75-2.54c5.02-2.84,6.79-9.22,3.94-14.24c-1.49-2.63-4.04-4.48-6.99-5.09
	C257.52,219.31,259.83,213.36,257.68,208.19z"/>
<path class="st1" d="M293.93,286.18c-3.06-1.6-9.14,1.45-9.73,5c-0.6,3.72,4.81,7.53,4.32,8.06s-3.56-3.39-7.12-3
	s-7.11,5.26-6.32,8.52c0.58,2.4,3.23,3,2.93,4.7s-3.1,1.39-4.34,3.76c-0.81,1.86-0.66,4.01,0.41,5.74c1.31,2.15,3.52,2.4,3.42,3.5
	s-1.74,0.9-3,2.24c-2,2-2.08,6.41-0.23,8.95s4.31,1.65,5.79,4.49c0.64,1.12,0.84,2.44,0.56,3.7c-0.43,1.46-1.42,1.51-1.83,2.73
	c-0.71,2.12,1.12,5.52,3.63,6.37c2.28,0.77,4.09-0.92,4.89-0.06s-1.53,3.24-1.27,6.43c0.29,3.5,3.78,7.05,6.84,7
	c2.61,0,4.08-2.68,5-2.09c1.19,0.73-1.42,4.56,0.27,7.76c1.34,2.16,3.74,3.42,6.28,3.3c0.55,0,3-0.09,4.2-1.74
	c0.79-1.11,0.48-2.23,1-2.37c0.79-0.23,1.47,2.5,3.77,4.34s5.81,2.68,8.46,1.42s2.58-3.67,4.34-3.77c2.26-0.14,2.81,3.82,5.8,4.48
	s6.93-2,7.7-5.16c0.88-3.58-2.67-7.09-1.45-8.25c0.57-0.55,1.37,0.21,2.86-0.21c2.07-0.57,3.48-2.81,4-4.6
	c1-3.43-1.21-5.27,0.08-6.93c1-1.29,2.51-0.37,5-2.09c1.22-0.69,2.16-1.77,2.67-3.07c0.64-2-0.5-4.05-1.25-5.39
	c-2-3.62-4.43-4-4.47-6c0-1.56,1.43-1.64,2.32-3.91c1.09-3.14,0.41-6.62-1.8-9.1c-1.78-1.83-3.38-1.34-4.26-3.15s0.38-2.48-0.06-4.9
	c-0.59-2.53-2.21-4.71-4.47-6c-2.34-1.37-4.72-1.24-4.75-2s1.67-0.68,2.17-1.88s-0.39-3.16-1.74-4.2c-2.82-2.19-6.27,0.59-8.46-1.42
	c-1.53-1.41-0.27-3.19-2.08-5c-1.51-1.38-3.58-1.98-5.6-1.62c-2.39,0.44-3.05,2.11-4.2,1.74c-1.53-0.49-0.63-3.57-2.43-5.88
	c-2.35-3-8.48-3.67-11.33-1.21s-2,7.08-3,7.13S296.7,287.62,293.93,286.18z"/>
<circle class="st1" cx="278.12" cy="270.59" r="18.64"/>
<ellipse transform="matrix(0.9238 -0.3828 0.3828 0.9238 -103.0338 144.7456)" class="st2" cx="312.16" cy="331.25" rx="28.64" ry="35"/>
<path class="st1" d="M205.72,156.41c-2.23,0.82-4.34-3-6.78-2.11c-1.81,0.69-2.77,3.62-2.46,5.94c0.47,3.5,3.65,4.13,3.62,6.37
	c0,3.4-7.4,3.68-10.37,8.23c-3.41,5.25-0.07,14.79,4.65,20.71c10.15,12.75,28.39,10.86,29.27,18.38c0.49,4.2-4.91,7.08-3.24,11.19
	c1.06,2.61,4.25,4,6.64,4.14c4.67,0.37,7.94-3.54,8.89-4.67c2.76-3.31,1.51-4.92,3.79-7.48c3.18-3.57,6.42-1.3,12.95-4.38
	s8-7.63,11.9-6.9c2.4,0.46,2.49,2.34,5.1,2.81c3.22,0.57,8.14-1.39,9.38-5.86c1.38-5-2.78-9.63-6.2-10.22
	c-3.06-0.53-4.64,2.33-6.23,1.59c-2.93-1.35,0.55-11.94,1-26c0.37-10.89,0.65-19.24-4.85-23.58c-3.24-2.56-10.34-5.2-14.89-2.69
	c-1.47,0.81-2.83,2.25-4.2,1.74c-1.59-0.58-1-3-2.93-4.69s-5.06-1.75-7.27-0.92c-4,1.5-4.61,5.93-6.52,5.65
	c-1.21-0.17-1.17-2-3.62-6.37c-1.1-2.27-2.61-4.3-4.47-6c-1.4-1.4-3.17-2.37-5.1-2.81c-4.24-0.77-9.71,1.91-11.06,6.55
	c-0.56,2.21-0.29,4.55,0.76,6.58c1.12,2,2.25,1.86,3.42,3.5C209.53,148.74,208.31,155.46,205.72,156.41z"/>
<ellipse transform="matrix(0.908 -0.4191 0.4191 0.908 -57.3473 116.3244)" class="st2" cx="236.14" cy="188.71" rx="20.96" ry="25.97"/>
<path class="st2" d="M29.43,210.75c-1.51,0.13-1.9-3.24-6.9-11.9c-5.68-9.85-10.92-15.46-9.83-16.59c0.93-1,4.49,3.25,10,2.74
	c4.87-0.44,6.42-4.13,8.4-3.48C36.26,183.22,33.69,210.39,29.43,210.75z"/>
<path class="st2" d="M47.12,179.81c-4.79,3.16-0.84,25.49,8.62,27.92c11.45,2.94,27-24.31,24-27.65c-1.64-1.8-7.63,4.53-18.19,3.6
	C52.95,182.93,49.65,178.13,47.12,179.81z"/>
<path class="st2" d="M91.73,182.97c-4.39,2.48-0.19,25.64,7.09,26.59c8.39,1.1,19-27.65,16.35-29.41c-1.34-0.89-5.06,5.8-12.25,6.06
	C96.77,186.43,93.92,181.74,91.73,182.97z"/>
<path class="st2" d="M128.26,185.56c-3.26,2.45,0.84,18,6.81,18.83c7.66,1.06,16.88-22.31,14.74-23.82
	c-1.25-0.88-5.46,6.25-13.09,6.41C131.95,187.07,129.8,184.38,128.26,185.56z"/>
<path class="st2" d="M160.48,184.99c-2.5,1.56,1.9,18.86,8,19.32c6.95,0.53,13.66-21,11.37-22.42c-1.44-0.91-5.72,6.63-12.25,6.06
	C163.48,187.58,161.66,184.26,160.48,184.99z"/>
<path class="st2" d="M16.15,242.81c-2.17-2.14,6.44-23.77,23-25.27c17.71-1.6,29.54,21.18,28.14,22.78c-1,1.16-8.73-9-21.73-9.69
	C29.07,229.81,18.17,244.81,16.15,242.81z"/>
<path class="st2" d="M76.87,237.35c-1.83-2.49,9.9-22.49,24.24-19.88c13.06,2.37,18.48,21.71,15.83,24c-2,1.72-8.06-7.32-20.2-8.36
	C85.26,232.07,78.12,239.06,76.87,237.35z"/>
<path class="st2" d="M126.87,239.27c-2.7-3.59,9.16-25.15,24.53-23.94c12.11,1,21.41,15.67,19,19.69c-1.66,2.77-8-1-21.61,0.1
	C134.54,236.26,128.48,241.41,126.87,239.27z"/>
<path class="st2" d="M183.97,227.42c-5-1.92-6.46-17-1.43-20.07c6.74-4.12,25.43,13.32,23.67,16.76c-0.87,1.72-6.25-1.29-15.18,1.37
	C186.81,226.74,185.7,228.1,183.97,227.42z"/>
<path class="st2" d="M274.88,123.81c2.75-0.4,12.3,26.31,6.45,29.81c-4.89,2.92-19.47-10.9-18.23-13.12c0.49-0.87,3,0.8,5.73-0.4
	C274.91,137.39,272.97,124.09,274.88,123.81z"/>
<path class="st2" d="M296.38,182.81c-1.64,0.39-11.58-17.1-5.69-23.23c6.07-6.32,24.9,3.74,24.39,6.62
	c-0.39,2.26-12.57-0.6-17.15,6.13C294.86,176.81,297.26,182.59,296.38,182.81z"/>
<path class="st2" d="M281.89,116.97c-1.1,3.42,16.12,15,20.4,11.23c4.57-4-7-24.46-8.91-23.86c-0.88,0.28,1.22,5-1.41,8.46
	C288.89,116.81,282.52,115,281.89,116.97z"/>
<path class="st2" d="M303.61,98.13c-0.35,6.11,10.65,13.99,14.65,11.68c5.93-3.44-1.81-29.49-5.26-29.31
	c-1.22,0.06-1,3.35-4.77,9.85C305.32,95.36,303.74,95.89,303.61,98.13z"/>
<path class="st2" d="M313.88,68.29c0.14-2.91,4-3.38,6.31-8.52c2.87-6.55-0.47-12.61,0.51-13c2.14-0.87,20.09,27,14.42,32.41
	C330.87,83.22,313.58,74.49,313.88,68.29z"/>
<path class="st2" d="M320.83,16.2c3-1.57,25.39,28.36,21.34,32.49c-2.41,2.45-15.28-3.06-18.72-11.93c-0.59-1.51-1.06-5-2-12
	C320.69,19.24,320.32,16.46,320.83,16.2z"/>
<path class="st2" d="M315.8,156.06c-3.34,0.32-11-18.14-6.18-22c5-4,22,8.56,20.75,12.07c-0.67,2-6.58,0.17-10.92,4.53
	C316.77,153.3,317.05,155.95,315.8,156.06z"/>
<path class="st2" d="M328.71,134.97c-1.11-0.83-0.92-2.18-1.1-7.42c-0.35-10.1-1.31-13.11,0.16-13.84c2-1,4.59,4.2,9.51,3.93
	c3.82-0.21,5.32-3.51,6.72-2.78c2.06,1.07,1.44,9.66-3.53,15.24C337.07,133.91,331.18,136.81,328.71,134.97z"/>
<path class="st2" d="M348.42,104.16c4.06,0.49,9.9-6.22,9.47-12.78c-0.17-2.59-1.41-6.5-4-7.21c-2.2-0.6-3.37,1.71-8.89,4.67
	s-8.76,3-8.89,4.67c-0.11,1.35,2,1.79,6.14,5.33C346.63,102.51,346.64,103.95,348.42,104.16z"/>
<path class="st2" d="M352.61,73.89c-1,0.09-1.37-1.37-4.46-6c-4.21-6.32-6.06-7.51-5.51-8.55c1-1.87,9-1.84,12,2.89
	C357.55,66.74,354.67,73.7,352.61,73.89z"/>
</svg>
