<?xml version="1.0" standalone="no"?><!-- Generator: Gravit.io --><svg xmlns="http://www.w3.org/2000/svg" xmlns:xlink="http://www.w3.org/1999/xlink" style="isolation:isolate" viewBox="0 0 777.349 526.666" width="777.349" height="526.666"><defs><clipPath id="_clipPath_pSLrDx2y3aIeTB5gErJ5JwVaXKmPcMIM"><rect width="777.349" height="526.666"/></clipPath></defs><g clip-path="url(#_clipPath_pSLrDx2y3aIeTB5gErJ5JwVaXKmPcMIM)"><path d=" M 264.849 41.802 C 264.589 20.892 201.709 6.912 196.989 5.892 C 171.209 0.332 142.619 -0.498 125.549 3.242 C 26.239 24.982 -39.861 279.522 27.219 329.392 C 66.459 358.562 160.669 324.672 160.219 315.182 C 160.219 314.572 159.719 313.182 152.849 311.072 C 114.229 299.272 85.419 330.072 63.779 322.732 C 30.539 311.432 28.499 214.952 46.779 147.142 C 48.959 139.042 60.289 98.592 92.139 57.992 C 106.939 39.142 117.319 26.262 135.949 20.132 C 169.949 8.942 207.209 28.132 211.389 30.332 C 233.869 42.242 246.229 58.992 257.149 53.912 C 261.746 51.597 264.703 46.947 264.849 41.802 L 264.849 41.802 Z " fill="rgb(216,216,216)"/><path d=" M 305.989 57.392 C 307.209 40.242 413.989 4.752 477.719 46.442 C 525.589 77.742 528.369 139.632 533.439 246.992 C 536.629 314.572 541.039 407.742 494.809 429.712 C 476.009 438.642 444.029 438.072 418.139 426.062 C 405.969 420.432 398.449 413.802 389.409 405.702 C 358.259 377.802 326.669 330.312 339.009 313.372 C 343.529 307.182 354.199 304.702 360.399 307.922 C 367.219 311.462 368.049 321.592 368.969 327.182 C 374.709 361.962 411.409 386.182 415.649 388.952 C 441.219 405.802 481.299 412.952 497.079 396.202 C 499.175 393.882 500.841 391.207 501.999 388.302 C 508.509 374.732 508.999 353.392 506.349 282.592 C 503.749 213.122 501.039 175.742 489.349 128.712 C 481.259 96.282 476.019 87.902 471.069 81.822 C 440.319 44.112 369.509 32.372 342.849 56.222 C 337.619 60.892 329.759 70.812 319.969 69.532 C 312.989 68.622 305.659 62.112 305.989 57.392 Z " fill="rgb(216,216,216)"/><path d=" M 243.969 22.922 C 225.029 18.922 224.869 15.262 215.629 14.852 C 189.629 13.692 169.019 41.632 146.399 72.332 C 125.169 101.142 104.399 130.192 108.399 165.592 C 109.129 172.022 110.739 186.252 118.849 189.282 C 135.039 195.332 165.219 152.282 167.079 149.542 C 181.659 128.442 188.459 108.402 190.989 109.272 C 193.519 110.142 181.909 131.172 190.349 148.512 C 192.139 152.192 197.059 160.262 239.549 175.512 C 262.029 183.512 273.949 187.822 292.279 190.912 C 325.919 196.592 343.589 199.572 357.659 189.712 C 379.999 174.052 377.879 136.832 387.969 137.082 C 389.669 137.082 391.969 138.232 395.909 145.362 C 408.479 168.362 399.729 185.062 405.969 206.992 C 411.599 226.782 428.209 246.462 439.579 244.562 C 453.919 242.162 458.459 205.682 459.729 195.442 C 466.299 142.582 444.549 101.682 433.729 81.932 C 422.239 61.012 410.429 40.202 390.629 37.132 C 378.399 35.242 375.949 42.132 358.259 43.232 C 332.559 44.862 329.259 30.922 296.349 26.092 C 273.909 22.752 269.419 28.322 243.969 22.922 Z " fill="rgb(160,160,160)"/><path d=" M 188.619 157.682 C 186.099 158.942 185.719 159.542 175.619 168.812 C 136.439 204.882 133.619 203.762 121.469 218.282 C 102.059 241.452 97.849 257.832 96.569 263.792 C 94.989 271.172 91.729 286.792 100.039 295.672 C 102.229 298.012 106.859 300.752 112.409 302.082 C 115.905 302.892 119.518 303.075 123.079 302.622 C 126.83 302.29 130.484 301.252 133.849 299.562 C 137.109 297.882 138.469 296.322 143.849 293.692 C 144.939 293.162 144.679 293.432 146.849 292.302 C 151.959 289.632 153.959 287.582 155.699 288.552 C 158.239 289.972 158.939 296.862 156.089 300.842 C 150.489 308.642 135.269 297.982 114.799 303.842 C 105.284 306.703 96.791 312.236 90.329 319.782 C 77.849 334.752 78.559 352.902 78.849 359.372 C 80.029 389.952 102.049 408.372 103.899 409.902 C 108.289 413.472 127.589 429.102 154.059 424.482 C 172.041 420.309 187.482 408.853 196.689 392.852 C 202.929 381.852 203.879 370.242 202.689 366.512 C 202.442 365.807 202.235 365.089 202.069 364.362 C 202.199 364.312 203.969 369.002 204.229 369.652 C 207.229 377.382 220.999 385.412 235.819 389.202 C 245.919 391.772 260.899 395.602 272.689 388.032 C 278.259 384.452 282.759 378.542 282.829 378.612 C 282.899 378.682 278.279 382.932 276.429 385.542 C 266.109 400.142 282.749 447.472 319.799 462.952 C 322.509 464.092 356.739 477.722 384.569 456.692 C 407.379 439.462 408.669 411.982 408.899 407.002 C 409.009 404.502 410.059 371.452 386.509 352.422 C 384.849 351.112 361.849 332.992 340.589 336.622 C 338.169 337.042 333.789 338.072 332.179 335.992 C 329.059 331.922 337.739 317.812 342.789 318.502 C 347.409 319.142 344.049 333.572 352.499 346.132 C 361.279 359.192 381.289 367.932 394.249 362.132 C 411.049 354.672 410.999 325.132 410.969 309.642 C 410.899 272.082 394.439 243.402 380.469 219.722 C 369.269 200.722 363.669 191.242 354.469 184.942 C 330.159 168.302 311.419 182.352 265.189 176.202 C 227.319 171.202 210.119 146.922 188.619 157.682 Z " fill="rgb(160,160,160)"/><path d=" M 125.909 325.532 C 137.959 323.002 152.499 326.342 161.459 337.142 C 172.799 350.822 171.969 372.592 159.089 385.562 C 144.229 400.512 118.039 398.562 105.189 383.502 C 95.529 372.182 94.579 354.952 102.139 342.212 C 109.849 329.182 123.449 326.052 125.909 325.532 Z " fill="rgb(112,112,112)"/><path d=" M 339.179 373.472 C 326.609 375.902 319.599 385.342 317.369 388.342 C 315.139 391.342 304.909 405.112 309.849 420.862 C 314.169 434.592 327.109 440.312 332.849 442.862 C 338.379 445.312 357.699 453.862 373.649 442.432 C 386.339 433.342 390.289 416.332 386.569 402.802 C 381.489 384.312 363.519 377.552 359.089 375.882 C 354.929 374.312 347.919 371.782 339.179 373.472 Z " fill="rgb(112,112,112)"/><path d=" M 272.699 193.952 C 272.919 193.852 273.139 193.722 273.139 193.722 C 273.535 193.474 273.909 193.193 274.259 192.882 C 283.349 185.462 307.259 172.512 316.259 179.102 C 324.499 185.182 322.629 209.792 312.189 214.982 C 300.649 220.732 288.909 197.592 262.569 197.452 C 242.489 197.352 233.489 210.742 225.779 205.452 C 215.169 198.142 220.989 165.502 231.089 163.022 C 239.979 160.852 258.369 180.572 263.249 186.752 C 263.209 186.722 269.849 195.202 272.699 193.952 Z " fill="rgb(112,112,112)"/><path d=" M 261.789 201.382 C 255.562 219.918 248.061 238.001 239.339 255.502 C 224.789 283.502 220.019 303.502 215.509 302.572 C 211.619 301.732 214.269 286.572 206.929 283.302 C 199.829 280.112 190.389 291.192 188.159 289.252 C 185.269 286.742 201.709 268.542 217.979 239.252 C 221.729 232.502 237.639 203.252 253.859 193.102 C 255.539 192.052 260.339 189.042 262.459 190.652 C 264.759 192.412 262.699 198.702 261.789 201.382 Z " fill="rgb(112,112,112)"/><path d=" M 277.019 206.982 C 287.359 234.912 297.779 303.982 307.839 302.392 C 312.009 301.732 312.129 289.522 317.109 289.212 C 322.089 288.902 325.509 301.092 327.169 300.622 C 329.689 299.902 324.079 271.332 313.169 238.252 C 306.579 218.252 299.739 201.742 287.099 196.672 C 285.369 195.982 278.989 193.422 276.369 196.002 C 273.749 198.582 276.209 204.792 277.019 206.982 Z " fill="rgb(112,112,112)"/><path d=" M 364.749 42.732 C 368.839 37.662 365.579 29.552 363.249 23.732 C 361.059 18.292 359.559 14.562 355.809 12.822 C 347.809 9.092 334.889 17.052 334.739 23.762 C 334.739 25.142 335.219 26.012 338.669 30.562 C 349.669 45.112 351.819 45.992 353.599 46.332 C 357.389 47.112 362.189 45.882 364.749 42.732 Z " fill="rgb(112,112,112)"/><path d=" M 370.399 57.702 C 367.269 63.472 372.849 72.642 378.979 76.962 C 380.839 78.282 384.689 80.962 389.209 80.252 C 398.839 78.682 405.049 62.532 400.469 56.602 C 398.809 54.452 396.099 54.112 391.549 53.552 C 385.699 52.832 373.849 51.372 370.399 57.702 Z " fill="rgb(112,112,112)"/><path d=" M 361.849 66.942 C 356.669 71.792 363.549 85.132 365.749 89.392 C 369.539 96.742 372.579 97.512 373.679 97.682 C 376.399 98.092 378.679 96.572 380.979 94.992 C 383.619 93.202 390.619 88.452 390.249 81.812 C 389.949 76.282 384.719 72.812 381.509 70.662 C 376.539 67.342 366.249 62.842 361.849 66.942 Z " fill="rgb(112,112,112)"/><path d=" M 354.429 56.032 C 352.299 57.742 347.429 50.322 333.429 45.272 C 322.489 41.272 317.229 42.872 315.579 39.182 C 313.069 33.542 321.419 21.302 329.789 21.502 C 331.239 21.502 334.279 21.982 340.589 28.972 C 349.709 39.112 357.309 53.722 354.429 56.032 Z " fill="rgb(112,112,112)"/><path d=" M 382.129 53.112 C 382.429 57.112 378.719 60.282 373.129 64.972 C 366.409 70.572 361.759 74.462 358.039 72.972 C 354.969 71.742 355.989 68.232 350.849 60.752 C 347.299 55.572 345.439 55.262 345.539 52.962 C 345.669 49.602 349.669 48.882 358.539 41.842 C 364.539 37.042 365.479 35.162 367.889 35.462 C 369.999 35.722 370.589 37.332 376.889 45.312 C 381.289 51.012 381.999 51.472 382.129 53.112 Z " fill="rgb(112,112,112)"/><path d=" M 247.079 20.802 C 253.349 14.682 266.989 1.352 275.699 5.852 C 283.559 9.922 286.109 27.852 278.109 36.172 C 267.519 47.172 248.519 37.572 243.849 33.312 C 242.568 32.294 241.703 30.843 241.419 29.232 C 241.039 25.682 245.009 22.832 247.079 20.802 Z " fill="rgb(112,112,112)"/><path d=" M 235.929 29.552 C 234.139 26.952 228.249 27.992 216.839 30.012 C 206.919 31.762 201.949 32.632 199.379 36.212 C 193.979 43.692 198.989 59.722 206.709 62.022 C 218.849 65.652 240.419 36.112 235.929 29.552 Z " fill="rgb(112,112,112)"/><path d=" M 235.259 40.282 C 233.629 39.022 234.369 37.752 232.559 32.982 C 230.339 27.132 228.049 25.982 228.809 24.132 C 229.669 22.042 232.809 23.082 238.969 20.622 C 244.469 18.422 245.719 16.082 247.829 16.872 C 249.559 17.522 250.259 20.262 251.579 25.722 C 253.009 31.622 253.699 34.622 252.219 36.722 C 251.219 38.162 249.539 38.662 246.219 39.662 C 241.759 40.992 237.749 42.202 235.259 40.282 Z " fill="rgb(112,112,112)"/><path d=" M 241.169 30.542 C 242.649 25.112 213.749 8.542 205.969 15.742 C 205.079 16.562 205.159 17.042 203.239 30.152 C 201.799 39.972 201.289 42.802 202.889 46.372 C 203.159 46.992 206.009 53.222 209.759 53.102 C 214.409 52.952 214.379 42.872 222.399 36.492 C 230.849 29.782 240.339 33.582 241.169 30.542 Z " fill="rgb(112,112,112)"/><path d=" M 247.399 26.292 C 242.669 21.572 249.469 0.572 259.159 0.012 C 266.889 -0.438 276.059 12.172 273.219 18.952 C 271.519 23.012 265.769 24.422 259.689 25.902 C 253.919 27.302 249.499 28.382 247.399 26.292 Z " fill="rgb(112,112,112)"/><path d=" M 260.699 183.112 C 259.509 184.262 259.819 185.472 259.589 191.472 C 259.259 200.342 258.409 202.172 259.979 203.762 C 261.219 205.002 262.209 204.362 267.849 205.242 C 274.939 206.362 276.209 207.832 277.949 206.742 C 280.019 205.432 278.949 202.852 280.559 195.432 C 282.039 188.482 283.769 186.862 282.559 184.952 C 281.789 183.742 280.559 183.602 270.769 182.722 C 264.849 182.192 261.849 181.952 260.699 183.112 Z " fill="rgb(112,112,112)"/><path d=" M 586.849 257.432 C 577.849 258.432 571.409 251.222 565.159 246.682 C 538.299 227.152 483.219 234.502 452.949 262.172 C 410.649 300.832 427.949 368.982 430.429 378.322 C 449.139 447.862 519.629 482.162 556.249 499.972 C 564.509 503.972 558.959 500.502 613.739 520.552 C 624.919 524.642 634.059 528.052 645.569 526.102 C 659.469 523.742 668.719 514.942 673.829 509.922 C 719.309 465.262 742.049 442.922 754.829 414.142 C 766.179 388.542 792.669 328.762 765.489 270.862 C 760.399 260.022 734.659 209.202 685.939 203.862 C 683.419 203.582 640.189 199.412 615.939 225.782 C 603.339 239.432 599.789 255.992 586.849 257.432 Z " fill="rgb(160,160,160)"/><path d=" M 591.939 276.792 C 578.789 279.742 571.679 267.382 553.719 260.332 C 527.469 250.032 492.319 256.672 471.719 274.462 C 433.989 307.082 451.369 371.882 452.219 375.052 C 468.419 435.282 529.479 464.992 561.219 480.412 C 568.369 483.892 563.569 480.882 611.009 498.242 C 620.699 501.782 628.609 504.732 638.569 503.042 C 650.569 501.042 658.629 493.382 663.059 489.042 C 701.849 450.892 721.349 431.862 733.179 406.112 C 744.549 381.332 766.969 332.472 746.549 283.052 C 744.209 277.392 722.249 226.202 680.549 222.352 C 659.759 220.432 636.089 230.512 620.969 245.142 C 605.669 259.972 604.979 273.872 591.939 276.792 Z " fill="rgb(216,216,216)"/><path d=" M 624.519 341.952 C 626.729 343.952 625.429 345.952 626.879 354.742 C 628.879 366.742 632.359 369.392 630.329 373.422 C 629.069 375.932 624.799 377.352 616.329 380.082 C 605.829 383.462 600.519 385.082 597.639 383.532 C 594.569 381.832 594.909 379.312 590.259 365.532 C 586.259 353.852 584.699 351.682 586.189 348.992 C 587.679 346.302 590.189 346.332 602.549 343.942 C 618.569 340.882 621.929 339.572 624.519 341.952 Z " fill="rgb(160,160,160)"/><path d=" M 513.049 333.032 C 510.289 336.232 510.309 343.132 510.339 356.922 C 510.339 367.512 510.339 376.282 513.019 387.922 C 514.729 395.512 517.189 406.022 524.549 417.322 C 529.829 425.432 534.869 433.182 542.929 434.262 C 547.589 434.902 551.309 433.022 563.469 424.372 C 581.819 411.372 590.989 404.802 596.229 397.992 C 604.159 387.682 611.759 377.812 609.829 366.992 C 606.829 350.242 583.009 342.672 560.289 335.452 C 544.409 330.462 521.539 323.202 513.049 333.032 Z " fill="rgb(160,160,160)"/><path d=" M 686.589 290.922 C 690.319 292.922 692.759 299.372 697.649 312.262 C 701.236 322.019 704.104 332.025 706.229 342.202 C 708.869 354.312 710.339 361.202 710.229 370.892 C 710.069 381.992 709.989 387.762 705.989 392.012 C 699.819 398.572 688.689 396.842 672.139 394.262 C 659.379 392.262 646.539 390.152 632.139 381.312 C 621.049 374.512 610.429 368.002 608.379 357.222 C 605.189 340.512 624.749 324.932 643.379 310.082 C 656.389 299.702 675.149 284.762 686.589 290.922 Z " fill="rgb(160,160,160)"/><path d=" M 496.959 272.302 C 491.279 273.942 488.189 267.432 481.819 268.302 C 476.049 269.132 471.529 275.502 470.189 280.972 C 467.849 290.512 474.849 298.632 477.659 301.882 C 479.309 303.792 491.349 317.762 506.819 314.132 C 521.819 310.612 528.549 293.232 527.459 281.132 C 527.209 278.422 526.299 268.412 518.849 264.552 C 514.987 262.628 510.483 262.46 506.489 264.092 C 500.939 266.542 501.449 271.002 496.959 272.302 Z " fill="rgb(216,216,216)"/><path d=" M 669.509 237.182 C 663.829 238.832 660.739 232.312 654.369 233.182 C 648.589 234.012 644.069 240.382 642.729 245.862 C 640.399 255.392 647.399 263.512 650.209 266.772 C 651.859 268.682 663.899 282.642 679.369 279.012 C 694.369 275.492 701.099 258.122 699.999 246.012 C 699.759 243.302 698.849 233.292 691.399 229.432 C 687.537 227.508 683.033 227.34 679.039 228.972 C 673.489 231.422 673.999 235.892 669.509 237.182 Z " fill="rgb(216,216,216)"/><path d=" M 589.029 355.112 C 588.929 352.692 580.469 352.712 560.909 347.762 C 541.509 342.842 537.659 339.762 532.219 342.572 C 523.219 347.222 519.309 363.092 524.449 368.732 C 526.939 371.462 531.019 371.212 559.319 364.442 C 585.479 358.162 589.099 356.682 589.029 355.112 Z " fill="rgb(112,112,112)"/><path d=" M 590.639 377.232 C 588.289 372.842 569.539 378.922 554.229 383.882 C 536.509 389.632 535.799 391.932 535.689 392.882 C 534.939 399.422 553.399 410.742 566.029 405.882 C 569.399 404.592 572.549 401.062 578.849 393.982 C 587.499 384.302 591.849 379.452 590.639 377.232 Z " fill="rgb(112,112,112)"/><path d=" M 626.679 347.612 C 625.789 345.352 633.539 341.962 649.439 329.522 C 665.339 317.082 667.439 312.792 673.589 313.192 C 683.649 313.842 693.689 326.752 691.259 333.992 C 690.089 337.492 686.259 338.902 657.629 344.152 C 631.179 348.992 627.269 349.112 626.679 347.612 Z " fill="rgb(112,112,112)"/><path d=" M 632.349 364.812 C 632.729 359.812 652.349 357.812 668.349 356.192 C 686.879 354.292 688.459 356.112 688.949 356.962 C 692.279 362.642 679.949 380.442 666.449 381.122 C 662.849 381.302 658.539 379.342 649.919 375.412 C 638.079 370.022 632.159 367.322 632.349 364.812 Z " fill="rgb(112,112,112)"/><path d=" M 497.049 275.272 C 492.249 276.662 489.639 271.162 484.259 271.932 C 479.379 272.632 475.569 278.012 474.439 282.632 C 472.439 290.682 478.379 297.532 480.749 300.282 C 482.139 301.902 492.309 313.692 505.369 310.622 C 518.029 307.622 523.719 292.982 522.789 282.792 C 522.589 280.502 521.789 272.052 515.529 268.792 C 512.267 267.164 508.462 267.022 505.089 268.402 C 500.399 270.412 500.849 274.182 497.049 275.272 Z " fill="rgb(160,160,160)"/><path d=" M 669.849 239.952 C 665.039 241.332 662.439 235.832 657.059 236.602 C 652.179 237.302 648.369 242.682 647.239 247.302 C 645.239 255.352 651.179 262.212 653.549 264.962 C 654.939 266.572 665.109 278.362 678.159 275.302 C 690.829 272.302 696.519 257.652 695.589 247.462 C 695.379 245.172 694.589 236.722 688.319 233.462 C 685.059 231.839 681.26 231.697 677.889 233.072 C 673.229 235.112 673.659 238.852 669.849 239.952 Z " fill="rgb(160,160,160)"/><path d=" M 475.849 239.962 C 473.389 172.552 473.599 174.322 473.759 171.962 C 476.209 135.122 477.439 116.702 483.619 102.432 C 488.089 92.112 505.419 52.082 543.029 44.932 C 571.769 39.462 596.029 56.282 603.809 61.752 C 619.159 72.462 626.519 84.242 637.969 102.572 C 655.829 131.172 661.589 154.572 673.139 201.442 C 677.919 220.862 681.229 238.222 673.769 243.212 C 670.169 245.632 665.369 244.272 664.769 244.092 C 647.479 238.972 654.179 198.092 637.069 146.712 C 629.779 124.812 620.869 99.152 596.769 81.632 C 590.099 76.772 571.129 62.992 547.579 66.452 C 541.573 67.392 535.763 69.311 530.379 72.132 C 500.479 87.922 493.099 129.992 492.379 134.302 C 485.379 177.522 500.769 247.482 504.379 263.622 C 504.719 265.212 505.769 269.832 503.299 273.052 C 499.859 277.522 490.729 277.852 485.299 274.812 C 477.099 270.242 476.489 257.862 475.849 239.962 Z " fill="rgb(160,160,160)"/></g></svg>