<?xml version="1.0" encoding="utf-8"?>
<!-- Generator: Adobe Illustrator 25.0.0, SVG Export Plug-In . SVG Version: 6.00 Build 0)  -->
<svg version="1.1" id="Calque_1" xmlns="http://www.w3.org/2000/svg" xmlns:xlink="http://www.w3.org/1999/xlink" x="0px" y="0px"
	 viewBox="0 0 353.49 492.04" style="enable-background:new 0 0 353.49 492.04;" xml:space="preserve">
<style type="text/css">
	.st0{fill:#A0A0A0;}
	.st1{fill:#D8D8D8;}
	.st2{fill:#707070;}
</style>
<path class="st0" d="M178.21,217.01c-9-0.88-13.82-9.27-19-15c-22.26-24.65-77.67-28.83-113-8c-49.36,29.1-46.53,99.34-46,109
	c3.95,71.91,65.85,120,98,145c7.25,5.63,2.54,1.08,52,32c10.1,6.32,18.34,11.53,30,12c14.09,0.56,25-6.14,31-10
	c53.72-34.31,80.57-51.46,99-77c16.39-22.71,54.65-75.73,40-138c-2.74-11.65-17.44-66.69-64-82c-2.41-0.79-43.84-13.8-73,7
	C198.08,202.8,191.21,218.27,178.21,217.01z"/>
<path class="st1" d="M179.21,237.01c-13.47,0.17-17.88-13.39-34-24c-23.56-15.5-59.32-16.25-83.13-3.09
	c-43.65,24.09-40.02,91.09-39.87,94.4c3.42,62.28,57,103.94,84.88,125.58c6.28,4.88,2.2,0.94,45,27.72c8.75,5.47,15.89,10,26,10.39
	c12.2,0.49,21.62-5.32,26.85-8.66c45.87-29.3,68.84-43.9,85.74-66.69c16.29-21.9,48.31-65.08,38.53-117.65c-1.12-6-12-60.64-52-73
	c-19.95-6.17-45.19-1.2-63,10C196.12,223.38,192.58,236.84,179.21,237.01z"/>
<path class="st0" d="M197.65,307.49c1.74,2.44,0.06,4.1-0.33,13c-0.54,12.17,2.33,15.47-0.49,19c-1.75,2.19-6.22,2.7-15.09,3.62
	c-11,1.14-16.51,1.66-19-0.48c-2.65-2.29-1.79-4.69-3.51-19.1c-1.46-12.25-2.58-14.69-0.57-17s4.45-1.78,17-1.57
	C192.05,305.21,195.6,304.62,197.65,307.49z"/>
<path class="st0" d="M90.42,275.76c-3.37,2.56-4.77,9.31-7.58,22.81c-2.16,10.37-3.95,18.95-3.79,30.92
	c0.1,7.77,0.34,18.57,5.21,31.14c3.49,9,6.83,17.65,14.49,20.37c4.43,1.58,8.45,0.52,22.14-5.44c20.64-9,31-13.47,37.5-19.05
	c9.89-8.45,19.36-16.54,19.7-27.51c0.54-17-21.22-29.33-42-41.08C121.63,279.71,100.76,267.89,90.42,275.76z"/>
<path class="st0" d="M268.91,270.36c3.23,2.73,4.3,9.55,6.42,23.17c1.49,10.29,2.23,20.67,2.21,31.07c0.09,12.39,0.09,19.46-2,28.89
	c-2.44,10.82-3.72,16.45-8.5,19.79c-7.4,5.14-17.92,1.15-33.59-4.79c-12.07-4.57-24.2-9.3-36.48-20.93
	c-9.45-8.94-18.49-17.5-18.28-28.48c0.32-17,22.69-28.21,44-38.89C237.54,272.73,258.99,262.01,268.91,270.36z"/>
<path class="st1" d="M87.21,213.01c-5.9,0.43-7.58-6.58-14-7c-5.82-0.38-11.56,4.92-14,10c-4.25,8.85,0.92,18.23,3,22
	c1.22,2.21,10.12,18.36,26,18c15.4-0.35,25.58-16,27-28c0.32-2.7,1.5-12.69-5-18c-3.38-2.68-7.75-3.77-12-3
	C92.29,208.19,91.87,212.67,87.21,213.01z"/>
<path class="st1" d="M263.29,214.26c-5.9,0.44-7.58-6.58-14-7c-5.82-0.38-11.56,4.92-14,10c-4.25,8.85,0.92,18.24,3,22
	c1.22,2.21,10.12,18.36,26,18c15.4-0.34,25.58-16,27-28c0.32-2.7,1.5-12.68-5-18c-3.38-2.68-7.75-3.77-12-3
	C268.37,209.45,267.95,213.92,263.29,214.26z"/>
<path class="st2" d="M160.21,313.01c0.4-2.39-7.88-4.11-26-13s-21.09-12.65-27-11c-9.72,2.71-16.87,17.42-13,24
	c1.87,3.18,5.91,3.78,35,3C156.09,315.29,159.94,314.59,160.21,313.01z"/>
<path class="st2" d="M157.21,335.01c-1.39-4.78-21-2.7-37-1c-18.53,2-19.69,4.07-20,5c-2.08,6.24,13.65,21.12,27,19
	c3.56-0.57,7.38-3.38,15-9C152.68,341.29,157.92,337.43,157.21,335.01z"/>
<path class="st2" d="M198.59,313.47c-0.4-2.39,7.88-4.11,26-13s21.09-12.65,27-11c9.72,2.71,16.87,17.42,13,24
	c-1.87,3.18-5.91,3.78-35,3C202.71,315.75,198.86,315.01,198.59,313.47z"/>
<path class="st2" d="M200.59,331.47c1.39-4.77,21-2.7,37-1c18.53,2,19.69,4.07,20,5c2.08,6.25-13.65,21.12-27,19
	c-3.56-0.57-7.37-3.38-15-9C205.12,337.75,199.88,333.89,200.59,331.47z"/>
<path class="st0" d="M86.68,215.94c-5,0.36-6.4-5.56-11.82-5.91c-4.92-0.33-9.76,4.15-11.82,8.44c-3.59,7.47,0.78,15.39,2.53,18.57
	c1,1.87,8.54,15.5,21.95,15.2c13-0.29,21.6-13.47,22.8-23.64c0.27-2.28,1.26-10.71-4.22-15.2c-2.86-2.26-6.55-3.18-10.14-2.53
	C90.97,211.87,90.61,215.65,86.68,215.94z"/>
<path class="st0" d="M263.08,217.01c-5,0.37-6.4-5.55-11.83-5.91c-4.91-0.32-9.76,4.16-11.82,8.44c-3.58,7.48,0.78,15.4,2.54,18.58
	c1,1.87,8.54,15.5,21.95,15.2c13-0.3,21.6-13.48,22.8-23.64c0.27-2.29,1.26-10.71-4.23-15.2c-2.86-2.24-6.56-3.14-10.13-2.47
	C267.37,213.01,267.01,216.75,263.08,217.01z"/>
<path class="st0" d="M73.21,177.01c11.51-66.47,11.35-64.69,12-67c10-35.54,15-53.31,24-66c6.5-9.18,31.72-44.76,70-44
	c29.25,0.58,49.47,22,56,29c12.81,13.65,17.58,26.7,25,47c11.57,31.66,12.37,55.78,14,104c0.67,20,0.32,37.65-8,41
	c-4,1.62-8.44-0.69-9-1c-15.86-8.58-0.87-47.21-7-101c-2.61-22.94-6-49.89-26-72c-5.53-6.13-21.24-23.53-45-25
	c-6.07-0.33-12.15,0.35-18,2c-32.51,9.29-48.42,48.92-50,53c-15.78,40.84-15.15,112.47-15,129c0,1.62,0.08,6.36-3,9
	c-4.28,3.67-13.29,2.11-18-2C68.21,206.9,70.15,194.65,73.21,177.01z"/>
</svg>
