<svg xmlns="http://www.w3.org/2000/svg" viewBox="0 0 1242 2208"><defs><style>.cls-1{fill:#999;}.cls-2{fill:#fff;}.cls-3{fill:#ffb6ea;opacity:0.6;}.cls-4{fill:#ffaee8;}.cls-5{fill:#161616;}.cls-6{fill:#4c4c4c;}.cls-7{fill:#282828;}.cls-8{fill:#7f7f7f;}.cls-9{fill:#3a3a3a;}.cls-10{fill:#212121;}.cls-11,.cls-18{fill:#0f0f0f;}.cls-12{fill:#7a7a7a;}.cls-13{fill:#3f3f3f;}.cls-14{fill:none;stroke:#7a7a7a;stroke-width:7px;}.cls-14,.cls-18{stroke-miterlimit:10;}.cls-15{fill:#303030;}.cls-16{fill:#111;}.cls-17{fill:#515151;}.cls-18{stroke:#515151;}.cls-19{fill:#a8a8a8;}</style></defs><g id="bear"><ellipse class="cls-1" cx="632.96" cy="655.14" rx="259.5" ry="283" transform="translate(-92.17 1206.53) rotate(-83.24)"/><path class="cls-1" d="M572.68,420.41c-8.18-46-107.88-87.35-179.2-52.18-53.48,26.37-67.54,84.19-69.12,91.21-10.37,45.78,0,110.9,37.27,127.27,37.83,16.61,85.18-25.29,138.23-70.21C543.36,479.66,578,450.33,572.68,420.41Z"/><path class="cls-1" d="M924.27,658.56c46.56-4,96.63-99.67,68-173.84-21.49-55.62-77.82-74.77-84.67-77-44.68-14.41-110.46-9.92-130.09,25.77-19.92,36.19,17.58,87.1,57.59,143.94C867.88,624.06,894,661.18,924.27,658.56Z"/><path class="cls-1" d="M369,1621c44.76,48.09,99,62.61,161,79,71.72,19,191.54,50.61,276-8,119.06-82.63,97.92-296.16,92-356-13.67-138.11-65.88-155.34-53-273,4.09-37.37,16.17-97.81-17-152-7.68-12.55-22.9-37.92-52-49-50.78-19.33-85.72,26.5-155.5,31.5-83.59,6-113.43-63-156.5-44.5-31.92,13.69-17,57.55-54,172-16,49.42-20.85,48.62-46,118-18,49.59-39.59,109.23-50,163C305.11,1347.94,272.36,1517.17,369,1621Z"/><path class="cls-1" d="M455,868.35c-7.17-7.79-10.68-6.54-82-31.72-51.78-18.27-60.5-22.54-71-29.63-26.3-17.84-43.51-39.93-52-51-14.64-19.08-13-22.23-27.07-42.37-22.35-31.9-39.51-56.7-67.89-65.27-28.18-8.52-65.65-1.58-86.75,21.15-47.38,51,11,156.82,16.53,166.64,20.86,36.83,46.51,58.45,76.29,83.55,23.29,19.64,62.59,52.2,121.62,74,56.12,20.77,124.91,46.24,164.75,10.43C483.25,972,484.5,900.49,455,868.35Z"/><path class="cls-1" d="M1179.48,1074.66c-7.55-7.42-11-6-83.5-27.54-52.63-15.64-61.55-19.46-72.36-26-27.16-16.49-45.46-37.69-54.5-48.31-15.59-18.32-14.07-21.55-29.18-41C916,901.1,897.63,877.2,868.85,870.07c-28.58-7.09-65.64,1.74-85.57,25.5-44.75,53.37,18.86,156.07,24.9,165.59,22.7,35.74,49.4,56,80.41,79.6,24.25,18.44,65.14,49,125.2,67.82,57.09,17.92,127.09,39.89,165.07,2.12C1213,1176.78,1210.6,1105.27,1179.48,1074.66Z"/><path class="cls-1" d="M531.71,1624.88c-31.33-43.45-47-65.18-69.65-77.88-31.56-17.72-81.74-25.46-117.33-4.62-57.68,33.76-55.52,131.68-54.07,195.69C294.36,1901.52,364,2016.24,318,2063c-5.37,5.45-29.08,27-37,61-2.34,10-3.36,21.16,2,31,6.3,11.57,23,22.65,129.75,17.92,59.19-2.62,88.88-4.27,99.39-15.58,27.79-29.88,12.09-95.59,1.21-141.13-4-16.52-11.06-40.69-11.17-75.64a272.44,272.44,0,0,1,3.11-41.19c9.07-62.18,32.26-107.38,52.53-185.61,2.29-8.83,6-24,2.07-42.13C555.34,1650.78,541.73,1638.76,531.71,1624.88Z"/><path class="cls-1" d="M859,2165c-7.79,6.15-30.19,6.77-75,8-57.29,1.58-87.42,2-105-17-13.52-14.61-13.35-33.94-12-69,3.2-83.06,8.84-146.24,9-148,12.23-137.33-106.7-188.38-74-277,23.68-64.16,102.86-83,107.14-84C758.9,1566.9,818,1582.36,855,1621.66c31.8,33.76,31.43,73.41,29.92,130.94a373,373,0,0,1-3.23,40.86,558.56,558.56,0,0,1-20.46,92.27C829.62,1987.64,909.93,2124.78,859,2165Z"/></g><g id="face"><path d="M473.09,653c-9.49-49.66,9.75-90.31,38-99.73,14.27-4.75,30.37-1.39,41.59,6.13,26.16,17.53,34.5,63.41,13.13,110.84A155,155,0,0,1,473.09,653Z"/><circle class="cls-2" cx="534.49" cy="601.86" r="24"/><circle class="cls-2" cx="500.22" cy="631.45" r="19"/><path d="M485.31,581.7c-1.92-4.37-7.38-4.65-12.79-8.47-10-7.1-8.43-21.37-10.64-21.21-2,.16-5.2,11.61-.89,22,4.55,11,16.78,19.15,21.79,16.46C485.32,589.15,486.62,584.7,485.31,581.7Z"/><path d="M507.65,571.74c-2.33-6-12.22-2.91-20.24-10-7.39-6.54-7-16.2-8.38-16-1.57.28-3.4,12.5,2.68,22.41,5.75,9.36,18.14,16,23.41,12.37C507.57,578.89,508.83,574.77,507.65,571.74Z"/><path class="cls-2" d="M535.41,635.47l8.38-8q.59,5.69,1.18,11.36l10.8,5.14L544.92,649q-.81,6-1.61,12-3.94-4.74-7.88-9.49l-11.65,2q3-5.14,5.9-10.3l-5.16-9.94Z"/><path d="M799.72,689c22.93-45.06,15.77-89.46-8.77-106.37-12.39-8.54-28.79-9.79-41.67-5.69-30,9.56-50.77,51.31-43.45,102.81A155,155,0,0,0,799.72,689Z"/><circle class="cls-2" cx="754.98" cy="622.76" r="24"/><circle class="cls-2" cx="779.66" cy="660.72" r="19"/><path d="M807.83,617.09c3.06-3.67,8.38-2.41,14.63-4.58,11.63-4,14-18.18,16.13-17.41,1.87.7,1.76,12.6-5.27,21.4-7.44,9.32-21.45,13.73-25.51,9.75C805.74,624.24,805.73,619.6,807.83,617.09Z"/><path d="M789.14,601.31c3.89-5.08,12.54.59,22.22-4,8.93-4.22,11.21-13.62,12.49-13s-.21,12.95-8.81,20.77c-8.13,7.39-21.86,10.27-25.92,5.37A8,8,0,0,1,789.14,601.31Z"/><path class="cls-2" d="M744.74,654.79q-2.91-5-5.81-10-2.16,5.29-4.3,10.58l-11.8,1.93,9,7.91-1.8,12,10.21-6.92,10.62,5.17q-1.39-5.76-2.8-11.53l7.73-8.11Z"/><ellipse class="cls-3" cx="416.73" cy="681.73" rx="22.51" ry="30.85" transform="translate(-309.34 1015.27) rotate(-83.24)"/><ellipse class="cls-3" cx="839.08" cy="723.2" rx="22.51" ry="30.85" transform="translate(37.23 1487.48) rotate(-84.38)"/><path d="M599.24,719c3-5.09,12.79-4.33,32.14-2.6,21.74,1.94,34.7,3.1,36.62,9.6.71,2.4-.29,4.89-16,22.32-17.86,19.84-20.75,21.27-23.93,21-5.72-.52-10.22-8.3-19-23.84C600.79,730.73,596.69,723.27,599.24,719Z"/><path class="cls-4" d="M627,772.27c-3.59-.24-3.79,10.31-13.86,19.41-5.81,5.26-8.43,4.17-11.38,8.52-4.74,7-3.87,18.61,1.87,26.1,8.86,11.57,28.65,12.46,38.92,2.7,5.13-4.88,8.83-13.31,6.91-20.72-1.82-7-7.08-6.89-13.29-16.6C629.34,781.09,630.21,772.48,627,772.27Z"/><path d="M567.94,804.27a5.31,5.31,0,0,0,.2,5c3.93,5.77,26,1.71,40.65-9.62,18.34-14.23,21.55-37.36,20.52-37.84s-7.4,23.07-26.75,32.08a77.33,77.33,0,0,1-15.79,5.63C577.11,801.46,569.94,800.25,567.94,804.27Z"/><path d="M678.52,816a5.28,5.28,0,0,1-1.28,4.83c-5.08,4.78-25.79-4-37.61-18.18-14.83-17.86-13-41.14-11.85-41.38S630,785.43,647,798.42a77.94,77.94,0,0,0,14.2,8.91C670.18,811.3,677.44,811.68,678.52,816Z"/></g><g id="shoes"><path class="cls-5" d="M306,1889c8.49-9.57,18.36-5.75,77-5,85.24,1.09,131.92-6.06,136,8,1.11,3.82-2.11,5.64-6,15-8.18,19.67-5.06,38.27-2,55,7.35,40.14,14,67.41,18,87,10.71,53,16.16,80,2,99-8.53,11.43-21.05,15.77-68,22-107.09,14.22-161,20.72-181-9-8.25-12.28-8.1-25.93-8-35,.46-41.53,34-53.29,48-89C346.56,1974.55,280.86,1917.35,306,1889Z"/><path class="cls-5" d="M668,1909c49.2-14.69,88.94-12.32,112-9,30.71,4.42,62.31,9,80,33,13.91,18.9,8.31,35,9,83,1.37,95.11,24.58,113.42,6,138-20,26.49-62.87,26.27-115,26-46.66-.24-70-.36-86-16-22.93-22.39-12.82-55.75-8-168C667.56,1959.57,667.94,1929.46,668,1909Z"/><path class="cls-6" d="M524,1892c16.51,16.81,20,46.15,14,50-2.81,1.8-6.74-2.6-15-1-7.26,1.4-7.67,5.7-14,7-9.41,1.93-12.4-5.44-24-6-10.72-.52-11.22,5.63-23,6-12.8.4-14.44-6.78-26-6-11.86.8-12.4,8.52-25,10-11.53,1.35-12.85-4.89-27-5-15-.11-16.47,6.91-28,5-12.28-2-14.32-10.61-25-10-8.32.48-9.61,6.79-17,6-7.88-.84-9.63-8-17-8s-10.29,7.26-13,6c-5.17-2.41-1.47-32,17-56a64.41,64.41,0,0,1,6-7c20.72-20,58.54-7,106-2C482.36,1888.36,503.76,1871.39,524,1892Z"/><path class="cls-6" d="M666,1899c18.65-17.25,36.6-5.3,108-6,39.63-.39,70.24-4.37,86,14a81.77,81.77,0,0,1,8,12c11.41,20.36,14.31,43.2,10,45-3.06,1.28-8.22-12-18-12-8.4,0-10.42,9.82-19,10-9.25.2-11.69-11.11-21-11-8.79.1-10,10.23-19,11-11,1-14.66-13.92-27-14-10-.07-11.49,9.77-22,10-12.23.26-15.7-13-27-12-9.6.81-10,10.59-20,12-12.3,1.73-17.15-12.32-30-11-11.22,1.15-15.13,13-21,11s-6.7-14.89-6-23C649.33,1919.55,658,1906.42,666,1899Z"/><path class="cls-7" d="M874,2093c-22.58-12.08-44.68,32.28-99,36-60.73,4.16-93.66-47.15-118-31-18.31,12.15-19.69,54.46-2,79,18.07,25.07,57.71,25.05,137,25,64.81,0,76.44-8.16,83-15C900.5,2160.42,896,2104.76,874,2093Z"/><path d="M762.55,2001.3c14.79-15,15.63-23,24-24.37,9.21-1.51,21,6,23.32,16.07,2.48,11-6.63,24.26-16.67,26.42-22.13,4.78-40.34-46.17-62-41.21-9.59,2.2-18,15-15.81,25.3,1.82,8.55,10.84,15.11,19.22,15.61C744.44,2019.71,752.07,2012,762.55,2001.3Z"/><path d="M755.45,1990.06c-5.47,2.46-8,13.21-4,18,1.52,1.81,4.35,2.54,10,4,3.76,1,5.65,1.45,7,1,6.18-2.08,9.08-16.64,4-21-1.39-1.19-3.92-1.46-9-2C759.13,1989.6,757,1989.37,755.45,1990.06Z"/><ellipse class="cls-7" cx="767" cy="2096.5" rx="120" ry="91.5"/><path class="cls-7" d="M557,2127c-2.06-6.28-3.49-10.66-5.92-14.28-2.31-10.36-5.59-23.84-9.71-40.72-7.58-31-9-35.62-14.17-39-18.27-11.93-40.2,19.35-85,27-58.27,9.95-81.65-32.62-134.61-15-8.08,2.69-35.06,11.66-44.53,36-5.93,15.24-4.11,34.28,4.43,48.11a16.94,16.94,0,0,0-1.67,1.89c-6,8.07-8.65,27.05-1.47,42.68a49.58,49.58,0,0,0,5.78,9.32c17,20.92,162.33,15.69,162.53,15.68h0c25.18,0,46.82-.69,108.36-9.68a19.19,19.19,0,0,0,7-2C562.69,2179.05,564.18,2148.94,557,2127Z"/><ellipse class="cls-8" cx="290" cy="2082.5" rx="21.5" ry="18" transform="translate(-1779.93 1713.33) rotate(-71.96)"/><ellipse class="cls-8" cx="708" cy="2060.5" rx="18" ry="21.5"/><path class="cls-9" d="M339,1879c-2.85-2.4-55.09,54.67-51,59,1.06,1.12,4.88-2.39,11-1,6.91,1.57,9,7.64,12,7,3.93-.84,4.17-12.17,5-19C319.41,1896.8,340.66,1880.4,339,1879Z"/><path class="cls-9" d="M358,1883c-2.64-.33-5.85,9.93-9,20-6.39,20.43-9.88,31.6-4,39,4.78,6,14.87,8.45,19,5,3.61-3,1.29-9.42-1-24C358.89,1896.85,361,1883.38,358,1883Z"/><path class="cls-9" d="M401,1884c-3.59.81.75,13.78-5,38-2.9,12.2-5.85,16.69-3,21,5,7.65,23.81,8,29,0,2.27-3.48,1.43-7.76-2-18C414.06,1907.23,405.91,1882.89,401,1884Z"/><path class="cls-9" d="M461,1886c-1.88.09-1.92,8.33-5,26-3.6,20.63-6.35,25.46-3,29,5.15,5.46,20.28,3.15,24-4,2.8-5.38-2.69-10-9-29C463.31,1893.88,462.85,1885.92,461,1886Z"/><path class="cls-9" d="M491,1881c-.65.31.3,2,4,20,3.18,15.51,4.78,23.26,5,25,1.39,10.77.85,15.32,4,17,3.31,1.77,9.24-.42,12-4C527,1924.72,494.46,1879.37,491,1881Z"/><path d="M377,2030c-.93-10.26-11.67-19.28-21-19-6.2.19-8.87,4.4-16.37,11.72-1.46-1-4-1.23-8.63-1.72-4.22-.45-6.37-.67-7.89,0-6.61-9.32-13.56-16.76-22.11-16-9.79.92-19.82,12.48-19,23,.68,8.71,8.76,16.4,17,18,6.78,1.32,13.06-1.62,20.29-6.68,1.59,1.59,4.4,2.31,9.71,3.68,3.77,1,5.65,1.45,7,1a6,6,0,0,0,2.17-1.33c5.61,6.95,11.65,11.91,18.83,11.33C367.24,2053.17,378,2041.22,377,2030Z"/><path class="cls-5" d="M295,2139c72.19,30.49,243-22.9,252-23,.61,0,2.37,0,3,1,0,0,.75,1.23-1,4-4.65,7.39-149.5,40-225,31a114.15,114.15,0,0,1-43-14c-6.48-3.72-14.52-9.26-14-10.23C267.79,2126.29,287.88,2136,295,2139Z"/><path class="cls-5" d="M649,2111c.59-1,25.69,18.5,63,30,11.49,3.54,81,25,138-7,18.22-10.22,34.61-25.6,36-24,1.17,1.34-9.44,13.22-17,20-40.19,36.05-114.16,35.73-170,12C669.7,2129.55,648.45,2111.94,649,2111Z"/><path class="cls-9" d="M713,1896c-3-1.1-9.52,11.64-20,32-5.24,10.18-6.75,14.17-5,18,3,6.68,14.65,9.9,20,6,4.08-3,2.56-8.65,3-24C711.64,1905.77,715.44,1896.91,713,1896Z"/><path class="cls-9" d="M748,1900c-2.19.28-1.92,4.62-6,19-4.46,15.72-7.39,19.79-5,26,.47,1.23,3,7.28,9,9a13.45,13.45,0,0,0,12.74-3.35c5.42-5.46,3.47-14.89,1.26-24.65C758,1917,752.53,1899.42,748,1900Z"/><path class="cls-9" d="M794.76,1902.79c-2.07.24-3.56,6.45-6.46,18.84-3.89,16.58-3.45,20.37-2.16,23.81.42,1.12,4.33,11.12,11.57,11.55,4.46.26,7.93-3.24,8.62-4,5.75-6.06,3.56-15.55,1.37-24.44S799.65,1902.22,794.76,1902.79Z"/><path class="cls-9" d="M830,1904c-7,1.83,1,38.07,5,49,.5,1.35,1.57,4,4,5,4.12,1.66,10.58-2.15,13-7,1.51-3,1.89-7.35-4-20C842.37,1918.9,834.85,1902.74,830,1904Z"/><path class="cls-9" d="M683,1894c-3.85-2.92-24.79,15-30.54,33.56-3.62,11.72-1.21,16.34-.46,17.44.35.51,2.83,4.12,6,4,4.83-.19,7.72-8.91,12.46-21.44C681.19,1899.19,684.72,1895.3,683,1894Z"/></g><g id="dress"><path class="cls-10" d="M366,1131c-61,147.45-140.33,138.48-210,273-59.86,115.59-99.95,312.75-12,413,53.54,61,188.83,57.72,451,59,27.56.13,22.59-.29,36,0,204.11,4.48,295.3,80.65,391.84,32a151.69,151.69,0,0,0,29.16-19c17.91-15.15,53.93-53.51,61-162,10.18-156.22-48.49-322.21-122-391-9.77-9.15-26.18-26.1-59-60-32.21-33.27-48.37-52.74-63-82a236.94,236.94,0,0,1-13-40c-22.08-99.89,45.07-223.23,14-252-33.4-30.93-133,91.67-255,68-92.11-17.87-119-103.27-166-89C397.91,896.52,420,1000.51,366,1131Z"/><path class="cls-10" d="M196,677c-5.12.57-8.62,3-14,7C128.2,724.56,72.43,792.56,51,854a233,233,0,0,0-10,40c-2.08,13.49-3.84,25-2,39,1.31,10,4.53,34.45,19,46,23.55,18.79,54.54-9.88,112-12,74-2.74,121.19,43.44,188,51,4,.46,21.35,2.27,45,6,20.08,3.17,34.81,6.2,39,7,157.9,30.27,236.84,45.4,276,43,41-2.51,84.32-11.13,112,16,2.25,2.21,5.89,13.07,16,24a92.11,92.11,0,0,0,18,15c55.28,36,82.91,54.07,108,65,21.65,9.43,28.52,10.46,39,20,14.12,12.85,17.47,25.38,27,47,5.6,12.7,36.72,83.28,55,80,5.53-1,8.13-8.43,13-23,16.63-49.72,25-74.59,27-84,8.31-38.18,11.31-65.43,15-100,6.57-61.53,3.79-71.74-3-79-8.85-9.47-17.6-8-64-19-35.79-8.47-54-12.9-69-22-11.92-7.23-18-14-46-50-54.56-70.09-57.25-77.35-74-86-29.89-15.44-68.89-16.9-81-3-2,2.3-6.57,7.57-14,15a106,106,0,0,1-18,12c-8.22,4.23-124.23,56.68-274-9-27.36-12-22.32-13.24-63-32-97-44.75-108.17-29.62-143-56C235.27,756.74,229.29,673.32,196,677Z"/><path class="cls-11" d="M448,863c-6,3.92-4.85,20.71,3,26,5.62,3.79,10.42-1,19,3,6.16,2.83,6.11,6.77,12,11,8.77,6.3,16-.63,23,5,4.91,3.92,3.38,8.06,8,10,5.86,2.46,10.1-3.45,16-1,5.17,2.15,3.76,7.47,9,10,6.18,3,10.36-3.32,18-1,7.06,2.15,6.43,8.45,13,10,7.43,1.76,10.78-5.71,18-4s7.67,10.44,14,11,8.17-7.91,15-8c8.12-.11,10.37,11.8,19,12,6.6.15,7.72-6.75,15-7,8.48-.3,10.53,9,19,9,8.25,0,9.67-8.73,18-9,9.62-.31,13,11.23,21,10,7.31-1.13,6.73-11.22,15-14,10.74-3.61,21.79,10,27,6,4-3.06-.93-12.2,3-15,5.2-3.71,17.17,9.86,24,6,5.19-2.94,1.51-12.62,7-16,6.6-4.06,16.54,7.07,23,3,4.73-3,.93-9.92,6-16,6.93-8.32,19.48-1.87,25-9,4.94-6.39,2.46-21.36-7-26-8.51-4.17-19.77,1.44-24,8-2,3.13-1.91,5.66-5,8-4.2,3.18-7.37.75-12,3-7,3.41-4.55,11.31-11,15-5.85,3.35-9.44-2.26-19,0-8.56,2-8,7.08-17,9-7.53,1.61-9.72-1.55-16,1s-5.74,6.52-11,8c-7.26,2-10.38-4.92-19-4-8.08.86-8.21,7.28-16,8-8.47.78-10.54-6.6-20-6-6.61.42-7.2,4.12-14,4s-7.54-4-14-4c-7.21-.06-8.17,4.7-16,5-5.78.22-10.44-2.17-14-4-8.69-4.46-8.9-8.64-14-9-6.41-.46-8.42,6-14,5-5.75-1-5.61-8.17-12-10-6.1-1.75-8.46,4.16-15,3-7.6-1.35-7.46-9.86-17-13-1.85-.61-1.18-.07-12-1-8.72-.75-13.11-1.14-15-2-7.54-3.42-5.73-9.18-13-13s-10.94,1-18-3c-6.1-3.48-5.07-8.07-12-12C460.12,864.5,452.39,860.12,448,863Z"/><path class="cls-11" d="M201,677c-9.77-1.33-11-3-14-2-5.38,1.74-3.56,7.73-10,13s-11.32,1.66-17,7c-5,4.72-2,8.29-7,14-6.18,7.06-12.82,3.94-18,11-3.73,5.09-1.12,7.87-5,12-5.25,5.6-11.37,1.94-16,7-5,5.44-.06,12-5,17s-12.32.87-16,6c-2.9,4,.42,8.39-3,12-2.93,3.1-6.41,1-9,4-3.24,3.75.88,8.56-2,13-3,4.6-8.71,1.51-13,6-5,5.28.32,12.23-5,19-3.79,4.83-8.23,3.48-10,8-1.88,4.8,2.64,7.58,1,13s-6.39,4.35-9,10c-2.88,6.23,1.89,9.63-1,16-2.57,5.66-7.41,5.37-8,10-.61,4.8,4.33,7.25,3,11-1.17,3.31-5.4,2.47-7,6-1.7,3.75,2.43,6.11,2,12s-5,6.71-5,12,4.48,5.57,6,12c1.77,7.52-3.48,10.7-1,16,2.36,5,7.86,3.76,10,9,1.94,4.75-2,7.28,0,12,2.09,5,7.14,3.68,10,9,2.58,4.8-.72,7.37,2,13,1.77,3.65,4.66,5.67,8,8,3.57,2.49,6.76,4.72,11,5,7.43.5,16-5.09,16-10,0-6.4-14.46-8.32-24-15-28.26-19.77-15.66-82.88-15-86,7.72-36.75,36.92-68.67,95-131,21.22-22.77,68.84-72.56,64-78C208.42,677.34,207.57,677.89,201,677Z"/><path class="cls-11" d="M1116,1322c2.8-3.38,6.23-5.11,8-10.37a13.38,13.38,0,0,0,.82-3.49c.24-4-2.08-6.38-.41-12.16,2.6-9,10-9,11.65-17.58,1.22-6.2-2.32-7.61-.56-13,2.39-7.29,9.48-6.57,11.53-13.12,2.21-7-5-10.9-2.67-17.52s10.8-6,12-12.21c.91-4.89-3.94-7.42-2.37-12.14,1.35-4.05,5.38-3.62,6.46-7.44,1.34-4.76-4.42-7.37-3.69-12.62.74-5.42,7.24-5.06,9.23-10.94,2.34-6.92-5.47-10.94-3.52-19.33,1.39-6,6-6.64,5.67-11.48-.33-5.15-5.6-5.75-6.41-11.36-.78-5.45,4-6.64,3.92-12.87,0-6.86-5.79-7.92-5.87-14.91-.07-6.21,4.44-8,3-12.45-1.48-4.61-7-4.73-7.38-8.69-.34-3.5,3.85-4.53,3.8-8.4,0-4.12-4.79-4.51-6.89-10s1.71-8.2-.55-13-7.64-9.4-10.52-8.33c-5.6,2.09-1,25,1.12,42.53,4.34,35.73.17,63.11-4.36,92.89-9.85,64.68-34,117-34,117-6.59,14.45-17,34.84-11,40,3.47,3,12.59.93,17-4S1110.88,1328.2,1116,1322Z"/></g><g id="Calque_7" data-name="Calque 7"><path class="cls-8" d="M611,1318c-26.13-1.91-59,16-156,182-116.68,199.54-175,299.31-139,347,31.51,41.73,89.59-6.08,266,16,142.06,17.78,231.59,64.71,268,22,10.93-12.82,13.24-29.23,12-59-4.82-115.47-53.56-204-136-350C649.89,1341.19,637.12,1319.91,611,1318Z"/><path class="cls-10" d="M630,1303c-22.25,39.41,23.44,87.13,87,206,40.33,75.43,96,179.5,131,310,23.45,87.38,27.33,148.19,54,152,9,1.29,29.14-2.72,71-84,55-106.78,104.13-202.16,88-334-2-16-33.87-253.55-179-297-54.47-16.31-118.24-3.28-149,3C680.28,1269.77,644.66,1277.05,630,1303Z"/><path class="cls-10" d="M575.2,1303.48c14.35,52.94-73.39,118.72-145.33,212.21-160.74,208.87-128.26,418.21-176.09,417.94-49.16-.28-116-225.67-68.78-439.63,6.08-27.56,59.9-260.8,179.75-276.94,48.54-6.53,111.27,22.34,131.3,31.14C544.6,1269.53,568.88,1280.19,575.2,1303.48Z"/><path class="cls-2" d="M310,1746.76c45.4-45.26,101.69-22.33,260-16.46,183.54,6.82,251.73-17.37,283,29.83C860.19,1771,865.13,1810,875,1888c.77,6.08,2.16,18.34-5,25-8,7.48-23,4.29-29,3-15.76-3.37-15.94-9.93-29-11.91-15.92-2.4-19.63,6.74-33,3.09-13.53-3.69-14.78-14.44-25-14.18-10.74.28-13,12.22-23,12-10.75-.24-12-14.13-24-16.33-13.62-2.49-20.88,13.66-33,10.28-10.07-2.8-9.46-15.18-19-17-10.2-1.9-14.29,11.61-27.2,11.81-12.67.2-14.82-12.72-27.94-13.37-14-.69-17.14,14-32.24,14.4-14.45.4-16.89-12.89-32.23-13.37-16.43-.51-20.32,14.52-35.46,13.37-15.4-1.17-17.2-15.92-32.24-16.45-14.47-.52-17.89,12.86-33.69,12.34-11.93-.4-12.37-8.11-26-10.73-18.44-3.54-23.64,9.41-43,8-18.71-1.36-18.42-13.79-38-16-21.09-2.38-32.07,10.83-43,4-2.39-1.49-8.15-6.06-9.72-22.29C271.54,1825.38,281.9,1774.77,310,1746.76Z"/><path class="cls-2" d="M363,1636c35.7-33.45,75-24.71,251-15,139,7.67,176.8,5.65,209,40,35.42,37.78,42.1,96.18,32,102-8,4.64-26.29-24.4-49-19-14.7,3.5-15.93,17.79-30,19-16.79,1.45-23.17-18.19-39-16-13.59,1.88-14.85,17.2-28,18-13.44.82-16.92-14.89-31-15-15.45-.12-18.79,18.77-34,19-15.54.24-19.47-19.36-36-19-13.26.29-17.15,13-28.56,11-11.67-2.09-13.8-16.64-22.41-16-9.43.7-10.66,17.79-20.37,19-10.65,1.33-16-18.4-28.52-18-10.55.34-12.48,14.46-23.42,15-11.7.58-14.9-15.28-28.52-16-11.48-.61-14.61,10.37-25.47,9-11.45-1.44-12-14.15-23.42-16-12.74-2.06-19.9,12.44-29.54,9-8.47-3-6.54-14.42-15.28-19-13.37-7-31,13.21-37.49,9C315.61,1730.91,325.43,1671.2,363,1636Z"/><path class="cls-2" d="M424,1542c30.43-16.8,53.94-9.14,111-5,146.91,10.67,178.76-26.45,231,10,29.86,20.84,66.44,65.76,55.57,96a32.71,32.71,0,0,1-4.23,8c-18.4-10.63-28.58-8-28.58-8-10.63,2.75-9.14,14.48-19.06,17-11,2.81-16.54-10.77-30.69-10s-17.38,14.92-29.64,14c-11.47-.86-13.15-13.58-24.35-14s-13.3,12.34-26.46,14c-13.77,1.73-18-11.44-33.87-11-14.16.39-15.59,10.93-28.58,11-17.13.09-22-18.19-37.05-17-13.65,1.08-17.34,16.6-28.58,15-9.83-1.4-11.66-13.92-21.17-14-7.66-.06-8.83,8-16.94,9-12.14,1.42-16.54-16-30.7-17-13.41-1-17.41,14-30.69,13-13.55-1-14.81-17.08-29.64-19-10.7-1.39-16.07,8.82-30.7,7-4.47-.56-7.65-1-9.53-3C350.84,1626.86,379.32,1566.66,424,1542Z"/><path class="cls-2" d="M442.48,1484c4.67-6.6,19.47-27.49,32.52-39,44.69-39.42,163.2-52,238,9,35.9,29.28,64.3,77.61,53,94-2.91,4.22-11.51,10.75-21.18,11-11.15.29-16.5-7.88-24.91-5-7.34,2.51-5.84,9.73-12.46,12-10.2,3.5-18.07-12.18-34-12-14.58.17-18.33,13.49-31.7,12-10.79-1.21-11.72-10.25-22.65-11-11.39-.78-13.93,8.8-26,9-13.07.22-15.2-10.84-29.45-12-14.72-1.2-17.9,10.17-31.7,9-16-1.36-19.13-17.3-34-17-11.06.22-15,9.2-22.65,7-9.31-2.67-7.52-17.16-15.85-19s-15.12,11.69-24.91,10c-6.91-1.19-10.49-9.13-11.33-11C421.31,1526.72,419.43,1516.58,442.48,1484Z"/><path class="cls-2" d="M527,1367.63c62.3-61,71.94-62,78-61.63,15.38.83,33.46,23.75,69,69.55,15.52,20,48.49,63.64,40,70.44-4.28,3.43-15.57-5.49-27,0-8.22,4-8,11.19-15,12.33-7.77,1.26-10.67-7.18-20-7-10.26.15-13.07,10.45-22,9.69-7.82-.66-8.52-8.8-17-9.69-8.22-.86-10.57,6.49-19,6.17-10.2-.39-11.71-11.33-22-12.33-10.51-1-14.2,9.88-24,8.81-10.92-1.2-11-15.23-23-17.61-10.27-2-14.9,7.29-29,6.16-5.71-.46-14.69-2.93-18-7.92C471.83,1425.23,486,1407.74,527,1367.63Z"/><path d="M144,1558c-28.25,159.08,47.75,297.93,55,296,6.63-1.77-48-120.42-26-288,13.59-103.38,49.7-174.75,44-177C211,1386.63,161,1462.12,144,1558Z"/><polygon class="cls-2" points="301.41 1730.46 255.17 1717.01 288.3 1603.1 268.35 1597.3 235.23 1711.21 187.83 1697.43 183.8 1711.31 231.19 1725.1 224.24 1749.01 244.18 1754.81 251.14 1730.89 297.38 1744.34 301.41 1730.46"/><path d="M913,1395c28.33,31.38,71.67,88.52,94,171,25.36,93.71,10.23,170.73,1,215-15,71.83-42.36,127.16-46,126-4.67-1.48,36.06-93.89,35-223-.51-62.39-10.58-108.34-14-123A536.29,536.29,0,0,0,913,1395Z"/><polygon class="cls-2" points="985.69 1745.76 983.56 1731.46 934.74 1738.75 917.22 1621.42 896.67 1624.48 914.2 1741.82 866.57 1748.93 868.71 1763.22 916.33 1756.11 920.01 1780.74 940.55 1777.68 936.87 1753.05 985.69 1745.76"/><path class="cls-5" d="M542,1306c6.48,4.59,3.32,13.3,9,16,10.56,5,24-23.91,46-24,18.73-.08,28.19,20.73,39,16,9.42-4.13,4.89-21.1,16-27s27.39,4.9,29,6c20.17,13.76,18.65,37.56,28,38,5.84.28,12-10.48,24-32,10.63-19,11.31-24,16-25,15-3.07,32.39,43,42,40,9.29-2.9.9-46.25,10-49,10-3,27.75,46.7,44,44,12.56-2.09,9.33-33,29-42,18.32-8.35,41.82,9.07,44,5,1.45-2.71-10.07-8.74-23-24-16.66-19.65-14.62-27.54-24-31-6-2.2-9.13.13-51,17-18.44,7.43-22,8.65-28,9-12.43.73-16.89-3.28-31-1-4.39.71-3.48,1-19,5-11.3,2.9-17,4.34-21,5-9.8,1.58-11.12.15-33,0-13.42-.09-20.13-.14-29,1-12.62,1.62-12.93,3.36-22,4-7.25.51-15.27-1-31-4-9.08-1.74-20.82-4.2-36-8-7.59-1.9-6.74-1.81-19-5-24-6.25-36.17-9.39-44-10-17.15-1.33-16.51,2.61-28,0-16.58-3.77-17.28-11.85-32-14-14.17-2.07-17.67,4.81-30,1-9.34-2.89-7.91-7-20-13-5.28-2.61-5.06-1.58-33-8a70.35,70.35,0,0,0-20-2c-.41,0-.62,0-.74,0-2.31.31-7,2.91-20.26,22-11.16,16-17.32,24.29-15,27,3.47,4,20.2-10.79,29-5,9.43,6.2.29,29.85,7,33,8.28,3.89,25.4-30.51,41-27,10.44,2.35,15.28,20.56,17,27,5.23,19.66-.45,33.65,3,35,6.73,2.64,27.75-50.8,42-48,12.52,2.46,11.21,45.93,22,47,9,.89,18.06-28.44,23-27s-4.06,29.41,6,36C508.52,1320.89,530.24,1297.66,542,1306Z"/><path class="cls-12" d="M637,1436c12.24-2.88,20,14,32,11,9.26-2.29,9.11-13.41,18-15,12-2.16,24.81,16,24,17s-10.53-12-22-10c-9.53,1.64-9.66,11.66-19,13.85-12.63,3-20.92-13.4-32-9.85-8.65,2.77-7.08,13.86-15,16-11.85,3.19-22.93-19.55-35-16-6.27,1.84-5.62,8.67-12,10-10,2.09-16.36-13.76-26-12-8.58,1.57-8.87,15.11-17,16-7.93.87-10.91-11.66-21-12-8.75-.29-11.51,9-19,8-10.36-1.34-15.91-20.47-15-21s6.38,14,15,14c6.53,0,7.89-8.29,15-9,9.26-.93,13,12.52,22,12,9.32-.55,10.9-15.45,20-16,9.36-.56,13.41,14.86,23,14,7.17-.64,7.43-9.47,15-11,11.65-2.36,19.11,16.89,31,15C627.88,1449.59,627.42,1438.26,637,1436Z"/><path class="cls-12" d="M467,1533c15.32-1.7,23.06,18.06,34,15,9.2-2.57,6.63-17.37,16-21,12.62-4.89,23.69,19.48,46,19,13.94-.3,14.3-9.9,29-11,22.23-1.66,29.26,19.73,49,18,17.83-1.56,18.17-19.55,36-22,24.07-3.31,41.2,27,55,20,8.84-4.49,6.31-19.41,14-21,9.16-1.9,20.42,17.64,20,18s-7.12-11.84-15-11c-8.36.9-7.55,15.34-17,20-14.84,7.32-30.48-20.69-55-18-20,2.19-21.38,22-40,22.26-20.12.25-27.4-22.8-47-20.26-12.62,1.64-12.63,11.59-25,13-21,2.4-33.57-24.88-47-20-9.95,3.62-6.93,20-17,23-11.61,3.44-20.32-17-38-15-8.57,1-11.18,6.29-20,5-9.62-1.4-16.5-9.18-16-10s6.27,4.71,15,5C455,1542.37,457.43,1534.06,467,1533Z"/><path class="cls-12" d="M359,1643c.9-.5,2.25,2.56,5,3,5.32.84,8.08-9.37,13-10,9.48-1.21,16,34.52,28,35,10.46.42,14.5-26.55,28-27,4.63-.16,6,3,23,16,12.6,9.69,19,14.52,23,14,12.86-1.67,12.27-28.1,25-31,14.78-3.37,26.92,29.64,44,27,13.35-2.06,12.65-23.27,27-27,19.35-5,33.48,30.23,56,27,18.19-2.61,19-27,39-30,18.21-2.68,25.57,16.33,43,13,17.82-3.4,16.08-25.24,35-30,13.48-3.39,27.55,4.26,51,17,7.84,4.26,17.41,10.2,17,11s-7.77-2.77-16-6c-25.8-10.13-38.7-15.2-50-12-18.14,5.13-15.49,26.31-32,30-17.49,3.9-26.38-17.91-45-15-19.65,3.07-19.93,29-38,32-23.28,3.92-40.92-36-60-30-12.56,3.94-10.55,23-23,26-16.77,4-30.76-28-47-24-13.08,3.26-11.24,25.89-24,29-16.67,4.07-31.43-31.73-49-28-14.33,3-16.05,29.3-26,29-12.13-.36-18-39.61-30-39-6.06.31-9.73,10.54-14,9C358.74,1650.82,357.72,1643.71,359,1643Z"/><path class="cls-12" d="M854,1762c.66-1.53-39.27-28.86-57-16-10.38,7.53-4.33,22.43-14,28-15.79,9.09-41.73-25-61-16-11.88,5.56-7,20.83-19,27-19.43,10-44.19-23.78-66-14-13.21,5.92-9.52,20.72-22,25-20.38,7-40.45-29-62-22-12.85,4.15-11.7,18.88-24,21-17,2.94-27.1-23.88-43-21-14.92,2.7-16,28.12-29,29-13.79.93-21.61-26.9-35-25-9.07,1.29-9.11,14.57-18,16-15.21,2.44-28.76-34.27-43-31-5.64,1.29-5.79,7.56-11,8-12.65,1.07-24-34.78-26-34-1.17.46,1.81,13.22,9,27,3.59,6.89,12.16,23.33,19,22,5.64-1.1,4.23-13.16,10-15,10.79-3.44,26.15,35.42,42,33,9.65-1.48,10.17-16.83,20-18,13.29-1.58,20.23,25.56,34,25,14.15-.58,17-29.65,32-31,14.66-1.31,21.19,25.51,38,25,13.59-.41,14.47-18.11,30-22,23.76-6,43.06,30.1,62,23,12.49-4.68,8-21.81,21-28,21.08-10,48.74,27.16,68,17,11.66-6.15,6.29-22.29,18-28,18.42-9,43.91,25,61,16,10.31-5.46,5.29-20.08,17-28C822.68,1743.05,853.42,1763.33,854,1762Z"/><path d="M398,1023c-15.41,18.06-.46,31.45-24,80-15.19,31.33-34.18,52.07-27,76a48.23,48.23,0,0,0,12,19c50,49.14,524.88,100.65,533,33,2.07-17.26-28-28.8-36-77-4.86-29.39,4.2-37.89-1-53-13.66-39.72-94.5-34-205-50C499.25,1029.2,429,986.69,398,1023Z"/><circle class="cls-13" cx="584" cy="1072" r="9"/><circle class="cls-13" cx="661" cy="1078" r="9"/><circle class="cls-13" cx="661" cy="1236" r="9"/><circle class="cls-13" cx="668" cy="1133" r="9"/><circle class="cls-13" cx="668" cy="1183" r="9"/><circle class="cls-13" cx="575" cy="1123" r="9"/><circle class="cls-13" cx="571" cy="1174" r="9"/><circle class="cls-13" cx="567" cy="1223" r="9"/><path class="cls-14" d="M583.5,1071.5c-3.69,13.55,85.89,40.31,82,63C661.8,1156,578,1150.08,574,1172c-4.22,23.31,86.62,52.23,83,64-3.46,11.26-89.94-1.59-90-14-.07-13,95.12-15.89,97-38,1.81-21.22-84.12-36.08-83-61,1.07-23.86,80.86-32.82,79.5-45.5C659.21,1065.54,586.73,1059.65,583.5,1071.5Z"/><path class="cls-14" d="M619.5,1064.5c39.61,12.89,55.11,49,68,43,6.28-2.91,8.39-14.18,6-22-6.07-19.85-45.28-31.19-74-21-31.68,11.25-39.71,44.83-53,41-9.47-2.73-15.49-22.69-9-34C566.43,1055.94,598.53,1057.68,619.5,1064.5Z"/></g><g id="bonnet"><path class="cls-10" d="M376.83,731.26c-17.2,7.46-56.14-42.72-76.83-75.26-17.08-26.85-66.28-106.68-62.22-220.78C239.17,396,247.94,322.51,295,248c49.09-77.71,113.56-115,151-136A481.9,481.9,0,0,1,585.4,60.68C635.57,50.52,723.38,32.74,817,69c102,39.52,166.2,125.91,219,197,7.34,9.88,11,14.82,15,21,77,119.13,42.16,258.39,33,295-7.15,28.56-14.37,56.47-34,89-40.33,66.84-116,124.85-146.13,107.36C880.85,765,907.76,720.62,892,634c-7.37-40.49-21.84-118.27-86.81-176.35C731.13,391.44,640.2,394.54,631,395c-88.38,4.4-144.54,57.12-163,75-68,65.83-81.26,149.94-85,176C376.34,692.39,389.7,725.67,376.83,731.26Z"/><path d="M551.76,327.57c16.07-6.38-45.09-198.87-42.61-199.6s56.21,191.28,69.52,188.39c13.59-3-19.54-208-15.7-208.58s31.67,205.31,49.34,204.09c17.94-1.24,18.91-208.66,22.43-208.57s-7.94,200.41,15.7,204.08c24.49,3.81,77.14-205.1,80.74-204.08s-60,210.85-42.62,217.54S799.81,126.43,802.94,128s-91.83,189.58-78.49,197.36S851.36,160.27,856.77,163.85,752.47,331.75,764.82,341c12.55,9.43,144.36-146.68,148-143.54S784.67,354.72,791.73,361.21c6.86,6.31,142.2-129.19,143.54-127.84s-140,136.89-132.33,145.78,162.33-114.44,166-109.89S816.58,399.53,823.13,408.31,991.5,306.56,993.58,309.63,835.73,419.79,841.07,428.49s174.37-84,174.93-83S848.8,430.6,854.53,444.19c5.61,13.33,175.73-46.85,177.17-42.61,1.52,4.45-186.76,69-183.9,78.49,2.8,9.29,195.55-33.65,195.12-35.88-.33-1.67-107.15,28.78-168.21,62.8-6.24,3.47-16.79,9.65-15.7,13.45,1.46,5.08,23.08,3.82,83-4.48,72-10,111.56-18,112.14-15.7,1.23,4.87-177.54,48.36-174.93,62.8,2.22,12.34,135.89-3,136.8,4.48.88,7.19-122,24.12-121.1,35.88.91,12,129.72,9.42,130.07,18,.34,8.3-121.35,16.86-121.1,26.91.24,9.73,114.52,13.4,114.38,20.18-.08,3.39-28.45,2.07-78.5,13.46-23,5.25-26.94,10-33.64,6.73C887.05,679.27,902.53,639.76,885,579c-7.86-27.26-18.85-46.59-26-59-26-45.07-56.49-70.64-62.78-75.81-11.82-9.7-30.19-24.58-58.32-35.88-43.41-17.44-80.95-15-100.92-13.46-35.53,2.72-61,12.93-85.22,22.43C525.1,427.74,506.19,435.16,485,452c-23.36,18.57-36,37.84-57,70-14.41,22-22.41,34.34-29,54-7.33,21.87-10.5,45.69-12,57-2.31,17.33-3.66,36-5,36-1.74-.06,4.84-31.5-9-42-18.24-13.84-63,15.45-63.46,14.55s65.34-29.37,62.8-40.37c-2.44-10.54-82.36-.37-83-4.48-.48-3.17,82.64-13,83-26.92.37-15.12-97.22-28.17-96.44-33.64s98.64,8.09,100.93-2.24c2.49-11.32-111.16-45.12-109.9-49.34s118.71,31.86,123.35,20.18c5.05-12.7-126-75.2-123.35-80.73s135.62,58.44,143.54,44.85c8.13-14-120.57-101.88-116.63-107.65s133.48,82,141.3,71.77c8.18-10.68-120.81-123.43-118.87-125.6S442.82,420.23,453.08,410.55c11.29-10.65-110.42-157.34-105.41-161.48S468.48,385.37,480,376.91c12-8.79-95.66-173.26-89.71-177.18S499.76,353.48,513.63,345.51s-70.4-179-65-181.66S536.12,333.78,551.76,327.57Z"/><path class="cls-15" d="M845.56,260.29c-23.85-5.59-45,11.65-47.1,13.45-21.2,17.84-30.17,52.09-17.94,69.53C796,365.37,848,363.94,877,372.42c6.89,2,13.46,4.49,13.46,4.49,8.75,3.29,15.09,6.42,15.7,6.73,17.8,9.09-2.49,91.55,20.18,109.89,25.39,20.53,116.76-29.53,112.14-62.8-3.86-27.81-70.47-12.31-121.11-67.28C876.78,319.44,882,268.83,845.56,260.29Z"/><path class="cls-16" d="M912.84,345.51C900.22,321,952.38,284.63,942,264.77c-8-15.21-47.39-10.74-71.76-2.24-16.66,5.81-52.67,22.71-51.59,42.61,1.05,19.19,36.49,39.75,53.83,47.1,4.37,1.85,12.89,5.11,20.18,13.46,8.62,9.84,10.5,21,11.22,24.67,5.06,25.68,31.58,78.86,56.07,80.73C985.35,473,1012,420,1016,376.91c.82-8.84,3.59-39-9-44.86C991,324.59,968.24,365,935.27,359,932.15,358.4,918.17,355.85,912.84,345.51Z"/><path class="cls-15" d="M260.22,477.73c-2.26,24.38,17.71,42.93,19.79,44.8,20.57,18.55,55.72,22.75,71.32,8.25,19.77-18.38,11.23-69.65,15.66-99.53,1.06-7.09,2.6-13.94,2.6-13.94,2.06-9.13,4.29-15.83,4.51-16.48,6.57-18.87,91-10.08,106.09-35.05,16.86-28-45.25-111.61-77.57-102.47-27,7.63-2.54,71.49-50.05,129.18C314.54,438.68,263.68,440.45,260.22,477.73Z"/><path class="cls-16" d="M354.13,368.55c-4-12.91-14.87-13.73-26.92-29.16-2-2.54-20.16-25.82-13.45-40.36s34.87-13.88,56.07-13.46c15.06.3,76,1.51,80.73,22.43,3.47,15.43-27.76,23.5-58.31,71.76-5.87,9.28-13.92,22-20.18,40.37-15.86,46.55-.47,71.42-15.7,83-16.37,12.43-50-4.25-67.28-17.94-21.23-16.8-43.17-49.12-33.64-65,13.11-21.92,74.53,6.17,94.19-22.42C355,389.9,357.11,378.1,354.13,368.55Z"/><path class="cls-6" d="M337.43,367.28c10.94-6.93,24.17-1.38,38.12,4.48,12.32,5.18,21.38,9,24.67,17.95,5.68,15.45-8.76,38.15-24.67,40.36-7.83,1.09-15.69-4.5-31.4-15.69-10.67-7.61-16-11.54-17.94-17.95C323.17,386.14,328.23,373.1,337.43,367.28Z"/><path class="cls-8" d="M372.34,767.14c-16.13-10,9.21-61.13-9-74-9.82-7-22.13,3.73-31.4-4.48-10.38-9.21-8.37-34.54,2.24-40.37,12.1-6.65,29.64,15.19,38.13,9,7.61-5.58,4.47-31.16-9-47.1-7.76-9.2-15.21-10.74-15.7-17.94-.59-8.63,9.7-18.85,20.18-20.18,10-1.27,13.9,6.26,21.15,4,8.37-2.65,14.46-16.27,13-28-2.35-18.91-22.79-20.73-25.17-38.77-1.87-14.07,8.25-30.5,17.94-31.4,11.75-1.09,15.76,21.19,31.4,22.43,12.69,1,28-11.88,29.15-24.67,1.27-14.21-15.78-19-15.32-34.59.42-14.24,15.17-28.65,25-27,10.51,1.77,9.69,20.94,22,24,9.48,2.35,22.15-6,26-16,3.1-8.06-1.76-11.87-3.85-31.63-1.53-14.46-2.38-22,2.24-26.92,7.11-7.5,24.76-5.89,35.88,2.25,13.33,9.75,9,22.82,20.73,29.3,11.57,6.38,31.06,2.14,39-9,9.94-13.95-4.51-29.94,5.31-42.73,8.93-11.63,32.41-13.47,40.37-4.49s-4.32,23.68,4.49,35.89C663.72,383.75,679.49,388,690,383c16-7.55,9.67-31.57,25-39,13.54-6.56,36.37,3.5,40,16,2.79,9.63-7.1,16.25-3.64,30.37A29.88,29.88,0,0,0,760,405c11.24,10.07,30.47,9.31,43,2,14.75-8.61,13.4-22.34,22.37-23.36,12.26-1.39,31.17,22.4,26.91,40.37s-28.78,19.12-29.15,33.64C822.84,469,837.59,481.42,848,480c4.19-.57,5.07-3,15-11,12.11-9.72,18.16-14.57,22.92-13.6,9.49,2,18.19,23.89,11.22,38.13S871.78,505.16,868,518.2c-2.7,9.26,3.15,22.28,11.22,24.67,14.45,4.3,27.47-28.07,42.61-24.67,13.59,3.06,23.06,33.65,13.46,44.86-8.3,9.68-26.29-.41-35.89,11.21-5.35,6.47-5.8,16.91-2.24,24.67,4.58,10,14.72,13.16,15.7,13.46,14.33,4.26,22-8.18,33.64-4.49,12.11,3.85,20.75,22.72,15.7,31.4s-20.3.66-38.13,11.21c-15,8.91-23.93,26.32-20.18,31.4,4.3,5.83,22.44-8.37,35.88,0,9.73,6.06,14.24,22.25,9,31.4s-16.09,5.62-29.15,13.45C895.19,741.39,894.5,775.68,890,775c-4.76-.71-.69-38.79-2-84-.74-25.72-2-60.6-13-102-4.62-17.3-12-44-30-75-8.81-15.11-24.27-40.81-54-65a215.59,215.59,0,0,0-64-36,222.74,222.74,0,0,0-76-12c-33,.46-57.21,8-76,14-16.49,5.27-41,13.32-69,32a242.52,242.52,0,0,0-53,48c-8.9,10.92-24.53,32.1-41,74-33.86,86.15-34.83,167.24-27,169,1.76.4,4.56-3.09,6-2,1.95,1.47-3.32,7.74-2,16,1,6.34,5,8,4,11C391.45,767.66,379.1,771.32,372.34,767.14Z"/><path class="cls-8" d="M376.83,731.26C366.53,729.3,252.49,1122,325,1158c18.31,9.08,53-2.39,54.07-11.83.89-7.73-20.5-10.63-35.89-22.43-53.61-41.13,23.61-189.41,33.65-370C377.65,738.88,377.87,731.46,376.83,731.26Z"/><path class="cls-8" d="M365.61,758.17c1.4,1.09,5.21-4.23,9-4.48,13.51-.91,33.78,62.95,46.42,157.31,15.09,112.65,22.88,177.65-16,225-17.64,21.49-44,38.27-41,43,3.12,4.89,35.12-6.94,51-18,102.59-71.42-1.37-435.07-33.69-432C372.92,729.82,362.77,756,365.61,758.17Z"/><path class="cls-8" d="M895.25,715.45c-1.55-.13-6,37.12-7.25,47.55-14.08,117.9-3.35,186-14,319-3.15,39.29-10.13,108.88,0,111,1.71.36,3.73-1.23,6.25-3.21,10.65-8.36,12.85-22.42,13.38-26,8.4-56.53.2-333.93,1.64-423.56C895.34,736,896.4,715.56,895.25,715.45Z"/><path class="cls-8" d="M1037.46,1096.83c3.44-1,14.64-13.64,22.27-26.66l.16-.26s-19.22-16.06-40.88-42.6c-25.45-31.18-35.93-58-55.56-105.42C953.33,897.43,918.9,814.23,918.6,780.6a46.26,46.26,0,0,0-4.49-20.18c-5.45-11.21-16.65-21.66-20.19-20.19C875.44,747.92,1014.91,1103.6,1037.46,1096.83Z"/><path class="cls-6" d="M940.79,342.69c5.06,11.93-2.58,24.07-10.64,36.88C923,390.88,917.8,399.2,908.42,401c-16.16,3.08-36.22-14.87-35.8-30.93.2-7.91,7-14.74,20.61-28.41,9.24-9.29,14-14,20.62-14.78C924.51,325.55,936.55,332.67,940.79,342.69Z"/><path class="cls-8" d="M237.78,538.39c-4.83-11.55-9.3-15.79-12.68-28.71a26.2,26.2,0,0,1-.78-7.18c.19-14.06,6.92-16.52,6.73-31.4-.21-16-8-17.1-9-33.64-.81-14.36,5-15.12,6.72-35.88,1.47-17.75-2.67-18.58,0-31.4,3.17-15.2,9.15-14.8,13.46-31.4s-.95-19.83,4.49-31.4c5.64-12,12-10.06,17.94-22.42s.75-17,6.73-29.16c5.7-11.63,11.4-9.45,17.94-20.18,10.6-17.4-.75-29,9-42.62,8.28-11.56,17.77-4.88,31.4-17.94,14.41-13.81,9.39-26.66,22.42-33.64,11.6-6.21,18.83,2.28,29.16-4.48,11.83-7.74,6.29-21.5,17.94-29.16,10.44-6.86,18,2.14,31.4-4.48,9.31-4.6,7.55-9.85,22.43-24.67C464,67.8,469.38,62.39,477.75,60.68c11.86-2.41,16.06,4.8,31.4,2.25a52.84,52.84,0,0,0,17.94-6.73C542.58,47.35,541.4,38.83,551.76,36c11.2-3,15.77,6.06,26.91,2.25,9.25-3.17,8.37-10.38,17.94-13.46,8.68-2.8,11.8,2,24.67,2.24a32.59,32.59,0,0,0,9.43-.89c4.53-1.17,6-2.71,10.29-4.15a36,36,0,0,1,11.68-1.69c14.19-.34,20,6.36,31.4,6.73,15.44.51,18.07-13.12,31.4-11.21,10.71,1.54,10.14,10.51,22.42,13.46,13.21,3.16,18.38-6.13,31.4-2.25,8.83,2.63,7.36,7.17,17.94,11.22,12.65,4.82,17.2-.72,26.92,4.48,9.36,5,7.07,11.82,15.7,15.7C840.07,63,845.68,54.82,856,59c9.55,3.86,7.16,11.88,18.71,19.63,10.36,6.94,14.75,2.18,24.67,9,11,7.54,7.36,14.4,17.94,22.42,11.75,8.91,18.73,2.34,29.16,11.22,10,8.53,5.59,17.61,15.7,24.67,9,6.28,14.27.51,22.43,6.73,7.92,6,17.3,43.06,13.45,31.39,16.64,2.78,22.56,8.42,24.67,13.46,3.4,8.1-2.71,15.46,2.24,22.43,4.38,6.16,10.92,2.87,15.7,9,6.26,8-1.59,17.84,4.49,24.67,5.19,5.84,12.95,1.07,17.94,6.73,5.7,6.45-2.81,15.58,2.42,25.38,4.82,9,14.4,5.68,20,15,5.28,8.75-1.82,14,2.24,26.91,4.3,13.68,14.06,13.35,15.7,24.67,1.61,11.08-7.36,14-6.73,26.91a18.21,18.21,0,0,0,1.15,5.81c2.81,7.29,7.66,9.38,10.07,18.86a1.72,1.72,0,0,0,0,.18c2.85,11.5-1.29,17.07-1.24,29.11a48.89,48.89,0,0,0,1.2,11.08c2.36,10.7,5.53,11.6,6.72,22.43,1.09,9.89-1.15,15.07-2.24,24.67-1.51,13.3,2.28,12.36.56,25.71-1.35,10.47-3.75,11.59-3,19,.83,8.24,4.18,10.63,3,17-1,5.55-4.09,6.57-7.29,12.3-5.46,9.8-.23,13.48-3.71,26.7-3.87,14.7-11.68,15.17-12.49,28.25-.44,7.08,1.7,9.36-.51,14.75-3.07,7.48-8.69,6.76-12,14-3.7,8.09,1.82,12.28-2,19s-10.15,4-16,11c-6.54,7.79-1,14-7,22-6.26,8.34-14,4-22,13-6.51,7.31-3,11.94-10,19-5.6,5.62-9,3.81-17,10-8.54,6.57-6,9.57-13,15-12.12,9.44-22.25,2.32-31.34,11.62a41,41,0,0,1-10.78,8.3A24.32,24.32,0,0,1,942,780c-13.37,3.19-31,1-31,1s43.53-28.07,51-33c56.6-37.38,91.58-99.78,95-106,36-65.66,37.24-127.28,37.5-157.44.11-12.41-.1-63.06-20.19-123.35a424.11,424.11,0,0,0-20.18-49.34A523.15,523.15,0,0,0,991.33,211C968.67,182.3,942.73,149.52,898,119,843.63,81.9,792.77,69.48,764.82,62.93c-57-13.36-101.74-11.71-112.14-11.22-66.91,3.16-115.77,23-141.29,33.64-40.72,17-69.82,36.12-89.71,49.34s-44.61,29.67-69.53,53.83c-58,56.29-82,120.45-89.7,143.53-24.37,73.25-18.82,134-15.7,163.72C250.28,529.49,257.32,590.23,296,651c32.4,50.9,70.15,74.79,67.37,78-3.79,4.39-67.65-46.43-81.37-68a176.27,176.27,0,0,0-13-19c-6.9-8.72-8.74-8.92-11-14-4.58-10.31-.43-14.8-5-24-4.92-9.91-11.69-8.65-14-17-2.09-7.56,3-10.34,4-22S240.08,543.91,237.78,538.39Z"/></g><g id="bijoux"><path class="cls-11" d="M608,1001c-1.85-.26-3.87-.45-4,0s2.21,1.63,3,2c40.58,19.14,131-37,131-37,49.22-30.56,85-65,79-77-1.38-2.77-6.87-8.11-7-8s2.38,2.94,3,4c5.12,8.76-28.39,44.66-71,71C716,972.06,672.35,993.4,608,1001Z"/><path class="cls-11" d="M454,861c1.6,1.79.21,5.39,0,6-2.47,7.24,8,43.15,43,78,48.6,48.35,104.53,54.87,110,53,.37-.13,2.77-1.07,4,0,1.53,1.33.51,5.11,0,6-4.07,7.15-70.31-4.42-117-50-37.13-36.25-55.15-87.44-48-93C447.52,859.82,452.26,859.05,454,861Z"/><path class="cls-17" d="M591.5,988.5c-1.12-.37-2-3.87,0-6,1.56-1.68,4.35-1.92,5-1C597.6,983.07,593.21,989.07,591.5,988.5Z"/><path class="cls-17" d="M588,995.49c-1.17-.16-2.64-3.45-1.09-5.9,1.23-1.94,3.93-2.68,4.73-1.89C593,989,589.79,995.74,588,995.49Z"/><path class="cls-17" d="M586.15,1002.87c-1.17.11-3.37-2.74-2.43-5.49.74-2.17,3.2-3.52,4.16-2.94C589.53,995.43,587.94,1002.69,586.15,1002.87Z"/><path class="cls-17" d="M585.74,1010c-1.16.22-3.6-2.43-2.92-5.24.55-2.23,2.87-3.8,3.88-3.31C588.44,1002.26,587.51,1009.63,585.74,1010Z"/><path class="cls-17" d="M587.4,1017.28c-1.1.45-4-1.66-3.91-4.56.09-2.29,2-4.29,3.15-4C588.5,1009.19,589.06,1016.6,587.4,1017.28Z"/><path class="cls-17" d="M590,1025.25c-1,.61-4.22-1-4.56-3.91-.26-2.28,1.38-4.55,2.5-4.44C589.82,1017.08,591.51,1024.32,590,1025.25Z"/><path class="cls-17" d="M593.12,1032.23c-.85.82-4.35,0-5.32-2.78-.76-2.17.32-4.75,1.44-4.9C591.15,1024.31,594.41,1031,593.12,1032.23Z"/><path class="cls-17" d="M602.2,977.71c-.46-1.08,1.61-4,4.51-4,2.3.06,4.32,2,4,3.09C610.31,978.72,602.9,979.37,602.2,977.71Z"/><path class="cls-17" d="M598.68,1037.36c-.56,1-4.16,1.27-5.91-1-1.39-1.83-1.14-4.62-.11-5.1C594.4,1030.41,599.54,1035.78,598.68,1037.36Z"/><path class="cls-17" d="M595.94,982.17c-.87-.8-.22-4.34,2.45-5.48,2.11-.9,4.75,0,5,1.12C603.73,979.7,597.27,983.38,595.94,982.17Z"/><path class="cls-17" d="M628,1025c1.16.22,2.48,3.57.82,6-1.31,1.88-4,2.5-4.81,1.67C622.66,1031.18,626.2,1024.63,628,1025Z"/><path class="cls-17" d="M630.46,1017.56c1.18,0,3.1,3.06,1.89,5.7-1,2.09-3.52,3.19-4.43,2.52C626.38,1024.63,628.67,1017.56,630.46,1017.56Z"/><path class="cls-17" d="M630.29,1010c1.15-.27,3.72,2.25,3.17,5.1-.44,2.25-2.69,3.93-3.73,3.48C628,1017.83,628.54,1010.42,630.29,1010Z"/><path class="cls-17" d="M630,1002c1.06-.52,4.12,1.38,4.21,4.28.07,2.29-1.75,4.42-2.86,4.22C629.5,1010.19,628.43,1002.83,630,1002Z"/><path class="cls-17" d="M627.83,993.9c1-.58,4.2,1.12,4.47,4,.21,2.28-1.47,4.52-2.59,4.39C627.8,1002.07,626.27,994.79,627.83,993.9Z"/><path class="cls-17" d="M625,987.52c.87-.81,4.35.12,5.27,2.87.73,2.18-.4,4.75-1.52,4.87C626.88,995.48,623.73,988.74,625,987.52Z"/><path class="cls-17" d="M621.16,982.07c.66-1,4.26-.84,5.77,1.64,1.19,2,.66,4.71-.41,5.08C624.7,989.42,620.14,983.55,621.16,982.07Z"/><path class="cls-17" d="M619.7,1037.77c.69,1-.67,4.3-3.51,4.87-2.25.45-4.66-1-4.64-2.11C611.57,1038.6,618.65,1036.32,619.7,1037.77Z"/><path class="cls-17" d="M615.15,977.55c.41-1.11,3.94-1.83,6,.22,1.62,1.63,1.76,4.42.81,5C620.34,983.85,614.52,979.23,615.15,977.55Z"/><path class="cls-17" d="M624.44,1031.84c1,.67.81,4.27-1.67,5.77-2,1.18-4.72.63-5.08-.43C617.06,1035.36,623,1030.82,624.44,1031.84Z"/><path class="cls-17" d="M609.35,975.52c.08-1.18,3.26-2.87,5.81-1.48,2,1.09,2.94,3.74,2.21,4.59C616.11,980.09,609.22,977.32,609.35,975.52Z"/><path class="cls-17" d="M605.31,1041c-.22,1.16-3.57,2.47-5.94.79-1.88-1.32-2.48-4.06-1.65-4.82C599.13,1035.69,605.65,1039.26,605.31,1041Z"/><path class="cls-17" d="M613.57,1040.21c.29,1.14-2.21,3.74-5.06,3.22-2.26-.41-4-2.63-3.53-3.68C605.71,1038,613.13,1038.46,613.57,1040.21Z"/><ellipse class="cls-18" cx="608.5" cy="1008.5" rx="21.5" ry="31.5"/><path class="cls-19" d="M612,985a8.83,8.83,0,0,1,6,5c.86,1.89.23,2.43,1,6,.48,2.21.85,2.61,2,6,.48,1.41,2.9,8.57,2,9-.62.29-1.8-3.12-5-4-2.41-.67-5,.37-5,1,0,.89,4.83.17,8,3,4.62,4.12,3.41,13.72,2,14s-3.84-7.07-4-7,4.73,6.69,3,12c-2.16,6.6-14.49,10.94-20,7-5.75-4.11-3.74-17-4-17a59.17,59.17,0,0,0,0,6c.14,5.61.19,5.94,0,6-1.16.38-8.86-10.22-6-19,1.65-5.06,6.39-8.61,6-9s-4,3.67-5,3c-1.63-1,2.44-13.94,12-20C608.94,984.5,598,982.3,612,985Z"/><path class="cls-19" d="M620.67,996.32c2-.49,4.74-6.69,2.09-9.73-2.46-2.83-8.5-1.68-9.51.18-.57,1.05,1,2.93,4.13,6.7C619.77,996.34,620.29,996.41,620.67,996.32Z"/><path class="cls-19" d="M608.41,986c-.32-2-6.26-5.28-9.52-2.89-3,2.21-2.38,8.32-.61,9.49,1,.66,3-.75,7-3.56C608.35,986.9,608.47,986.39,608.41,986Z"/><path class="cls-11" d="M620,1009c.4-.15-.58-6.78-5-10-.66-.48-1.82-1.2-2-1s1.38,1.84,3,4C619.1,1006.15,619.73,1009.1,620,1009Z"/><path class="cls-11" d="M593,1005c-.13-.3,5.1-1.63,7.36-6.19a14.84,14.84,0,0,0,1-3,9.83,9.83,0,0,1-2,6C597,1004.76,593.11,1005.25,593,1005Z"/><path class="cls-11" d="M611,1001c-.11.22-1.68-.79-4-1-1.66-.15-3,.18-3,0s1-.24,2-1c1.29-.94,1.5-2.09,2-2s.33.91,1,2C609.84,1000.37,611.09,1000.82,611,1001Z"/><path class="cls-11" d="M593.2,1000.6A5.83,5.83,0,0,0,597,998a16.17,16.17,0,0,1,1-2c.69-1,1.12-1,2-2a5.91,5.91,0,0,0,1.56-2.58c-.12-.09-.83.94-2.56,2.58s-2.39,1.85-3,3a10.67,10.67,0,0,1-1,2A7.5,7.5,0,0,1,593.2,1000.6Z"/><path class="cls-11" d="M615,994.71c-.19.1.86,3.81,2.41,3.93a2.32,2.32,0,0,1,1.1.11,2,2,0,0,1,.84,1,10.88,10.88,0,0,0,1.9,2.1,5.9,5.9,0,0,0,2.5,1.69c.09-.11-.9-.88-2.45-2.69s-1.73-2.48-2.84-3.15a11.22,11.22,0,0,1-1.95-1.1A8.08,8.08,0,0,1,615,994.71Z"/><path class="cls-11" d="M618.5,1018.5c.47.14,4-5.42,2-8-1.09-1.4-3.59-1.64-4-1s1.27,1.58,2,4C619.34,1016.27,618.21,1018.41,618.5,1018.5Z"/><path class="cls-11" d="M592.64,1010.82c-.58.36.61,3.64,2.36,6.18.79,1.15,2.48,3.28,3,3s-.3-3.48-2-6C594.92,1012.4,593.13,1010.52,592.64,1010.82Z"/></g></svg>