<svg xmlns="http://www.w3.org/2000/svg" viewBox="0 0 1242 2208"><defs><style>.cls-1{fill:#999;}.cls-2{fill:#fff;}.cls-3{fill:#ffb6ea;opacity:0.6;}.cls-4{fill:#ffaee8;}.cls-5{fill:#8e0000;}.cls-6{fill:#680000;}.cls-7{fill:#fffbeb;}.cls-8{fill:#d8d5c5;}.cls-9{fill:#490000;}.cls-10{fill:#910606;}</style></defs><g id="bear"><ellipse class="cls-1" cx="632.96" cy="655.14" rx="259.5" ry="283" transform="translate(-92.17 1206.53) rotate(-83.24)"/><path class="cls-1" d="M572.68,420.41c-8.18-46-107.88-87.35-179.2-52.18-53.48,26.37-67.54,84.19-69.12,91.21-10.37,45.78,0,110.9,37.27,127.27,37.83,16.61,85.18-25.29,138.23-70.21C543.36,479.66,578,450.33,572.68,420.41Z"/><path class="cls-1" d="M924.27,658.56c46.56-4,96.63-99.67,68-173.84-21.49-55.62-77.82-74.77-84.67-77-44.68-14.41-110.46-9.92-130.09,25.77-19.92,36.19,17.58,87.1,57.59,143.94C867.88,624.06,894,661.18,924.27,658.56Z"/><path class="cls-1" d="M369,1621c44.76,48.09,99,62.61,161,79,71.72,19,191.54,50.61,276-8,119.06-82.63,97.92-296.16,92-356-13.67-138.11-65.88-155.34-53-273,4.09-37.37,16.17-97.81-17-152-7.68-12.55-22.9-37.92-52-49-50.78-19.33-85.72,26.5-155.5,31.5-83.59,6-113.43-63-156.5-44.5-31.92,13.69-17,57.55-54,172-16,49.42-20.85,48.62-46,118-18,49.59-39.59,109.23-50,163C305.11,1347.94,272.36,1517.17,369,1621Z"/><path class="cls-1" d="M455,868.35c-7.17-7.79-10.68-6.54-82-31.72-51.78-18.27-60.5-22.54-71-29.63-26.3-17.84-43.51-39.93-52-51-14.64-19.08-13-22.23-27.07-42.37-22.35-31.9-39.51-56.7-67.89-65.27-28.18-8.52-65.65-1.58-86.75,21.15-47.38,51,11,156.82,16.53,166.64,20.86,36.83,46.51,58.45,76.29,83.55,23.29,19.64,62.59,52.2,121.62,74,56.12,20.77,124.91,46.24,164.75,10.43C483.25,972,484.5,900.49,455,868.35Z"/><path class="cls-1" d="M1179.48,1074.66c-7.55-7.42-11-6-83.5-27.54-52.63-15.64-61.55-19.46-72.36-26-27.16-16.49-45.46-37.69-54.5-48.31-15.59-18.32-14.07-21.55-29.18-41C916,901.1,897.63,877.2,868.85,870.07c-28.58-7.09-65.64,1.74-85.57,25.5-44.75,53.37,18.86,156.07,24.9,165.59,22.7,35.74,49.4,56,80.41,79.6,24.25,18.44,65.14,49,125.2,67.82,57.09,17.92,127.09,39.89,165.07,2.12C1213,1176.78,1210.6,1105.27,1179.48,1074.66Z"/><path class="cls-1" d="M531.71,1624.88c-31.33-43.45-47-65.18-69.65-77.88-31.56-17.72-81.74-25.46-117.33-4.62-57.68,33.76-55.52,131.68-54.07,195.69C294.36,1901.52,364,2016.24,318,2063c-5.37,5.45-29.08,27-37,61-2.34,10-3.36,21.16,2,31,6.3,11.57,23,22.65,129.75,17.92,59.19-2.62,88.88-4.27,99.39-15.58,27.79-29.88,12.09-95.59,1.21-141.13-4-16.52-11.06-40.69-11.17-75.64a272.44,272.44,0,0,1,3.11-41.19c9.07-62.18,32.26-107.38,52.53-185.61,2.29-8.83,6-24,2.07-42.13C555.34,1650.78,541.73,1638.76,531.71,1624.88Z"/><path class="cls-1" d="M859,2165c-7.79,6.15-30.19,6.77-75,8-57.29,1.58-87.42,2-105-17-13.52-14.61-13.35-33.94-12-69,3.2-83.06,8.84-146.24,9-148,12.23-137.33-106.7-188.38-74-277,23.68-64.16,102.86-83,107.14-84C758.9,1566.9,818,1582.36,855,1621.66c31.8,33.76,31.43,73.41,29.92,130.94a373,373,0,0,1-3.23,40.86,558.56,558.56,0,0,1-20.46,92.27C829.62,1987.64,909.93,2124.78,859,2165Z"/></g><g id="face"><path d="M473.09,653c-9.49-49.66,9.75-90.31,38-99.73,14.27-4.75,30.37-1.39,41.59,6.13,26.16,17.53,34.5,63.41,13.13,110.84A155,155,0,0,1,473.09,653Z"/><circle class="cls-2" cx="534.49" cy="601.86" r="24"/><circle class="cls-2" cx="500.22" cy="631.45" r="19"/><path d="M485.31,581.7c-1.92-4.37-7.38-4.65-12.79-8.47-10-7.1-8.43-21.37-10.64-21.21-2,.16-5.2,11.61-.89,22,4.55,11,16.78,19.15,21.79,16.46C485.32,589.15,486.62,584.7,485.31,581.7Z"/><path d="M507.65,571.74c-2.33-6-12.22-2.91-20.24-10-7.39-6.54-7-16.2-8.38-16-1.57.28-3.4,12.5,2.68,22.41,5.75,9.36,18.14,16,23.41,12.37C507.57,578.89,508.83,574.77,507.65,571.74Z"/><path class="cls-2" d="M535.41,635.47l8.38-8q.59,5.69,1.18,11.36l10.8,5.14L544.92,649q-.81,6-1.61,12-3.94-4.74-7.88-9.49l-11.65,2q3-5.14,5.9-10.3l-5.16-9.94Z"/><path d="M799.72,689c22.93-45.06,15.77-89.46-8.77-106.37-12.39-8.54-28.79-9.79-41.67-5.69-30,9.56-50.77,51.31-43.45,102.81A155,155,0,0,0,799.72,689Z"/><circle class="cls-2" cx="754.98" cy="622.76" r="24"/><circle class="cls-2" cx="779.66" cy="660.72" r="19"/><path d="M807.83,617.09c3.06-3.67,8.38-2.41,14.63-4.58,11.63-4,14-18.18,16.13-17.41,1.87.7,1.76,12.6-5.27,21.4-7.44,9.32-21.45,13.73-25.51,9.75C805.74,624.24,805.73,619.6,807.83,617.09Z"/><path d="M789.14,601.31c3.89-5.08,12.54.59,22.22-4,8.93-4.22,11.21-13.62,12.49-13s-.21,12.95-8.81,20.77c-8.13,7.39-21.86,10.27-25.92,5.37A8,8,0,0,1,789.14,601.31Z"/><path class="cls-2" d="M744.74,654.79q-2.91-5-5.81-10-2.16,5.29-4.3,10.58l-11.8,1.93,9,7.91-1.8,12,10.21-6.92,10.62,5.17q-1.39-5.76-2.8-11.53l7.73-8.11Z"/><ellipse class="cls-3" cx="416.73" cy="681.73" rx="22.51" ry="30.85" transform="translate(-309.34 1015.27) rotate(-83.24)"/><ellipse class="cls-3" cx="839.08" cy="723.2" rx="22.51" ry="30.85" transform="translate(37.23 1487.48) rotate(-84.38)"/><path d="M599.24,719c3-5.09,12.79-4.33,32.14-2.6,21.74,1.94,34.7,3.1,36.62,9.6.71,2.4-.29,4.89-16,22.32-17.86,19.84-20.75,21.27-23.93,21-5.72-.52-10.22-8.3-19-23.84C600.79,730.73,596.69,723.27,599.24,719Z"/><path class="cls-4" d="M627,772.27c-3.59-.24-3.79,10.31-13.86,19.41-5.81,5.26-8.43,4.17-11.38,8.52-4.74,7-3.87,18.61,1.87,26.1,8.86,11.57,28.65,12.46,38.92,2.7,5.13-4.88,8.83-13.31,6.91-20.72-1.82-7-7.08-6.89-13.29-16.6C629.34,781.09,630.21,772.48,627,772.27Z"/><path d="M567.94,804.27a5.31,5.31,0,0,0,.2,5c3.93,5.77,26,1.71,40.65-9.62,18.34-14.23,21.55-37.36,20.52-37.84s-7.4,23.07-26.75,32.08a77.33,77.33,0,0,1-15.79,5.63C577.11,801.46,569.94,800.25,567.94,804.27Z"/><path d="M678.52,816a5.28,5.28,0,0,1-1.28,4.83c-5.08,4.78-25.79-4-37.61-18.18-14.83-17.86-13-41.14-11.85-41.38S630,785.43,647,798.42a77.94,77.94,0,0,0,14.2,8.91C670.18,811.3,677.44,811.68,678.52,816Z"/></g><g id="noeud_gauche" data-name="noeud gauche"><path class="cls-5" d="M414.5,440.5c6.78-7.47,6.78-16.73,8-32,1.8-22.45,5.06-43.2,7-52,7.26-32.92,33.52-68.47,56-67,11.23.73,18,10.48,28,23,49.13,61.57,79.16,68.69,83.57,85.15a19.13,19.13,0,0,1,.43,6.85c-3.59,38-106.63,57.15-123.5,57.5a62.07,62.07,0,0,0-28,7,61.85,61.85,0,0,0-8,10c-5.12,8-7.07,15.1-8.53,20.63-3.23,12.23-6.56,25-10,38.87h0c-10,34.71-21.87,53.85-35,68-4.71,5.07-7.06,7.61-10,9-40,18.91-141.49-87.64-125-117,1.55-2.77,3.76-4.14,7-6,65.27-37.38,126-42,126-42C394.39,449.6,406.45,449.37,414.5,440.5Z"/><path class="cls-6" d="M430,451c20.19-21.06,3.11-40.88,24-97,8.23-22.11,24.39-65.52,53-69,16.64-2,30.5,10.32,47,25,16.23,14.45,52.1,46.37,45,76-8,33.19-66,47.56-96,55-38.45,9.52-48.91,2.95-65,16-21.09,17.09-14.09,37.26-32,85-11.39,30.38-30.58,81.53-63,86-22,3-42-16.54-63-37-20.25-19.77-36.86-36-35-55,3.26-33.41,61.32-53,82-60C385.84,456.13,409,473,430,451Z"/><path class="cls-7" d="M420,470c.81.57-3.35,7.71-7,14-25.57,44.1-20.92,38-28,49-21.2,33.07-48.9,66.4-60,88-.31.61-2,4-2,4s11.87-22.81,24-45c12.52-22.89,20.16-35.61,33-57a331.14,331.14,0,0,1,23-34C408.91,481.37,418.88,469.21,420,470Z"/><path class="cls-7" d="M406,473c-26.1,16.91-27.33,18.24-35,23-29,18-55.92,26.5-108,43-16.87,5.34-17.94,5.17-18,5-.3-.82,19.32-8.25,43-18,85.09-35.05,126.9-60.78,130-63a39.6,39.6,0,0,1,5-3c1.67-.85,4.82-2.3,5-2C428.36,458.6,416.6,466.13,406,473Z"/><path class="cls-5" d="M445,437c44.35-57.11,60.24-156.83,74-154a79.35,79.35,0,0,1,12,5c5.5,2.76,7.3,4.35,13,7,7,3.25,9,3.05,10,4,13.16,12.73-101,139-101,139s-63.66,70.42-178,139c-3.23,1.94-13.3,7.75-19,4-3.54-2.33-2.89-6.69-7-15-4.33-8.75-8.34-10.56-9-13C235.7,537.12,380.16,520.5,445,437Z"/><path class="cls-5" d="M402,486.19c-4.25,6.89-66.77,109.64-77,134.81-.69,1.7-3.16,8-8,9-4.66,1-9.59-3.4-18-11a98.86,98.86,0,0,1-9-9c-14.65-20.54,103.24-123.81,103.24-123.81S577,325.23,596,343c.91.85,2,2,2,2a51.43,51.43,0,0,1,8,11,46.06,46.06,0,0,1,4,11C613,383.2,455.26,400,402,486.19Z"/><path class="cls-6" d="M427.59,427.25c4.83,2.2,3.51,7.42,8.65,16.88,8.71,16.05,21,16.66,21,25.11.06,8.93-13.54,19-21.76,16.48-6.15-1.89-4.7-9.45-13.66-23.2-9.36-14.37-17.45-16.1-16.63-22.75C406.25,431.46,420.12,423.83,427.59,427.25Z"/><path class="cls-7" d="M511.68,286c1,.39-3.66,14.64-6.71,24-5.33,16.28-10.1,27.52-19,48.05-18.17,42.06-25.32,57.58-39,76-2.05,2.76-8.91,12-10,11.31-1.66-1,11.43-23.68,20.58-41.82C491.67,335.85,509.78,285.26,511.68,286Z"/><path class="cls-7" d="M600,378c-.2-.55-6.56,1.27-18.56,4.74-20.13,5.82-33,9.23-49.25,15.64-28.63,11.26-49.5,19.62-73,36.83-7.51,5.49-19,14.54-18.18,15.79,1.08,1.65,22.56-11.58,46-24C548.57,394.37,600.56,379.58,600,378Z"/></g><g id="noeud_droit" data-name="noeud droit"><path class="cls-5" d="M890.89,505.54c6.82,7.43,16.05,8.27,31.14,10.87,22.19,3.82,42.57,8.94,51.16,11.67,32.12,10.21,65.15,39.57,61.66,61.83-1.75,11.12-12.07,17-25.44,25.81-65.77,43.35-75.57,72.62-92.36,75.52a19,19,0,0,1-6.86-.19c-37.54-7-47.27-111.36-46.1-128.19a61.88,61.88,0,0,0-4.44-28.52,61.52,61.52,0,0,0-9.23-8.87c-7.48-5.83-14.4-8.41-19.78-10.37-11.88-4.32-24.32-8.79-37.8-13.44h0c-33.67-13.12-51.66-26.66-64.56-41-4.63-5.14-6.94-7.72-8.06-10.77C705,408.37,820.3,316.89,848.05,336c2.61,1.8,3.79,4.12,5.34,7.52,31.33,68.38,30.43,129.28,30.43,129.28C883.65,484.69,882.78,496.72,890.89,505.54Z"/><path class="cls-6" d="M879,520c19.14,22,40.43,6.79,94.43,32.68,21.27,10.19,63,30.22,63.92,59,.51,16.75-13,29.45-29.15,44.55-15.85,14.85-50.89,47.68-79.76,37.94-32.33-10.92-41.39-70-46.09-100.58-6-39.16,1.49-49-10-66.19-15.12-22.54-35.83-17.4-81.76-39.55-29.22-14.1-78.43-37.83-80-70.52-1-22.18,20.27-40.38,42.55-59.4,21.52-18.38,39.17-33.45,57.94-29.88,33,6.27,47.25,65.86,52.34,87.09C877.92,475.59,859.06,497.08,879,520Z"/><path class="cls-7" d="M861,508.35c-.64.76-7.37-4-13.31-8.23-41.61-29.46-35.91-24.28-46.27-32.32-31-24.11-61.7-54.71-82.21-67.72-.58-.36-3.78-2.38-3.8-2.35s21.64,13.88,42.64,28c21.67,14.54,33.65,23.3,53.79,38a333.87,333.87,0,0,1,31.78,26C850.69,496.28,861.89,507.31,861,508.35Z"/><path class="cls-7" d="M859.29,494.14c-14.49-27.52-15.7-28.87-19.74-36.94-15.28-30.51-21.34-58.09-33.06-111.44-3.79-17.29-3.53-18.34-3.35-18.38.85-.23,6.47,20,14,44.45,27.21,87.91,49.05,131.87,51,135.16a40.44,40.44,0,0,1,2.54,5.26c.69,1.74,1.85,5,1.54,5.16C871.61,517.71,865.17,505.32,859.29,494.14Z"/><path class="cls-5" d="M891.61,536.24c52.87,49.33,150.75,74.17,146.68,87.62a78.56,78.56,0,0,1-6.07,11.5c-3.24,5.23-5,6.88-8.14,12.31-3.87,6.68-3.85,8.71-4.89,9.6-13.87,12-129.3-113.16-129.3-113.16s-64.37-69.77-122.33-189.84c-1.63-3.39-6.51-13.95-2.26-19.28,2.64-3.32,6.92-2.27,15.57-5.62,9.1-3.52,11.27-7.35,13.76-7.79C810.83,318.73,814.32,464.11,891.61,536.24Z"/><path class="cls-5" d="M846.51,489c-6.48-4.86-103.15-76.41-127.29-88.92-1.63-.84-7.69-3.87-8.24-8.78-.53-4.72,4.26-9.24,12.59-16.93a99.12,99.12,0,0,1,9.77-8.15c21.79-12.73,114,114,114,114S991,677.76,971.57,695.12c-.92.82-2.17,1.81-2.17,1.81a51.33,51.33,0,0,1-11.68,7,46,46,0,0,1-11.32,3C930,708.4,927.51,549.79,846.51,489Z"/><path class="cls-6" d="M902.9,519.78c-2.63,4.61-7.71,2.83-17.6,7.08-16.77,7.23-18.48,19.39-26.91,18.68-8.89-.75-17.7-15.21-14.44-23.16,2.45-6,9.84-3.82,24.35-11.51,15.14-8,17.6-15.92,24.16-14.5C900.64,498.14,907,512.64,902.9,519.78Z"/><path class="cls-7" d="M1036,616.3c-.48,1-14.24-5-23.25-8.85-15.74-6.78-26.49-12.55-46.14-23.24-40.25-21.89-55.05-30.42-72.16-45.71-2.56-2.29-11.14-10-10.36-11,1.17-1.56,22.55,13.52,39.79,24.28C988.13,591.86,1036.88,614.48,1036,616.3Z"/><path class="cls-7" d="M936.35,695.94c.57-.15-.67-6.65-3-18.91-4-20.58-6.21-33.65-11.12-50.46-8.62-29.54-15.07-51.08-30.08-76.06-4.79-8-12.76-20.23-14.08-19.52-1.74.92,9.49,23.51,19.74,48C924.7,643.24,934.73,696.36,936.35,695.94Z"/></g><g id="robe"><g id="col"><path class="cls-7" d="M799,898c-4.57-3.9-13.12-3.8-16,0-3.12,4.1,2.67,9.53,0,15-3.85,7.88-22,9.27-25,4-2.56-4.54,7.51-11.7,5-16-3.08-5.27-22.83-2.42-25,5-1.53,5.24,6.67,9.39,5,14-2.41,6.63-22.82,7.37-25,2-1.79-4.39,9.73-10.06,8-15-2.17-6.17-23.55-7.07-27,0-2.6,5.34,6.7,11.77,4,17-3.09,6-19.69,6.1-23,0-2.79-5.14,5.71-11.28,3-17-3.32-7-21-8.22-25-2-3.09,4.84,4.06,11.16,1,16-4.24,6.71-24.09,4.35-26-2-1.46-4.83,8.36-9,7-14-2-7.2-25.29-9.87-29-3-2.66,4.91,6.6,11.22,4,17-3.57,8-26.57,8.33-30,1-2.76-5.89,8.81-13.16,6-19-3.46-7.18-25.91-6.44-29,1-2,4.72,5,9.38,3,13-3.42,6.16-28.63,1.8-30-6-.85-4.82,8-7.67,7-12-1.58-7-27.38-10.7-33-2-2.85,4.41,1.28,9.2-2,13-4.18,4.83-16.6,3.69-20-2-3-5,3.31-9.92,1-16-3.95-10.4-28.87-13-32-7-2.26,4.3,7.39,12.07,5,15-1.52,1.85-7.19.92-9-2-1.25-2,.17-3.65,0-9-.05-1.53-.23-7.51-2-8-2.4-.67-7.06,8.94-8,11-9.75,21.34,4.47,54.43,6,58,29.23,68.39,7.82,87.24,32,113,17.6,18.75,35.2,15.43,151,20,105.29,4.15,126.18,8.29,143-10s3-29.86,24-99c1.68-5.51,2.79-23.34,5-59C803.24,909.1,803.59,901.92,799,898Z"/><path class="cls-8" d="M459.37,930.52c8-4.52,16.35-1.53,33.8,1.49,17.93,3.1,18,4.82,27.66,5.38,17,1,18.95-4.18,35.55-3.2,13.82.82,13.27,4.45,28.9,6.06,17.24,1.78,18.86-2.53,36.12-1.28,18.47,1.34,18.54,6.42,35.5,7.23,16.23.78,16-3.85,36.23-4.44,18.67-.54,20.38,3.36,39.87,2.24,6.45-.37,5-.73,26.6-3.11,23.42-2.58,30.12-2.67,32.4,1.11,1.79,3,.65,7.91-2,10-3.87,3-9-1.58-19-1-5.4.31-5,1.73-14,4-5.86,1.48-12.24,2-25,3-10.6.84-15.89,1.26-20,1-9.39-.59-10.88-2.25-19-2-9.26.29-8.85,2.5-16,2-8.16-.57-10.14-3.23-18-3-5,.15-4.27,1.71-10,2-5.1.26-9.14-.83-17-3-7.14-2-6.68-2.41-10-3-6.78-1.21-8.87.56-17,1s-14.65-.82-26-3c-5.34-1-6.74-1.55-11-2a78,78,0,0,0-16,0c-10.38.87-19,0-30-1-22.71-2.16-19.86-6.83-33-6-4.93.31-15.9,1.64-29,0-2.33-.29-6.41-.89-7-3C452.35,935.67,456.2,932.31,459.37,930.52Z"/><path class="cls-8" d="M464,982c1.75-2.28,5.61-.6,27.46,3.45,7,1.28,8.17,1.51,11.51,2.29,4.82,1.13,7.3,2,10.51,2.49,0,0,2.7.42,5.64.6,9.83.62,27.56-2.32,30.88-2.83,12.89-2,23.17-.38,32,1,18.47,2.88,21.74,7.78,34,6,4.83-.7,8.92-2.13,15.19-.88,4.94,1,6.2,2.46,13.79,4.21a55.48,55.48,0,0,0,10.21,1.31,52.92,52.92,0,0,0,10-.32,95.73,95.73,0,0,0,13.33-2.9c7.88-2,10.28,1.32,28.5,4.58,14.1,2.52,21.31,3.73,29,1,6.41-2.27,6.31-4.55,14-7,5.49-1.75,10.74-1.86,21-2,12-.17,18-.2,19.29,2.44,1.41,3-1.87,8.73-6.29,10.56s-7.41-1.53-14.71-1.56c-5.3,0-6.34,2.06-14,4-5.85,1.48-12.24,2-25,3-10.59.84-15.89,1.26-20,1-9.39-.59-10.88-2.26-19-2-9.26.29-8.85,2.5-16,2-8.16-.57-10.14-3.23-18-3-5,.15-4.27,1.71-10,2-5.1.26-9.14-.83-17-3-7.14-2-6.68-2.41-10-3-6.77-1.21-8.86.55-17,1s-14.65-.82-26-3c-7.53-1.45-7.12-1.58-11-2-9-1-14.29.13-21.29.56-3.28.2-10.42-.39-24.71-1.56-28.91-2.38-27.54-3.28-32.29-2.44-8.31,1.48-16.18,4.9-20,1-.76-.78-1.17-1.85-2-4C464.24,990.42,462,984.6,464,982Z"/><path class="cls-8" d="M472,1031c.91-1,2.21-1.12,18.46,2.45,7.2,1.58,10.8,2.37,11.54,2.55a98.63,98.63,0,0,0,10.48,2.23c2.57.37,4.54.52,5.64.6,25.4,1.85,39.88,2.17,39.88,2.17,20.32.45,19.42-.25,24.57.69,10.76,2,12.45,4.6,22.43,5.31,5.74.41,4.18-.54,21-1,8.92-.25,13.48-.36,18,.33a79.42,79.42,0,0,0,10.21,1.31,52.92,52.92,0,0,0,10-.32c6.84-1,8.83-2.11,13.33-2.9,10-1.75,11,3,23.5,2.58,8.71-.28,9-2.6,17-2,4.66.35,7.36,1.34,13,1a46.77,46.77,0,0,0,9.76-1.75c12.19-3,13.18-.18,28.24-2.25,6.54-.9,8.83-1.69,11,0,3.73,2.9,4.07,10.69,1,13-2.27,1.71-5.12-.55-12-2a51.84,51.84,0,0,0-20,0c-9.41,1.56-9.4,4.36-19.71,6.44-7,1.42-12.6,1.24-20,1a147.49,147.49,0,0,1-19-2c-8.5-1.43-7.41-2-12.29-2.44-8.86-.86-16.62.51-21.71,1.44-6.81,1.24-6.37,1.85-10,2-5.27.21-9.57-1-17-3-7.14-2-6.68-2.41-10-3-6.77-1.21-8.86.55-17,1s-14.65-.82-26-3c-8.81-1.69-7.17-1.55-11-2-11.61-1.36-16.16.65-28.29.56-2.43,0-.56-.09-17.71-1.56-17.87-1.54-26.87-2.29-30.29-1.44-6.32,1.57-12.47,4.7-15,2-.68-.72-.8-1.55-1-3C471.73,1036.63,471.11,1031.92,472,1031Z"/><path class="cls-5" d="M626,949c24.18-18,27.89-17.85,30-17,9,3.66,11.73,29.62,3,35-14.34,8.83-52.09-42.45-65-34-7.75,5.08-3.94,30,5,33C603.48,967.51,607.35,962.89,626,949Z"/><path class="cls-5" d="M628.38,1000c24.17-18,27.89-17.85,30-17,9,3.66,11.72,29.62,3,35-14.35,8.83-52.09-42.45-65-34-7.76,5.07-3.94,30,5,33C605.85,1018.53,609.73,1013.91,628.38,1000Z"/><path class="cls-5" d="M628.38,1052c24.17-18,27.89-17.85,30-17,9,3.66,11.72,29.62,3,35-14.35,8.83-52.09-42.45-65-34-7.76,5.07-3.94,30,5,33C605.85,1070.53,609.73,1065.91,628.38,1052Z"/></g><path class="cls-7" d="M151,1695c-15.75,1.78-29.52,33.8-23,42,2.87,3.62,7.8.22,13,4,12.24,8.9-1.52,37.49,10,46,6.31,4.66,13.29-1.53,20,4s1.42,14.62,8,21c7.43,7.2,18.63,0,25,7,6,6.63-.43,16.91,5,21,6.2,4.67,17.29-6.71,25-2,7.19,4.39,2.32,17.23,9,21,7.73,4.37,18.08-10.7,29-7,10.1,3.42,8.62,18.8,18,21s15.68-11.56,24-9,5.69,17,15,21c8.35,3.6,14-6.47,25-4,12.29,2.76,14,17.36,23,17,8.1-.33,9.53-12.36,18-13,9.28-.7,11.27,13.46,23,16,14.05,3,21.77-15,36-12,11.86,2.47,13.62,16.47,23,16,9.77-.49,12-15.88,21-16,9.93-.14,12.14,18.41,24,20s18.62-15.62,29-13c8.62,2.18,7.69,15,16,17,10.73,2.57,18.15-17.43,31-16,11.17,1.24,13.35,17.24,23,17,10.25-.26,13.64-18.46,23-18,8.59.42,10.84,16,19,16,7.93,0,9-14.76,19-17,11.7-2.62,19.43,15.56,31,13,10.26-2.27,10.46-17.93,20-19,9.34-1,14,13.41,23,12,8.2-1.29,7.49-13.83,17-17,10.39-3.47,17,9.61,30,7,9.75-2,9.56-10.64,19-12,10.91-1.57,15.57,9.14,25,7,8.52-1.94,6.83-11.16,16-16,14.14-7.47,28.58,8.87,42,1,7-4.09,4.16-9.33,12-14,11.81-7,22.9,2,31-5,5.81-5.06,1.35-10.83,7-17,9.3-10.16,27-.73,34-10,4.7-6.27-1.24-11.85,3-19,7.89-13.29,34.25-2.1,44-15,8.12-10.74,1.09-33.37-7-35-5.44-1.1-11.22,7.31-14,11-11.51,15.29-35.34,25.52-83,46-41.28,17.74-72,30.94-116,41-10.62,2.43-38.74,8.5-110,13-48.26,3-96,6.06-161,3-104.25-4.91-175-21.76-239-37-31.95-7.61-42.24-11.22-54-18C183,1775.23,177.13,1692.05,151,1695Z"/><path class="cls-5" d="M447,865c-17.24-36.42-57.06-49.9-81-58-25.34-8.58-48.82-16.52-72-6-15.72,7.13-23.27,19.13-36,40-15.34,25.15-48.12,78.9-35,145,3.23,16.28,4.85,24.43,11,33,29.44,41,97.3,14.07,125,45,26.65,29.75-.28,94.73-9,115-164.71,382.61-222.31,459-201,531,61.35,207.26,668.66,207,853,79,12.62-8.76,18.74-15,23-20,29-34.09,55.42-110.8-135-552-18.84-43.65-9.23-148-54-132-2.3.82,7.16,62.78,46,79,19.56,8.17,38.89,1.52,43,0,30.55-11.32,43.16-44.6,60-91,14.2-39.15,21.31-58.73,20-76-5.47-72.33-89.25-137.21-157-132-9.54.73-29.87,2.3-44,17-13.77,14.33-13,32.16-14,84-1.57,81.7-4.6,96.44-16,105-5.63,4.23-9.87,4.38-51,4-61.93-.57-72.75-1.09-94-1-42,.18-45.87,2.42-76,1-49.94-2.35-56.73-2.6-63-7-19.67-13.79-23-40.55-28-80-3.93-31.29-.12-41.25-6-81C452.7,884.7,451.05,873.56,447,865Z"/><path class="cls-6" d="M247,1738a36.94,36.94,0,0,1,4,11c3,15.72-5.52,28.52-8,32-1.94-2.28-5-5.82-9-10-7.24-7.61-8.78-8-10-11-3-7.33-2.31-19.74,6-24C237.56,1732.13,246.35,1737.58,247,1738Z"/><path class="cls-6" d="M393,1523c4.1-.27,3.86,18.34,17,41,12.66,21.83,29.81,33.76,28,36s-14.94-12.42-33-11c-14.72,1.16-22.91,12.18-27,9-3.34-2.6.36-11.32,4-24C391.16,1542.05,388.86,1523.27,393,1523Z"/><path class="cls-6" d="M378,1528c1.23,1.51-11,11-25.31,33.8C346,1572.49,337,1589,337,1589h0s-25.8-2.45-27.45-9.34c-1-4.2,8.33-9.32,18.45-15.66C358.34,1545,377,1526.73,378,1528Z"/><path class="cls-6" d="M610,1772c1.67,0,2.87,3.12,8,21,3.17,11,4.77,16.66,6,22,1.88,8.17,3.14,15.31,4,21a49.18,49.18,0,0,1-12.22-2.13c-8.34-2.59-10.44-5.76-17.27-6.39s-8.7,2.1-10.51.52c-4-3.53,6.52-16.38,16-44C606.28,1777.37,607.78,1772,610,1772Z"/><path class="cls-6" d="M301,1630c5.84,1.24,5.18,24.49,5,31-.37,13.08-2.95,36.06-10,37-2.48.33-3-2.47-9-6-10.28-6-16.65-3-19-7-2.49-4.19,3-10.61,13-26C295.2,1637.1,297.51,1629.26,301,1630Z"/><path class="cls-6" d="M399,1645c5.76,1.53,7.9,9.88,12.18,26.6,2.28,8.87,8.66,33.76,2.82,36.4-4.65,2.11-9.86-13.2-25-17-17.17-4.3-31.67,10.07-35,6-3.11-3.79,8.31-17.77,16.18-27.4C383.76,1653,391.84,1643.1,399,1645Z"/><path class="cls-6" d="M488,1656c3.58-2.78,13.92,5.16,15,6,7.32,5.7,11,12.55,18,26,6.64,12.72,11.36,21.84,13,25a45.3,45.3,0,0,0-6.83-4.5c-16.6-8.87-29.53-2.26-35.17-9.5-2.71-3.48.13-5.2-.93-18.29C489.82,1665.2,485.08,1658.27,488,1656Z"/><path class="cls-6" d="M314,1768c9.1,1.4,11.72-1.09,16,1,5,2.45,6.72,8.47,8,13,3.15,11.15,0,21.14-2,26a78.51,78.51,0,0,0-17-13c-5.08-2.87-8.31-4.65-13-5-7-.53-9.84,2.7-12,1-4.49-3.55.9-22.91,10-25C306.82,1765.35,307.35,1767,314,1768Z"/><path class="cls-6" d="M398,1758c.75.06,2.11.57,7,14,4.55,12.49,4.69,15.69,8,25,4.83,13.6,8.93,19.24,7,20.89-2.09,1.82-7.06-4.92-17.28-6.39-11.83-1.7-16.79,5-21.2,1.82-1.73-1.27-2.92-4.58,2.38-23.22C388.59,1773.72,393.18,1757.61,398,1758Z"/><path class="cls-6" d="M500,1759c7.62-1.71,19.42,29.1,24.27,46.75,3.1,11.26,3.71,18.38.73,20.25-3.84,2.41-9.74-6.33-22-6.75-9-.32-13.21,4.18-16,1.75-3.35-2.91.48-11.2,4-23C499,1771.37,495.41,1760,500,1759Z"/><path class="cls-6" d="M710,1782c1.33-.21,3.27.94,10,13,5,9,8.55,16.18,8.85,16.79,2.6,5.29,6.59,12.92,12.24,22a59.65,59.65,0,0,1-16.22-2.13c-2.53-.7-3.35-1-17.27-6.39-11.4-4.42-11.33-4.79-11.6-5.29-2.62-4.77,3.93-9.4,9-25C707.66,1786.8,707.71,1782.36,710,1782Z"/><path class="cls-6" d="M294,801c9.07,12.86-11.47,34.8-34,79-13.83,27.13-45.34,89-32,123,1.38,3.51,5.18,11.7,2,15-4.31,4.49-20.74-.83-23-9-1-3.54,1.35-5.27,0-10-1.59-5.55-5.56-5.86-6-10-.51-4.81,4.73-5.75,6-12,1.48-7.25-4.76-10-3-16,1.89-6.41,9.95-6.09,11-12,.94-5.29-5.13-7.72-4-13,1-4.81,6.36-4.18,9-10s-1.62-8.74,1-15c2.36-5.64,6.48-4.84,8-10,1.72-5.86-3.06-8.77-1-14,1.76-4.47,5.66-3.4,8-8,3.15-6.2-2.29-11.41,1-16,2.62-3.65,6.76-1.29,10-5,4.06-4.65-.84-10.17,3-17,2.85-5.07,6.33-3.4,10-9,4.2-6.42.88-10.5,5-15s8.73-1.85,12-6c4.51-5.73-1.22-14.61,2-17C281.86,791.88,290.39,795.88,294,801Z"/><path class="cls-6" d="M920,1166c.48-1.62,3.94-1.87,5-2,21.4-2.6,47-64,47-64,24.42-58.58,40.76-97.78,28.37-124.43-1.66-3.56-5.82-11.18-2.87-14.85,4.73-5.9,26.24.36,27.5,8.28.52,3.28-2.87,4.07-3.43,9.34-.81,7.51,5.61,10.15,4.43,16.66-.92,5.09-5.09,4.84-6,10-1.15,6.5,5.08,9,4,15s-7.4,5.63-9,12,4.2,9.8,2,15c-2.13,5-8.53,4.08-10,9-1.28,4.28,3.16,6.38,2,11-1.23,4.86-6.58,4.27-9,10-1.92,4.54.93,6.14-1,11-2.17,5.49-6.37,4.9-8,10-1.56,4.9,1.84,6.92,0,11-2.07,4.58-7,3.46-9,8-1.9,4.31,1.88,6.86,0,11-2.1,4.63-7.61,3.24-10,8-2.18,4.34,1.4,7.5-1,11s-6.91,1.37-10,5c-3.44,4,.16,9-3,12-3.52,3.3-9.89-1.16-13,2s1.51,9.56-1,12C939.68,1182.19,918.72,1170.36,920,1166Z"/><path class="cls-6" d="M276,1628c32.46,7.5,46.88-8.74,68,1,12.16,5.61,10.58,12.47,22,15,16.21,3.6,22.55-9.52,40-8,17.92,1.56,18.29,16,36,18,19.92,2.25,26.86-15.2,44-11,12.3,3,10.63,12.47,28,20,5.07,2.2,20.32,8.81,34,3,12.06-5.12,11.46-14.08,21-17,18.2-5.58,37.56,22.48,42,19s-5.5-37.1-30-47c-15.93-6.44-23.21,3.18-51-2-19.79-3.69-19.54-9.21-35-10-23.24-1.19-27.3,11.09-45,8-19.54-3.41-20.91-19.48-39-21-16.74-1.4-18.24,12.12-37,14-24.21,2.42-31.37-19.13-65-20a59.92,59.92,0,0,0-24,4c-13.22,5.24-27.81,16.94-26,25C260.17,1624.24,269,1626.38,276,1628Z"/><path class="cls-6" d="M756,1776c-5.1,5.31-15.86-6.47-38-5-23.91,1.59-28.71,16.48-47,15-19.92-1.62-20.36-19.8-40-24-27.82-6-39.89,27.75-70,25-27-2.46-29.16-30.56-59-34-24.37-2.81-28.69,15.26-57,15-31.52-.29-35-22.78-66-24-33.12-1.31-41.7,23.94-68,18-25.28-5.71-25.55-30.71-50-35-28-4.92-49.71,25.09-58,18-6.42-5.49-.91-27.12,12-40,15.81-15.78,38.6-14.29,43-14,33.11,2.16,38.52,28.17,66,28,23.94-.15,26-19.92,51-21,28.78-1.25,33.66,24.69,66,28s40.3-21.36,69-16c31.11,5.81,34.51,37.18,60,37,24.21-.17,30.38-28.26,55-27,20.58,1,22.54,21,45,24,26.64,3.51,38.06-22.75,59-17C750.78,1733,763.44,1768.24,756,1776Z"/><path class="cls-6" d="M862,1824c-15.74-4-18.36-9.56-34-11-16.26-1.49-29.32,3.11-40,7-25.37,9.24-22.82,16.32-39,21-30.53,8.82-44.26-15.07-78-6-16.72,4.5-16.46,11.2-31,12-20.67,1.14-27.22-12.07-48-11-17.48.9-17.21,10.67-34,12-25.39,2-31.06-18.66-57-20-27.1-1.4-31.87,20.58-56,17s-28.67-26.1-50-25c-17.71.92-19.91,16.94-36,17-21.53.08-24.42-28.6-52-36-23.71-6.36-34.56,11.34-54,2-7.11-3.42-6.43-6.16-29-35-20.58-26.3-26.9-31.23-35-32-8.77-.83-19.68,3.72-22,11-2.83,8.89,8.83,16.58,35,45,22.37,24.29,26.21,31,31.88,35.11A32.61,32.61,0,0,0,239,1830c22.27,11.61,39.92,7.8,58,11,32,5.67,29.05,26.87,58,29,18.8,1.38,22.35-7.3,44-5,19.34,2.06,20.61,9.63,40,14,28,6.3,32.77-7.76,66-5,27.22,2.26,29.64,12.17,55,11,18.47-.85,17.94-6.14,39-8,26-2.3,30.08,5.44,57,4,22.56-1.2,20.75-6.69,43-8,30.22-1.78,33.69,8.33,58,5,20.16-2.76,20.22-10,47-16,21.62-4.81,26.17-1.08,45-4,40.13-6.21,71-31.1,69-36C916.35,1817.9,893.39,1831.87,862,1824Z"/><path class="cls-6" d="M390,1378c-4.32.09-8.81-10.49-9.73-19.43-1.59-15.4,7.24-27.8,11.73-34.57,14.25-21.51,23.24-50,41.2-106.93,8.6-27.25,8.68-34.24,9.8-34.07,5.34.8-35.4,152.94-45.57,183.65C396.08,1370.73,393.53,1377.93,390,1378Z"/><path class="cls-6" d="M579.09,1190.34c.08,0-.05.12.4,9,5.66,111,11.24,220.32,46.51,336.63,12.36,40.75,27.62,79.93,23,82-4.17,1.86-22-27.55-29-39a395.56,395.56,0,0,1-20-37C570.72,1478,575.43,1190.05,579.09,1190.34Z"/><path class="cls-6" d="M686.88,1179.21c-.47.11.82,7.22,1.14,9,0,0,19.66,110,42.11,228.06,17.62,92.65,53.71,182.56,58.87,276.73.42,7.66,1.54,34.89,20,49,9.2,7,23.61,11.5,30,6,8.65-7.43-.16-30.68-4-41-37.94-102-78.13-254.87-90-300-3.06-11.62-.73-3.44-14.62-59.79C719.46,1302.93,688.84,1178.75,686.88,1179.21Z"/><path class="cls-6" d="M845.9,1159.21c-.51.13.68,6.52,1.15,9,34.75,185,43,219.79,43,219.79,23.11,98,34.66,147,40,179,16.19,97.21,20.59,180.25,56,191,4.06,1.23,24.83,6.47,31-2,3.55-4.87.91-12.38,0-15-6.82-19.69-39.55-128.46-105-346-.51-1.68-8.67-31.46-25-91C860.82,1208.55,847.34,1158.85,845.9,1159.21Z"/><path class="cls-6" d="M174,1661c-15.55-9.93,64.54-145,133-323,22.09-57.46,38.86-108.69,41-108s-11.11,53.71-29.43,108.92C268.6,1489.55,194.72,1615.37,194,1643c-.05,2,.06,11.42-6,16C183.56,1662.35,176.49,1662.59,174,1661Z"/><path class="cls-9" d="M390,1444c-5-.61-13,53.66-39,83a233.21,233.21,0,0,1-17,17,221.23,221.23,0,0,1-26.38,20c-10,6.49-13.42,7.08-20,11.64-25.4,17.62-39.89,38.21-51,54-24.32,34.55-12.69,47.17-33,64-15.06,12.48-32.85,16.41-39,35a46.32,46.32,0,0,0-2,16c.18,10.82,3.55,31.64,15,37,15.77,7.38,40.59-17.51,44-21,27.34-28,20.43-50.55,44-99A279.5,279.5,0,0,1,311,1595c35.28-37.8,53.8-33.89,71-63C405.56,1492.12,394.57,1444.55,390,1444Z"/><path class="cls-6" d="M396,1439c-2.22-16.58-9.15-31.47-12-31-3.12.52,1.15,19-6,44a115.24,115.24,0,0,1-17,35c-7.27,10.08-14.46,16.39-38,34-38.44,28.76-34.27,23.18-44,32-20.78,18.83-33.51,38.6-46,58-6.94,10.77-10.11,16.27-12.79,22.77-7.65,18.56-5.13,28.73-20.21,41.23s-32.85,16.41-39,35a46.32,46.32,0,0,0-2,16c.18,10.82,3.55,31.64,15,37,15.77,7.38,40.59-17.51,44-21,25.3-25.89,20.23-46.28,44-99,11.79-26.15,19.81-43.93,37-63,29.22-32.41,44.1-24.22,69-55C373.36,1518.37,401.75,1482,396,1439Z"/><path class="cls-9" d="M391,1430c4.45-1.1,8.56,64.3,57.56,94.83,13,8.09,13.36,4.77,53.44,19.11,42.44,15.18,63.66,22.77,81.52,40.85,24.94,25.24,10.23,37.37,36.88,66.76,26.2,28.89,64,43.13,74.89,47.26,25,9.41,29.65,6,40.78,14.9,25.55,20.49,11.64,47.29,31.53,70.28,24.11,27.85,77.56,28.29,112,26.65C934,1808,966.38,1787.1,970,1794s-25.63,32.08-57,47a178.93,178.93,0,0,1-64,17c-38.77,2.42-105.62-6.94-125.42-44-1.38-2.59-15-27.1-27.52-44.26A70.79,70.79,0,0,0,683.77,1757c-26.58-22-42.28-12.54-70.61-28.77-46.62-26.71-30.39-67.47-76.31-106.65-40-34.13-63.19-14.09-101-47.71C379.56,1523.71,385.8,1431.28,391,1430Z"/><path class="cls-6" d="M390,1406c3-1.13,14.16,61.18,68,100,28.13,20.28,53,28,53,28,51.62,22.47,63.38,14.9,85,33,27.21,22.78,13.7,36.24,43,63,28.8,26.29,67.72,36.92,79,40,25.73,7,30.08,3.16,42,11,27.36,18,16,46,38,67,19,18.2,38.4,7.62,114,16,42.56,4.72,82,9.09,84,22,2.07,13.38-36.76,31.72-66,39-31.85,7.93-58,4.16-72,2-16.69-2.58-63.44-9.79-101-45-25.72-24.11-20.26-36.15-45-53-28.53-19.43-43.27-8.51-73-22-44.58-20.23-37.07-54.84-86-99-41.73-37.66-57.92-21.13-98-57C392.31,1494.91,386.47,1407.32,390,1406Z"/><path class="cls-7" d="M373,1336c-4-2.48-3-6.82-7-9-3.64-2-5.86.84-9-1-4.56-2.67-1.43-9.56-6.08-13.58-4.35-3.76-8.34-.85-13.44-4-4.83-3-3.78-5.84-8.26-8-4.85-2.33-6.8.66-13.44-1-7.28-1.82-7.78-6.12-13.43-6-3.36.07-4.59,1.62-7,2a14.21,14.21,0,0,1-2.34,0c-6.64-.19-7.54-1.11-10-.42a12.55,12.55,0,0,0-5,3c-2.14,1.93-2.15,3.1-4,4-2.25,1.09-3.26-.13-5,1-1.5,1-1,2-3,5-1.86,2.75-2.78,2.55-3,4-.37,2.4,1.74,3.43,1.39,5.85-.23,1.57-1,2-1.32,4.35a8.61,8.61,0,0,0,0,2.22,10.06,10.06,0,0,0,.58,2.44c.84,2.23,1.85,2.55,2.24,4.45A6.77,6.77,0,0,1,266,1333c-.16,5.66-.24,8.5,0,10,.53,3.36,1.78,2.54,3,7,.24.88.31,1.33,1,8,.58,5.61.62,6,1,7,1.28,3.2,2.73,3,4,6,1.34,3.2,0,4.07,1,8,1.12,4.34,2.94,4,4,8,.77,2.91-.22,3,0,10,.13,4,.21,6.08,1,8,1.14,2.77,3,3.55,3,6,0,1.86-1,2-1,4-.06,2.88,1.94,3.36,2,6,.06,2.84-2.24,3.4-2,6s2.37,2.25,3,5-1.07,5.29-1,9c.06,3.16,1.07,2.93,2,8,1,5.53-.21,5.72,1,9a16.48,16.48,0,0,0,6.64,7.81,7,7,0,0,0,1.5.61,5.79,5.79,0,0,0,1.57.16A8.42,8.42,0,0,0,300,1466c2.06-.39,3.12,4.21,6,5s3.89-2.89,8-3c3.87-.11,5.52,3.06,8,2,1.67-.71,1.13-2.23,3-4,3-2.82,5.95-.51,10-3,3.16-1.94,2.38-4,6-6,2.87-1.61,3.7-.51,6-2,3.47-2.25,2.32-5.21,5.68-8.2,3.2-2.86,5.16-1,8.32-3.8,2.76-2.48,1.59-4.21,5-9,2.57-3.61,3.86-3.51,5-6,2-4.41,0-9.25-.45-10.58C364.48,1399,391.29,1342.61,382,1337,379.69,1335.6,376.83,1338.38,373,1336Z"/><path class="cls-7" d="M396,1337c2.39-1.41.75-5.31,3-8,2.59-3.09,6.8-.2,10-3,4.07-3.55,0-9.89,4-14,3.27-3.39,7.09-.23,13-4,4.67-3,3.66-5.84,8-8,4.69-2.34,6.57.66,13-1,7.05-1.82,7.53-6.12,13-6,4.16.09,4.94,2.6,9,2,3.84-.57,4.44-3,8-3,3.32,0,5.93,2.12,7,3,2.78,2.27,2.13,3.52,5,6,3,2.61,4.51,1.87,6,4,1.37,2,.59,3.28,1,8,.59,6.82,2.46,6.92,2,11-.53,4.66-3,4.93-3,9,0,4.35,2.86,4.78,3,9,.16,5-3.84,5.77-4,11-.14,4.67,3,5,3,10s-2.49,5.23-3,11c-.54,6.1,2.32,7.25,1,12-1.2,4.33-3.88,4.47-4,8-.14,4.13,3.64,5.29,3,9-.58,3.37-3.51,3.55-4,7s2.43,4.51,2,8c-.45,3.71-3.92,3.81-5,8-1,3.74,1.45,4.64,1,9a7.91,7.91,0,0,1-.61,2.42c-1.66,3.77-3.19,5.44-4.39,7.58-3.05,5.44,1.16,9.32-2,13-1.09,1.27-1.46.65-6,3-6,3.08-6.11,4.54-9,5-3.53.56-3.85-1.45-9-2-5.53-.59-6.46,1.9-11,1-4.25-.84-3.89-3.12-9-5-6.08-2.24-8.12.43-12-2s-2.5-5.66-7-9c-4-3-5.84-1.16-9-4-4-3.62-1.93-7.46-6-11-3.29-2.86-6-1.52-8-4-3.07-3.86.25-11.22,1-13,9.89-23.61-10.8-77.75-4-80C393.14,1336.62,394.44,1337.92,396,1337Z"/><path class="cls-7" d="M403,1349c.6-.86,2-2.77,4-3,3.08-.36,5.64,3.81,7,6,1.61,2.59,4.16,6.71,3,11-1.12,4.13-4.53,4.17-5,8-.4,3.26,2,3.89,2,8s-2.36,4.62-2,8c.41,3.86,3.56,4,4,8,.17,1.55-.35,1.12-2,8-.77,3.2-.9,4.34-2,5-1.42.85-3.45.37-5,0-2.44-.58-3.09-1.43-4-1-1.44.68-.74,3.28-2,4-1.41.8-3.79-1.58-6-3-6.12-3.92-14.54-2.68-19-1-7,2.64-9,8.15-12,7-1.21-.46-2.14-3-4-8-1.55-4.19-2.32-6.32-2-8,.69-3.59,3.52-3.65,4-7s-2.29-4.06-2-8c.23-3.17,2.09-3.63,2-7-.06-2.3-.93-2.42-1-5-.08-2.86,1-3.09,1-6,0-2.28-.62-2.4-1-6-.27-2.55-.4-3.83,0-5,1-3,5.1-5.74,8-5,4.64,1.18,2.37,10.14,8,14,7.09,4.86,22.39-1.34,24-8C401.31,1353.7,401.31,1351.45,403,1349Z"/><path class="cls-9" d="M391.45,1344.1c16.27-3.41,13.57-22,38.91-36.14,17.5-9.75,45.07-15.52,57.78-3.42,8.33,7.93,6.25,19.69,2.26,54.53-9.25,80.81-6.61,92.7-18.15,98.83-17.42,9.27-47-5.34-63-22.3-18.76-19.92-18.88-43.31-27.27-43.16-9.69.18-7.78,31.27-31.62,53.4-11.74,10.89-34.43,24-49.21,16.63-17.49-8.7-4.43-36.37-21.5-95.41-8.67-30-18.2-44.19-10.19-55.66,9.54-13.67,35.28-11,40.79-10.23C353.9,1306.87,366.49,1349.34,391.45,1344.1Z"/><path class="cls-6" d="M389.66,1347.81c14.36-3,12-19.38,34.34-31.81,15.44-8.58,39.78-13.65,51-3,7.35,7,5.51,17.33,2,48-8.15,71.14-5.82,81.6-16,87-15.38,8.16-41.51-4.71-55.59-19.64-16.56-17.54-16.68-38.13-24.08-38-8.55.16-6.87,27.53-27.9,47C343.07,1447,323,1458.48,310,1452c-15.44-7.67-3.92-32-19-84-7.65-26.37-16.07-38.9-9-49,8.42-12,31.14-9.64,36-9C356.51,1315,367.63,1352.42,389.66,1347.81Z"/><path class="cls-9" d="M363.25,1349.94c9.73-12.42,45.6-11.41,52.67,0,4.08,6.58-4.68,11.37-5.27,28.13s7.81,21.65,3.52,28.89c-7.5,12.65-43.38,15.11-52.68,3.81-4.86-5.91,1.39-10.91,1.76-31.94C363.58,1359.92,358.66,1355.79,363.25,1349.94Z"/><path class="cls-6" d="M368.67,1354.49c7.48-10.41,35.07-9.56,40.5,0,3.14,5.51-3.6,9.53-4.05,23.57s6,18.13,2.7,24.21c-5.77,10.6-33.36,12.65-40.5,3.18-3.74-5,1.07-9.13,1.35-26.75C368.92,1362.85,365.14,1359.39,368.67,1354.49Z"/><path class="cls-6" d="M301,825c.47-3,32.15-5.19,64,6,43.87,15.41,71.2,50.19,69,53-2,2.52-27-21.64-77-41C323.61,830.08,300.6,827.62,301,825Z"/><path class="cls-6" d="M281,925c.28-.84,1.95-.91,14.36-.25,13.68.74,33.17,1.78,48.64,5.25,35.6,8,72.77,34,70,41-1.76,4.48-26.22-2.66-48-9C322.54,949.36,279.46,929.69,281,925Z"/><path class="cls-6" d="M240,989c5.28-4.57,20.23,14.92,56,30,9.53,4,41.31,17.42,82,17,19.08-.2,36.15-3.39,37,0,.8,3.19-13.47,9.45-17,11-5.05,2.21-14.82,6.5-25,7-14.94.73-23.4-7-36-13-36.39-17.2-57,4.58-80-13C241.11,1015.83,235.11,993.23,240,989Z"/><path class="cls-6" d="M830.89,906.94c0-3.07,31.08-9.71,64.2-3.18,45.62,9,77.62,39.55,75.85,42.64-1.59,2.78-29.78-17.57-82.06-29.62C854,908.74,830.86,909.59,830.89,906.94Z"/><path class="cls-6" d="M822,990c6.43-11.28,155.94,52.29,152,65-2.34,7.53-60.35,3-109-27C846.85,1016.79,819,995.24,822,990Z"/><path class="cls-6" d="M796,1057c3.75-3.1,25.18,20.51,63,51,44.14,35.58,64.39,43.26,63,46-2.59,5.1-76.42-14.07-114-70C801.29,1074,793.3,1059.23,796,1057Z"/></g><g id="Calque_6" data-name="Calque 6"><path class="cls-7" d="M219,701.81c-11.88-23,6.21-45.73-2.85-53-6.84-5.48-23.19,2.7-30.37,7.44-9.63,6.36-8.15,10.11-18,17.66-14.32,11-21.08,5.89-33.21,15.81s-7.46,16.72-19,25.1c-13.6,9.88-22.88,2.42-33.22,12.08-10,9.3-4.67,19.3-15.18,27-8.37,6.1-14.12.89-22.78,7.44-8.14,6.15-13.12,18.19-9.5,25.19,2.28,4.41,5.94,2.87,13.54,9,3.45,2.78,6.86,7.59,13.54,17.1,6,8.48,8.93,12.72,9.93,15.31,2.16,5.63,1.52,7.79,4.51,21.6,1.53,7.08,2.32,10.63,3.61,11.7,8.43,7,33.53-6.79,37.44-15.31a38.1,38.1,0,0,1,6-8.87,15.59,15.59,0,0,1,2.59-2.29c6.09-4.39,9.58-2.06,16.13-6.5,6.26-4.25,4.51-7.35,10.44-11.16,7.53-4.84,12.2-1,17.08-5.58,5.19-4.84,1.28-10.47,6.64-15.8,4.9-4.86,9.5-1.51,15.19-6.51,5.45-4.78,2.65-9.1,8.54-14.87,5-4.91,7.92-2.63,12.34-7.44,5.22-5.68,2.33-10.16,7.59-14.87,3.87-3.47,6-1.59,11.39-5.58,4.8-3.58,4.29-6,8.54-10.22,7.51-7.45,16.17-6.79,16.13-9.3-.05-3.16-13.83-2.24-25.62-11.15A39.59,39.59,0,0,1,219,701.81Z"/><path class="cls-5" d="M51.12,791c-.75-2.56-3.13-10.72.9-15.31s9.85-.29,17.15-4.5c8.11-4.67,5.15-12.47,13.54-18,7.58-5,12-.15,19-5.4,6.46-4.9,4-10.23,11.73-17.11,2.59-2.3,5.94-3.93,12.64-7.2,10.71-5.22,15.74-8.56,17.15-9.9,7.77-7.39,5-12.81,11.73-17.1s10.66.47,18.05-3.6c9.15-5,8.54-15.3,15.35-16.21,5-.67,7.21,4.66,11.73,3.6,6.69-1.57,7.52-14.57,9.93-14.4,3.78.27-3,32.13,13.54,48.61,5.22,5.21,10.62,6.73,10.83,11.7s-5.27,9.37-16.25,18c-9.08,7.15-10.35,6.72-15.34,11.7-7.38,7.37-6,9.7-11.73,14.4-8.29,6.77-12.51,3-20.76,9C161,786,164.5,792.08,154.91,800c-8.51,7-12.59,3.33-20.76,10.8-7.53,6.89-5.47,11.32-12.63,16.21-7.82,5.33-11.91,1.17-19,6.3-7.92,5.76-4.72,14.54-12.63,18.9-2.92,1.61-8.59,3.37-11.74.9-5.89-4.63,4.38-18.3-2.7-31.51-.75-1.39-.4-.37-9-9.9C53.92,797.85,52.16,794.57,51.12,791Z"/><polygon class="cls-6" points="188.94 728.85 214.81 712.4 207.54 701.01 181.66 717.46 188.94 728.85"/><polygon class="cls-6" points="146.86 758.07 171.68 740.06 163.72 729.14 138.9 747.15 146.86 758.07"/><polygon class="cls-6" points="103.54 788.67 128.36 770.67 120.39 759.75 95.58 777.75 103.54 788.67"/><polygon class="cls-6" points="69.17 815.3 90.63 799.73 82.48 788.55 61.02 804.13 69.17 815.3"/><path class="cls-6" d="M214.43,697.85c2.78-7.53,11.11-30.08,19.64-29.57,10.06.6,19.72,33.25,11.45,39.69-4.19,3.26-10.11-2.42-28.66-6.33-10.69-2.25-31.52-6.63-36.07.51-5.67,8.89,14.25,35.06,22.87,32.43C209.26,732.88,206.16,720.22,214.43,697.85Z"/><path class="cls-6" d="M219,689.28c.6.19,1.64.69,4.52,6.3,3,5.84,4.48,8.8,3.61,10.8-.52,1.2-1.23,1.3-7.22,4.5-6.15,3.28-6.74,3.87-8.13,3.6-2.88-.57-4.42-4-6.31-8.1-1.62-3.56-2.61-5.73-1.81-8.1.63-1.86,2.54-3.07,6.32-5.4C214.6,690,216.91,688.59,219,689.28Z"/><path class="cls-7" d="M1132.85,1050.48c-23.22-11.48-22.14-40.5-33.73-41-8.77-.36-17.07,15.93-20,24-4,10.84-.57,13-4,24.92a51.12,51.12,0,0,1-3.94,9.63c-6,11.52-9.15,11.93-12.12,19.93-1.25,3.36-2.58,7-2.41,11.8.2,5.69,2.32,8.29,2.06,14.83a35.27,35.27,0,0,1-1.33,7.71c-3.7,12.46-15.84,13.12-20.32,22.66-5.89,12.53,10,22.15,4.53,37.48-3.52,9.91-10.7,8.63-13.92,19.5-2.9,9.79.24,22.43,7.3,25.92,4.46,2.2,6.49-1.22,16.24-.79,4.43.19,10,2,21,5.73,9.82,3.29,14.74,4.94,17.07,6.43,5.09,3.24,5.85,5.37,16.45,14.71,5.44,4.78,8.19,7.18,9.85,7.28,11,.63,23-25.37,21.06-34.55a37.56,37.56,0,0,1-.47-10.68,12.26,12.26,0,0,1,.72-3.37c2.64-7.34,11.57-7.69,12.12-12.66.22-2-1.18-1.72-2-6.5a23.19,23.19,0,0,1-.16-7,14.64,14.64,0,0,1,1-3.85c3.19-8.37,9.21-8.07,10.44-14.63,1.26-6.77-5.58-9.54-4-16.66,1.67-7.69,11.31-7.71,11.8-14.39.43-5.84-6.62-10.23-5.4-16.9a24.76,24.76,0,0,1,1.09-3.77,20.88,20.88,0,0,1,3.59-6c2.34-2.67,3.12-2,3.72-3.28,1.93-4.3-7-10.52-5.59-16.68a14.22,14.22,0,0,1,.84-2.55c1.34-2.72,3.47-3.62,5-8.7a17.55,17.55,0,0,0,.73-3.64,85.59,85.59,0,0,0,.08-9.66c-.19-8.62,9.62-12.68,7.93-16.77-1.15-2.78-6.65-3.3-10-3-8.26.74-10.46,7.15-17.71,8.94C1143.56,1056.6,1137.53,1052.79,1132.85,1050.48Z"/><path class="cls-5" d="M1050.66,1221.88c-2-1.53-8.88-6.74-8.35-12.85s7.74-6.09,11.13-13.8c1.91-4.37,1.49-10.43.21-22.53-1.58-15-3.35-16.19-1.65-20.7,2.91-7.75,9.08-6.73,13-15.62,3-6.93-.14-8.82,3-16.38,3.62-8.73,8.53-7.82,10.82-15.06,2.79-8.82-3.84-12.65-.71-20.73,2.91-7.49,8.86-6,12.4-13.61,4.36-9.49-2.21-17.38,2.73-22.15,3.64-3.52,8.57-.53,11.58-4.07,4.46-5.23-2.59-16.19-.56-17.48,3.21-2,16.67,27.63,39.75,31.09,7.3,1.09,12.54-.89,15.66,3s1.31,10.67-2.39,24.13c-3.07,11.16-4.35,11.56-5.41,18.53-1.56,10.31,1,11.36-.89,18.56a25.33,25.33,0,0,1-2.28,5.75c-2.43,4.64-5.09,9.74-4.7,15,.34,4.52,2.56,4.63,2,8-.71,4.29-4.36,4.54-5.63,9.83-.59,2.5.07,3.12-.82,6.7-2.68,10.71-8.16,10.16-10.3,21-2,10,2.31,12.36-.56,20.54-3.13,8.93-8.89,8-11.51,16.32-3,9.34,4.82,14.51,1,22.72-1.39,3-4.9,7.8-8.91,7.69-7.49-.23-7.33-17.34-20.87-23.76-.87-.41-.88-.34-3.57-.8-.27,0-3.38-.61-9.57-1.81C1062.14,1226.88,1055.57,1225.6,1050.66,1221.88Z"/><polygon class="cls-6" points="1124.71 1090.07 1135.77 1061.47 1123.16 1056.63 1112.1 1085.23 1124.71 1090.07"/><polygon class="cls-6" points="1111.18 1132.55 1120.47 1103.34 1107.58 1099.27 1098.29 1128.49 1111.18 1132.55"/><polygon class="cls-6" points="1093.47 1181.9 1102.76 1152.68 1089.87 1148.62 1080.59 1177.84 1093.47 1181.9"/><polygon class="cls-6" points="1079.61 1230.73 1087.65 1205.46 1074.46 1201.3 1066.42 1226.57 1079.61 1230.73"/><path class="cls-6" d="M1126.83,1050c-2.23-7.71-8.9-30.8-1.74-35.45,8.46-5.49,35.61,15.06,32.77,25.15-1.44,5.11-9.57,4-26.83,11.91-9.93,4.53-29.29,13.37-28.72,21.82.71,10.52,32.27,19.76,37.65,12.53C1143.46,1081.25,1133.46,1072.9,1126.83,1050Z"/><path class="cls-6" d="M1125.42,1040.38c.6-.2,1.72-.41,7.37,2.4,5.88,2.92,8.83,4.42,9.32,6.55.29,1.27-.22,1.78-3.14,7.91s-3.12,7.11-4.41,7.71c-2.66,1.26-5.91-.55-9.89-2.77-3.41-1.9-5.5-3.06-6.26-5.45-.59-1.87.22-4,1.88-8.09C1122.32,1043.59,1123.33,1041.07,1125.42,1040.38Z"/></g><g id="shoes"><path class="cls-6" d="M325,1997a4.32,4.32,0,0,1,3,0c10.94,3.37,119.3,8.16,157-6l21-8h0s7.86,11.22,6,18-13.56,9.16-18,10c-55.26,10.49-119,9.11-124,9-22.79-.49-45.16-.89-48-10C321,2006.65,321.43,1998.56,325,1997Z"/><path class="cls-6" d="M327,2049c11.24,1.73,11.81,6.06,30,15,0,0,58,28.51,127,4a53.8,53.8,0,0,0,5-2c20.45-9.41,24.07-26.45,30-26,7.25.55,10.15,26.64,14,53,9.85,67.37,19,89.16,6,100-5.41,4.53-13.28,5.35-29,7-14.26,1.5-23.32,2.45-29-3-8.16-7.83-1.85-21.66-9-26-5.85-3.55-15.45,2.46-18,4-27.71,16.73-109.66,40.82-156,16-22.27-11.93-31.53-32.6-33-36-10.51-24.37-4-47-2-53C272.89,2071.77,303,2045.3,327,2049Z"/><path class="cls-6" d="M331.14,2005c1.19,3.9,1.29,9.67-.88,11-2.73,1.67-9.58-3.39-9.63-8-.07-8.34,22-22,31.51-13,7.56,7.19,5.78,27.63-1.75,32-4.39,2.55-10.45-.53-11.38-1-7.44-3.78-9.11-11.63-13.13-11-2.21.35-2.55,2.87-5.25,6-5.26,6.12-14.95,9.24-19.25,6-6.56-5-6.34-29,5.25-35C315.66,1987.34,328.2,1995.4,331.14,2005Z"/><path class="cls-7" d="M316,2063c1.85,6.28,11.95,4.11,21,13,8.05,7.91,5.31,14.77,12,18,7.78,3.75,12.86-4.87,24-3,12.51,2.1,13.18,14.15,25,16,10.52,1.65,12.41-7.53,26-9,17.86-1.94,24.25,12.87,38,9,11.55-3.25,9.74-14.47,22-18,14-4,22.07,7.51,33,2,9.76-4.92,11.56-18.65,12-22,1.58-12-2.64-27.51-10-29-6.2-1.26-9.52,8.46-22,18-11.52,8.81-22.42,11-42,15-14.7,3-33.8,6.87-56,3-41.95-7.31-61.18-36.41-76-27C318.26,2052,314.68,2058.51,316,2063Z"/><path class="cls-6" d="M668,2024c6.13-3.89,27.1,7.76,28,23,1,17.8-25.83,31.39-32,27-3.42-2.43,1.17-9.21,2-33C666.41,2029.25,665.47,2025.6,668,2024Z"/><ellipse class="cls-10" cx="297" cy="2091" rx="22" ry="15" transform="translate(-1391.57 822.45) rotate(-45)"/><path class="cls-6" d="M672.53,1982.53a4.26,4.26,0,0,1,3,0c11,3.37,119.3,8.16,157-6,1.87-.7,21-8,21-8l0,0c4.36,6.32,6.49,16.07,3.45,21.45-3.19,5.64-11.94,6.27-15.47,6.53-22.55,1.65-44.95,7.69-67.53,6.47-64.43-3.49-101.12,4.06-104.47-7.47C668.65,1992.47,668.94,1984.09,672.53,1982.53Z"/><path class="cls-6" d="M774.82,1991.64c1.35,4,1.47,9.86-.87,11-2.68,1.32-9.28-3.3-9.63-8-.65-8.6,19.28-22.41,29.68-16.64,10.92,6.06,8.32,32.07.07,35.64-2.32,1-7,1.08-11-.8A18.93,18.93,0,0,1,779,2010c-6.09-5-7-8.46-9.43-8.36-2.17.1-2.72,3-5.25,6-4.82,5.63-14.28,8.34-19.25,6-9-4.23-11.51-28.84-.07-35.64C754.67,1972.25,771.2,1981.07,774.82,1991.64Z"/><path class="cls-6" d="M667,2062c27.23-37.16,76.1-35.71,100-35,19.68.58,87.18,2.58,111,53,14.54,30.77,7.56,71.55-13,95a74.81,74.81,0,0,1-20,16c-15,8-28.2,8-56,7-42.6-1.48-64.08-2.27-73-5-17.76-5.44-37.33-11.49-51-29C643.71,2136.74,645.38,2091.5,667,2062Z"/><path class="cls-7" d="M687,2046c0,2.37,1.87,4.89,4,6,3.32,1.74,6.92-.06,16-4,10-4.32,15-6.49,18-7,4.59-.78,6.07.07,18,2,15.75,2.54,23.62,3.82,30,3,8-1,9.58-3.13,20-4a67,67,0,0,1,14,0c16.43,1.89,22,9.88,33,7,3-.77,5.81-1.52,6-3,1-8-76.81-29.22-131-15C708,2032.83,687.16,2038.31,687,2046Z"/><ellipse class="cls-10" cx="695.95" cy="2083.77" rx="22" ry="15" transform="translate(-1456.62 1644.59) rotate(-60)"/><path class="cls-6" d="M864.13,2029.63c-6.33-2.36-23.27,12.32-21.53,27.44,2,17.12,26.94,26.61,32.4,21.93,2.74-2.35-.82-7.09-5.9-33C866.74,2033.93,866.65,2030.57,864.13,2029.63Z"/><path class="cls-7" d="M668,2039c-3.29-6.3-3-12.64,0-15,3.33-2.61,9.54.66,14,3a42.21,42.21,0,0,1,14,12c-1,.86-9.08,7.42-19,5A20,20,0,0,1,668,2039Z"/><path class="cls-7" d="M866,2045c2.77-6.3,2.53-12.64,0-15-2.81-2.61-8,.66-11.81,3a38.45,38.45,0,0,0-11.81,12c.86.86,7.66,7.43,16,5A16.53,16.53,0,0,0,866,2045Z"/></g></svg>