<svg id="items" xmlns="http://www.w3.org/2000/svg" viewBox="0 0 264 258"><defs><style>.cls-1{fill:#3f0770;stroke:#fff;stroke-miterlimit:10;stroke-width:2px;}</style></defs><path class="cls-1" d="M81.89,129.68c1.49,5.07,1.74,6.21,2.47,6.33s1.66-1.22,3.44-3.89,2.61-3.91,3-5.19c.38-1.48.23-2.5-.87-7.55-1.68-7.68-2-8.54-2.58-8.57s-1,1.25-2.64,4.75c-2.89,6-4.2,6.81-4.11,9.46C80.56,125.41,80.59,125.25,81.89,129.68Z"/><path class="cls-1" d="M263.72,144.56c-.5-2.3-6.28-3.06-9.64-3.08-.63,0-1.2,0-1.74.06-.64-3.89-4-10.09-3-18.76.92-7.91,5-14.2,2.21-16.77-1.34-1.21-3-.51-3.63-1.68-1.41-2.62,6.53-6.75,6.6-12.67.07-6.14-8.34-11.75-10-10.64-1.08.73,1.61,3.6.76,8.53-.93,5.43-5.16,7.52-4.12,11,.66,2.21,2.92,3.12,2.52,4-.48,1-3.75-.73-5.68.51-2.94,1.88-.09,8.11-.31,16.43-.22,8.71-3.65,14.43-4.63,18.25l-1-.33c-2.12-.69-9.64-3.15-11.29-.81s2,9,7.56,11.77c3.67,1.84,5.42.55,7.28,2.3,4.09,3.83.07,14.23-1.83,19.14a63.23,63.23,0,0,1-4.08,9.14,16.3,16.3,0,0,0-.56-7.57c-2.85-8.72-12.57-11.82-13.78-12.19-2.12-.64-8.47-2.56-14,.68a19.79,19.79,0,0,0,5.42-6c3.9-6.85,1.06-12.9,6-16.48,2.8-2,4.35-.51,9.13-2.6,6.08-2.65,11.45-8.55,10.27-11.45C231,122.07,222,123,221.61,123a18,18,0,0,0-4.84,1.17c-.46-3.27-2.32-8.24-1.45-15.06s4-11.6,1.8-13.51c-1.43-1.26-4.32-.23-4.6-1.13-.22-.73,1.75-1.2,2.57-2.93,1.28-2.7-1.93-4.94-2-9.51-.08-4.15,2.48-6.17,1.69-6.9-1.23-1.12-8.83,2.43-9.54,7.47-.68,4.87,5.32,9.25,3.83,11.22-.66.88-1.94.1-3.19.93-2.63,1.74-.05,7.42-.28,14-.25,7-3.54,11.59-4.66,14.7a15.55,15.55,0,0,0-5.5-2.46c-4.22-1-10.72-1.1-11.87,1.45-1.78,4,8.67,15.55,16.7,15.38.73,0,2-.14,2.77.68,2,2.09-1.33,8.24-3.18,11s-3.44,5.19-6.61,6.56c-4.79,2.06-9.53.21-10.8-.35-6.3-2.75-9-9.4-10.73-13.51-3.16-7.67-1.89-11.51-5.52-14.06-3.44-2.41-8-1.35-8.85-1.14-6.87,1.74-10.85,9.18-13.31,15-2.17-10.28.92-33.47,12.76-44.93,1.77-1.71,7.78-7.11,16.05-7,4.69.07,12.55,2,14.47,7.7,1.19,3.57.12,8.78-3.16,10.58a6.87,6.87,0,0,1-4.28.62,7.92,7.92,0,0,1-4.93-3.2c-2.87-3.91-1.2-9-1.66-9.06s-5.18,7.45-1.57,14.46c2.28,4.42,7.22,7.46,11.7,7,8-.83,13.78-12.84,11.56-22.17-2.08-8.72-10.5-12.59-11.71-13.12-7.62-3.35-15-1.07-16.89-.48-8.81,2.73-15.68,10.73-20.61,20.32q1.44-4.56,3.31-9.26c3-7.65,9.58-22,4.39-26.94-1.91-1.81-4.84-1-7.23-3.84-2.27-2.73-2.17-6.35-2.07-10,0-.48.05-1,.09-1.43,3.29,2.79,17.16,1.25,21.2-6.79.29-.57,2.58-5.32.31-9.89a9.87,9.87,0,0,0-4.82-4.6,9.68,9.68,0,0,0-9.59,1,10.2,10.2,0,0,1,1.2-2.13c2.88-3,5.64-.78,12-3.32,6-2.39,11.89-7.25,11.11-10-.45-1.56-3.61-.45-7.27-3.37-1.7-1.35-1.9-2.27-3.53-3.09a8.84,8.84,0,0,0-5.88-.5c-1.5-4-7.28-7.43-14.49-8.23C136.83-.44,130.09,2,128.16,6a8.59,8.59,0,0,0-5.46-.42c-1.75.5-2.12,1.36-4,2.38-4.14,2.19-7,.52-7.77,2-1.27,2.53,3.6,8.39,9.07,11.86,5.79,3.67,8.92,2,11.18,5.49a9.91,9.91,0,0,1,.8,2.31,9.7,9.7,0,0,0-9.24-2.78,9.84,9.84,0,0,0-5.59,3.63c-3.07,4.08-1.7,9.16-1.52,9.78,2.47,8.65,15.82,12.73,19.57,10.6,0,.46-.1.93-.18,1.42-.58,3.64-1.15,7.21-3.88,9.47-2.89,2.39-5.61,1-7.82,2.44-6,3.86-2.25,19.21-.67,27.29q1,5,1.54,9.71c-3.08-10.33-8.35-19.47-16.5-23.78-1.77-.94-8.58-4.53-16.69-2.65C89.68,75,80.68,77.21,77,85.4c-3.91,8.76-.48,21.63,7.26,23.93,4.31,1.28,9.73-.8,12.79-4.72,4.85-6.22,1.72-14.48,1.13-14.5s.24,5.29-3.31,8.6a7.91,7.91,0,0,1-5.44,2.23,6.93,6.93,0,0,1-4.09-1.4c-2.89-2.38-3-7.69-1.14-11,2.94-5.28,11-5.69,15.64-4.89,8.15,1.41,13.06,7.83,14.48,9.84,9.52,13.45,8.26,36.81,4.22,46.52-1.34-6.16-3.87-14.21-10.3-17.19-.79-.36-5.08-2.25-8.91-.52-4,1.83-3.5,5.85-8,12.8-2.43,3.72-6.35,9.75-13,11.29-1.35.31-6.34,1.25-10.67-1.66-2.87-1.93-4-4.57-5.28-7.66s-3.41-9.76-1.09-11.45c.91-.66,2.14-.3,2.85-.15,7.87,1.65,20.28-7.81,19.26-12-.65-2.73-7.06-3.84-11.39-3.62a15.26,15.26,0,0,0-5.86,1.4c-.53-3.27-2.92-8.39-1.86-15.32,1-6.53,4.58-11.62,2.32-13.83-1.08-1-2.48-.51-3-1.5-1.09-2.22,5.61-5.4,5.84-10.31.24-5.09-6.57-10-8-9.11-.91.57,1.23,3,.39,7.09-.93,4.48-4.5,6.09-3.74,9,.49,1.84,2.33,2.67,2,3.35-.43.83-3.09-.72-4.73.26-2.49,1.47-.31,6.72-.73,13.61s-3.16,11.4-4.22,14.53a17.9,17.9,0,0,0-4.53-2c-.37-.11-9-2.68-10.88.21-1.69,2.63,2.5,9.42,8,13.15,4.31,2.94,6.11,1.71,8.49,4.25,4.15,4.42.24,9.83,2.8,17.29a20.15,20.15,0,0,0,4.21,6.93c-4.78-4.19-11.38-3.49-13.58-3.25-1.26.14-11.38,1.38-15.8,9.43a16.21,16.21,0,0,0-1.94,7.33,63.18,63.18,0,0,1-2.33-9.73c-1-5.18-3-16.14,1.75-19.16,2.15-1.37,3.63.23,7.58-.9,5.94-1.7,10.73-7.7,9.6-10.17s-9-1.58-11.24-1.29l-1,.14c-.25-3.93-2.56-10.19-1.17-18.79,1.33-8.22,5.28-13.81,2.74-16.21-1.67-1.57-5.2-.46-5.49-1.55-.23-.89,2.15-1.38,3.21-3.42,1.66-3.2-2.11-6-2-11.55.08-5,3.26-7.32,2.33-8.23C29.66,60,20.35,64,19.29,70c-1,5.83,6,11.35,4.14,13.67-.84,1-2.35,0-3.88,1-3.25,2-.38,8.94-.93,16.89-.62,8.7-5,14.18-6.39,17.88-.51-.14-1.07-.27-1.69-.38-3.31-.6-9.13-.92-10,1.25-.85,2,2.63,5.93,6.19,8,4.72,2.73,7.56,1.42,9.61,3.93,1.83,2.25,1.2,5.42.91,7.58,0,0-1.69,12.24,4.3,27.08,1,2.46,4.45,11,13,16.37.22.14.43.27.65.39a6.08,6.08,0,0,0-.92,3.43c0,.4,0,.23,1.34,4.67,1.49,5.07,1.73,6.21,2.47,6.33s1.65-1.22,3.43-3.89,2.62-3.92,3-5.2a5.31,5.31,0,0,0,.18-1.78,41,41,0,0,0,12.18.36,43.87,43.87,0,0,0,10.45-2.38c1.59,4.58,2,5.7,2.84,5.79s2.07-1.69,4.22-5.29a50.2,50.2,0,0,0,3-5.38c7.08-4.16,12.1-8.07,18-5.69,6.77,2.75,8.52,11.41,10.38,11.67,3.9,3.79,9.78,2.84,10.88,6.81.5,1.8-.53,2.7-1.51,5.48a17.15,17.15,0,0,0-.93,3.68,11,11,0,0,0,.3,4.05c.27,4.71,2.26,8.82,5.25,11.15a5.85,5.85,0,0,0,3.3,8.82c-.5.9-1.15,2.62-2.44,5.43-3.65,7.9-5.35,9-5.18,12.4,0,.52,0,.3,1.83,6.06,2,6.58,2.38,8.07,3.34,8.2s2.14-1.61,4.41-5.13,3.34-5.15,3.75-6.83c.47-1.93.26-3.25-1.28-9.83a94.1,94.1,0,0,0-2.65-10.08,5.84,5.84,0,0,0,5.66-5.21,5.69,5.69,0,0,0-.42-2.91c4-2.1,7.18-6.9,7.83-12.78A18,18,0,0,0,136,195.25a3,3,0,0,1,.28-.62c2.26-3.92,7.69-2,11.93-4.68,1.87.16,5.2-8.09,12.38-9.54,6.21-1.26,10.43,3.51,16.61,8.91a53.58,53.58,0,0,0,1.93,5.85c1.44,3.93,2.19,5.89,3.17,6s1.45-1,3.86-5.17a43.53,43.53,0,0,0,9.84,4.28,40.91,40.91,0,0,0,12,1.9,5.34,5.34,0,0,0-.06,1.32c.1,1.32.71,2.77,1.94,5.65s1.9,4.43,2.66,4.46,1.19-1.06,3.6-5.76c2.1-4.12,2.09-3.95,2.18-4.34a5.89,5.89,0,0,0-.15-3.14l.53-.2c9.41-3.69,14.38-11.44,15.82-13.68,8.63-13.47,9.24-25.82,9.24-25.82.11-2.18.08-5.41,2.29-7.28,2.48-2.09,5-.27,10.17-2.08C260,149.91,264.19,146.69,263.72,144.56ZM152.73,43c.84-.43-1.39-4.36.44-6.28a3.93,3.93,0,0,1,3.21-.82,5.43,5.43,0,0,1,4.75,4c.54,2.58-1.45,4.62-2,5.21a9.3,9.3,0,0,1-7.95,2.38c-3.06-.48-4-2.28-5.56-1.65a2.82,2.82,0,0,0-.38.21c.37-1.37.79-2.55,1.14-3.51.24-.69.74-1.83,1.72-4.1.12-.29.25-.57.36-.85C149,40.93,152,43.36,152.73,43Zm-17.88,2.19c-1.39-.9-2.67.68-5.77.59A9.32,9.32,0,0,1,121.71,42c-.45-.69-2-3.06-1-5.5a5.44,5.44,0,0,1,5.41-3.07,4,4,0,0,1,3,1.41c1.45,2.22-1.47,5.67-.72,6.25s4.07-1.32,5.21-4.5l.21.9c.54,2.41.81,3.62.93,4.35.16,1,.35,2.24.47,3.66A2.2,2.2,0,0,0,134.85,45.17ZM113.5,148c-3.9,6.2-18.3,1.57-20,6.27-1.24,3.34,6.32,5.87,9.17,15.17a22.06,22.06,0,0,1,.54,2.21l-.18-.21a16,16,0,0,0-9.55-4.87c-6.67-.85-10.08,2.19-16.44,5.59-.23-.89-.51-1.93-.84-3.15-2.7-9.88-3.22-11-3.92-11-.87,0-1.18,1.7-3.13,6.37-3.36,8-5,9.15-4.72,12.59a.61.61,0,0,0,0,.14c-5,1.41-11.86,2.83-19.66.78-.6-.16-1.32-.36-2.13-.61-.9-3.8-1.21-4.33-1.62-4.35s-.84.81-1.83,3a24.45,24.45,0,0,1-2.77-1.54,10.82,10.82,0,0,1-1.56-2.1c-2.6-4.68-1.28-11.22,1.71-15.39a10.91,10.91,0,0,1,5.7-4.55c5.36-1.58,12.4,2.09,13.77,7.66.82,3.31-.13,8.19-3.41,9.53-2.36,1-5.25-.2-6.89-1.71-2.35-2.15-2.24-5.08-2.75-5-.72.07-2.43,6.21.73,10.46,2.92,3.92,8.68,4.47,12.74,3,6.76-2.49,7.88-10.34,8-11.06a13.86,13.86,0,0,0-.36-5.23h0a21,21,0,0,0-4.26-9.82A23.08,23.08,0,0,0,71.55,156c9.64,1.59,17.33-4.53,19.06-5.9,10.63-8.46,9.73-20.38,14.55-20.57C110.2,129.38,117.11,142.2,113.5,148Zm76.91,40.56c0-.05,0-.09,0-.14.92-3.33-.5-4.73-2.31-13.25-1.06-4.95-1-6.67-1.9-6.83-.68-.13-1.4.86-5.88,10.07-.56,1.13-1,2.1-1.42,2.93-5.61-4.51-8.41-8.13-15.12-8.53a15.92,15.92,0,0,0-10.28,3l-.21.17a18.41,18.41,0,0,1,.94-2.07c4.51-8.62,12.41-9.7,11.81-13.21-.83-4.94-15.85-3.06-18.53-9.87-2.49-6.33,6.68-17.65,11.6-16.53,4.7,1.08,1.61,12.62,10.49,22.9,1.45,1.67,7.87,9.11,17.64,9.33a23,23,0,0,0,12.66-3.65,21.17,21.17,0,0,0-6,8.86h0a14,14,0,0,0-1.33,5.08c0,.72-.39,8.65,5.79,12.34,3.71,2.22,9.48,2.75,13.07-.57,3.9-3.59,3.35-9.93,2.65-10.14-.49-.15-.92,2.74-3.63,4.42-1.89,1.18-4.94,1.79-7.08.41-3-1.92-3-6.9-1.59-10,2.38-5.22,10-7.52,15-5a10.91,10.91,0,0,1,4.76,5.53c2.16,4.65,2.25,11.32-1.17,15.43a10.54,10.54,0,0,1-1.92,1.78,23.91,23.91,0,0,1-2.85,1c-.66-2.65-.78-3.64-1.35-3.71s-.85.44-2.61,4.46c-.78.09-1.47.14-2,.18C201.54,193.49,195.06,190.82,190.41,188.52Z"/><path class="cls-1" d="M180.17,119.15c-.53-.08-1,.71-4.12,7.94-2,4.77-2.36,5.73-2.25,7.26.09,1.32.71,2.76,1.94,5.65s1.9,4.43,2.65,4.46,1.2-1.06,3.6-5.77c2.1-4.11,2.1-3.95,2.18-4.33.58-2.59-.56-3.6-2.28-10.05C180.88,120.56,180.83,119.24,180.17,119.15Z"/></svg>