<svg id="items" xmlns="http://www.w3.org/2000/svg" viewBox="0 0 237 274"><defs><style>.cls-1{fill:#fff;}</style></defs><path d="M186,219.45c-8.29,0-16.16-2.76-21.57-7.56-5.07-4.5-8.06-10.75-9.18-13.1a38.45,38.45,0,0,1-2.87-8.16,11.89,11.89,0,0,0-2.74-5.9c-3.38-3.9-9.11-6.74-13.63-6.74a8.88,8.88,0,0,0-3.43.64,13.67,13.67,0,0,0-1.88,1,8.24,8.24,0,0,1-4.53,1.6l-.51,0c-2.73-.2-5.81-1.94-5.85-4.11-.08-3.72,8.94-5.73,9.32-5.82a25.14,25.14,0,0,1,5.21-.54A29.85,29.85,0,0,1,153.57,178c4.61,4,6.17,7.87,7.83,12,1.72,4.28,3.5,8.7,9.12,13.76,2.8,2.53,6.3,5.68,10.43,5.68a8.72,8.72,0,0,0,1-.07,12.48,12.48,0,0,0,8-5.11,9.84,9.84,0,0,0,2.15-7.29c-.35-1.94-1.62-4.2-3.69-4.9a4.52,4.52,0,0,0-1.44-.22,7,7,0,0,0-6.6,5.37c-.24,1.41,0,3.75,1.41,4.56a2.41,2.41,0,0,0,1.23.3,11.32,11.32,0,0,0,4.51-1.57,6.42,6.42,0,0,1,2.48-.94,1.3,1.3,0,0,1,1.07.51,1.88,1.88,0,0,1,.09,1.87,9.85,9.85,0,0,1-6.58,5.58,8,8,0,0,1-1.76.19,10.74,10.74,0,0,1-8.94-5.49c-2.55-4.49-1.24-10.84,3-14.46a12.55,12.55,0,0,1,14.85-.79,12.52,12.52,0,0,1,4,5.35c.67,1.4,1.1,2.27,1.68,2.29h0c.46,0,.85-.44,1.49-1.23a8.31,8.31,0,0,1,4.35-3.16,8.52,8.52,0,0,1,2.27-.3,5.92,5.92,0,0,1,4.94,2.14,5.15,5.15,0,0,1,.83,3.74,2.32,2.32,0,0,1-1,1.59,1.72,1.72,0,0,1-.91.26,3.26,3.26,0,0,1-1.46-.47,3.79,3.79,0,0,0-1.75-.53,4.47,4.47,0,0,0-3.37,1.89,5.72,5.72,0,0,0,2.87.62,7.16,7.16,0,0,0,4.69-1.61c2.38-2.12,2.76-6.05,1.37-7.67-.46-.54-.94-.62-2.29-.79a22.09,22.09,0,0,1-3.91-.76c-.09,0-9.25-2.78-9-6.57.21-2.8,5.48-5,9.87-5,.28,0,.57,0,.84,0a14.75,14.75,0,0,1,2,.28,7.57,7.57,0,0,0,1.39.18,3,3,0,0,0,1.12-.22,3.87,3.87,0,0,0,1.87-1.58,5.38,5.38,0,0,1,2.44-2.06,4.2,4.2,0,0,1,1.53-.3,6.5,6.5,0,0,1,2.57.68,9,9,0,0,0,3.38.86h.33a11.17,11.17,0,0,0,5.42-1.68,5.12,5.12,0,0,1,2.24-.85,1.56,1.56,0,0,1,1.13.46c1.95,1.95-2.15,7.37-2.33,7.6a22.58,22.58,0,0,1-3.94,3.87c-.41.34-.89.73-1.16,1a8.32,8.32,0,0,0,.91.2c.88.17,2,.38,2.12,1.41.19,1.23-1.1,1.74-2.89,2.45a22,22,0,0,0-3,1.39c-3,1.8-3.89,4.88-4.87,8.14a36.2,36.2,0,0,1-1.48,4.28c-3.8,8.66-13,12.47-16.52,13.91A36,36,0,0,1,186,219.45Z"/><path class="cls-1" d="M134.29,171.76a28.84,28.84,0,0,1,18.63,7c9.22,8,5.81,15.69,16.93,25.71,3.06,2.76,6.68,5.94,11.1,5.94a10.88,10.88,0,0,0,1.13-.07c6.19-.77,12.08-7.74,11-13.57-.38-2.17-1.83-4.83-4.35-5.67a5.54,5.54,0,0,0-1.76-.28,8.08,8.08,0,0,0-7.59,6.21c-.3,1.78.09,4.51,1.89,5.58a3.34,3.34,0,0,0,1.74.44c2.72,0,5.93-2.51,7-2.51a.34.34,0,0,1,.28.12c.56.72-1.91,5-5.92,5.86a6.73,6.73,0,0,1-1.54.17,9.78,9.78,0,0,1-8.07-5c-2.47-4.35-.87-10.08,2.76-13.2a11.56,11.56,0,0,1,13.62-.74c3.83,2.73,3.72,7.72,6.18,7.83h.08c2,0,2.45-3.43,6.07-4.43a7.61,7.61,0,0,1,2-.26,5,5,0,0,1,4.12,1.72c.94,1.31,1,3.39.15,3.9a.67.67,0,0,1-.38.11c-.72,0-1.65-1-3.2-1h0c-2.29,0-4.68,2.16-4.39,3.17.21.71,1.87,1.34,3.88,1.34a8.07,8.07,0,0,0,5.36-1.86c2.72-2.42,3.25-7,1.47-9.07-1.25-1.47-2.85-.73-6.68-1.86-3.3-1-8.41-3.39-8.25-5.53.14-1.95,4.68-4,8.87-4q.39,0,.78,0c1.5.1,2.45.46,3.46.46a4,4,0,0,0,1.48-.28c2.35-.89,2.23-2.83,4.31-3.64a3.1,3.1,0,0,1,1.17-.24c1.68,0,3,1.43,5.91,1.54h.37c3.95,0,6.47-2.53,7.66-2.53a.54.54,0,0,1,.42.17c.84.84-.72,4.07-2.41,6.28-2.66,3.47-5.8,4.64-5.44,5.79s3.07.73,3.18,1.45-3.14,1.45-5.43,2.84c-4.63,2.81-4.71,8.23-6.75,12.87-3.63,8.29-12.57,12-16,13.39A35,35,0,0,1,186,218.45c-7.71,0-15.41-2.43-20.91-7.31-4.91-4.36-7.84-10.48-8.94-12.78-3.74-7.81-2.18-10.15-5.75-14.28C147,180.22,141.09,177,136,177a9.91,9.91,0,0,0-3.82.72c-2.15.9-3.51,2.53-6,2.53h-.44c-2.32-.17-4.89-1.65-4.92-3.13-.05-2.17,5.36-4.13,8.54-4.82a23.64,23.64,0,0,1,5-.52m0-2h0a25.15,25.15,0,0,0-5.42.57c-1.7.37-10.2,2.44-10.11,6.81,0,2.75,3.55,4.85,6.77,5.08.2,0,.4,0,.59,0a9.1,9.1,0,0,0,5-1.74,13.58,13.58,0,0,1,1.74-.95A7.93,7.93,0,0,1,136,179c4.26,0,9.67,2.69,12.88,6.4a11.1,11.1,0,0,1,2.52,5.48,39.41,39.41,0,0,0,2.93,8.35c1.15,2.4,4.21,8.78,9.42,13.41,5.6,5,13.7,7.82,22.24,7.82a36.85,36.85,0,0,0,14-2.7c3.58-1.47,13.1-5.4,17.06-14.43a39.46,39.46,0,0,0,1.52-4.39c1-3.21,1.8-6,4.43-7.57A19.48,19.48,0,0,1,225.8,190c1.88-.74,3.82-1.52,3.51-3.53a2.43,2.43,0,0,0-1.86-2,21.94,21.94,0,0,0,3.74-3.75c.8-1.05,4.7-6.44,2.24-8.9a2.56,2.56,0,0,0-1.84-.76,5.87,5.87,0,0,0-2.72,1,10.23,10.23,0,0,1-4.94,1.56h-.29a8,8,0,0,1-3-.78,7.47,7.47,0,0,0-3-.76,5,5,0,0,0-1.89.37,6.27,6.27,0,0,0-2.88,2.39,3,3,0,0,1-1.42,1.25,2.19,2.19,0,0,1-.77.15,7.11,7.11,0,0,1-1.2-.16,17,17,0,0,0-2.13-.3c-.3,0-.6,0-.91,0-4.26,0-10.59,2.1-10.87,5.9s6.18,6.42,8.75,7.3a8.48,8.48,0,0,0-1.35.26,9.27,9.27,0,0,0-4.86,3.5c-.2.24-.46.56-.65.75a13,13,0,0,1-.85-1.61,13.57,13.57,0,0,0-4.28-5.74,13.56,13.56,0,0,0-16.08.85c-4.64,4-6,10.74-3.2,15.71a12.08,12.08,0,0,0,7.43,5.7c-3.56-.23-6.73-3.09-9.3-5.41-5.45-4.9-7.19-9.21-8.87-13.39-1.62-4-3.3-8.19-8.09-12.35a30.9,30.9,0,0,0-19.94-7.48Zm77.22,22.08c-.08-.13-.16-.26-.25-.38a5.47,5.47,0,0,0-1.35-1.32c.79.11.93.18,1.08.37a2.53,2.53,0,0,1,.52,1.33Zm-28.45,9.21a1.42,1.42,0,0,1-.72-.16c-.82-.49-1.15-2.25-.93-3.53a6,6,0,0,1,5.61-4.54,3.65,3.65,0,0,1,1.12.17c1.68.56,2.74,2.53,3,4.13a6.13,6.13,0,0,1,.05,1.72,2.38,2.38,0,0,0-1.16-.3,6.78,6.78,0,0,0-2.93,1.05,10.79,10.79,0,0,1-4.06,1.46Zm21.69-3a3,3,0,0,1,1.44-.45,2.5,2.5,0,0,1,1.12.34,7.56,7.56,0,0,1-1.63.17,6.51,6.51,0,0,1-.93-.06Z"/><path d="M124,57.32a4.15,4.15,0,0,1-.66-8.24,3.85,3.85,0,0,1,.67,0,4.15,4.15,0,0,1,.66,8.24A3.78,3.78,0,0,1,124,57.32Z"/><path class="cls-1" d="M124,50a3.15,3.15,0,0,1,.5,6.25,2.92,2.92,0,0,1-.51,0,3.15,3.15,0,0,1-.5-6.25,2.92,2.92,0,0,1,.51,0m0-2h0a5.79,5.79,0,0,0-.83.06A5.15,5.15,0,0,0,124,58.32a5.69,5.69,0,0,0,.83-.06A5.15,5.15,0,0,0,124,48Z"/><path d="M127.75,65.54a4.15,4.15,0,0,1-.66-8.24,3.79,3.79,0,0,1,.67-.06,4.15,4.15,0,0,1,.66,8.25A5.16,5.16,0,0,1,127.75,65.54Z"/><path class="cls-1" d="M127.76,58.24a3.15,3.15,0,0,1,.5,6.26,2.92,2.92,0,0,1-.51,0,3.15,3.15,0,0,1-.5-6.25,2.94,2.94,0,0,1,.51,0m0-2h0a5.69,5.69,0,0,0-.83.07,5.15,5.15,0,0,0,.82,10.23,4.65,4.65,0,0,0,.83-.07,5.15,5.15,0,0,0-.82-10.23Z"/><path d="M136.05,80.39a4.15,4.15,0,0,1-.66-8.24,3.68,3.68,0,0,1,.66-.06,4.15,4.15,0,0,1,3.36,6.58,4.08,4.08,0,0,1-2.7,1.66A3.68,3.68,0,0,1,136.05,80.39Z"/><path class="cls-1" d="M136.05,73.09a3.15,3.15,0,0,1,.5,6.26,2.89,2.89,0,0,1-.5,0,3.15,3.15,0,0,1-.5-6.26,2.89,2.89,0,0,1,.5,0m0-2h0a4.54,4.54,0,0,0-.82.07,5.15,5.15,0,0,0,.82,10.23,4.54,4.54,0,0,0,.82-.07,5.15,5.15,0,0,0-.82-10.23Z"/><path d="M139.28,88.21a4.14,4.14,0,0,1-4.1-3.49,4.19,4.19,0,0,1,.73-3.09A4.14,4.14,0,0,1,138.62,80a4.89,4.89,0,0,1,.66,0,4.15,4.15,0,0,1,.66,8.24A3.68,3.68,0,0,1,139.28,88.21Z"/><path class="cls-1" d="M139.28,80.91a3.15,3.15,0,0,1,.5,6.26,4.38,4.38,0,0,1-.5,0,3.15,3.15,0,0,1-.5-6.26,2.89,2.89,0,0,1,.5,0m0-2a4.54,4.54,0,0,0-.82.07,5.15,5.15,0,0,0,.82,10.23,5.67,5.67,0,0,0,.82-.07,5.15,5.15,0,0,0-.82-10.23Z"/><path d="M143.46,95.87a4.15,4.15,0,0,1-.66-8.24,3.88,3.88,0,0,1,.67-.06,4.15,4.15,0,0,1,3.36,6.58,4.18,4.18,0,0,1-2.7,1.67A5,5,0,0,1,143.46,95.87Z"/><path class="cls-1" d="M143.47,88.57a3.15,3.15,0,0,1,.5,6.26,2.92,2.92,0,0,1-.51,0,3.15,3.15,0,0,1-.5-6.26,4.38,4.38,0,0,1,.51,0m0-2h0a4.65,4.65,0,0,0-.83.07,5.08,5.08,0,0,0-3.35,2.07,5.15,5.15,0,0,0,4.17,8.16,4.57,4.57,0,0,0,.83-.07,5.15,5.15,0,0,0-.82-10.23Z"/><path d="M148.13,103.45a4.15,4.15,0,0,1-.66-8.24,3.78,3.78,0,0,1,.67,0,4.13,4.13,0,0,1,4.09,3.48,4.18,4.18,0,0,1-.73,3.09,4.14,4.14,0,0,1-2.7,1.67A3.85,3.85,0,0,1,148.13,103.45Z"/><path class="cls-1" d="M148.14,96.16a3.15,3.15,0,0,1,.5,6.25,3.08,3.08,0,0,1-.51,0,3.14,3.14,0,0,1-.5-6.25,2.92,2.92,0,0,1,.51,0m0-2h0a5.69,5.69,0,0,0-.83.06,5.15,5.15,0,0,0,.82,10.23,5.9,5.9,0,0,0,.83-.06,5.15,5.15,0,0,0-.82-10.23Z"/><path d="M153,112.47a4.15,4.15,0,0,1-.66-8.24,3.85,3.85,0,0,1,.67,0,4.15,4.15,0,0,1,.66,8.24A3.71,3.71,0,0,1,153,112.47Z"/><path class="cls-1" d="M153,105.18a3.14,3.14,0,0,1,.5,6.25,2.92,2.92,0,0,1-.51,0,3.15,3.15,0,0,1-.5-6.25,3.08,3.08,0,0,1,.51,0m0-2h0a5.9,5.9,0,0,0-.83.06,5.15,5.15,0,0,0,.82,10.23,5.69,5.69,0,0,0,.83-.06,5.15,5.15,0,0,0-.82-10.23Z"/><path d="M157.77,120.54a4.15,4.15,0,0,1-.66-8.25,4.89,4.89,0,0,1,.66-.05,4.15,4.15,0,0,1,.67,8.24A3.88,3.88,0,0,1,157.77,120.54Z"/><path class="cls-1" d="M157.77,113.24a3.15,3.15,0,0,1,.5,6.26,4.38,4.38,0,0,1-.5,0,3.15,3.15,0,0,1-.5-6.26,2.89,2.89,0,0,1,.5,0m0-2a4.54,4.54,0,0,0-.82.07,5.15,5.15,0,0,0,.82,10.23,5.93,5.93,0,0,0,.83-.07,5.15,5.15,0,0,0-.83-10.23Z"/><path d="M162.12,126.21a4.15,4.15,0,0,1-.66-8.24,3.88,3.88,0,0,1,.67-.06,4.15,4.15,0,0,1,.66,8.25A5,5,0,0,1,162.12,126.21Z"/><path class="cls-1" d="M162.13,118.91a3.15,3.15,0,0,1,.5,6.26,2.92,2.92,0,0,1-.51,0,3.15,3.15,0,0,1-.5-6.26,4.38,4.38,0,0,1,.51,0m0-2h0a4.57,4.57,0,0,0-.83.07,5.08,5.08,0,0,0-3.35,2.07,5.14,5.14,0,0,0,4.17,8.16,4.57,4.57,0,0,0,.83-.07,5.15,5.15,0,0,0,4.26-5.9,5.13,5.13,0,0,0-5.08-4.33Z"/><path d="M131.46,73.28A4.15,4.15,0,0,1,130.8,65a3.79,3.79,0,0,1,.67-.06,4.15,4.15,0,0,1,.66,8.25A5.16,5.16,0,0,1,131.46,73.28Z"/><path class="cls-1" d="M131.47,66a3.15,3.15,0,0,1,.5,6.26,2.92,2.92,0,0,1-.51,0A3.14,3.14,0,0,1,131,66a2.94,2.94,0,0,1,.51,0m0-2a5.69,5.69,0,0,0-.83.07,5.15,5.15,0,0,0,.82,10.23,5.9,5.9,0,0,0,.83-.06,5.17,5.17,0,0,0,3.35-2.08A5.16,5.16,0,0,0,131.47,64Z"/><path d="M119.7,49.18a4.15,4.15,0,0,1-.66-8.24,3.78,3.78,0,0,1,.67,0,4.15,4.15,0,0,1,.66,8.24A3.85,3.85,0,0,1,119.7,49.18Z"/><path class="cls-1" d="M119.71,41.89a3.15,3.15,0,0,1,.5,6.25,2.92,2.92,0,0,1-.51,0,3.15,3.15,0,0,1-.5-6.25,2.92,2.92,0,0,1,.51,0m0-2h0a5.69,5.69,0,0,0-.83.06,5.15,5.15,0,0,0,.82,10.23,5.9,5.9,0,0,0,.83-.06,5.15,5.15,0,0,0-.82-10.23Z"/><path d="M107.05,47.07a3.35,3.35,0,0,1-.53-6.65,3.23,3.23,0,0,1,.53,0,3.34,3.34,0,0,1,2.72,5.3,3.3,3.3,0,0,1-2.72,1.39Z"/><path class="cls-1" d="M107.06,41.38a2.35,2.35,0,0,1,.37,4.66l-.38,0a2.35,2.35,0,1,1,0-4.69m0-2a4,4,0,0,0-.7,0,4.35,4.35,0,0,0,.69,8.64,5.49,5.49,0,0,0,.7,0,4.35,4.35,0,0,0-.69-8.64Z"/><path d="M135.2,115.79a3.35,3.35,0,0,1-.54-6.65,3.29,3.29,0,0,1,.54,0,3.35,3.35,0,0,1,.53,6.66A3.23,3.23,0,0,1,135.2,115.79Z"/><path class="cls-1" d="M135.2,110.09a2.35,2.35,0,0,1,.37,4.67,2.31,2.31,0,0,1-.37,0,2.35,2.35,0,0,1-.38-4.67l.38,0m0-2a4.14,4.14,0,0,0-.7.06,4.35,4.35,0,0,0,.7,8.64,5.34,5.34,0,0,0,.69-.05,4.35,4.35,0,0,0-.69-8.65Z"/><path d="M132,108.45a3.35,3.35,0,0,1-.53-6.65,3.29,3.29,0,0,1,.54,0,3.35,3.35,0,0,1,.53,6.66A3.27,3.27,0,0,1,132,108.45Z"/><path class="cls-1" d="M132.05,102.75a2.35,2.35,0,0,1,.37,4.67,2.43,2.43,0,0,1-.38,0,2.35,2.35,0,0,1-.37-4.66,1.64,1.64,0,0,1,.38,0m0-2a4.14,4.14,0,0,0-.7.06,4.35,4.35,0,0,0,.69,8.64,5.36,5.36,0,0,0,.7,0,4.35,4.35,0,0,0-.69-8.65Z"/><path d="M128.41,101.19a3.32,3.32,0,0,1-3.3-2.81,3.38,3.38,0,0,1,.59-2.5,3.33,3.33,0,0,1,2.18-1.34,3.29,3.29,0,0,1,.54-.05,3.35,3.35,0,0,1,.53,6.66A3.27,3.27,0,0,1,128.41,101.19Z"/><path class="cls-1" d="M128.42,95.49a2.35,2.35,0,0,1,.37,4.67,2.43,2.43,0,0,1-.38,0,2.35,2.35,0,0,1-.37-4.67,2.43,2.43,0,0,1,.38,0m0-2a4,4,0,0,0-.7.06,4.35,4.35,0,0,0,.69,8.64,4.14,4.14,0,0,0,.7-.06,4.26,4.26,0,0,0,2.83-1.75,4.34,4.34,0,0,0-3.52-6.89Z"/><path d="M125.89,94.73a3.32,3.32,0,0,1-3.3-2.81,3.37,3.37,0,0,1,.59-2.5,3.33,3.33,0,0,1,2.18-1.34,3.29,3.29,0,0,1,.54,0,3.32,3.32,0,0,1,3.3,2.81,3.36,3.36,0,0,1-2.77,3.85A3.27,3.27,0,0,1,125.89,94.73Z"/><path class="cls-1" d="M125.9,89a2.35,2.35,0,0,1,.37,4.67,2.43,2.43,0,0,1-.38,0,2.35,2.35,0,0,1-.37-4.67,2.43,2.43,0,0,1,.38,0m0-2a4.14,4.14,0,0,0-.7.06,4.3,4.3,0,0,0-2.83,1.75,4.34,4.34,0,0,0,3.52,6.89,4,4,0,0,0,.7-.06,4.26,4.26,0,0,0,2.83-1.75A4.34,4.34,0,0,0,125.9,87Z"/><path d="M122.34,88a3.33,3.33,0,0,1-3.3-2.82,3.33,3.33,0,0,1,2.77-3.84,3.23,3.23,0,0,1,.53,0,3.34,3.34,0,0,1,2.72,5.3,3.43,3.43,0,0,1-2.72,1.4Z"/><path class="cls-1" d="M122.34,82.25a2.35,2.35,0,0,1,.38,4.66,1.69,1.69,0,0,1-.38,0,2.35,2.35,0,0,1-.37-4.67,2.31,2.31,0,0,1,.37,0m0-2a5.34,5.34,0,0,0-.69,0,4.35,4.35,0,0,0,.69,8.65,4.14,4.14,0,0,0,.7-.06,4.35,4.35,0,0,0-.7-8.64Z"/><path d="M118.71,80.68a3.35,3.35,0,0,1-.54-6.65,3.44,3.44,0,0,1,.54,0,3.35,3.35,0,0,1,.54,6.65A3.27,3.27,0,0,1,118.71,80.68Z"/><path class="cls-1" d="M118.71,75a2.35,2.35,0,0,1,.38,4.66l-.38,0a2.35,2.35,0,0,1-.38-4.66l.38,0m0-2a4.2,4.2,0,0,0-.7.05,4.35,4.35,0,0,0,.7,8.64,5.49,5.49,0,0,0,.7-.05,4.35,4.35,0,0,0-.7-8.64Z"/><path d="M116.11,73.74a3.35,3.35,0,0,1-.53-6.65,3.27,3.27,0,0,1,.54,0,3.35,3.35,0,0,1,.53,6.65A3.27,3.27,0,0,1,116.11,73.74Z"/><path class="cls-1" d="M116.12,68.05a2.35,2.35,0,0,1,.37,4.66,2.43,2.43,0,0,1-.38,0,2.35,2.35,0,1,1,0-4.69m0-2a5.36,5.36,0,0,0-.7,0,4.35,4.35,0,0,0,.69,8.64,4.12,4.12,0,0,0,.7,0,4.35,4.35,0,0,0-.69-8.64Z"/><path d="M114,66.73a3.35,3.35,0,0,1-.53-6.66,3.27,3.27,0,0,1,.54,0,3.32,3.32,0,0,1,3.3,2.81,3.37,3.37,0,0,1-.59,2.5,3.33,3.33,0,0,1-2.18,1.34A3.29,3.29,0,0,1,114,66.73Z"/><path class="cls-1" d="M114,61a2.35,2.35,0,0,1,.37,4.67,2.43,2.43,0,0,1-.38,0,2.35,2.35,0,0,1-.37-4.67,2.43,2.43,0,0,1,.38,0m0-2a4,4,0,0,0-.7.06,4.35,4.35,0,0,0,.69,8.64,4.14,4.14,0,0,0,.7-.06A4.35,4.35,0,0,0,114,59Z"/><path d="M111.39,59.79a3.35,3.35,0,0,1-2.71-5.31,3.38,3.38,0,0,1,2.18-1.35,4.9,4.9,0,0,1,.54,0,3.32,3.32,0,0,1,3.3,2.81,3.28,3.28,0,0,1-.59,2.5,3.38,3.38,0,0,1-2.18,1.35A4.9,4.9,0,0,1,111.39,59.79Z"/><path class="cls-1" d="M111.4,54.09a2.35,2.35,0,1,1-.38,0,2.43,2.43,0,0,1,.38,0m0-2a4.14,4.14,0,0,0-.7.06,4.35,4.35,0,0,0,.69,8.64,4,4,0,0,0,.7-.06,4.35,4.35,0,0,0-.69-8.64Z"/><path d="M108.88,53.33a3.35,3.35,0,0,1-.54-6.66,3.27,3.27,0,0,1,.54,0,3.35,3.35,0,0,1,.53,6.66A4.91,4.91,0,0,1,108.88,53.33Z"/><path class="cls-1" d="M108.88,47.63a2.35,2.35,0,1,1-.38,0,2.43,2.43,0,0,1,.38,0m0-2a4.14,4.14,0,0,0-.7.06,4.35,4.35,0,0,0,.69,8.64,4,4,0,0,0,.7-.06,4.35,4.35,0,0,0-.69-8.64Z"/><path d="M198.91,150.16a6.9,6.9,0,0,1-6.47-5.83,3.39,3.39,0,0,1,.24-1.56c.12-.36.29-.88.52-1.75a27,27,0,0,0,.59-2.69c.14-.76.31-1.74.64-3.33.94-4.49,1.17-5.07,2.11-5.24l.08,0h.17c1.1,0,1.6,1.05,2.51,2.94A50.9,50.9,0,0,0,202,137.8c.62,1,1.14,1.78,1.56,2.39,1,1.43,1.57,2.29,1.52,3.77a6.62,6.62,0,0,1-5.26,6.12A6.09,6.09,0,0,1,198.91,150.16Z"/><path class="cls-1" d="M196.79,130.73c.86,0,1.52,2.91,4.39,7.59,2.07,3.36,3,3.94,2.94,5.6a5.64,5.64,0,0,1-4.43,5.17,5.14,5.14,0,0,1-.78.07,6,6,0,0,1-5.48-4.93c-.06-.69.15-.73.74-2.95.53-2,.48-2.41,1.24-6.08.89-4.25,1.11-4.42,1.3-4.46h.08m0-2a3.27,3.27,0,0,0-.44,0c-1.71.32-2,1.76-2.89,6-.34,1.6-.52,2.57-.66,3.35-.18,1-.28,1.55-.56,2.61-.23.84-.39,1.34-.51,1.7a4.38,4.38,0,0,0-.29,2,7.87,7.87,0,0,0,7.47,6.73,6.94,6.94,0,0,0,1.11-.1,7.61,7.61,0,0,0,6.09-7.06c.08-1.81-.66-2.88-1.68-4.37-.41-.61-.93-1.36-1.54-2.36a51,51,0,0,1-2.69-5c-1-2-1.68-3.51-3.41-3.51Z"/><path d="M183.71,172.33a6.9,6.9,0,0,1-6.47-5.82,3.35,3.35,0,0,1,.24-1.56c.12-.36.29-.89.53-1.76.29-1.1.4-1.69.58-2.68.14-.76.31-1.75.65-3.34.93-4.48,1.17-5.07,2.1-5.24h.25c1.1,0,1.6,1,2.51,2.94a53.1,53.1,0,0,0,2.74,5.12c.62,1,1.15,1.78,1.57,2.4,1,1.42,1.56,2.29,1.51,3.76a6.6,6.6,0,0,1-5.26,6.12,6,6,0,0,1-.95.08Z"/><path class="cls-1" d="M181.59,152.91c.87,0,1.52,2.9,4.39,7.58,2.07,3.37,3,3.95,2.94,5.6a5.63,5.63,0,0,1-4.43,5.17,4.11,4.11,0,0,1-.78.07,5.92,5.92,0,0,1-5.47-4.92c-.07-.7.14-.74.73-3,.54-2,.48-2.4,1.24-6.07.89-4.25,1.11-4.43,1.31-4.46h.07m0-2a2.18,2.18,0,0,0-.44,0c-1.71.31-2,1.75-2.89,6-.34,1.6-.51,2.58-.66,3.36-.18,1-.28,1.54-.56,2.61-.22.84-.39,1.33-.51,1.7a4.19,4.19,0,0,0-.28,2,7.85,7.85,0,0,0,7.46,6.73,6.83,6.83,0,0,0,1.11-.09,7.65,7.65,0,0,0,6.1-7.07c.07-1.8-.67-2.88-1.69-4.37-.41-.6-.93-1.35-1.54-2.35a52,52,0,0,1-2.69-5c-1-2-1.68-3.5-3.41-3.5Z"/><path d="M139.91,152.47c-3,0-5.21-3.49-5.5-6a3.84,3.84,0,0,1,.13-1.46c.07-.36.18-.87.33-1.73.18-1.09.24-1.68.34-2.66.08-.75.18-1.72.37-3.28.55-4.49.67-5.07,1.63-5.25l.09,0h.14c1,0,1.42.95,2.26,3,.51,1.29,1.22,3.06,2.29,5.21.52,1,.95,1.82,1.3,2.45a7,7,0,0,1,1.26,3.66c0,2.6-1.47,5.54-4,6a4.44,4.44,0,0,1-.62.05Z"/><path class="cls-1" d="M137.44,133.08c.67,0,1.27,2.91,3.66,7.7,1.7,3.43,2.44,4,2.45,5.68,0,2.11-1.16,4.63-3.18,5a2.32,2.32,0,0,1-.46,0c-2.3,0-4.26-2.93-4.51-5.1-.07-.7.09-.73.45-2.91.34-2,.28-2.38.72-6,.51-4.19.68-4.36.82-4.39h.05m0-2h-.19l-.23,0c-1.73.33-1.88,1.55-2.43,6.11-.2,1.57-.29,2.53-.37,3.3-.1,1-.16,1.54-.34,2.6-.14.83-.24,1.32-.32,1.68a4.66,4.66,0,0,0-.14,1.78c.32,2.81,2.82,6.88,6.49,6.88a4.15,4.15,0,0,0,.79-.07c3.19-.54,4.88-4,4.85-7a7.94,7.94,0,0,0-1.39-4.14c-.34-.61-.76-1.38-1.27-2.41-1-2.11-1.75-3.86-2.26-5.14-.89-2.21-1.48-3.67-3.19-3.67Z"/><path d="M149.79,203.16c-3,0-5.22-3.49-5.51-6a3.8,3.8,0,0,1,.13-1.46c.07-.35.18-.87.33-1.73.18-1.09.24-1.68.34-2.66.08-.75.18-1.72.37-3.28.55-4.48.67-5.06,1.62-5.25l.1,0h.14c1,0,1.42,1,2.26,3,.51,1.29,1.22,3.06,2.29,5.21.52,1.05.95,1.82,1.3,2.45a7,7,0,0,1,1.26,3.66c0,2.6-1.47,5.54-4,6a3.31,3.31,0,0,1-.62,0Z"/><path class="cls-1" d="M147.31,183.77c.67,0,1.27,2.92,3.66,7.71,1.7,3.42,2.44,4,2.45,5.67,0,2.11-1.16,4.63-3.18,5a2.32,2.32,0,0,1-.46,0c-2.3,0-4.26-2.92-4.51-5.1-.07-.69.09-.73.45-2.91.34-2,.28-2.37.72-6,.51-4.19.68-4.36.82-4.39h.05m0-2h-.19l-.23,0c-1.73.33-1.88,1.55-2.43,6.11-.2,1.57-.3,2.53-.37,3.3-.1,1-.16,1.54-.34,2.6-.14.83-.24,1.32-.32,1.68a4.66,4.66,0,0,0-.14,1.78c.32,2.82,2.82,6.88,6.49,6.88a5.16,5.16,0,0,0,.79-.06c3.19-.54,4.88-4,4.85-7A7.89,7.89,0,0,0,154,193c-.34-.62-.76-1.39-1.27-2.42-1-2.11-1.75-3.86-2.26-5.13-.89-2.22-1.48-3.68-3.19-3.68Z"/><path d="M204.74,235.44a6.9,6.9,0,0,1-6.47-5.82,3.35,3.35,0,0,1,.24-1.56c.12-.36.29-.89.53-1.75.29-1.11.4-1.7.58-2.69.14-.76.32-1.74.65-3.33.93-4.49,1.16-5.08,2.1-5.25h.25c1.1,0,1.6,1,2.51,2.94a53.1,53.1,0,0,0,2.74,5.12c.62,1,1.15,1.79,1.57,2.4,1,1.43,1.56,2.29,1.51,3.76a6.6,6.6,0,0,1-5.26,6.12,5,5,0,0,1-.95.08Z"/><path class="cls-1" d="M202.62,216c.87,0,1.52,2.9,4.39,7.58,2.07,3.37,3,4,2.94,5.6a5.64,5.64,0,0,1-4.43,5.18,5.12,5.12,0,0,1-.78.06,5.92,5.92,0,0,1-5.47-4.92c-.07-.69.14-.73.73-3,.54-2,.48-2.4,1.24-6.07.89-4.25,1.11-4.43,1.31-4.46h.07m0-2a2.18,2.18,0,0,0-.44,0c-1.71.31-2,1.75-2.89,6-.34,1.6-.51,2.58-.66,3.36-.18,1-.28,1.55-.56,2.61-.22.84-.39,1.34-.51,1.7a4.19,4.19,0,0,0-.28,2,7.84,7.84,0,0,0,7.46,6.73,6.83,6.83,0,0,0,1.11-.09,7.65,7.65,0,0,0,6.1-7.07c.07-1.8-.67-2.88-1.69-4.37-.41-.6-.93-1.35-1.54-2.35a53.28,53.28,0,0,1-2.69-5c-1-2-1.68-3.51-3.41-3.51Z"/><path d="M228.6,207a6.91,6.91,0,0,1-6.48-5.83,3.21,3.21,0,0,1,.25-1.55c.12-.36.29-.89.52-1.76.29-1.1.4-1.69.58-2.68.14-.77.32-1.75.65-3.34.93-4.48,1.17-5.07,2.1-5.24h.25c1.1,0,1.6,1,2.51,2.94a53.1,53.1,0,0,0,2.74,5.12c.63,1,1.15,1.78,1.57,2.4,1,1.42,1.57,2.29,1.51,3.76a6.6,6.6,0,0,1-5.26,6.12,6,6,0,0,1-.94.08Z"/><path class="cls-1" d="M226.47,187.62c.87,0,1.53,2.9,4.4,7.58,2.06,3.37,3,4,2.93,5.6a5.62,5.62,0,0,1-4.43,5.17,4.08,4.08,0,0,1-.77.07,5.92,5.92,0,0,1-5.48-4.92c-.07-.7.14-.74.74-3,.53-2,.47-2.4,1.24-6.07.88-4.25,1.11-4.43,1.3-4.47h.07m0-2a2.09,2.09,0,0,0-.43,0c-1.71.31-2,1.75-2.9,6-.33,1.6-.51,2.58-.65,3.36a26.31,26.31,0,0,1-.57,2.61c-.22.84-.38,1.33-.5,1.7a4.18,4.18,0,0,0-.29,2A7.86,7.86,0,0,0,228.6,208a6.92,6.92,0,0,0,1.11-.09,7.65,7.65,0,0,0,6.09-7.07c.07-1.8-.67-2.88-1.69-4.37-.41-.6-.92-1.35-1.54-2.35a52,52,0,0,1-2.69-5c-1-2-1.68-3.5-3.41-3.5Z"/><path d="M144.23,213.88a3.32,3.32,0,0,1-3.3-2.81,3.37,3.37,0,0,1,.59-2.5,3.33,3.33,0,0,1,2.18-1.34,3.29,3.29,0,0,1,.54,0,3.35,3.35,0,0,1,.53,6.66A3.27,3.27,0,0,1,144.23,213.88Z"/><path class="cls-1" d="M144.24,208.18a2.35,2.35,0,0,1,.37,4.67,2.43,2.43,0,0,1-.38,0,2.35,2.35,0,0,1-.37-4.67,2.43,2.43,0,0,1,.38,0m0-2a4.14,4.14,0,0,0-.7.06,4.35,4.35,0,0,0,.69,8.64,4,4,0,0,0,.7-.06,4.35,4.35,0,0,0-.69-8.64Z"/><path d="M160,226.53a3.35,3.35,0,0,1-.53-6.65,3.27,3.27,0,0,1,.54,0,3.35,3.35,0,0,1,.53,6.65A3.27,3.27,0,0,1,160,226.53Z"/><path class="cls-1" d="M160.05,220.84a2.34,2.34,0,1,1-.38,0,2.43,2.43,0,0,1,.38,0m0-2h0a5.49,5.49,0,0,0-.7,0,4.35,4.35,0,0,0,.69,8.64,5.36,5.36,0,0,0,.7-.05,4.35,4.35,0,0,0-.69-8.64Z"/><path d="M171.16,231.59a3.35,3.35,0,0,1-.53-6.65,3.27,3.27,0,0,1,.54,0,3.35,3.35,0,0,1,.53,6.65A3.27,3.27,0,0,1,171.16,231.59Z"/><path class="cls-1" d="M171.17,225.9a2.35,2.35,0,0,1,.37,4.66,1.58,1.58,0,0,1-.38,0,2.35,2.35,0,0,1-.37-4.67l.38,0m0-2a4.14,4.14,0,0,0-.7.06,4.34,4.34,0,0,0-3.59,5,4.32,4.32,0,0,0,4.28,3.66,4,4,0,0,0,.7-.06,4.35,4.35,0,0,0-.69-8.64Z"/><path d="M176.33,233.21a3.35,3.35,0,0,1-.53-6.65,3.29,3.29,0,0,1,.54-.05,3.35,3.35,0,0,1,.53,6.66A3.27,3.27,0,0,1,176.33,233.21Z"/><path class="cls-1" d="M176.34,227.51a2.35,2.35,0,0,1,.37,4.67,2.43,2.43,0,0,1-.38,0,2.35,2.35,0,1,1,0-4.7m0-2h0a4,4,0,0,0-.7.06,4.35,4.35,0,0,0,.69,8.64,4.14,4.14,0,0,0,.7-.06,4.34,4.34,0,0,0,3.59-5,4.32,4.32,0,0,0-4.28-3.66Z"/><path d="M182.62,232.68a3.35,3.35,0,0,1-.53-6.65,3.27,3.27,0,0,1,.54,0,3.35,3.35,0,0,1,.53,6.65A3.27,3.27,0,0,1,182.62,232.68Z"/><path class="cls-1" d="M182.63,227a2.35,2.35,0,0,1,.37,4.67,2.43,2.43,0,0,1-.38,0,2.35,2.35,0,0,1-.37-4.66,1.58,1.58,0,0,1,.38,0m0-2h0a4,4,0,0,0-.7.06,4.35,4.35,0,0,0,.69,8.64,4.14,4.14,0,0,0,.7-.06,4.35,4.35,0,0,0-.69-8.64Z"/><path d="M188.35,231.75a3.35,3.35,0,0,1-.53-6.65,3.27,3.27,0,0,1,.54,0,3.32,3.32,0,0,1,3.3,2.81,3.27,3.27,0,0,1-.59,2.49,3.31,3.31,0,0,1-2.18,1.35A3.27,3.27,0,0,1,188.35,231.75Z"/><path class="cls-1" d="M188.36,226.05a2.4,2.4,0,1,1-.38,0,1.69,1.69,0,0,1,.38,0m0-2a4.14,4.14,0,0,0-.7.06,4.36,4.36,0,0,0-2.83,1.75,4.35,4.35,0,0,0,3.52,6.89,4,4,0,0,0,.7-.06,4.35,4.35,0,0,0-.69-8.64Z"/><path d="M193.22,228.51a3.35,3.35,0,0,1-.53-6.65,3.29,3.29,0,0,1,.54-.05,3.35,3.35,0,0,1,.53,6.65A3.29,3.29,0,0,1,193.22,228.51Z"/><path class="cls-1" d="M193.23,222.81a2.35,2.35,0,1,1-.38,0,2.43,2.43,0,0,1,.38,0m0-2a4.14,4.14,0,0,0-.7.06,4.35,4.35,0,0,0,.69,8.64,4,4,0,0,0,.7-.06,4.35,4.35,0,0,0-.69-8.64Z"/><path d="M197.94,224.31a3.32,3.32,0,0,1-3.3-2.81,3.33,3.33,0,0,1,3.3-3.88,3.35,3.35,0,0,1,.54,6.65A3.27,3.27,0,0,1,197.94,224.31Z"/><path class="cls-1" d="M197.94,218.62a2.35,2.35,0,0,1,.38,4.66l-.38,0a2.34,2.34,0,0,1-.37-4.66,2.31,2.31,0,0,1,.37,0m0-2h0a4,4,0,0,0-.69,0,4.35,4.35,0,0,0,.69,8.64,4.14,4.14,0,0,0,.7-.06,4.34,4.34,0,0,0-.7-8.63Z"/><path d="M165.52,230.06a3.35,3.35,0,0,1-.53-6.65,3.27,3.27,0,0,1,.53,0,3.35,3.35,0,0,1,.54,6.66A4.9,4.9,0,0,1,165.52,230.06Z"/><path class="cls-1" d="M165.53,224.36a2.35,2.35,0,0,1,.37,4.67l-.38,0a2.35,2.35,0,1,1,0-4.7m0-2h0a4,4,0,0,0-.7.06,4.35,4.35,0,0,0,.69,8.64,4.14,4.14,0,0,0,.7-.06,4.34,4.34,0,0,0,3.59-5,4.32,4.32,0,0,0-4.28-3.65Z"/><path d="M155,222.93a3.34,3.34,0,0,1-3.3-2.81,3.34,3.34,0,0,1,2.77-3.84,3.29,3.29,0,0,1,.54-.05,3.33,3.33,0,0,1,3.3,2.82,3.27,3.27,0,0,1-.59,2.49,3.35,3.35,0,0,1-2.18,1.35A3.27,3.27,0,0,1,155,222.93Z"/><path class="cls-1" d="M155.05,217.23a2.35,2.35,0,0,1,.37,4.67,2.31,2.31,0,0,1-.37,0,2.35,2.35,0,0,1-.38-4.67l.38,0m0-2a4.14,4.14,0,0,0-.7.06,4.36,4.36,0,0,0-2.83,1.75,4.35,4.35,0,0,0,3.53,6.89,4,4,0,0,0,.69-.06,4.35,4.35,0,0,0-.69-8.64Z"/><path d="M150,218.84a3.34,3.34,0,0,1-2.72-5.3,3.35,3.35,0,0,1,6,1.42,3.35,3.35,0,0,1-2.77,3.84A3.23,3.23,0,0,1,150,218.84Z"/><path class="cls-1" d="M150,213.14a2.4,2.4,0,1,1-.38,0,1.69,1.69,0,0,1,.38,0m0-2a4.14,4.14,0,0,0-.7.06,4.35,4.35,0,0,0,.69,8.64,5.36,5.36,0,0,0,.7-.05,4.35,4.35,0,0,0-.69-8.65Z"/><path d="M138.2,166a3.35,3.35,0,0,1-.53-6.66,4.9,4.9,0,0,1,.54,0,3.35,3.35,0,0,1,.53,6.65A3.29,3.29,0,0,1,138.2,166Z"/><path class="cls-1" d="M138.21,160.34a2.35,2.35,0,0,1,.37,4.67,2.43,2.43,0,0,1-.38,0,2.35,2.35,0,1,1,0-4.7m0-2a4,4,0,0,0-.7.06,4.26,4.26,0,0,0-2.83,1.75A4.34,4.34,0,0,0,138.2,167a4.14,4.14,0,0,0,.7-.06,4.35,4.35,0,0,0-.69-8.64Z"/><path d="M149.32,171.1a3.32,3.32,0,0,1-3.3-2.81,3.37,3.37,0,0,1,.59-2.5,3.33,3.33,0,0,1,2.18-1.34,3.29,3.29,0,0,1,.54,0,3.35,3.35,0,0,1,2.71,5.31,3.38,3.38,0,0,1-2.18,1.35A4.9,4.9,0,0,1,149.32,171.1Z"/><path class="cls-1" d="M149.33,165.4a2.35,2.35,0,0,1,.37,4.67,2.43,2.43,0,0,1-.38,0,2.35,2.35,0,1,1,0-4.7m0-2a4,4,0,0,0-.7.06,4.35,4.35,0,0,0,.69,8.64,4.14,4.14,0,0,0,.7-.06,4.35,4.35,0,0,0-.69-8.64Z"/><path d="M154.49,172.71a3.35,3.35,0,0,1-.54-6.65,3.27,3.27,0,0,1,.54,0,3.35,3.35,0,0,1,.54,6.65A3.44,3.44,0,0,1,154.49,172.71Z"/><path class="cls-1" d="M154.49,167a2.35,2.35,0,0,1,.38,4.66l-.38,0a2.35,2.35,0,0,1-.38-4.66l.38,0m0-2h0a5.49,5.49,0,0,0-.7,0,4.36,4.36,0,0,0-2.83,1.75,4.35,4.35,0,0,0,3.53,6.89,5.62,5.62,0,0,0,.7-.05,4.36,4.36,0,0,0,2.83-1.75,4.35,4.35,0,0,0-3.53-6.89Z"/><path d="M160.78,172.18a3.35,3.35,0,0,1-.54-6.65,3.27,3.27,0,0,1,.54,0,3.35,3.35,0,0,1,.53,6.65A3.23,3.23,0,0,1,160.78,172.18Z"/><path class="cls-1" d="M160.78,166.49a2.35,2.35,0,0,1,.38,4.66l-.38,0a2.35,2.35,0,0,1-.38-4.66l.38,0m0-2a4.14,4.14,0,0,0-.7.06,4.34,4.34,0,0,0,.7,8.63,4.2,4.2,0,0,0,.7-.05,4.36,4.36,0,0,0,2.83-1.75,4.35,4.35,0,0,0-3.53-6.89Z"/><path d="M166.51,171.25a3.35,3.35,0,0,1-.53-6.65,3.27,3.27,0,0,1,.54,0,3.35,3.35,0,0,1,.53,6.65A3.27,3.27,0,0,1,166.51,171.25Z"/><path class="cls-1" d="M166.52,165.56a2.35,2.35,0,0,1,.37,4.66,2.43,2.43,0,0,1-.38,0,2.35,2.35,0,0,1-.37-4.66,2.43,2.43,0,0,1,.38,0m0-2a4,4,0,0,0-.7.06,4.28,4.28,0,0,0-2.83,1.74,4.34,4.34,0,0,0,3.52,6.89,4.12,4.12,0,0,0,.7-.05,4.35,4.35,0,0,0-.69-8.64Z"/><path d="M171.38,168a3.34,3.34,0,0,1-2.71-5.3,3.3,3.3,0,0,1,2.72-1.39,3.35,3.35,0,0,1,.53,6.65A3.27,3.27,0,0,1,171.38,168Z"/><path class="cls-1" d="M171.39,162.32a2.35,2.35,0,0,1,.37,4.66,2.43,2.43,0,0,1-.38,0,2.35,2.35,0,1,1,0-4.69m0-2a5.36,5.36,0,0,0-.7.05,4.35,4.35,0,0,0,.69,8.64,5.49,5.49,0,0,0,.7,0,4.35,4.35,0,0,0-.69-8.64Z"/><path d="M176.09,163.81a3.35,3.35,0,0,1-.53-6.65,3.27,3.27,0,0,1,.54,0,3.34,3.34,0,0,1,2.71,5.3,3.3,3.3,0,0,1-2.72,1.39Z"/><path class="cls-1" d="M176.1,158.12a2.34,2.34,0,1,1-.38,0l.38,0m0-2a4.14,4.14,0,0,0-.7.06,4.34,4.34,0,0,0,.69,8.63,4,4,0,0,0,.7-.05,4.35,4.35,0,0,0-.69-8.64Z"/><path d="M143.68,169.56a3.35,3.35,0,0,1-.54-6.65,3.27,3.27,0,0,1,.54,0,3.35,3.35,0,0,1,.54,6.65A3.44,3.44,0,0,1,143.68,169.56Z"/><path class="cls-1" d="M143.68,163.87a2.35,2.35,0,0,1,.38,4.66l-.38,0a2.35,2.35,0,0,1-.38-4.66l.38,0m0-2h0a5.49,5.49,0,0,0-.7,0,4.35,4.35,0,0,0,.7,8.64,5.62,5.62,0,0,0,.7-.05,4.35,4.35,0,0,0-.7-8.64Z"/><path d="M133.2,162.43a3.35,3.35,0,0,1-.53-6.65,3.27,3.27,0,0,1,.54,0,3.35,3.35,0,0,1,.53,6.65A3.27,3.27,0,0,1,133.2,162.43Z"/><path class="cls-1" d="M133.21,156.74a2.35,2.35,0,0,1,.37,4.66,2.43,2.43,0,0,1-.38,0,2.35,2.35,0,0,1-.37-4.66,2.43,2.43,0,0,1,.38,0m0-2a5.36,5.36,0,0,0-.7,0,4.35,4.35,0,0,0,.69,8.64,5.49,5.49,0,0,0,.7-.05,4.35,4.35,0,0,0-.69-8.64Z"/><path d="M127.68,157.19a3.35,3.35,0,0,1-.53-6.65,3.27,3.27,0,0,1,.54,0,3.35,3.35,0,0,1,.53,6.65A3.27,3.27,0,0,1,127.68,157.19Z"/><path class="cls-1" d="M127.69,151.49a2.35,2.35,0,0,1,.37,4.67,2.43,2.43,0,0,1-.38,0,2.34,2.34,0,0,1-.37-4.66,1.58,1.58,0,0,1,.38,0m0-2a4,4,0,0,0-.7.06,4.35,4.35,0,0,0,.69,8.64,5.49,5.49,0,0,0,.7-.05,4.35,4.35,0,0,0-.69-8.65Z"/><path d="M142.79,242.34a3.56,3.56,0,0,1-.65-.05,4.15,4.15,0,0,1,.64-8.25,4.72,4.72,0,0,1,.64.05,4.15,4.15,0,0,1-.63,8.25Z"/><path class="cls-1" d="M142.78,235a4.22,4.22,0,0,1,.49,0,3.15,3.15,0,0,1-.49,6.26,2.77,2.77,0,0,1-.49,0,3.15,3.15,0,0,1,.49-6.26m0-2h0a5.15,5.15,0,0,0-.79,10.24,5.25,5.25,0,0,0,.79.06,5.15,5.15,0,0,0,.8-10.23,5.52,5.52,0,0,0-.8-.07Z"/><path d="M151.12,248.35a4.6,4.6,0,0,1-.64,0,4.15,4.15,0,0,1,.63-8.25,4.74,4.74,0,0,1,.65,0,4.15,4.15,0,0,1-.64,8.25Z"/><path class="cls-1" d="M151.11,241.05a3.89,3.89,0,0,1,.49,0,3.15,3.15,0,0,1-.48,6.26,2.77,2.77,0,0,1-.49,0,3.15,3.15,0,0,1,.48-6.26m0-2h0a5.15,5.15,0,0,0-.79,10.24,5.49,5.49,0,0,0,.8.06,5.15,5.15,0,0,0,.79-10.23,4.25,4.25,0,0,0-.8-.07Z"/><path d="M159.55,251.89a4.87,4.87,0,0,1-.65,0,4.15,4.15,0,0,1,.64-8.25,4.87,4.87,0,0,1,.65,0,4.15,4.15,0,0,1-.64,8.25Z"/><path class="cls-1" d="M159.54,244.59a4,4,0,0,1,.49,0,3.15,3.15,0,0,1-.48,6.26,2.7,2.7,0,0,1-.49,0,3.15,3.15,0,0,1,.48-6.26m0-2h0a5.15,5.15,0,0,0-.79,10.24,5.29,5.29,0,0,0,.8.06,5.15,5.15,0,0,0,.79-10.23,4.25,4.25,0,0,0-.8-.07Z"/><path d="M169.81,254.64a3.45,3.45,0,0,1-.64,0,4.15,4.15,0,0,1,.63-8.25,4.74,4.74,0,0,1,.65,0,4.15,4.15,0,0,1-.64,8.25Z"/><path class="cls-1" d="M169.8,247.34a4,4,0,0,1,.49,0,3.15,3.15,0,0,1-.48,6.26,2.77,2.77,0,0,1-.49,0,3.15,3.15,0,0,1,.48-6.26m0-2h0a5.15,5.15,0,0,0-.79,10.24,5.49,5.49,0,0,0,.8.06,5.15,5.15,0,0,0,.79-10.23,5.29,5.29,0,0,0-.8-.07Z"/><path d="M179.69,255A3.56,3.56,0,0,1,179,255a4.1,4.1,0,0,1-2.71-1.65,4.14,4.14,0,0,1,3.35-6.59,3.45,3.45,0,0,1,.64,0,4.14,4.14,0,0,1-.63,8.24Z"/><path class="cls-1" d="M179.68,247.71l.49,0a3.15,3.15,0,0,1-.48,6.26,3.91,3.91,0,0,1-.49,0,3.15,3.15,0,0,1,.48-6.26m0-2h0a5.15,5.15,0,0,0-.79,10.23,5.29,5.29,0,0,0,.8.06,5.15,5.15,0,0,0,.79-10.23,5.49,5.49,0,0,0-.8-.06Z"/><path d="M188.77,253.53a4.72,4.72,0,0,1-.64-.05,4.15,4.15,0,0,1,.64-8.25,4.72,4.72,0,0,1,.64.05,4.15,4.15,0,0,1-.64,8.25Z"/><path class="cls-1" d="M188.76,246.23a2.63,2.63,0,0,1,.49,0,3.15,3.15,0,0,1-.48,6.26,2.77,2.77,0,0,1-.49,0,3.15,3.15,0,0,1,.48-6.26m0-2h0a5.15,5.15,0,0,0-.79,10.24,5.49,5.49,0,0,0,.8.06,5.15,5.15,0,0,0,.79-10.24,5.29,5.29,0,0,0-.8-.06Z"/><path d="M199,249.91a4.72,4.72,0,0,1-.64,0,4.15,4.15,0,0,1,.63-8.25,4.74,4.74,0,0,1,.65,0,4.15,4.15,0,0,1-.64,8.25Z"/><path class="cls-1" d="M199,242.61a3.89,3.89,0,0,1,.49,0,3.15,3.15,0,0,1-.48,6.26,2.77,2.77,0,0,1-.49,0,3.15,3.15,0,0,1,.48-6.26m0-2h0a5.15,5.15,0,0,0-.79,10.24,5.49,5.49,0,0,0,.8.06,5.15,5.15,0,0,0,.79-10.23,4.22,4.22,0,0,0-.79-.07Z"/><path d="M135.48,236.66a4.6,4.6,0,0,1-.64,0,4.15,4.15,0,0,1,.63-8.25,4.74,4.74,0,0,1,.65,0,4.15,4.15,0,0,1-.64,8.25Z"/><path class="cls-1" d="M135.47,229.36a2.63,2.63,0,0,1,.49,0,3.15,3.15,0,0,1-.48,6.26,4.22,4.22,0,0,1-.49,0,3.15,3.15,0,0,1,.48-6.26m0-2h0a5.15,5.15,0,0,0-.79,10.24,5.49,5.49,0,0,0,.8.06,5.15,5.15,0,0,0,.79-10.24,5.29,5.29,0,0,0-.8-.06Z"/><path d="M206.48,244.74a3.45,3.45,0,0,1-.64-.05,4.15,4.15,0,0,1-3.46-4.73,4.12,4.12,0,0,1,4.09-3.51,3.56,3.56,0,0,1,.65.05,4.14,4.14,0,0,1-.64,8.24Z"/><path class="cls-1" d="M206.47,237.45a2.7,2.7,0,0,1,.49,0,3.14,3.14,0,0,1-.48,6.25l-.49,0a3.15,3.15,0,0,1,.48-6.26m0-2h0a5.15,5.15,0,0,0-.79,10.23,5.49,5.49,0,0,0,.8.06,5.15,5.15,0,0,0,.79-10.23,5.29,5.29,0,0,0-.8-.06Z"/><path d="M213.36,238.72a3.56,3.56,0,0,1-.65-.05,4.14,4.14,0,0,1,.64-8.24,3.52,3.52,0,0,1,.64,0,4.15,4.15,0,0,1,3.46,4.73A4.12,4.12,0,0,1,213.36,238.72Z"/><path class="cls-1" d="M213.35,231.43l.49,0a3.15,3.15,0,0,1-.48,6.26,2.63,2.63,0,0,1-.49,0,3.14,3.14,0,0,1,.48-6.25m0-2h0a5.15,5.15,0,0,0-.79,10.23,5.29,5.29,0,0,0,.8.06,5.15,5.15,0,0,0,.79-10.23,5.49,5.49,0,0,0-.8-.06Z"/><path d="M217.3,229.74a3.56,3.56,0,0,1-.65-.05,4.15,4.15,0,0,1,.64-8.25,4.6,4.6,0,0,1,.64.05,4.15,4.15,0,0,1-.63,8.25Z"/><path class="cls-1" d="M217.29,222.44a4.22,4.22,0,0,1,.49,0,3.15,3.15,0,0,1-.48,6.26,2.7,2.7,0,0,1-.49,0,3.15,3.15,0,0,1,.48-6.26m0-2h0a5.15,5.15,0,0,0-.79,10.24,5.29,5.29,0,0,0,.8.06,5.15,5.15,0,0,0,.79-10.23,5.52,5.52,0,0,0-.8-.07Z"/><path d="M218.29,220.75a4.6,4.6,0,0,1-.64-.05,4.15,4.15,0,0,1,.63-8.25,4.74,4.74,0,0,1,.65.05,4.15,4.15,0,0,1-.64,8.25Z"/><path class="cls-1" d="M218.28,213.45a2.63,2.63,0,0,1,.49,0,3.15,3.15,0,0,1-.48,6.26,2.77,2.77,0,0,1-.49,0,3.15,3.15,0,0,1,.48-6.26m0-2h0a5.15,5.15,0,0,0-.79,10.24,5.49,5.49,0,0,0,.8.06,5.15,5.15,0,0,0,.79-10.24,5.29,5.29,0,0,0-.8-.06Z"/><path d="M217.37,212.07a4.72,4.72,0,0,1-.64,0,4.15,4.15,0,0,1,.64-8.25,3.52,3.52,0,0,1,.64,0,4.15,4.15,0,0,1-.64,8.25Z"/><path class="cls-1" d="M217.37,204.77a2.77,2.77,0,0,1,.49,0,3.15,3.15,0,0,1-.49,6.26,4.22,4.22,0,0,1-.49,0,3.15,3.15,0,0,1,.49-6.26m0-2h0a5.14,5.14,0,0,0-.79,10.23,5.27,5.27,0,0,0,.79.07,5.15,5.15,0,0,0,.79-10.24,5.25,5.25,0,0,0-.79-.06Z"/><path d="M50.36,241.28c-.74,0-1.49,0-2.21-.07-3.76-.25-13.73-.92-20.09-7.93a38.55,38.55,0,0,1-2.77-3.58c-2-2.78-3.83-5.41-7.2-6.17a21.64,21.64,0,0,0-3.29-.36c-1.92-.1-3.31-.18-3.53-1.41-.18-1,.79-1.57,1.57-2a6.67,6.67,0,0,0,.79-.48,14.84,14.84,0,0,0-1.4-.57,22.61,22.61,0,0,1-5-2.42c-.24-.16-5.85-4-4.63-6.46a1.74,1.74,0,0,1,1.7-.91,11.22,11.22,0,0,1,1.63.2,15.86,15.86,0,0,0,2.87.31,8.66,8.66,0,0,0,3.11-.55,7.87,7.87,0,0,0,1.6-.83,18.5,18.5,0,0,1-.56-2.63c-.13-.77-.29-1.69-.51-2.82-.18-.87-.35-1.65-.5-2.33-.62-2.81-1-4.5.25-5.61a3,3,0,0,1,1.53-.67l.13,0a11,11,0,0,0-.79-1.33l-.57-.93c-1.43-2.38-2.78-4.62-2.36-6.91a4.25,4.25,0,0,1,1.66-2.58,5.16,5.16,0,0,0,1.59-2.08,6.67,6.67,0,0,0,.41-3.42c-.07-.74-.15-1.75.79-2.14a1.46,1.46,0,0,1,.52-.09c1,0,2.09,1,2.86,1.83,2,2.16,4,5.82,3.62,9.64a16.38,16.38,0,0,1-1.8,5.56c-.24.5-.54,1.13-.68,1.54a4.26,4.26,0,0,1,.78-.08,2.74,2.74,0,0,1,1.14.24c1.59.68,1.77,2.55,2.08,5.65l.14,1.4c.14,1.4.29,2.55.41,3.49a16,16,0,0,1,.25,3.66H24a4.28,4.28,0,0,0,2.24-.77,16.27,16.27,0,0,1,1.82-.9,15.41,15.41,0,0,1,5.78-1.09c3.1,0,5.33.88,5.95,2.36,1.47,3.5-6.33,9-6.41,9.08a21.83,21.83,0,0,1-3.47,2c-1.22.58-1.65.82-1.92,1.47-.79,2,.81,5.59,3.75,6.84a6.07,6.07,0,0,0,2.39.47,7.24,7.24,0,0,0,5.09-1.94,4.44,4.44,0,0,0-2.72-.88,3.6,3.6,0,0,0-1.08.16,3.76,3.76,0,0,0-1.49,1.07,2.56,2.56,0,0,1-1.78,1,1.83,1.83,0,0,1-.4,0A2.34,2.34,0,0,1,30.33,225a5.2,5.2,0,0,1-.4-3.82c.76-2.47,3.72-3.9,6.25-4h.4a8.53,8.53,0,0,1,4.73,1.63,3.81,3.81,0,0,0,1.57.74.64.64,0,0,0,.23-.05c.54-.21.68-1.16.87-2.71A12.57,12.57,0,0,1,46,210.4a12.74,12.74,0,0,1,10-4.82,11.56,11.56,0,0,1,4.37.84c5.15,2.09,8.41,7.69,7.43,12.76-.72,3.73-3.93,7.95-8.46,8.43a8.27,8.27,0,0,1-.86,0,9.74,9.74,0,0,1-7.29-3.42,1.77,1.77,0,0,1-.37-1.63c.14-.42.54-.92,1.62-.92a14.06,14.06,0,0,1,1.88.2,20.46,20.46,0,0,0,3,.3,3.6,3.6,0,0,0,2.85-.92c1-1.21.56-3.51-.11-4.77A7,7,0,0,0,54,213.21a5.22,5.22,0,0,0-3.2,1c-1.74,1.32-2.23,3.87-1.94,5.82.69,4.55,6.29,8.69,11.76,8.69a9.29,9.29,0,0,0,1.85-.18c4.53-.92,7-5.38,9.06-9,3.71-6.58,4-11.34,4.26-15.95.27-4.41.51-8.58,3.61-13.83,4.52-7.68,12.8-13.23,21.08-14.14a26.66,26.66,0,0,1,3-.16,14.94,14.94,0,0,1,6,1c0-1.73-1-2.86-2.84-4.76a27.55,27.55,0,0,1-4.28-5.29A22.48,22.48,0,0,1,99.3,156c-2.07-.44-3.65-2.71-5.46-5.31-2.37-3.42-5.33-7.68-10.28-9.13a15.81,15.81,0,0,0-4.49-.7,9,9,0,0,0-4.89,1.28c-3.49,2.21-3.78,6.72-4.11,11.94-.38,5.9-.81,12.58-6.06,17.62a17.3,17.3,0,0,1-10.67,4.87l-1,0a18.25,18.25,0,0,1-11.22-4.26,11.34,11.34,0,0,1-2.71-3.25,11,11,0,0,0-2.25-2.85,22.16,22.16,0,0,0-8.27-4.61c-1.76-.62-3-1.07-2.86-2.33a1.53,1.53,0,0,1,.18-.52,13.45,13.45,0,0,1-3.55-1.25c-3.4-1.79-6.47-5.44-5.46-7.82.59-1.38,2.22-1.74,3.41-2a7.76,7.76,0,0,1,1.68-.2,8.56,8.56,0,0,1,2.38.39,6,6,0,0,0,1.66.29,3.33,3.33,0,0,0,.76-.08A3.59,3.59,0,0,0,28.09,147l.31-.27a16.12,16.12,0,0,1-.61-2.76c-.13-.77-.29-1.7-.52-2.83-.17-.87-.34-1.65-.5-2.33-.61-2.81-1-4.5.25-5.61a3,3,0,0,1,1.53-.67l.14,0a15.61,15.61,0,0,0-1.33-2.19c-2.56-3.85-3-4.5-3-5.1-.08-1.22.45-1.9,1.25-2.93a33.16,33.16,0,0,0,2.61-3.84l.49-.87c.51-.89.78-1.38,1.54-1.6a2.61,2.61,0,0,1,.64-.08c1.75,0,3.47,1.74,4.13,2.5a9.88,9.88,0,0,1,2.72,7.47,10.93,10.93,0,0,1-2.89,5.37l-.23.28h0a3,3,0,0,1,1.21.24c1.59.69,1.77,2.45,2.08,5.65l.14,1.4c.15,1.41.3,2.56.42,3.5.3,2.34.46,3.63,0,4.55l.1.1c.3.33.4.44.67.51a1.24,1.24,0,0,0,.27,0c.58,0,1.24-.54,2.07-1.23A12.24,12.24,0,0,1,45.45,144a10.45,10.45,0,0,1,3.32-.52c2.52,0,5.38.84,6.06,2.73.85,2.37-2,5.2-5.83,8.38a3.76,3.76,0,0,1,1.15-.23,1.34,1.34,0,0,1,1.1.5c.72,1-.21,1.89-1.39,3.06-1.44,1.42-3.61,3.56-3.45,5.66.21,2.74,4.4,6,7.73,6a3.92,3.92,0,0,0,1.36-.22c3-1.06,4-6.47,5.27-13.95.32-1.84.54-3.52.74-5.16.53-4.16,1-8.1,3.27-12.92a17,17,0,0,1,2.46-4A18.79,18.79,0,0,1,81.17,127a18.19,18.19,0,0,1,5.36.83,9.54,9.54,0,0,1-1.35-5.74,9,9,0,0,1,2.28-4.9,7.21,7.21,0,0,1,5.2-2.66,4.26,4.26,0,0,1,.5,0,7.05,7.05,0,0,1,5,3.29,5.34,5.34,0,0,1,.79,4.58c-.64,1.85-2.78,3.92-4.69,3.92a3.13,3.13,0,0,1-.44,0,1.91,1.91,0,0,1-1.69-1.64c0-.94.78-1.41,1.43-1.78A3.51,3.51,0,0,0,95,121.66a1.88,1.88,0,0,0-.09-1.88,2,2,0,0,0-1.64-.69h-.21a4,4,0,0,0-3,2.7,3.42,3.42,0,0,0,.44,2.82,4.83,4.83,0,0,0,3.27,2.25,4.56,4.56,0,0,0,.75.06c2.5,0,5-2,6-3.9a7.91,7.91,0,0,0,.8-4c0-1.09,0-2.22.91-2.74L102,116c-.2-.24-.45-.51-.74-.81-2-2.12-5.29-5.66-5.14-10.25a35.57,35.57,0,0,1,.67-5.17c.23-1.18.47-2.08.66-2.8a5.23,5.23,0,0,0,.31-2.82A3.92,3.92,0,0,0,96.23,92a11.6,11.6,0,0,1-1.36-1.36c-2-2.45-1.75-5-1.45-7.67a19.85,19.85,0,0,0-.09-6.77,12.9,12.9,0,0,0-3.4-6.34c-1.48-1.72-3-3.5-3.2-7a8,8,0,0,1,1.26-5A10.68,10.68,0,0,0,89.54,53c.41-4.41-1.21-8.94-4.45-18-.92-2.56-1.46-4.08-1.68-4.49-1.76-3.24-4.56-5.66-8.82-7.62-.34,0-.69,0-1,0-3.89,0-8.92,1.39-11.37,5.29a9.8,9.8,0,0,0-1,8A7.14,7.14,0,0,0,65,40.76a8.76,8.76,0,0,0,3.44.67,7.24,7.24,0,0,0,4.91-1.65c.22-.2,2.11-2,1.59-4.2a4.29,4.29,0,0,0-3.09-3.07,4,4,0,0,0-1-.11A9.23,9.23,0,0,0,68,33a6.68,6.68,0,0,1-2,.46,1.88,1.88,0,0,1-1.34-.5c-.9-.85-.65-2.3,0-3.29,1.2-2,4.33-2.66,6.63-2.66a10.41,10.41,0,0,1,4,.72A9,9,0,0,1,80,33.92,12.12,12.12,0,0,1,78.5,44.14c-1.41,1.92-4.3,4.22-10,4.25a15,15,0,0,1-10.17-4.12A15.33,15.33,0,0,1,55,27.46a15.48,15.48,0,0,1,6.12-6.78,22.14,22.14,0,0,1,3.27-1.76c-1.43-.77-2.57-1.81-2.68-3.4-.2-2.94,3.49-5.79,6.05-6.8a7.8,7.8,0,0,1,3.11-.55h.68a6.8,6.8,0,0,0,2.89-.56A7.31,7.31,0,0,0,76.93,6a5.9,5.9,0,0,1,3-1.73,7.38,7.38,0,0,1,1.7-.19,8.58,8.58,0,0,1,5.27,1.83,5.59,5.59,0,0,1,.68.61c.08-.14.15-.27.24-.4a8.5,8.5,0,0,1,6.08-3.77l.68,0A6.11,6.11,0,0,1,97.38,3a7.71,7.71,0,0,0,2.86.78l.59,0a7.54,7.54,0,0,0,2.64-.52,8.57,8.57,0,0,1,3-.6h.43c2.75.14,7.16,1.68,7.9,4.52.41,1.54-.34,2.89-1.45,4.08a21.4,21.4,0,0,1,3.65.63,15.51,15.51,0,0,1,8,4.47,15.35,15.35,0,0,1,2.22,17,14.84,14.84,0,0,1-8.32,7.14,16.11,16.11,0,0,1-5,.88A10,10,0,0,1,108,39.68a12.18,12.18,0,0,1-4.69-9.21,9,9,0,0,1,2.63-7.4,11.59,11.59,0,0,1,7.17-2.58,5.37,5.37,0,0,1,3.5,1.05c.89.74,1.58,2,1,3.13s-1.84,1.09-3.17,1.1a7,7,0,0,0-3.81.76,4.3,4.3,0,0,0-2,3.89c.21,2.26,2.58,3.36,2.85,3.47a6,6,0,0,0,2.43.48,9,9,0,0,0,5.8-2.21,7.13,7.13,0,0,0,2.13-5.59,9.77,9.77,0,0,0-3.5-7.22,11.27,11.27,0,0,0-7.13-2.28,16.89,16.89,0,0,0-6.3,1.25c-3.42,3.21-5.3,6.4-5.94,10-.08.45-.11,2.08-.16,4.78-.19,9.6-.29,14.41,1.5,18.46a10.62,10.62,0,0,0,3,4.14,8.08,8.08,0,0,1,2.81,4.38c.92,3.35,0,5.52-.82,7.62a13.07,13.07,0,0,0-1.21,7.1,20.05,20.05,0,0,0,2.07,6.45c1.15,2.44,2.23,4.75,1.08,7.73a12,12,0,0,1-.86,1.72,4,4,0,0,0-.77,2.53,5.23,5.23,0,0,0,1.19,2.57c.41.63.92,1.4,1.52,2.44a37.08,37.08,0,0,1,2.28,4.7c1.61,4.3-.4,8.71-1.61,11.34-.17.38-.33.72-.44,1a1.88,1.88,0,0,0-.12.3c1,.22,1.37,1.28,1.73,2.32a8.1,8.1,0,0,0,2,3.53,8.36,8.36,0,0,0,5.26,2,5,5,0,0,0,2.38-.56,4.9,4.9,0,0,0,2.38-3.17,3.41,3.41,0,0,0-.48-2.82,4.32,4.32,0,0,0-3.17-1.66,2.44,2.44,0,0,0-.55.06c-.06,0-1.26.29-1.54,1.23a1.85,1.85,0,0,0,.52,1.81,3.47,3.47,0,0,0,1.72.68c.73.15,1.64.33,1.91,1.23a1.9,1.9,0,0,1-1.07,2.1,3,3,0,0,1-1.41.32,6.53,6.53,0,0,1-4.69-2.37,5.36,5.36,0,0,1-.71-4.59,7.08,7.08,0,0,1,3.71-4.72,5.57,5.57,0,0,1,2.24-.46,8.58,8.58,0,0,1,4,1.15,9,9,0,0,1,3.72,3.92,9.49,9.49,0,0,1,.55,5.88,17.88,17.88,0,0,1,6.71-3,19.76,19.76,0,0,1,4.17-.43,17.47,17.47,0,0,1,9.13,2.44,17.19,17.19,0,0,1,3.62,3c3.66,3.85,5.38,7.43,7.21,11.21.72,1.48,1.46,3,2.35,4.65,3.63,6.67,6.26,11.49,9.44,11.54h0c1.67,0,3.59-1.17,5.07-3.07s2.07-3.84,1.71-5.28c-.52-2-3.26-3.38-5.08-4.27-1.49-.73-2.66-1.31-2.28-2.46.32-1,1.51-1,2-1h0c-4.65-1.8-8.25-3.58-8.19-6.1.06-2.69,4.61-5.08,8.16-5.08a12,12,0,0,1,4.43,1,6.48,6.48,0,0,0,2,.55,1,1,0,0,0,.61-.17c.23-.15.3-.28.48-.69,0,0,0-.08.05-.13-.74-.73-1-2-1.45-4.31-.19-.93-.41-2.07-.72-3.45l-.31-1.37c-.72-3.13-1.12-4.86.17-6a3.11,3.11,0,0,1,1.1-.63l-.3-.18c-1.36-.84-3.42-2.09-4.45-4.18-1.44-3-.56-6.89.88-9.3.91-1.54,2-2.41,3.08-2.46h0c.81,0,1.22.37,2,1,.2.18.44.4.75.66a31.47,31.47,0,0,0,3.69,2.81c1.09.73,1.81,1.2,2.12,2.39.15.58,0,1.33-1.23,5.76a13.2,13.2,0,0,0-.55,2.53h.12a4.34,4.34,0,0,1,.64-.06,2.65,2.65,0,0,1,1,.2c1.53.66,1.7,2.29,2,5.24.08.7.16,1.49.27,2.37.15,1.14.29,2.07.41,2.84a15.23,15.23,0,0,1,.3,2.82l.38.15a3.91,3.91,0,0,0,1.65.42,3.4,3.4,0,0,0,.53,0,4.82,4.82,0,0,0,2.23-1,7.47,7.47,0,0,1,3.79-1.47c.42,0,.89-.09,1.37-.09a3.12,3.12,0,0,1,2.5.91c1.72,1.93,0,6.37-2.68,9.15a13.53,13.53,0,0,1-3,2.32,1.35,1.35,0,0,1,.34.43c.56,1.14-.5,2-2,3.11a22.12,22.12,0,0,0-6.37,7,11,11,0,0,0-1.23,3.42,11.27,11.27,0,0,1-1.54,3.94,18,18,0,0,1-10.18,7.89,15.83,15.83,0,0,1-4,.52,18.33,18.33,0,0,1-7.65-1.75c-6.58-3.1-9.12-9.3-11.35-14.77-2-4.84-3.69-9-7.7-10a7.9,7.9,0,0,0-1.83-.21,12.71,12.71,0,0,0-7.25,2.65c-4.23,3-5.68,7.93-6.84,11.93-.88,3-1.66,5.7-3.49,6.77a22.32,22.32,0,0,1,.41,10.82,27.25,27.25,0,0,1-2.37,6.38c-1.24,2.57-1.85,4-1,5.79,1.59,3.4,6.78,4.35,11,5.11,3.83.7,6.85,1.26,7.17,3.54a3.57,3.57,0,0,1-1.1,2.79c-2.75,3.16-11.57,7.2-14.75,8.42.14.76.38,2,.75,3.47a4.58,4.58,0,0,1,1,1.93,8,8,0,0,0,2,3.54,8.38,8.38,0,0,0,5.25,2,5,5,0,0,0,2.39-.56,4.88,4.88,0,0,0,2.38-3.17,3.43,3.43,0,0,0-.48-2.82,4.37,4.37,0,0,0-3.17-1.66,2.6,2.6,0,0,0-.56.06c-.05,0-1.25.29-1.53,1.23a1.86,1.86,0,0,0,.51,1.81,3.42,3.42,0,0,0,1.73.68c.73.15,1.64.33,1.91,1.23a1.9,1.9,0,0,1-1.07,2.1,2.88,2.88,0,0,1-1.41.33,6.53,6.53,0,0,1-4.69-2.37,5.39,5.39,0,0,1-.71-4.6,7.07,7.07,0,0,1,3.7-4.71,5.45,5.45,0,0,1,2.24-.47,8.62,8.62,0,0,1,4,1.15,9,9,0,0,1,3.73,3.92c2,4.32-.13,10.73-4.32,12.95a7.59,7.59,0,0,1-3.3.87,39.82,39.82,0,0,0,7.77,2.19c3.86.8,6.92,1.43,7.17,4,.38,3.66-6.21,6.74-6.49,6.87a8.84,8.84,0,0,1-3.25.85,11,11,0,0,0-3,.67,15,15,0,0,0-4.18,2.35,8.34,8.34,0,0,1-4.15,2,7,7,0,0,1-.92,0,11.35,11.35,0,0,1-2.94-.4,10,10,0,0,1-2.7,1.06,7.85,7.85,0,0,1-1.34.12,10,10,0,0,1-3.24-.66,14.57,14.57,0,0,0-4.71-.9h-.35a10.56,10.56,0,0,0-2.67.32,9.41,9.41,0,0,1-2.21.29,9.77,9.77,0,0,1-1.14-.07c-.31,0-7.53-.85-8.35-4.45-.56-2.48,2.13-4,5.54-6a39.54,39.54,0,0,0,6.66-4.54,8,8,0,0,1-2.21.31,7.85,7.85,0,0,1-1.19-.09c-4.67-.77-8.74-6.17-8.21-10.9a9.1,9.1,0,0,1,2.28-4.91,7.23,7.23,0,0,1,5.2-2.65,4.26,4.26,0,0,1,.5,0,7,7,0,0,1,5,3.29,5.33,5.33,0,0,1,.79,4.58c-.64,1.85-2.78,3.91-4.69,3.91a3.15,3.15,0,0,1-.44,0,1.91,1.91,0,0,1-1.69-1.65c0-.93.78-1.4,1.43-1.77a3.51,3.51,0,0,0,1.42-1.19,1.88,1.88,0,0,0-.09-1.88,2,2,0,0,0-1.64-.69h-.21a4,4,0,0,0-3,2.7,3.42,3.42,0,0,0,.44,2.82,4.87,4.87,0,0,0,3.27,2.25,4.52,4.52,0,0,0,.74.06c2.51,0,5-2,6-3.9a8,8,0,0,0,.81-4,4.53,4.53,0,0,1,.34-2.14c-.12-1.51-.28-2.76-.4-3.53-3.65-.2-17.77-1.27-18.59-5.59-.43-2.26,2.26-3.75,5.67-5.63.58-.32,1.16-.64,1.73-1l-.79-.18a13.76,13.76,0,0,0-2.1-.36,4.87,4.87,0,0,0-.54,0c-5.44,0-11.47,5.81-13.69,11.23a11.94,11.94,0,0,0-.72,6.47,38.31,38.31,0,0,1-.12,8.64c-.32,2.6-1.17,9.47-4.53,15.34C74.45,234.87,62.57,241.28,50.36,241.28ZM96.19,133.46a39.85,39.85,0,0,1,5.53,5.26c.13-.5.25-1,.37-1.47a81.55,81.55,0,0,0,2.24-10.81c-2,3.17-5.14,6.07-8.73,6.55Zm13.58-7.52a81.7,81.7,0,0,0,5.55,9.51l.82,1.28a40.11,40.11,0,0,1,3.58-6.75c.12-.2.26-.41.4-.63a9.25,9.25,0,0,1-1.6.14A14.5,14.5,0,0,1,109.77,125.94Z"/><path class="cls-1" d="M94.62,3.29c2,0,2.64,1.28,5.55,1.49l.66,0c2.52,0,3.36-1.12,5.66-1.12h.37c2.48.13,6.4,1.49,7,3.77.41,1.58-.92,3.05-3,4.74h.34a22,22,0,0,1,5.54.68,14.54,14.54,0,0,1,7.47,4.18,14.41,14.41,0,0,1,2.09,15.86,13.93,13.93,0,0,1-7.76,6.65,15.07,15.07,0,0,1-4.71.83,9,9,0,0,1-5.24-1.54c-4.61-3.24-5.86-11.62-2-15a10.66,10.66,0,0,1,6.51-2.33,4.48,4.48,0,0,1,2.86.81c.54.46,1.08,1.31.76,1.9-.64,1.21-4-.17-6.62,1.48a5.31,5.31,0,0,0-2.43,4.84c.27,2.85,3.17,4.17,3.45,4.29a7,7,0,0,0,2.83.56,10.06,10.06,0,0,0,6.47-2.47c3.87-3.56,3-10.71-1.4-14.33a12.18,12.18,0,0,0-7.77-2.5,17.78,17.78,0,0,0-6.85,1.4c-2.91,2.71-5.57,6.1-6.37,10.71-.09.53-.12,2-.18,4.93-.2,9.76-.3,14.64,1.59,18.88,2.28,5.15,4.59,4.09,5.77,8.39,1.63,5.9-2.86,7.48-2.05,14.56.74,6.5,5,9.15,3.2,13.71-.69,1.81-1.86,2.7-1.69,4.69.15,1.7,1.13,2.44,2.84,5.43a33.89,33.89,0,0,1,2.21,4.55c1.7,4.53-1.15,9.47-2,11.61a10.5,10.5,0,0,0-.69,2.58c.32-.54.74-.93,1.14-.93h0c1.17.11.92,3.36,3.4,5.63a9.31,9.31,0,0,0,5.93,2.31,6,6,0,0,0,2.85-.68c2.73-1.46,3.92-5.17,2.23-7.47a5.32,5.32,0,0,0-4-2.06,3.94,3.94,0,0,0-.77.08,3.15,3.15,0,0,0-2.28,1.93,2.86,2.86,0,0,0,.79,2.82c1.22,1.15,3.15.76,3.37,1.47.1.35-.27.74-.6.93a2,2,0,0,1-.93.2,5.56,5.56,0,0,1-3.89-2c-1.71-2.21-.18-6.54,2.6-7.78a4.4,4.4,0,0,1,1.84-.38,7.79,7.79,0,0,1,3.53,1,8.13,8.13,0,0,1,3.29,3.46c1.29,2.78.63,6.56-1.21,9.19a18,18,0,0,1,9.58-5.77,18.93,18.93,0,0,1,4-.41,16.38,16.38,0,0,1,8.61,2.3,16,16,0,0,1,3.41,2.88c4.94,5.19,6.18,9.71,9.41,15.65,3.82,7,6.54,12,10.3,12.06h.08c4.11,0,8.64-5.83,7.68-9.6s-7.67-5.26-7.37-6.16c.07-.21.48-.28,1.07-.28,1.35,0,3.59.38,4.68.38.35,0,.58,0,.62-.15.25-.87-12.55-3.78-12.47-7.3,0-1.9,3.8-4.11,7.16-4.11h0c2.81,0,4.77,1.57,6.4,1.57a2.08,2.08,0,0,0,1.16-.34c.79-.52.73-1.17,1.32-2a.24.24,0,0,1-.12,0c-1.26-.48-1.18-2.06-2.41-7.58-.83-3.7-1.43-5.55-.45-6.43s2-.41,2.2-1c.34-1-4.06-2-5.62-5.22-1.92-3.93.94-10.22,3.1-10.32h.05c.45,0,.67.32,2,1.45,3.91,3.41,5.11,3.21,5.5,4.69.09.36-.35,2-1.23,5.25-.53,2-.83,3-.3,3.59a.7.7,0,0,0,.55.22c.28,0,.59-.09.93-.09a1.63,1.63,0,0,1,.63.12c1.25.54,1.15,2.57,1.69,6.82.48,3.73,1,5.24.57,6.2,1.16.31,1.85.9,3.16.9a5.33,5.33,0,0,0,.67,0c2.54-.35,2.91-2.13,6-2.45.41,0,.85-.08,1.27-.08a2.31,2.31,0,0,1,1.76.57c1.22,1.39-.29,5.3-2.67,7.8-3.6,3.77-9.14,4.24-9.09,4.42h.05a43.33,43.33,0,0,1,5.19-.87c.53,0,.93.09,1,.33.52,1-5.07,3.15-8.32,9.2-1.84,3.4-.85,4.18-2.74,7.31a17,17,0,0,1-9.59,7.44,14.5,14.5,0,0,1-3.76.49,17.41,17.41,0,0,1-7.22-1.65c-12-5.67-9.89-22.54-19.24-24.85a8.72,8.72,0,0,0-2.07-.24,14.54,14.54,0,0,0-7.82,2.83c-8.15,5.68-6.49,17.9-11,18.93a21.87,21.87,0,0,1,.65,11.2c-1.37,6.3-5.12,8.94-3.32,12.8,3.16,6.8,17.54,4.73,18,8.37.55,4-16,10.44-16,10.44h0a48.24,48.24,0,0,0,1,4.72c1,.39.88,3.42,3.24,5.58a9.29,9.29,0,0,0,5.92,2.31,6,6,0,0,0,2.86-.68c2.73-1.46,3.92-5.17,2.23-7.46a5.3,5.3,0,0,0-4-2.07,3.31,3.31,0,0,0-.77.09,3.09,3.09,0,0,0-2.28,1.92,2.86,2.86,0,0,0,.79,2.82c1.22,1.15,3.15.77,3.37,1.47.1.35-.27.75-.61.93a1.89,1.89,0,0,1-.92.21,5.6,5.6,0,0,1-3.9-2c-1.7-2.22-.17-6.54,2.61-7.79a4.52,4.52,0,0,1,1.83-.38,7.74,7.74,0,0,1,3.53,1,8,8,0,0,1,3.29,3.46c1.8,3.88-.17,9.68-3.87,11.65a6.91,6.91,0,0,1-3.22.76,11.33,11.33,0,0,1-4.88-1.25c6.72,6.52,18.81,4.6,19.21,8.5.24,2.31-3.81,4.89-5.92,5.86-2.52,1.17-3,.37-6.14,1.49-4.42,1.6-5,3.8-8.14,4.26a6,6,0,0,1-.77,0,10.39,10.39,0,0,1-3.07-.48,9.36,9.36,0,0,1-2.76,1.16,6.79,6.79,0,0,1-1.15.1c-2.38,0-3.83-1.46-7.92-1.56h-.38c-2.51,0-3.11.61-4.88.61a9.87,9.87,0,0,1-1-.06c-2.31-.25-7-1.41-7.48-3.68-.86-3.82,11.21-5.85,15.51-14.17a9.67,9.67,0,0,1-6.5,3.12,6,6,0,0,1-1-.08c-4.14-.68-7.85-5.56-7.38-9.8a8,8,0,0,1,2-4.33c.51-.55,2.21-2.34,4.47-2.34a2.68,2.68,0,0,1,.4,0c3,.29,5.87,3.9,5,6.54-.54,1.59-2.4,3.25-3.74,3.25a1.09,1.09,0,0,1-.26,0c-.38-.07-.86-.32-.87-.69,0-.73,1.94-1,2.73-2.46a2.87,2.87,0,0,0-.16-2.93,3,3,0,0,0-2.45-1.11h-.31a5.06,5.06,0,0,0-3.87,3.39c-.87,2.71,1.44,5.85,4.49,6.37a5.62,5.62,0,0,0,.92.07c2.94,0,5.72-2.31,6.89-4.41,1.55-2.8.47-5.65,1.29-6.33-.19-2.75-.56-4.79-.56-4.79h0s-17.72-.88-18.46-4.81c-.45-2.36,5.45-4.28,9.86-7.4a5.42,5.42,0,0,1-1.5.21c-1.6,0-3-.65-4.77-.77-.2,0-.41,0-.61,0-5.94,0-12.25,6.09-14.62,11.85-2.07,5.06.15,6.78-.9,15.37-.31,2.53-1.14,9.27-4.41,15-5.47,9.54-17.36,15.46-28.7,15.46-.72,0-1.44,0-2.15-.07-3.68-.25-13.33-.9-19.41-7.6-3.41-3.75-5.2-8.86-10.49-10.05-2.62-.59-5.91-.19-6-1s2.57-1.3,2.55-2.38-3.38-1.31-7-3.76c-2.3-1.56-4.81-4.12-4.29-5.18.13-.26.4-.36.8-.36.93,0,2.54.51,4.5.51a9.73,9.73,0,0,0,3.46-.61,9.13,9.13,0,0,0,2.51-1.46c-.58-.83-.65-2.43-1.35-6-.84-4.19-1.58-6.09-.56-7,.69-.61,1.61-.26,1.91-.9s-.5-1.76-1.43-3.31C12,189,10.78,186.88,11.13,185s2.11-1.87,3.2-4.45,0-4.76.64-5a.36.36,0,0,1,.15,0c1.31,0,6,5,5.49,10.38-.35,3.94-3.36,7.12-2.36,8.07a.67.67,0,0,0,.49.17c.33,0,.72-.13,1.16-.13a1.88,1.88,0,0,1,.74.15c1.21.53,1.23,2.47,1.62,6.24.56,5.31,1.1,6.92.29,7.81a4,4,0,0,0,1.28.23H24c1.72,0,2.49-1,4.43-1.75a14.69,14.69,0,0,1,5.4-1c2.47,0,4.56.63,5,1.75.83,2-3.24,5.89-6.07,7.87-3.27,2.29-5,2.09-5.74,3.89-1,2.54.94,6.71,4.29,8.13a7,7,0,0,0,2.78.55c3.23,0,6.19-1.92,6.14-3,0-.84-1.91-1.82-3.77-1.82a4.36,4.36,0,0,0-1.4.22c-1.63.55-2.15,2-3,2a.47.47,0,0,1-.16,0c-.93-.22-1.58-2.2-1.11-3.74.63-2.06,3.22-3.22,5.34-3.34h.35c3.16,0,4.68,2.37,6.3,2.37a1.8,1.8,0,0,0,.59-.11c2.3-.89.6-5.58,3.37-9.39A11.61,11.61,0,0,1,56,206.58a10.6,10.6,0,0,1,4,.77c4.44,1.8,7.78,6.73,6.83,11.64-.7,3.58-3.69,7.21-7.58,7.63-.26,0-.51,0-.76,0-3.77,0-7-2.91-6.72-3.72.06-.18.31-.25.68-.25,1,0,3,.5,4.87.5a4.58,4.58,0,0,0,3.61-1.27c1.37-1.58.87-4.3,0-5.89A8,8,0,0,0,54,212.21a6.28,6.28,0,0,0-3.8,1.17c-2.12,1.6-2.65,4.59-2.33,6.77.79,5.21,7.07,9.54,12.75,9.54a10,10,0,0,0,2-.2c4.87-1,7.54-5.56,9.73-9.46,7.34-13,1.66-19.24,7.86-29.76,4.75-8.07,13.06-12.86,20.33-13.66a28.4,28.4,0,0,1,2.92-.15c2.86,0,6,.44,6.64,1.83a5.56,5.56,0,0,0,.31-1.34c.48-4.24-3.92-5.55-7.22-11.09a21.84,21.84,0,0,1-3-10.81H100c-4.41,0-6.82-11.73-16.18-14.47a17,17,0,0,0-4.77-.74,10.07,10.07,0,0,0-5.43,1.43c-8.13,5.16-.72,20.48-10.32,29.68a16.4,16.4,0,0,1-10,4.6c-.29,0-.59,0-.88,0a17.14,17.14,0,0,1-10.57-4c-2.8-2.36-2.11-3.42-4.93-6.06-5-4.69-11-4.93-10.82-6.07s6.15-1.31,6.14-1.5c0,0,0,0-.08,0-.32,0-1.57.21-3.25.21a14.38,14.38,0,0,1-6.7-1.49c-3.05-1.6-5.73-4.83-5-6.54.39-.9,1.66-1.19,2.71-1.42a6.32,6.32,0,0,1,1.47-.18c1.61,0,2.56.68,4,.68a5.52,5.52,0,0,0,.95-.09c1.76-.34,2.2-1.27,3.36-2-.66-.79-.7-2.37-1.44-6.06-.84-4.2-1.58-6.09-.56-7,.69-.62,1.61-.27,1.92-.91s-.3-1.61-1.43-3.31c-1.88-2.81-2.81-4.22-2.84-4.58-.1-1.53,1.1-1.73,3.72-6.2.9-1.53,1-1.88,1.44-2a1.5,1.5,0,0,1,.37,0c2.21,0,6.4,4.73,5.86,8.84-.47,3.5-4.3,5.89-3.67,6.74a.46.46,0,0,0,.4.16c.3,0,.72-.12,1.18-.12a2.06,2.06,0,0,1,.82.16c1.21.52,1.22,2.46,1.62,6.23.59,5.63,1.16,7.1.12,8a.41.41,0,0,1-.11.07c.84.62,1,1.26,1.9,1.49a2,2,0,0,0,.53.07c1.85,0,3.21-2.61,6.25-3.64a9.41,9.41,0,0,1,3-.46c2.41,0,4.66.82,5.12,2.07,1.19,3.31-10,10.15-9.5,10.89a.18.18,0,0,0,.15.06c.83,0,4.47-2.14,5.61-2.14a.38.38,0,0,1,.3.1c.57.76-5.34,4.21-5,8.2.26,3.36,5,6.9,8.73,6.9a5,5,0,0,0,1.69-.28c3.55-1.26,4.53-6.84,5.92-14.72,1.18-6.65.92-11.33,3.94-17.82A16.27,16.27,0,0,1,68,133.87c4-4.83,10-5.65,11.32-5.79a16.82,16.82,0,0,1,1.85-.11,18.48,18.48,0,0,1,9.07,2.53c-2.58-1.91-4.41-5.28-4.07-8.33a8.09,8.09,0,0,1,2-4.33c.51-.54,2.21-2.34,4.47-2.34a2.68,2.68,0,0,1,.4,0c3,.29,5.87,3.9,5,6.55-.54,1.58-2.4,3.24-3.74,3.24a1.15,1.15,0,0,1-.26,0c-.38-.06-.86-.32-.87-.68,0-.74,1.94-1,2.73-2.47a2.87,2.87,0,0,0-.16-2.93,3,3,0,0,0-2.45-1.11H93a5.09,5.09,0,0,0-3.87,3.39c-.87,2.71,1.44,5.85,4.49,6.37a5.62,5.62,0,0,0,.92.07c2.94,0,5.72-2.3,6.89-4.41,1.63-3,.35-6,1.43-6.42a.59.59,0,0,1,.27,0,1.94,1.94,0,0,1,1.15.55,10.55,10.55,0,0,0-1.47-2.22c-1.53-1.75-5.8-5.52-5.64-10.36a36.6,36.6,0,0,1,.65-5c.67-3.38,1.37-4.39,1-6-.47-1.94-1.87-2.42-3.1-3.9-3.12-3.77,0-7.63-1.33-14-1.49-7-6.24-7-6.58-13.15-.25-4.45,2.28-4.18,2.8-9.79.44-4.63-1.21-9.22-4.5-18.4-1-2.77-1.49-4.15-1.74-4.63-2.23-4.1-5.83-6.48-9.45-8.12-.42,0-.85-.05-1.29-.05-4.44,0-9.65,1.68-12.22,5.75-3,4.84-1.57,11.89,3.23,14a9.58,9.58,0,0,0,3.85.76A8.32,8.32,0,0,0,74,40.52c.23-.21,2.55-2.38,1.9-5.17a5.31,5.31,0,0,0-3.84-3.81,5.14,5.14,0,0,0-1.22-.14c-2,0-3.81,1.07-4.88,1.07a.89.89,0,0,1-.65-.22c-.49-.46-.25-1.44.12-2.05C66.29,28.79,68.75,28,71.2,28a9.41,9.41,0,0,1,3.59.64C79.55,30.67,81,39,77.7,43.55c-2.8,3.8-8,3.84-9.21,3.84h-.07A13.85,13.85,0,0,1,59,43.55a14.41,14.41,0,0,1-3.08-15.69,14.56,14.56,0,0,1,5.76-6.34A22,22,0,0,1,67.05,19c-2.47-.95-4.2-1.92-4.31-3.55-.17-2.35,3.12-4.89,5.42-5.8a6.88,6.88,0,0,1,2.74-.48h.68a7.76,7.76,0,0,0,3.27-.63c2.93-1.22,2.85-2.78,5.34-3.34a6.71,6.71,0,0,1,1.48-.16,7.65,7.65,0,0,1,4.65,1.61,6.62,6.62,0,0,1,1.56,1.78,6.71,6.71,0,0,1,.82-1.8,7.51,7.51,0,0,1,5.35-3.32,3.76,3.76,0,0,1,.57,0M105.08,118.7l0-.1a.44.44,0,0,1,0,.1h0m-10.5,13.36a6.06,6.06,0,0,1-1-.09,6.67,6.67,0,0,1-1.85-.6,44.1,44.1,0,0,1,3.86,2.87A34.05,34.05,0,0,1,102.2,141c1.73-7.22,3.89-14.12,3.13-19.65-.69,4.36-5.52,10.73-10.75,10.73m21.83,7a34.18,34.18,0,0,1,4.15-8.5,44,44,0,0,1,2.75-4,7,7,0,0,1-1.57,1.16,6.79,6.79,0,0,1-3.22.76c-4.53,0-9.59-3.76-11.33-7.09,1,5.48,5.28,11.34,9.22,17.62M94.62,1.29h0a7,7,0,0,0-.78,0A9.47,9.47,0,0,0,87.42,5a9.63,9.63,0,0,0-5.75-1.93,8.76,8.76,0,0,0-1.92.21,6.92,6.92,0,0,0-3.5,2A6.55,6.55,0,0,1,74.08,6.7a5.78,5.78,0,0,1-2.5.48H70.9a8.76,8.76,0,0,0-3.47.62c-2.72,1.07-6.94,4.13-6.69,7.8a4.53,4.53,0,0,0,1.68,3.18c-.63.34-1.24.69-1.82,1.08a16.62,16.62,0,0,0-6.49,7.21A16.37,16.37,0,0,0,57.62,45a16,16,0,0,0,10.8,4.4h.08c6.12,0,9.26-2.55,10.81-4.66A13.16,13.16,0,0,0,81,33.65a10,10,0,0,0-5.42-6.83A11.3,11.3,0,0,0,71.2,26c-2.68,0-6.06.82-7.48,3.14-.82,1.32-1.1,3.31.2,4.54a2.89,2.89,0,0,0,2,.77A7.64,7.64,0,0,0,68.27,34a8.35,8.35,0,0,1,2.56-.56,3,3,0,0,1,.75.08,3.31,3.31,0,0,1,2.36,2.33c.39,1.68-1.22,3.16-1.29,3.23a6.39,6.39,0,0,1-4.24,1.39,7.7,7.7,0,0,1-3-.59,6.15,6.15,0,0,1-3.25-4A8.78,8.78,0,0,1,63,28.71c2.23-3.56,6.9-4.82,10.52-4.82l.79,0c4,1.85,6.56,4.12,8.19,7.11.18.34.79,2,1.62,4.34,3.18,8.89,4.78,13.36,4.39,17.54a9.66,9.66,0,0,1-1.42,4.5A9,9,0,0,0,85.73,63c.21,3.8,1.93,5.8,3.44,7.56a12,12,0,0,1,3.19,5.9,19,19,0,0,1,.07,6.45c-.32,2.77-.64,5.64,1.67,8.42a12.68,12.68,0,0,0,1.46,1.47c.76.67,1.07,1,1.23,1.63a4.46,4.46,0,0,1-.31,2.34c-.19.73-.43,1.65-.67,2.85a37,37,0,0,0-.69,5.34c-.17,5,3.46,8.88,5.41,11l.32.34a5.35,5.35,0,0,0-.55,2.77,12.08,12.08,0,0,1-.11,1.87A7.08,7.08,0,0,0,99,117.27a8,8,0,0,0-5.75-3.74l-.6,0a8.19,8.19,0,0,0-5.93,3A10.09,10.09,0,0,0,84.18,122a9.74,9.74,0,0,0,.57,4.37,18.88,18.88,0,0,0-3.58-.35,18,18,0,0,0-2.07.12,19.57,19.57,0,0,0-12.63,6.49,18.72,18.72,0,0,0-2.6,4.26c-2.3,5-2.81,9-3.35,13.22-.2,1.62-.42,3.29-.74,5.11-1.21,6.88-2.17,12.31-4.62,13.18a2.91,2.91,0,0,1-1,.16c-2.79,0-6.56-2.84-6.73-5.06-.13-1.64,1.93-3.66,3.15-4.87s2.74-2.7,1.48-4.37a2,2,0,0,0-.53-.5c3.2-2.86,5.16-5.39,4.26-7.89s-4.34-3.39-7-3.39a11.57,11.57,0,0,0-3.64.57A12.94,12.94,0,0,0,41,145.53a10,10,0,0,1-1.29.95,14.45,14.45,0,0,0-.19-4.27c-.12-.93-.27-2.08-.41-3.48-.06-.49-.1-.95-.14-1.38-.32-3.27-.54-5.45-2.53-6.41A10.27,10.27,0,0,0,38.71,126a10.85,10.85,0,0,0-3-8.26c-.74-.86-2.72-2.84-4.88-2.84a3.46,3.46,0,0,0-.92.12c-1.15.33-1.6,1.14-2.13,2.07l-.49.85a30.63,30.63,0,0,1-2.53,3.73,4.91,4.91,0,0,0-1.45,3.62c.06.87.41,1.43,3.16,5.56.24.36.49.73.7,1.06a3.46,3.46,0,0,0-.85.56c-1.68,1.49-1.21,3.62-.56,6.57.15.67.32,1.44.49,2.31.22,1.11.38,2.05.51,2.8.16.9.28,1.63.45,2.26a2.37,2.37,0,0,1-1.29.67,3.09,3.09,0,0,1-.58.06,5,5,0,0,1-1.39-.26,9.84,9.84,0,0,0-2.64-.42,9.26,9.26,0,0,0-1.91.22c-1.32.3-3.32.75-4.11,2.6-1.42,3.33,2.69,7.39,5.91,9.09a14.52,14.52,0,0,0,2.82,1.11c0,1.79,1.87,2.46,3.54,3.05a21.33,21.33,0,0,1,7.92,4.4,10,10,0,0,1,2.08,2.63,12.15,12.15,0,0,0,2.92,3.5,19.34,19.34,0,0,0,11.87,4.5l1,0a18.24,18.24,0,0,0,11.3-5.15c5.54-5.31,6-12.2,6.37-18.28.36-5.71.73-9.31,3.65-11.16a8,8,0,0,1,4.35-1.12,14.68,14.68,0,0,1,4.2.66c4.62,1.35,7.35,5.28,9.75,8.74,1.73,2.49,3.27,4.71,5.34,5.5a23.1,23.1,0,0,0,3.14,10.14,28.48,28.48,0,0,0,4.43,5.48,13.87,13.87,0,0,1,2.15,2.52,21,21,0,0,0-4.59-.43,28.8,28.8,0,0,0-3.14.16c-8.58.95-17.16,6.69-21.83,14.63-3.22,5.46-3.49,9.95-3.74,14.29-.27,4.49-.55,9.13-4.14,15.51-1.69,3-3.75,6.65-7,8a12.24,12.24,0,0,0,5.13-7.72c1.09-5.61-2.37-11.57-8-13.88a12.65,12.65,0,0,0-4.74-.91,13.58,13.58,0,0,0-10.77,5.23,13.75,13.75,0,0,0-2.24,6.8,12.11,12.11,0,0,1-.29,1.8c-.22-.12-.57-.34-.85-.51a9.4,9.4,0,0,0-5.26-1.78l-.46,0a9.67,9.67,0,0,0-1.37.17c2.16-1.64,7.46-6.16,6-9.7-1.12-2.68-5.18-3-6.87-3a16.63,16.63,0,0,0-6.16,1.16,17.92,17.92,0,0,0-1.92,1c-.35.19-.61.33-.83.43,0-.73-.15-1.57-.28-2.58s-.26-2.08-.41-3.47c-.05-.49-.1-.95-.14-1.38-.33-3.35-.54-5.56-2.67-6.48a3.78,3.78,0,0,0-.79-.24l.05-.11a17.35,17.35,0,0,0,1.9-5.9c.36-4.15-1.77-8.09-3.88-10.4-1.32-1.44-2.53-2.16-3.6-2.16a2.32,2.32,0,0,0-.9.17c-1.62.66-1.47,2.4-1.41,3.15a5.68,5.68,0,0,1-.33,2.94,4.26,4.26,0,0,1-1.33,1.72,5.19,5.19,0,0,0-2,3.15c-.5,2.66,1,5.17,2.48,7.61.2.34.4.65.59.95l.13.2a3.26,3.26,0,0,0-.83.54c-1.67,1.5-1.2,3.63-.56,6.57.15.68.32,1.45.5,2.32.22,1.11.38,2,.51,2.79s.24,1.43.38,2c-.24.12-.5.24-.8.36a7.76,7.76,0,0,1-2.75.48,15.41,15.41,0,0,1-2.7-.29,10.47,10.47,0,0,0-1.8-.22,2.69,2.69,0,0,0-2.59,1.47c-1.55,3.12,3.86,7,5,7.73a22,22,0,0,0,4.73,2.36,2.45,2.45,0,0,0-1.13,2.47c.35,2,2.44,2.12,4.45,2.23a20.25,20.25,0,0,1,3.13.34c3,.68,4.67,3,6.61,5.77A39.33,39.33,0,0,0,27.32,234c6.63,7.3,16.89,8,20.76,8.26.75,0,1.51.07,2.28.07,12.55,0,24.79-6.61,30.43-16.46,3.47-6,4.34-13.07,4.66-15.71a39.1,39.1,0,0,0,.13-8.85,11,11,0,0,1,.64-6c2.1-5.12,7.74-10.61,12.77-10.61h.55c-3.32,1.85-6,3.54-5.5,6.33s3.85,4.33,11.16,5.48c2.85.45,5.75.72,7.53.85.09.65.18,1.48.26,2.41a6.33,6.33,0,0,0-.32,2.32,13.66,13.66,0,0,1-.12,1.88,7.12,7.12,0,0,0-1.18-3.63,8.06,8.06,0,0,0-5.75-3.75c-.21,0-.41,0-.6,0a8.19,8.19,0,0,0-5.93,3A10.09,10.09,0,0,0,96.54,205c-.58,5.3,3.81,11.13,9,12l.32.05c-1.32.91-2.68,1.7-3.92,2.43-3.62,2.1-6.73,3.92-6,7.12,1,4.22,8.37,5.14,9.21,5.23a11.08,11.08,0,0,0,1.25.07,10.68,10.68,0,0,0,2.43-.31,9.27,9.27,0,0,1,2.45-.3h.33a13.82,13.82,0,0,1,4.42.85,10.92,10.92,0,0,0,3.55.71,7.86,7.86,0,0,0,1.51-.14,10.07,10.07,0,0,0,2.66-1,12.39,12.39,0,0,0,2.81.33,6.89,6.89,0,0,0,1.05-.06,9.31,9.31,0,0,0,4.62-2.15,14,14,0,0,1,3.92-2.21,9.91,9.91,0,0,1,2.74-.61,10,10,0,0,0,3.56-.94c.77-.35,7.51-3.59,7.07-7.89-.33-3.26-3.87-4-8-4.84-1.41-.29-3-.61-4.49-1.05l.29-.15c4.69-2.48,7-9.41,4.76-14.25a10.06,10.06,0,0,0-4.16-4.38,9.79,9.79,0,0,0-4.48-1.27,6.54,6.54,0,0,0-2.64.55,8.06,8.06,0,0,0-4.27,5.39,7,7,0,0,0,0,3.81,13.85,13.85,0,0,1-.71-1.74,6.26,6.26,0,0,0-1-2.1c-.23-.91-.4-1.72-.53-2.36,1.62-.68,4.24-1.84,6.88-3.21,6.56-3.42,9.2-6,8.83-8.75-.41-3-3.92-3.64-8-4.38s-8.87-1.62-10.23-4.55c-.65-1.39-.16-2.52,1-4.93a28.48,28.48,0,0,0,2.45-6.61,23,23,0,0,0-.25-10.61c1.72-1.44,2.5-4.11,3.31-6.91,1.18-4.05,2.51-8.64,6.46-11.39a11.7,11.7,0,0,1,6.67-2.47,6.92,6.92,0,0,1,1.59.18c3.35.83,4.84,4.12,7,9.42,2.31,5.64,4.92,12,11.86,15.3a19.42,19.42,0,0,0,8.07,1.84,16.53,16.53,0,0,0,4.28-.56c6.34-1.69,9.85-6.81,10.78-8.33a11.92,11.92,0,0,0,1.65-4.25,10.37,10.37,0,0,1,1.14-3.16,21.33,21.33,0,0,1,6.1-6.69c1.4-1.09,3-2.32,2.39-4a14.91,14.91,0,0,0,2.32-1.95c2.52-2.64,5.12-7.8,2.71-10.51a4.17,4.17,0,0,0-3.25-1.24c-.53,0-1,0-1.47.09a8.52,8.52,0,0,0-4.25,1.64,3.89,3.89,0,0,1-1.8.81l-.4,0a2.54,2.54,0,0,1-1-.25c0-.65-.16-1.39-.3-2.29-.11-.75-.26-1.69-.4-2.81-.12-.88-.2-1.66-.27-2.35-.33-3-.56-5.17-2.63-6a3.3,3.3,0,0,0-1-.26c.09-.38.21-.8.31-1.2,1.31-4.82,1.47-5.46,1.25-6.3a4.92,4.92,0,0,0-2.53-3,31.2,31.2,0,0,1-3.6-2.73l-.73-.65a3.59,3.59,0,0,0-2.54-1.29h-.13c-1.45.07-2.8,1.09-3.9,3-1.57,2.63-2.52,7-.91,10.25a10.22,10.22,0,0,0,3.75,3.92c-1.58,1.54-1.09,3.68-.35,6.88.09.42.2.87.3,1.35.31,1.38.54,2.52.72,3.43a14.23,14.23,0,0,0,1.18,4.11,9,9,0,0,1-1.53-.49,12.87,12.87,0,0,0-4.75-1.07c-4.12,0-9.12,2.7-9.19,6.06-.06,2.65,2.6,4.43,6.53,6.12a2.34,2.34,0,0,0-.33.65c-.66,2,1.25,2.92,2.79,3.67s4.14,2,4.55,3.61c.28,1.12-.34,2.89-1.53,4.43s-2.93,2.68-4.22,2.68c-2.64,0-5.28-4.89-8.62-11-.88-1.62-1.62-3.14-2.33-4.61-1.86-3.85-3.62-7.49-7.39-11.46a18.14,18.14,0,0,0-3.81-3.21A18.51,18.51,0,0,0,138,117.1a21.43,21.43,0,0,0-4.38.45,18.34,18.34,0,0,0-5.28,2,9.75,9.75,0,0,0-.86-4.33,10.06,10.06,0,0,0-4.16-4.38,9.65,9.65,0,0,0-4.47-1.27,6.55,6.55,0,0,0-2.65.55,8.09,8.09,0,0,0-4.27,5.39,7,7,0,0,0,0,3.8,11.83,11.83,0,0,1-.7-1.73,5.41,5.41,0,0,0-1.4-2.46l.19-.42c1.19-2.6,3.39-7.43,1.64-12.11a37.32,37.32,0,0,0-2.35-4.84c-.61-1.07-1.13-1.86-1.55-2.5-.76-1.16-1-1.52-1-2.11a3.06,3.06,0,0,1,.65-2,12.24,12.24,0,0,0,.92-1.85c1.3-3.37.08-6-1.1-8.52a18.57,18.57,0,0,1-2-6.13,12,12,0,0,1,1.14-6.61c.87-2.15,1.86-4.59.85-8.26A9,9,0,0,0,104.1,55a9.58,9.58,0,0,1-2.78-3.81c-1.71-3.84-1.61-8.58-1.42-18,0-2.46.08-4.24.15-4.63.58-3.35,2.33-6.33,5.5-9.34a15.8,15.8,0,0,1,5.75-1.11,10.32,10.32,0,0,1,6.5,2.05,8.78,8.78,0,0,1,3.13,6.48,6.16,6.16,0,0,1-1.81,4.83A8.09,8.09,0,0,1,114,33.37a5.07,5.07,0,0,1-2-.39c-.09,0-2.09-.93-2.25-2.65a3.31,3.31,0,0,1,1.49-3,6.3,6.3,0,0,1,3.29-.6c1.42,0,3.18,0,4-1.63s-.06-3.37-1.25-4.37a6.34,6.34,0,0,0-4.14-1.28,12.65,12.65,0,0,0-7.83,2.83,10,10,0,0,0-3,8.2,13.19,13.19,0,0,0,5.12,10,10.91,10.91,0,0,0,6.39,1.9,17.22,17.22,0,0,0,5.34-.93,15.89,15.89,0,0,0,8.9-7.64,16.36,16.36,0,0,0-2.37-18.11A16.67,16.67,0,0,0,117.28,11c-.67-.18-1.37-.32-2.07-.44A4.56,4.56,0,0,0,115.79,7c-.93-3.56-5.9-5.12-8.82-5.27h-.48a9.59,9.59,0,0,0-3.35.65,6.37,6.37,0,0,1-2.31.47l-.52,0a6.49,6.49,0,0,1-2.51-.69,7,7,0,0,0-3.18-.8Zm26.76,118.08a3.5,3.5,0,0,0-2.36-1.26,2.81,2.81,0,0,1-1.24-.43.88.88,0,0,1-.24-.8c.09-.28.61-.49.8-.53a1.15,1.15,0,0,1,.33,0,3.34,3.34,0,0,1,2.36,1.25,2.4,2.4,0,0,1,.35,1.81Zm-30.15,4.56A2.42,2.42,0,0,1,91,122.1a3.14,3.14,0,0,1,2.18-2h.1c.07,0,.64,0,.82.26a.89.89,0,0,1,0,.83,2.72,2.72,0,0,1-1,.8,3.5,3.5,0,0,0-1.84,2ZM116,134.61c-1.26-2-2.49-3.89-3.56-5.75a13.89,13.89,0,0,0,5.81,1.63,40.4,40.4,0,0,0-2.25,4.12Zm-18.21-1.15a13.67,13.67,0,0,0,5-3.42c-.42,2.12-1,4.34-1.55,6.61a41.44,41.44,0,0,0-3.45-3.19ZM136.1,202a3.56,3.56,0,0,0-2.36-1.26,2.81,2.81,0,0,1-1.24-.42.89.89,0,0,1-.24-.8c.09-.29.61-.5.79-.54a1.86,1.86,0,0,1,.34,0,3.34,3.34,0,0,1,2.36,1.25,2.4,2.4,0,0,1,.35,1.81Zm-32.51,5a2.42,2.42,0,0,1-.25-1.83,3.14,3.14,0,0,1,2.18-2h.1c.07,0,.64,0,.82.26a.89.89,0,0,1,0,.83,2.82,2.82,0,0,1-1,.8,3.5,3.5,0,0,0-1.84,2ZM50.33,221.49a6.59,6.59,0,0,1-.5-1.64c-.24-1.6.14-3.81,1.55-4.87a4.31,4.31,0,0,1,2.6-.77A6,6,0,0,1,59.16,217c.61,1.14.86,2.91.24,3.63a2.79,2.79,0,0,1-2.1.58,20.53,20.53,0,0,1-2.85-.28,13.88,13.88,0,0,0-2-.22,2.73,2.73,0,0,0-2.1.8Zm-21.47-.17a2.63,2.63,0,0,1,.07-1.42c.09-.23.2-.34.9-.69a5.38,5.38,0,0,0-.85,1.67c-.05.15-.08.29-.12.44Zm5.94,4.47a2.54,2.54,0,0,1,1-.67,2.49,2.49,0,0,1,.76-.11,3.59,3.59,0,0,1,.75.08,7.69,7.69,0,0,1-2.46.7Z"/><path d="M213.89,178.5a1.93,1.93,0,0,1-.75-.13c-1.45-.56-1.7-1.81-2.31-4.85-.18-.93-.41-2.06-.72-3.45l-.31-1.36c-.72-3.14-1.12-4.87.17-6a3.23,3.23,0,0,1,1.77-.75c-.26-.35-.75-.85-1.13-1.25a16.36,16.36,0,0,1-3.48-4.69c-1.91-4.37-.34-9.46,1.09-11.66.6-.91,1.21-1.36,1.85-1.36,1.09.06,1.33,1.05,1.5,1.78a6.76,6.76,0,0,0,1.48,3.11,5.1,5.1,0,0,0,2.17,1.46,4.24,4.24,0,0,1,2.39,1.92c1.14,2,.57,4.59,0,7.3-.08.38-.17.73-.25,1.06a8.57,8.57,0,0,0-.3,1.52l.11,0a4.51,4.51,0,0,1,.65,0,2.48,2.48,0,0,1,1,.2c1.52.66,1.71,2.38,2,5.24q.1,1,.27,2.37c.14,1.14.29,2.08.41,2.85.38,2.43.57,3.65-.47,4.73-.59.61-1.54.84-3.83,1.41a16.81,16.81,0,0,1-3.32.65Z"/><path class="cls-1" d="M210.07,144h0c.67,0,.26,2.33,2.2,4.55s3.47,1.44,4.45,3.2.42,4.09-.13,6.61c-.39,1.76-.9,3-.31,3.59a.74.74,0,0,0,.56.21c.27,0,.59-.08.93-.08a1.55,1.55,0,0,1,.62.12c1.26.54,1.16,2.57,1.7,6.81.57,4.53,1.14,5.79.21,6.76-.39.41-1.38.65-3.36,1.14a17.58,17.58,0,0,1-3.07.62,1.07,1.07,0,0,1-.39-.06c-1.26-.48-1.18-2.07-2.41-7.59-.82-3.7-1.43-5.54-.45-6.42s1.87-.32,2.21-1c.64-1.21-3.23-3.27-4.81-6.89-2.23-5.12.86-11.62,2-11.62m0-2a3.47,3.47,0,0,0-2.69,1.82c-1.54,2.36-3.23,7.87-1.17,12.6a17.36,17.36,0,0,0,3.68,5l.08.09a4,4,0,0,0-.67.48c-1.72,1.55-1.23,3.72-.47,7,.1.42.2.88.31,1.36.3,1.37.53,2.51.71,3.43.62,3.11,1,4.83,2.93,5.59a3.27,3.27,0,0,0,1.11.19,16.58,16.58,0,0,0,3.55-.68c2.42-.6,3.53-.87,4.32-1.69,1.38-1.44,1.13-3.08.74-5.58-.12-.75-.27-1.69-.41-2.82-.11-.88-.2-1.66-.27-2.35-.32-3-.55-5.16-2.62-6a3.78,3.78,0,0,0-1-.26l.06-.22c.08-.34.17-.7.26-1.09.61-2.77,1.24-5.64-.07-8a5.22,5.22,0,0,0-2.88-2.35,4.16,4.16,0,0,1-1.81-1.2,5.66,5.66,0,0,1-1.25-2.69c-.18-.72-.59-2.43-2.34-2.54h-.14Z"/><path d="M67.7,66.15A4.15,4.15,0,0,1,67,57.91a3.91,3.91,0,0,1,.68-.06,4.15,4.15,0,0,1,.67,8.25A5.31,5.31,0,0,1,67.7,66.15Z"/><path class="cls-1" d="M67.71,58.85a3.15,3.15,0,0,1,.51,6.26,3.15,3.15,0,0,1-1-6.21,3.05,3.05,0,0,1,.52,0m0-2a5.83,5.83,0,0,0-.84.07,5.15,5.15,0,0,0,.83,10.23,4.76,4.76,0,0,0,.84-.07,5.15,5.15,0,0,0-.83-10.23Z"/><path d="M66.73,75.15a4.15,4.15,0,0,1-.67-8.24,3.79,3.79,0,0,1,.67-.06,4.15,4.15,0,0,1,.67,8.24A3.79,3.79,0,0,1,66.73,75.15Z"/><path class="cls-1" d="M66.73,67.85a3.15,3.15,0,0,1,.51,6.26,4.38,4.38,0,0,1-.51,0,3.15,3.15,0,0,1-.51-6.26,2.92,2.92,0,0,1,.51,0m0-2a4.76,4.76,0,0,0-.84.07,5.15,5.15,0,0,0,.84,10.23,6,6,0,0,0,.84-.07,5.15,5.15,0,0,0-.84-10.23Z"/><path d="M63.59,91.86a4.15,4.15,0,0,1-.67-8.24,3.89,3.89,0,0,1,.68-.05,4.15,4.15,0,0,1,.67,8.24A4,4,0,0,1,63.59,91.86Z"/><path class="cls-1" d="M63.6,84.57a3.13,3.13,0,1,1-.52,0,3.14,3.14,0,0,1,.52,0m0-2a4.68,4.68,0,0,0-.84.07,5.14,5.14,0,0,0,.83,10.22,4.76,4.76,0,0,0,.84-.07,5.14,5.14,0,0,0-.83-10.22Z"/><path d="M63,100.3a4.15,4.15,0,0,1-.67-8.24A3.78,3.78,0,0,1,63,92a4.15,4.15,0,0,1,.67,8.24A3.78,3.78,0,0,1,63,100.3Z"/><path class="cls-1" d="M63,93a3.15,3.15,0,0,1,.51,6.25,2.92,2.92,0,0,1-.51,0,3.15,3.15,0,0,1-.51-6.25A2.92,2.92,0,0,1,63,93m0-2a5.93,5.93,0,0,0-.84.06A5.15,5.15,0,0,0,63,101.3a4.76,4.76,0,0,0,.84-.07A5.14,5.14,0,0,0,63,91Z"/><path d="M61.49,108.9a4.15,4.15,0,0,1-.67-8.24,3.79,3.79,0,0,1,.67-.06,4.15,4.15,0,0,1,.67,8.24A3.79,3.79,0,0,1,61.49,108.9Z"/><path class="cls-1" d="M61.49,101.6a3.15,3.15,0,0,1,.51,6.26,2.92,2.92,0,0,1-.51,0,3.15,3.15,0,0,1-.51-6.26,4.38,4.38,0,0,1,.51,0m0-2a6,6,0,0,0-.84.07,5.15,5.15,0,0,0,.84,10.23,4.76,4.76,0,0,0,.84-.07,5.15,5.15,0,0,0-.84-10.23Z"/><path d="M59.48,117.58a4.15,4.15,0,0,1-.67-8.25,5.19,5.19,0,0,1,.68,0,4.14,4.14,0,0,1,3.36,6.56,4.07,4.07,0,0,1-2.69,1.68,4,4,0,0,1-.68.06Z"/><path class="cls-1" d="M59.49,110.28a3.13,3.13,0,1,1-.52,0,3.14,3.14,0,0,1,.52,0m0-2a4.68,4.68,0,0,0-.84.07,5.15,5.15,0,0,0,.83,10.23,6,6,0,0,0,.84-.07,5.15,5.15,0,0,0-.83-10.23Z"/><path d="M57.71,127.68a4.15,4.15,0,0,1-.67-8.24,5.19,5.19,0,0,1,.68,0,4.14,4.14,0,0,1,4.09,3.47,4.17,4.17,0,0,1-3.42,4.77,4,4,0,0,1-.68.05Z"/><path class="cls-1" d="M57.72,120.39a3.15,3.15,0,0,1,.5,6.25,2.92,2.92,0,0,1-.51,0,3.15,3.15,0,0,1-.51-6.25,3,3,0,0,1,.52,0m0-2a4.68,4.68,0,0,0-.84.07,5.14,5.14,0,0,0,.83,10.22,5.93,5.93,0,0,0,.84-.06,5.15,5.15,0,0,0-.83-10.23Z"/><path d="M55.78,136.84a4.15,4.15,0,0,1-.67-8.24,3.91,3.91,0,0,1,.68-.06,4.15,4.15,0,0,1,.67,8.24A4,4,0,0,1,55.78,136.84Z"/><path class="cls-1" d="M55.79,129.54a3.15,3.15,0,0,1,.51,6.26,4.73,4.73,0,0,1-.52,0,3.15,3.15,0,0,1-.51-6.26,3.12,3.12,0,0,1,.52,0m0-2a4.76,4.76,0,0,0-.84.07,5.15,5.15,0,0,0,.83,10.23,4.76,4.76,0,0,0,.84-.07,5.15,5.15,0,0,0-.83-10.23Z"/><path d="M53.46,143.6a4.15,4.15,0,0,1-.67-8.24,3.88,3.88,0,0,1,.67-.06,4.16,4.16,0,0,1,4.1,3.48,4.17,4.17,0,0,1-3.42,4.77A5.31,5.31,0,0,1,53.46,143.6Z"/><path class="cls-1" d="M53.47,136.3a3.15,3.15,0,0,1,.5,6.26,2.92,2.92,0,0,1-.51,0,3.15,3.15,0,0,1-.51-6.25,3.05,3.05,0,0,1,.52,0m0-2a5.83,5.83,0,0,0-.84.07,5.15,5.15,0,0,0,.83,10.23,4.76,4.76,0,0,0,.84-.07,5.15,5.15,0,0,0-.83-10.23Z"/><path d="M65.68,83.67A4.15,4.15,0,0,1,65,75.42a5,5,0,0,1,.67,0,4.15,4.15,0,0,1,.67,8.24,3.79,3.79,0,0,1-.67.06Z"/><path class="cls-1" d="M65.68,76.37a3.15,3.15,0,0,1,.51,6.25,2.94,2.94,0,0,1-.51,0,3.15,3.15,0,0,1-.51-6.26,2.92,2.92,0,0,1,.51,0m0-2a4.76,4.76,0,0,0-.84.07,5.15,5.15,0,0,0,.84,10.23,6,6,0,0,0,.84-.07,5.15,5.15,0,0,0-.84-10.23Z"/><path d="M69.15,57.08a4.15,4.15,0,0,1-.67-8.24,3.91,3.91,0,0,1,.68-.06A4.15,4.15,0,0,1,69.83,57a4,4,0,0,1-.68.06Z"/><path class="cls-1" d="M69.16,49.78a3.13,3.13,0,1,1-.52,0,3.14,3.14,0,0,1,.52,0m0-2a4.68,4.68,0,0,0-.84.07,5.15,5.15,0,0,0,.83,10.23A6,6,0,0,0,70,58a5.15,5.15,0,0,0-.83-10.23Z"/><path d="M80.73,51a3.35,3.35,0,0,1-.54-6.65,3.29,3.29,0,0,1,.54,0A3.35,3.35,0,0,1,81.27,51a3.29,3.29,0,0,1-.54,0Z"/><path class="cls-1" d="M80.73,45.31A2.35,2.35,0,0,1,81.11,50l-.38,0a2.35,2.35,0,0,1-.38-4.67l.38,0m0-2A4.35,4.35,0,1,0,81.44,52a4.35,4.35,0,0,0-.71-8.64Z"/><path d="M75.92,125.11a3.35,3.35,0,0,1-.54-6.65,3.48,3.48,0,0,1,.55,0,3.35,3.35,0,0,1,.54,6.65,3.39,3.39,0,0,1-.55,0Z"/><path class="cls-1" d="M75.93,119.41a2.35,2.35,0,0,1,.38,4.67,2.56,2.56,0,0,1-.39,0,2.35,2.35,0,0,1-.38-4.66,1.72,1.72,0,0,1,.39,0m0-2a4.17,4.17,0,0,0-.71.06,4.35,4.35,0,0,0,.7,8.64,4.17,4.17,0,0,0,.71-.06,4.35,4.35,0,0,0-.7-8.64Z"/><path d="M76.57,117.15A3.35,3.35,0,0,1,76,110.5a3.51,3.51,0,0,1,.55,0,3.35,3.35,0,1,1,0,6.7Z"/><path class="cls-1" d="M76.58,111.45a2.35,2.35,0,0,1,.38,4.67,2.56,2.56,0,0,1-.39,0,2.35,2.35,0,0,1-.37-4.67,2.43,2.43,0,0,1,.38,0m0-2a4.25,4.25,0,0,0-.71.06,4.35,4.35,0,0,0,.7,8.64,4.17,4.17,0,0,0,.71-.06,4.35,4.35,0,0,0-.7-8.64Z"/><path d="M77.7,109.11a3.35,3.35,0,0,1-.54-6.65,3.51,3.51,0,0,1,.55,0,3.35,3.35,0,0,1,.54,6.66,3.27,3.27,0,0,1-.54,0Z"/><path class="cls-1" d="M77.71,103.41a2.35,2.35,0,0,1,.38,4.67l-.38,0a2.35,2.35,0,0,1-.38-4.67,2.43,2.43,0,0,1,.38,0m0-2a4.25,4.25,0,0,0-.71.06,4.35,4.35,0,0,0,.71,8.64,4.14,4.14,0,0,0,.7-.06,4.35,4.35,0,0,0-.7-8.64Z"/><path d="M78,102.18a3.35,3.35,0,0,1-.54-6.65,3.27,3.27,0,0,1,.54,0,3.35,3.35,0,0,1,.54,6.65,3.27,3.27,0,0,1-.54,0Z"/><path class="cls-1" d="M78,96.49a2.34,2.34,0,0,1,.38,4.66l-.38,0a2.34,2.34,0,0,1-.38-4.66l.38,0m0-2a5.78,5.78,0,0,0-.71.05,4.35,4.35,0,0,0,.71,8.64,5.78,5.78,0,0,0,.71-.05A4.35,4.35,0,0,0,78,94.49Z"/><path d="M79.25,94.62A3.35,3.35,0,0,1,78.7,88a3.51,3.51,0,0,1,.55,0,3.35,3.35,0,0,1,.54,6.66,3.27,3.27,0,0,1-.54,0Z"/><path class="cls-1" d="M79.25,88.92a2.35,2.35,0,0,1,.38,4.67l-.38,0A2.35,2.35,0,0,1,78.87,89a1.64,1.64,0,0,1,.38,0m0-2a4.25,4.25,0,0,0-.71.06,4.34,4.34,0,1,0,.71-.06Z"/><path d="M80.38,86.58a3.35,3.35,0,0,1-.55-6.65,3.51,3.51,0,0,1,.55-.05,3.35,3.35,0,0,1,.54,6.66,3.27,3.27,0,0,1-.54,0Z"/><path class="cls-1" d="M80.38,80.88a2.35,2.35,0,0,1,.38,4.67l-.38,0A2.35,2.35,0,0,1,80,80.91a2.43,2.43,0,0,1,.38,0m0-2a4.25,4.25,0,0,0-.71.06,4.34,4.34,0,1,0,.71-.06Z"/><path d="M80.63,79.18a3.33,3.33,0,0,1-3.3-2.81,3.29,3.29,0,0,1,.58-2.49,3.33,3.33,0,0,1,2.18-1.36,3.27,3.27,0,0,1,.54,0,3.35,3.35,0,0,1,.55,6.65,3.51,3.51,0,0,1-.55.05Z"/><path class="cls-1" d="M80.63,73.48A2.35,2.35,0,0,1,81,78.14a1.64,1.64,0,0,1-.38,0,2.35,2.35,0,0,1-.38-4.67l.38,0m0-2a4.35,4.35,0,0,0,0,8.7,4.25,4.25,0,0,0,.71-.06,4.35,4.35,0,0,0-.71-8.64Z"/><path d="M80.4,71.85a3.35,3.35,0,0,1-.54-6.65,3.51,3.51,0,0,1,.55,0A3.35,3.35,0,0,1,81,71.8a3.41,3.41,0,0,1-.55,0Z"/><path class="cls-1" d="M80.41,66.15a2.35,2.35,0,0,1,.38,4.67,2.56,2.56,0,0,1-.39,0A2.35,2.35,0,0,1,80,66.18a2.56,2.56,0,0,1,.39,0m0-2a4.17,4.17,0,0,0-.71.06,4.35,4.35,0,0,0,.7,8.64,4.17,4.17,0,0,0,.71-.06,4.35,4.35,0,0,0-.7-8.64Z"/><path d="M80.66,64.45a3.35,3.35,0,0,1-.54-6.66,3.27,3.27,0,0,1,.54,0,3.35,3.35,0,0,1,.54,6.65,3.29,3.29,0,0,1-.54,0Z"/><path class="cls-1" d="M80.66,58.75A2.34,2.34,0,0,1,81,63.41a1.69,1.69,0,0,1-.38,0,2.35,2.35,0,0,1-.38-4.67l.38,0m0-2a4.35,4.35,0,1,0,3.53,6.88,4.34,4.34,0,0,0-3.53-6.88Z"/><path d="M81,57.52a3.35,3.35,0,0,1-2.72-5.3A3.43,3.43,0,0,1,81,50.82a3.35,3.35,0,0,1,.55,6.65,3.51,3.51,0,0,1-.55.05Z"/><path class="cls-1" d="M81,51.82a2.35,2.35,0,0,1,.38,4.67,2.43,2.43,0,0,1-.38,0,2.35,2.35,0,0,1-.38-4.67l.38,0m0-2a4.34,4.34,0,0,0-.71.06A4.35,4.35,0,0,0,81,58.52a4.35,4.35,0,0,0,0-8.7Z"/><path d="M25.71,178.09a6.69,6.69,0,0,1-6-4.19c-.52-1.38-.24-2.39.24-4.05.2-.72.45-1.61.72-2.77a53.15,53.15,0,0,0,1-5.73c.27-2.16.43-3.47,1.69-3.65h.18c.79,0,1.18.37,3.48,4.32.82,1.4,1.31,2.27,1.68,3A27.11,27.11,0,0,0,30,167.32c.49.75.82,1.19,1.05,1.5a3.15,3.15,0,0,1,.73,1.4,6.94,6.94,0,0,1-1.15,5.11A6,6,0,0,1,26.62,178,5.58,5.58,0,0,1,25.71,178.09Z"/><path class="cls-1" d="M23.47,158.69c.2,0,.56.3,2.62,3.82,1.89,3.23,2,3.64,3.11,5.36,1.27,1.92,1.49,1.89,1.64,2.57.52,2.28-1.08,6.07-4.38,6.6a4.74,4.74,0,0,1-.75.06,5.72,5.72,0,0,1-5.09-3.56c-.59-1.55.11-2.39,1-6.24,1.27-5.5.91-8.48,1.83-8.61h0m0-2h-.14l-.18,0c-2,.29-2.26,2.25-2.54,4.51a50.07,50.07,0,0,1-.95,5.63c-.26,1.14-.51,2-.71,2.72-.49,1.74-.85,3-.2,4.68a7.72,7.72,0,0,0,7,4.85,6.32,6.32,0,0,0,1.06-.09,7,7,0,0,0,4.73-3.12,7.84,7.84,0,0,0,1.29-5.9,4.23,4.23,0,0,0-.9-1.77c-.23-.31-.54-.73-1-1.45-.61-.92-.88-1.41-1.37-2.29-.38-.7-.86-1.57-1.68-3-2.23-3.81-2.88-4.81-4.35-4.81Z"/><path d="M47.18,194.28a6.68,6.68,0,0,1-6-4.2c-.53-1.38-.24-2.39.23-4.05.2-.72.46-1.61.73-2.77a53.15,53.15,0,0,0,1-5.73c.27-2.16.43-3.46,1.69-3.64h.18c.79,0,1.18.38,3.48,4.32.82,1.4,1.3,2.27,1.68,2.95a26.88,26.88,0,0,0,1.4,2.36c.5.75.83,1.19,1.06,1.5a3.35,3.35,0,0,1,.72,1.4,6.92,6.92,0,0,1-1.14,5.12,6.08,6.08,0,0,1-4.06,2.69A6.82,6.82,0,0,1,47.18,194.28Z"/><path class="cls-1" d="M44.94,174.87c.2,0,.56.3,2.62,3.82,1.89,3.24,2,3.64,3.11,5.36,1.27,1.92,1.48,1.89,1.64,2.57.52,2.28-1.09,6.07-4.38,6.6a4.93,4.93,0,0,1-.75.06,5.74,5.74,0,0,1-5.1-3.56c-.59-1.54.12-2.39,1-6.24,1.27-5.5.91-8.47,1.82-8.6h0m0-2H44.8l-.18,0c-2,.28-2.26,2.24-2.54,4.51a52.39,52.39,0,0,1-.95,5.62c-.26,1.15-.51,2-.71,2.73-.49,1.73-.85,3-.21,4.67a7.73,7.73,0,0,0,7,4.85,6.32,6.32,0,0,0,1.06-.09A7,7,0,0,0,53,192.08a7.87,7.87,0,0,0,1.29-5.91,4.29,4.29,0,0,0-.9-1.77c-.23-.3-.54-.72-1-1.45-.61-.92-.88-1.41-1.37-2.29-.38-.7-.86-1.56-1.69-3-2.22-3.81-2.87-4.81-4.34-4.81Z"/><path d="M83,161.4c-2.39,0-4.42-2.27-5.12-4.42a7,7,0,0,1,0-3.88c.13-.7.29-1.57.45-2.73.33-2.38.43-4.28.51-5.67.14-2.33.2-3.5,1.4-3.66h.16c.8,0,1,.27,3.06,4.46.67,1.43,1.08,2.31,1.39,3,.4.89.65,1.44,1.17,2.41.41.77.68,1.22.87,1.53a3.92,3.92,0,0,1,.58,1.35,7.94,7.94,0,0,1-1.13,5.7,4.16,4.16,0,0,1-2.79,1.88A3.77,3.77,0,0,1,83,161.4Z"/><path class="cls-1" d="M80.44,142c.15,0,.42.27,2.15,3.89,1.57,3.29,1.65,3.69,2.59,5.45,1,2,1.21,1.94,1.35,2.62.49,2.28-.59,6-3.09,6.38l-.43,0c-1.86,0-3.57-1.87-4.17-3.73-.51-1.56,0-2.38.52-6.16.75-5.42.36-8.39,1.06-8.48h0m0-2H80.3l-.15,0c-2,.27-2.13,2.18-2.27,4.59-.07,1.37-.18,3.26-.5,5.59-.16,1.13-.32,2-.44,2.7a7.88,7.88,0,0,0,0,4.36c.82,2.54,3.18,5.11,6.07,5.11a6.13,6.13,0,0,0,.74-.05,5.14,5.14,0,0,0,3.45-2.3,8.87,8.87,0,0,0,1.29-6.48,5.07,5.07,0,0,0-.7-1.65c-.19-.31-.45-.74-.85-1.49-.5-1-.74-1.48-1.14-2.36-.32-.7-.72-1.58-1.4-3-2-4.07-2.41-5-4-5Z"/><path d="M89.79,212.6c-2.39,0-4.42-2.28-5.12-4.42a7,7,0,0,1,0-3.88c.13-.7.29-1.58.45-2.73.33-2.38.44-4.28.52-5.68.13-2.32.19-3.49,1.39-3.66h.16c.81,0,1,.28,3.06,4.47.68,1.42,1.08,2.31,1.39,3,.41.9.65,1.44,1.17,2.42.41.77.68,1.22.87,1.53a3.79,3.79,0,0,1,.58,1.34,7.91,7.91,0,0,1-1.13,5.71,4.21,4.21,0,0,1-2.78,1.88A3.9,3.9,0,0,1,89.79,212.6Z"/><path class="cls-1" d="M87.22,193.22c.15,0,.42.27,2.16,3.9C91,200.41,91,200.81,92,202.57c1.05,2,1.21,1.93,1.35,2.61.49,2.29-.59,6-3.09,6.39a3.11,3.11,0,0,1-.43,0c-1.86,0-3.56-1.87-4.17-3.73-.51-1.56,0-2.38.52-6.17.75-5.41.37-8.38,1.06-8.48h0m0-2h-.13l-.16,0c-2,.28-2.13,2.18-2.26,4.6-.08,1.37-.19,3.25-.51,5.59-.16,1.13-.32,2-.44,2.69a7.91,7.91,0,0,0,0,4.37c.83,2.54,3.18,5.11,6.07,5.11a4.52,4.52,0,0,0,.74-.06,5.13,5.13,0,0,0,3.46-2.3,8.9,8.9,0,0,0,1.28-6.48,4.81,4.81,0,0,0-.7-1.64c-.19-.32-.45-.75-.84-1.49-.51-.95-.75-1.48-1.15-2.36-.32-.7-.72-1.58-1.4-3-1.94-4.07-2.41-5-4-5Z"/><path d="M47.33,260.8a6.67,6.67,0,0,1-6-4.2c-.53-1.38-.24-2.38.23-4.05.2-.71.46-1.6.72-2.77a50.45,50.45,0,0,0,1-5.73c.27-2.16.43-3.46,1.69-3.64h.18c.79,0,1.17.37,3.48,4.31.82,1.4,1.3,2.27,1.67,2.95.49.88.78,1.41,1.41,2.37.5.74.83,1.19,1.05,1.49a3.26,3.26,0,0,1,.73,1.4A6.92,6.92,0,0,1,52.3,258a6.07,6.07,0,0,1-4.06,2.69A5.49,5.49,0,0,1,47.33,260.8Z"/><path class="cls-1" d="M45.1,241.4c.2,0,.56.29,2.62,3.82,1.89,3.23,2,3.63,3.11,5.36,1.27,1.92,1.48,1.89,1.64,2.56.52,2.28-1.09,6.08-4.39,6.6a4.71,4.71,0,0,1-.74.06,5.72,5.72,0,0,1-5.1-3.55c-.59-1.55.11-2.4,1-6.24,1.26-5.51.91-8.48,1.82-8.61h0m0-2H45l-.18,0c-2,.29-2.26,2.24-2.54,4.51a52.91,52.91,0,0,1-1,5.63c-.26,1.14-.51,2-.71,2.72-.49,1.73-.85,3-.21,4.68a7.74,7.74,0,0,0,7,4.84,7.56,7.56,0,0,0,1.06-.08,7.06,7.06,0,0,0,4.73-3.12,7.88,7.88,0,0,0,1.29-5.9,4.29,4.29,0,0,0-.9-1.77c-.23-.31-.54-.73-1-1.46a25.61,25.61,0,0,1-1.37-2.29c-.38-.7-.86-1.56-1.69-3-2.23-3.82-2.87-4.81-4.34-4.81Z"/><path d="M15.68,241.47a6.68,6.68,0,0,1-6-4.2c-.52-1.38-.24-2.38.24-4.05.2-.71.45-1.6.72-2.77a52.75,52.75,0,0,0,1-5.73c.27-2.16.43-3.46,1.7-3.64h.17c.79,0,1.18.37,3.48,4.31.82,1.4,1.3,2.27,1.68,3,.48.88.78,1.41,1.41,2.37.49.74.82,1.19,1,1.49a3.26,3.26,0,0,1,.73,1.4,7,7,0,0,1-1.14,5.12,6.07,6.07,0,0,1-4.06,2.69A5.58,5.58,0,0,1,15.68,241.47Z"/><path class="cls-1" d="M13.44,222.07c.2,0,.56.29,2.62,3.82,1.89,3.23,2,3.63,3.11,5.36,1.27,1.92,1.49,1.89,1.64,2.56.52,2.28-1.08,6.08-4.38,6.6a4.74,4.74,0,0,1-.75.06,5.72,5.72,0,0,1-5.09-3.55c-.59-1.55.11-2.4,1-6.24,1.27-5.51.92-8.48,1.83-8.61h0m0-2H13.3l-.18,0c-2,.29-2.26,2.24-2.54,4.51a50.45,50.45,0,0,1-.95,5.63c-.26,1.14-.51,2-.71,2.72-.49,1.73-.85,3-.2,4.68a7.72,7.72,0,0,0,7,4.84,7.56,7.56,0,0,0,1.06-.08,7.06,7.06,0,0,0,4.73-3.12,7.84,7.84,0,0,0,1.29-5.9,4.27,4.27,0,0,0-.9-1.78c-.23-.3-.54-.72-1-1.45a23.29,23.29,0,0,1-1.36-2.29c-.39-.7-.87-1.56-1.69-3-2.23-3.82-2.88-4.81-4.35-4.81Z"/><path d="M98.58,221a3.34,3.34,0,0,1-3.3-2.8A3.36,3.36,0,0,1,98,214.32a3.48,3.48,0,0,1,.55,0,3.35,3.35,0,1,1,0,6.69Z"/><path class="cls-1" d="M98.59,215.28a2.34,2.34,0,0,1,.38,4.66,2.56,2.56,0,0,1-.39,0,2.34,2.34,0,0,1-.37-4.66,2.43,2.43,0,0,1,.38,0m0-2a5.65,5.65,0,0,0-.71.05,4.35,4.35,0,0,0,.7,8.64,5.52,5.52,0,0,0,.71-.05,4.35,4.35,0,0,0-.7-8.64Z"/><path d="M87.62,238a3.35,3.35,0,0,1-.54-6.65,3.48,3.48,0,0,1,.55,0,3.35,3.35,0,1,1,0,6.69Z"/><path class="cls-1" d="M87.63,232.31A2.35,2.35,0,0,1,88,237l-.38,0a2.34,2.34,0,0,1-.38-4.66,2.43,2.43,0,0,1,.38,0m0-2a5.65,5.65,0,0,0-.71.05,4.35,4.35,0,0,0,.71,8.64,4.14,4.14,0,0,0,.7-.06,4.34,4.34,0,0,0-.7-8.63Z"/><path d="M78.7,246.34a3.35,3.35,0,0,1-.55-6.65,3.48,3.48,0,0,1,.55,0,3.35,3.35,0,0,1,.54,6.65,3.27,3.27,0,0,1-.54,0Z"/><path class="cls-1" d="M78.7,240.65a2.35,2.35,0,0,1,.38,4.66l-.38,0a2.34,2.34,0,0,1-.38-4.66,2.43,2.43,0,0,1,.38,0m0-2a5.65,5.65,0,0,0-.71,0,4.35,4.35,0,0,0,.71,8.64,4.14,4.14,0,0,0,.7-.06,4.34,4.34,0,0,0-.7-8.63Z"/><path d="M74.31,249.52a3.35,3.35,0,0,1-.54-6.65,3.51,3.51,0,0,1,.55-.05,3.35,3.35,0,0,1,.54,6.65,3.41,3.41,0,0,1-.55.05Z"/><path class="cls-1" d="M74.32,243.82a2.35,2.35,0,0,1,.38,4.66,1.72,1.72,0,0,1-.39,0,2.35,2.35,0,0,1-.38-4.67l.39,0m0-2a4.17,4.17,0,0,0-.71.06,4.35,4.35,0,0,0,.7,8.64,4.17,4.17,0,0,0,.71-.06,4.35,4.35,0,0,0-.7-8.64Z"/><path d="M68.18,251a3.35,3.35,0,0,1-2.72-5.3,3.3,3.3,0,0,1,2.18-1.35,3.41,3.41,0,0,1,.55-.05,3.35,3.35,0,0,1,.54,6.65,3.51,3.51,0,0,1-.55.05Z"/><path class="cls-1" d="M68.19,245.32a2.35,2.35,0,0,1,.38,4.67l-.39,0a2.35,2.35,0,0,1-.38-4.67l.39,0m0-2a4.17,4.17,0,0,0-.71.06,4.35,4.35,0,0,0,.7,8.64,4.17,4.17,0,0,0,.71-.06,4.35,4.35,0,0,0-.7-8.64Z"/><path d="M62.45,252a3.35,3.35,0,0,1-.54-6.65,3.27,3.27,0,0,1,.54,0,3.35,3.35,0,0,1,.55,6.65,3.48,3.48,0,0,1-.55,0Z"/><path class="cls-1" d="M62.45,246.27a2.34,2.34,0,0,1,.38,4.66,2.43,2.43,0,0,1-.38,0,2.35,2.35,0,0,1-.38-4.66l.38,0m0-2a5.49,5.49,0,0,0-.7,0,4.35,4.35,0,0,0-2.83,1.76,4.35,4.35,0,1,0,3.53-1.81Z"/><path d="M56.8,250.44a3.35,3.35,0,0,1-.54-6.65,3.41,3.41,0,0,1,.55,0,3.35,3.35,0,0,1,.54,6.65,3.51,3.51,0,0,1-.55.05Z"/><path class="cls-1" d="M56.81,244.74a2.35,2.35,0,0,1,.38,4.67,2.56,2.56,0,0,1-.39,0,2.35,2.35,0,0,1-.38-4.67,2.56,2.56,0,0,1,.39,0m0-2a4.17,4.17,0,0,0-.71.06,4.35,4.35,0,0,0,.7,8.64,4.17,4.17,0,0,0,.71-.06,4.35,4.35,0,0,0-.7-8.64Z"/><path d="M51,248a3.35,3.35,0,0,1-.55-6.65,3.51,3.51,0,0,1,.55-.05,3.35,3.35,0,0,1,.54,6.66,3.27,3.27,0,0,1-.54,0Z"/><path class="cls-1" d="M51,242.26a2.35,2.35,0,0,1,.38,4.67L51,247a2.35,2.35,0,0,1-.38-4.66,1.64,1.64,0,0,1,.38,0m0-2a4.36,4.36,0,0,0-4.29,5.06A4.33,4.33,0,0,0,51,249a4.14,4.14,0,0,0,.7-.06,4.35,4.35,0,0,0-.7-8.64Z"/><path d="M83.56,243.09a3.35,3.35,0,0,1-2.72-5.3,3.43,3.43,0,0,1,2.72-1.4A3.35,3.35,0,0,1,84.1,243a3.29,3.29,0,0,1-.54.05Z"/><path class="cls-1" d="M83.56,237.39a2.35,2.35,0,0,1,.38,4.67l-.38,0a2.35,2.35,0,0,1-.38-4.67l.38,0m0-2a4.35,4.35,0,1,0,.71,8.64,4.35,4.35,0,0,0-.71-8.64Z"/><path d="M91.22,233a3.35,3.35,0,0,1-.54-6.65,3.27,3.27,0,0,1,.54,0,3.35,3.35,0,0,1,.54,6.65,3.27,3.27,0,0,1-.54,0Z"/><path class="cls-1" d="M91.22,227.3A2.34,2.34,0,0,1,91.6,232l-.38,0a2.34,2.34,0,0,1-.38-4.66l.38,0m0-2a4.35,4.35,0,1,0,0,8.69,5.78,5.78,0,0,0,.71-.05,4.35,4.35,0,0,0-.71-8.64Z"/><path d="M94.75,227.5a3.35,3.35,0,0,1-.54-6.66,3.39,3.39,0,0,1,.55,0,3.35,3.35,0,0,1,.54,6.65,3.51,3.51,0,0,1-.55.05Z"/><path class="cls-1" d="M94.76,221.8a2.35,2.35,0,0,1,.37,4.66,1.58,1.58,0,0,1-.38,0,2.35,2.35,0,0,1-.38-4.67,2.56,2.56,0,0,1,.39,0m0-2a4.17,4.17,0,0,0-.71.06,4.35,4.35,0,0,0,.7,8.64,4.17,4.17,0,0,0,.71-.06,4.35,4.35,0,0,0-.7-8.64Z"/><path d="M89.07,173.7a3.35,3.35,0,0,1-.54-6.65,3.41,3.41,0,0,1,.55-.05,3.34,3.34,0,0,1,3.3,2.81,3.36,3.36,0,0,1-2.76,3.84,3.41,3.41,0,0,1-.55,0Z"/><path class="cls-1" d="M89.08,168a2.35,2.35,0,0,1,.38,4.67,2.56,2.56,0,0,1-.39,0,2.35,2.35,0,0,1-.38-4.67,2.56,2.56,0,0,1,.39,0m0-2a4.17,4.17,0,0,0-.71.06,4.35,4.35,0,0,0,.7,8.64,4.17,4.17,0,0,0,.71-.06,4.35,4.35,0,0,0-.7-8.64Z"/><path d="M80.14,182a3.35,3.35,0,0,1-.54-6.65,3.41,3.41,0,0,1,.55,0,3.35,3.35,0,0,1,.54,6.65,3.41,3.41,0,0,1-.55,0Z"/><path class="cls-1" d="M80.15,176.34a2.35,2.35,0,0,1,.38,4.67,2.56,2.56,0,0,1-.39,0,2.35,2.35,0,0,1-.38-4.67,2.56,2.56,0,0,1,.39,0m0-2a4.17,4.17,0,0,0-.71.06,4.35,4.35,0,0,0,.7,8.64,4.17,4.17,0,0,0,.71-.06,4.35,4.35,0,0,0-.7-8.64Z"/><path d="M75.76,185.21a3.35,3.35,0,0,1-.54-6.65,3.27,3.27,0,0,1,.54,0,3.35,3.35,0,0,1,.55,6.65,3.48,3.48,0,0,1-.55,0Z"/><path class="cls-1" d="M75.76,179.52a2.34,2.34,0,0,1,.38,4.66,2.43,2.43,0,0,1-.38,0,2.35,2.35,0,0,1-.38-4.66l.38,0m0-2a4.35,4.35,0,1,0,0,8.69,5.65,5.65,0,0,0,.71-.05,4.35,4.35,0,0,0-.71-8.64Z"/><path d="M69.63,186.71a3.35,3.35,0,0,1-.54-6.65,3.27,3.27,0,0,1,.54,0,3.35,3.35,0,0,1,.54,6.65,3.27,3.27,0,0,1-.54,0Z"/><path class="cls-1" d="M69.63,181a2.35,2.35,0,0,1,.38,4.66l-.38,0a2.34,2.34,0,0,1-.38-4.66l.38,0m0-2a4.35,4.35,0,1,0,0,8.69,5.78,5.78,0,0,0,.71-.05,4.35,4.35,0,0,0-.71-8.64Z"/><path d="M63.9,187.66a3.35,3.35,0,0,1-.55-6.65,3.51,3.51,0,0,1,.55,0,3.35,3.35,0,0,1,.54,6.65,3.29,3.29,0,0,1-.54,0Z"/><path class="cls-1" d="M63.9,182a2.35,2.35,0,0,1,.38,4.67l-.38,0a2.35,2.35,0,0,1-.38-4.67,2.43,2.43,0,0,1,.38,0m0-2a4.25,4.25,0,0,0-.71.06,4.35,4.35,0,0,0,.71,8.64,4.14,4.14,0,0,0,.7-.06,4.35,4.35,0,0,0-.7-8.64Z"/><path d="M58.25,186.14a3.35,3.35,0,0,1-2.72-5.3,3.43,3.43,0,0,1,2.72-1.4,3.35,3.35,0,0,1,.54,6.65,3.29,3.29,0,0,1-.54,0Z"/><path class="cls-1" d="M58.25,180.44a2.35,2.35,0,0,1,.38,4.66,1.69,1.69,0,0,1-.38,0,2.35,2.35,0,0,1-.38-4.67l.38,0m0-2a4.35,4.35,0,1,0,.71,8.64,4.35,4.35,0,0,0-.71-8.64Z"/><path d="M52.44,183.66A3.35,3.35,0,0,1,51.9,177a3.41,3.41,0,0,1,.55,0,3.35,3.35,0,0,1,.54,6.65,3.41,3.41,0,0,1-.55,0Z"/><path class="cls-1" d="M52.45,178a2.35,2.35,0,0,1,.38,4.67,2.56,2.56,0,0,1-.39,0,2.35,2.35,0,0,1-.38-4.67,2.56,2.56,0,0,1,.39,0m0-2a4.17,4.17,0,0,0-.71.06,4.35,4.35,0,0,0,.7,8.64,4.17,4.17,0,0,0,.71-.06,4.35,4.35,0,0,0-.7-8.64Z"/><path d="M85,178.78a3.33,3.33,0,0,1-3.3-2.8,3.37,3.37,0,0,1,2.76-3.85,3.48,3.48,0,0,1,.55,0,3.35,3.35,0,0,1,.54,6.65,3.39,3.39,0,0,1-.55,0Z"/><path class="cls-1" d="M85,173.09a2.35,2.35,0,0,1,.38,4.66,2.56,2.56,0,0,1-.39,0,2.35,2.35,0,0,1-.38-4.66,2.56,2.56,0,0,1,.39,0m0-2a4.17,4.17,0,0,0-.71.06,4.34,4.34,0,0,0,.7,8.63,4.17,4.17,0,0,0,.71-.05,4.35,4.35,0,0,0-.7-8.64Z"/><path d="M92.66,168.69a3.35,3.35,0,0,1-.54-6.65,3.48,3.48,0,0,1,.55,0,3.35,3.35,0,0,1,.54,6.65,3.39,3.39,0,0,1-.55,0Z"/><path class="cls-1" d="M92.67,163a2.35,2.35,0,0,1,.38,4.66,2.56,2.56,0,0,1-.39,0,2.35,2.35,0,0,1-.38-4.66,2.56,2.56,0,0,1,.39,0m0-2a5.52,5.52,0,0,0-.71.05,4.35,4.35,0,0,0,.7,8.64,4.17,4.17,0,0,0,.71-.06,4.34,4.34,0,0,0-.7-8.63Z"/><path d="M96.23,162a3.35,3.35,0,0,1-.54-6.66,3.27,3.27,0,0,1,.54,0,3.35,3.35,0,0,1,.55,6.65,3.51,3.51,0,0,1-.55.05Z"/><path class="cls-1" d="M96.23,156.27a2.35,2.35,0,0,1,.38,4.66,1.64,1.64,0,0,1-.38,0,2.35,2.35,0,0,1-.38-4.67l.38,0m0-2a4.35,4.35,0,0,0,0,8.7,4.25,4.25,0,0,0,.71-.06,4.35,4.35,0,0,0-.71-8.64Z"/><path d="M108.78,247.53a4.15,4.15,0,0,1-1.92-7.83,4.23,4.23,0,0,1,1.91-.46,4.15,4.15,0,0,1,1.92,7.83,4.23,4.23,0,0,1-1.91.46Z"/><path class="cls-1" d="M108.77,240.24a3.14,3.14,0,1,1-1.45.35,3.14,3.14,0,0,1,1.45-.35m0-2a5.15,5.15,0,0,0-2.37.58,5.15,5.15,0,0,0,2.38,9.71,5.15,5.15,0,0,0,2.37-.58,5.15,5.15,0,0,0,2.19-6.94,5.13,5.13,0,0,0-4.57-2.77Z"/><path d="M102.79,255.88a4.15,4.15,0,0,1-1.92-7.83,4.24,4.24,0,0,1,1.91-.47,4.15,4.15,0,0,1,1.92,7.84,4.23,4.23,0,0,1-1.91.46Z"/><path class="cls-1" d="M102.78,248.59a3.14,3.14,0,1,1-1.45.35,3.14,3.14,0,0,1,1.45-.35m0-2a5.15,5.15,0,1,0,4.57,2.77,5.15,5.15,0,0,0-4.57-2.77Z"/><path d="M95.93,261.92a4.15,4.15,0,0,1-3.69-2.24A4.15,4.15,0,0,1,94,254.09a4.24,4.24,0,0,1,1.91-.47,4.15,4.15,0,0,1,1.91,7.84,4.19,4.19,0,0,1-1.9.46Z"/><path class="cls-1" d="M95.92,254.62a3.15,3.15,0,1,1-1.45.36,3.15,3.15,0,0,1,1.45-.36m0-2a5.15,5.15,0,1,0,2.37,9.72,5.14,5.14,0,0,0,2.2-6.94,5.14,5.14,0,0,0-4.57-2.78Z"/><path d="M87.07,267.8a4.14,4.14,0,0,1-3.68-2.24,4.15,4.15,0,0,1,3.68-6.06,4.15,4.15,0,0,1,0,8.3Z"/><path class="cls-1" d="M87.07,260.5a3.14,3.14,0,1,1-1.45.35,3.14,3.14,0,0,1,1.45-.35m0-2a5.15,5.15,0,1,0,4.57,2.78,5.15,5.15,0,0,0-4.57-2.78Z"/><path d="M77.83,271.28a4.15,4.15,0,0,1-1.92-7.83,4.23,4.23,0,0,1,1.91-.46,4.15,4.15,0,0,1,1.92,7.83,4.23,4.23,0,0,1-1.91.46Z"/><path class="cls-1" d="M77.82,264a3.14,3.14,0,0,1,1.45,5.94,3.09,3.09,0,0,1-1.44.35,3.15,3.15,0,1,1,0-6.29m0-2a5.15,5.15,0,0,0-2.37.58,5.15,5.15,0,0,0,2.38,9.71,5.15,5.15,0,1,0,0-10.29Z"/><path d="M68.74,272.78a4.15,4.15,0,1,1,1.91-.47,4.14,4.14,0,0,1-1.91.47Z"/><path class="cls-1" d="M68.74,265.48a3.15,3.15,0,0,1,1.45,5.95,3.15,3.15,0,1,1-1.45-5.95m0-2a5.15,5.15,0,1,0,4.57,2.78,5.15,5.15,0,0,0-4.57-2.78Z"/><path d="M57.91,272.6a4.17,4.17,0,1,1,1.91-.47,4.14,4.14,0,0,1-1.91.47Z"/><path class="cls-1" d="M57.91,265.3a3.15,3.15,0,1,1-1.45.36,3.14,3.14,0,0,1,1.45-.36m0-2a5.15,5.15,0,1,0,4.57,2.78,5.15,5.15,0,0,0-4.57-2.78Z"/><path d="M113.89,239.82A4.15,4.15,0,0,1,112,232a4.06,4.06,0,0,1,1.91-.47,4.14,4.14,0,0,1,3.68,2.24,4.15,4.15,0,0,1-3.68,6.06Z"/><path class="cls-1" d="M113.88,232.52a3.16,3.16,0,1,1-1.44.36,3.15,3.15,0,0,1,1.44-.36m0-2a5.22,5.22,0,0,0-2.37.58,5.15,5.15,0,1,0,2.37-.58Z"/><path d="M49.16,270.09a4.15,4.15,0,0,1-1.91-7.83,4,4,0,0,1,1.9-.47,4.15,4.15,0,0,1,0,8.3Z"/><path class="cls-1" d="M49.15,262.79a3.15,3.15,0,0,1,1.46,5.94,3.05,3.05,0,0,1-1.45.36,3.15,3.15,0,0,1,0-6.3m0-2a5.15,5.15,0,1,0,4.58,2.78,5.15,5.15,0,0,0-4.58-2.78Z"/><path d="M40.73,266.57a4.15,4.15,0,1,1,1.9-.47,4,4,0,0,1-1.9.47Z"/><path class="cls-1" d="M40.72,259.27a3.15,3.15,0,1,1-1.45.36,3.15,3.15,0,0,1,1.45-.36m0-2A5.15,5.15,0,1,0,43.1,267a5.15,5.15,0,0,0,2.19-6.94,5.14,5.14,0,0,0-4.57-2.78Z"/><path d="M34.13,259.31a4.15,4.15,0,0,1-1.91-7.83,4,4,0,0,1,1.9-.47,4.15,4.15,0,0,1,0,8.3Z"/><path class="cls-1" d="M34.13,252a3.16,3.16,0,1,1-1.45.36,3.15,3.15,0,0,1,1.45-.36m0-2a5.15,5.15,0,0,0-2.37.58,5.15,5.15,0,0,0,2.37,9.72,5.15,5.15,0,0,0,0-10.3Z"/><path d="M30.32,251.1a4.15,4.15,0,0,1-1.91-7.83,4.24,4.24,0,0,1,1.91-.47,4.15,4.15,0,0,1,1.91,7.84,4.23,4.23,0,0,1-1.91.46Z"/><path class="cls-1" d="M30.32,243.8a3.15,3.15,0,0,1,1.45,5.95,3.15,3.15,0,1,1-1.45-5.95m0-2a5.28,5.28,0,0,0-2.37.58,5.14,5.14,0,1,0,2.37-.58Z"/><path d="M28.43,242.58a4.15,4.15,0,1,1,1.91-.47,4.15,4.15,0,0,1-1.91.47Z"/><path class="cls-1" d="M28.42,235.28a3.16,3.16,0,1,1-1.44.36,3.15,3.15,0,0,1,1.44-.36m0-2a5.15,5.15,0,0,0-2.37.58,5.15,5.15,0,0,0,2.38,9.72A5.15,5.15,0,0,0,30.8,243a5.15,5.15,0,0,0-2.38-9.72Z"/></svg>