<svg id="items" xmlns="http://www.w3.org/2000/svg" viewBox="0 0 262 335"><defs><style>.cls-1,.cls-3{stroke:#fff;stroke-miterlimit:10;stroke-width:3px;}.cls-2{fill:#6d6d6d;}.cls-3{fill:#061466;}.cls-4{fill:#2e4293;}</style></defs><path class="cls-1" d="M256.54,155.58c-.66-.63-1.41-1.28-2.24-1.94-1.09-.88-2.3-1.8-3.55-2.76-.63-.48-1.26-1-1.89-1.49a49,49,0,0,1-3.68-3.24c-.59-.57-1.14-1.16-1.67-1.77a21.94,21.94,0,0,1-1.47-1.9c-.23-.32-.44-.66-.64-1a17.21,17.21,0,0,1-1.06-2.1c-.14-.36-.28-.73-.39-1.1a12,12,0,0,1-.5-2.32,9.87,9.87,0,0,1-.08-1.22,16.67,16.67,0,0,1,.46-3.95,13.48,13.48,0,0,0,.45-4.22,10.35,10.35,0,0,0-.46-2.25,12,12,0,0,0-1.5-3.09,15.28,15.28,0,0,0-2.66-3c-.47-.41-1-.81-1.49-1.2s-1.06-.77-1.63-1.14-1.14-.74-1.73-1.11-1.2-.75-1.82-1.12l-12-7.35-2.52-1.54-2.16-1.32-1-.58c-1-.62-1.92-1.14-2.7-1.58l-.83-.47-1-.51-.65-.33-.57-.26-.37-.15a4,4,0,0,0-1.15-.29,1.62,1.62,0,0,0-1.1.33,3.29,3.29,0,0,0-1.21,2.58,16.9,16.9,0,0,0,.65,4.92c.16.63.33,1.27.51,1.94l.56,2c.16.6.33,1.2.49,1.82a34.4,34.4,0,0,1,1.31,7.62,16,16,0,0,1-.08,2.09,8.53,8.53,0,0,1-2.11,4.92,9.83,9.83,0,0,1-3.63,2.35,14.82,14.82,0,0,1-4.12.92,13.87,13.87,0,0,1-1.44.06,14.45,14.45,0,0,1-2.39-.2,13.1,13.1,0,0,1-2.91-.82,7.16,7.16,0,0,1-1-.48,6,6,0,0,1-2-1.66,3.86,3.86,0,0,1-.77-2.68,5.54,5.54,0,0,1,.05-.56c0-.39.11-.78.18-1.19,0-.21.08-.42.11-.64a11.25,11.25,0,0,0-.29-5.58,9.55,9.55,0,0,0-3.33-4.85c-.23-.2-.47-.38-.72-.57-1-.75-2.06-1.47-3.15-2.4a17.54,17.54,0,0,1-2.44-2.54,18.53,18.53,0,0,1-1.57-2.38,17.12,17.12,0,0,1-.8-1.61c-.12-.26-.23-.52-.32-.78a10.83,10.83,0,0,1-.39-1.18l-.12-.41a33.27,33.27,0,0,1-.58-3.46l0-.18a10.16,10.16,0,0,0-.72-2.66c-.11-.24-.23-.49-.37-.74a11.05,11.05,0,0,0-1-1.58c-.26-.33-.52-.64-.79-.93a12.75,12.75,0,0,0-4-2.88c-.79-.37-1.56-.66-2.27-1-.48-.2-.94-.39-1.36-.61a6.76,6.76,0,0,1-1.18-.75,4.75,4.75,0,0,1-1.32-1.72,6.89,6.89,0,0,1-.6-3c0-3.47,1.86-7.73,4.67-10.86.17-.2.35-.39.53-.58q.56-.55,1.14-1a11.21,11.21,0,0,1,5.12-2.62,7.61,7.61,0,0,1,1.84-.1,12.07,12.07,0,0,1,6.23,2.69c.29.21.57.43.85.66.57.46,1.12,1,1.67,1.47s1.08,1,1.6,1.59c4.2,4.35,7.69,9.36,9.81,9.65a1.13,1.13,0,0,0,.73-.12,1.06,1.06,0,0,0,.53-.93c0-.08,0-.16,0-.26a5.06,5.06,0,0,0,0-.63c0-.11,0-.24-.05-.37-.13-.8-.38-1.86-.75-3.28-.06-.23-.12-.48-.19-.73-.48-1.8-1.11-4.11-1.91-7.07l-.35-1.31c-.83-3.15-1.82-7-3-11.62-.25-1-.51-2.09-.8-3.13l-.12-.42c-.11-.38-.23-.75-.35-1.12a15.24,15.24,0,0,0-4.81-7.46,8.05,8.05,0,0,0-2.84-1.49,15.5,15.5,0,0,0-1.61-.36A10.8,10.8,0,0,1,171.26,40a10.62,10.62,0,0,1-1.38-1.08l-.09-.08c-.22-.21-.44-.43-.64-.66a13,13,0,0,1-2-3.1c-.13-.29-.26-.58-.38-.89a64.06,64.06,0,0,1-2.39-8.49l-.06-.23c-.15-.64-.31-1.27-.45-1.88-.09-.34-.17-.68-.25-1s-.21-.84-.31-1.25c-.14-.59-.28-1.17-.42-1.73-.07-.27-.13-.55-.2-.81l-.3-1.24-.06-.22c-.2-.83-.4-1.62-.59-2.38,0-.1,0-.21-.08-.31-.31-1.24-.61-2.37-.88-3.41l0-.12c-.28-1.06-.55-2-.8-2.87v0c-.26-.87-.49-1.63-.72-2.28A8.76,8.76,0,0,0,159,4l0-.11a1.19,1.19,0,0,0-.08-.2l-.06-.15-.08-.13a.4.4,0,0,0-.1-.12l-.06-.07a.44.44,0,0,0-.42-.09l-.14,0a1.53,1.53,0,0,0-.19-.18.43.43,0,0,0-.21-.11h0a.55.55,0,0,0-.22,0l-.09,0-.15.08-.11.09-.15.13-.13.14c-.05.05-.09.11-.14.17l-.15.2a2.14,2.14,0,0,0-.13.19l-.18.28-.09.14c-.17.29-.34.61-.53,1h0c-.13.14-.27.29-.4.45L154.9,6l-.77.91-.22.26-.49.6-.27.32c-.29.36-.6.74-.91,1.14l-.31.38-.58.74c-.11.14-.23.28-.34.43l-1,1.31-.44.57-.61.79-1,1.25-.58.75-.77,1-.49.63-1.29,1.69c-.15.2-.32.41-.48.63-.45.58-.9,1.18-1.37,1.8-1.25,1.64-2.4,3.18-3.54,4.55a21.27,21.27,0,0,1-4.25,4.07,12.36,12.36,0,0,1-1.58.9,10.56,10.56,0,0,1-2.66.82,8.8,8.8,0,0,1-1.39.12,11.67,11.67,0,0,1-2.9-.4,12.61,12.61,0,0,0-3.33-.52,8.19,8.19,0,0,0-2,.29l-.28.09c-.39.11-.77.25-1.13.39a12.85,12.85,0,0,0-2.36,1.23,16.16,16.16,0,0,0-1.62,1.2c-.43.37-.83.75-1.23,1.15h0l-.65.69c-.89,1-1.72,2-2.53,3.07l-.24.32-.39.51c-1.25,1.63-2.41,3.13-3.49,4.52-.8,1-1.54,2-2.25,2.86L104,48.56l-2.14,2.68L100.4,53c-2.93,3.63-4.54,5.61-5.17,6.83l-.13.26a2.27,2.27,0,0,0-.18.66.94.94,0,0,0,.2.64c.69.9,2.49.42,4.9-.6.53-.23,1.1-.48,1.69-.76l1.84-.86,2-.92c1.34-.61,2.73-1.23,4.14-1.77A29.37,29.37,0,0,1,114.9,55a16.18,16.18,0,0,1,2-.23,10.2,10.2,0,0,1,2.84.23,7.68,7.68,0,0,1,2.53,1.09,12.24,12.24,0,0,1,4.25,5.88c1.66,4.4,1.67,9.79-.11,13.13a6.12,6.12,0,0,1-.66,1A5.89,5.89,0,0,1,125,77a5.1,5.1,0,0,1-3.28,1.25c-.72,0-1.47,0-2.28,0a15,15,0,0,0-5.48.6,12.23,12.23,0,0,0-2.16.93,9.76,9.76,0,0,0-.86.5,9.4,9.4,0,0,0-2.36,2.13q-.22.28-.42.57c-.65,1-1.17,2-1.94,3a15.45,15.45,0,0,1-3.49,3.52c-.41.32-.82.6-1.22.86-3.19,2-5.87,2.39-8.28,3l-1.1.29a9.52,9.52,0,0,0-4.79,3A11,11,0,0,0,85,101c-.13.44-.23.87-.33,1.27-.4,1.63-.74,3-2.27,3.85a6.57,6.57,0,0,1-2.91.78,10.65,10.65,0,0,1-1.13,0,12.56,12.56,0,0,1-2.12-.33c-4.09-.94-8.42-3.83-9.73-7.61C64,91.78,73.37,84,76.9,78.32a11,11,0,0,0,1-2,3.29,3.29,0,0,0-.08-2.84c-.36-.62-.87-.94-2.44-.95-.15,0-.3,0-.46,0l-1.08,0c-.61,0-1.31.11-2.13.2l-.86.1-2,.24-2.32.3-9.44,1.31-4.09.56-4.6.63-2.11.3-1,.15a30.37,30.37,0,0,0-5.69,1.36,12.93,12.93,0,0,0-5.36,3.59,9.54,9.54,0,0,0-1.85,3c-.07.2-.14.39-.2.58a20.78,20.78,0,0,0-.56,2.33A22.44,22.44,0,0,1,31,89.69a12.85,12.85,0,0,1-3.29,5.19c-3.37,3.26-8.33,4.84-13,6.05-1.56.4-3.08.75-4.49,1.12l-1,.27c-.68.18-1.33.37-1.94.57-.3.1-.6.2-.88.31a10.1,10.1,0,0,0-2.81,1.46,3.22,3.22,0,0,0-.87,4.42,9.87,9.87,0,0,0,2,2.33c.43.39.91.79,1.43,1.19,1.54,1.22,3.4,2.48,5.29,3.87A44.66,44.66,0,0,1,17.83,122,21,21,0,0,1,20,124.76c.21.33.42.66.61,1a15.25,15.25,0,0,1,1,2.14,13.36,13.36,0,0,1,.78,3.56c.36,4.51-1.8,5.71-.59,10a10.45,10.45,0,0,0,1.79,3.63,15.24,15.24,0,0,0,2.22,2.27c.58.5,1.23,1,1.94,1.5,2.49,1.79,5.78,3.78,10,6.69,6.27,4.31,10.12,7.54,12.72,9.62l.5.41c.65.51,1.22.95,1.72,1.3A4.9,4.9,0,0,0,55.17,168a1.8,1.8,0,0,0,.52-.05,2,2,0,0,0,.5-.17c3.08-1.48,1.88-8.08,1.68-14.53,0-.36,0-.71,0-1.07s0-.71,0-1.06c0-.71,0-1.41.09-2.09s.14-1.34.26-2c.08-.41.17-.81.28-1.2s.24-.8.38-1.17a10.51,10.51,0,0,1,.51-1.13,7.22,7.22,0,0,1,1.62-2c0-.05.12-.09.18-.14a5.87,5.87,0,0,1,.54-.41,7.9,7.9,0,0,1,1.5-.78c.27-.11.54-.2.81-.28a11.6,11.6,0,0,1,5.16-.3,8.7,8.7,0,0,1,1.58.4,5.8,5.8,0,0,1,2.91,2,3.39,3.39,0,0,1,.62,1.78,11,11,0,0,1-.63,3.45c-.11.38-.21.76-.3,1.15l-.06.27a11.18,11.18,0,0,0-.21,1.31,8.63,8.63,0,0,0,0,.88,6.9,6.9,0,0,0,.53,2.51,6.2,6.2,0,0,0,1.25,1.92,8.31,8.31,0,0,0,1.69,1.31c2.1,1.27,4.81,2.1,7.48,4.76A10.48,10.48,0,0,1,86,164a9.06,9.06,0,0,1,.64,1.69c.81,3,0,5.77,2.91,9A16,16,0,0,0,95,178.52c1,.48,2.08.87,3.07,1.25a26.08,26.08,0,0,1,3.23,1.39c.29.16.56.32.81.49a7.8,7.8,0,0,1,.7.56,4.21,4.21,0,0,1,.56.64,3.87,3.87,0,0,1,.7,1.6,4.69,4.69,0,0,1,0,1.62c0,.14-.05.28-.07.4-.3,1.67-1.25,7.23-2.92,14.94-.08.39-.17.78-.25,1.17-1,4.76-2.34,10.26-3.91,16.15q-.78,2.94-1.65,6c-.44,1.52-.89,3.06-1.36,4.61q-.94,3.1-2,6.24-1.29,3.92-2.73,7.82c-.19.52-.38,1-.58,1.55a148.86,148.86,0,0,1-9.39,20.54,13.43,13.43,0,0,1-.69,1.16c-.14.21-.29.43-.45.64A8.66,8.66,0,0,1,77,268.52a5.24,5.24,0,0,1-2.33,1.23c-2.31.48-5-.85-7.44-2.8l-.67-.55c-.67-.56-1.32-1.16-2-1.77L64,264a55.77,55.77,0,0,1-4.4-5.11l-.32-.41c-.4-.53-.68-.92-.82-1.13l-.08-.11,0,0s-.29,1.41-.63,3.68c-.05.33-.1.67-.15,1q-.15,1.08-.3,2.34c0,.42-.1.85-.14,1.29-.09.88-.18,1.82-.25,2.78-.14,1.93-.23,4-.23,6.1,0,1.05,0,2.11.09,3.17a38.23,38.23,0,0,0,1.45,9.1,22.91,22.91,0,0,0,1,2.64c.19.42.39.82.61,1.21a11.81,11.81,0,0,0,3.33,3.86c2.25,1.63,4.71,2,7.06,2.25l1,.12c2.65.33,5.11.84,6.91,3.37a8,8,0,0,1,1.35,3.2,19.56,19.56,0,0,1,.23,3.49c0,.83,0,1.69,0,2.6.36,10.6,5.73,21.47,8.19,22.51a.94.94,0,0,0,.22.07.89.89,0,0,0,.28,0l.12,0,.14-.06a1.78,1.78,0,0,0,.4-.22h0a1.74,1.74,0,0,0,.29.35l0,0a1,1,0,0,0,.35.19,2.18,2.18,0,0,0,1.18-.18c3.22-1.2,10.33-7.49,14.65-15.29.33-.6.65-1.21,1-1.82.39-.83.73-1.62,1.07-2.38,1-2.26,1.93-4.17,4.13-5.49,3-1.8,5.73-.91,8.65,0,.65.19,1.3.39,2,.56a13.44,13.44,0,0,0,3.14.44,9.86,9.86,0,0,0,2.25-.22,10.37,10.37,0,0,0,1.21-.34,13.52,13.52,0,0,0,4.43-2.72c.35-.3.68-.62,1-1a29.07,29.07,0,0,0,3.64-4.69c.28-.44.55-.88.81-1.33.4-.69.78-1.4,1.16-2.11.24-.47.47-.94.7-1.41,1-2.13,2-4.33,2.74-6.42.34-.94.67-1.86,1-2.74.45-1.32.84-2.58,1.17-3.71l.32-1.09c.78-2.79,1.17-4.62,1.17-4.63h0s-6.81,4.22-12.88,5.55l-.82.17c-2.45.43-4.71.33-6.28-.79a5.53,5.53,0,0,1-2-2.85,7.94,7.94,0,0,1-.22-.8,14.21,14.21,0,0,1-.32-2.1,139.57,139.57,0,0,1-.55-17.62c0-1.65.11-3.31.2-5,.26-5,.7-10,1.25-14.81.12-1.08.25-2.15.38-3.22q.39-3.08.82-6.05l.06-.45c.22-1.46.44-2.9.66-4.31s.48-2.94.72-4.36.49-2.8.74-4.14c.65-3.59,1.31-6.88,1.92-9.79q.22-1.08.45-2.1t.42-1.95c.14-.63.27-1.22.4-1.79.19-.85.37-1.64.54-2.35.11-.48.22-.92.31-1.34s.19-.79.28-1.14.15-.66.22-.93l.24-1c0-.12.07-.25.11-.4a4.51,4.51,0,0,1,.67-1.46,4,4,0,0,1,1.28-1.19,5.42,5.42,0,0,1,1.64-.59,14.41,14.41,0,0,1,3-.16l1.18,0a27.5,27.5,0,0,0,7.45-.3,13.37,13.37,0,0,0,2.62-.86,8.74,8.74,0,0,0,3.18-2.32,16.8,16.8,0,0,0,1.78-2.73c.13-.23.27-.46.41-.69a10.84,10.84,0,0,1,1.51-2,7,7,0,0,1,.69-.63,10.44,10.44,0,0,1,2.92-1.66,19.65,19.65,0,0,1,6.51-1.18c.5,0,1,0,1.46-.09.31,0,.6-.06.89-.1a9,9,0,0,0,1.17-.23,6.23,6.23,0,0,0,2.72-1.53,6.32,6.32,0,0,0,.62-.66,6.51,6.51,0,0,0,.88-1.42,6.74,6.74,0,0,0,.3-.74,12.18,12.18,0,0,0,.52-2.23c.15-1,.25-1.95.46-2.8a5.4,5.4,0,0,1,.43-1.19,4.72,4.72,0,0,1,.33-.53,3.47,3.47,0,0,1,1-.85,4.14,4.14,0,0,1,1.24-.5,4.83,4.83,0,0,1,.7-.13,8.55,8.55,0,0,1,3,.22l.33.08a10.71,10.71,0,0,1,6.11,4.2c1.32,2,1.37,4.44.77,7a41.19,41.19,0,0,1-3.63,8.69c-.48.94-1,1.86-1.4,2.76-.3.59-.58,1.17-.83,1.73a12.42,12.42,0,0,0-1.3,4.47,3,3,0,0,0,.67,2.13c.79.92,1.91,1,4,.51l.5-.12c1.57-.37,3.65-1,6.45-1.71.93-.25,1.94-.5,3.05-.77,2.2-.53,4.77-1.1,7.75-1.67,8.68-1.65,13.68-1.94,17.2-3.88.29-.16.57-.34.85-.52a10.7,10.7,0,0,0,2.25-2.08,9.44,9.44,0,0,0,.87-1.24,7.91,7.91,0,0,0,.76-1.68,14.74,14.74,0,0,0,.46-2.13c0-.18.06-.36.1-.55a13.59,13.59,0,0,1,.42-1.77c.07-.2.14-.42.22-.64a14.18,14.18,0,0,1,.65-1.41,13.75,13.75,0,0,1,3-3.76,16.31,16.31,0,0,1,1.87-1.44,21.47,21.47,0,0,1,3.14-1.69c.73-.32,1.48-.61,2.24-.87s1.36-.45,2-.64l.51-.15c2.25-.61,4.51-1.07,6.58-1.51l1.06-.23c.69-.15,1.36-.31,2-.47,2.36-.61,4.24-1.33,5.24-2.49a3,3,0,0,0,.7-1.33C259.3,158.85,258.28,157.26,256.54,155.58Z"/><path class="cls-2" d="M174.92,133.14a9,9,0,0,0-3.91-6.43c1.43-1.66,3.05-5.67,1.63-9a9,9,0,0,0-5.74-4.78c.7-2.14.8-6.14-1.5-8.72a9,9,0,0,0-6.84-2.7c-.05-2.26-1.27-6-4.24-7.69a9,9,0,0,0-7.68-.17c-.8-2.06-3.51-5.34-7.1-5.72a9,9,0,0,0-6.87,2.61c-1.76-1.47-5.13-3-8.24-2a8.94,8.94,0,0,0-5.15,4.71c-2.14-.82-5.75-1.18-8.38.66a8.89,8.89,0,0,0-3.48,7.1c-2.18-.32-6.38.41-8.49,3.34a9,9,0,0,0-1.24,6.81c-2.19.69-5.18,2.59-6.13,5.6a8.92,8.92,0,0,0,1.35,7.46c-2,.89-5.17,3.86-5.31,7.52a9,9,0,0,0,2.93,6.54c-1.52,1.71-3.16,5-2.32,8.19a9,9,0,0,0,5,5.53c-1.08,2-1.91,5.95-.06,8.93a9,9,0,0,0,6,3.79c-.2,2.28.47,5.88,3,7.91a8.86,8.86,0,0,0,7.87,1.3c.23,2,2.46,6.2,6.21,7.2a8.86,8.86,0,0,0,7.68-1.95c1.11,1.82,4.64,4.63,8.38,4.15a8.9,8.9,0,0,0,5.9-3.85c2,1,5.46,1.77,8.23.32a8.82,8.82,0,0,0,3.94-4.81c2.26.24,5.45-.22,7.5-2.33a9,9,0,0,0,2.22-6.6c2.26-.36,5.38-1.74,6.78-4.48a9,9,0,0,0,.11-7.14c2.13-.81,5.16-3.06,5.84-6.29a9,9,0,0,0-2-7.21C172.7,139.58,175.14,136.53,174.92,133.14Zm-9.77,20c-.52.72-1,2.62-2.76,5.54-2.45,4.15-4.59,5.77-4.86,6.63a33.75,33.75,0,0,1-3.12,3.26,30.61,30.61,0,0,1-4.23,3.26c-.75,0-2.24,1.41-5.77,3-4.08,1.84-6.69,2-7.61,2.49a34.11,34.11,0,0,1-4.69.65c-4.42.29-6.93-.41-8-.32-.76-.37-2.74-.46-6.07-1.57a51.36,51.36,0,0,1-7.18-3.27c-.35-.68-2.21-1.5-5-4.07a39.8,39.8,0,0,1-5-5.63,44.49,44.49,0,0,1-3-4.62,40.07,40.07,0,0,1-2.79-6.89c0-.84-1-2.61-1.66-6.09a42,42,0,0,1-.7-7.59,43.91,43.91,0,0,1,.12-5.57A39.79,39.79,0,0,1,94.41,125c.58-.43.61-2.48,2-6.24a34,34,0,0,1,3.16-6.2,51.67,51.67,0,0,1,3.33-4.79c3.12-3.83,5.53-5.08,5.82-5.88a57.26,57.26,0,0,1,4.76-3.42,33.93,33.93,0,0,1,6.21-2.95c.91-.2,2.63-1.08,5.77-1.84,4.46-1.06,7.08-.73,8-1a36.82,36.82,0,0,1,5,.46,44.66,44.66,0,0,1,7.39,2.09c.72.54,2.58,1.15,5.4,3A37.28,37.28,0,0,1,157,102.8c.53.74,2.08,1.93,4.12,4.52a42.83,42.83,0,0,1,4.05,6.5c.34.91,1.36,2.52,2.4,5.47a38.18,38.18,0,0,1,1.68,7.15c-.39.62.33,2.54.35,6.57,0,4.69-.94,7.17-.8,8.1a43.24,43.24,0,0,1-1.05,5.42A36.15,36.15,0,0,1,165.15,153.15Z"/><ellipse class="cls-3" cx="131.08" cy="134.75" rx="38.41" ry="34.14" transform="translate(-26.62 237.06) rotate(-78.77)"/><ellipse class="cls-4" cx="147.32" cy="121.6" rx="14.5" ry="11.55" transform="translate(18.11 262.29) rotate(-86.97)"/><ellipse class="cls-4" cx="134.55" cy="139.69" rx="8.72" ry="6.94" transform="translate(-12.05 266.67) rotate(-86.97)"/></svg>