<svg id="items" xmlns="http://www.w3.org/2000/svg" viewBox="0 0 191 318"><defs><style>.cls-1{stroke:#fff;stroke-miterlimit:10;stroke-width:3px;}</style></defs><path id="croix_1" data-name="croix 1" class="cls-1" d="M134.15,316.22c-4.38,1-5.55-9.57-18.74-20.1C106,288.59,96.83,286.2,96,278.81A11.13,11.13,0,0,1,97,273c8.16-19.34-2.92-74.06-6.14-132.24-.35-6.41-.8-16.33-7.16-20.1-7.24-4.3-20.57.33-28.7,7.21-5.72,4.85-5.53,8-9.93,9.2-6.33,1.76-9.89-3.86-22.75-9.29s-20.15-4.32-20.66-7.59c-.62-3.94,10-5.16,20.52-16.44,8.36-8.93,7.58-14.43,13.46-16.07,7-2,10.21,5.29,22.23,6.42,2,.19,15,1.4,19.55-5.28,6.88-10-8.75-32.45-9.58-33.62-5.48-7.72-9-9-9.4-14.36-.46-6.17,3.88-8,10-20.49C74,8.93,73.66,3.76,77.24,3l0,.1c3.61-.56,5.09,4.41,14.28,13.15C101.61,25.88,106.3,26,108,32c1.5,5.19-1.36,7.59-3.79,16.73-.37,1.39-7.18,27.86,2.78,34.85,6.63,4.66,18.32-1,20.15-1.88,10.87-5.26,11.34-13.16,18.59-13.79,6.08-.52,7.27,4.91,18.23,10.35,13.83,6.88,24.17,4.32,25,8.24.66,3.23-6.49,4.68-16.71,14.33s-11.51,16.09-18.06,16.66c-4.55.39-5.47-2.61-12.52-5.15-10-3.61-24.13-3.29-29.42,3.27-4.63,5.76-1.59,15.21.32,21.34C129.89,192.56,138.64,247.7,153,263a11.14,11.14,0,0,1,3,5.09c1.79,7.23-6,12.67-12.15,23-8.68,14.47-6.1,24.76-10.54,25.39"/></svg>