<svg id="items" xmlns="http://www.w3.org/2000/svg" viewBox="0 0 204 145"><defs><style>.cls-1{fill:#d38318;}.cls-1,.cls-2{stroke:#fff;stroke-width:2px;}.cls-1,.cls-2,.cls-4,.cls-5,.cls-6{stroke-miterlimit:10;}.cls-2,.cls-3,.cls-4,.cls-5{fill:#f7bff2;}.cls-3{opacity:0.5;}.cls-4{stroke:#f9f98a;}.cls-4,.cls-5,.cls-6{stroke-linecap:round;stroke-width:7px;}.cls-5{stroke:#cc85ff;}.cls-6{fill:#92c8f4;stroke:#92c8f4;}</style></defs><path class="cls-1" d="M6.16,99.89a59,59,0,0,0,7.43,14.46,58.18,58.18,0,0,0,8.77,11.24c1.4,1.33,7.21,6.68,21.35,11.16,2.33.74,9.71,3,26.21,4.65,11.55,1.17,21.92,2.27,35.69,1.19a159.94,159.94,0,0,0,30.84-5.4c20.6-5.92,47.21-13.56,58.59-36.47,6.08-12.24,5.86-24.92,5.75-31.44-.19-11.4-.27-19.4-5.6-25.21C180.6,28.16,140.54,41,137.41,53.4a16.52,16.52,0,0,1-1.63,5.12c-3,5.37-8.93,7.39-14.26,9.12-4.57,1.47-8,1.9-14.66,2.69-7.12.85-10.68,1.28-14.85,1A51.55,51.55,0,0,1,71.8,65.67c-11-5.46-10-9.91-18.63-14.19C38.59,44.23,17.56,44.16,9.33,54.8,7.66,57,7,59.44,5.66,64.4A63.48,63.48,0,0,0,6.16,99.89Z"/><path class="cls-2" d="M198.79,50.29a48.15,48.15,0,0,0-9.28-18.67c-1.55-1.93-6.24-7.5-16.17-13.46-4.59-2.76-14.26-8-31.42-11.54a152.13,152.13,0,0,0-46.7-2.3C85.4,5.35,65,7.71,42.58,19.87c-9.28,5-20.93,11.51-30.15,24.88C9.26,49.33,4.53,56.35,3,66.57.69,82.35,7.32,96.92,8.68,96.71c.59-.09.53-3,1.19-3,1-.05.94,7.29,4.77,9,.73.33,2.06.64,2.72,0,1.32-1.23-1.63-4.75-.17-7.46.74-1.4,2.67-2.62,3.83-2.14,3.11,1.27-2.11,13.63,2.86,17.53a7.23,7.23,0,0,0,7.84.12c4.89-3.24.85-13.53,5.62-16.29,2.12-1.23,5.21-.51,6.9.91,2.34,2,1.73,4.94,2.32,11.3.68,7.37,1.26,13.62,5.32,16.74,2.92,2.25,7.44,2.71,9,1,1.26-1.42-.33-3.48-.71-9.11-.25-3.72-.55-8.28,1.91-10.08,1.88-1.37,5.24-1,7.54.5,5.21,3.44,2.47,11.21,8.19,15,.93.62,2.69,1.8,4.22,1.21,4-1.51.61-12.58,4.76-14.83,3.1-1.67,9.88,1.78,12,6.79s-1.49,9.41,1.46,12.76a6.86,6.86,0,0,0,6,2c4.26-.65,6.39-5.72,6.74-6.55,1.94-4.65.15-7.84,2.61-9.82,1-.84,2.77-1.41,3.66-.76,2,1.47-2.21,7.81.14,10.19,1.36,1.37,4.65,1.17,5.75-.32,1.8-2.46-3.21-7.25-1.19-10.41a4.86,4.86,0,0,1,3.54-1.77c1.6-.14,1.81.65,3.47.78,2.52.19,4.83-1.41,7.16-3,1.86-1.29,2-1.75,2.53-1.65,2.52.42,1,10.19,4.89,11.91a5.25,5.25,0,0,0,5.78-1.91c2.47-3.61-3.13-8.81-.53-13.55.88-1.59,2.74-3.21,4.09-2.85,3.08.83.66,11,5.27,13.35a5.76,5.76,0,0,0,8.31-4.69c.35-2.15-.44-3.73-.78-5.32-.9-4.19-2-5.89-1.73-9.19.34-3.72,2.4-8.55,5.9-9.35,2.95-.68,5.7,1.76,5.83,1.88,4.46,4.07,1.32,11.13,4.19,12.79,3.07,1.77,11.19-2.31,12.36-7.88,1-5-4.31-7.07-5.05-15.79-.32-3.83.23-9.1,2.61-9.95s4.47,3.13,6.39,2.33C201.16,66,200.3,56.55,198.79,50.29ZM126.07,65.76c-6,3-11.13,3.62-19.21,4.57-6.48.77-11.1,1.29-17.28.62-4.72-.51-15.76-2.3-15.91-5.32-.13-2.36,6.46-4.53,12.51-6.53a54.11,54.11,0,0,1,14.29-3c5.13-.33,6.56.36,13.36.85,14.38,1,21.22-1.1,21.87.9S129.8,63.9,126.07,65.76Z"/><path class="cls-3" d="M121.22,60.67l2.23,0A1.5,1.5,0,0,1,124.81,62c.34-.13.66-.29,1-.45a9.86,9.86,0,0,0-5-1.85A1.31,1.31,0,0,1,121.22,60.67Z"/><path class="cls-1" d="M133.22,61.36c-4.54,3.23-9.34-3.18-23.94-4.06a61.38,61.38,0,0,0-16.34,1.36,35.9,35.9,0,0,0-9.84,3.17c-5.4,2.81-6,5.21-8.61,5.07-4.6-.26-9.61-8-8.07-14.05a10.51,10.51,0,0,1,3.64-5.35,57.16,57.16,0,0,1,30.32-13c10-.53,31.88,1,36,12.89C138,52.1,137,58.66,133.22,61.36Z"/><path class="cls-2" d="M66.84,55c1.53,2,6.93,1.33,9.7-1.45,2.25-2.27,1.87-5.31,3.11-5.46,1.94-.25,2.57,7.11,7.12,8.71A7.77,7.77,0,0,0,95,54.18c2.78-4-1.1-10.1,1.38-11.73a2.77,2.77,0,0,1,2.72,0c1.52.91.76,3,2.41,6.19a6,6,0,0,0,2.73,3.09,5,5,0,0,0,4.7-.54c3.3-2.49.59-8.86,3.25-10.24a3.59,3.59,0,0,1,3.85.92c1.63,1.79-.31,4.5,1.44,6.64.77.94,2.22,1.73,3.22,1.33,1.73-.68.79-4.38,2.78-5.42a3.1,3.1,0,0,1,3.47.63c1.74,2-2.29,5.8-.94,9.63,1.1,3.12,5.5,5.46,8.15,4.34,3.09-1.31,3.43-7.09,2.5-10.83C135,41.45,128.35,38,125.07,36.28c-7.36-3.85-14.17-3.84-20.16-3.82a57.94,57.94,0,0,0-21.64,4.18C74,40.38,70.74,44.58,69.72,46,69.11,46.87,65,52.64,66.84,55Z"/><line class="cls-4" x1="38.93" y1="34.06" x2="37.42" y2="50.56"/><line class="cls-5" x1="58.66" y1="20.75" x2="67.16" y2="32.59"/><line class="cls-5" x1="176.56" y1="51.25" x2="166.25" y2="64.22"/><line class="cls-6" x1="105.36" y1="12.68" x2="94.49" y2="24.7"/><line class="cls-5" x1="34.51" y1="79.67" x2="18.81" y2="74.37"/><line class="cls-5" x1="100.87" y1="98.23" x2="112.91" y2="99.47"/><line class="cls-4" x1="129.23" y1="19.13" x2="138.76" y2="28.13"/><line class="cls-6" x1="154.48" y1="32.81" x2="173.54" y2="31.75"/><line class="cls-6" x1="149.79" y1="68.03" x2="148.28" y2="84.53"/><line class="cls-4" x1="68.69" y1="84.57" x2="59.64" y2="94.68"/><line class="cls-6" x1="64.95" y1="69.02" x2="51.43" y2="59.44"/><line class="cls-4" x1="126.02" y1="84.73" x2="114.12" y2="78.19"/></svg>