<svg id="items" xmlns="http://www.w3.org/2000/svg" viewBox="0 0 204 145"><defs><style>.cls-1{fill:#b26d12;}.cls-1,.cls-2{stroke:#fff;stroke-width:2px;}.cls-1,.cls-2,.cls-4,.cls-5,.cls-6{stroke-miterlimit:10;}.cls-2{fill:#a4d5f4;}.cls-3,.cls-4,.cls-5,.cls-6{fill:#f7bff2;}.cls-3{opacity:0.5;}.cls-4{stroke:#f9f98a;}.cls-4,.cls-5,.cls-6{stroke-linecap:round;stroke-width:7px;}.cls-5{stroke:#cc85ff;}.cls-6{stroke:#f7bff2;}</style></defs><path class="cls-1" d="M3.17,78A59.22,59.22,0,0,0,7.26,93.69a58.12,58.12,0,0,0,6.09,12.89c1.08,1.62,5.57,8.1,18.39,15.57,2.11,1.24,8.81,5,24.55,10.29,11,3.67,20.89,7,34.56,9a159,159,0,0,0,31.28,1.49c21.4-1.26,49-2.88,65.15-22.75,8.62-10.61,11.18-23,12.51-29.41,2.3-11.17,4-19,.05-25.83-10.75-18.72-52.64-15-58.42-3.55A16.57,16.57,0,0,1,138.71,66c-4.06,4.59-10.34,5.25-15.91,5.77-4.79.44-8.22.1-14.9-.58-7.13-.73-10.7-1.1-14.71-2.26A51.57,51.57,0,0,1,74.72,59C65.18,51.21,67.11,47.09,59.65,41,47,30.76,26.51,26.09,16.14,34.66c-2.09,1.73-3.27,4-5.67,8.56A63.53,63.53,0,0,0,3.17,78Z"/><path class="cls-2" d="M202,71.77a48.15,48.15,0,0,0-5-20.25c-1.09-2.22-4.45-8.68-12.83-16.67C180.32,31.15,172,24,156.07,16.71A152.17,152.17,0,0,0,111,4.22C101.2,3.08,80.77.91,56.24,7.86,46.09,10.74,33.3,14.51,21.37,25.53c-4.09,3.78-10.24,9.59-14,19.24C1.68,59.65,5,75.32,6.33,75.41c.6,0,1.18-2.8,1.82-2.69,1,.17-.67,7.32,2.69,9.8.65.48,1.88,1.08,2.65.63,1.74-1-.36-6.18,1.47-7.32a3,3,0,0,1,3.05.55c3.87,3.1-2.14,13.3,1.65,16.47,1.92,1.61,4.2-.41,6.07,1.3,2.89,2.63-1.34,8.44,1.62,13,1.49,2.31,4.83,4.37,7.22,3.58,5.65-1.84,3.16-18.46,7.88-19.49,1.63-.35,3.53,1.27,4.39,2.6,2.39,3.69-1.56,7.72.48,10.76,1.71,2.56,6.75,3,10.1,1.41,4.71-2.3,5.77-8.69,6.36-8.51,1,.3-6.6,16.51-.28,24.42,1.45,1.81,4.45,4.2,7.23,3.58,7-1.55,6.32-20.83,11.7-21.33,1.92-.18,4.12,2.09,5,3.87,1.38,2.78-.23,4.79,1.46,7.93A8.38,8.38,0,0,0,92,119.23c2,1.13,5.43,2,7.27.42s.75-4.4,3.25-6.28c.61-.45.92-.68,1.28-.61,2.11.41-.62,9.76,4.2,15.24.69.79,3,3.19,6,3,3.74-.24,6-4.45,6.37-5,2.6-4.72.1-8.21,2.69-10.71a7.33,7.33,0,0,1,7.28-1.39c5.94,2.33,4.41,13.44,9.29,14.6,2.41.58,5.07-1.49,6.37-3.07,4.54-5.53-.58-13.73,2.47-15.7,2.51-1.62,9.23,1.86,10.53,6.3.6,2.06-.23,3.43,1,5,1.39,1.79,4.11,2.13,6,1.85a8.55,8.55,0,0,0,5.43-3.4c4.74-6.65-.17-16.72,2.24-17.76,1-.44,1.8,1.44,4.32,2,4,1,9.43-2.22,11.79-6.47,3.17-5.67.32-12.12,2.22-12.81,1.6-.58,3.48,4.07,5.73,3.67C200.88,87.57,202.1,78.21,202,71.77Zm-74.34-.84c-6.48,1.58-11.65,1.09-19.75.26-6.48-.67-11.11-1.18-17-3.19C86.42,66.47,76,62.3,76.55,59.32c.39-2.32,7.3-3,13.64-3.63a54.19,54.19,0,0,1,14.6.21c5.08.8,6.32,1.79,12.85,3.76,13.8,4.16,20.94,3.57,21.14,5.66S131.69,69.94,127.65,70.93Z"/><path class="cls-3" d="M124,64.91l2.17.53a1.51,1.51,0,0,1,1,1.59c.35-.06.7-.14,1-.22a9.77,9.77,0,0,0-4.44-2.9A1.32,1.32,0,0,1,124,64.91Z"/><path class="cls-1" d="M135.58,68.21c-5.13,2.15-8.4-5.15-22.46-9.21a60.94,60.94,0,0,0-16.24-2.25,35.82,35.82,0,0,0-10.3.93c-5.88,1.56-7,3.78-9.5,3.06-4.44-1.26-7.62-9.94-4.8-15.47A10.45,10.45,0,0,1,77,40.85a57.11,57.11,0,0,1,32.43-6c9.82,1.66,30.9,7.91,32.3,20.46C142.28,60.22,139.89,66.4,135.58,68.21Z"/><path class="cls-2" d="M72.21,47.47c.49,3.7,6.12,6.84,9.08,5.5,3.51-1.59,2.64-9.17,4.94-9.43,1.17-.13,1.4,1.83,3.7,2.91,3.63,1.73,8.16-.74,8.87-1.13,3.16-1.72,4.25-4,5-3.64,1.25.66-2.75,7.49,0,10.67a3.83,3.83,0,0,0,3.78,1.32c3.3-1.14,2.47-9.77,4.58-10.05,1.12-.14,1.67,2.25,3.44,2.27,1.61,0,2-2,4-2.18a3.78,3.78,0,0,1,3.55,1.74,4.25,4.25,0,0,1,0,3.08c-.72,3.31-1.72,7.89-.14,9.48,1,1,2.88.84,4.11.38,3.88-1.46,3.79-7.32,6-7.45,1.83-.11,3.42,4,3.58,4.43,2.1,5.56-.35,10.5.4,10.78s4.93-4.29,4.81-10c-.15-7-5.85-11.8-8.67-14.18-6.35-5.37-13-6.85-18.84-8.14a57.9,57.9,0,0,0-22-.67c-9.84,1.63-14,5-15.68,6.54C75.36,40.79,71.78,44.21,72.21,47.47Z"/><line class="cls-4" x1="55.17" y1="27.25" x2="38.88" y2="30.33"/><line class="cls-5" x1="72.35" y1="25.89" x2="76.83" y2="12.02"/><line class="cls-5" x1="98.05" y1="98.04" x2="88.02" y2="84.85"/><line class="cls-6" x1="120.51" y1="20.16" x2="104.4" y2="18.4"/><line class="cls-5" x1="173.97" y1="73.78" x2="159.81" y2="65.17"/><line class="cls-5" x1="28.32" y1="46.38" x2="29.69" y2="58.41"/><line class="cls-4" x1="140.95" y1="26.13" x2="148.28" y2="37"/><line class="cls-6" x1="162.59" y1="45.01" x2="181.41" y2="48.15"/><line class="cls-6" x1="125.85" y1="84.63" x2="120.76" y2="100.39"/><line class="cls-4" x1="67.54" y1="76.71" x2="56.5" y2="84.59"/><line class="cls-6" x1="59.38" y1="62.18" x2="48.28" y2="49.88"/><line class="cls-4" x1="153.74" y1="93.67" x2="143.57" y2="84.69"/></svg>