<svg id="Calque_1" data-name="Calque 1" xmlns="http://www.w3.org/2000/svg" viewBox="0 0 341.64 361.58"><defs><style>.cls-1{fill:#1d1d1b;}</style></defs><path class="cls-1" d="M191.77,260.23c-2.5-2,4.06-14.28,8.86-21.18,2.77-4,6.69-9.51,13.93-14.09,3.38-2.14,9.28-5.87,14.48-5.71,16.56.49,37.21,40.66,24.77,56-13.75,16.94-61-5-60.42-9.5.46-3.31,27.3,1.48,32.45-9.82,1.86-4.09.81-10.11-2.42-12C215.13,239.08,195.54,263.32,191.77,260.23Z"/><path class="cls-1" d="M152.17,256.86c2.56-2.67-21.12-45.21-42.14-39.91-18.93,4.78-28.44,46.57-14,59.22,16.76,14.62,59.33-15.2,58.08-18.94-1.06-3.17-34.68,9.63-40.38-.15-2.34-4,.28-11.47,5-14.07C129.8,236.91,150.11,259,152.17,256.86Z"/><path class="cls-1" d="M153.55,250.83c-3.05-.61-6.35,4.15-7.42,5.64-13.67,19-54.75,45.54-51.92,49.45,1.53,2.11,13.26-6,16.91-2.25,3.4,3.54-4.34,13.24-2.32,15,4.53,4,53.23-35.44,49.68-58.62C158.22,258.39,156.92,251.5,153.55,250.83Z"/><path class="cls-1" d="M184.21,244.28c4.39-.62,8.38,4,10.33,6.34,35.35,42.08,48.76,58.46,45.63,61.17-2.08,1.81-8.75-4.76-12.65-2-4.1,2.94.22,12.49-2.17,13.77-3.38,1.8-13.8-16.16-33.1-40.89C181.53,269,174,261.6,176.31,253.05,177.27,249.47,180.24,244.84,184.21,244.28Z"/><rect x="146.37" y="109.98" width="49.05" height="251.6"/><polygon points="0.63 0 341.64 0 169.94 223.91 0.63 0"/><polygon points="341.01 0.12 0 0.12 171.69 224.03 341.01 0.12"/></svg>