<svg id="Calque_15" data-name="Calque 15" xmlns="http://www.w3.org/2000/svg" viewBox="0 0 236 274"><defs><style>.cls-1{fill:#4f9b3a;}.cls-1,.cls-2{stroke:#fff;stroke-miterlimit:10;stroke-width:3px;}.cls-2{fill:#d390b9;}.cls-3{fill:#8e6280;}</style></defs><path class="cls-1" d="M157.62,245.89c-3.05-15.11-10-22.3-14.49-36.11-1.6-5-5.93-18.92-2.73-35.17,2.12-10.77,6.42-19.08,5.3-19.63-.94-.46-5.3,4.86-8.22,11.3-7.28,16.08-1.94,31.22-5.68,32.48-2.4.82-6.18-4.89-7.92-7.15a29.15,29.15,0,0,0-10.26-8.08c-8.85-7.19-23.44-18.6-46.3-36.05h0a24.68,24.68,0,0,0,.53-8.35C66.54,130,51,122.5,37.69,121.44c-7.83-.62-15.84.9-16.08,2.89-.14,1.14,2.34,2.23,2,3s-3.34-.25-7,0c-5.53.38-10.08,3.61-9.83,4.46.17.59,2.54,0,2.8.7.52,1.43-9.27,4.64-9,8.05s10.29,5,10,7.5c-.15,1.23-2.66,1.7-2.5,2.49.24,1.24,6.45.84,6.57,1.86,0,.41-1,.57-1,1.11-.16,2,9.21,3.85,9,5-.14,1-6.85.1-7,1s6.21,3.71,14.89,5.16c-2.85.94-4.73,2.18-4.72,3.2,0,1.28,3,2.07,2.84,2.75s-3.82,0-5.59.08c-10.24.18-22,25.44-16.32,31,3.81,3.72,14.26-2.74,17.91,2,1.69,2.19.09,5,1.76,6.12,3.12,2,11.42-5.81,12.15-5,.5.57-3.68,3.91-2.92,5.52,1,2.11,10.26,1.05,18.51-2.92C63.33,203,67.74,196.57,69,197.46c.72.52.14,3.36-5.45,13.51-.5,3.23-.81,6.21-.27,6.36,1,.27,4.09-8.65,5-8.37s-4,12,1.39,19.19c.67.88.38.69,2.83,2.75,6.66,5.6,7.48,10.73,9.65,10.48,3.36-.39,4.14-13,6-12.94,1.1.06.67,4.62,2.87,5.55,2.81,1.18,9.06-3.87,11.59-10.22,1.7-4.26,1.39-8.25,2.68-8.42s2.12,3.94,3.4,3.86c1.95-.12,4-9.74,2.52-19.59a48.4,48.4,0,0,0-1.78-8.44c16.39,9.92,31,25.94,36.39,45.38,4.74,17.07,1.49,33.53,4.95,34,2.39.33,5.94-7.22,7.08-13.52A29.53,29.53,0,0,0,157.62,245.89Zm-104-81.21c-.4.69-1.83.38-4-.13a25.41,25.41,0,0,0,3.15-1l.58-.23C53.68,163.82,53.86,164.3,53.65,164.68Zm33.79,19.07a36.33,36.33,0,0,0-8,3.4,18.51,18.51,0,0,0,1-6.75,77,77,0,0,1,10.52,2.44C89.6,183.14,88.41,183.48,87.44,183.75Zm-.2-6c-2.39-.11-4.78-.14-7.15-.11-2.21-10.8-13.45-15.7-21.22-17.29a12.3,12.3,0,0,0,1.94-1.89c1.51-1.81,1.21-2.43,2.16-3,3.24-1.81,9.25,4.06,18.74,11.25,4.05,3.06,8.35,5.79,12.49,8.74,1.71,1.22,3.46,2.44,5.23,3.64Z"/><path class="cls-2" d="M210.11,37.45c4.93.9,7.79,9.86,8.18,15.66.52,7.62-2.8,15.62-3.8,18l-.06.15c1.37,0,10.22-.25,15.12,6,6.46,8.32.07,20.3-1,22.23a31.47,31.47,0,0,1-11.73,11.5,34,34,0,0,1-5.84,2.41c-1,.3-1.84.49-2.31.59-.26,0-.38,0-.41.08-.2.42,3.42,2.61,5.83,3.86,7.06,3.66,9.21,2.15,12.5,4.51,4.33,3.11,6.31,9.85,5.09,15.3-1.31,5.91-6,8.91-11.4,12.31-3.28,2.08-10.18,6.5-18.86,5.87-5.16-.38-7.12-2.15-9.74-.7-3.73,2.08-2.65,7.27-4.75,12.65-4.3,11-20.47,18.88-29.52,15-8.25-3.53-9.61-16.4-12.83-15.78-2.62.5-.7,8.83-5.11,11.8-6,4-22.18-2.85-27.2-14.3-2.85-6.51-1.09-12.21-5.46-14.77-2.7-1.59-6.08-1-10-.29-5.93,1.06-6.27,2.86-11,3.8-6.41,1.27-15.1-.19-17.47-4.87-1.34-2.66.21-4.71-1.61-6.53-2.08-2.08-5.22-.7-8.72-1.43-4.37-.91-6.77-4.57-10.78-10.71-1.53-2.34-7.46-12.08-8.94-27.43-.64-6.54-1.28-13.16,2.15-15.31s7.54,2,11.16-.41c3-2,3.82-7.33,2.73-11.19-1.47-5.17-5.53-4.83-7.78-11.06-1.39-3.83-1.47-8.39-1.58-8.37a1.15,1.15,0,0,0,0,.52c.21,0-1.95-13.13,3.54-17,3.23-2.24,8.16-.61,9-.31A13.1,13.1,0,0,1,63,43.07c3.68,4.22,3.95,9.51,4.12,9.48s-2.79-8.86-1.69-18C66.82,22.8,75,11.19,80.92,11.85c3.2.35,6.41,4.29,8.94,7.39,2.69,3.3,3.91,6.09,4.91,5.8,1.44-.42-.67-6.39,2.58-9.61,1.93-1.92,3.66-.62,5.8-2.63,3.39-3.21,1.49-7.74,4.18-9.17s6.83,1.55,7.71,2.16c3.06,2.12,2.71,3.71,4.66,4.34,3.21,1,5.63-2.83,11.6-5.26,3.77-1.54,6.85-1.64,11-1.78,6.43-.21,13.39-.44,18.17,3.87,2.37,2.14,2.5,3.86,4.66,4.34,3.56.8,5.07-3.48,9.57-3.8,6.16-.44,11.28,7,12.08,8.24a25.4,25.4,0,0,1,2.63,5.8c4.71,12.49,7.14,18.93,11.1,19.72S206.09,36.72,210.11,37.45Z"/><path class="cls-3" d="M159,81.9h0C158.54,82,158.45,82,159,81.9Z"/><path class="cls-3" d="M157.06,128.61C195.33,121,205.2,94.83,205.2,94.83c4.63-12.17,1.7-23.94,1.24-24s.19,9-4.15,19.91a46.45,46.45,0,0,1-11.86,17.75c-6.06,5.52-12.18,7.86-18.7,10.37a81.15,81.15,0,0,1-14.08,4c-5.29,1-12.05,2.24-20.76,1.08A55.31,55.31,0,0,1,119,118.33c-7.78-4-12.25-8.66-18.93-15.63A147.92,147.92,0,0,1,83,81.12c-3.46-5.35-5.77-9.69-12.11-19-3.74-5.49-5.61-8.24-5.83-8.12-1,.56,11,29,32.4,53.64,5.13,5.9,9.8,10.44,16.45,14.33a61.2,61.2,0,0,0,27.33,8A76.51,76.51,0,0,0,155.14,129Z"/><path class="cls-3" d="M74.87,27a63.41,63.41,0,0,1,5.61-5.13c.77.41,3.24.21,5,.6,5,1.11,7.24,7.88,9.48,13.18,6.76,16,17.22,27.43,21.59,32.18,2.14,2.32,2.91,2.93,4.13,4.19.87.89,1.49,1.61,2,2.18C124.33,76.11,124.93,77,125,77s-1.8-3.61-11.26-19.5c.48.54,2.12,2.15,5.39,5.35a38.4,38.4,0,0,0,3.74,3.34,24.13,24.13,0,0,0,3.39,2.31c2.83,1.52,3.31.65,6,1.87,3.3,1.51,5.83,4.37,7.87,6.65a.92.92,0,0,0,.11.14c3,3.41,4.56,5.12,5.28,5.22,1.91.27,2.19-3,5.07-3.65,3.62-.85,8.3,3.06,8.42,3.16,1.06-.14,4.24-.55,5.53-.88a26.55,26.55,0,0,0,4.78-1.9,95.39,95.39,0,0,0,8.85-4.82c3.56-2.09,4.83-3,6.08-4.37.33-.36.64-.74,1.48-1.67,2.07-2.27,3.12-3.42,3.88-3.72,2.1-.85,3.52,1.06,5.23.85,5.36-.65,7.06-21.21,6.18-21.36-.72-.13-2.14,14-7.8,14.83-2,.31-2.79-1.29-5.23-.85-3.12.56-3.68,3.55-7.38,6.85-2.55,2.27-2.78,1.29-8.85,4.81-7.24,4.21-7.52,6-10.87,6.28-3,.29-3-1.12-9.45-2.44-5.82-1.19-7.07-.3-10.46-1.71s-5-3.39-7.13-5.64c-7.8-8.08-9.87-6.64-15-12.3-2.23-2.46-2.55-3.52-10.81-21.46-5.87-12.75-6.9-14.81-7.45-14.65-1.08.33.25,9,2.66,16.55A84.81,84.81,0,0,0,107,43.86,118.48,118.48,0,0,0,114,57c-1.81-2.12-3.36-4-4.63-5.52-.85-1-1.64-2-2.62-3.4-.49-.7-1-1.51-1.76-2.76C97.08,32,96.64,23.1,87.33,16.48c-2.74-2-4.46-3.18-6.69-2.89-6.66.86-10.29,14.26-12.17,24.5A30.57,30.57,0,0,1,74.87,27Z"/><path class="cls-3" d="M176.86,87.51c10.75-1.5,13.23-1.1,15.82-3.68.68-.67.31-.5,3.61-5.67,4.19-6.56,5.32-7.66,4.92-8.15-1-1.16-10.05,1.59-11.89,7-.45,1.31-1.12,4.7-3.62,5.67l-.19.07c-2.95,1-4.13-.11-8.28.2l-.53.05c-7.08.73-13.63,6.72-13.63,6.72S170.18,88.45,176.86,87.51Z"/><path class="cls-3" d="M165.76,18.56c1.27,6.25-3.21,9.5-1.27,13.22,1.8,3.45,6.36,1.95,9.89,5.2,2.31,2.12,4.51,6.56,2.62,17-12.77,5-19.84,3.56-24,1-5.59-3.45-8.18-10.27-9.52-9.65-1,.47-.91,4.93,1.33,8.28C150.43,62,167,59.59,167,61c0,.77-4.85,2.59-11,2-15.42-1.48-25.07-16.82-26-16-.6.53,3.61,6.75,9,12,3.69,3.59,7.09,6.83,12.53,8.26A26.17,26.17,0,0,0,159,68a27.11,27.11,0,0,0,8.79-1.66c3.84-1.47,4.45-2.93,11.21-8.34,7.21-5.77,7.81-5.15,10-8,1.4-1.82,5.26-6.83,4.12-12.64-.9-4.57-4.52-7.7-5.12-7.36s3.6,5.81,2,12a15.62,15.62,0,0,1-4.11,6.71c-1.78,1.89-3.51,3.72-4.89,3.29-2.15-.67-2.43-6.53-2.69-11.69-.23-4.84.23-6.82-1.33-8.28-2.08-1.94-4.35-.14-6-1.87-2.24-2.41,1.19-7-1.07-13.6a11.13,11.13,0,0,0-.86-1.93c-2.34-4-7.39-5.82-8.15-4.91S164.64,13.07,165.76,18.56Z"/><path class="cls-3" d="M126.89,37.27c1.19.44,2.06-4.38,6.38-6.12,6-2.42,11.59,4,15,1.55C151.32,30.44,148,24,152,20.78c2.35-1.92,5.73-1.47,5.8-2.63.06-.92-2-1.79-2.84-2.14a7.38,7.38,0,0,0-3.85-.74c-3.93.81-2.74,9.47-7.23,11.35-1.36.57-1.48-.22-9-.73-4.05-.28-4.69-.1-5.24.19C125.55,28.19,125.36,36.7,126.89,37.27Z"/><path class="cls-3" d="M224.63,85.48c1.77,6.28-1.7,14.12-6.62,18.61-7.88,7.19-18.53,4.93-19.43,9.35-.63,3.08,4.41,4.8,4.09,7.83-.8,7.63-34,9.66-33.95,10.56.05.49,9.4-1.16,23.52-1.52a40.77,40.77,0,0,0,11-1.78c2.85-.86,10.61-3.22,10.73-6.53.14-3.75-9.64-5.92-9.18-8.43.34-1.81,5.49-.85,11.32-3.52,10-4.59,13.18-15.26,13.31-15.73.41-1.45,3-10.78-1.93-15.53-2.63-2.52-6.92-3.28-7.7-2.15S223.23,80.49,224.63,85.48Z"/><path class="cls-3" d="M222.45,131.67c-1.83,3.25-12.47.27-12.77,1.49s8.83,3.11,8.87,5.93c0,2.63-7.86,4.85-12.61,6-20.77,5-37.25,2.92-37.32,3.74-.05.65,10,2.59,22,2.81a84,84,0,0,0,13.43-.59c9.6-1.25,18.15-2.36,22.92-8.78.6-.81,4.33-5.84,2.72-11.19-1.81-6-9.36-9-10.33-8S224,129,222.45,131.67Z"/><path class="cls-3" d="M182.92,170.86c-.78-1.71-14.89,8-24.54,2.25-7.23-4.29-6.89-14.25-11.95-14.49-3.86-.18-5.15,5.57-12.9,7.74a20.28,20.28,0,0,1-7.26.6c-10.42-1.1-16.5-11.28-17-10.84s5.49,11.26,17.62,18.1c3.59,2,9.25,5.22,12.94,3,4-2.4,2.94-9.56,5.2-9.89,2.42-.35,3.24,7.92,9.76,11.44,3.9,2.11,8,1.51,11.48,1C175.92,178.33,183.51,172.14,182.92,170.86Z"/><path class="cls-3" d="M77.54,142c-2.71-4-.06-8.13-3.52-11.31-5-4.55-13,1.48-19.18-3.14-2.27-1.7-2.09-3.21-5.26-11.6-3.32-8.8-8.29-19.77-9.35-19.44s1.76,11.94,2.22,13.79c3.61,14.8,5.41,22.2,10.24,24.95,7.18,4.1,15.61-1.58,19.18,3.14,2.1,2.78-.23,5.53,1.33,8.27,5,8.72,38.23-1.83,38-2.72S84.21,151.83,77.54,142Z"/><path class="cls-3" d="M91.39,112c-11.72-10.34-27.9-24.63-33.83-44.91C53.65,53.68,55.31,41.39,52,41c-1.92-.23-4.16,3.72-5,6-1.2,3.24-.69,6.11,0,10a34.77,34.77,0,0,0,2,7c1.89,4.64,3.21,4.9,6,10s2.1,5.84,4.88,10.87a59.49,59.49,0,0,0,5.17,7.63,121.71,121.71,0,0,0,27.23,25c5.29,3.36,12.25,7.14,12.72,6.46S98.39,118.2,91.39,112Z"/></svg>