<svg id="Calque_15" data-name="Calque 15" xmlns="http://www.w3.org/2000/svg" viewBox="0 0 262 285"><defs><style>.cls-1{fill:#105e00;}.cls-1,.cls-2{stroke:#fff;stroke-miterlimit:10;stroke-width:3px;}.cls-2{fill:#b23909;}.cls-3{fill:#8c2b09;}</style></defs><path class="cls-1" d="M241.89,184.52c-1.76-.05-5.36.58-5.56-.15s2.83-1.42,2.86-2.7c.05-2-6.87-4.84-14.33-4.86s-12.59,2.73-13.39,1.28c-.67-1.22,2.81-3.6,2.35-4.38-1-1.78-25.27.64-28.85,16.95-2.35-.07-4.74-.07-7.12,0,2.72-2.13,4.8-5.28,7-8.56,5.44-8.29,7.57-17.85,5.86-18.77-1.14-.6-3.57,2.78-4.69,2.08s.84-4.17,1.07-8.72c.35-6.8-3.2-14-6.24-14.06-2.38-.08-3.88,4.22-4.9,3.82-1.69-.66,2.86-12.43,0-14.17-1.86-1.13-4.73,3.17-13.08,5.47a16.26,16.26,0,0,0-3.71,1.32c-.92.48-4.62,2.4-6.09,6.33-.36.94-.45,2.37-.65,5.24-.34,4.93.08,6.12-.86,7-1.7,1.57-4.59-1-6.22.12-3.35,2.23-.1,19,11.51,28.88a32.2,32.2,0,0,0,7.89,5.34c-9.63,1.73-18.21,5.33-23.48,11.94-1.77,2.22-5.61,7.84-8,7-3.71-1.31,1.83-16.3-5.2-32.42-2.81-6.44-7.07-11.8-8-11.35-1.12.53,3,8.86,5,19.61,3,16.21-1.55,30-3.22,35-4.63,13.68-11.68,20.74-14.93,35.74a29.48,29.48,0,0,0-.31,11.12c1,6.28,4.46,13.84,6.84,13.54,3.45-.43.46-16.86,5.42-33.78,5.64-19.27,20.41-35,36.86-44.65a48.42,48.42,0,0,0-1.89,8.37c-1.62,9.78.29,19.39,2.22,19.54,1.28.1,2.14-4,3.45-3.8s.91,4.16,2.54,8.42c2.43,6.36,8.57,11.47,11.39,10.34,2.21-.89,1.85-5.44,2.94-5.48,1.81-.07,2.4,12.52,5.75,13,2.15.28,3-4.81,9.75-10.29,2.47-2,2.18-1.83,2.86-2.7,5.5-7,.59-18.79,1.65-19.09s3.89,8.66,4.86,8.41c.55-.14.28-3.12-.17-6.34-5.42-10.17-5.95-13-5.24-13.52,1.23-.86,5.53,5.55,14.67,10.1,8.15,4.06,17.37,5.25,18.38,3.17.77-1.6-3.34-5-2.83-5.54.74-.81,8.88,7.1,12,5.13,1.68-1.06.12-3.91,1.84-6.07,3.7-4.65,14,1.93,17.85-1.72C263.4,210.16,252.08,184.85,241.89,184.52ZM177.57,196.6c-1-.29-2.14-.64-3.47-1a78.59,78.59,0,0,1,10.51-2.28,18.39,18.39,0,0,0,.86,6.73A36.31,36.31,0,0,0,177.57,196.6Z"/><path class="cls-2" d="M140.08,12.76c4.69-1.72,11.66,4.52,14.93,9.3,4.29,6.27,5.49,14.81,5.84,17.37l0,.16c1.15-.73,8.65-5.37,16-2.44,9.74,3.86,10.32,17.37,10.41,19.54a31.26,31.26,0,0,1-4.25,15.79,34.22,34.22,0,0,1-3.79,5c-.71.76-1.33,1.34-1.69,1.67-.19.17-.31.2-.31.27,0,.46,4.26.51,6.95.36,7.9-.42,9-2.8,13-2.44,5.29.48,10.39,5.27,12.1,10.56,1.86,5.72-.69,10.69-3.56,16.31-1.77,3.45-5.45,10.71-13.22,14.56-4.61,2.29-7.19,1.75-8.7,4.32-2.15,3.67,1.4,7.58,2.31,13.25,1.88,11.62-8,26.54-17.73,27.79-8.86,1.14-16.52-9.21-19-7.06-2,1.76,3.86,7.94,1.58,12.71-3.11,6.47-20.47,8.76-30.56,1.47-5.73-4.14-7.1-9.91-12.14-9.91-3.12,0-5.72,2.23-8.7,4.8-4.55,3.9-3.94,5.62-7.52,8.81-4.86,4.33-13,7.47-17.44,4.65-2.49-1.6-2.21-4.15-4.69-4.79-2.83-.73-4.82,2-8.2,3.18-4.21,1.43-8.11-.5-14.65-3.74-2.5-1.24-12.5-6.6-21.52-19C21.75,150,17.86,144.62,19.72,141s7.47-2.09,9.36-6c1.58-3.25-.42-8.22-3.31-11-3.87-3.69-7.17-1.35-12.26-5.56a38.67,38.67,0,0,1-5.58-6.38s.26.44.3.42-8.3-10.28-5.52-16.32c1.63-3.55,6.68-4.65,7.56-4.82a13.05,13.05,0,0,1,6.47.47c5.29,1.76,8.19,6.17,8.32,6S18.2,91.75,14.52,83.36c-4.73-10.8-3.63-24.86,1.83-27.31,2.92-1.31,7.66.45,11.4,1.83,4,1.48,6.43,3.24,7.14,2.49,1-1.08-3.81-5.14-2.65-9.54.7-2.62,2.84-2.38,3.65-5.19,1.29-4.46-2.62-7.39-1-10s6.64-2.12,7.7-2c3.69.27,4.2,1.81,6.19,1.37,3.28-.73,3.4-5.27,7.29-10.38,2.46-3.22,5-4.87,8.56-7.09C70,14.1,75.85,10.39,82.13,11.67c3.12.63,4.09,2,6.19,1.37,3.46-1.12,2.59-5.55,6.29-8.1,5.06-3.49,13.22.33,14.52,1a25.15,25.15,0,0,1,5.19,3.64C124.67,17.89,130,22.18,133.8,20.86S136.27,14.16,140.08,12.76Z"/><path class="cls-3" d="M118.68,76.71h0C118.33,77,118.26,77,118.68,76.71Z"/><path class="cls-3" d="M140.63,117.74c29-25.83,24.23-53.29,24.23-53.29-2.18-12.77-10.64-21.39-11.05-21.18s4.73,7.66,6.5,19.18a46.3,46.3,0,0,1-1.2,21.21c-2.42,7.8-6.48,12.9-10.81,18.34a80.31,80.31,0,0,1-10.07,10.51c-4,3.52-9.2,8-17.26,11.41a55,55,0,0,1-18.17,4.22c-8.69.51-14.88-1.23-24.13-3.84a147.16,147.16,0,0,1-25.53-9.9c-5.67-2.83-9.84-5.39-20-10.17-6-2.82-9-4.23-9.1-4-.6,1,24.13,19.33,54.88,29.64,7.38,2.47,13.67,4,21.35,4a60.88,60.88,0,0,0,27.5-6.89A77.77,77.77,0,0,0,139.16,119C139.49,118.73,140,118.3,140.63,117.74Z"/><path class="cls-3" d="M97.71,94.63c4.52,2.77,7,4.5,7,4.47A51.18,51.18,0,0,0,97.71,94.63Z"/><path class="cls-3" d="M18.8,72.08c.4-1.74,1.06-3.86,1.06-3.86.4-1.25.82-2.42,1.15-3.37.87,0,2.89-1.46,4.58-2,4.85-1.57,10.19,3.1,14.79,6.52C54.27,79.7,69,84.18,75.15,86.05c4.3,1.31,4.42,1,8.47,2.38a87.29,87.29,0,0,1,14.09,6.2,286.63,286.63,0,0,0-30.16-16c.69.22,2.91.77,7.33,1.87a38.77,38.77,0,0,0,4.89,1,23.4,23.4,0,0,0,4.08.27c3.2-.13,3.17-1.12,6.06-1.41,3.58-.36,7.2.8,10.1,1.74l.17.05c4.32,1.4,6.5,2.1,7.16,1.82,1.78-.74.39-3.65,2.51-5.69,2.67-2.56,8.66-1.57,8.82-1.54.84-.66,3.35-2.62,4.29-3.55a25.75,25.75,0,0,0,3.15-4,93.38,93.38,0,0,0,5.15-8.6c2-3.59,2.63-5,3-6.82.1-.48.17-1,.43-2.18.62-3,1-4.51,1.44-5.15,1.37-1.79,3.56-.87,4.92-1.91,4.27-3.27-4.67-21.76-5.49-21.45s5.21,13.06.81,16.66c-1.56,1.28-3.06.3-4.92,1.91-2.39,2.07-1.37,4.91-2.88,9.61-1,3.23-1.73,2.51-5.15,8.6-4.08,7.26-3.44,8.91-6.15,10.87-2.45,1.78-3.12.55-9.34,2.68-5.6,1.92-6.22,3.32-9.84,3.82s-6-.4-9-1.24c-10.76-3-11.81-.71-19.07-3C66.91,72,66.09,71.21,50,60c-11.47-8-13.4-9.22-13.79-8.79C35.4,52,40.94,58.81,46.8,64c.77.68,3.21,2.55,8.1,6.29a110.84,110.84,0,0,0,9.67,7c-6.68-2.94-6.51-2.4-10.67-4.68C40.4,65.2,35.51,57.76,24.18,56.79c-3.21-.28-5.42-.51-7.19.9C9.74,63.43,20.72,87.27,22,90,19.24,81.56,18.16,74.79,18.8,72.08Z"/><path class="cls-3" d="M92.5,19c4.25,4.72,2,9.77,5.59,12s7-2,11.11-.54c2.53.93,5.54,4.08,6.8,14.6a20.22,20.22,0,0,1-11,5c-7.27.69-13.72-3.56-14-3s8.52,4.37,8,7c-.4,2-6.06,2.54-11,3-10.09,1-16.67-.32-17,1-.27,1,3.63,2.83,4,3,4.75,2.15,9.36,1.66,15,1a44.17,44.17,0,0,0,6-1,40.66,40.66,0,0,0,13-6c11.93-7.89,18.09-12,19-19,.53-4.08-.71-9-4-12s-7.8-3.32-8-2.84,4,1.56,7,5.79c.59.83,3,4.21,2,7.7,0,.07,0,.12-.07.21-.71,2.35-1.83,3.61-4.93,7.14-1.69,1.92-1.78,2-2,2-1.51-.22-.72-5.94-3.74-12.73-1.21-2.7-2.65-5.83-5.33-6.42s-3.8,2.07-6.05,1.4c-3.15-.94-2.54-6.65-7.8-11.12a10,10,0,0,0-1.71-1.22c-4-2.23-9.27-1.27-9.47-.1S88.77,14.81,92.5,19Z"/><path class="cls-3" d="M68.62,54.64c1.24-.23-.45-4.8,2.37-8.47,3.94-5.12,12-2.42,13.62-6.23,1.51-3.5-4.58-7.32-2.81-12.11,1-2.84,4.17-4.16,3.64-5.19-.41-.81-2.63-.52-3.51-.4a7.41,7.41,0,0,0-3.68,1.31c-3,2.68,2.43,9.5-.47,13.38-.88,1.18-1.38.56-8.08,3.92-3.61,1.81-4.07,2.29-4.4,2.81C62.88,47.53,67,54.92,68.62,54.64Z"/><path class="cls-3" d="M176.8,46.62c4.69,4.49,5.67,13,3.72,19.3-3.13,10.15-13.4,13.59-11.94,17.84,1,3,6.2,1.89,7.46,4.65,3.17,7-24.33,25.48-23.79,26.21.29.38,7.48-5.75,19.41-13.19,3.24-2,6-3.64,8.56-7.1,3.31-4.5,5.56-11.25,3.25-13.52s-8.76,1.26-9.47-.1c-.62-1.18,4.36-3.62,7.92-8.73,6.27-9,3.6-19.74,3.48-20.21-.39-1.46-2.85-10.78-9.51-12.35-3.53-.83-7.59.68-7.69,2C168.08,43,173.08,43.05,176.8,46.62Z"/><path class="cls-3" d="M198.26,87.33c.07,3.72-10.56,6.54-10.21,7.74s9.15-1.8,10.61.6c1.37,2.23-4.29,8.13-7.79,11.51-15.3,14.77-30.47,21.32-30.12,22.06.28.58,9.88-2.83,20.31-8.72a84.19,84.19,0,0,0,11.21-7.28c7.61-5.93,14.38-11.2,15.22-19.11.11-1,.78-7.2-3.31-11-4.61-4.26-12.57-3-12.88-1.6S198.2,84.29,198.26,87.33Z"/><path class="cls-3" d="M184.15,140.91c-1.53-1.07-8.75,14.36-19.91,14.33-8.38,0-13.11-8.74-17.57-6.39-3.4,1.79-1.61,7.37-7.16,13.15a15.51,15.51,0,0,1-5.92,4.19c-9,3.15-19.29-6.64-19.59-6.19s9.46,11.71,23.77,12.11c2.39.06,10.31.28,12.62-4s-2.31-9.69-.54-11.11,6.79,5.15,14.16,4.88c4.4-.16,7.58-2.73,10.34-5C181.92,150.86,185.3,141.71,184.15,140.91Z"/><path class="cls-3" d="M79.18,169.38c-4.66-1.91-4.22-7-8.73-7.93-6.54-1.4-10.41,7.84-18,7-2.81-.31-3.41-1.69-10.37-7.29C34.75,155.28,25,148.38,24.2,149.21s7.55,9.35,8.87,10.7c10.57,10.87,15.86,16.3,21.38,16.23,8.23-.11,12.6-9.24,18-7,3.17,1.31,2.42,5,5.32,6.43C85.32,179.31,101.7,160.82,101,160S88.1,173,79.18,169.38Z"/><path class="cls-3" d="M75.93,136.68c-16.51-2.87-37.16-5.79-51.7-21.44C15.59,106,10.42,93.72,7,95c-1.82.68-2.51,5-2,8,.19,1.14.66,2.79,3,6a41.94,41.94,0,0,0,7.39,7.79c3.25,2.63,9.51,6.7,19.8,12.52a70,70,0,0,0,8.28,3.93,110.84,110.84,0,0,0,36,7.73c23.61,1.57,42.76-3.43,42.66-4.3S102.39,141.28,75.93,136.68Z"/></svg>