<?xml version="1.0" encoding="utf-8"?>
<!-- Generator: Adobe Illustrator 25.0.0, SVG Export Plug-In . SVG Version: 6.00 Build 0)  -->
<svg version="1.1" id="Calque_1" xmlns="http://www.w3.org/2000/svg" xmlns:xlink="http://www.w3.org/1999/xlink" x="0px" y="0px"
	 viewBox="0 0 379.52 396.99" style="enable-background:new 0 0 379.52 396.99;" xml:space="preserve">
<style type="text/css">
	.st0{fill:#A0A0A0;}
	.st1{fill:#707070;}
	.st2{fill:#D8D8D8;}
</style>
<path class="st0" d="M274.3,169.36c-11.25-20.92-47.86-20.3-52.2-20.18c-8.22,0.23-25.89,0.74-38.55,12.41
	c-27.69,25.52-9.74,84.46-6.9,93.8c13.27,43.57,37.54,59.09,28.82,77.26c-7.95,16.56-32.76,13.31-40.46,34.35
	c-5.09,13.91,0.94,28.48-3.24,29.89c-4.86,1.64-12.55-18.17-22.32-16.94c-6.84,0.86-9.49,11.39-12.44,10.49
	c-3.3-1-2.36-14.85-1-24.06c2.53-17.13,7-21.43,4.16-27.85c-4.13-9.47-18.75-11.52-21.52-11.9c-15.25-2.14-19.65,6.34-43.42,9.2
	c-10.27,1.24-21.48,2.44-27.85-4.16c-4.4-4.55-1.9-8.06-5.38-15.23c-8.27-17.06-32.36-17.71-32-25.35c0.16-3.19,4.33-2.47,10.4-9.58
	c1.06-1.24,8.89-10.66,9-23.65c0.01-2.35-0.23-4.7-0.71-7c-2.3-12.48-2.85-30.19-1.37-39.09c1.75-10.57,6.53-9.77,34.88-44.59
	c14.68-18.05,16.84-22.49,17.18-28.31c0.68-11.33-6.2-15.68-8.66-32.39c-1.37-9.27-0.43-15.94,1.12-27
	c2.33-16.55,4.66-33.16,16.06-49.37c5-7.05,17.73-25.2,32-23.7c11.06,1.17,14.25,13.2,25.48,13.07c8.25-0.09,10.78-6.62,19.53-12.2
	c24.6-15.7,63.53-1.69,74,2.07c15.54,5.59,21.51,11.24,33.64,9.41c12.77-1.93,14.77-9.49,24.44-10
	c17.23-0.91,35.71,21.77,42.26,42.79c9.46,30.38,0.59,58.08,0.59,58.08c-2.52,7.87-7.46,19.09-2.12,26.93
	c2.59,3.8,6.14,4.68,9.74,6.41c18,8.64,31.33,35.61,25.82,53.12c-3.13,9.95-9.81,8.78-13.86,20.44c-4.53,13-0.07,25.75,2.63,33.14
	c10.14,27.71,29.85,33.27,27.23,43.16c-3.27,12.38-33.94,3.14-52,23.87c-11,12.65-15.85,34.68-9.11,50.66
	c4.32,10.25,12.22,15.24,10.24,18.44c-2.28,3.69-14.74,0.31-31.85-4.32c-16-4.35-17.87-6.22-24.77-6c-14.46,0.4-17.79,9-25.35,8
	c-19.23-2.55-40.67-63.6-18.54-107.86c6-12.06,8.58-9.45,21.23-29.15C265.97,220.09,285.35,189.91,274.3,169.36z"/>
<path class="st1" d="M138.36,20.6c-2.41-9.43-14.94-15.35-24.4-15c-24,0.81-51.44,41.91-50.36,80c0.66,23.17,11.45,30.22,7.79,53.37
	c-4.12,26.07-21.79,42.07-21.76,42.07s41-33.58,41.28-78.35c0.08-13.87-3.74-29,5.78-42.8c3-4.26,8.59-12.42,18.69-16.24
	c7.15-2.7,11.25-1.23,16.24-5.33C136.61,34.22,139.96,26.87,138.36,20.6z"/>
<path class="st1" d="M260.42,21.66c2.86-10.07,19.15-14.86,30.56-12.74c22.65,4.2,32.63,36.72,34.26,42.46
	c15.53,54.48-30.62,110-33.54,108.7c-2.1-0.94,19.41-31.17,9.7-64.66c-3.21-11-7.76-26.71-20.41-38.88
	c-5.99-5.41-11.13-11.69-15.24-18.64C261.94,31.33,259.05,26.48,260.42,21.66z"/>
<path class="st1" d="M122.63,37.96c2.55,2.48-5.21,12.26-12.07,25.52c-19.88,38.37-5.91,55-25.8,91c-5.27,9.53-15.44,25-18.23,29.27
	c-12.24,18.63-13,17.8-16,23.35c-16.58,30.32,5.26,53.69-10.07,73.65C28.98,295.69,5,297.88,2.87,294.2
	c-1.49-2.58,8-7.63,13.82-19.44c7.66-15.61,3-31.07,1.66-40c-6.93-46.71,56.66-61.29,66.38-128.35c2.94-20.26,0.41-41.51,16.4-57.37
	C108.6,41.69,120.06,35.47,122.63,37.96z"/>
<path class="st1" d="M153.91,176.37c3.58,0.71-16.51,42.09,0.35,88.09c11.73,32,35.07,49.16,27.19,68.19
	c-4.34,10.48-13.22,9.63-19,23.23c-8.35,19.71,2.54,39.79-0.7,41c-2.44,0.92-11.49-9.4-15-23.64c-6.13-24.61,10.38-35.88,10.6-62.62
	c0.2-24-13-25.52-18.78-53.82C129.9,214.65,150.42,175.69,153.91,176.37z"/>
<path class="st1" d="M228.49,43.35c-3.07,2.05,36,48.49,33.9,99.5c-0.22,5.36-1.15,16.78,0.3,17c1.9,0.32,8.48-18.59,9.44-34.63
	C274.91,78.78,231.43,41.39,228.49,43.35z"/>
<path class="st1" d="M142.98,29.8c4.95,2.18-18,33.73-13.43,82.51c0,0,0.95,10.31,19,72.85l0,0c-7.24-3.36-13.56-8.43-18.39-14.78
	c-24-32.8-17.83-76.8-17.83-76.8C113.9,55.38,138.23,27.7,142.98,29.8z"/>
<path class="st1" d="M214.88,33.78c1.84-4.86,42.5-4.19,68.15,21.85s28.13,68.68,14.13,94.66c-5.59,10.37-15.68,21.54-17.86,20.28
	c-2-1.14,3.4-10.79,5.91-21.77c8.65-38-20.24-74.74-23.74-79.06C239.57,42.81,213.35,37.82,214.88,33.78z"/>
<path class="st1" d="M301.16,148.46c1.61-0.25,7.64,20.22,10.17,44.46c2.92,25.01,1.53,50.34-4.11,74.89
	c-8.52,36.67-19.26,39.12-17.48,59.33c3.11,34.9,37.42,53.45,34.72,56.49c-3.36,3.84-58.08-26-54.75-55.32
	c0.07-0.65,2.27-5.69,6.65-15.74c11.13-25.47,15.33-34.06,19-48.25c0,0,1.26-4.84,2.46-10.91
	C299.39,245.54,297.78,149.04,301.16,148.46z"/>
<path class="st1" d="M102.45,138.21c-1.27,0.26,14.86,35,2.88,75.18c-1,3.39-8.43,20-23.22,53.08c-12,26.82-15.88,35.27-11.82,43.55
	c7.29,14.85,34.47,17.64,36.47,13.53c1.55-3.17-13.16-7.69-18.15-20.78c-7.62-20,16.24-37,26.8-66.94
	C132.34,187.8,103.98,137.89,102.45,138.21z"/>
<path class="st1" d="M214.75,36.78c2.12-0.66,17,27,26.36,64.15c4.88,19.38,4.33,25.77,11.62,33.51c8.69,9.21,21.4,12.81,26.9,27.14
	c1.78,4.63,1,5.73,0.75,6c-4,4.69-24.71-18.37-54.25-19.26c-8.45-0.26-28.18-0.86-42.5,11.24c-4.67,3.98-12.55,12.48-16.47,10.36
	c-1.02-0.73-1.69-1.84-1.87-3.08c-1.68-6.4,4.21-13.05,6.65-15.74c8.32-9.15,16.26-10.53,23.65-15
	c13.78-8.39,18.87-23.52,22.43-34.1C229.16,68.98,212.5,37.48,214.75,36.78z"/>
<path class="st1" d="M211.55,41.65c0.39,0.44-8.2,6.9-19.84,23c-4.77,6.61-9.12,13.52-13,20.69c-16.55,30.64-32.55,76.7-17.72,89.33
	c4.25,3.62,10.9,3.52,10.78,5.45c-0.15,2.52-11.37,6-19.15,3.21c-14.19-5.1-19.92-32.14-17.87-51.79
	C140.46,76.86,210.5,40.47,211.55,41.65z"/>
<path class="st1" d="M300.36,144.42c2.09-4,42.24,3.38,49,25.06c3.53,11.3-4.71,14.59-9.77,42.63c-3.5,19.34-6.53,36.11,1.88,51.12
	c6.41,11.45,15.3,14.42,14.11,21.6c-1.27,7.69-12.41,8.39-22.68,16.08c-23.65,17.7-20.15,55.39-22.31,55.12s-9.16-38.86,10.69-64.61
	c4-5.13,9-9.83,10.78-18.57c2.38-11.89-3.67-19.93-7.75-30.35c-13.58-34.72,10.68-55.1-5.67-80.3
	C310.49,149.64,299.23,146.62,300.36,144.42z"/>
<path class="st1" d="M259.83,228.81c3.07,1.42-35.78,52.36-20,95.26c9.49,25.76,37.1,44.28,33,49.41c-1.17,1.46-4.46,1.15-11,0.54
	c-4.77-0.53-9.43-1.74-13.86-3.58c-10.65-4.74-21.56-19.9-25.48-37.09c-5.08-22.23,2.92-41.67,8.27-54.7
	c2.41-5.84,4.88-10.43,9.82-19.61C246.06,248.82,257.92,227.94,259.83,228.81z"/>
<path class="st1" d="M80.44,210.36c-7.92,15.07-12.94,13.72-22.19,28.1c-2.09,3.26-22.86,36.27-11.85,68.57
	c5.5,16.15,17.73,28,19.9,26.85c1.88-1-5.43-10.95-6.87-27.31c-1.88-21.33,7.43-39.8,15.31-55.42c3.24-6.39,6.84-12.58,10.78-18.56
	c28.18-44.51,9.78-121.91,8.06-121.77c-0.9,0.06,2.08,21.22-2.41,58C88.03,194.5,83.27,204.96,80.44,210.36z"/>
<path class="st2" d="M140.99,101.77c-1.3-0.7,5.23-18.49,17.52-36.3c5.58-8.08,25-36.23,44.46-34.18c2.71,0.28,8.76,1.5,8.87,3.37
	s-6.55,3.79-9.2,4.62c-12.77,4-21,12.61-35.17,27.56C149.08,86.2,142.26,102.46,140.99,101.77z"/>
<path class="st2" d="M231.57,41.48c0.36-0.34,24.51,18.05,42.89,51.82c5.95,10.93,12.17,25,12.25,42.55
	c0.05,12.52-4.44,23.95-6,23.77c-1.38-0.16,0.53-9.41-3-24.14c-1.42-6-2.86-9.15-4.29-17.2c-0.7-4-1.2-8.02-1.5-12.07
	C270.29,86.11,231.08,41.96,231.57,41.48z"/>
<path class="st2" d="M128.45,42.2c1,0.46-19.85,26.29-19.68,64.24c0.17,37,20.12,44.61,25.33,89.13c4.28,36.65-5.22,65.9-6.74,65.78
	c-1.52-0.12,6.72-33.18-3.88-75.23c-8.47-33.58-19.7-35.95-22.49-61C95.96,80.04,127.21,41.65,128.45,42.2z"/>
<path class="st2" d="M283.16,51.63c1.29-2.56,10.52-1.87,16.9,2.7c3.46,2.6,6.09,6.15,7.58,10.21c5,12.28,4.21,25.72-1.58,62.11
	c0,0-2.86,18-3.74,17.86c-1.22-0.18,15.59-53.54-7.71-79.39C289.6,59.52,281.85,54.3,283.16,51.63z"/>
<path class="st2" d="M334.67,209.9c-1.54,8.65-1.23,17.54,0.92,26.06c4.75,17.76,18.66,33.42,19.12,45.84
	c0.15,2.39-0.3,4.77-1.29,6.95c-1.81,3.79-4.86,5.38-8.33,7.66c-5.27,3.61-10.14,7.77-14.52,12.41c-2.9,3.14-5.11,6.3-9.53,12.61
	c-4.18,6-5.87,9-6.37,8.75c-0.71-0.34,1.16-7.14,4.57-13.83c4.52-8.84,8.33-10.78,18-24.27c3.28-4.56,4.91-6.84,5.32-7.78
	c5.4-12.45-4.44-22.17-8.24-42.38C331.02,224.24,334.44,209.9,334.67,209.9z"/>
<path class="st2" d="M137.02,293.78c2.5-0.63,9.38,12.3,10.92,26.47c0.59,5.67,0.35,11.4-0.71,17
	c-4.48,25.53-16.64,51.12-19.1,50.25c-2.46-0.87,9.88-24.47,9.61-62.66C137.61,306.58,134.68,294.37,137.02,293.78z"/>
<path class="st2" d="M298.62,162.37c-0.84-0.11,6.17,59.44-23.26,126.14c-12.54,28.43-25.63,44.39-18.6,62.28
	c10.42,26.48,55.31,32.67,56.83,29.38c1.42-3-35.21-13-42.34-40.79c-4.19-16.3,3.88-30.7,8.69-40.67
	C310.87,234.67,299.53,162.48,298.62,162.37z"/>
<path class="st2" d="M211.55,41.65c0.73,0.57-21.34,21.6-35.5,59.58c-3.66,9.81-15,40.21-8.45,58.7c0.6,1.67,3.36,9,1.59,10.07
	c-1.53,1-5.75-3.13-6.83-4.28c-10-10.66-2.35-35.59-0.26-42.05C177.29,76.85,210.62,40.92,211.55,41.65z"/>
<path class="st2" d="M312.43,142.92c0.54-1.16,27.82,1.81,37.14,21.56c9.82,20.81-7.44,45.1-8.86,44.67s11.46-23.29,1.78-43
	C333.76,148.43,311.94,144.04,312.43,142.92z"/>
<path class="st2" d="M91.16,144.74c-1-0.34-3.46,5.84-7.7,13.27c-8,14-14.67,18.85-22,28c0,0-13.51,16.81-19.42,38.67
	c-7.89,29.19,1.39,56.45,3.45,56.3c1.81-0.14-2.33-21.56,5.74-52.35c4.49-17.13,7.1-27.11,15.54-37.74
	c7.82-9.86,15.16-13.35,20.58-26.28C91.25,155.29,92.44,145.17,91.16,144.74z"/>
<path class="st2" d="M216.42,44.85c1.92,1.55-15.53,17.56-18.77,42.26c-2.16,16.51,3.09,28.79,1.79,29.1s-8.24-12.73-7.83-28.35
	c0.45-16.87,9.2-28.66,12.36-32.51C208.56,49.76,215.25,43.91,216.42,44.85z"/>
<path class="st2" d="M97.93,295.15c1.65,12.26,12.41,19.28,11.16,20.49c-1.44,1.38-17.57-6.26-20.23-18.86
	c-3-14,13.67-20.46,25.05-49c7-17.58,7.36-31.83,8.32-31.69s2.12,15.79-3.36,32.89C110.82,274.04,95.84,279.64,97.93,295.15z"/>
<path class="st2" d="M258.16,28.57c0.69-1.7-32.39-26.41-70.11-22.93c-29.63,2.74-50.56,21.79-50,23s22.19-15.88,52.66-14.83
	c10.35,0.36,20.47,2.8,40.71,7.7S257.85,29.27,258.16,28.57z"/>
<path class="st2" d="M105.53,160.35c2.5,13.91,2.25,28.18-0.74,42c-1.59,7.45-3.91,14.73-6.91,21.73c-8.9,20.85-18.06,25.88-24.6,38
	c-15.19,28.18,0.08,64.34,2.34,64.16s-7.09-32.56,8.82-67.7c8.08-17.84,14.08-17.47,20.44-34.18
	C117.32,191.71,105.8,160.33,105.53,160.35z"/>
<path class="st2" d="M279.09,174.57c0.9,0,2.19,7.3,2.5,12.11c1,16-7.2,27.78-13.65,39.47c-2.57,4.66-19.67,36.31-22,72.15
	c-1,15.75,1.15,26.84-0.12,27c-1.64,0.22-8.74-17.88-7.42-38.35c1.31-20.28,10.49-36.72,22.43-58.11
	c8.11-14.52,15-23.49,16.65-39.35C278.16,183.19,278.16,174.61,279.09,174.57z"/>
<path class="st2" d="M158.3,22.42c1.89,1.28-29.12,33.2-27.21,76.94c0.54,12.53,3.65,23,3,23.15c-0.9,0.19-10.5-21.27-8.06-44.84
	C129.61,43.58,156.65,21.31,158.3,22.42z"/>
<path class="st2" d="M154.54,185.41c1.55,0-9.13,59.16,24.7,104.11c6.92,9.21,19.27,22.54,18,23.77s-13.05-8.58-18.45-13.78
	C140.35,262.48,152.76,185.46,154.54,185.41z"/>
<path class="st2" d="M223.41,45.15c0.6-0.36,44.19,57.72,28.86,76.26c-3,3.64-10.49,8.41-11.32,7.53c-0.7-0.73,3.27-5.46,4.29-6.82
	C258.99,103.69,222.84,45.49,223.41,45.15z"/>
<path class="st1" d="M296.62,162.28c0.84,0.19-0.33,6.89-2.12,26.94c-1.13,12.58-1,13.4-2,24.94c-1.56,16.56-2.34,24.88-3.28,29.88
	c-3.31,17.35-9.16,20.77-19.85,44.21c-13.28,29.1-13.29,43.62-16.82,43.34c-5.69-0.45-15.81-39.1-1.92-74.14
	c8.47-21.36,18.18-22,31.17-51.75C291.95,182.47,295.16,161.96,296.62,162.28z"/>
<path class="st2" d="M305.07,151.62c3.56-1,24.9,49.11,22,96c-0.58,9.6-1.35,22.07-7.53,36.72c-7.14,16.93-13.78,18.44-17.31,31.31
	c-6.59,24,8.71,47.12,8,47.37s-11.59-15.81-14.41-38.63c-3.8-30.76,10.89-45,18.14-75.31C326.88,195.35,301.71,152.55,305.07,151.62
	z"/>
<path class="st1" d="M123.32,242.16c-1.78,0.86,10.7,15.8,7.54,35.35c-2.45,15.13-12.35,21.11-10.44,34.59
	c0.77,5.43,3.8,14.6,4.33,16.2c1.8,5.45,2.73,8.17,3.67,8.15c2.22,0,2.95-11.72,6.36-32.76c3.7-22.86,5.32-24.37,4.32-31.85
	C136.77,254.23,125,241.35,123.32,242.16z"/>
<path class="st1" d="M122.58,260.15c0.92,0.51-7.5,10.52-9.08,25.64c-3.15,30.22,23.89,53.18,21.74,54.95s-30.42-15.56-31.27-42.33
	C103.28,276.55,121.32,259.45,122.58,260.15z"/>
<path class="st2" d="M124.74,256.23c1.14,0.18-3.07,15.11-0.58,38c2.61,24,10.61,38.92,9.38,39.42s-11.51-14.05-14.62-33.61
	C115.16,276.49,123.39,256.04,124.74,256.23z"/>
<path class="st2" d="M110.93,10.45c1.11,0.94-14,13-23.65,39.05c-11.69,31.68-5.68,58.21-9.44,58.66c-2.9,0.35-10.3-15-9.66-32.43
	C69.6,37.47,109.16,8.96,110.93,10.45z"/>
<path class="st2" d="M270.83,16.09c-0.14-2,14.72-7.9,26.1-1.92c5.32,2.8,9.49,8,8.62,9.36s-5.41-1.18-14.86-3.62
	C277.16,16.42,270.92,17.38,270.83,16.09z"/>
<path class="st2" d="M155.61,91.37c1.06,0.61-12.74,16.77-15.82,43.38c-2.92,25.27,5.7,43.78,4.17,44.21s-12.11-17-11.41-38.5
	C133.49,111.57,154.36,90.66,155.61,91.37z"/>
</svg>
