<?xml version="1.0" standalone="no"?><!-- Generator: Gravit.io --><svg xmlns="http://www.w3.org/2000/svg" xmlns:xlink="http://www.w3.org/1999/xlink" style="isolation:isolate" viewBox="0 0 690.898 550.051" width="690.898" height="550.051"><defs><clipPath id="_clipPath_JvoAmKhAwBFlVYph6JN4kmhMNfRI17h7"><rect width="690.898" height="550.051"/></clipPath></defs><g clip-path="url(#_clipPath_JvoAmKhAwBFlVYph6JN4kmhMNfRI17h7)"><path d=" M 274.304 169.362 C 263.054 148.442 226.444 149.062 222.104 149.182 C 213.884 149.412 196.214 149.922 183.554 161.592 C 155.864 187.112 173.814 246.052 176.654 255.392 C 189.924 298.962 214.194 314.482 205.474 332.652 C 197.524 349.212 172.714 345.962 165.014 367.002 C 159.924 380.912 165.954 395.482 161.774 396.892 C 156.914 398.532 149.224 378.722 139.454 379.952 C 132.614 380.812 129.964 391.342 127.014 390.442 C 123.714 389.442 124.654 375.592 126.014 366.382 C 128.544 349.252 133.014 344.952 130.174 338.532 C 126.044 329.062 111.424 327.012 108.654 326.632 C 93.404 324.492 89.004 332.972 65.234 335.832 C 54.964 337.072 43.754 338.272 37.384 331.672 C 32.984 327.122 35.484 323.612 32.004 316.442 C 23.734 299.382 -0.356 298.732 0.004 291.092 C 0.164 287.902 4.334 288.622 10.404 281.512 C 11.464 280.272 19.294 270.852 19.404 257.862 C 19.414 255.51 19.176 253.164 18.694 250.862 C 16.394 238.382 15.844 220.672 17.324 211.772 C 19.074 201.202 23.854 202.002 52.204 167.182 C 66.884 149.132 69.044 144.692 69.384 138.872 C 70.064 127.542 63.184 123.192 60.724 106.482 C 59.354 97.212 60.294 90.542 61.844 79.482 C 64.174 62.932 66.504 46.322 77.904 30.112 C 82.904 23.062 95.634 4.912 109.904 6.412 C 120.964 7.582 124.154 19.612 135.384 19.482 C 143.634 19.392 146.164 12.862 154.914 7.282 C 179.514 -8.418 218.444 5.592 228.914 9.352 C 244.454 14.942 250.424 20.592 262.554 18.762 C 275.324 16.832 277.324 9.272 286.994 8.762 C 304.224 7.852 322.704 30.532 329.254 51.552 C 338.714 81.932 329.844 109.632 329.844 109.632 C 327.324 117.502 322.384 128.722 327.724 136.562 C 330.314 140.362 333.864 141.242 337.464 142.972 C 355.464 151.612 368.794 178.582 363.284 196.092 C 360.154 206.042 353.474 204.872 349.424 216.532 C 344.894 229.532 349.354 242.282 352.054 249.672 C 362.194 277.382 381.904 282.942 379.284 292.832 C 376.014 305.212 345.344 295.972 327.284 316.702 C 316.284 329.352 311.434 351.382 318.174 367.362 C 322.494 377.612 330.394 382.602 328.414 385.802 C 326.134 389.492 313.674 386.112 296.564 381.482 C 280.564 377.132 278.694 375.262 271.794 375.482 C 257.334 375.882 254.004 384.482 246.444 383.482 C 227.214 380.932 205.774 319.882 227.904 275.622 C 233.904 263.562 236.484 266.172 249.134 246.472 C 265.974 220.092 285.354 189.912 274.304 169.362 Z " fill="rgb(160,160,160)"/><path d=" M 138.364 20.602 C 135.954 11.172 123.424 5.252 113.964 5.602 C 89.964 6.412 62.524 47.512 63.604 85.602 C 64.264 108.772 75.054 115.822 71.394 138.972 C 67.274 165.042 49.604 181.042 49.634 181.042 C 49.664 181.042 90.634 147.462 90.914 102.692 C 90.994 88.822 87.174 73.692 96.694 59.892 C 99.694 55.632 105.284 47.472 115.384 43.652 C 122.534 40.952 126.634 42.422 131.624 38.322 C 136.614 34.222 139.964 26.872 138.364 20.602 Z " fill="rgb(112,112,112)"/><path d=" M 260.424 21.662 C 263.284 11.592 279.574 6.802 290.984 8.922 C 313.634 13.122 323.614 45.642 325.244 51.382 C 340.774 105.862 294.624 161.382 291.704 160.082 C 289.604 159.142 311.114 128.912 301.404 95.422 C 298.194 84.422 293.644 68.712 280.994 56.542 C 275.001 51.135 269.863 44.85 265.754 37.902 C 261.944 31.332 259.054 26.482 260.424 21.662 Z " fill="rgb(112,112,112)"/><path d=" M 122.634 37.962 C 125.184 40.442 117.424 50.222 110.564 63.482 C 90.684 101.852 104.654 118.482 84.764 154.482 C 79.494 164.012 69.324 179.482 66.534 183.752 C 54.294 202.382 53.584 201.552 50.534 207.102 C 33.954 237.422 55.794 260.792 40.464 280.752 C 28.984 295.692 5.004 297.882 2.874 294.202 C 1.384 291.622 10.874 286.572 16.694 274.762 C 24.354 259.152 19.694 243.692 18.354 234.762 C 11.424 188.052 75.014 173.472 84.734 106.412 C 87.674 86.152 85.144 64.902 101.134 49.042 C 108.604 41.692 120.064 35.472 122.634 37.962 Z " fill="rgb(112,112,112)"/><path d=" M 153.914 176.372 C 157.494 177.082 137.404 218.462 154.264 264.462 C 165.994 296.462 189.334 313.622 181.454 332.652 C 177.114 343.132 168.234 342.282 162.454 355.882 C 154.104 375.592 164.994 395.672 161.754 396.882 C 159.314 397.802 150.264 387.482 146.754 373.242 C 140.624 348.632 157.134 337.362 157.354 310.622 C 157.554 286.622 144.354 285.102 138.574 256.802 C 129.904 214.652 150.424 175.692 153.914 176.372 Z " fill="rgb(112,112,112)"/><path d=" M 228.494 43.352 C 225.424 45.402 264.494 91.842 262.394 142.852 C 262.174 148.212 261.244 159.632 262.694 159.852 C 264.594 160.172 271.174 141.262 272.134 125.222 C 274.914 78.782 231.434 41.392 228.494 43.352 Z " fill="rgb(112,112,112)"/><path d=" M 142.984 29.802 C 147.934 31.982 124.984 63.532 129.554 112.312 C 129.554 112.312 130.504 122.622 148.554 185.162 L 148.554 185.162 C 141.312 181.806 134.999 176.733 130.164 170.382 C 106.164 137.582 112.334 93.582 112.334 93.582 C 113.904 55.382 138.234 27.702 142.984 29.802 Z " fill="rgb(112,112,112)"/><path d=" M 214.884 33.782 C 216.724 28.922 257.384 29.592 283.034 55.632 C 308.684 81.672 311.164 124.312 297.164 150.292 C 291.574 160.662 281.484 171.832 279.304 170.572 C 277.304 169.432 282.704 159.782 285.214 148.802 C 293.864 110.802 264.974 74.062 261.474 69.742 C 239.574 42.812 213.354 37.822 214.884 33.782 Z " fill="rgb(112,112,112)"/><path d=" M 301.164 148.462 C 302.774 148.212 308.804 168.682 311.334 192.922 C 314.251 217.937 312.861 243.266 307.224 267.812 C 298.704 304.482 287.964 306.932 289.744 327.142 C 292.854 362.042 327.164 380.592 324.464 383.632 C 321.104 387.472 266.384 357.632 269.714 328.312 C 269.784 327.662 271.984 322.622 276.364 312.572 C 287.494 287.102 291.694 278.512 295.364 264.322 C 295.364 264.322 296.624 259.482 297.824 253.412 C 299.394 245.542 297.784 149.042 301.164 148.462 Z " fill="rgb(112,112,112)"/><path d=" M 102.454 138.212 C 101.184 138.472 117.314 173.212 105.334 213.392 C 104.334 216.782 96.904 233.392 82.114 266.472 C 70.114 293.292 66.234 301.742 70.294 310.022 C 77.584 324.872 104.764 327.662 106.764 323.552 C 108.314 320.382 93.604 315.862 88.614 302.772 C 80.994 282.772 104.854 265.772 115.414 235.832 C 132.344 187.802 103.984 137.892 102.454 138.212 Z " fill="rgb(112,112,112)"/><path d=" M 214.754 36.782 C 216.874 36.122 231.754 63.782 241.114 100.932 C 245.994 120.312 245.444 126.702 252.734 134.442 C 261.424 143.652 274.134 147.252 279.634 161.582 C 281.414 166.212 280.634 167.312 280.384 167.582 C 276.384 172.272 255.674 149.212 226.134 148.322 C 217.684 148.062 197.954 147.462 183.634 159.562 C 178.964 163.542 171.084 172.042 167.164 169.922 C 166.147 169.193 165.471 168.08 165.294 166.842 C 163.614 160.442 169.504 153.792 171.944 151.102 C 180.264 141.952 188.204 140.572 195.594 136.102 C 209.374 127.712 214.464 112.582 218.024 102.002 C 229.164 68.982 212.504 37.482 214.754 36.782 Z " fill="rgb(112,112,112)"/><path d=" M 211.554 41.652 C 211.944 42.092 203.354 48.552 191.714 64.652 C 186.941 71.262 182.598 78.173 178.714 85.342 C 162.164 115.982 146.164 162.042 160.994 174.672 C 165.244 178.292 171.894 178.192 171.774 180.122 C 171.624 182.642 160.404 186.122 152.624 183.332 C 138.434 178.232 132.704 151.192 134.754 131.542 C 140.464 76.862 210.504 40.472 211.554 41.652 Z " fill="rgb(112,112,112)"/><path d=" M 300.364 144.422 C 302.454 140.422 342.604 147.802 349.364 169.482 C 352.894 180.782 344.654 184.072 339.594 212.112 C 336.094 231.452 333.064 248.222 341.474 263.232 C 347.884 274.682 356.774 277.652 355.584 284.832 C 354.314 292.522 343.174 293.222 332.904 300.912 C 309.254 318.612 312.754 356.302 310.594 356.032 C 308.434 355.762 301.434 317.172 321.284 291.422 C 325.284 286.292 330.284 281.592 332.064 272.852 C 334.444 260.962 328.394 252.922 324.314 242.502 C 310.734 207.782 334.994 187.402 318.644 162.202 C 310.494 149.642 299.234 146.622 300.364 144.422 Z " fill="rgb(112,112,112)"/><path d=" M 259.834 228.812 C 262.904 230.232 224.054 281.172 239.834 324.072 C 249.324 349.832 276.934 368.352 272.834 373.482 C 271.664 374.942 268.374 374.632 261.834 374.022 C 257.068 373.49 252.401 372.285 247.974 370.442 C 237.324 365.702 226.414 350.542 222.494 333.352 C 217.414 311.122 225.414 291.682 230.764 278.652 C 233.174 272.812 235.644 268.222 240.584 259.042 C 246.064 248.822 257.924 227.942 259.834 228.812 Z " fill="rgb(112,112,112)"/><path d=" M 80.444 210.362 C 72.524 225.432 67.504 224.082 58.254 238.462 C 56.164 241.722 35.394 274.732 46.404 307.032 C 51.904 323.182 64.134 335.032 66.304 333.882 C 68.184 332.882 60.874 322.932 59.434 306.572 C 57.554 285.242 66.864 266.772 74.744 251.152 C 77.98 244.765 81.579 238.568 85.524 232.592 C 113.704 188.082 95.304 110.682 93.584 110.822 C 92.684 110.882 95.664 132.042 91.174 168.822 C 88.034 194.502 83.274 204.962 80.444 210.362 Z " fill="rgb(112,112,112)"/><path d=" M 140.994 101.772 C 139.694 101.072 146.224 83.282 158.514 65.472 C 164.094 57.392 183.514 29.242 202.974 31.292 C 205.684 31.572 211.734 32.792 211.844 34.662 C 211.954 36.532 205.294 38.452 202.644 39.282 C 189.874 43.282 181.644 51.892 167.474 66.842 C 149.084 86.202 142.264 102.462 140.994 101.772 Z " fill="rgb(216,216,216)"/><path d=" M 231.574 41.482 C 231.934 41.142 256.084 59.532 274.464 93.302 C 280.414 104.232 286.634 118.302 286.714 135.852 C 286.764 148.372 282.274 159.802 280.714 159.622 C 279.334 159.462 281.244 150.212 277.714 135.482 C 276.294 129.482 274.854 126.332 273.424 118.282 C 272.72 114.286 272.219 110.258 271.924 106.212 C 270.294 86.112 231.084 41.962 231.574 41.482 Z " fill="rgb(216,216,216)"/><path d=" M 128.454 42.202 C 129.454 42.662 108.604 68.492 108.774 106.442 C 108.944 143.442 128.894 151.052 134.104 195.572 C 138.384 232.222 128.884 261.472 127.364 261.352 C 125.844 261.232 134.084 228.172 123.484 186.122 C 115.014 152.542 103.784 150.172 100.994 125.122 C 95.964 80.042 127.214 41.652 128.454 42.202 Z " fill="rgb(216,216,216)"/><path d=" M 283.164 51.632 C 284.454 49.072 293.684 49.762 300.064 54.332 C 303.519 56.936 306.151 60.481 307.644 64.542 C 312.644 76.822 311.854 90.262 306.064 126.652 C 306.064 126.652 303.204 144.652 302.324 144.512 C 301.104 144.332 317.914 90.972 294.614 65.122 C 289.604 59.522 281.854 54.302 283.164 51.632 Z " fill="rgb(216,216,216)"/><path d=" M 334.674 209.902 C 333.13 218.555 333.443 227.439 335.594 235.962 C 340.344 253.722 354.254 269.382 354.714 281.802 C 354.861 284.189 354.418 286.576 353.424 288.752 C 351.614 292.542 348.564 294.132 345.094 296.412 C 339.824 300.017 334.956 304.178 330.574 308.822 C 327.674 311.962 325.464 315.122 321.044 321.432 C 316.864 327.432 315.174 330.432 314.674 330.182 C 313.964 329.842 315.834 323.042 319.244 316.352 C 323.764 307.512 327.574 305.572 337.244 292.082 C 340.524 287.522 342.154 285.242 342.564 284.302 C 347.964 271.852 338.124 262.132 334.324 241.922 C 331.024 224.242 334.444 209.902 334.674 209.902 Z " fill="rgb(216,216,216)"/><path d=" M 137.024 293.782 C 139.524 293.152 146.404 306.082 147.944 320.252 C 148.535 325.923 148.296 331.65 147.234 337.252 C 142.754 362.782 130.594 388.372 128.134 387.502 C 125.674 386.632 138.014 363.032 137.744 324.842 C 137.614 306.582 134.684 294.372 137.024 293.782 Z " fill="rgb(216,216,216)"/><path d=" M 298.624 162.372 C 297.784 162.262 304.794 221.812 275.364 288.512 C 262.824 316.942 249.734 332.902 256.764 350.792 C 267.184 377.272 312.074 383.462 313.594 380.172 C 315.014 377.172 278.384 367.122 271.254 339.382 C 267.064 323.082 275.134 308.682 279.944 298.712 C 310.874 234.672 299.534 162.482 298.624 162.372 Z " fill="rgb(216,216,216)"/><path d=" M 211.554 41.652 C 212.284 42.222 190.214 63.252 176.054 101.232 C 172.394 111.042 161.054 141.442 167.604 159.932 C 168.204 161.602 170.964 168.932 169.194 170.002 C 167.664 171.002 163.444 166.872 162.364 165.722 C 152.364 155.062 160.014 130.132 162.104 123.672 C 177.294 76.852 210.624 40.922 211.554 41.652 Z " fill="rgb(216,216,216)"/><path d=" M 312.434 142.922 C 312.974 141.762 340.254 144.732 349.574 164.482 C 359.394 185.292 342.134 209.582 340.714 209.152 C 339.294 208.722 352.174 185.862 342.494 166.152 C 333.764 148.432 311.944 144.042 312.434 142.922 Z " fill="rgb(216,216,216)"/><path d=" M 91.164 144.742 C 90.164 144.402 87.704 150.582 83.464 158.012 C 75.464 172.012 68.794 176.862 61.464 186.012 C 61.464 186.012 47.954 202.822 42.044 224.682 C 34.154 253.872 43.434 281.132 45.494 280.982 C 47.304 280.842 43.164 259.422 51.234 228.632 C 55.724 211.502 58.334 201.522 66.774 190.892 C 74.594 181.032 81.934 177.542 87.354 164.612 C 91.254 155.292 92.444 145.172 91.164 144.742 Z " fill="rgb(216,216,216)"/><path d=" M 216.424 44.852 C 218.344 46.402 200.894 62.412 197.654 87.112 C 195.494 103.622 200.744 115.902 199.444 116.212 C 198.144 116.522 191.204 103.482 191.614 87.862 C 192.064 70.992 200.814 59.202 203.974 55.352 C 208.564 49.762 215.254 43.912 216.424 44.852 Z " fill="rgb(216,216,216)"/><path d=" M 97.934 295.152 C 99.584 307.412 110.344 314.432 109.094 315.642 C 107.654 317.022 91.524 309.382 88.864 296.782 C 85.864 282.782 102.534 276.322 113.914 247.782 C 120.914 230.202 121.274 215.952 122.234 216.092 C 123.194 216.232 124.354 231.882 118.874 248.982 C 110.824 274.042 95.844 279.642 97.934 295.152 Z " fill="rgb(216,216,216)"/><path d=" M 258.164 28.572 C 258.854 26.872 225.774 2.162 188.054 5.642 C 158.424 8.382 137.494 27.432 138.054 28.642 C 138.614 29.852 160.244 12.762 190.714 13.812 C 201.064 14.172 211.184 16.612 231.424 21.512 C 251.664 26.412 257.854 29.272 258.164 28.572 Z " fill="rgb(216,216,216)"/><path d=" M 105.534 160.352 C 108.034 174.266 107.783 188.535 104.794 202.352 C 103.2 209.802 100.885 217.079 97.884 224.082 C 88.984 244.932 79.824 249.962 73.284 262.082 C 58.094 290.262 73.364 326.422 75.624 326.242 C 77.884 326.062 68.534 293.682 84.444 258.542 C 92.524 240.702 98.524 241.072 104.884 224.362 C 117.324 191.712 105.804 160.332 105.534 160.352 Z " fill="rgb(216,216,216)"/><path d=" M 279.094 174.572 C 279.994 174.572 281.284 181.872 281.594 186.682 C 282.594 202.682 274.394 214.462 267.944 226.152 C 265.374 230.812 248.274 262.462 245.944 298.302 C 244.944 314.052 247.094 325.142 245.824 325.302 C 244.184 325.522 237.084 307.422 238.404 286.952 C 239.714 266.672 248.894 250.232 260.834 228.842 C 268.944 214.322 275.834 205.352 277.484 189.492 C 278.164 183.192 278.164 174.612 279.094 174.572 Z " fill="rgb(216,216,216)"/><path d=" M 158.304 22.422 C 160.194 23.702 129.184 55.622 131.094 99.362 C 131.634 111.892 134.744 122.362 134.094 122.512 C 133.194 122.702 123.594 101.242 126.034 77.672 C 129.614 43.582 156.654 21.312 158.304 22.422 Z " fill="rgb(216,216,216)"/><path d=" M 154.544 185.412 C 156.094 185.412 145.414 244.572 179.244 289.522 C 186.164 298.732 198.514 312.062 197.244 313.292 C 195.974 314.522 184.194 304.712 178.794 299.512 C 140.354 262.482 152.764 185.462 154.544 185.412 Z " fill="rgb(216,216,216)"/><path d=" M 223.414 45.152 C 224.014 44.792 267.604 102.872 252.274 121.412 C 249.274 125.052 241.784 129.822 240.954 128.942 C 240.254 128.212 244.224 123.482 245.244 122.122 C 258.994 103.692 222.844 45.492 223.414 45.152 Z " fill="rgb(216,216,216)"/><path d=" M 296.624 162.282 C 297.464 162.472 296.294 169.172 294.504 189.222 C 293.374 201.802 293.504 202.622 292.504 214.162 C 290.944 230.722 290.164 239.042 289.224 244.042 C 285.914 261.392 280.064 264.812 269.374 288.252 C 256.094 317.352 256.084 331.872 252.554 331.592 C 246.864 331.142 236.744 292.492 250.634 257.452 C 259.104 236.092 268.814 235.452 281.804 205.702 C 291.954 182.472 295.164 161.962 296.624 162.282 Z " fill="rgb(112,112,112)"/><path d=" M 305.074 151.622 C 308.634 150.622 329.974 200.732 327.074 247.622 C 326.494 257.222 325.724 269.692 319.544 284.342 C 312.404 301.272 305.764 302.782 302.234 315.652 C 295.644 339.652 310.944 362.772 310.234 363.022 C 309.524 363.272 298.644 347.212 295.824 324.392 C 292.024 293.632 306.714 279.392 313.964 249.082 C 326.884 195.352 301.714 152.552 305.074 151.622 Z " fill="rgb(216,216,216)"/><path d=" M 123.324 242.162 C 121.544 243.022 134.024 257.962 130.864 277.512 C 128.414 292.642 118.514 298.622 120.424 312.102 C 121.194 317.532 124.224 326.702 124.754 328.302 C 126.554 333.752 127.484 336.472 128.424 336.452 C 130.644 336.452 131.374 324.732 134.784 303.692 C 138.484 280.832 140.104 279.322 139.104 271.842 C 136.774 254.232 125.004 241.352 123.324 242.162 Z " fill="rgb(112,112,112)"/><path d=" M 122.584 260.152 C 123.504 260.662 115.084 270.672 113.504 285.792 C 110.354 316.012 137.394 338.972 135.244 340.742 C 133.094 342.512 104.824 325.182 103.974 298.412 C 103.284 276.552 121.324 259.452 122.584 260.152 Z " fill="rgb(112,112,112)"/><path d=" M 124.744 256.232 C 125.884 256.412 121.674 271.342 124.164 294.232 C 126.774 318.232 134.774 333.152 133.544 333.652 C 132.314 334.152 122.034 319.602 118.924 300.042 C 115.164 276.492 123.394 256.042 124.744 256.232 Z " fill="rgb(216,216,216)"/><path d=" M 110.934 10.452 C 112.044 11.392 96.934 23.452 87.284 49.502 C 75.594 81.182 81.604 107.712 77.844 108.162 C 74.944 108.512 67.544 93.162 68.184 75.732 C 69.604 37.472 109.164 8.962 110.934 10.452 Z " fill="rgb(216,216,216)"/><path d=" M 270.834 16.092 C 270.694 14.092 285.554 8.192 296.934 14.172 C 302.254 16.972 306.424 22.172 305.554 23.532 C 304.684 24.892 300.144 22.352 290.694 19.912 C 277.164 16.422 270.924 17.382 270.834 16.092 Z " fill="rgb(216,216,216)"/><path d=" M 155.614 91.372 C 156.674 91.982 142.874 108.142 139.794 134.752 C 136.874 160.022 145.494 178.532 143.964 178.962 C 142.434 179.392 131.854 161.962 132.554 140.462 C 133.494 111.572 154.364 90.662 155.614 91.372 Z " fill="rgb(216,216,216)"/><path d=" M 399.164 292.042 C 407.704 282.102 423.804 296.952 460.164 292.042 C 473.854 290.192 486.564 286.042 511.054 285.552 C 523.604 285.292 525.784 286.252 527.164 287.042 C 545.694 297.622 538.994 344.352 535.164 371.042 C 531.334 397.732 527.254 402.652 529.164 420.042 C 530.784 434.832 535.494 447.732 541.164 463.042 C 551.034 489.692 555.164 490.762 556.164 503.042 C 558.164 527.502 543.634 544.542 546.164 546.042 C 548.894 547.662 570.744 530.712 574.164 506.042 C 577.284 483.502 562.164 475.192 555.164 435.042 C 551.444 413.682 553.584 396.412 556.164 396.042 C 559.424 395.582 558.964 422.852 577.164 436.042 C 591.554 446.472 615.814 446.802 625.164 436.042 C 633.714 426.202 626.074 411.392 636.164 404.042 C 640.974 400.542 643.974 402.982 654.164 400.042 C 656.164 399.462 668.904 395.652 678.164 386.042 C 694.794 368.772 690.484 342.832 690.164 341.042 C 688.074 329.532 682.434 322.042 671.164 307.042 C 663.054 296.252 658.994 290.852 651.164 287.042 C 639.164 281.192 629.894 284.602 627.164 279.042 C 624.434 273.482 632.994 268.882 634.164 257.042 C 635.334 245.202 628.544 231.112 618.164 226.042 C 608.864 221.502 602.344 226.912 598.164 222.042 C 592.844 215.842 602.484 206.042 597.164 191.042 C 595.611 186.402 592.85 182.26 589.164 179.042 C 584.164 174.862 581.094 175.702 576.164 173.042 C 564.454 166.732 568.664 154.812 558.164 148.042 C 551.164 143.502 548.854 148.602 532.164 144.042 C 524.905 142.112 517.867 139.43 511.164 136.042 C 501.344 131.362 498.694 128.522 493.164 129.042 C 487.074 129.622 486.354 133.282 479.164 136.042 C 469.534 139.742 465.584 134.382 456.164 136.042 C 444.694 138.042 446.544 146.732 429.164 158.042 C 415.904 166.672 407.614 166.322 404.164 175.042 C 402.284 179.792 404.484 183.662 401.164 188.042 C 398.164 191.932 394.434 192.042 390.164 194.042 C 383.294 197.312 379.824 204.262 373.164 218.042 C 368.649 227.365 364.968 237.069 362.164 247.042 C 358.884 258.112 356.871 269.518 356.164 281.042 C 355.634 290.302 355.004 301.322 358.164 315.042 C 360.284 324.222 362.334 326.972 363.164 336.042 C 364.164 347.462 361.434 348.412 362.164 358.042 C 362.394 361.042 363.874 377.042 376.164 390.042 C 379.744 393.832 385.284 399.712 394.164 402.042 C 405.864 405.112 412.904 399.282 416.164 403.042 C 419.424 406.802 416.164 415.042 407.164 433.042 C 407.164 433.042 404.624 439.482 399.164 456.042 C 387.724 490.742 430.924 547.202 435.164 545.042 C 435.684 544.772 431.164 527.532 422.164 493.042 C 418.804 480.192 416.444 471.242 419.164 460.042 C 420.654 453.922 422.964 453.272 429.164 438.042 C 433.274 427.952 434.624 422.882 434.164 417.042 C 433.757 412.476 432.394 408.047 430.164 404.042 C 417.164 378.972 405.864 341.142 402.164 327.042 C 397.004 307.382 394.524 297.442 399.164 292.042 Z " fill="rgb(160,160,160)"/><path d=" M 535.544 441.042 C 532.364 448.642 550.044 458.242 556.324 484.042 C 561.384 504.852 556.394 525.342 555.174 530.362 C 552.174 542.722 547.944 549.762 548.334 550.042 C 549.024 550.542 565.184 529.732 568.334 501.042 C 571.094 475.802 563.844 443.692 549.154 438.042 C 544.164 436.122 537.284 436.872 535.544 441.042 Z " fill="rgb(160,160,160)"/><path d=" M 553.164 230.042 C 559.207 238.064 564.244 246.795 568.164 256.042 C 585.404 297.522 572.704 342.102 566.164 365.042 C 557.354 395.952 549.164 402.802 550.164 426.042 C 551.164 450.232 561.044 468.712 560.164 469.042 C 559.284 469.372 545.064 448.312 541.164 421.042 C 534.734 376.042 563.654 365.932 564.164 317.042 C 564.654 270.312 538.734 231.822 534.164 225.042 C 520.674 205.042 506.604 193.752 508.164 192.042 C 510.164 189.892 534.824 205.202 553.164 230.042 Z " fill="rgb(216,216,216)"/><path d=" M 438.164 188.042 C 436.744 186.562 407.724 201.962 394.164 232.042 C 377.784 268.392 392.534 307.222 395.164 307.042 C 397.794 306.862 387.464 267.432 408.164 227.042 C 421.044 201.912 439.344 189.282 438.164 188.042 Z " fill="rgb(216,216,216)"/><path d=" M 477.164 174.042 C 474.284 173.142 439.084 261.332 460.164 282.042 C 460.694 282.562 468.974 290.622 471.164 289.042 C 472.964 287.742 469.804 280.582 469.164 279.042 C 458.774 253.902 479.844 174.882 477.164 174.042 Z " fill="rgb(216,216,216)"/><path d=" M 454.164 180.042 C 452.824 179.392 436.524 201.982 428.164 233.042 C 419.884 263.802 422.624 290.922 424.164 291.042 C 425.704 291.162 425.594 265.712 436.164 229.042 C 445.014 198.342 455.314 180.602 454.164 180.042 Z " fill="rgb(216,216,216)"/><path d=" M 496.164 179.042 C 493.674 179.182 492.644 208.042 495.164 232.042 C 498.074 259.802 506.604 289.502 509.164 289.042 C 514.014 288.172 501.034 178.762 496.164 179.042 Z " fill="rgb(216,216,216)"/><path d=" M 513.164 207.042 C 512.534 207.302 543.294 264.592 538.164 325.042 C 537.894 328.212 537.274 334.422 536.164 342.042 C 529.434 388.412 515.084 416.582 516.164 417.042 C 517.244 417.502 543.164 383.962 549.164 337.042 C 558.464 264.112 513.814 206.772 513.164 207.042 Z " fill="rgb(216,216,216)"/><path d=" M 461.694 149.612 C 461.044 147.482 491.184 128.972 515.544 139.342 C 524.544 143.172 531.664 150.472 530.664 152.432 C 529.434 154.842 516.664 147.612 497.024 146.072 C 475.164 144.352 462.164 151.042 461.694 149.612 Z " fill="rgb(216,216,216)"/><path d=" M 627.164 300.042 C 624.844 299.932 619.424 326.352 624.164 357.042 C 626.784 373.982 628.934 387.922 639.164 392.042 C 650.964 396.792 668.914 386.632 669.164 378.042 C 669.414 369.452 651.944 369.042 639.164 353.042 C 621.494 330.912 629.664 300.162 627.164 300.042 Z " fill="rgb(216,216,216)"/><path d=" M 637.164 291.042 C 631.664 298.932 677.164 329.672 669.164 354.042 C 665.454 365.292 652.314 369.152 654.164 375.042 C 655.964 380.772 670.754 384.532 679.164 379.042 C 695.164 368.602 693.964 320.892 668.164 300.042 C 656.554 290.662 640.104 286.832 637.164 291.042 Z " fill="rgb(216,216,216)"/><path d=" M 589.164 347.042 C 590.534 347.452 586.394 356.132 588.164 364.042 C 591.514 379.042 613.604 378.422 618.164 395.042 C 619.504 399.932 619.864 407.592 616.164 410.042 C 609.234 414.632 586.934 402.742 581.164 384.042 C 576.714 369.632 583.614 356.042 586.164 351.042 C 586.684 350.042 588.324 346.792 589.164 347.042 Z " fill="rgb(216,216,216)"/><path d=" M 624.164 417.042 C 620.524 413.312 608.624 427.722 593.164 425.042 C 574.874 421.872 566.394 397.362 563.164 399.042 C 560.994 400.172 563.044 412.202 570.164 422.042 C 579.264 434.612 598.394 446.042 612.164 439.042 C 622.164 433.952 627.234 420.192 624.164 417.042 Z " fill="rgb(216,216,216)"/><path d=" M 372.164 309.042 C 370.164 306.902 365.864 306.402 363.164 308.042 C 355.754 312.552 355.864 335.822 368.164 345.042 C 374.024 349.432 382.544 350.552 384.164 348.042 C 386.484 344.452 372.434 336.972 372.164 323.042 C 372.044 316.552 374.974 312.042 372.164 309.042 Z " fill="rgb(216,216,216)"/><path d=" M 416.164 423.042 C 413.644 422.382 403.164 441.742 401.164 464.042 C 397.774 501.952 420.164 534.112 423.164 533.042 C 425.754 532.112 412.414 506.472 413.164 464.042 C 413.594 439.742 418.394 423.632 416.164 423.042 Z " fill="rgb(216,216,216)"/><path d=" M 486.164 176.042 C 484.654 175.832 479.284 194.672 478.164 216.042 C 476.684 244.362 483.354 264.122 487.164 275.042 C 488.454 278.742 491.094 286.292 492.164 286.042 C 494.164 285.562 486.164 257.752 485.164 220.042 C 484.454 193.492 487.594 176.242 486.164 176.042 Z " fill="rgb(112,112,112)"/><path d=" M 465.164 178.042 C 463.594 177.512 454.094 201.602 447.164 224.042 C 447.164 224.042 432.444 271.682 443.164 291.042 C 443.474 291.602 444.334 293.162 445.164 293.042 C 447.934 292.642 447.264 273.882 447.164 269.042 C 446.324 227.182 467.404 178.792 465.164 178.042 Z " fill="rgb(112,112,112)"/><path d=" M 449.164 181.042 C 447.834 180.042 425.294 198.722 413.164 229.042 C 399.374 263.522 405.474 296.962 407.164 297.042 C 408.704 297.112 405.924 269.362 419.164 234.042 C 431.674 200.682 450.434 182.042 449.164 181.042 Z " fill="rgb(112,112,112)"/><path d=" M 499.164 178.042 C 500.294 177.522 519.894 205.332 525.164 244.042 C 528.384 267.642 525.284 288.042 524.164 288.042 C 523.044 288.042 524.674 265.042 518.164 234.042 C 510.834 199.122 498.164 178.482 499.164 178.042 Z " fill="rgb(112,112,112)"/><path d=" M 451.164 169.042 C 448.794 165.762 434.764 169.042 430.164 177.042 C 428.164 180.422 429.374 182.172 427.164 185.042 C 421.834 191.952 409.444 189.102 409.164 191.042 C 408.954 192.502 415.674 196.362 423.164 196.042 C 440.164 195.322 454.364 173.482 451.164 169.042 Z " fill="rgb(112,112,112)"/><path d=" M 376.164 263.042 C 377.224 259.292 376.074 254.252 373.164 253.042 C 369.604 251.552 364.814 256.412 364.164 257.042 C 356.264 264.782 358.274 277.962 359.164 284.042 C 360.714 294.652 363.784 297.212 365.164 298.042 C 365.584 298.292 368.704 300.182 370.164 299.042 C 373.584 296.372 361.164 282.192 366.164 273.042 C 368.894 268.042 374.564 268.702 376.164 263.042 Z " fill="rgb(112,112,112)"/><path d=" M 385.164 318.042 C 381.094 314.362 376.474 316.042 375.164 313.042 C 373.684 309.642 377.564 302.852 382.164 302.042 C 390.164 300.632 404.874 316.332 402.164 331.042 C 399.764 344.042 384.574 351.362 383.164 350.042 C 382.164 349.142 387.894 344.432 389.164 335.042 C 389.434 333.042 390.784 323.122 385.164 318.042 Z " fill="rgb(112,112,112)"/><path d=" M 654.164 323.042 C 642.604 310.952 635.164 303.122 631.164 305.042 C 626.064 307.512 628.334 325.522 635.164 339.042 C 639.444 347.522 649.534 362.212 657.164 360.042 C 663.234 358.322 666.644 346.222 664.164 337.042 C 663.524 334.672 662.214 331.462 654.164 323.042 Z " fill="rgb(112,112,112)"/><path d=" M 572.164 381.042 C 574.284 381.042 575.424 386.822 577.164 391.042 C 584.614 409.142 609.164 412.812 608.164 416.042 C 607.514 418.252 595.454 418.522 585.164 413.042 C 576.614 408.492 567.234 398.892 568.164 389.042 C 568.514 385.382 570.344 381.042 572.164 381.042 Z " fill="rgb(112,112,112)"/><path d=" M 471.734 140.222 C 472.884 141.812 469.024 145.002 456.794 162.012 C 448.594 173.412 447.034 176.562 445.534 176.092 C 442.614 175.172 441.654 161.142 448.694 151.272 C 455.884 141.202 469.854 137.632 471.734 140.222 Z " fill="rgb(112,112,112)"/><path d=" M 496.164 148.042 C 481.344 148.242 465.644 154.772 466.164 158.042 C 467.164 164.152 525.394 163.182 526.164 157.042 C 526.574 153.772 510.774 147.842 496.164 148.042 Z " fill="rgb(112,112,112)"/><path d=" M 422.164 413.042 C 429.984 432.532 426.424 446.112 427.164 478.042 C 427.239 488.072 427.907 498.09 429.164 508.042 C 432.414 532.712 438.164 545.672 437.164 546.042 C 435.644 546.592 419.024 520.112 418.164 486.042 C 417.854 473.832 419.934 475.182 420.164 458.042 C 420.584 426.272 413.654 403.742 416.164 403.042 C 417.424 402.692 420.164 408.042 422.164 413.042 Z " fill="rgb(112,112,112)"/><path d=" M 625.164 319.042 C 630.744 320.492 615.354 362.342 633.164 378.042 C 645.434 388.852 666.334 381.042 667.164 385.042 C 667.954 388.882 650.164 400.652 635.164 396.042 C 616.644 390.362 608.924 361.762 613.164 341.042 C 615.584 329.252 622.224 318.282 625.164 319.042 Z " fill="rgb(112,112,112)"/><path d=" M 574.164 356.042 C 571.164 355.242 570.544 335.042 580.164 330.042 C 581.113 329.571 582.122 329.234 583.164 329.042 C 590.334 327.502 597.904 331.332 602.164 336.042 C 609.844 344.552 608.784 358.232 606.164 359.042 C 602.704 360.112 597.014 338.642 588.164 339.042 C 580.274 339.402 576.994 356.812 574.164 356.042 Z " fill="rgb(216,216,216)"/><path d=" M 612.054 321.862 C 612.184 322.372 612.664 324.322 611.864 324.932 C 610.864 325.742 608.294 324.222 607.374 323.672 L 606.954 323.412 C 580.924 306.742 583.164 294.042 583.164 294.042 C 584.054 288.972 588.754 283.902 593.164 284.042 C 595.741 284.189 598.037 285.719 599.164 288.042 C 600.724 291.572 597.224 293.612 597.164 298.042 C 597.054 306.602 609.944 313.512 612.054 321.862 Z " fill="rgb(216,216,216)"/><path d=" M 380.164 224.042 C 377.034 223.982 372.714 234.542 375.164 243.042 C 375.774 245.172 377.104 248.162 378.164 248.042 C 379.224 247.922 379.634 245.122 380.164 242.042 C 380.994 237.212 380.294 236.852 381.164 234.042 C 382.164 230.792 383.454 230.112 383.164 228.042 C 382.914 226.252 381.574 224.042 380.164 224.042 Z " fill="rgb(216,216,216)"/><path d=" M 604.164 253.042 C 610.234 263.602 599.164 279.672 603.164 282.042 C 604.274 282.702 605.854 281.892 606.914 281.352 C 614.544 277.462 617.164 264.232 615.164 254.042 C 613.074 243.142 604.904 231.112 598.164 232.042 C 594.404 232.562 590.784 237.182 591.164 241.042 C 591.714 246.622 600.164 246.102 604.164 253.042 Z " fill="rgb(216,216,216)"/><path d=" M 607.394 329.332 C 609.004 335.332 606.964 340.832 606.284 342.702 C 605.604 344.572 605.064 346.042 604.164 346.122 C 601.344 346.372 601.644 331.612 593.984 328.222 C 586.064 324.712 575.984 334.742 573.894 332.382 C 571.804 330.022 578.104 315.752 589.264 314.812 C 598.164 314.042 605.464 322.172 607.394 329.332 Z " fill="rgb(112,112,112)"/><path d=" M 609.164 282.042 C 606.284 283.912 606.164 288.392 606.164 289.042 C 606.094 294.782 610.564 297.612 613.164 302.042 C 619.984 313.682 609.894 329.532 611.164 330.042 C 612.954 330.762 634.094 299.772 624.164 287.042 C 620.814 282.752 613.164 279.472 609.164 282.042 Z " fill="rgb(112,112,112)"/><path d=" M 586.164 244.042 C 590.084 247.652 585.824 253.042 588.164 262.042 C 591.324 274.212 603.534 281.342 602.164 283.042 C 601.784 283.512 600.694 283.202 600.164 283.042 C 586.464 278.922 579.164 266.592 579.164 266.592 C 577.694 264.112 568.954 249.442 574.164 244.042 C 576.884 241.252 583.084 241.202 586.164 244.042 Z " fill="rgb(112,112,112)"/><path d=" M 561.164 200.042 C 567.994 197.822 569.264 196.672 569.164 196.042 C 568.774 193.592 548.084 200.102 537.164 190.042 C 529.874 183.322 531.224 173.172 525.164 172.042 C 521.634 171.382 517.904 174.232 516.164 177.042 C 512.054 183.692 517.604 194.592 524.164 200.042 C 536.164 209.982 553.614 203.632 555.164 203.042 C 557.24 202.202 559.247 201.199 561.164 200.042 L 561.164 200.042 Z " fill="rgb(112,112,112)"/><path d=" M 392.164 226.042 C 395.414 227.852 395.494 236.392 392.164 242.042 C 391.284 243.542 388.904 245.712 384.164 250.042 C 382.054 251.972 381.414 252.222 381.164 252.042 C 379.994 251.222 388.844 242.472 387.164 233.042 C 386.794 230.972 385.874 228.622 387.164 227.042 C 388.437 225.658 390.457 225.254 392.164 226.042 Z " fill="rgb(112,112,112)"/><path d=" M 399.464 199.492 C 399.744 202.082 395.544 202.692 391.164 208.042 C 386.784 213.392 386.404 218.252 385.164 218.042 C 383.924 217.832 383.394 212.642 384.164 208.042 C 384.404 206.582 386.264 196.232 392.164 195.042 C 395.234 194.422 399.164 196.942 399.464 199.492 Z " fill="rgb(112,112,112)"/><path d=" M 392.164 280.042 C 390.063 286.021 386.235 291.241 381.164 295.042 C 379.574 296.332 374.394 300.522 372.164 299.042 C 371.567 298.543 371.205 297.818 371.164 297.042 C 370.634 293.042 375.884 290.372 379.164 286.042 C 381.324 283.192 383.404 278.622 383.164 271.042 C 378.484 265.772 376.434 260.352 378.244 257.622 C 378.737 256.939 379.399 256.395 380.164 256.042 C 383.364 254.512 387.464 256.722 389.164 258.042 C 395.164 262.672 394.224 273.922 392.164 280.042 Z " fill="rgb(216,216,216)"/><path d=" M 416.164 166.042 C 406.324 174.242 408.954 191.572 411.164 192.042 C 412.944 192.422 413.254 181.592 422.164 176.042 C 428.994 171.782 436.034 173.642 437.164 170.042 C 437.924 167.612 435.434 164.502 433.164 163.042 C 428.024 159.732 420.374 162.532 416.164 166.042 Z " fill="rgb(216,216,216)"/><path d=" M 379.314 222.442 C 379.704 224.492 396.754 225.252 407.314 216.582 C 410.224 214.202 411.164 212.322 411.314 210.582 C 411.794 206.072 407.314 200.512 403.314 200.582 C 397.864 200.582 397.554 211.052 386.224 218.492 C 381.884 221.402 379.164 221.612 379.314 222.442 Z " fill="rgb(216,216,216)"/><path d=" M 523.164 169.042 C 523.594 172.542 529.014 173.952 536.164 177.042 C 555.014 185.202 561.564 194.582 563.164 193.042 C 566.064 190.252 546.984 157.222 532.164 160.042 C 527.464 160.932 522.734 165.522 523.164 169.042 Z " fill="rgb(216,216,216)"/><path d=" M 559.164 193.042 C 559.504 188.862 565.904 184.292 571.164 185.042 C 586.484 187.232 592.054 234.492 590.164 235.042 C 589.164 235.342 588.164 221.342 576.164 209.042 C 567.434 200.112 558.754 198.102 559.164 193.042 Z " fill="rgb(112,112,112)"/><path d=" M 561.164 199.042 C 559.704 197.242 556.284 197.912 555.164 198.042 C 549.164 198.722 543.964 204.612 543.164 210.042 C 541.594 220.772 557.164 229.362 560.164 231.042 C 572.024 237.602 585.534 237.292 586.164 235.042 C 587.164 231.632 558.264 224.552 558.164 212.042 C 558.164 206.662 563.404 201.802 561.164 199.042 Z " fill="rgb(216,216,216)"/><path d=" M 519.164 163.042 C 520.394 165.552 512.074 173.692 502.164 177.042 C 486.794 182.232 473.514 173.912 472.164 173.042 C 468.024 170.352 462.104 165.192 463.164 163.042 C 464.474 160.372 474.774 165.882 491.164 166.042 C 508.164 166.202 517.924 160.502 519.164 163.042 Z " fill="rgb(216,216,216)"/><path d=" M 388.814 352.112 C 393.524 352.612 396.914 355.912 399.514 358.432 C 402.017 360.586 404.023 363.257 405.394 366.262 C 410.714 379.032 407.174 399.062 405.394 399.262 C 403.614 399.462 407.094 379.082 397.094 370.962 C 395.494 369.652 392.704 368.202 387.094 365.302 C 378.884 361.022 376.254 360.512 376.094 358.692 C 375.984 355.742 382.664 351.452 388.814 352.112 Z " fill="rgb(216,216,216)"/><path d=" M 398.274 290.112 C 399.274 290.112 399.274 301.612 401.794 316.562 C 410.274 367.352 437.134 398.722 435.054 400.072 C 433.224 401.262 409.574 379.072 400.144 344.532 C 392.514 316.582 396.814 290.152 398.274 290.112 Z " fill="rgb(112,112,112)"/><path d=" M 369.164 351.042 C 372.714 350.142 374.804 369.552 389.014 380.232 C 394.259 384.265 398.812 389.125 402.494 394.622 C 403.954 396.792 404.674 397.892 404.354 398.312 C 402.614 400.602 374.414 390.172 368.164 369.042 C 365.744 360.862 366.784 351.642 369.164 351.042 Z " fill="rgb(112,112,112)"/><path d=" M 536.164 431.042 C 534.274 431.942 558.044 462.572 552.164 500.042 C 547.944 526.952 530.514 544.042 533.164 546.042 C 535.374 547.672 549.304 537.042 556.164 521.042 C 562.664 505.922 560.314 491.912 558.164 480.042 C 552.914 451.042 537.714 430.312 536.164 431.042 Z " fill="rgb(112,112,112)"/><path d=" M 544.164 255.042 C 546.764 254.502 569.344 301.362 556.164 352.042 C 549.514 377.602 535.384 397.962 533.164 397.042 C 530.784 396.042 543.584 371.102 548.164 334.042 C 554.004 286.782 542.064 255.482 544.164 255.042 Z " fill="rgb(112,112,112)"/></g></svg>