<?xml version="1.0" encoding="utf-8"?>
<!-- Generator: Adobe Illustrator 25.0.0, SVG Export Plug-In . SVG Version: 6.00 Build 0)  -->
<svg version="1.1" id="Calque_1" xmlns="http://www.w3.org/2000/svg" xmlns:xlink="http://www.w3.org/1999/xlink" x="0px" y="0px"
	 viewBox="0 0 498.79 592.42" style="enable-background:new 0 0 498.79 592.42;" xml:space="preserve">
<style type="text/css">
	.st0{fill:#A0A0A0;}
	.st1{fill:#D8D8D8;}
	.st2{fill:#707070;}
	.st3{fill:#898989;}
</style>
<path class="st0" d="M28.25,526.75C8.37,522.33-52.39,263.84,104.95,173c96.72-55.85,230.51-22.18,298,60.3
	c115.66,141.23-25.09,349.79-37.61,356.83c-6.35,3.57-10.6,1.9-10.6,1.9c-5-2-6.57-8.81-7-10.63c-3-12.86,5.85-25.47,12.37-35.23
	c9.84-14.73,16.92-31.3,27.73-45.34c21.13-27.47,68.9-156.82,1.19-249.86c-61.17-84.06-192.4-105.21-270.22-56.84
	C8.8,262.5,22.26,459.36,36.26,487.58c1.44,2.9,10.37,19.1,3.94,30.42C37.39,523.06,31.27,527.43,28.25,526.75z"/>
<path class="st1" d="M398.68,356.36c5.43,0.28,6.9,7.84,11.61,7.68c3.57-0.13,3.64-4.57,9.22-6.47c4.48-1.53,6.19,0.73,9.42-1.12
	c3.67-2.1,2.11-5.54,5.94-9c4.6-4.13,8.57-1.63,12.39-5.61c2.89-3,1-4.93,3.9-10.21c3.38-6.28,6.77-5.08,10.74-11.28
	c3.57-5.59,1.3-7.31,5.23-13.92c3.45-5.79,5.39-4.81,7.85-9.93c3-6.34,0.53-8.79,3.81-13.51c3.07-4.4,6.27-3.7,7.69-7.6
	c1.48-4.06-1.64-5.76-0.92-10.4c1-6.56,7.77-6.49,9.89-13.28c1.81-5.81-2.65-7.44-1.87-15.7c0.74-7.78,4.86-8.12,5.19-15.27
	c0.21-4.54-1.48-4.19-4.81-16.3c-2.37-8.65-2-10.48-4.43-13.17c-3.41-3.73-6.45-2.66-10.6-6c-5.68-4.58-6.32-11.75-7-13.87
	c-8.13-23.92-160.06-22.7-177.45,29.53c-2.64,7.92-6.16,28.92,1.79,33.88c3.08,1.92,5.42-0.11,8.75,2.3c7,5,1.18,17.2,8.49,23.61
	c3.6,3.15,6.34,1.38,9.34,5.12c3.41,4.25,0.57,7.41,3.3,12.9c3.66,7.38,11.12,6.32,12.65,12.43c1.24,5-3.33,7.3-1.66,11.83
	c1.82,4.95,7.73,3.8,10.35,9s-2.28,8.44-0.11,14.35s7.67,4.47,12.87,11.85c4.48,6.34,2.69,10.64,6.6,12.59
	c4.54,2.26,8.12-3,13.41-0.87c5.53,2.19,5.25,9.31,9.83,9.94C393.61,360.35,394.67,356.16,398.68,356.36z"/>
<path class="st2" d="M372.2,172.43c95.84,17.85,108.66,19.41,115.48,33.16c7.5,15.12,1,31.35-11.44,62.18
	c-11.44,28.45-30.44,75.64-68.87,81.16c-2.54,0.37-20.84,2.73-37.23-7.77c-17.14-11-14.69-24.83-36.77-75.69
	c-8.2-18.89-13.86-29.24-21.32-51.51c-11.54-34.45-8.34-40.58-6.65-42.93C312.52,161.16,331.23,164.8,372.2,172.43z"/>
<path class="st3" d="M99.12,138.91l19.77,0.12"/>
<path class="st1" d="M50.8,296.52c-5.26-1.82-8.59,2.41-11.92,0.19s-0.93-7.16-4.5-10.17s-8.37,0.51-11.39-2.35
	c-3.45-3.25,1.32-9.21-2.19-15c-2.89-4.74-7.43-2.86-10.35-7.41c-3.58-5.6,2.74-10.55-0.14-18.51c-2.31-6.36-7.3-6.06-8-11.56
	s4.37-7.33,3.8-13.51c-0.52-5.66-5-6.22-4.84-11.21c0.13-5.41,5.4-6.39,5.57-12.13c0.13-4.75-3.45-5.45-3.08-9.82
	c0.47-5.65,6.65-6.8,6.54-11.92c-0.08-3.68-3.28-4-3.48-7.87c-0.27-4.95,5-5.95,6.54-11.92c1.65-6.5-3.73-8.75-2.07-14.73
	c1.74-6.27,8.26-5.91,9.68-12.29c1.14-5.14-2.6-7.51-0.72-11.38c1.72-3.52,5.16-2.29,9.83-6.12c6.45-5.3,4.62-11.56,9.51-13.38
	c4.26-1.59,6.81,2.73,12.61,2.1c6.73-0.73,10.52-7.36,12.47-9.3c17.91-17.82,153.49,50.76,145.87,105.28
	c-1.08,7.74-6.51,27.9-16.65,29.56c-4.78,0.78-8.48-2.91-13.06-0.51c-5.74,3-3.14,10.48-8.91,13.48c-4.66,2.43-10.55-0.27-15.63,3
	c-0.9,0.57-1.73,1.24-2.48,2c-2.15,2.41-2.09,5-6.2,8.08c-6.56,5-12.78,0.73-16.86,5.53c-3.33,3.91-0.26,8-3.77,11.33
	c-3.91,3.71-9.17-0.17-13.26,3.47c-3.94,3.5-1.18,8.92-5.21,11.69c-2.64,1.81-4.32-0.16-9.75,1.11c-4.06,0.97-7.77,3.07-10.69,6.06
	c-4.76,5.15-2.47,9.59-6.4,11.87c-3.35,1.95-5.33-1.09-11.92,0.19c-5.74,1.11-6.47,3.85-9.9,3.23
	C55.47,302.89,55.72,298.26,50.8,296.52z"/>
<path class="st1" d="M323.35,116.33c2.55-3.44,3.71-5.18,3.71-5.18c2.43-4,2.67-6.17,4.9-7.25c4.27-2.08,7.56,3.76,12.83,2
	c4.82-1.59,3.81-7.06,9.2-9.61c4.87-2.29,7.23,1.44,13.49-0.46s5.69-6.18,11.37-7.7c6.91-1.86,10.24,3.77,15.66,1.44
	c5.27-2.27,4.49-8.62,9.2-9.61s7.13,4.29,11.25,3s3.59-7.46,7.8-8.56c3.51-0.91,5.44,2.92,8.82,1.82c3.61-1.18,3.3-6.19,6.51-6.83
	c2.66-0.53,3.54,2.69,7.49,3.31c5,0.77,6.89-3.83,10.75-2.92s3,6,8.17,9.86c5.42,4,10,1.13,12.33,4.58c2.8,4.14-3.1,9.32-0.09,15.3
	c1.78,3.52,4.61,3.27,5.53,6.83s-1.76,4.62-1.7,9.27c0.07,6,4.58,7,3.61,11.63c-0.53,2.57-1.86,3.66-3.2,8.37
	c-0.25,0.9-0.39,1.83-0.41,2.76c-0.25,6.59,3.83,7.78,3.72,14c-0.12,6.44-4.57,6.63-5.4,13.41c-1.05,8.52,5.46,12.34,2.93,17.75
	c-2,4.41-7.42,3.7-8.15,7.56c-0.78,4.08,4.93,6.16,4.43,11.15c-0.37,3.65-3.54,3.65-4.76,8.21c-1.3,4.88,1.9,6.57,0.66,11.06
	c-1.38,5-5.71,4.37-7.15,9.08c-1.68,5.46,3.47,8.45,1.59,13.56c-1.55,4.19-5.44,3.3-7.3,7.69c-2.21,5.26,2.3,9-0.07,13.18
	c-1.83,3.21-4.9,1.62-8.9,4.77c-6.66,5.24-2.81,13.32-9,17.94c-4.59,3.44-8.22,0.1-12.69,4s-2.07,8.24-6.41,11.87s-8,0.25-14,3.72
	c-6.48,3.79-5.31,9.75-10.21,11.09c-5.37,1.48-7.73-5.41-15.93-5.92c-8.36-0.52-11.17,6.31-16.75,4.46s-4.5-9.46-11.58-14.26
	c-5.74-3.89-8.9-0.29-13.92-2.87c-12.36-6.35-2.94-32.34-17.23-44.45c-6.69-5.68-10-1.06-15.93-5.93
	c-19.3-15.94,13.18-68.36-3.18-100.35c-1.54-3-5-8.7-3-14.14C305.24,127.33,316.73,125.26,323.35,116.33z"/>
<path class="st2" d="M158.06,144.47c-90-37.59-101.54-43.31-114.77-35.54c-14.56,8.54-18,25.7-24.51,58.28
	c-6,30.07-16,80,13.15,105.63c1.92,1.7,15.93,13.7,35.4,13.9c20.36,0.2,25.9-12.72,72.23-43.17c17.21-11.31,27.62-16.87,46.06-31.41
	c28.54-22.5,29.22-29.37,29.09-32.27C214.16,167.74,196.52,160.53,158.06,144.47z"/>
<path class="st0" d="M356.04,108.89c0,0,40.71-19.43,81.59-27.66c4.48-0.9,13.47-2.51,21,2.28c3.61,2.45,6.44,5.86,8.18,9.86
	c8.19,17.21,10.87,53.54,3.94,97.76c-2.09,13.32-5.06,29.4-5.06,29.4c-0.26,1.46-2.76,15-3.67,19.08
	c-6.46,29-41.65,69.5-80.75,68.31c-3.06-0.03-6.1-0.38-9.08-1.05c-4.39-1.17-8.58-3-12.43-5.42c-14-9.08-31.63-47.23-56.8-76.91
	c-9.72-11.47-11.44-10.89-14.21-17.09c-10.65-23.83,3.53-57.24,24.11-76.51C315.87,128.09,329.29,121.64,356.04,108.89z"/>
<path class="st1" d="M222.25,104.91c-2.25-9.49-0.13-12.29-2.2-15c-2.9-3.76-8.44,0-12.39-3.88c-3.62-3.56-0.28-8-4-12.69
	c-3.34-4.22-7.12-1.92-11.88-6.41s-2.36-8.06-6.77-12c-5.36-4.73-10.85-1.17-14.67-5.67s-0.19-9.71-4-12.69
	c-3.45-2.72-7.68,0.71-11.39-2.35c-2.73-2.25-1-5-3.64-8.44c-3.2-4.29-7.21-2.27-12.44-5.91c-7.14-5-4.64-12.17-10.31-14.38
	c-5.67-2.21-10.06,3.89-15.5,0.89c-2.86-1.58-2.58-3.78-6.05-5.33c-2.45-1.09-6.47-1.73-9.22,0.14c-3.85,2.62-1.17,7.36-4.56,12.39
	c-4.22,6.28-11.46,3.18-15,8.78s2.49,10.25-0.86,17c-3.08,6.19-9.5,5-11.47,10.83c-1.8,5.35,3,7.95,1.19,13.44
	c-2,6-8.61,5.37-10.21,11.09c-1.54,5.5,4.05,8,2.46,13.7c-1.51,5.33-7,5.05-8.94,11.35c-1.27,4.13,0.82,5.1-0.56,9.13
	c-1.83,5.31-6.17,5.65-8.68,10.08c-3,5.34,2.17,8.1,0.67,16c-1.42,7.45-6.07,7.48-6.93,14.41c-0.7,5.65,2.32,6.25,3.46,15.23
	c0.63,5.68,0.34,11.42-0.86,17c-1.73,9-4.06,10.12-2.87,13.93c1.75,5.62,7.44,5.06,9.56,11.2c1.67,4.82-1.39,6.45,0.18,11.92
	c1.43,4.95,4.18,4.48,8.3,10.94c4.77,7.49,3,11.16,7.52,14.75c3,2.42,4.29,1.11,9.86,3.35c9.19,3.7,8.89,8.52,16.16,11.25
	c1.63,0.61,3.47,1.05,18.5-0.15c11.07-0.88,9.91,0.43,17.5-1.67c5.94-1.64,5.5-2.87,15.1-6.76c10.23-4.14,11.3-3,15.53-6
	c6.26-4.46,4.82-7.67,10.66-12.09c7.07-5.35,10.39-1.58,18.67-6.36c9.1-5.27,8.24-11.66,16.85-15c7.18-2.76,9.38,1.09,13.44-1.19
	c13.21-7.4-7-47.36,11.3-67.6c3.64-4,7.46-5.81,8.94-11.35C235.68,119.81,225.75,108.58,222.25,104.91z"/>
<path class="st0" d="M196.27,83.72c-29.66-36.53-51.21-61-80.46-70.56c-3.92-1.29-5.4-1.46-6.86-1.42
	c-23.76,0.72-41.45,59.69-52,94.73c-1.49,5-5.86,14.86-8.53,28.59c-1.16,6.25-1.97,12.55-2.43,18.89c-1,11.23-2,22.57-0.79,33.53
	c2.57,23.16,15.85,52,40.13,63.37c1.82,0.86,3.68,1.61,5.59,2.25c0.92,0.3,1.92,0.59,3,0.85c28.84,6.85,45.62-21.92,98.59-43
	c12.88-5.12,15.16-4.73,20.33-9c20.13-16.62,22.26-52.85,12.38-79.26C222.99,116.7,214.03,105.62,196.27,83.72z"/>
<path class="st1" d="M216.52,114.35c-5.79,2.06-8.47,4.38-9.56,7.14c-2.16,5.44,3.3,8.82,2.08,16s-7.58,8.46-7,14.18
	c0.55,5.13,5.84,5.7,6,10.34c0.16,6-8.58,7.92-8.26,13.91c0.21,4,4.15,4.78,4.92,8.82c1.24,6.5-10.19,9.69-9.81,14.9
	c0.3,4.05,7.12,7.12,15.52,9.71c30.14,9.3,41.1,0.31,60,9.76c10,5,13.17,10.67,19.66,9.26c8.19-1.77,14.91-13.29,12.13-19.62
	c-1.51-3.45-5-3.43-5.44-6.33c-0.81-5.44,11-8.2,11.11-14.63c0-5.21-7.74-6.24-8.29-12.12c-0.64-6.82,9.48-9.5,8.78-16.41
	c-0.55-5.44-7.07-6.42-7-11.85c0.06-4.68,4.93-6.06,4.9-10.71c0-0.82-0.19-4.39-6.22-9.09C284.26,115.37,241.38,105.5,216.52,114.35
	z"/>
<path class="st0" d="M296.21,165.26c0.25-9.19,0.25-10.69,0.25-10.69c0-9.17-0.53-11.68,0.26-16.82c1.08-7.06,2.87-7.35,2.69-10.28
	c-1-16.51-58.42-20.85-68.83-18.15c-2.1,0.56-4.08,1.49-5.85,2.75c-2.44,1.93-4.33,4.48-5.45,7.38c-4.13,10-4.71,28.39-5.44,45.75
	c-0.94,22.27-6.06,29.11-4.39,35.11c0.68,1.09,1.27,2.23,1.76,3.41c1.37,3.69,0.67,6,1,7.38c1.39,5.27,21,3.11,36,4.77
	c24.39,2.73,29.19,14.89,37.44,10.36C294.69,221.26,295.2,202.56,296.21,165.26z"/>
<path class="st1" d="M122.99,121.85c0.85-6.3,4.09-7.28,3.2-10.57c-1.09-4.06-7.1-6.63-11.93-6.54c-6.91,0.11-11.79,5.68-13.11,7.19
	c-0.15,0.18-0.29,0.34-0.42,0.51c-0.32-0.19-0.66-0.36-1-0.51c-1.25-0.49-2.59-0.65-3.92-0.49c-0.47-1.25-1.06-2.46-1.75-3.6
	c-0.32-0.54-7.43-12.52-16.9-11.39c-2.79,0.33-6.68,1.91-8.19,5.08c-1.61,3.38,1,5.35-0.06,10.19s-4.34,5.15-5,9.19
	c-0.64,4.19,2,9.26,5.82,11.41c4,2.27,9.1,1.15,13.53-1.18c-3.36,6.64-6,14-4.66,15c0.94,0.66,3.5-2.31,6.28-1.26
	c2.46,0.92,2.61,4.07,3.52,4.07c2.1,0,5.54-16.62,5-24.53c0.76,0.48,1.61,0.8,2.5,0.93c0.4,0.04,0.81,0.04,1.21,0
	c-3.2,7.65-5.79,22.77-3.93,23.5c0.84,0.33,2.15-2.53,4.78-2.48c3,0.06,4.24,3.77,5.36,3.5c1.84-0.44,2-11.25,0.77-19.52
	c4.42,5.69,10.1,10.19,14,8.81c2.9-1,4.18-5,4.55-6.13C124.14,128.67,122.31,127.09,122.99,121.85z"/>
<path class="st1" d="M446.81,193.58c0.9-4.89,4.12-5.64,4-9.39c-0.13-3.51-3.08-6.5-5.51-7.9c-8.26-4.79-19.52,3.41-20,3.77
	c-1.08,0.78-2.08,1.65-3,2.62c-1.15-0.68-2.45-1.06-3.79-1.1c-0.37,0-0.74,0.02-1.11,0.07l-0.19-0.63c-0.62-1.91-2.9-8.95-9.2-11.79
	c-4.4-2-10.93-2-13.54,1.29c-2.12,2.67,0.47,4.85-1.24,11c-1.43,5.09-3.75,5.82-4.18,10.37c-0.12,1.18-0.52,5.35,1.74,7.44
	c3.07,2.82,10.07,0.93,16.37-2.55c-4.35,7.13-8.52,17.1-7,18.23c0.92,0.69,3.56-2.21,6.31-1.09c2.44,1,2.51,4.14,3.42,4.17
	c2,0.06,5.59-14.85,5.68-23.14c0.36,0.19,0.73,0.34,1.12,0.45c0.87,0.23,1.77,0.27,2.66,0.13c-3.61,7.06-7,23.69-5.1,24.52
	c0.84,0.35,2.22-2.47,4.85-2.35c3,0.14,4.14,3.88,5.27,3.64c1.56-0.33,2.1-8.16,1.63-15.59c3.15,3.89,7.37,6.93,12,6.44
	c4.35-0.47,8.78-4.08,9.85-8.18S445.92,198.51,446.81,193.58z"/>
<path class="st2" d="M122.58,59.17c2.81-2,22.08,19.47,31.69,30.18c6.24,6.95,7.65,8.79,12.38,13.62
	c11.86,12.13,19.33,17.29,18.72,18.16s-9.38-3.37-35-18.45c-17-10-31-18.61-40.84-24.76c6.16,0.76,12.51,0.56,14.92-3
	C127.99,69.6,120.81,60.46,122.58,59.17z"/>
<path class="st2" d="M187.04,162.53c0,0.94-4.14,2.52-8.34,4.23c-46.87,19.15-87.09,48.64-88.08,43.67
	c-0.64-3.34,17.58-16.17,16.86-23.87c-0.76-8-21.54-3.15-21.47-4.43C86.15,179.31,187.15,157.87,187.04,162.53z"/>
<path class="st2" d="M321.79,199.82c-0.28,0.57,2.86,2.83,6,5.2c35.44,26.49,61.67,57.06,64.14,54.4
	c1.66-1.79-10.39-15.37-7.31-19.72c3.23-4.55,20.11,5,20.46,4.21C405.88,242.18,323.18,196.98,321.79,199.82z"/>
<path class="st2" d="M415.61,123.66c-2.48-4.14-25.12,5.09-40.08,11.14c-42.35,17.14-52,20.58-51.51,22c0.78,2.5,29.11-5,59.86-8.08
	c11.16-1.13,16.73-1.69,21.78-1.63c9.2,0.1,17,1.21,17.46-0.49c0.53-1.94-9.5-3.84-11.12-10.46
	C410.56,130.33,416.99,126,415.61,123.66z"/>
</svg>
