<?xml version="1.0" standalone="no"?><!-- Generator: Gravit.io --><svg xmlns="http://www.w3.org/2000/svg" xmlns:xlink="http://www.w3.org/1999/xlink" style="isolation:isolate" viewBox="0 0 988.486 737.341" width="988.486" height="737.341"><defs><clipPath id="_clipPath_MOvFRVvEw93dnp8nGBegq0EntllNwcuJ"><rect width="988.486" height="737.341"/></clipPath></defs><g clip-path="url(#_clipPath_MOvFRVvEw93dnp8nGBegq0EntllNwcuJ)"><path d=" M 457.54 500.34 C 439 491.92 432.8 226.46 605.54 169.98 C 711.64 135.24 835.62 195.76 884.72 290.34 C 968.79 452.34 788.09 627.46 774.39 631.76 C 767.39 633.95 763.63 631.44 763.63 631.44 C 759.15 628.44 759.01 621.44 758.97 619.59 C 758.71 606.4 769.97 595.87 778.33 587.67 C 791 575.28 801.33 560.53 814.8 549.02 C 841.15 526.48 914.54 409.76 867.46 304.77 C 824.92 209.94 700.87 162.2 614.75 193.5 C 493.03 237.74 465.62 433.15 473.51 463.65 C 474.33 466.79 479.72 484.47 471.1 494.23 C 467.24 498.59 460.37 501.61 457.54 500.34 Z " fill="rgb(160,160,160)"/><path d=" M 855.14 409.91 C 860.4 411.31 860.28 419 864.92 419.81 C 868.44 420.43 869.43 416.1 875.28 415.39 C 879.97 414.82 881.19 417.39 884.73 416.23 C 888.73 414.93 887.93 411.23 892.39 408.66 C 897.74 405.56 901.12 408.83 905.67 405.72 C 909.12 403.36 907.67 401.12 911.59 396.53 C 916.2 391.09 919.26 392.96 924.42 387.71 C 929.07 382.98 927.2 380.82 932.42 375.17 C 936.99 370.17 938.69 371.57 942.15 367.07 C 946.44 361.49 944.47 358.57 948.66 354.63 C 952.57 350.96 955.56 352.3 957.75 348.78 C 960.03 345.11 957.33 342.78 959 338.41 C 961.35 332.2 967.94 333.66 971.4 327.46 C 974.4 322.14 970.34 319.63 972.81 311.71 C 975.14 304.24 979.24 304.77 981.03 297.84 C 982.17 293.43 980.45 293.43 979.69 280.89 C 979.15 271.94 979.92 270.23 978.07 267.09 C 975.5 262.74 972.3 263.16 968.93 259.03 C 964.31 253.37 965.17 246.23 964.93 244.03 C 961.93 218.95 812.98 188.84 785.19 236.37 C 780.98 243.57 773.19 263.37 779.96 269.88 C 782.58 272.4 785.29 270.88 788.05 273.94 C 793.83 280.3 785.66 291.01 791.5 298.79 C 794.37 302.62 797.42 301.45 799.58 305.73 C 802.04 310.59 798.58 313.1 800.15 319.03 C 802.22 327.03 809.73 327.51 809.97 333.8 C 810.16 338.94 805.21 340.25 805.91 345.04 C 806.67 350.25 812.69 350.34 814.18 355.98 C 815.67 361.62 810.18 363.76 811.12 369.98 C 812.06 376.2 817.7 375.93 821.27 384.22 C 824.35 391.35 821.71 395.22 825.13 397.9 C 829.13 401.04 833.69 396.67 838.44 399.81 C 843.44 403.1 841.65 410 846 411.57 C 849.35 412.77 851.26 408.88 855.14 409.91 Z " fill="rgb(216,216,216)"/><path d=" M 867.12 224.47 C 957.23 261.69 969.46 265.86 973.3 280.71 C 977.52 297.06 967.79 311.6 949.3 339.21 C 932.24 364.68 903.93 406.95 865.19 404.43 C 862.63 404.27 844.24 402.81 830.36 389.16 C 815.85 374.88 821.1 361.83 809.97 307.51 C 805.84 287.34 802.43 276.04 799.72 252.71 C 795.53 216.62 799.92 211.29 802.06 209.34 C 811.03 201.15 828.6 208.56 867.12 224.47 Z " fill="rgb(112,112,112)"/><line x1="606.81" y1="135.4" x2="626.13" y2="139.59"/><path d=" M 527.03 279.68 C 522.26 276.81 518.13 280.26 515.34 277.4 C 512.55 274.54 515.9 270.2 513.03 266.53 C 510.03 262.69 504.73 265.3 502.36 261.88 C 499.66 257.98 505.55 253.14 503.3 246.79 C 501.45 241.55 496.62 242.46 494.7 237.4 C 492.35 231.19 499.56 227.64 498.38 219.27 C 497.38 212.56 492.48 211.83 492.96 206.27 C 493.44 200.71 498.75 199.99 499.47 193.83 C 500.12 188.19 495.9 186.72 497.04 181.83 C 498.29 176.55 503.64 176.68 504.98 171.11 C 506.1 166.48 502.73 165.11 503.98 160.86 C 505.61 155.43 511.88 155.58 512.83 150.54 C 513.52 146.92 510.46 145.9 511.05 142.12 C 511.81 137.23 517.19 137.34 519.9 131.8 C 522.9 125.8 518.06 122.47 520.9 116.97 C 523.9 111.19 530.21 112.89 532.9 106.97 C 535.07 102.18 531.9 99.09 534.54 95.69 C 536.95 92.6 540.06 94.52 545.42 91.69 C 552.83 87.83 552.32 81.33 557.48 80.55 C 561.98 79.87 563.58 84.63 569.38 85.21 C 576.12 85.88 581.2 80.21 583.51 78.68 C 604.71 64.93 723.24 159.97 704.56 211.76 C 701.91 219.11 692.44 237.76 682.18 237.25 C 677.33 237.02 674.47 232.65 669.49 234.06 C 663.26 235.82 664.27 243.67 658 245.42 C 652.94 246.83 647.73 242.97 642.08 245.15 C 641.085 245.527 640.136 246.013 639.25 246.6 C 636.64 248.52 636.18 251.03 631.51 253.24 C 624.06 256.77 618.86 251.31 613.88 255.17 C 609.81 258.32 611.97 262.95 607.88 265.48 C 603.29 268.3 598.94 263.42 594.18 266.14 C 589.61 268.76 591.18 274.63 586.68 276.51 C 583.73 277.73 582.48 275.46 576.91 275.58 C 572.736 275.696 568.68 276.989 565.21 279.31 C 559.49 283.37 560.81 288.19 556.49 289.61 C 552.82 290.82 551.49 287.45 544.8 287.34 C 538.95 287.24 537.67 289.77 534.44 288.47 C 530.32 286.87 531.52 282.34 527.03 279.68 Z " fill="rgb(216,216,216)"/><path d=" M 830.87 159.51 C 834.08 156.67 835.58 155.2 835.58 155.2 C 838.78 151.76 839.46 149.71 841.86 149.11 C 846.47 147.97 848.48 154.36 854 153.75 C 859 153.19 859.18 147.62 865 146.24 C 870.24 145 871.78 149.14 878.29 148.57 C 884.8 148 885.14 143.7 891.01 143.37 C 898.15 142.98 900.26 149.17 906.01 148.01 C 911.63 146.88 912.18 140.51 917.01 140.51 C 921.84 140.51 923.1 146.17 927.41 145.72 C 931.72 145.27 932.41 139.16 936.81 138.95 C 940.42 138.78 941.53 142.95 945.06 142.55 C 948.83 142.14 949.57 137.18 952.84 137.21 C 955.55 137.21 955.75 140.57 959.48 141.99 C 964.18 143.77 967.02 139.66 970.6 141.35 C 974.18 143.04 972.29 147.84 976.6 152.68 C 981.08 157.68 986.15 155.84 987.72 159.68 C 989.61 164.31 982.72 168.16 984.48 174.63 C 985.48 178.45 988.32 178.79 988.48 182.45 C 988.64 186.11 985.8 186.62 984.9 191.18 C 983.74 197.07 987.9 199 986.04 203.3 C 985.04 205.71 983.46 206.5 981.18 210.83 C 980.744 211.661 980.408 212.541 980.18 213.45 C 978.58 219.85 982.33 221.85 980.94 227.88 C 979.5 234.15 975.11 233.42 972.94 239.88 C 970.15 248 975.74 253.08 972.15 257.88 C 969.23 261.77 964.15 259.97 962.61 263.6 C 961.01 267.43 966.17 270.6 964.61 275.42 C 963.5 278.92 960.4 278.26 958.27 282.47 C 955.98 286.99 958.77 289.3 956.63 293.47 C 954.26 298.04 950.14 296.58 947.76 300.88 C 945 305.88 949.42 309.88 946.52 314.48 C 944.14 318.26 940.52 316.59 937.8 320.48 C 934.55 325.17 938.18 329.78 935.01 333.36 C 932.56 336.12 929.89 333.93 925.32 336.18 C 917.72 339.94 919.83 348.64 912.84 351.89 C 907.64 354.31 904.77 350.29 899.6 353.17 C 894.43 356.05 895.88 360.81 890.88 363.47 C 885.88 366.13 882.96 362.06 876.45 364.23 C 869.33 366.61 869.25 372.68 864.18 372.98 C 858.62 373.32 857.73 366.1 849.81 363.91 C 841.89 361.72 837.58 367.78 832.5 364.82 C 827.42 361.86 830.04 354.63 824.11 348.48 C 819.29 343.48 815.46 346.36 811.11 342.8 C 800.32 334.04 814.89 310.55 803.41 295.75 C 798.03 288.82 793.8 292.65 789.04 286.67 C 773.44 267.09 816.04 222.5 806.61 187.82 C 805.72 184.55 803.53 178.28 806.61 173.37 C 810.88 166.53 822.57 166.85 830.87 159.51 Z " fill="rgb(216,216,216)"/><path d=" M 663.34 152.98 C 583.06 97.67 572.9 89.69 558.34 94.56 C 542.34 99.91 535.44 116 522.34 146.56 C 510.27 174.74 490.23 221.5 513.44 252.62 C 514.97 254.68 526.21 269.32 545.22 273.52 C 565.1 277.91 573.22 266.41 624.8 246.16 C 643.97 238.64 655.3 235.34 676.34 224.91 C 708.92 208.77 711.03 202.18 711.47 199.34 C 713.44 187.34 697.67 176.63 663.34 152.98 Z " fill="rgb(112,112,112)"/><path d=" M 864.39 158.96 C 864.39 158.96 908.24 148.34 949.93 148.71 C 954.5 148.71 963.64 149.03 969.98 155.26 C 973.013 158.392 975.094 162.321 975.98 166.59 C 980.45 185.12 975.58 221.22 959.69 263.07 C 954.9 275.67 948.69 290.8 948.69 290.8 C 948.12 292.17 942.89 304.91 941.16 308.71 C 928.84 335.76 886.03 368.14 848.03 358.91 C 845.045 358.26 842.138 357.291 839.36 356.02 C 835.3 353.971 831.574 351.317 828.31 348.15 C 816.46 336.38 807.09 295.42 788.58 261.15 C 781.43 247.93 779.58 248.15 778.19 241.49 C 772.68 215.99 793.44 186.21 817.55 171.59 C 821.13 169.47 835.6 165.93 864.39 158.96 Z " fill="rgb(160,160,160)"/><path d=" M 734.3 127.5 C 734.05 117.75 736.71 115.5 735.23 112.41 C 733.16 108.14 726.96 110.68 723.9 106.06 C 721.1 101.83 725.28 98.15 722.62 92.82 C 720.22 88 716.06 89.47 712.32 84.1 C 708.58 78.73 711.68 75.73 708.16 71.01 C 703.89 65.28 697.78 67.63 694.97 62.45 C 692.16 57.27 696.78 52.9 693.69 49.2 C 690.88 45.83 686.03 48.31 683.03 44.56 C 680.82 41.79 683.03 39.5 681.21 35.56 C 678.96 30.71 674.62 31.85 670.21 27.21 C 664.21 20.88 668.21 14.35 663.08 11.02 C 657.95 7.69 652.44 12.75 647.73 8.7 C 645.26 6.56 645.99 4.46 642.91 2.23 C 640.74 0.66 636.91 -0.77 633.91 0.47 C 629.61 2.24 631.25 7.47 626.91 11.65 C 621.48 16.93 615.03 12.4 610.42 17.16 C 605.81 21.92 610.74 27.69 606.08 33.59 C 601.79 39.01 595.77 36.48 592.62 41.83 C 589.76 46.69 593.91 50.22 591.01 55.22 C 587.83 60.73 581.49 58.71 578.74 63.97 C 576.1 69.04 581.05 72.67 578.32 77.89 C 575.75 82.79 570.44 81.38 567.24 87.15 C 565.14 90.93 566.99 92.31 564.81 95.96 C 561.93 100.79 557.61 100.22 554.24 104.05 C 550.19 108.65 554.69 112.41 551.6 119.81 C 548.68 126.81 544.12 125.88 541.85 132.48 C 540 137.87 542.85 139.08 542.1 148.09 C 541.544 153.768 540.079 159.319 537.76 164.53 C 534.22 172.98 531.7 173.59 532.08 177.53 C 532.64 183.4 538.32 184.02 539.13 190.47 C 539.77 195.53 536.44 196.47 536.86 202.16 C 537.23 207.31 540.03 207.41 542.72 214.59 C 545.85 222.9 543.36 226.12 547.04 230.59 C 549.52 233.59 551.04 232.59 556.04 235.91 C 564.27 241.42 562.98 246.08 569.53 250.24 C 571 251.18 572.72 251.99 587.67 253.91 C 598.67 255.33 597.28 256.37 605.13 255.91 C 611.28 255.53 611.13 254.23 621.31 252.41 C 632.17 250.46 632.98 251.83 637.74 249.75 C 644.74 246.67 644.03 243.23 650.66 240.11 C 658.66 236.33 661.15 240.71 670.24 237.73 C 680.24 234.45 680.71 228.02 689.82 226.55 C 697.41 225.33 698.77 229.55 703.21 228.16 C 717.66 223.63 706.08 180.36 728.21 164.33 C 732.6 161.15 736.7 160.18 739.29 155.06 C 744.37 144.85 736.96 131.81 734.3 127.5 Z " fill="rgb(216,216,216)"/><path d=" M 713.24 101.42 C 691.75 59.56 675.69 31.19 649.04 15.78 C 645.48 13.72 644.04 13.25 642.63 12.99 C 619.22 8.79 589.77 62.85 572.26 94.99 C 569.79 99.53 563.47 108.32 558.02 121.21 C 555.572 127.088 553.452 133.098 551.67 139.21 C 548.38 150 545.06 160.88 543.99 171.86 C 541.73 195.05 548.79 225.97 570.2 242.14 C 571.801 243.354 573.471 244.476 575.2 245.5 C 576.03 245.98 576.95 246.5 577.97 246.94 C 604.77 259.59 627.13 234.89 683.31 225.16 C 696.96 222.8 699.11 223.66 705.06 220.54 C 728.17 208.43 737.72 173.41 733.5 145.54 C 732.56 139.19 726.12 126.51 713.24 101.42 Z " fill="rgb(160,160,160)"/><path d=" M 726.74 135.56 C 720.65 136.38 717.56 138.1 715.92 140.56 C 712.68 145.44 717.33 149.87 714.65 156.7 C 711.97 163.53 705.49 163.42 704.91 169.14 C 704.39 174.28 709.44 175.92 708.61 180.48 C 707.53 186.37 698.61 186.48 697.61 192.4 C 697 196.33 700.69 197.92 700.61 202.04 C 700.48 208.66 688.61 209.42 687.94 214.6 C 687.4 218.6 693.44 223.03 701.13 227.3 C 728.7 242.61 741.28 236.07 757.82 249.21 C 766.6 256.21 768.51 262.36 775.15 262.32 C 783.53 262.32 792.48 252.39 791.07 245.62 C 790.3 241.93 786.88 241.24 787.07 238.31 C 787.4 232.82 799.57 232.56 800.95 226.31 C 802.07 221.22 794.67 218.61 795.34 212.75 C 796.12 205.94 806.57 205.4 807.34 198.49 C 807.92 193.06 801.75 190.75 802.94 185.49 C 803.94 180.93 809.02 180.59 809.94 176.03 C 810.11 175.22 810.66 171.69 805.73 165.86 C 792.82 150.51 752.89 132.02 726.74 135.56 Z " fill="rgb(216,216,216)"/><path d=" M 794.25 201.75 C 796.39 192.75 796.7 191.34 796.7 191.34 C 798.6 182.34 798.59 179.8 800.42 174.93 C 802.94 168.25 804.75 168.34 805.17 165.43 C 807.57 149.06 752.3 132.99 741.56 133.49 C 739.392 133.612 737.262 134.116 735.27 134.98 C 732.477 136.357 730.11 138.465 728.42 141.08 C 722.32 149.97 717.96 167.88 713.66 184.72 C 708.16 206.32 701.73 211.95 702.14 218.17 C 702.57 219.376 702.904 220.613 703.14 221.87 C 703.72 225.77 702.55 227.87 702.62 229.3 C 702.88 234.74 722.55 236.67 736.82 241.38 C 760.14 249.08 762.32 261.96 771.34 259.24 C 781.21 256.26 785.56 238.09 794.25 201.75 Z " fill="rgb(160,160,160)"/><path d=" M 633.7 123.63 C 635.82 117.63 639.2 117.35 639.01 113.94 C 638.77 109.75 633.42 106 628.69 105.08 C 621.89 103.77 615.98 108.22 614.37 109.43 L 613.85 109.83 C 613.58 109.577 613.293 109.343 612.99 109.13 C 611.875 108.395 610.591 107.954 609.26 107.85 C 609.05 106.525 608.715 105.223 608.26 103.96 C 608.06 103.37 603.57 90.18 594.07 89.33 C 591.27 89.08 587.14 89.82 585.01 92.61 C 582.74 95.61 584.94 98.07 582.85 102.61 C 580.76 107.15 577.55 106.75 576.11 110.61 C 574.67 114.47 576.11 120.08 579.45 122.97 C 582.92 126.03 588.12 125.97 592.93 124.61 C 588.28 130.41 584.2 137.12 585.29 138.29 C 586.07 139.13 589.19 136.76 591.69 138.35 C 593.91 139.76 593.41 142.87 594.3 143.06 C 596.35 143.5 603.15 127.94 604.3 120.06 C 604.944 120.684 605.71 121.167 606.55 121.48 C 606.932 121.618 607.327 121.715 607.73 121.77 C 603.02 128.59 597.37 142.85 599.04 143.95 C 599.8 144.45 601.67 141.95 604.23 142.51 C 607.12 143.18 607.61 147.07 608.76 147.04 C 610.64 146.98 612.99 136.43 613.53 128.1 C 616.69 134.57 621.31 140.15 625.45 139.61 C 628.45 139.21 630.57 135.61 631.16 134.54 C 633.4 130.54 631.93 128.61 633.7 123.63 Z " fill="rgb(216,216,216)"/><path d=" M 935.78 260.54 C 937.67 255.94 940.97 255.87 941.61 252.17 C 942.21 248.71 939.93 245.17 937.85 243.3 C 930.75 236.92 918.04 242.62 917.47 242.87 C 916.242 243.402 915.067 244.048 913.96 244.8 C 912.974 243.9 911.777 243.264 910.48 242.95 C 910.118 242.87 909.75 242.816 909.38 242.79 C 909.38 242.58 909.38 242.37 909.32 242.14 C 909.11 240.14 908.32 232.78 902.75 228.7 C 898.86 225.85 892.47 224.49 889.23 227.17 C 886.61 229.35 888.7 232.02 885.76 237.66 C 883.32 242.34 880.9 242.58 879.53 246.94 C 879.18 248.08 877.93 252.07 879.71 254.57 C 882.13 257.97 889.36 257.57 896.25 255.46 C 890.52 261.53 884.39 270.46 885.64 271.85 C 886.4 272.72 889.58 270.43 892.04 272.09 C 894.21 273.56 893.63 276.65 894.52 276.87 C 896.46 277.34 903.05 263.49 904.84 255.4 C 905.149 255.657 905.484 255.882 905.84 256.07 C 906.642 256.474 907.522 256.703 908.42 256.74 C 903.42 262.91 896.66 278.48 898.42 279.68 C 899.16 280.21 901.1 277.68 903.64 278.39 C 906.52 279.13 906.9 283.03 908.05 283.03 C 909.65 283.03 911.78 275.48 912.86 268.12 C 915.14 272.57 918.64 276.41 923.24 276.88 C 927.6 277.32 932.68 274.7 934.57 270.88 C 936.36 267.25 933.88 265.18 935.78 260.54 Z " fill="rgb(216,216,216)"/><path d=" M 646.2 62.21 C 649.37 60.81 663.8 85.81 671 98.27 C 675.67 106.36 676.67 108.45 680.3 114.15 C 689.41 128.46 695.66 135.01 694.88 135.77 C 694.1 136.53 686.4 130.54 664.43 110.51 C 649.84 97.2 637.93 85.92 629.57 77.87 C 635.44 79.87 641.69 81 644.8 77.96 C 649.34 73.52 644.19 63.1 646.2 62.21 Z " fill="rgb(112,112,112)"/><path d=" M 688.03 176.64 C 687.81 177.55 683.47 178.24 679.03 179.06 C 629.22 188.13 583.78 208.71 583.84 203.64 C 583.84 200.24 604.38 191.38 605.25 183.75 C 606.16 175.75 584.83 176.24 585.16 175 C 585.8 172.27 689.03 172.1 688.03 176.64 Z " fill="rgb(112,112,112)"/><path d=" M 812.15 240.88 C 811.75 241.38 814.36 244.24 816.98 247.22 C 846.2 280.44 865.57 315.76 868.53 313.66 C 870.53 312.25 861.53 296.49 865.45 292.86 C 869.54 289.07 884.09 301.86 884.59 301.2 C 885.71 299.66 814.09 238.4 812.15 240.88 Z " fill="rgb(112,112,112)"/><path d=" M 919.64 185.69 C 918.07 181.13 894.02 185.49 878.13 188.33 C 833.13 196.38 823.03 197.76 823.13 199.33 C 823.38 201.93 852.65 200.47 883.38 203.76 C 894.52 204.95 900.1 205.55 905.03 206.64 C 914.03 208.64 921.4 211.33 922.21 209.77 C 923.13 207.98 913.7 204.05 913.48 197.24 C 913.34 191.18 920.53 188.27 919.64 185.69 Z " fill="rgb(112,112,112)"/><path d=" M 53.03 290.34 C 53.813 293.248 55.174 295.969 57.03 298.34 C 62.39 305.94 69.03 308.72 68.53 309.84 C 68.18 310.57 65.15 309.64 61.53 308.84 C 56.33 307.69 52.06 307.4 43.53 306.84 C 31.79 306.07 25.92 305.68 24.03 308.34 C 21.94 311.29 23.7 316.21 27.03 325.34 C 29.75 332.8 30.66 332.24 31.03 335.34 C 32.13 344.5 23.94 347.25 24.03 356.34 C 24.11 364.82 31.28 366.98 30.03 373.34 C 28.51 381.03 15.82 381.77 16.03 386.34 C 16.24 391.07 29.52 391.07 35.53 401.84 C 36.07 402.84 38.64 407.61 37.03 409.34 C 34.21 412.34 22.09 401.34 17.03 405.34 C 13.33 408.29 15.36 414.73 16.03 426.34 C 17.29 448.27 11.64 453.26 14.03 461.34 C 19.03 478.08 49.15 474.62 79.03 486.34 C 142.49 511.23 146.81 568.26 194.03 569.34 C 206.59 569.63 226.93 565.5 232.03 553.34 C 233.75 549.24 237.03 536.34 232.03 525.34 C 230.94 522.93 229.66 521.08 230.03 518.34 C 230.9 511.93 239.29 511.77 244.03 505.34 C 246.21 502.34 246.64 499.4 244.03 472.34 C 242.53 456.83 241.88 452.53 245.03 448.34 C 249.65 442.2 257.03 443.56 258.03 439.34 C 259.86 431.91 238.27 422.9 240.03 417.34 C 241.33 413.24 253.03 418.04 262.03 411.34 C 272.21 403.75 265.87 391.08 277.03 380.34 C 284.51 373.15 289.59 376.69 295.03 369.34 C 301.89 360.07 296.4 350.95 303.03 345.34 C 308.31 340.87 313.2 345.48 322.03 342.34 C 334.79 337.8 344.96 320.89 342.03 308.34 C 339.32 296.74 326.27 292.54 328.03 288.34 C 329.24 285.46 335.74 286.61 354.03 285.34 C 370.78 284.17 373.84 282.61 376.03 280.34 C 380.86 275.34 381.37 267.01 380.03 261.34 C 378.36 254.27 373.48 249.81 374.03 249.34 C 374.83 248.66 383.03 259.6 396.03 263.34 C 399.88 264.45 402.2 264.34 404.03 263.34 C 408.54 260.82 407.42 254.08 410.03 253.34 C 413.14 252.46 417.03 261.34 424.03 270.34 C 433.17 282.09 438.39 281.08 447.03 291.34 C 451.81 297.02 452.73 300.34 460.03 317.34 C 476.27 355.2 478.19 353.93 482.03 368.34 C 490.03 398.19 488.03 402.34 488.03 402.34 C 488.03 406.61 490.6 413.45 493.53 418.84 C 504.11 438.32 495.87 451.93 505.53 457.84 C 510.63 460.96 518.21 460.4 521.53 456.84 C 525.7 452.38 522.79 443.63 519.53 433.84 C 516.461 424.373 512.614 415.175 508.03 406.34 C 506.58 403.7 504.03 399.34 505.03 394.34 C 505.76 390.54 507.8 389.87 508.53 386.84 C 510.17 380.09 501.76 376.39 499.03 368.34 C 495.15 356.91 508.22 351.65 508.03 334.34 C 508.03 330 505.03 322.12 499.03 306.34 C 492.52 289.13 488.81 283.61 485.03 279.34 C 480.12 273.8 479.03 274.78 476.03 270.34 C 469.48 260.62 473.95 254.68 469.03 243.34 C 468.21 241.46 462.12 227.53 451.03 225.34 C 442.67 223.69 435.7 229.55 433.53 226.84 C 431.72 224.58 436.66 220.63 436.03 214.34 C 435.36 207.66 428.76 201.34 422.03 199.34 C 412.85 196.55 409.03 203.06 399.03 200.34 C 393.03 198.71 393.83 196.21 384.03 191.34 C 379.42 189.05 372.92 185.82 365.03 185.34 C 352.92 184.61 350.82 191.17 344.03 189.34 C 333.4 186.47 336.93 169.92 321.03 156.34 C 318.97 154.58 308.66 147.03 298.03 148.34 C 296.3 148.55 293.39 149.15 287.53 149.84 C 283.884 150.372 280.212 150.706 276.53 150.84 C 268.26 150.84 268.03 147.95 255.03 145.34 C 249.03 144.13 246.63 143.89 240.03 142.34 C 226.8 139.22 226.11 133.34 216.03 131.34 C 212.03 130.53 193.22 126.75 182.03 138.34 C 176.41 144.16 173.62 153.42 174.03 161.34 C 174.24 165.39 176.57 168.18 175.03 171.34 C 173.12 175.28 167.65 176.34 164.53 176.84 C 151.41 179.12 146.96 172.16 136.03 174.34 C 133.4 174.86 125.8 176.34 122.03 182.34 C 117.77 189.09 122.2 195.56 117.53 208.84 C 116.731 211.441 115.365 213.832 113.53 215.84 C 110.428 218.92 106.374 220.859 102.03 221.34 C 96.67 222.03 95.31 220.62 88.03 219.34 C 84.83 218.78 77.94 217.56 74.03 220.34 C 66.98 225.34 76.77 238.28 70.03 253.34 C 66.03 262.34 60.39 262.42 55.03 275.34 C 53.03 280.15 51.77 285.06 53.03 290.34 Z " fill="rgb(160,160,160)"/><path d=" M 89.03 437.34 C 96.79 403.68 103.03 378.47 103.45 377.34 C 128.55 313.17 141.1 281.09 171.03 252.34 C 213.68 211.43 261.76 200.34 280.03 196.34 C 306.32 190.64 339.5 188.48 341.03 194.34 C 342.13 198.57 325.93 203.84 305.03 217.34 C 273.44 237.74 255.1 261.44 242.03 278.34 C 230.75 292.92 210.92 319 198.03 357.34 C 196.4 362.18 177.19 419.85 163.03 471.34 C 162.067 474.981 160.365 478.385 158.03 481.34 C 144.17 498.74 106.49 500.5 92.03 484.34 C 81.75 472.85 85.09 454.43 89.03 437.34 Z " fill="rgb(216,216,216)"/><path d=" M 23.03 386.34 C 25.95 380.65 91.87 402.12 90.03 413.34 C 88.89 420.29 61.77 423.45 40.03 418.34 C 28.25 415.57 18.68 410.52 19.03 409.34 C 19.55 407.6 41.7 414.95 44.03 410.34 C 46.67 405.12 21.11 390.08 23.03 386.34 Z " fill="rgb(112,112,112)"/><path d=" M 64.03 526.34 C 62.24 524.46 57.32 527.85 49.03 530.34 C 36.03 534.23 15.56 535.75 6.03 526.34 C 0.53 520.9 0.33 513.44 0.03 502.34 C -0.76 472.91 14.48 444.34 11.03 433.34 C 10.602 432.386 10.602 431.295 11.03 430.34 C 13.31 426.71 24.79 433.91 31.03 429.34 C 34.03 427.13 32.3 424.77 36.03 416.34 C 38.546 410.842 41.922 405.778 46.03 401.34 C 51.11 395.53 53.66 392.63 56.03 392.34 C 63.14 391.48 69.38 405.17 84.03 431.34 C 101.51 462.58 107.14 469.04 115.03 470.34 C 117.64 470.77 117.95 470.22 136.03 463.34 C 188.7 443.34 170.46 453.94 185.03 447.34 C 189.03 445.53 192.34 443.85 195.03 445.34 C 199.66 447.91 199.03 458.03 198.03 474.34 C 197.62 480.95 196.82 488.56 199.03 498.34 C 199.69 501.25 200.03 502.74 201.03 504.34 C 206.41 513 218.38 508.88 224.03 514.34 C 230.1 520.2 224.71 533.11 214.03 564.34 C 201.34 601.45 198.79 612.91 192.03 613.34 C 187.33 613.64 184.68 608.34 175.03 596.34 C 164.52 583.28 144.3 560.52 141.03 562.34 C 133.03 566.79 213.19 725.26 204.03 730.34 C 201.31 731.85 192.77 718.09 169.03 705.34 C 157.3 699.04 149.62 695.04 142.03 697.34 C 124.52 702.63 124.14 736.34 119.03 736.34 C 107.35 736.34 99.82 560.42 92.03 560.34 C 84.24 560.26 74.43 737.59 66.03 737.34 C 62.79 737.24 54.03 710.51 51.03 692.34 C 50.47 689 48.83 678.28 44.03 677.34 C 43.03 677.14 42.17 677.46 40.03 678.34 C 29.03 682.87 28.72 683.52 28.03 683.34 C 20.68 681.47 18.36 599.34 53.03 549.34 C 56.21 544.75 67.19 529.65 64.03 526.34 Z " fill="rgb(160,160,160)"/><path d=" M 123.03 468.34 C 120.45 454.8 104.6 386.48 106.03 376.34 C 106.193 375.292 106.531 374.278 107.03 373.34 C 107.919 371.077 109.283 369.031 111.03 367.34 C 112.356 365.859 114.099 364.813 116.03 364.34 C 117.023 364.171 118.037 364.171 119.03 364.34 C 123.35 365.17 124.7 387.34 126.03 398.34 C 128.18 416.11 136.35 454.68 140.03 466.34 C 140.743 468.277 140.743 470.404 140.03 472.34 C 138.25 476.49 131.96 479.11 128.03 477.34 C 124.36 475.69 123.44 470.5 123.03 468.34 Z " fill="rgb(160,160,160)"/><path d=" M 206.03 330.34 C 206.35 329.78 208.58 325.63 213.03 317.34 C 219.1 306.03 219.26 305.67 219.03 305.34 C 214.58 298.87 103.93 369.87 107.03 375.34 C 107.63 376.39 112.37 374.88 116.03 378.34 C 118.26 380.45 117.88 382.34 119.03 383.34 C 123.48 387.26 140.79 369.34 164.03 356.34 C 182.82 345.81 199.43 341.86 206.03 330.34 Z " fill="rgb(160,160,160)"/><path d=" M 138.03 306.34 C 139.95 309.94 156.67 304.04 180.03 296.34 C 180.03 296.34 238.03 277.22 251.03 263.34 C 251.26 263.1 253.84 260.34 257.03 256.34 C 261.92 250.23 264.37 247.18 264.03 246.34 C 262.4 242.34 235.34 253.77 191.03 264.34 C 191.03 264.34 157.98 272.22 149.03 285.34 C 148.26 286.47 145.68 290.61 143.03 295.34 C 139.32 301.96 137.47 305.34 138.03 306.34 Z " fill="rgb(160,160,160)"/><path d=" M 195.03 236.34 C 208.91 226.22 221.96 222.51 256.03 215.34 C 300.8 205.92 305.39 206.63 306.03 208.34 C 307.1 211.2 297.34 217.28 294.03 219.34 C 273.03 232.43 257.03 231.71 232.03 237.34 C 199.62 244.63 181.95 255.81 180.03 252.34 C 178.51 249.59 188.69 240.96 195.03 236.34 Z " fill="rgb(160,160,160)"/><path d=" M 179.78 393.41 C 178.41 392.55 176.22 393.76 175.38 394.22 C 175.38 394.22 89.7 441.36 90.38 461.22 C 90.38 461.46 90.44 462.52 90.51 464.38 C 91.02 478.51 90.37 479.48 91.14 480.18 C 94.89 483.6 113.74 463.45 143.74 442.3 C 157.32 432.73 174.29 422.17 179.02 406.7 C 179.8 404.25 182.58 395.17 179.78 393.41 Z " fill="rgb(160,160,160)"/><path d=" M 136.03 309.34 C 133.03 323.2 138.03 334.4 143.03 346.34 C 161.53 390.8 168.31 419.49 173.03 418.34 C 174.46 417.99 174.03 415.34 179.03 401.34 C 180.63 396.84 181.67 394.34 182.03 393.34 C 187.03 379.65 173.75 355.34 166.03 334.34 C 155.15 304.78 157.61 288.09 151.03 287.34 C 145.31 286.69 138.33 298.72 136.03 309.34 Z " fill="rgb(160,160,160)"/><path d=" M 183.03 245.34 C 176.39 253.72 182.52 266.21 188.03 292.34 C 194.68 323.87 194.1 345.25 198.03 345.34 C 199.2 345.34 199.95 343.49 203.03 336.34 C 213.09 312.97 212.87 314.96 214.03 311.34 C 217.86 299.41 213.75 298.2 210.03 254.34 C 209.19 244.42 208.36 232.17 204.03 231.34 C 202.936 231.258 201.855 231.618 201.03 232.34 C 190.03 239.78 184.49 243.49 183.03 245.34 Z " fill="rgb(160,160,160)"/><path d=" M 267.03 201.34 C 265.96 200.61 264.9 201.12 256.03 204.34 C 241.42 209.65 241.3 209.34 240.03 210.34 C 235.34 213.99 235.26 219.88 234.03 239.34 C 233.03 255.67 231.69 276.4 236.03 277.34 C 237.78 277.72 238.61 274.28 246.03 266.34 C 252.4 259.52 254.4 259.26 257.03 255.34 C 260.89 249.6 259.97 245.16 261.03 235.34 C 263.29 214.28 270.79 203.93 267.03 201.34 Z " fill="rgb(160,160,160)"/><path d=" M 284.03 229.34 C 281.77 228.34 286.85 219.68 286.03 205.34 C 285.83 201.87 285.36 199.4 287.03 197.34 C 288.85 195.09 291.45 195.5 300.03 194.34 C 308.61 193.18 311.25 192.07 312.03 193.34 C 313.03 194.97 309.03 197.34 306.03 204.34 C 303.3 210.73 304.95 212.7 302.03 216.34 C 299.84 219.07 298.57 218.4 293.03 222.34 C 286.64 226.89 285.33 229.92 284.03 229.34 Z " fill="rgb(160,160,160)"/><path d=" M 98.77 484.41 C 96.07 484.91 96.36 486.9 92.03 489.34 C 87.03 492.15 84.62 490.66 82.65 492.9 C 80.47 495.37 82.48 498.26 83.03 506.34 C 83.75 516.97 80.88 521 83.8 523.67 C 86.33 525.98 88.92 523.36 94.03 525.34 C 101.22 528.13 101.74 535.52 105.68 535.34 C 109.62 535.16 109.21 528.27 116.03 524.34 C 121.15 521.34 124.69 523.34 126.41 520.48 C 127.72 518.31 125.67 517.13 124.03 507.34 C 123.365 503.947 122.871 500.523 122.55 497.08 C 122.48 494.99 122.55 494.27 122.03 493.34 C 120.39 490.61 116.53 491.99 111.03 490.34 C 103.91 488.21 102.88 483.65 98.77 484.41 Z " fill="rgb(216,216,216)"/><path d=" M 279.03 199.34 C 279.03 200.6 287.48 200.4 307.03 202.34 C 315.03 203.13 320.82 203.89 328.03 201.34 C 331.35 200.17 336.34 197.81 336.03 196.34 C 335.72 194.87 330.66 195.4 316.03 195.34 C 304.92 195.29 296.54 194.96 285.03 197.34 C 279.35 198.52 279.03 199.09 279.03 199.34 Z " fill="rgb(160,160,160)"/><path d=" M 328.03 306.34 C 324.47 309.25 301.68 295.2 303.03 280.34 C 303.46 275.58 306.35 271.83 309.03 268.34 C 311.5 265.13 316.94 258.05 325.03 256.34 C 339.16 253.34 354.83 268.27 353.03 273.34 C 351.03 278.87 329.03 270.93 323.03 280.34 C 317.54 289.01 331.2 303.75 328.03 306.34 Z " fill="rgb(112,112,112)"/><path d=" M 290.03 359.34 C 295.76 356.84 290.59 344.19 298.03 338.34 C 305.82 332.21 317.56 341.34 322.03 336.34 C 326.93 330.9 320.59 311.29 308.03 307.34 C 300.29 304.91 293.32 309.41 281.03 317.34 C 269.94 324.5 268.45 329.34 268.03 331.34 C 266.94 336.39 268.84 340.67 270.03 343.34 C 274.23 352.77 284.58 361.72 290.03 359.34 Z " fill="rgb(112,112,112)"/><path d=" M 262.03 390.34 C 257.69 394.88 248.27 395.27 242.03 391.34 C 233.55 386 232.15 373.45 236.03 365.34 C 242.1 352.66 260.32 352.46 269.03 355.34 C 272.081 356.294 274.836 358.016 277.03 360.34 C 277.51 360.87 282.94 367.02 281.03 371.34 C 279.12 375.66 271.97 372.95 267.03 378.34 C 263.09 382.64 265.66 386.55 262.03 390.34 Z " fill="rgb(112,112,112)"/><path d=" M 244.03 410.34 C 243.03 415.79 236.71 416.05 236.03 420.34 C 235.03 426.34 247.08 430.13 246.03 435.34 C 245.03 440.19 234.9 442.19 229.03 442.34 C 225.23 442.44 215.91 442.67 211.03 436.34 C 204.37 427.7 211.56 414.13 213.03 411.34 C 216.59 404.62 224.9 393.64 233.03 395.34 C 237.38 396.25 240.46 400.54 241.03 401.34 C 242.18 402.95 244.71 406.48 244.03 410.34 Z " fill="rgb(112,112,112)"/><path d=" M 375.03 264.34 C 371.18 266.62 360.2 260.81 358.03 251.34 C 356.3 243.78 360.63 235.93 367.03 232.34 C 375.51 227.59 385.08 231.74 390.03 236.34 C 395.86 241.76 398.66 250.93 396.03 253.34 C 392.9 256.21 383.91 247.83 379.03 251.34 C 374.91 254.34 378.53 262.27 375.03 264.34 Z " fill="rgb(112,112,112)"/><path d=" M 64.03 290.34 C 67.42 286.13 116.37 313.43 113.03 322.34 C 109.32 332.24 42.76 315.27 43.03 313.34 C 43.2 312.16 68.21 317.47 72.03 309.34 C 75.09 302.82 62.18 292.64 64.03 290.34 Z " fill="rgb(112,112,112)"/><path d=" M 124.03 205.34 C 132.8 200.86 165.75 236.29 160.03 244.34 C 153.67 253.28 101.03 226.49 102.03 223.34 C 102.42 222.15 110.03 225.54 116.03 221.34 C 122.73 216.61 120.08 207.34 124.03 205.34 Z " fill="rgb(112,112,112)"/><path d=" M 162.03 184.34 C 160.74 189.67 212.03 213.2 218.03 204.34 C 223.45 196.34 191.09 162.73 182.03 167.34 C 178.86 168.95 179.87 174.56 174.03 179.34 C 168.19 184.12 162.45 182.59 162.03 184.34 Z " fill="rgb(112,112,112)"/><path d=" M 242.03 149.34 C 240.03 153.19 298.93 195.52 308.03 186.34 C 312.96 181.34 304.8 159.81 291.03 154.34 C 283.24 151.24 278.46 155.21 262.03 153.34 C 248.63 151.82 242.65 148.14 242.03 149.34 Z " fill="rgb(112,112,112)"/><path d=" M 452.64 285.23 C 455.72 283.92 455.59 263.29 444.36 258.32 C 436.99 255.05 426.86 259.42 426.63 262.66 C 426.48 264.95 431.41 265.08 438.19 271.84 C 440.94 274.58 441.91 276.33 446.19 280.38 C 449.91 283.86 451.76 285.6 452.64 285.23 Z " fill="rgb(112,112,112)"/><path d=" M 479.7 325.96 C 483.91 325.05 488.8 304.5 478.47 295.72 C 471.8 290.06 460.47 290.72 458.89 294.07 C 457.43 297.16 464.95 300.8 469.23 312.57 C 470.013 314.878 471.081 317.078 472.41 319.12 C 473.53 320.82 477.27 326.49 479.7 325.96 Z " fill="rgb(112,112,112)"/><path d=" M 484.94 334.83 C 480.55 337.89 486.31 357.83 491.47 358.01 C 494.77 358.13 500.2 350.32 497.57 342.92 C 495.24 336.34 487.58 332.99 484.94 334.83 Z " fill="rgb(112,112,112)"/><path d=" M 29.03 434.34 C 39.61 435.79 46.53 444.34 53.03 453.34 C 65.45 470.48 81.83 493.09 78.03 496.34 C 72.94 500.69 38.29 464.69 36.03 462.34 C 17.16 442.73 18.03 437.97 19.03 436.34 C 20.91 433.23 27.62 434.15 29.03 434.34 Z " fill="rgb(112,112,112)"/><path d=" M 137.03 513.34 C 138.23 520.89 204.87 520.04 206.03 512.34 C 206.59 508.62 191.92 503.02 181.03 501.34 C 158.41 497.85 136.31 508.83 137.03 513.34 Z " fill="rgb(112,112,112)"/><path d=" M 123.03 479.34 C 122.12 474.81 193.33 453.91 195.03 458.34 C 195.98 460.8 175.96 472.51 154.03 477.34 C 141.17 480.17 123.47 481.55 123.03 479.34 Z " fill="rgb(112,112,112)"/><path d=" M 50.03 425.34 C 46.77 429.45 96.92 478.79 101.03 475.34 C 103.39 473.34 92.17 452.6 74.03 438.34 C 65.42 431.57 51.59 423.34 50.03 425.34 Z " fill="rgb(112,112,112)"/><path d=" M 407.03 248.34 C 405.09 246.34 412.58 231.59 419.03 232.34 C 426.51 233.22 429.03 254.56 427.03 255.34 C 425.77 255.84 423.49 247.63 417.03 246.34 C 411.88 245.34 408.19 249.51 407.03 248.34 Z " fill="rgb(112,112,112)"/><path d=" M 486.03 366.34 C 482.73 370.24 490.84 385.06 495.03 384.34 C 498.21 383.79 502.23 373.76 497.03 368.34 C 493.86 365.04 487.91 364.12 486.03 366.34 Z " fill="rgb(112,112,112)"/></g></svg>