<?xml version="1.0" encoding="utf-8"?>
<!-- Generator: Adobe Illustrator 25.0.0, SVG Export Plug-In . SVG Version: 6.00 Build 0)  -->
<svg version="1.1" id="Calque_1" xmlns="http://www.w3.org/2000/svg" xmlns:xlink="http://www.w3.org/1999/xlink" x="0px" y="0px"
	 viewBox="0 0 523.6 607.23" style="enable-background:new 0 0 523.6 607.23;" xml:space="preserve">
<style type="text/css">
	.st0{fill:#A0A0A0;}
	.st1{fill:#D8D8D8;}
	.st2{fill:#707070;}
</style>
<path class="st0" d="M53.03,160.23c0.78,2.91,2.14,5.63,4,8c5.36,7.6,12,10.38,11.5,11.5c-0.35,0.73-3.38-0.2-7-1
	c-5.2-1.15-9.47-1.44-18-2c-11.74-0.77-17.61-1.16-19.5,1.5c-2.09,2.95-0.33,7.87,3,17c2.72,7.46,3.63,6.9,4,10
	c1.1,9.16-7.09,11.91-7,21c0.08,8.48,7.25,10.64,6,17c-1.52,7.69-14.21,8.43-14,13c0.21,4.73,13.49,4.73,19.5,15.5
	c0.54,1,3.11,5.77,1.5,7.5c-2.82,3-14.94-8-20-4c-3.7,2.95-1.67,9.39-1,21c1.26,21.93-4.39,26.92-2,35c5,16.74,35.12,13.28,65,25
	c63.46,24.89,67.78,81.92,115,83c12.56,0.29,32.9-3.84,38-16c1.72-4.1,5-17,0-28c-1.09-2.41-2.37-4.26-2-7
	c0.87-6.41,9.26-6.57,14-13c2.18-3,2.61-5.94,0-33c-1.5-15.51-2.15-19.81,1-24c4.62-6.14,12-4.78,13-9c1.83-7.43-19.76-16.44-18-22
	c1.3-4.1,13,0.7,22-6c10.18-7.59,3.84-20.26,15-31c7.48-7.19,12.56-3.65,18-11c6.86-9.27,1.37-18.39,8-24c5.28-4.47,10.17,0.14,19-3
	c12.76-4.54,22.93-21.45,20-34c-2.71-11.6-15.76-15.8-14-20c1.21-2.88,7.71-1.73,26-3c16.75-1.17,19.81-2.73,22-5
	c4.83-5,5.34-13.33,4-19c-1.67-7.07-6.55-11.53-6-12c0.8-0.68,9,10.26,22,14c3.85,1.11,6.17,1,8,0c4.51-2.52,3.39-9.26,6-10
	c3.11-0.88,7,8,14,17c9.14,11.75,14.36,10.74,23,21c4.78,5.68,5.7,9,13,26c16.24,37.86,18.16,36.59,22,51c8,29.85,6,34,6,34
	c0,4.27,2.57,11.11,5.5,16.5c10.58,19.48,2.34,33.09,12,39c5.1,3.12,12.68,2.56,16-1c4.17-4.46,1.26-13.21-2-23
	c-3.07-9.47-6.92-18.67-11.5-27.5c-1.45-2.64-4-7-3-12c0.73-3.8,2.77-4.47,3.5-7.5c1.64-6.75-6.77-10.45-9.5-18.5
	c-3.88-11.43,9.19-16.69,9-34c0-4.34-3-12.22-9-28c-6.51-17.21-10.22-22.73-14-27c-4.91-5.54-6-4.56-9-9c-6.55-9.72-2.08-15.66-7-27
	c-0.82-1.88-6.91-15.81-18-18c-8.36-1.65-15.33,4.21-17.5,1.5c-1.81-2.26,3.13-6.21,2.5-12.5c-0.67-6.68-7.27-13-14-15
	c-9.18-2.79-13,3.72-23,1c-6-1.63-5.2-4.13-15-9c-4.61-2.29-11.11-5.52-19-6c-12.11-0.73-14.21,5.83-21,4
	c-10.63-2.87-7.1-19.42-23-33c-2.06-1.76-12.37-9.31-23-8c-1.73,0.21-4.64,0.81-10.5,1.5c-3.65,0.53-7.32,0.87-11,1
	c-8.27,0-8.5-2.89-21.5-5.5c-6-1.21-8.4-1.45-15-3c-13.23-3.12-13.92-9-24-11c-4-0.81-22.81-4.59-34,7c-5.62,5.82-8.41,15.08-8,23
	c0.21,4.05,2.54,6.84,1,10c-1.91,3.94-7.38,5-10.5,5.5c-13.12,2.28-17.57-4.68-28.5-2.5c-2.63,0.52-10.23,2-14,8
	c-4.26,6.75,0.17,13.22-4.5,26.5c-0.8,2.6-2.16,4.99-4,7c-3.1,3.08-7.16,5.02-11.5,5.5c-5.36,0.69-6.72-0.72-14-2
	c-3.2-0.56-10.09-1.78-14,1c-7.05,5,2.74,17.94-4,33c-4,9-9.64,9.08-15,22C53.03,150.04,51.77,154.95,53.03,160.23z"/>
<path class="st1" d="M89.03,307.23c7.76-33.66,14-58.87,14.42-60c25.1-64.17,37.65-96.25,67.58-125c42.65-40.91,90.73-52,109-56
	c26.29-5.7,59.47-7.86,61-2c1.1,4.23-15.1,9.5-36,23c-31.59,20.4-49.93,44.1-63,61c-11.28,14.58-31.11,40.66-44,79
	c-1.63,4.84-20.84,62.51-35,114c-0.96,3.64-2.66,7.04-5,10c-13.86,17.4-51.54,19.16-66,3C81.75,342.74,85.09,324.32,89.03,307.23z"
	/>
<path class="st2" d="M23.03,256.23c2.92-5.69,68.84,15.78,67,27c-1.14,6.95-28.26,10.11-50,5c-11.78-2.77-21.35-7.82-21-9
	c0.52-1.74,22.67,5.61,25,1C46.67,275.01,21.11,259.97,23.03,256.23z"/>
<path class="st0" d="M64.03,396.23c-1.79-1.88-6.71,1.51-15,4c-13,3.89-33.47,5.41-43-4c-5.5-5.44-5.7-12.9-6-24
	c-0.79-29.43,14.45-58,11-69c-0.43-0.95-0.43-2.05,0-3c2.28-3.63,13.76,3.57,20-1c3-2.21,1.27-4.57,5-13c2.52-5.5,5.89-10.56,10-15
	c5.08-5.81,7.63-8.71,10-9c7.11-0.86,13.35,12.83,28,39c17.48,31.24,23.11,37.7,31,39c2.61,0.43,2.92-0.12,21-7
	c52.67-20,34.43-9.4,49-16c4-1.81,7.31-3.49,10-2c4.63,2.57,4,12.69,3,29c-0.41,6.61-1.21,14.22,1,24c0.66,2.91,1,4.4,2,6
	c5.38,8.66,17.35,4.54,23,10c6.07,5.86,0.68,18.77-10,50c-12.69,37.11-15.24,48.57-22,49c-4.7,0.3-7.35-5-17-17
	c-10.51-13.06-30.73-35.82-34-34c-8,4.45,72.16,162.92,63,168c-2.72,1.51-11.26-12.25-35-25c-11.73-6.3-19.41-10.3-27-8
	c-17.51,5.29-17.89,39-23,39c-11.68,0-19.21-175.92-27-176s-17.6,177.25-26,177c-3.24-0.1-12-26.83-15-45c-0.56-3.34-2.2-14.06-7-15
	c-1-0.2-1.86,0.12-4,1c-11,4.53-11.31,5.18-12,5c-7.35-1.87-9.67-84,25-134C56.21,414.64,67.19,399.54,64.03,396.23z"/>
<path class="st0" d="M123.03,338.23c-2.58-13.54-18.43-81.86-17-92c0.16-1.05,0.5-2.06,1-3c0.89-2.26,2.25-4.31,4-6
	c1.33-1.48,3.07-2.53,5-3c0.99-0.17,2.01-0.17,3,0c4.32,0.83,5.67,23,7,34c2.15,17.77,10.32,56.34,14,68c0.71,1.94,0.71,4.06,0,6
	c-1.78,4.15-8.07,6.77-12,5C124.36,345.58,123.44,340.39,123.03,338.23z"/>
<path class="st0" d="M206.03,200.23c0.32-0.56,2.55-4.71,7-13c6.07-11.31,6.23-11.67,6-12c-4.45-6.47-115.1,64.53-112,70
	c0.6,1.05,5.34-0.46,9,3c2.23,2.11,1.85,4,3,5c4.45,3.92,21.76-14,45-27C182.82,215.7,199.43,211.75,206.03,200.23z"/>
<path class="st0" d="M138.03,176.23c1.92,3.6,18.64-2.3,42-10c0,0,58-19.12,71-33c0.23-0.24,2.81-3,6-7c4.89-6.11,7.34-9.16,7-10
	c-1.63-4-28.69,7.43-73,18c0,0-33.05,7.88-42,21c-0.77,1.13-3.35,5.27-6,10C139.32,171.85,137.47,175.23,138.03,176.23z"/>
<path class="st0" d="M195.03,106.23c13.88-10.12,26.93-13.83,61-21c44.77-9.42,49.36-8.71,50-7c1.07,2.86-8.69,8.94-12,11
	c-21,13.09-37,12.37-62,18c-32.41,7.29-50.08,18.47-52,15C178.51,119.48,188.69,110.85,195.03,106.23z"/>
<path class="st0" d="M179.78,263.3c-1.37-0.86-3.56,0.35-4.4,0.81c0,0-85.68,47.14-85,67c0,0.24,0.06,1.3,0.13,3.16
	c0.51,14.13-0.14,15.1,0.63,15.8c3.75,3.42,22.6-16.73,52.6-37.88c13.58-9.57,30.55-20.13,35.28-35.6
	C179.8,274.14,182.58,265.06,179.78,263.3z"/>
<path class="st0" d="M136.03,179.23c-3,13.86,2,25.06,7,37c18.5,44.46,25.28,73.15,30,72c1.43-0.35,1-3,6-17c1.6-4.5,2.64-7,3-8
	c5-13.69-8.28-38-16-59c-10.88-29.56-8.42-46.25-15-47C145.31,156.58,138.33,168.61,136.03,179.23z"/>
<path class="st0" d="M183.03,115.23c-6.64,8.38-0.51,20.87,5,47c6.65,31.53,6.07,52.91,10,53c1.17,0,1.92-1.85,5-9
	c10.06-23.37,9.84-21.38,11-25c3.83-11.93-0.28-13.14-4-57c-0.84-9.92-1.67-22.17-6-23c-1.09-0.08-2.17,0.28-3,1
	C190.03,109.67,184.49,113.38,183.03,115.23z"/>
<path class="st0" d="M267.03,71.23c-1.07-0.73-2.13-0.22-11,3c-14.61,5.31-14.73,5-16,6c-4.69,3.65-4.77,9.54-6,29
	c-1,16.33-2.34,37.06,2,38c1.75,0.38,2.58-3.06,10-11c6.37-6.82,8.37-7.08,11-11c3.86-5.74,2.94-10.18,4-20
	C263.29,84.17,270.79,73.82,267.03,71.23z"/>
<path class="st0" d="M284.03,99.23c-2.26-1,2.82-9.66,2-24c-0.2-3.47-0.67-5.94,1-8c1.82-2.25,4.42-1.84,13-3
	c8.58-1.16,11.22-2.27,12-1c1,1.63-3,4-6,11c-2.73,6.39-1.08,8.36-4,12c-2.19,2.73-3.46,2.06-9,6
	C286.64,96.78,285.33,99.81,284.03,99.23z"/>
<path class="st1" d="M98.77,354.3c-2.7,0.5-2.41,2.49-6.74,4.93c-5,2.81-7.41,1.32-9.38,3.56c-2.18,2.47-0.17,5.36,0.38,13.44
	c0.72,10.63-2.15,14.66,0.77,17.33c2.53,2.31,5.12-0.31,10.23,1.67c7.19,2.79,7.71,10.18,11.65,10s3.53-7.07,10.35-11
	c5.12-3,8.66-1,10.38-3.86c1.31-2.17-0.74-3.35-2.38-13.14c-0.66-3.39-1.16-6.82-1.48-10.26c-0.07-2.09,0-2.81-0.52-3.74
	c-1.64-2.73-5.5-1.35-11-3C103.91,358.1,102.88,353.54,98.77,354.3z"/>
<path class="st0" d="M279.03,69.23c0,1.26,8.45,1.06,28,3c8,0.79,13.79,1.55,21-1c3.32-1.17,8.31-3.53,8-5s-5.37-0.94-20-1
	c-11.11-0.05-19.49-0.38-31,2C279.35,68.41,279.03,68.98,279.03,69.23z"/>
<path class="st2" d="M328.03,176.23c-3.56,2.91-26.35-11.14-25-26c0.43-4.76,3.32-8.51,6-12c2.47-3.21,7.91-10.29,16-12
	c14.13-3,29.8,11.93,28,17c-2,5.53-24-2.41-30,7C317.54,158.9,331.2,173.64,328.03,176.23z"/>
<path class="st2" d="M290.03,229.23c5.73-2.5,0.56-15.15,8-21c7.79-6.13,19.53,3,24-2c4.9-5.44-1.44-25.05-14-29
	c-7.74-2.43-14.71,2.07-27,10c-11.09,7.16-12.58,12-13,14c-1.09,5.05,0.81,9.33,2,12C274.23,222.66,284.58,231.61,290.03,229.23z"/>
<path class="st2" d="M262.03,260.23c-4.34,4.54-13.76,4.93-20,1c-8.48-5.34-9.88-17.89-6-26c6.07-12.68,24.29-12.88,33-10
	c3.05,0.95,5.81,2.68,8,5c0.48,0.53,5.91,6.68,4,11s-9.06,1.61-14,7C263.09,252.53,265.66,256.44,262.03,260.23z"/>
<path class="st2" d="M244.03,280.23c-1,5.45-7.32,5.71-8,10c-1,6,11.05,9.79,10,15c-1,4.85-11.13,6.85-17,7
	c-3.8,0.1-13.12,0.33-18-6c-6.66-8.64,0.53-22.21,2-25c3.56-6.72,11.87-17.7,20-16c4.35,0.91,7.43,5.2,8,6
	C242.18,272.84,244.71,276.37,244.03,280.23z"/>
<path class="st2" d="M375.03,134.23c-3.85,2.28-14.83-3.53-17-13c-1.73-7.56,2.6-15.41,9-19c8.48-4.75,18.05-0.6,23,4
	c5.83,5.42,8.63,14.59,6,17c-3.13,2.87-12.12-5.51-17-2C374.91,124.23,378.53,132.16,375.03,134.23z"/>
<path class="st2" d="M64.03,160.23c3.39-4.21,52.34,23.09,49,32c-3.71,9.9-70.27-7.07-70-9c0.17-1.18,25.18,4.13,29-4
	C75.09,172.71,62.18,162.53,64.03,160.23z"/>
<path class="st2" d="M124.03,75.23c8.77-4.48,41.72,30.95,36,39c-6.36,8.94-59-17.85-58-21c0.39-1.19,8,2.2,14-2
	C122.73,86.5,120.08,77.23,124.03,75.23z"/>
<path class="st2" d="M162.03,54.23c-1.29,5.33,50,28.86,56,20c5.42-8-26.94-41.61-36-37c-3.17,1.61-2.16,7.22-8,12
	S162.45,52.48,162.03,54.23z"/>
<path class="st2" d="M242.03,19.23c-2,3.85,56.9,46.18,66,37c4.93-5-3.23-26.53-17-32c-7.79-3.1-12.57,0.87-29-1
	C248.63,21.71,242.65,18.03,242.03,19.23z"/>
<path class="st2" d="M452.64,155.12c3.08-1.31,2.95-21.94-8.28-26.91c-7.37-3.27-17.5,1.1-17.73,4.34
	c-0.15,2.29,4.78,2.42,11.56,9.18c2.75,2.74,3.72,4.49,8,8.54C449.91,153.75,451.76,155.49,452.64,155.12z"/>
<path class="st2" d="M479.7,195.85c4.21-0.91,9.1-21.46-1.23-30.24c-6.67-5.66-18-5-19.58-1.65c-1.46,3.09,6.06,6.73,10.34,18.5
	c0.78,2.31,1.85,4.51,3.18,6.55C473.53,190.71,477.27,196.38,479.7,195.85z"/>
<path class="st2" d="M484.94,204.72c-4.39,3.06,1.37,23,6.53,23.18c3.3,0.12,8.73-7.69,6.1-15.09
	C495.24,206.23,487.58,202.88,484.94,204.72z"/>
<path class="st2" d="M29.03,304.23c10.58,1.45,17.5,10,24,19c12.42,17.14,28.8,39.75,25,43c-5.09,4.35-39.74-31.65-42-34
	c-18.87-19.61-18-24.37-17-26C20.91,303.12,27.62,304.04,29.03,304.23z"/>
<path class="st2" d="M137.03,383.23c1.2,7.55,67.84,6.7,69-1c0.56-3.72-14.11-9.32-25-11C158.41,367.74,136.31,378.72,137.03,383.23
	z"/>
<path class="st2" d="M123.03,349.23c-0.91-4.53,70.3-25.43,72-21c0.95,2.46-19.07,14.17-41,19
	C141.17,350.06,123.47,351.44,123.03,349.23z"/>
<path class="st2" d="M50.03,295.23c-3.26,4.11,46.89,53.45,51,50c2.36-2-8.86-22.74-27-37C65.42,301.46,51.59,293.23,50.03,295.23z"
	/>
<path class="st2" d="M407.03,118.23c-1.94-2,5.55-16.75,12-16c7.48,0.88,10,22.22,8,23c-1.26,0.5-3.54-7.71-10-9
	C411.88,115.23,408.19,119.4,407.03,118.23z"/>
<path class="st2" d="M486.03,236.23c-3.3,3.9,4.81,18.72,9,18c3.18-0.55,7.2-10.58,2-16C493.86,234.93,487.91,234.01,486.03,236.23z
	"/>
</svg>
