<?xml version="1.0" standalone="no"?><!-- Generator: Gravit.io --><svg xmlns="http://www.w3.org/2000/svg" xmlns:xlink="http://www.w3.org/1999/xlink" style="isolation:isolate" viewBox="0 0 454.728 437.953" width="454.728" height="437.953"><defs><clipPath id="_clipPath_Of0Srrvhi0U0DweFkNiiucb8wo3W4yRU"><rect width="454.728" height="437.953"/></clipPath></defs><g clip-path="url(#_clipPath_Of0Srrvhi0U0DweFkNiiucb8wo3W4yRU)"><path d=" M 27.235 159.488 C 28.705 165.638 28.815 169.928 29.065 178.858 C 29.585 196.788 29.985 205.748 29.975 209.058 C 29.885 226.348 29.795 235.158 27.135 243.378 C 24.185 252.478 22.315 251.498 20.015 259.458 C 16.325 272.178 20.345 277.248 20.755 295.088 C 21.275 318.308 14.755 321.218 19.635 332.478 C 24.695 344.108 36.295 351.598 37.745 352.338 C 39.955 353.468 38.615 352.468 61.095 358.468 C 63.608 359.319 66.278 359.606 68.915 359.308 C 74.175 358.558 79.675 354.948 81.915 350.038 C 84.665 343.878 81.855 337.168 78.915 330.038 C 78.085 328.038 77.915 327.978 77.215 326.368 C 74.385 319.808 74.975 315.268 74.905 302.758 C 74.835 290.408 74.225 287.288 74.565 273.758 C 74.615 271.758 74.625 271.968 74.675 270.138 C 74.905 261.138 74.855 248.048 72.965 226.638 C 71.745 212.888 71.325 213.878 71.095 208.468 C 69.575 172.748 86.665 159.198 79.565 147.168 C 70.035 130.978 27.045 135.018 23.485 145.478 C 22.455 148.358 24.995 150.088 27.235 159.488 Z " fill="rgb(160,160,160)"/><path d=" M 114.305 154.238 C 105.505 161.108 114.735 178.058 113.305 206.718 C 112.565 221.718 109.995 217.918 106.145 243.918 C 102.325 269.748 104.985 272.728 100.815 301.098 C 98.235 318.668 96.935 327.458 93.715 336.498 C 87.645 353.498 81.085 359.888 84.405 365.188 C 88.635 371.948 105.625 371.688 115.775 365.518 C 117.175 364.678 120.205 362.248 126.285 357.388 C 128.285 355.758 132.365 352.498 137.425 348.068 C 145.505 340.998 148.975 337.258 149.425 332.128 C 149.447 331.725 149.447 331.321 149.425 330.918 C 149.345 319.548 155.835 299.348 156.425 297.338 C 157.705 293.288 162.715 277.528 161.725 261.278 C 160.825 246.398 155.595 242.868 152.405 230.218 C 143.105 193.438 172.515 164.948 161.315 154.438 C 158.435 151.748 149.155 151.928 130.595 152.308 C 121.145 152.528 116.345 152.658 114.305 154.238 Z " fill="rgb(160,160,160)"/><path d=" M 100.825 139.368 C 95.587 147.097 93.571 156.565 95.205 165.758 C 95.795 168.948 96.675 170.938 98.055 171.268 C 99.905 171.718 101.055 168.858 103.555 169.018 C 106.355 169.208 106.635 173.018 109.465 173.428 C 112.675 173.928 114.465 169.368 117.465 170.038 C 119.925 170.608 119.905 174.108 122.155 174.408 C 124.805 174.758 126.225 170.098 128.915 170.408 C 131.365 170.668 131.345 174.638 134.195 175.408 C 137.335 176.248 139.265 171.958 142.735 172.648 C 145.735 173.258 145.925 176.848 148.635 177.048 C 151.345 177.248 152.005 173.558 155.395 173.048 C 159.395 172.428 161.465 177.228 164.955 176.358 C 168.185 175.548 168.955 170.778 170.545 171.088 C 172.135 171.398 171.205 176.938 173.945 178.438 C 175.945 179.498 179.555 178.438 180.645 176.218 C 182.585 172.378 174.695 168.958 172.115 159.068 C 169.835 150.358 173.965 145.378 169.675 139.678 C 168.115 137.733 166.084 136.218 163.775 135.278 C 154.775 130.998 148.985 135.428 135.995 135.648 C 119.925 135.928 112.405 129.418 104.625 135.318 C 103.159 136.466 101.878 137.832 100.825 139.368 L 100.825 139.368 Z " fill="rgb(216,216,216)"/><path d=" M 23.385 126.778 C 8.165 130.778 -2.005 147.008 0.335 150.838 C 0.935 151.838 3.025 153.038 5.085 153.388 C 7.305 153.778 8.085 152.918 9.305 153.518 C 11.785 154.748 10.025 159.178 12.105 160.848 C 15.445 163.528 23.405 154.848 29.705 157.748 C 32.585 159.068 32.075 161.418 35.005 162.138 C 39.185 163.138 41.815 158.708 45.925 160.048 C 48.415 160.858 48.925 162.958 50.675 162.608 C 52.425 162.258 53.065 160.048 55.595 159.738 C 55.989 159.643 56.4 159.643 56.795 159.738 C 58.385 160.228 58.255 162.198 59.705 163.448 C 61.085 164.477 62.886 164.758 64.515 164.198 C 67.235 163.258 67.465 160.048 68.865 160.108 C 70.715 160.178 70.555 165.838 73.485 166.878 C 76.015 167.778 77.765 164.138 81.395 164.708 C 84.455 165.178 84.775 168.008 87.335 167.898 C 89.195 167.828 89.555 166.318 93.495 163.898 C 96.325 162.138 97.045 162.358 97.785 161.618 C 101.525 157.898 96.515 139.448 83.575 132.218 C 75.415 127.658 71.995 131.978 51.655 130.058 C 33.655 128.338 31.925 124.528 23.385 126.778 Z " fill="rgb(216,216,216)"/><path d=" M 39.755 124.238 C 37.096 122.049 34.087 120.325 30.855 119.138 C 27.165 117.778 23.955 116.598 21.855 117.658 C 14.995 121.118 17.365 149.658 27.445 152.838 C 30.385 153.748 33.095 152.218 43.375 144.838 C 68.015 127.208 71.885 122.118 76.605 123.498 C 85.605 126.128 89.705 149.918 82.925 154.498 C 77.215 158.318 64.095 148.368 62.615 147.248 C 53.875 140.648 50.185 132.818 39.755 124.238 Z " fill="rgb(112,112,112)"/><path d=" M 39.565 130.888 C 39.025 131.788 39.345 133.318 40.005 136.338 C 41.095 141.338 41.635 143.818 43.365 144.888 C 45.465 146.178 46.745 144.318 51.825 144.538 C 56.905 144.758 58.615 146.658 60.245 145.388 C 61.245 144.648 60.925 143.718 61.655 138.798 C 62.475 133.248 63.095 132.678 62.475 131.578 C 61.855 130.478 60.615 129.798 51.675 129.438 C 41.565 129.038 40.175 129.858 39.565 130.888 Z " fill="rgb(112,112,112)"/><path d=" M 130.435 139.648 C 124.935 135.008 118.43 131.714 111.435 130.028 C 107.155 129.028 103.285 128.218 100.565 130.308 C 95.115 134.488 98.675 146.978 99.935 151.408 C 102.325 159.808 104.145 166.208 108.505 167.358 C 116.795 169.538 126.055 150.568 150.505 134.818 C 153.365 132.978 158.015 130.158 162.675 131.568 C 168.465 133.308 171.815 140.808 171.865 146.928 C 171.935 154.978 166.325 163.928 159.865 164.678 C 152.975 165.448 150.645 156.238 130.435 139.648 Z " fill="rgb(112,112,112)"/><path d=" M 126.235 138.918 C 122.505 141.818 123.595 152.318 128.175 154.668 C 130.175 155.718 131.295 154.318 137.235 154.338 C 142.895 154.338 143.995 155.638 145.675 154.588 C 149.675 152.088 149.495 140.978 144.955 138.278 C 143.015 137.118 141.835 138.338 134.695 138.568 C 128.825 138.758 127.675 137.798 126.235 138.918 Z " fill="rgb(112,112,112)"/><path d=" M 78.825 330.028 C 74.065 324.758 64.965 328.338 46.825 330.278 C 30.985 331.968 22.275 330.908 21.355 334.338 C 20.785 336.488 23.485 339.508 27.115 343.568 C 28.749 345.363 30.514 347.034 32.395 348.568 C 37.335 352.708 40.525 355.388 45.395 357.408 C 49.015 358.898 51.995 359.408 56.785 360.158 C 59.764 360.637 62.769 360.931 65.785 361.038 C 68.407 361.16 71.035 361.036 73.635 360.668 C 77.365 360.138 79.425 359.848 81.545 358.488 C 84.628 356.48 86.704 353.247 87.245 349.608 C 87.445 348.038 87.175 346.558 81.635 335.558 C 79.905 331.988 79.015 330.238 78.825 330.028 Z " fill="rgb(216,216,216)"/><path d=" M 135.825 343.238 C 128.516 341.585 120.984 341.156 113.535 341.968 C 93.345 344.798 89.185 345.968 87.475 347.588 C 87.219 347.839 86.988 348.113 86.785 348.408 C 83.195 352.948 81.395 360.718 85.055 365.858 C 88.185 370.268 93.975 370.858 95.755 371.008 C 98.255 371.248 101.055 370.668 106.665 369.518 C 108.495 369.148 110.665 368.708 113.355 367.908 C 117.455 366.718 120.525 365.828 123.735 363.998 C 125.865 362.788 128.675 359.838 134.295 354.058 C 138.895 349.318 140.525 347.448 139.975 345.778 C 139.425 344.108 137.035 343.498 135.825 343.238 Z " fill="rgb(216,216,216)"/><path d=" M 328.825 4.088 C 325.615 7.248 326.415 10.088 323.735 19.388 C 320.195 31.778 314.925 40.148 309.825 48.238 C 305.015 55.898 299.035 64.778 284.155 79.828 C 265.395 98.828 264.155 109.678 218.325 200.278 C 191.525 253.188 178.125 279.648 177.965 279.918 C 175.265 284.508 166.105 306.128 147.795 349.368 C 144.795 356.458 139.895 368.488 144.875 379.368 C 148.425 387.128 155.615 391.278 162.135 395.048 C 171.295 400.338 180.205 405.538 189.205 402.488 C 198.595 399.308 204.935 388.258 205.865 375.218 C 206.505 370.098 207.495 362.938 208.985 354.428 C 211.535 339.928 218.695 300.518 236.985 260.088 C 249.985 231.328 269.985 205.658 310.085 154.338 C 321.155 140.158 328.865 130.338 340.855 117.648 C 357.075 100.488 361.485 98.888 371.625 86.058 C 385.345 68.698 398.125 52.718 393.955 35.448 C 389.955 19.028 372.955 10.138 368.835 8.008 C 357.555 2.098 337.495 -4.432 328.825 4.088 Z " fill="rgb(216,216,216)"/><path d=" M 357.685 17.998 C 355.943 20.542 354.989 23.544 354.945 26.628 C 354.625 31.148 351.625 34.838 344.555 42.908 C 332.935 56.178 327.125 62.818 323.555 66.258 C 316.755 72.868 308.245 85.508 291.225 110.788 C 281.955 124.558 272.455 138.668 260.225 158.658 C 240.165 191.558 243.925 189.358 212.225 245.958 C 200.965 266.058 193.345 288.038 182.445 308.338 C 176.915 318.658 169.675 331.478 174.815 341.488 C 177.505 346.708 184.405 352.798 191.105 351.868 C 193.735 351.401 196.143 350.092 197.965 348.138 C 208.865 337.268 213.635 313.478 215.965 303.808 C 219.045 291.098 224.545 279.648 235.555 256.728 C 242.731 241.917 250.709 227.509 259.455 213.568 C 268.213 198.949 277.834 184.864 288.265 171.388 C 295.685 161.868 295.395 163.138 305.705 150.388 C 329.215 121.318 326.585 119.838 338.825 107.028 C 352.155 93.088 357.305 92.728 375.085 73.478 C 387.825 59.838 389.515 55.328 389.825 50.928 C 391.385 31.528 366.235 12.328 360.195 15.438 C 359.209 16.131 358.359 16.999 357.685 17.998 Z " fill="rgb(216,216,216)"/><path d=" M 354.235 26.988 Q 365.335 45.508 376.415 64.038 C 376.846 64.72 377.74 64.938 378.438 64.532 C 379.135 64.125 379.386 63.239 379.005 62.528 Q 367.925 43.998 356.825 25.528 C 356.393 24.845 355.499 24.627 354.802 25.034 C 354.104 25.44 353.854 26.326 354.235 27.038 L 354.235 26.988 Z " fill="rgb(112,112,112)"/><path d=" M 349.465 42.838 C 360.411 43.679 370.988 47.169 380.285 53.008 C 381.925 54.008 383.435 51.438 381.795 50.418 C 372.037 44.318 360.941 40.687 349.465 39.838 C 347.535 39.688 347.545 42.688 349.465 42.838 L 349.465 42.838 Z " fill="rgb(112,112,112)"/><path d=" M 347.185 41.898 Q 356.125 61.008 365.055 80.128 C 365.865 81.878 368.455 80.358 367.645 78.618 L 349.825 40.378 C 349.005 38.638 346.425 40.158 347.235 41.898 L 347.185 41.898 Z " fill="rgb(112,112,112)"/><path d=" M 376.935 62.628 C 365.056 60.625 353.389 57.522 342.085 53.358 C 340.275 52.688 339.495 55.588 341.285 56.248 C 352.588 60.415 364.255 63.519 376.135 65.518 C 378.025 65.838 378.835 62.948 376.935 62.628 Z " fill="rgb(112,112,112)"/><path d=" M 338.825 52.138 Q 343.335 72.918 347.825 93.708 C 348.235 95.588 351.125 94.788 350.715 92.908 Q 346.205 72.118 341.715 51.338 C 341.305 49.448 338.415 50.248 338.825 52.138 L 338.825 52.138 Z " fill="rgb(112,112,112)"/><path d=" M 326.125 65.738 L 366.735 81.998 C 368.525 82.718 369.305 79.808 367.535 79.098 L 326.925 62.848 C 325.135 62.128 324.355 65.028 326.125 65.738 L 326.125 65.738 Z " fill="rgb(112,112,112)"/><path d=" M 323.825 66.818 C 330.879 77.635 334.514 90.326 334.255 103.238 C 334.255 105.168 337.255 105.168 337.255 103.238 C 337.525 89.799 333.764 76.588 326.455 65.308 C 325.455 63.698 322.805 65.198 323.855 66.828 L 323.825 66.818 Z " fill="rgb(112,112,112)"/><path d=" M 317.005 81.968 C 326.549 85.304 336.432 87.581 346.475 88.758 C 348.385 88.988 348.375 85.978 346.475 85.758 C 336.71 84.581 327.103 82.341 317.825 79.078 C 315.995 78.438 315.215 81.328 317.025 81.968 L 317.005 81.968 Z " fill="rgb(112,112,112)"/><path d=" M 314.415 81.888 Q 318.675 100.638 323.485 119.268 C 323.965 121.138 326.855 120.338 326.375 118.468 Q 321.565 99.848 317.315 81.088 C 316.885 79.208 313.995 79.998 314.415 81.888 L 314.415 81.888 Z " fill="rgb(112,112,112)"/><path d=" M 302.615 96.738 L 339.485 106.128 C 341.355 106.608 342.155 103.718 340.285 103.238 L 303.405 93.848 C 301.535 93.368 300.735 96.258 302.615 96.738 Z " fill="rgb(112,112,112)"/><path d=" M 300.975 93.538 Q 308.195 113.728 316.105 133.658 C 316.815 135.428 319.715 134.658 319.005 132.858 Q 311.085 112.918 303.825 92.738 C 303.185 90.928 300.285 91.738 300.935 93.538 L 300.975 93.538 Z " fill="rgb(112,112,112)"/><path d=" M 293.825 110.238 C 303.795 113.785 314.123 116.233 324.625 117.538 C 326.535 117.778 326.515 114.778 324.625 114.538 C 314.392 113.24 304.332 110.826 294.625 107.338 C 292.795 106.688 292.015 109.588 293.825 110.238 Z " fill="rgb(112,112,112)"/><path d=" M 292.355 111.238 Q 298.285 126.918 304.245 142.558 C 304.935 144.348 307.835 143.558 307.145 141.768 Q 301.145 126.108 295.245 110.438 C 294.575 108.648 291.665 109.438 292.355 111.238 Z " fill="rgb(112,112,112)"/><path d=" M 282.825 122.288 C 293.424 128.164 305.075 131.901 317.115 133.288 C 319.035 133.518 319.015 130.508 317.115 130.288 C 305.605 128.935 294.47 125.348 284.335 119.728 C 282.645 118.788 281.125 121.378 282.825 122.318 L 282.825 122.288 Z " fill="rgb(112,112,112)"/><path d=" M 281.335 126.658 L 294.715 157.508 C 295.485 159.268 298.065 157.748 297.305 155.988 L 283.925 125.138 C 283.155 123.368 280.575 124.898 281.335 126.658 L 281.335 126.658 Z " fill="rgb(112,112,112)"/><path d=" M 273.825 136.808 C 283.736 143.941 296.116 146.748 308.135 144.588 C 310.025 144.248 309.225 141.358 307.335 141.698 C 296.095 143.641 284.548 140.942 275.335 134.218 C 273.765 133.078 272.265 135.678 273.815 136.808 L 273.825 136.808 Z " fill="rgb(112,112,112)"/><path d=" M 270.755 143.918 C 277.151 152.391 282.076 161.88 285.325 171.988 C 285.915 173.818 288.805 173.038 288.215 171.188 C 284.912 160.826 279.885 151.096 273.345 142.408 C 272.195 140.878 269.585 142.408 270.755 143.918 L 270.755 143.918 Z " fill="rgb(112,112,112)"/><path d=" M 263.425 157.238 L 293.425 160.908 C 295.345 161.148 295.325 158.138 293.425 157.908 L 263.425 154.238 C 261.515 153.998 261.535 157.008 263.425 157.238 Z " fill="rgb(112,112,112)"/><path d=" M 261.155 161.378 L 273.455 190.238 C 274.215 192.008 276.795 190.478 276.045 188.728 L 263.745 159.888 C 262.985 158.118 260.405 159.648 261.155 161.408 L 261.155 161.378 Z " fill="rgb(112,112,112)"/><path d=" M 254.825 176.828 C 263.355 178.732 272.088 179.568 280.825 179.318 C 282.755 179.258 282.765 176.258 280.825 176.318 C 272.349 176.573 263.874 175.773 255.595 173.938 C 253.705 173.518 252.905 176.408 254.795 176.828 L 254.825 176.828 Z " fill="rgb(112,112,112)"/><path d=" M 247.435 179.038 L 260.435 206.088 C 261.265 207.828 263.855 206.308 263.025 204.578 L 250.025 177.518 C 249.195 175.778 246.605 177.298 247.435 179.038 Z " fill="rgb(112,112,112)"/><path d=" M 242.695 196.398 C 251.975 196.454 261.245 195.731 270.405 194.238 C 272.305 193.938 271.495 191.048 269.605 191.348 C 260.706 192.763 251.705 193.432 242.695 193.348 C 241.866 193.348 241.195 194.019 241.195 194.848 C 241.195 195.676 241.866 196.348 242.695 196.348 L 242.695 196.398 Z " fill="rgb(112,112,112)"/><path d=" M 239.405 198.848 Q 245.285 210.218 251.185 221.588 C 252.075 223.308 254.665 221.788 253.775 220.078 Q 247.875 208.708 241.995 197.328 C 241.105 195.618 238.515 197.128 239.405 198.848 Z " fill="rgb(112,112,112)"/><path d=" M 230.115 216.858 C 240.067 215.793 249.945 214.123 259.695 211.858 C 261.575 211.418 260.775 208.528 258.895 208.958 C 249.41 211.17 239.799 212.797 230.115 213.828 C 228.215 214.028 228.195 217.028 230.115 216.828 L 230.115 216.858 Z " fill="rgb(112,112,112)"/><path d=" M 227.825 214.178 C 229.154 224.501 233.945 234.069 241.415 241.318 C 242.805 242.658 244.925 240.538 243.535 239.188 C 236.606 232.522 232.128 223.714 230.825 214.188 C 230.794 213.372 230.14 212.718 229.325 212.688 C 228.496 212.688 227.825 213.359 227.825 214.188 L 227.825 214.178 Z " fill="rgb(112,112,112)"/><path d=" M 220.705 231.318 C 230.663 234.822 241.645 233.905 250.885 228.798 C 252.575 227.858 251.065 225.268 249.375 226.208 C 240.829 230.898 230.685 231.706 221.505 228.428 C 219.685 227.778 218.895 230.668 220.705 231.318 L 220.705 231.318 Z " fill="rgb(112,112,112)"/><path d=" M 217.655 236.318 L 231.585 258.468 C 232.585 260.098 235.215 258.598 234.185 256.958 Q 227.185 245.868 220.245 234.798 C 219.245 233.168 216.625 234.678 217.655 236.318 L 217.655 236.318 Z " fill="rgb(112,112,112)"/><path d=" M 209.345 252.508 C 219.525 255.608 230.645 254.858 239.715 248.998 C 241.335 247.998 239.835 245.358 238.205 246.408 C 229.765 251.858 219.595 252.498 210.135 249.608 C 208.285 249.048 207.495 251.938 209.345 252.508 Z " fill="rgb(112,112,112)"/><path d=" M 207.665 255.738 L 221.015 285.928 C 221.795 287.698 224.375 286.168 223.605 284.418 L 210.255 254.238 C 209.475 252.478 206.885 254.008 207.665 255.758 L 207.665 255.738 Z " fill="rgb(112,112,112)"/><path d=" M 197.825 276.688 C 209.145 275.895 220.152 272.621 230.065 267.098 C 231.755 266.158 230.245 263.568 228.555 264.508 C 219.107 269.782 208.617 272.915 197.825 273.688 C 195.915 273.818 195.895 276.818 197.825 276.688 Z " fill="rgb(112,112,112)"/><path d=" M 204.315 286.378 C 205.143 286.378 205.815 285.706 205.815 284.878 C 205.815 284.049 205.143 283.378 204.315 283.378 C 203.486 283.378 202.815 284.049 202.815 284.878 C 202.815 285.706 203.486 286.378 204.315 286.378 Z " fill="rgb(112,112,112)"/><path d=" M 191.915 295.908 Q 206.985 294.018 221.865 290.828 C 223.755 290.428 222.955 287.538 221.075 287.938 Q 206.605 291.058 191.915 292.938 C 190.025 293.178 190.005 296.178 191.915 295.938 L 191.915 295.908 Z " fill="rgb(112,112,112)"/><path d=" M 197.275 277.118 L 214.165 304.958 C 215.165 306.608 217.755 305.098 216.755 303.448 L 199.825 275.608 C 199.393 274.925 198.499 274.707 197.802 275.114 C 197.104 275.52 196.854 276.406 197.235 277.118 L 197.275 277.118 Z " fill="rgb(112,112,112)"/><path d=" M 189.435 296.158 C 190.975 298.258 192.585 300.308 193.995 302.498 C 195.405 304.688 196.695 306.998 197.935 309.308 C 200.388 313.849 202.109 318.75 203.035 323.828 C 203.385 325.718 206.275 324.918 205.925 323.028 C 204.978 317.829 203.22 312.811 200.715 308.158 C 199.475 305.828 198.185 303.508 196.775 301.278 C 195.365 299.048 193.635 296.838 192.025 294.648 C 190.905 293.098 188.295 294.598 189.435 296.158 L 189.435 296.158 Z " fill="rgb(112,112,112)"/><path d=" M 184.665 313.238 C 193.326 311.346 201.82 308.757 210.065 305.498 C 211.835 304.788 211.065 301.888 209.265 302.598 C 201.023 305.866 192.528 308.455 183.865 310.338 C 181.975 310.748 182.775 313.648 184.665 313.238 Z " fill="rgb(112,112,112)"/><path d=" M 181.405 314.418 C 189.725 322.368 193.965 333.328 197.965 343.868 C 198.645 345.658 201.545 344.868 200.865 343.078 C 196.675 332.078 192.235 320.618 183.525 312.298 C 182.135 310.958 180.005 313.078 181.405 314.418 L 181.405 314.418 Z " fill="rgb(112,112,112)"/><path d=" M 173.315 333.768 C 183.465 333.708 192.905 329.218 202.955 328.378 C 204.865 328.218 204.885 325.218 202.955 325.378 C 192.955 326.218 183.425 330.708 173.315 330.768 C 172.486 330.768 171.815 331.439 171.815 332.268 C 171.815 333.096 172.486 333.768 173.315 333.768 Z " fill="rgb(112,112,112)"/><path d=" M 359.255 15.238 C 359.605 15.388 358.145 17.808 357.885 22.098 C 357.575 27.178 359.205 30.298 357.495 31.708 C 356.345 32.708 354.705 31.988 354.165 33.088 C 353.625 34.188 354.905 34.898 354.555 36.228 C 354.125 37.858 352.005 37.588 350.835 39.558 C 349.835 41.188 350.915 42.038 350.045 43.478 C 348.765 45.638 345.615 44.418 344.365 46.428 C 343.365 47.968 344.895 49.138 343.975 50.938 C 342.855 53.108 340.245 52.208 338.685 54.468 C 337.245 56.538 338.635 58.468 337.115 59.768 C 335.595 61.068 334.205 59.768 332.805 60.948 C 331.155 62.368 332.205 64.948 330.805 65.658 C 329.405 66.368 327.965 64.248 326.875 64.868 C 325.425 65.708 327.005 70.128 325.705 70.758 C 324.705 71.228 323.215 69.098 322.375 69.578 C 321.375 70.138 323.185 73.228 321.785 75.068 C 320.575 76.658 318.275 75.638 317.275 77.228 C 316.275 78.818 317.905 80.798 316.885 81.738 C 316.075 82.498 314.835 81.408 313.745 82.138 C 312.305 83.138 313.695 85.608 312.185 87.428 C 310.855 89.048 309.055 87.968 307.675 89.588 C 306.145 91.378 307.605 93.518 306.105 94.888 C 304.605 96.258 302.395 95.018 301.795 96.068 C 301.005 97.438 304.525 100.068 303.795 101.558 C 303.065 103.048 299.645 101.698 298.895 103.128 C 298.325 104.228 300.125 105.378 299.685 106.858 C 299.085 108.858 295.485 108.158 294.385 110.388 C 293.445 112.288 295.435 114.098 294.385 115.488 C 293.335 116.878 290.145 115.758 289.475 117.058 C 288.805 118.358 291.325 120.208 290.655 121.368 C 289.985 122.528 287.515 121.258 286.345 122.548 C 285.175 123.838 287.055 126.548 285.755 128.038 C 284.455 129.528 282.345 128.038 281.445 129.218 C 280.245 130.798 283.315 134.368 282.235 135.498 C 281.395 136.368 279.135 134.718 278.115 135.698 C 277.095 136.678 278.685 139.468 277.725 140.208 C 276.765 140.948 274.555 138.788 273.805 139.428 C 272.805 140.228 275.805 144.108 274.585 145.698 C 273.495 147.098 270.165 145.398 269.295 146.698 C 268.295 148.158 272.025 151.128 271.065 153.168 C 270.105 155.208 266.065 153.628 264.395 155.918 C 262.575 158.368 265.605 162.258 263.815 163.918 C 262.335 165.338 259.205 163.688 258.515 164.918 C 257.825 166.148 260.365 167.868 259.695 169.228 C 259.025 170.588 256.755 169.608 255.775 170.998 C 254.795 172.388 256.775 174.568 255.775 176.098 C 254.635 177.848 251.005 176.558 250.285 178.098 C 249.685 179.368 252.015 180.808 251.465 182.418 C 250.845 184.248 247.375 183.728 246.765 185.558 C 246.225 187.138 248.515 188.458 247.945 189.868 C 247.265 191.518 243.785 190.598 242.845 192.418 C 242.075 193.918 244.065 195.218 243.435 197.128 C 242.675 199.438 239.275 199.008 238.535 201.248 C 237.845 203.308 240.325 204.888 239.535 206.538 C 238.745 208.188 235.685 207.218 234.435 209.098 C 233.185 210.978 235.505 213.238 234.245 215.178 C 232.985 217.118 230.335 215.888 229.145 217.728 C 227.955 219.568 230.215 221.728 228.955 223.808 C 227.865 225.568 225.555 224.888 224.835 226.558 C 224.115 228.228 226.215 229.928 225.425 231.258 C 224.635 232.588 221.815 231.368 220.525 232.828 C 218.885 234.688 222.135 238.738 220.525 240.478 C 219.345 241.768 216.675 240.618 216.205 241.658 C 215.735 242.698 218.425 244.358 217.975 245.578 C 217.455 246.988 213.545 245.808 212.485 247.578 C 211.425 249.348 214.425 252.108 213.275 253.848 C 212.365 255.218 209.945 254.368 209.355 255.618 C 208.645 257.108 211.615 259.258 210.925 260.518 C 210.325 261.608 207.925 260.398 206.605 261.698 C 205.285 262.998 207.125 265.388 205.825 268.168 C 204.715 270.558 202.685 270.168 201.905 272.488 C 201.125 274.808 202.805 275.888 201.905 277.588 C 200.825 279.588 197.905 278.898 197.205 280.728 C 196.505 282.558 199.035 284.438 198.205 286.018 C 197.375 287.598 194.675 286.548 193.695 288.178 C 192.715 289.808 194.695 291.518 193.695 293.278 C 192.945 294.558 191.695 293.978 190.695 295.278 C 189.245 297.208 191.345 299.598 189.915 301.748 C 189.045 303.068 188.075 302.428 186.975 303.748 C 184.975 306.098 187.565 308.998 185.805 312.178 C 184.535 314.478 182.535 314.178 181.885 316.498 C 181.405 318.248 182.455 318.668 182.085 320.618 C 181.895 321.618 181.615 322.238 178.945 326.108 C 176.505 329.658 176.325 329.768 176.005 330.618 C 175.685 331.468 174.685 334.188 175.815 336.698 C 176.655 338.568 177.815 338.288 180.135 340.618 C 183.415 343.888 183.135 346.408 185.035 346.698 C 187.105 347.018 187.785 344.068 190.725 343.758 C 194.055 343.398 196.405 346.858 197.395 346.108 C 198.385 345.358 195.475 341.858 196.805 338.848 C 198.005 336.128 201.405 336.768 202.295 334.338 C 203.445 331.168 198.605 327.338 199.935 325.708 C 200.875 324.528 203.435 325.768 204.245 324.528 C 205.195 323.068 202.405 320.328 203.245 319.228 C 204.085 318.128 207.655 320.158 208.345 319.228 C 209.245 318.008 203.735 313.688 204.805 311.388 C 205.705 309.468 210.285 310.878 211.475 308.638 C 212.545 306.638 209.585 304.088 210.685 302.358 C 211.785 300.628 216.195 302.298 217.155 300.598 C 218.005 299.088 215.015 297.048 215.785 294.708 C 216.485 292.558 219.475 292.928 220.095 290.988 C 220.975 288.228 215.625 285.238 216.565 283.138 C 217.405 281.248 221.795 282.708 223.225 280.388 C 224.465 278.388 221.725 276.388 222.635 273.138 C 223.545 269.888 226.635 270.528 227.925 267.048 C 229.045 264.118 227.405 262.328 228.925 259.598 C 229.661 258.332 230.753 257.31 232.065 256.658 C 232.373 256.483 232.67 256.289 232.955 256.078 C 236.785 253.188 257.085 215.508 258.705 212.518 C 265.325 200.308 268.635 194.198 273.015 189.368 C 276.015 186.018 279.315 183.438 280.265 178.578 C 280.705 176.298 280.605 173.688 282.615 171.908 C 284.345 170.368 285.615 171.228 287.125 169.748 C 289.595 167.248 287.935 162.748 289.665 162.098 C 290.665 161.718 291.525 163.098 292.665 162.688 C 293.985 162.138 293.145 159.828 294.615 157.978 C 296.415 155.718 299.485 156.848 300.305 155.028 C 301.125 153.208 298.445 151.028 299.305 149.738 C 300.165 148.448 303.435 150.128 304.595 148.738 C 305.955 147.118 302.595 143.508 304.005 141.478 C 305.125 139.878 307.735 141.368 309.495 139.478 C 311.255 137.588 309.795 135.478 311.645 133.788 C 312.875 132.688 313.725 133.468 314.985 132.408 C 316.985 130.748 315.505 128.268 317.335 125.738 C 318.855 123.628 320.385 124.658 322.035 122.598 C 324.415 119.668 322.855 115.598 324.585 114.948 C 325.665 114.538 326.585 116.008 327.525 115.538 C 329.065 114.738 327.065 110.078 328.895 108.678 C 330.395 107.518 333.085 109.678 333.995 108.678 C 335.205 107.368 331.105 102.858 332.415 101.228 C 333.415 99.978 336.755 101.498 339.925 99.768 C 340.353 99.544 340.734 99.238 341.045 98.868 C 341.933 97.769 342.228 96.305 341.835 94.948 C 341.345 93.398 340.155 93.218 340.255 92.598 C 340.525 91.058 347.805 92.698 350.065 89.458 C 351.575 87.278 350.065 84.078 351.235 83.568 C 352.235 83.138 353.315 85.478 354.965 85.328 C 357.725 85.088 358.115 78.238 361.045 77.878 C 362.525 77.698 362.985 79.388 365.745 79.878 C 368.155 80.268 369.585 79.268 369.865 79.678 C 370.545 80.678 362.795 86.948 358.495 90.678 C 349.725 98.268 344.025 104.938 334.585 115.988 C 331.155 119.988 332.705 118.388 322.435 130.898 C 312.165 143.408 311.695 143.498 307.325 149.108 C 299.035 159.748 299.225 161.298 291.665 170.108 C 289.065 173.108 287.765 174.458 285.005 177.958 C 281.416 182.548 278.078 187.328 275.005 192.278 C 267.865 203.358 267.005 203.198 260.705 212.878 C 254.405 222.558 250.205 230.238 246.785 236.618 C 239.665 249.908 235.335 259.998 229.945 272.518 C 226.365 280.818 222.135 290.758 217.605 303.698 C 214.475 312.628 212.915 317.098 212.515 318.998 C 211.165 325.298 209.515 329.928 206.835 337.248 C 204.905 342.488 203.915 345.148 202.325 347.048 C 201.955 347.508 195.195 355.378 186.645 354.118 C 176.725 352.658 172.645 340.118 172.315 339.028 C 170.085 331.808 171.675 325.028 179.165 307.248 C 187.165 288.298 193.465 276.458 193.465 276.458 C 205.585 254.638 201.235 259.238 217.175 229.178 C 230.745 203.568 241.755 185.408 254.595 164.248 C 264.965 147.148 275.305 130.138 290.255 108.138 C 307.055 83.408 318.105 67.268 328.865 57.718 C 333.645 53.562 337.988 48.928 341.825 43.888 C 344.724 39.992 347.395 35.932 349.825 31.728 C 355.585 22.128 358.665 14.998 359.255 15.238 Z " fill="rgb(160,160,160)"/><path d=" M 183.825 349.928 C 183.675 348.668 201.945 342.578 205.095 347.648 C 207.555 351.588 201.575 363.488 193.505 363.048 C 185.715 362.638 182.185 351.048 182.735 350.648 C 183.285 350.248 188.595 359.438 193.495 358.388 C 196.045 357.838 198.205 354.578 197.495 352.648 C 196.055 348.908 183.945 350.948 183.825 349.928 Z " fill="rgb(114,112,112)"/><path d=" M 183.685 351.078 C 183.795 351.898 168.585 358.938 164.365 353.188 C 161.135 348.778 165.755 338.728 171.815 334.788 C 172.925 334.068 176.125 331.988 178.745 333.188 C 180.175 333.838 180.995 335.248 182.525 337.918 C 183.42 339.258 184.095 340.734 184.525 342.288 C 185.016 344.574 184.867 346.951 184.095 349.158 C 182.715 342.068 177.855 338.458 174.715 339.338 C 171.385 340.268 169.035 346.548 170.805 349.498 C 173.275 353.658 183.585 350.408 183.685 351.078 Z " fill="rgb(114,112,112)"/><path d=" M 398.475 23.068 C 401.169 21.724 404.101 20.922 407.105 20.708 C 412.975 20.398 417.315 22.858 425.155 27.368 C 429.558 29.91 433.754 32.796 437.705 35.998 C 443.615 40.758 446.985 43.478 449.705 47.558 C 456.015 57.118 454.705 68.178 454.425 69.918 C 451.905 86.058 438.115 89.238 426.955 105.238 C 417.085 119.358 421.315 126.238 414.625 151.728 C 411.025 165.468 400.625 184.728 379.955 223.328 C 362.095 256.578 353.165 273.208 349.385 279.428 C 344.715 287.138 339.455 295.428 334.495 308.068 C 327.175 326.748 330.595 329.178 325.305 343.968 C 314.725 373.498 296.525 376.588 280.425 410.468 C 278.842 414.049 276.801 417.411 274.355 420.468 C 271.025 424.568 256.645 440.698 237.295 437.548 C 221.165 434.918 207.385 419.838 207.825 406.238 C 208.015 400.498 210.675 396.428 218.985 386.028 C 226.635 376.468 237.205 363.868 250.745 349.538 C 259.378 340.841 267.368 331.53 274.655 321.678 C 274.655 321.678 280.655 313.478 286.215 304.608 C 306.925 271.228 324.605 214.368 324.605 214.368 C 338.075 171.048 347.995 138.728 356.515 110.608 L 356.515 110.608 C 356.515 110.538 358.875 84.608 379.035 43.728 C 380.605 40.568 386.665 28.638 398.475 23.068 Z " fill="rgb(216,216,216)"/><path d=" M 389.265 36.018 C 380.425 43.788 377.115 54.018 375.555 58.778 C 362.245 99.418 364.555 88.778 361.655 100.358 C 356.885 119.618 355.125 130.778 353.045 140.958 C 349.045 160.338 342.665 176.388 331.305 209.028 C 323.755 230.738 314.875 250.768 297.625 291.028 C 293.995 299.498 290.715 307.028 284.885 316.528 C 277.445 328.648 276.095 327.278 257.445 351.848 C 244.755 368.578 243.575 371.588 236.675 376.768 C 230.515 381.378 226.735 382.528 226.085 386.378 C 224.685 394.788 239.615 407.808 251.795 405.778 C 259.265 404.538 263.895 397.918 266.295 394.398 C 285.295 366.398 302.805 338.398 309.795 327.108 C 334.035 271.288 326.445 296.698 352.705 234.718 C 373.355 185.958 383.705 161.578 386.585 146.638 C 386.725 145.888 391.585 128.418 401.265 93.488 C 402.624 88.209 404.665 83.13 407.335 78.378 C 411.579 71.118 417.011 64.621 423.405 59.158 C 429.965 53.858 432.615 53.938 433.205 50.908 C 434.525 44.158 422.765 36.298 415.355 33.078 C 411.455 31.378 405.445 28.868 398.485 30.728 C 395.033 31.729 391.871 33.543 389.265 36.018 Z " fill="rgb(216,216,216)"/><path d=" M 391.125 39.678 Q 402.875 53.478 413.285 68.338 C 414.385 69.908 416.995 68.408 415.885 66.828 Q 405.255 51.658 393.245 37.558 C 391.995 36.088 389.875 38.218 391.125 39.678 Z " fill="rgb(112,112,112)"/><path d=" M 428.475 51.568 C 417.695 45.928 405.475 43.038 393.315 44.788 C 388.957 45.445 384.707 46.679 380.675 48.458 C 378.905 49.218 380.435 51.808 382.185 51.048 C 396.795 44.728 413.185 46.928 426.955 54.158 C 428.665 55.058 430.185 52.468 428.475 51.568 Z " fill="rgb(112,112,112)"/><path d=" M 381.435 54.088 C 391.071 61.947 397.825 72.784 400.635 84.898 C 401.055 86.778 403.955 85.988 403.525 84.098 C 400.581 71.473 393.55 60.175 383.525 51.958 C 382.045 50.738 379.915 52.848 381.405 54.088 L 381.435 54.088 Z " fill="rgb(112,112,112)"/><path d=" M 413.415 68.878 C 406.897 67.05 400.181 66.022 393.415 65.818 C 385.946 65.652 378.523 67.034 371.615 69.878 C 369.845 70.608 370.615 73.508 372.405 72.778 C 379.051 70.001 386.203 68.638 393.405 68.778 C 399.896 68.994 406.337 70.001 412.585 71.778 C 413.354 71.919 414.104 71.448 414.312 70.694 C 414.52 69.94 414.118 69.151 413.385 68.878 L 413.415 68.878 Z " fill="rgb(112,112,112)"/><path d=" M 371.765 74.498 C 378.818 85.45 386.567 95.939 394.965 105.898 C 396.215 107.378 398.325 105.248 397.095 103.778 C 388.858 94.016 381.262 83.731 374.355 72.988 C 373.355 71.368 370.715 72.868 371.765 74.498 Z " fill="rgb(112,112,112)"/><path d=" M 401.655 84.918 C 388.379 84.845 375.278 87.948 363.445 93.968 C 361.715 94.838 363.235 97.428 364.955 96.558 C 376.326 90.798 388.908 87.836 401.655 87.918 C 402.483 87.918 403.155 87.246 403.155 86.418 C 403.155 85.589 402.483 84.918 401.655 84.918 Z " fill="rgb(112,112,112)"/><path d=" M 363.335 95.338 Q 376.405 108.818 388.095 123.548 C 389.295 125.058 391.405 122.928 390.215 121.428 Q 378.535 106.728 365.455 93.218 C 364.105 91.828 361.985 93.948 363.335 95.338 Z " fill="rgb(112,112,112)"/><path d=" M 359.705 116.128 Q 377.795 110.248 396.375 106.128 C 398.255 105.708 397.455 102.818 395.575 103.238 Q 377.015 107.378 358.905 113.238 C 357.075 113.838 357.905 116.728 359.705 116.138 L 359.705 116.128 Z " fill="rgb(112,112,112)"/><path d=" M 358.245 115.738 C 366.449 125.649 373.913 136.15 380.575 147.158 C 381.575 148.808 384.165 147.298 383.165 145.648 C 376.362 134.435 368.741 123.739 360.365 113.648 C 359.135 112.158 357.025 114.288 358.245 115.768 L 358.245 115.738 Z " fill="rgb(112,112,112)"/><path d=" M 385.155 124.238 Q 369.345 131.468 353.035 137.558 C 351.245 138.238 352.035 141.138 353.835 140.458 Q 370.485 134.218 386.675 126.828 C 388.425 126.028 386.905 123.438 385.155 124.238 Z " fill="rgb(112,112,112)"/><path d=" M 352.375 140.058 C 361.487 148.318 369.053 158.139 374.715 169.058 C 375.605 170.768 378.195 169.258 377.305 167.548 C 371.521 156.413 363.796 146.399 354.495 137.978 C 353.065 136.688 350.935 138.798 352.375 140.098 L 352.375 140.058 Z " fill="rgb(112,112,112)"/><path d=" M 381.085 145.238 Q 366.085 150.658 350.685 155.008 C 349.91 155.247 349.465 156.059 349.682 156.841 C 349.898 157.623 350.697 158.091 351.485 157.898 Q 366.845 153.548 381.885 148.128 C 383.685 147.478 382.885 144.578 381.085 145.238 Z " fill="rgb(112,112,112)"/><path d=" M 348.975 158.858 C 355.98 167.379 361.707 176.875 365.975 187.048 C 366.224 187.826 367.029 188.282 367.825 188.098 C 368.603 187.853 369.046 187.033 368.825 186.248 C 364.384 175.602 358.414 165.661 351.105 156.738 C 349.875 155.248 347.765 157.378 348.975 158.858 Z " fill="rgb(112,112,112)"/><path d=" M 375.825 168.478 C 364.727 168.101 353.693 170.284 343.575 174.858 C 341.815 175.658 343.335 178.238 345.085 177.458 C 354.735 173.125 365.253 171.072 375.825 171.458 C 377.755 171.518 377.755 168.518 375.825 168.458 L 375.825 168.478 Z " fill="rgb(112,112,112)"/><path d=" M 342.825 177.458 C 344.825 182.458 346.535 187.798 349.645 192.268 C 352.542 196.612 355.894 200.635 359.645 204.268 C 361.055 205.578 363.185 203.468 361.765 202.148 C 358.194 198.716 355.005 194.907 352.255 190.788 C 349.255 186.528 347.645 181.498 345.725 176.708 C 345.015 174.938 342.115 175.708 342.835 177.498 L 342.825 177.458 Z " fill="rgb(112,112,112)"/><path d=" M 368.755 186.578 L 336.215 193.798 C 334.325 194.218 335.125 197.108 337.005 196.688 L 369.545 189.468 C 371.435 189.048 370.635 186.158 368.755 186.578 Z " fill="rgb(112,112,112)"/><path d=" M 336.675 196.838 Q 344.885 211.758 353.375 226.528 C 353.806 227.21 354.7 227.428 355.398 227.022 C 356.095 226.615 356.346 225.729 355.965 225.018 Q 347.475 210.248 339.265 195.318 C 338.335 193.628 335.745 195.138 336.675 196.838 Z " fill="rgb(112,112,112)"/><path d=" M 357.365 201.628 C 353.285 203.948 348.495 204.288 344.115 205.808 C 339.735 207.328 335.575 209.878 330.855 210.598 C 328.955 210.878 329.765 213.778 331.655 213.488 C 336.515 212.748 340.655 210.088 345.325 208.558 C 349.995 207.028 354.675 206.608 358.885 204.218 C 359.6 203.798 359.839 202.878 359.42 202.163 C 359 201.447 358.08 201.208 357.365 201.628 L 357.365 201.628 Z " fill="rgb(112,112,112)"/><path d=" M 328.415 217.858 L 343.175 251.158 C 343.955 252.918 346.545 251.388 345.765 249.638 L 331.005 216.338 C 330.225 214.578 327.645 216.108 328.415 217.858 Z " fill="rgb(112,112,112)"/><path d=" M 351.655 224.488 C 346.643 224.68 341.669 225.431 336.825 226.728 C 332.318 228.093 328.07 230.198 324.255 232.958 C 322.705 234.088 324.205 236.688 325.765 235.548 C 329.356 232.926 333.362 230.925 337.615 229.628 C 342.186 228.389 346.882 227.671 351.615 227.488 C 353.535 227.358 353.545 224.358 351.615 224.488 L 351.655 224.488 Z " fill="rgb(112,112,112)"/><path d=" M 324.295 234.998 C 323.665 237.648 324.295 240.248 325.005 242.818 C 325.677 245.278 326.495 247.695 327.455 250.058 C 329.358 254.774 331.79 259.259 334.705 263.428 C 335.805 264.998 338.405 263.498 337.295 261.918 C 334.597 258.089 332.323 253.978 330.515 249.658 C 329.617 247.507 328.842 245.307 328.195 243.068 C 327.525 240.768 326.615 238.198 327.195 235.798 C 327.635 233.918 324.745 233.118 324.295 234.998 L 324.295 234.998 Z " fill="rgb(112,112,112)"/><path d=" M 318.425 254.748 C 327.166 249.723 336.82 246.49 346.825 245.238 C 348.715 245.008 348.735 241.998 346.825 242.238 C 336.292 243.519 326.122 246.895 316.915 252.168 C 316.232 252.599 316.014 253.493 316.421 254.191 C 316.827 254.888 317.713 255.139 318.425 254.758 L 318.425 254.748 Z " fill="rgb(112,112,112)"/><path d=" M 316.655 253.918 C 315.925 258.748 318.075 262.988 320.175 267.188 Q 323.575 273.998 326.465 281.058 C 327.185 282.828 330.085 282.058 329.355 280.268 Q 326.705 273.728 323.605 267.368 C 321.725 263.518 318.875 259.198 319.545 254.718 C 319.825 252.828 316.935 252.018 316.655 253.918 Z " fill="rgb(112,112,112)"/><path d=" M 332.715 260.748 Q 319.865 265.298 307.265 270.508 C 305.505 271.238 306.265 274.138 308.065 273.408 Q 320.655 268.188 333.505 263.638 C 335.315 262.998 334.505 260.098 332.715 260.748 Z " fill="rgb(112,112,112)"/><path d=" M 307.825 272.848 C 310.242 282.972 313.483 292.881 317.515 302.478 C 317.76 303.254 318.561 303.712 319.355 303.528 C 320.153 303.304 320.622 302.478 320.405 301.678 C 316.373 292.081 313.132 282.172 310.715 272.048 C 310.275 270.178 307.375 270.968 307.825 272.848 Z " fill="rgb(112,112,112)"/><path d=" M 324.615 278.158 C 316.105 281.098 307.82 284.65 299.825 288.788 C 298.115 289.678 299.625 292.268 301.345 291.378 C 309.085 287.36 317.106 283.908 325.345 281.048 C 327.155 280.418 326.345 277.518 324.545 278.158 L 324.615 278.158 Z " fill="rgb(112,112,112)"/><path d=" M 298.135 296.908 L 306.535 318.788 C 307.215 320.568 310.125 319.788 309.425 317.988 Q 305.225 307.048 301.035 296.108 C 300.345 294.328 297.445 295.108 298.135 296.908 Z " fill="rgb(112,112,112)"/><path d=" M 316.055 298.518 L 292.725 307.028 C 290.925 307.688 291.725 310.588 293.515 309.918 L 316.825 301.408 C 318.625 300.758 317.825 297.858 316.025 298.518 L 316.055 298.518 Z " fill="rgb(112,112,112)"/><path d=" M 290.825 307.298 C 291.689 318.74 293.73 330.063 296.915 341.088 C 297.455 342.938 300.355 342.148 299.815 340.288 C 296.684 329.524 294.673 318.465 293.815 307.288 C 293.665 305.378 290.665 305.358 290.815 307.288 L 290.825 307.298 Z " fill="rgb(112,112,112)"/><path d=" M 305.825 321.108 C 296.968 323.262 287.928 324.574 278.825 325.028 C 276.905 325.118 276.885 328.118 278.825 328.028 C 288.189 327.562 297.489 326.223 306.605 324.028 C 308.485 323.568 307.685 320.678 305.815 321.128 L 305.825 321.108 Z " fill="rgb(112,112,112)"/><path d=" M 277.565 328.488 Q 280.995 344.488 284.445 360.488 C 284.855 362.368 287.745 361.578 287.335 359.688 Q 283.905 343.688 280.455 327.688 C 280.045 325.798 277.155 326.598 277.565 328.478 L 277.565 328.488 Z " fill="rgb(112,112,112)"/><path d=" M 297.445 339.578 C 287.284 342.413 276.727 343.562 266.195 342.978 C 264.265 342.878 264.275 345.878 266.195 345.978 C 276.981 346.558 287.789 345.376 298.195 342.478 C 298.928 342.204 299.33 341.416 299.122 340.661 C 298.914 339.907 298.164 339.437 297.395 339.578 L 297.445 339.578 Z " fill="rgb(112,112,112)"/><path d=" M 264.665 342.388 C 264.075 354.401 267.502 366.268 274.405 376.118 C 275.505 377.688 278.115 376.188 276.995 374.598 C 270.371 365.206 267.086 353.865 267.665 342.388 C 267.755 340.458 264.755 340.468 264.665 342.388 Z " fill="rgb(112,112,112)"/><path d=" M 250.825 361.718 C 262.017 364.282 273.35 366.192 284.765 367.438 C 286.685 367.648 286.665 364.648 284.765 364.438 C 273.619 363.209 262.554 361.336 251.625 358.828 C 249.745 358.398 248.945 361.288 250.825 361.718 L 250.825 361.718 Z " fill="rgb(112,112,112)"/><path d=" M 247.725 363.238 C 247.164 376.657 250.006 390.001 255.985 402.028 C 256.845 403.758 259.435 402.238 258.575 400.508 C 252.859 388.944 250.159 376.124 250.725 363.238 C 250.805 361.308 247.805 361.318 247.725 363.238 Z " fill="rgb(112,112,112)"/><path d=" M 236.395 383.648 C 248.912 384.766 261.519 384.38 273.945 382.498 C 275.845 382.208 275.035 379.318 273.145 379.598 C 260.978 381.395 248.641 381.731 236.395 380.598 C 234.475 380.428 234.485 383.428 236.395 383.598 L 236.395 383.648 Z " fill="rgb(112,112,112)"/><path d=" M 428.105 53.458 C 425.605 53.558 422.225 53.708 420.465 56.008 C 418.705 58.308 420.195 61.108 418.115 62.678 C 416.825 63.678 415.785 62.958 414.775 64.048 C 413.475 65.478 414.845 67.048 413.775 68.958 C 412.375 71.458 408.775 70.568 407.885 72.878 C 407.255 74.468 408.785 75.418 408.085 76.998 C 407.245 78.908 404.765 78.138 403.385 80.138 C 402.005 82.138 403.715 83.988 402.205 86.018 C 401.035 87.608 399.675 86.908 398.685 88.378 C 397.215 90.548 399.685 92.858 398.295 95.438 C 397.215 97.438 395.175 96.978 394.565 98.778 C 393.755 101.178 397.085 103.068 396.335 105.248 C 395.505 107.658 390.775 107.248 390.455 109.168 C 390.135 111.088 394.035 112.478 393.595 113.878 C 393.155 115.278 389.945 114.388 389.085 116.038 C 388.225 117.688 390.825 119.528 390.085 121.328 C 389.195 123.458 384.725 122.788 384.405 124.328 C 384.085 125.868 388.915 127.768 388.525 129.228 C 388.195 130.448 384.525 129.888 384.015 131.388 C 383.505 132.888 386.515 134.078 386.175 135.898 C 385.885 137.448 383.615 137.208 382.445 139.228 C 381.275 141.248 383.035 142.508 382.255 145.308 C 381.325 148.638 378.345 148.648 377.945 151.588 C 377.615 154.068 379.625 154.898 378.945 156.878 C 378.195 159.038 375.515 158.968 375.025 161.198 C 374.735 162.548 375.665 162.828 375.425 164.338 C 375.065 166.598 372.855 166.788 372.485 168.848 C 372.135 170.738 373.875 171.238 373.665 173.158 C 373.395 175.568 370.605 175.568 369.545 178.458 C 368.605 181.038 370.435 182.098 369.355 184.538 C 368.355 186.798 366.565 186.388 365.435 188.858 C 364.435 191.058 365.575 191.958 364.435 193.758 C 363.165 195.758 361.165 195.458 360.715 197.098 C 360.265 198.738 362.265 199.708 361.885 201.408 C 361.405 203.598 357.785 203.268 356.985 205.528 C 356.185 207.788 359.375 209.398 358.755 211.998 C 358.135 214.598 354.515 214.358 353.665 217.108 C 352.755 220.018 356.265 222.108 355.235 224.558 C 354.205 227.008 350.365 226.078 349.355 228.478 C 348.345 230.878 351.845 233.008 350.925 235.928 C 350.105 238.558 346.925 238.078 345.825 241.038 C 344.925 243.528 346.825 244.928 345.635 247.118 C 344.635 248.958 343.035 248.428 341.915 250.448 C 340.915 252.238 341.915 253.098 340.915 255.348 C 339.915 257.598 338.915 257.088 338.175 258.888 C 336.885 261.888 339.175 264.428 337.785 265.948 C 336.785 266.948 335.465 266.138 334.445 267.318 C 333.425 268.498 334.445 269.758 333.665 271.238 C 332.555 273.418 329.555 272.238 327.985 274.188 C 325.655 277.088 329.265 282.188 326.985 284.188 C 325.655 285.368 323.625 284.078 322.675 285.368 C 321.725 286.658 323.525 288.368 322.675 290.468 C 321.895 292.398 320.025 291.878 318.945 293.798 C 317.495 296.408 320.035 298.928 318.565 300.868 C 317.285 302.548 314.665 301.598 314.055 303.018 C 313.345 304.658 316.585 306.418 316.055 308.518 C 315.535 310.408 312.605 309.958 311.155 312.638 C 310.395 314.038 311.095 314.358 310.375 316.558 C 309.375 319.638 307.785 319.558 307.235 322.048 C 306.685 324.538 308.095 325.338 307.235 327.148 C 306.375 328.958 304.475 328.598 303.515 330.488 C 302.425 332.628 304.335 334.178 303.325 336.568 C 302.565 338.348 301.325 337.828 299.595 339.898 C 297.035 342.898 298.475 345.358 296.075 347.358 C 294.205 348.908 292.745 347.918 291.565 349.518 C 290.095 351.518 291.865 353.678 290.385 355.398 C 288.905 357.118 286.705 356.018 285.875 357.558 C 285.175 358.878 286.685 359.928 286.075 361.678 C 285.465 363.428 283.795 362.968 282.355 365.008 C 280.915 367.048 281.875 368.468 280.355 369.718 C 279.085 370.798 278.035 370.038 277.025 371.098 C 275.755 372.408 277.025 373.938 276.025 375.998 C 274.845 378.398 272.405 377.678 271.125 380.118 C 270.045 382.178 271.355 383.448 270.125 385.018 C 268.895 386.588 267.195 385.658 265.615 387.178 C 263.495 389.228 265.255 392.228 263.265 393.848 C 261.695 395.128 260.265 393.578 257.975 394.848 C 255.495 396.228 256.315 398.658 253.855 400.138 C 252.185 401.138 251.605 400.138 247.575 400.928 C 244.175 401.588 243.335 402.548 242.285 401.928 C 240.915 401.088 241.945 399.188 240.285 396.428 C 239.285 394.698 238.605 395.008 236.945 392.708 C 235.775 391.088 234.885 389.848 234.785 388.198 C 234.655 386.098 235.965 385.788 236.935 382.508 C 237.935 378.998 236.935 377.888 238.115 376.628 C 239.945 374.698 243.115 376.628 244.585 374.858 C 246.055 373.088 243.415 370.018 244.975 367.798 C 246.535 365.578 249.735 367.308 251.635 365.048 C 253.375 362.988 251.285 360.898 253.005 358.188 C 254.725 355.478 257.925 356.188 259.085 353.278 C 259.795 351.528 258.885 350.618 259.865 349.358 C 261.085 347.798 262.865 348.738 264.375 347.198 C 265.885 345.658 264.795 344.198 266.375 342.488 C 267.765 340.988 268.995 341.878 270.885 340.328 C 272.775 338.778 271.945 337.648 273.825 335.818 C 275.825 333.818 277.525 334.488 278.525 332.678 C 279.425 331.048 278.355 330.048 279.315 328.748 C 280.545 327.088 282.815 328.098 283.825 326.588 C 284.835 325.078 282.885 323.398 283.825 321.498 C 284.765 319.598 286.825 320.498 288.535 318.358 C 289.935 316.568 288.955 315.358 290.535 313.648 C 291.905 312.128 293.015 312.728 294.065 311.288 C 295.115 309.848 294.125 308.608 295.065 306.388 C 296.005 304.168 297.305 304.568 298.985 302.068 C 300.495 299.838 299.685 299.158 301.145 296.378 C 302.845 293.138 304.145 293.618 305.255 291.088 C 306.695 287.728 304.515 286.508 305.845 283.088 C 307.005 280.088 308.915 280.328 310.155 276.808 C 310.985 274.448 310.155 274.188 311.155 271.898 C 312.325 269.088 313.805 268.838 314.285 266.408 C 314.685 264.408 313.785 264.198 314.085 262.288 C 314.565 259.288 316.855 259.288 318.405 256.008 C 319.955 252.728 318.225 251.648 319.965 248.168 C 321.215 245.678 322.275 245.848 322.905 243.658 C 323.715 240.838 322.165 239.828 323.095 237.578 C 324.095 235.068 326.385 235.478 327.015 233.258 C 327.725 230.768 325.235 229.138 326.235 226.988 C 326.875 225.588 328.075 225.988 328.775 224.428 C 329.635 222.578 328.105 221.478 328.775 219.338 C 329.395 217.338 330.875 217.648 331.515 215.798 C 332.395 213.288 329.985 211.798 330.735 209.528 C 331.485 207.258 333.835 207.978 335.635 205.408 C 337.315 202.998 335.745 201.668 337.195 197.558 C 338.495 193.898 340.045 194.108 340.525 191.088 C 341.005 188.068 339.655 186.948 340.725 185.008 C 341.795 183.068 343.725 183.488 344.445 181.668 C 345.375 179.438 342.865 177.898 343.655 175.398 C 344.305 173.398 346.195 173.708 347.575 171.078 C 348.455 169.408 347.785 169.078 348.575 166.178 C 349.575 162.288 351.035 161.938 350.925 159.508 C 350.815 157.078 349.525 157.068 349.745 155.188 C 350.055 152.648 352.515 152.408 352.885 149.698 C 353.145 147.788 352.035 147.088 352.685 145.578 C 353.335 144.068 354.685 144.308 355.235 143.028 C 356.125 140.898 352.845 139.028 353.465 136.558 C 353.995 134.398 356.735 134.608 357.385 132.238 C 357.985 130.068 355.875 129.078 356.385 126.948 C 357.055 124.228 360.795 124.468 361.485 121.848 C 362.135 119.388 359.125 118.088 359.715 115.378 C 360.305 112.668 363.255 112.838 363.835 110.078 C 364.275 107.978 362.645 107.478 362.835 104.788 C 363.025 102.098 364.835 101.788 364.995 99.098 C 365.155 96.408 363.445 95.748 363.995 93.798 C 364.635 91.598 366.995 91.888 367.915 89.488 C 368.685 87.398 367.145 86.488 367.915 84.388 C 368.785 81.978 371.045 82.308 371.835 80.068 C 372.685 77.678 370.385 76.498 371.055 73.798 C 371.675 71.248 373.875 71.588 375.165 68.498 C 376.305 65.758 374.955 64.608 376.335 62.608 C 377.715 60.608 379.635 60.908 380.065 59.278 C 380.495 57.648 378.475 56.608 378.885 54.958 C 379.435 52.758 383.485 52.828 383.785 50.838 C 383.995 49.458 382.105 48.778 382.415 47.508 C 382.765 46.028 385.415 46.508 387.115 44.368 C 388.405 42.738 387.685 41.448 388.875 40.638 C 390.615 39.468 392.995 41.578 393.975 40.638 C 394.955 39.698 394.035 35.898 391.975 35.148 C 391.195 34.858 389.135 34.598 383.745 40.638 C 378.334 46.792 374.143 53.918 371.395 61.638 C 366.045 76.408 363.125 88.118 362.785 89.488 C 358.615 106.358 357.445 112.928 355.155 122.638 C 352.705 133.008 349.275 143.998 342.425 165.978 C 334.915 190.098 328.685 208.238 326.825 213.738 C 322.895 225.118 319.575 234.338 312.915 252.738 C 307.425 267.948 304.685 275.558 303.915 277.458 C 296.323 296.083 286.31 313.628 274.135 329.638 C 260.245 347.548 252.565 357.458 238.855 368.488 C 231.165 374.678 223.725 379.488 222.785 387.718 C 221.785 396.448 226.685 407.428 235.545 410.648 C 243.215 413.438 250.755 409.338 255.745 406.518 C 265.795 400.858 270.055 393.668 279.455 379.638 C 298.825 350.748 298.715 354.398 306.665 340.238 C 312.755 329.398 313.665 325.718 322.925 304.738 C 336.845 273.178 339.175 271.458 349.565 247.848 C 358.505 227.528 363.795 212.848 372.675 188.218 C 388.405 144.578 396.275 122.758 398.525 114.858 C 398.525 114.858 407.335 83.988 418.525 70.858 C 422.215 66.558 424.915 61.298 429.305 57.718 C 430.185 57.008 432.455 55.228 432.055 54.188 C 431.655 53.148 429.325 53.398 428.105 53.458 Z " fill="rgb(160,160,160)"/><path d=" M 235.115 399.898 C 235.175 399.158 247.355 395.978 251.005 402.048 C 254.505 407.878 247.555 417.968 242.775 417.738 C 237.165 417.468 234.195 402.988 234.535 402.838 C 234.875 402.688 237.085 411.118 241.005 411.268 C 243.905 411.378 247.335 406.958 246.495 404.208 C 245.255 400.158 235.065 400.578 235.115 399.898 Z " fill="rgb(113,112,112)"/><path d=" M 235.115 399.898 C 235.875 399.538 233.365 387.788 229.425 387.548 C 224.615 387.238 217.655 404.018 221.425 407.358 C 224.515 410.118 234.835 403.638 234.565 402.838 C 234.335 402.198 227.385 405.488 225.345 403.038 C 223.305 400.588 226.345 393.838 229.265 393.628 C 232.185 393.418 234.525 400.168 235.115 399.898 Z " fill="rgb(113,112,112)"/></g></svg>