<svg id="nom" xmlns="http://www.w3.org/2000/svg" viewBox="0 0 435 353"><defs><style>.cls-1,.cls-3{fill:#cc69c7;}.cls-2{fill:#92c8f4;}.cls-2,.cls-3,.cls-4{stroke:#fff;stroke-miterlimit:10;stroke-width:7px;}.cls-4{fill:#f7bff2;}</style></defs><path class="cls-1" d="M215.15,79.17c-8.9.3-15,.5-20.47,4.55-3.29,2.41-7.14,6.76-11.37,26.15-3.58,16.47-5.38,24.7-4.55,35.26.87,11,2.55,32.31,19.34,45.48,9.62,7.56,27.67,15.16,39.8,8,2.94-1.74,9.53-6.73,12.51-58,2.69-46.22-2-53.33-6.82-56.86C236.42,78.45,225.82,78.81,215.15,79.17Z"/><path class="cls-1" d="M239.9,87.29c-8.9.3-15,.5-20.47,4.55-3.29,2.41-7.15,6.76-11.37,26.15-3.58,16.47-5.38,24.7-4.55,35.26.87,11,2.54,32.31,19.34,45.48,9.62,7.56,27.67,15.16,39.8,8,2.94-1.75,9.53-6.74,12.51-58,2.69-46.22-2-53.33-6.83-56.86C261.17,86.57,250.57,86.93,239.9,87.29Z"/><path class="cls-2" d="M218.35,193.26c6.54,8.69,1.6,17.38-14.59,71.45-17.62,58.89-24,85.72-33,85.29-2.8-.13-3.56-2.84-18.3-25.8-9.45-14.74-14.23-22.14-16.67-23.81-20.49-14.09-56,17.15-63.48,8.73-10.13-11.36,42.34-81.6,47.28-92.17a36.59,36.59,0,0,1,3.53-6.13,55.56,55.56,0,0,1,4.43-5.24C151.78,179,203.92,174.1,218.35,193.26Z"/><path class="cls-2" d="M232.76,177.57c-10.36,13.48,4.13,32.68,26.84,92.82,17.73,46.95,22,69.82,32.83,70.14,12.3.37,12.32-28.23,36.63-41.39,28.69-15.53,61.12,6.75,66.39-2.33,4.68-8.05-23.26-24.77-61.54-68-31.72-35.85-41-56.53-66.14-60.18C264.58,168.14,242.26,165.21,232.76,177.57Z"/><path class="cls-2" d="M191,67.47c-23.64-37.67-62.69-49.2-62.69-49.2-16.11-4.75-48-14.16-71.09,4.21C36.84,38.7,35.68,66.73,35.59,71.38,35.15,92,45.26,94.56,45.82,115.73,46.54,143,30.06,149.41,28.76,176c-.85,17.45,4.94,40.44,19.34,53.45,42.16,38.07,149.13-17.52,147.63-46.12-.23-4.47-3-5.93-6.35-18.26a99.87,99.87,0,0,1-3.57-35.31,119,119,0,0,1,6.75-30.55c1.91-4.79,4-8.93,4-15.08C196.51,82.66,196.3,76,191,67.47Z"/><path class="cls-2" d="M254.45,81.76c-3-26.57,56.48-80.9,110.31-66.66,4.05,1.07,32.64,8.63,42.85,31.74,9.26,21-5.91,33.54,1.59,65.07,5.62,23.61,15.61,22.78,18.25,42.86,3,23-6.58,51-27.77,65.86-14.39,10.1-29,10.58-45.24,11.11-51.23,1.68-100.09-23.48-101.57-42.85-.12-1.59-.11-5.54,0-8.73.36-10.91,1.93-16.56,3.17-25.39,1-6.86,1.17-13.3,1.59-26.19.35-11,.54-16.84,0-24.6C256.78,91.78,254.86,85.31,254.45,81.76Z"/><path class="cls-3" d="M222.09,77.07c-8.9.3-15,.5-20.47,4.55-3.29,2.42-7.15,6.76-11.37,26.15-3.59,16.47-5.38,24.7-4.55,35.26.87,11,2.54,32.31,19.33,45.49,9.63,7.55,27.68,15.15,39.8,8,2.94-1.75,9.53-6.73,12.51-58,2.69-46.22-2-53.33-6.82-56.86C243.35,76.36,232.76,76.71,222.09,77.07Z"/><path class="cls-4" d="M193.6,185.14c6.54,8.69,1.6,17.38-14.59,71.45-17.62,58.89-24,85.72-33,85.29-2.81-.13-3.57-2.84-18.31-25.81-9.45-14.73-14.23-22.13-16.66-23.8-20.5-14.09-56,17.15-63.49,8.73-10.13-11.36,42.35-81.6,47.28-92.17a36.59,36.59,0,0,1,3.53-6.13,58.55,58.55,0,0,1,4.43-5.25C127,170.83,179.17,166,193.6,185.14Z"/><path class="cls-4" d="M208,169.45c-10.36,13.48,4.13,32.68,26.84,92.82,17.73,47,22,69.82,32.83,70.14,12.3.37,12.32-28.24,36.63-41.39,28.69-15.53,61.12,6.75,66.4-2.33,4.67-8.05-23.27-24.77-61.55-68-31.72-35.85-41-56.53-66.14-60.18C239.83,160,217.51,157.09,208,169.45Z"/><path class="cls-4" d="M166.22,59.35c-23.64-37.67-62.69-49.2-62.69-49.2C87.42,5.4,55.51-4,32.44,14.36c-20.35,16.22-21.5,44.24-21.6,48.9-.44,20.58,9.67,23.18,10.23,44.35C21.79,134.88,5.31,141.29,4,167.89,3.16,185.34,9,208.33,23.35,221.34,65.51,259.41,172.48,203.82,171,175.22c-.23-4.47-3-5.93-6.35-18.26a99.87,99.87,0,0,1-3.57-35.31,119,119,0,0,1,6.75-30.55c1.91-4.79,4-8.93,4-15.08C171.76,74.54,171.56,67.86,166.22,59.35Z"/><path class="cls-4" d="M229.71,73.64C226.66,47.07,286.18-7.26,340,7c4.05,1.07,32.64,8.63,42.86,31.74,9.25,21-5.92,33.54,1.58,65.07,5.62,23.61,15.61,22.78,18.25,42.86,3,23-6.58,51-27.77,65.86-14.39,10.1-29,10.58-45.23,11.11-51.24,1.68-100.1-23.48-101.58-42.85-.12-1.59-.11-5.54,0-8.73.36-10.92,1.93-16.56,3.17-25.39,1-6.86,1.17-13.3,1.59-26.19.36-11,.54-16.84,0-24.6C232,83.66,230.11,77.19,229.71,73.64Z"/><path class="cls-4" d="M197.34,69c-8.9.3-15,.5-20.47,4.55-3.29,2.42-7.15,6.76-11.37,26.15-3.59,16.47-5.38,24.7-4.55,35.26.87,11,2.54,32.31,19.33,45.49,9.63,7.55,27.68,15.15,39.81,8,2.94-1.75,9.52-6.73,12.51-58,2.68-46.22-2-53.33-6.83-56.86C218.61,68.24,208,68.59,197.34,69Z"/></svg>