<svg id="items" xmlns="http://www.w3.org/2000/svg" viewBox="0 0 174 148"><defs><style>.cls-1{fill:#66b8d8;}.cls-1,.cls-2,.cls-3{stroke:#fff;stroke-miterlimit:10;stroke-width:2px;}.cls-2{fill:#a4d5f4;}.cls-3{fill:#886ce0;}</style></defs><path class="cls-1" d="M2.43,62.14C-.65,65.49,4.12,75.35,8.37,81.46,35.88,121,111.43,106.06,118,104.18l4-1.18c7.88-2.34,13.89-4.31,14.76-4.6,6.5-2.19,24.36-7.89,31.5-22.89,4.06-8.54,5.66-20.06,1.78-22.29-5.41-3.1-15.52,15.25-37.15,26.45C110.75,91.14,88.4,89,78.21,88,35.06,83.82,8.41,55.63,2.43,62.14Z"/><path class="cls-2" d="M168.56,52.18A23.65,23.65,0,0,1,166,64c-2,3.75-6,6.5-14,12-8.91,6.12-12.92,7.46-15.54,7.83-4.06.58-5.78.72-5.78.72a47.82,47.82,0,0,0-7.89,1.07c-5.18,1.23-15.16,5.64-15.16,5.64C105.77,92.09,96.49,96.05,86,95c-7.32-.73-5.73-3-13.44-3.74-7-.71-12.81.69-22.12-.82a27.9,27.9,0,0,1-3.14-.66c-5.1-1.44-6-3.57-11.3-5.78a36.89,36.89,0,0,0-6.34-2c-3.44-.73-4-.33-5.66-1-3.29-1.43-3.11-4.1-5.82-6.68C13.86,70.21,9.28,73,6,70c-.75-.7-3.67-3.78-.3-17.82,1-4,3.48-16.51,10.4-25.41C35.82,1.43,80,1.16,87.13,1.22c8.55.06,42.39.33,66,22.58C157.33,27.79,168.32,38.23,168.56,52.18Z"/><path class="cls-2" d="M167.37,104.93a66.9,66.9,0,0,1-4.46,12.49c-7.61,14.9-40.15,29.47-77,29.12-42.27-.4-70.32-20.28-75.79-30.31a64.3,64.3,0,0,1-3.56-8.32c-2-6-5.14-18.3-2.08-19.92,2.74-1.45,7.41,7.29,19.91,14.86,6.23,3.78,11.3,5.37,17.83,7.43a139.05,139.05,0,0,0,43.69,6.24c16-.37,56.8-1.31,73.4-25,2.69-3.83,5.87-9.86,8-9.21C170.27,83.22,169.6,95.61,167.37,104.93Z"/><path class="cls-1" d="M3.62,98.4c-.25-.51-3.79-8-1.49-9.81,2.49-2,8.74,3.92,25.13,12.94,3.9,2.14,9,5,14.4,7.27a102.47,102.47,0,0,0,32.69,7.72,125.84,125.84,0,0,0,39.91-3c8.57-1.89,16-3.52,25-8,17.33-8.6,27.78-21.27,30.48-19,1.19,1,.42,4.4,0,6.24a16.28,16.28,0,0,1-2.67,5.94c-3,4.19-6.36,4.88-12.07,8.31-6.86,4.12-5.24,5.07-11.41,8.63S136.08,118,129,121.87s-6.79,5.51-11,7.13c-5.9,2.25-9-.05-19.58-1.48C82.25,125.33,80.09,129.42,68,126c-6-1.69-4.34-2.37-14.46-5.91-7.51-2.63-14.48-4.38-22-6.24C20.86,111.19,19.1,111.17,15,109,6.85,104.69,4.27,99.74,3.62,98.4Z"/><path class="cls-3" d="M5,88c1.35,5.93,7.92,9.06,15.85,12.48C61,117.72,80.51,118.31,87.72,118.31h0a185.45,185.45,0,0,0,37.45-6.24,129.28,129.28,0,0,0,21.1-8.32c19.62-9.77,22-17.12,22.58-19.32,1-3.83.69-8.52-.59-8.92S165.34,78.84,163,82c-5.89,8-14.77,10.79-31,16a125.11,125.11,0,0,1-15,4c-14.48,2.87-14.8.12-26,3-4.6,1.18-10.5,3.18-17.25,2.31a48,48,0,0,1-5.43-1.07A45.84,45.84,0,0,1,59,102.57c-6.33-3.09-9.37-.8-18-2.57-11.19-2.3-19.55-8.93-21.93-10.82C12.32,83.82,9.52,79,7,80,5,80.81,4.28,84.87,5,88Z"/></svg>