<svg id="items" xmlns="http://www.w3.org/2000/svg" viewBox="0 0 174 148"><defs><style>.cls-1{fill:#f2b6e7;}.cls-1,.cls-2,.cls-3{stroke:#fff;stroke-miterlimit:10;stroke-width:2px;}.cls-2{fill:#fce3f7;}.cls-3{fill:#e26aba;}</style></defs><path class="cls-1" d="M3.17,62.61C.09,66,4.86,75.83,9.11,81.93c27.59,39.61,105,23.67,110.26,22.59a104.8,104.8,0,0,0,18.12-5.65C149.66,93.87,163,88.68,169,76c4.06-8.55,5.66-20.07,1.78-22.29-5.41-3.11-15.53,15.24-37.15,26.45C111.49,91.62,89.14,89.45,79,88.47,35.79,84.29,9.15,56.11,3.17,62.61Z"/><path class="cls-2" d="M169.29,52.66c-.28,6.94-3.62,13.39-4.45,15-2.08,4-5,9.62-11,13.07C151,82.36,146.38,83,137.2,84.31s-9.33.75-13.67,1.78c-8.25,2-8.12,4-15.16,5.65-4,1-9.33.84-19.91.59-6.67-.15-7.11-.3-15.16-.59-17.93-.64-19.58,0-25.26-1.49a61.71,61.71,0,0,1-14.56-5.94c-5.64-3.07-5.8-4.16-14.56-9.51-7-4.3-8.14-4.33-9.81-6.54C5.39,63.34,6,57.06,6.44,52.66a54.35,54.35,0,0,1,10.4-25.41C36.56,1.9,80.78,1.63,87.86,1.69c8.56.07,42.4.33,66,22.59C159,29.14,169.84,39.37,169.29,52.66Z"/><path class="cls-2" d="M168.11,105.41a66.66,66.66,0,0,1-4.46,12.48c-7.61,14.91-40.16,29.48-77,29.12-42.27-.4-70.32-20.27-75.79-30.31a62.16,62.16,0,0,1-3.56-8.32c-2-6-5.14-18.29-2.08-19.91C8,87,12.65,95.76,25.16,103.33c6.23,3.77,11.3,5.37,17.83,7.43A139.37,139.37,0,0,0,86.68,117c15.95-.37,56.8-1.32,73.4-25,2.69-3.83,5.87-9.85,8-9.21C171,83.69,170.34,96.09,168.11,105.41Z"/><path class="cls-1" d="M4.35,98.87C2.17,95.65,1,90.55,2.87,89.06,5.36,87.05,11.61,93,28,102c3.9,2.14,9,5,14.39,7.27A102.59,102.59,0,0,0,75.09,117,125.47,125.47,0,0,0,115,114c8.57-1.89,16-3.51,25-8,17.33-8.6,27.77-21.27,30.48-19,1.18,1,.42,4.4,0,6.24a16.76,16.76,0,0,1-2.67,6c-5,7.13-17.17,13.76-23.48,16.94a104.28,104.28,0,0,1-14.56,6.24,101.51,101.51,0,0,1-11.89,3C109.5,127,104.62,128,99.16,128c-8.72,0-8.88-2.6-22-5-11-2.06-11.21-.29-22.89-2.37a96,96,0,0,1-22-6.25c-9.16-3.9-7.42-5-16.94-8.91C10.24,103.32,6.78,102.43,4.35,98.87Z"/><path class="cls-3" d="M5.54,86.09C4.71,91.79,15.78,97.84,21.59,101c33.9,18.13,66.85,17.83,66.87,17.83h0a184.48,184.48,0,0,0,37.44-6.24,127.92,127.92,0,0,0,21.1-8.32c19.63-9.77,22-17.12,22.59-19.32.17-.63,1.92-7.33-.59-8.91-4.48-2.82-14,15.89-36,25-2.29,1-12.63,4.18-33.88,6.24-10.85,1-16.61,1.61-24.67.6-10.61-1.34-8.8-4.25-31.8-9.81-12.06-2.92-17.18-3.23-22.88-8.32-4-3.57-7.23-8.57-10.7-7.73A5.24,5.24,0,0,0,5.54,86.09Z"/></svg>