<?xml version="1.0" encoding="utf-8"?>
<!-- Generator: Adobe Illustrator 25.0.0, SVG Export Plug-In . SVG Version: 6.00 Build 0)  -->
<svg version="1.1" id="Calque_1" xmlns="http://www.w3.org/2000/svg" xmlns:xlink="http://www.w3.org/1999/xlink" x="0px" y="0px"
	 viewBox="0 0 532.37 556.04" style="enable-background:new 0 0 532.37 556.04;" xml:space="preserve">
<style type="text/css">
	.st0{fill:#D8D8D8;}
	.st1{fill:#A0A0A0;}
	.st2{fill:#707070;}
</style>
<path class="st0" d="M22.2,434.36C7.46,437.07,1.88,465,0.31,472.85c-0.4,2-0.65,4.47,0.75,6c2,2.25,5.3,0.23,8.31,2.26
	c3.46,2.35,1.32,6.56,4.52,9.81c3.34,3.41,7.16,0.34,13.59,3c6.86,2.87,5.43,7.82,12.07,10.57c6.17,2.55,9.06-0.94,14.34,2.26
	c4.38,2.65,3.39,5.65,7.55,7.55c5,2.27,7.65-1.43,12.83,0.76c4.35,1.83,3.36,4.82,8.3,7.54s7,0.31,12.08,3
	c4.79,2.55,3.64,5,8.3,7.55c4.66,2.55,6.83,0.41,13.59,3c4.79,1.79,3.87,2.92,8.3,4.6c6.8,2.57,9-0.34,16.6,2.26
	c5,1.72,5,3,9.06,3.77c6.28,1.15,7.35-1.89,13.58-1.51c8.34,0.52,10,6.18,17.36,5.29c4.29-0.52,4.46-2.53,8.3-2.27
	c4.78,0.33,6.27,3.54,11.32,3.78c2.82,0.13,3.66-0.82,6.79-1.51c6.54-1.46,9.87,1.08,17.36,2.26c9.06,1.43,8.2-1.64,19.62-0.75
	c7,0.53,7.7,1.71,18.87,3c6.18,0.73,9.28,1.16,12.12,0.9c10.44-1,15.56-6.49,31.66-3.91c14.1,2.25,15.78,0.78,18.86,0
	c6.22-1.58,6.09-3.76,12.08-5.29c5.36-1.37,7.45-0.13,17.36,0.76c12.13,1.09,24.21,2.11,27.92-3.78c1.4-2.21,0.53-3.65,2.26-5.28
	c3.35-3.15,8.63,0.27,17.36,0.76c2.39,0.13,14.1,0.54,23.4-6c5.28-3.74,5.07-6.4,10.56-9.06c4.68-2.26,7.52-1.63,14.34-2.26
	c10.33-1,22.52-2.47,26.42-9.81c2-3.83-0.05-5.78,2.26-8.31c4.7-5.13,14.25,1.37,20.38-3.77c4.33-3.63,1.47-8.48,6-12.07
	c5-3.94,10.13,0.39,16.6-3c5.34-2.82,8.7-9.42,9.06-15.1c0.55-8.71-6.25-10.49-10.57-24.9c-2.63-8.81-1.32-12.23-3.77-13.59
	c-7.44-4.12-29.23,22-31.7,24.91c-45.71,53.78-189.73,55.67-206.79,55.85c-65.64,0.68-189.39-11.32-229.39-59.65
	C46.41,447.96,34.26,432.14,22.2,434.36z"/>
<path class="st1" d="M316.53,1.16c-1.17,1.6,0.26,3.88,0.76,6.79c1.28,7.54-4.57,14.46-8.31,18.87c-11.4,13.47-47,23.83-71.69,7.55
	c-6-4-20.56-17.87-20.38-30.19c0.15-1.06-0.12-2.14-0.75-3c-3.81-4.11-17.94,8.19-40.76,11.32c-9,1.24-7.77-0.56-12.07,0.75
	c-1.36,0.4-2.67,0.98-3.89,1.71c-8.83,5.42-30.83,66.22-30.83,66.22c-3.19,8.83-14.74,39.83-7.55,44.53c0.6,0.39,1.88,1,2.27,2.26
	c1.37,4.66-11.13,11.12-9.81,13.58c0.77,1.45,4.27-0.27,9.81,1.51c1.92,0.62,1.94,1,6.79,3.78c5.33,3.08,8.87,5.13,13.58,6.79
	c2.46,0.92,4.99,1.67,7.55,2.26c1.97,0.46,3.98,0.72,6,0.76c2.9,0,3.33-0.51,4.53,0c2.89,1.22,3.49,5.54,4.18,5.36
	c0.38-0.1,0.35-1.4,0.34-1.59c-0.18-6.26-2.7-9.77-1.5-12.83c0.51-1.32,1.16-1.11,3-3c4.35-4.46,5.53-10.49,6.8-17.36
	c1-5.68,0.82-8.19,1.51-8.3c1-0.15,2.74,8.14,5.28,17.36c5.34,19.43,10.57,29.46,6.79,32.45c-0.65,0.49-1.44,0.75-2.26,0.76
	c-6.35,0.4-78.22,30.95-163.77,236.22c-5,12.1-13.2,32.43-4.53,49.81c1.82,3.66,8.05,14.53,46.79,30.19
	c7.11,2.88,25,9.84,56.6,17.36c30.04,7.15,60.61,11.94,91.4,14.3c12.08,0.94,21,1.26,27.93,1.51c36,1.28,77.1,2.51,126-6.79
	c19-3.49,37.68-8.55,55.85-15.1c12.11-4.43,21.17-8.56,27.17-11.32c18.53-8.54,36.43-18.37,53.58-29.43
	c6.88-4.42,10.32-6.63,11.33-7.55c46.46-42.76-149.86-277.24-164.53-276.22c-1.06,0.15-2.14-0.13-3-0.76
	c-3-2.63,1.27-10.81,5.28-22.64c4.93-14.51,6.34-25.1,7.55-24.9c0.39,0.06,0.3,1.16,0.75,4.52c0.94,6.94,1.44,10.71,3.78,13.59
	c2.63,3.24,5.48,2.14,6.79,5.28c0.87,2.1,0.08,3.54,1.51,6c0.69,1.21,1.6,2.8,3,3c2.58,0.4,3.52-4.33,9.06-6.79
	c1.73-0.78,3.79-1.66,5.28-0.76s1.5,3.4,3.3,4c0.67,0.16,1.37,0.1,2-0.18c2.78-1,11.19-4.69,10.48-7.44
	c-0.13-0.5-0.61-1.13-2.18-1.62c0.94-0.62,1.95-1.12,3-1.51c7.78-2.81,13.9,2.88,17.36,0c1.87-1.56,2-4.83,1.51-6.79
	c-1.05-4.09-5.43-4.68-6-8.31c-0.48-2.86,1.77-5.38,2.27-6c3.07-4.05,0.87-18.43-18.12-59.62c0,0-4.38-9.53-25.66-43
	c-1.49-2.46-3.54-4.51-6-6c-4.22-2.47-8.25-2.2-11.33-2.26c-8.14-0.17-7.2-2.56-30.18-8.31C322.08-0.1,317.97-0.8,316.53,1.16z"/>
<path class="st0" d="M214.65,1.16c-1.17-0.3-2,1.43-6,5.28c-3.69,3.51-4.55,3.54-5.28,5.28c-1.38,3.27,0.11,6.79,0.75,8.31
	c2.24,5.28,5.33,4.92,8.3,9.81c3.52,5.78,0.59,8.59,3.78,12.07c3.78,4.15,8.34,0.61,15.09,4.53s5.48,9.36,11.28,11.36
	c5.22,1.74,6.91-2.49,14.34-1.51c7,0.92,7.9,4.95,13.58,4.53c4.73-0.35,4.69-3.18,10.57-4.53c7.1-1.63,9.17,2,14.34,0
	c5.37-2.11,4.28-6.52,9.81-9c6.38-2.93,10.83,1.55,14.34-1.51c3.72-3.24-0.42-9,3.77-14.34c3.44-4.39,7.19-3.34,9.06-6.8
	c4.28-7.92-10.59-25.81-14.34-24.15c-2,0.88,0.88,6.33-1.51,14.34c-2.31,7.78-7.9,12.4-12.07,15.85c-11.3,9.13-25.48,13.95-40,13.59
	c0,0-24.64-1.87-40-22.64c-4.16-5.63-6.42-8.68-7.55-13.59C216.15,4.66,216.12,1.53,214.65,1.16z"/>
<path class="st2" d="M257.66,51.72c5.2-4.3,5.07-7.51,9.06-12.07c5.36-6.12,15.36-11.52,20.38-8.3s3.16,14.32,3,15.09
	c-0.61,3.26-1.1,5.87-3,6.79c-3.69,1.77-8.69-4.43-19.62-12.07c-10.4-7.3-17-12-21.14-9.81c-6.34,3.34-5.37,22.49,0.76,24.9
	C250.56,57.61,255.47,53.54,257.66,51.72z"/>
<path class="st2" d="M265.21,40.4c3.37,1.17,1.54,20.51-2.26,21.14c-2,0.32-5-4.54-5.29-9.06C257.2,45.51,263.09,39.67,265.21,40.4z
	"/>
<path class="st2" d="M268.23,49.46c0.6,4,0.1,5.53,1.51,7.55c1.29,1.85,3.89,3.73,6,3c2.37-0.79,3-4.33,3-4.53
	c1.25-7.77-11.15-16.4-12.83-15.1C265.2,40.99,267.29,43.12,268.23,49.46z"/>
<path class="st2" d="M161.26,302.72c1.6-6.65,8.41-10.17,18-15.11c8.87-4.58,14-7.24,17.88-5.27c11.14,5.66,7.15,47.37-5.92,51
	c-3.49,1-6.77-1-11.78-4C172.41,325.05,158.59,313.8,161.26,302.72z"/>
<path class="st2" d="M148.74,298.61c-4,5.52-0.25,15.14,5.4,16.38c4.73,1,10.64-3.87,11.43-9.62c0.42-3-0.44-7.2-3.73-9.41
	C157.63,293.13,151.41,294.88,148.74,298.61z"/>
<path class="st2" d="M151.32,302.34c-0.43-6.83-6.54-11.47-15.11-18c-8-6-12.56-9.54-16.71-8.27c-11.94,3.67-15.17,45.44-2.91,51.26
	c3.27,1.56,6.83,0.16,12.29-2C136.5,322.42,152.05,313.7,151.32,302.34z"/>
<path class="st2" d="M62.95,385.31c23.79-14.5,42.41,8.2,92.83,12.07c51.53,4,66.91-17.08,100.37-1.51
	c25.45,11.84,40.55,35.15,37.74,39.25c-2,2.92-13.54-3.35-21.13,3c-3.26,2.74-2.63,5.17-6,6.8c-5.79,2.76-10.56-2.82-15.85,0
	c-4,2.15-3.11,6.4-6.79,7.54c-4.41,1.37-6.95-4.35-12.08-3.77c-6.33,0.71-7,9.94-12.83,10.57c-5.71,0.61-7.92-7.82-14.34-7.55
	c-5.84,0.25-6.46,7.35-12.83,8.3c-7.22,1.08-10.09-7.51-18.11-6.79c-6.28,0.56-7,6.05-12.83,6c-7,0-8.65-7.78-15.09-7.55
	c-6.29,0.22-7.66,7.71-13.59,7.55c-5.65-0.16-6.24-7-12.83-8.31c-7.41-1.43-11.06,6.4-17.36,4.53c-6-1.78-5.29-9.71-11.32-11.32
	s-9.85,5.61-15.09,3.78c-5.64-2-3.6-11.18-9.81-14.34s-12,3.79-18.11,0.75c-5.8-2.87-6.65-12-6.8-13.58
	C39.73,406.45,52.17,391.87,62.95,385.31z"/>
<path class="st1" d="M81.06,361.15c19.11-13.12,41.83,21.17,88.3,20.38c31.16-0.52,42-17,62.64-7.55
	c17.08,7.82,30.24,28.09,26.41,34.72c-1.15,2-4.25,3.44-6.79,3.77c-5.72,0.76-8.23-4.09-12.08-3c-4.94,1.38-4,10.28-8.3,11.32
	c-4.65,1.12-8.1-8.81-14.34-8.31c-5.22,0.42-5.76,7.59-11.32,8.31c-6.17,0.79-8.92-7.58-15.09-6.8c-5.6,0.72-6.17,8-11.33,8.31
	c-5.89,0.39-7.82-8.9-14.33-9.06s-9.16,8.64-14.34,7.55c-4.05-0.85-3.46-6.44-8.31-8.31c-5.37-2.06-8.66,3.81-15.09,2.27
	c-5.83-1.4-5.87-7-11.32-7.55s-7,4.44-12.08,3.78c-5.83-0.78-6-7.75-12.07-9.06c-6-1.28-9.17,4.59-14.34,3s-7.06-8.76-7.55-10.57
	C66.76,383.44,71.51,367.71,81.06,361.15z"/>
<path class="st2" d="M132.41,331.72c-19.17,17.75-38.56,25.81-37,29.43c1.05,2.41,9.52-1.27,14.34,3.78c3.55,3.72,1.15,8,4.53,10.56
	c4.47,3.38,10.61-2.68,16.6,0.76c4,2.3,2.88,5.94,6.8,7.55c4.81,2,7.79-3,13.58-1.51c5.19,1.34,4.95,5.89,9.81,6.79
	c5.1,0.94,6.58-3.83,12.83-3.77c6.52,0,8.88,5.27,12.83,3.77s3.07-7.19,6.79-8.3c4.2-1.26,7.83,5.2,11.32,3.77
	c3-1.22,1.49-6.35,5.29-9.06s8.3,0,9-1.51c1.1-2.11-8.1-8.41-16.6-15.84c-4.3-3.76-2.93-4.13-18.11-18.87
	c-23.58-22.9-24.79-26.54-30.19-26.42C147.27,313.02,146,319.12,132.41,331.72z"/>
<path class="st1" d="M125.59,330.97c9.57-2.82,12.57,4,28.68,4.52c13,0.39,15-3.53,24.15-0.75c1.59,0.48,12.73,4,17.36,14.34
	c1.57,3.49,3.57,10.38,0.75,12.83s-7.46-2.64-15.85-1.51c-7.7,1-8.79,5.95-14.34,5.28c-6-0.72-6.71-7.17-12.83-7.54
	c-4.89-0.3-6.09,3.72-10.56,3c-5.33-0.84-5.6-6.86-10.57-7.54c-4.76-0.66-6.45,4.6-12.07,4.53c-4.5-0.06-9.35-3.51-10.57-7.55
	C107.62,343.53,116.31,333.69,125.59,330.97z"/>
<path class="st2" d="M31.25,432.1c6.94-1,13.13,9.56,17.36,15.09c24.42,31.94,85.39,30.09,157,27.93c25.34-0.77,38-1.16,52.07-3.78
	c33.21-6.19,44.64-15.91,62.65-9.81c20.47,6.94,32,28.41,29.05,32.5c-2.5,3.5-16.54-0.82-21.13,3c-2.66,2.23-1.7,4-4.36,5.68
	c-5.7,3.68-11.7-2.32-17.52,1.12c-4.06,2.38-3.14,6.4-6.8,7.54c-4.4,1.37-6.94-4.35-12.07-3.77c-6.33,0.71-7,9.93-12.83,10.56
	s-7.93-7.81-14.34-7.54c-5.84,0.24-6.47,7.35-12.83,8.3c-7.22,1.08-10.09-7.51-18.11-6.79c-6.29,0.56-7,6-12.83,6
	c-6.71,0-8.09-7.36-15.1-7.54c-5.49-0.15-6.24,4.29-12.45,4.48s-6.83-4.18-14-5.24c-8.55-1.26-11.34,4.45-17.74,2.22
	c-6-2.09-5.39-7.74-10.94-9c-6.09-1.39-8.72,5-15.1,3.77c-5.86-1.14-5.88-6.87-12.45-8.35c-5.3-1.19-6.55,2.25-12.08,1.51
	c-7.65-1-7.74-8.16-15.85-10.56s-11.36,3.43-18.86,0.75s-6.13-8.88-14.34-12.83c-8.72-4.19-14,1-19.63-3.77
	c-4.51-3.89-2.3-8.37-7.54-12.83c-4.94-4.2-9.13-2-11.32-5.29C15.01,449.31,22.72,433.3,31.25,432.1z"/>
<path class="st1" d="M55.41,412.47c5.38,1,6.53,4.73,13.59,10.57c0,0,7.67,6.34,25.66,12.83c25.16,9.08,109.47,17.13,160.75-0.75
	c5.59-2,21.45-10.16,35.47-3.78c1.11,0.51,3.64,1.75,11.32,9.06c13.28,12.63,27.13,29.29,24.91,31.7
	c-1.56,1.68-8.21-6.48-18.12-5.29c-8.41,1-8.91,8-17.35,9.06c-9.21,1.19-13.26-6.48-20.38-3.77c-5.31,2-4.69,6.89-9.81,8.3
	c-6.14,1.69-8.81-4.8-16.61-5.28c-10.23-0.64-12.69,10.11-22.64,9.81c-9.19-0.28-10.38-9.57-19.62-9.81
	c-9.66-0.26-12.27,9.78-21.89,9c-7.4-0.56-7.81-6.66-15.84-7.55c-8.88-1-10.85,6.2-20.38,6s-10.79-7.43-20.38-7.54
	c-9.35-0.11-10.54,6.79-19.62,6.79c-9.82,0-10.56-8.07-22.64-10.57s-18.86,4.08-24.15-0.75c-4.05-3.7-1.23-8.55-6-12.83
	s-9-0.93-13.59-5.29c-2.62-2.51-3.51-6.2-5.28-13.58c-1.14-4.75-1.71-7.13-1.51-9.06C32.27,420.15,45.41,410.55,55.41,412.47z"/>
<path class="st0" d="M119.55,125.69c6.1-2.11,9.62,10.8,22.64,15.09c7.08,2.33,23.68,4.33,24.15,5.28c0.21,0.42,0.17,0.5,0.28,1.82
	c0.08,0.91,0.29,2.6,0.48,4.22s1.05,9.16-0.76,9.81c-1.34,0.49-2.72-3.31-5.28-3c-1.69,0.19-2.55,2-4.8,1.82
	c-0.43-0.03-0.85-0.14-1.24-0.31c-2.44-1-2.54-2.81-4.52-3s-2.62,1.72-4.53,1.51c-2.32-0.25-2.25-3.17-5.29-4.53
	c-2.53-1.13-3.59,0.45-6-0.75c-2.66-1.3-2.11-3.51-4.53-4.53c-2.63-1.11-4.08,1.16-6.79,0c-2.4-1-2.15-3.15-4.53-3.77
	c-2-0.52-3,0.75-4.53,0s-2-2.77-2.26-3.78c-1-4.19,1.2-8,2.26-9.81C115.92,128.85,117.31,126.46,119.55,125.69z"/>
<path class="st0" d="M422.95,123.42c-5.78-2.57-11.61,5.18-22.65,10.57c-16.68,8.15-27.85,2.32-32.45,10.56
	c-1.84,3.3-2.45,8.53,0,12.08c1.32,1.91,4,4,6.79,3.77s3-2.62,6-3c3.2-0.42,4.1,2,6.79,1.51c3.35-0.62,3-4.57,6.8-6
	s6.16,1.71,9.05,0s1.92-5.87,4.53-6.8c2.38-0.85,4.05,2.28,6.79,1.51s2.28-4.09,5.29-5.28c2.7-1.07,4.49,1.34,6.79,0
	c1.56-0.91,1.08-2.18,3-3.77c2.21-1.83,4-1.09,4.53-2.27c0.71-1.61-2-4.32-5.29-7.55C425.63,125.52,424.16,123.96,422.95,123.42z"/>
<path class="st2" d="M272.76,125.6c1,1,0.92,2.3,0.75,4.89c-0.1,1.63-0.16,2.44-0.75,3.05c-1.63,1.67-6.07,1.82-8.3,0
	c-1.04-0.92-1.6-2.27-1.51-3.66c0-0.95-0.12-3.51,2.26-4.89S271.18,124.05,272.76,125.6z"/>
<path class="st2" d="M274.27,124.18c0.65-0.95,1.69-1.64,3.77-3c4.07-2.71,6.1-4.06,7.55-3.78c5.22,1,7.88,20.18,3,22.64
	c-1.32,0.67-3.4-0.05-7.55-1.5c-3.23-1.13-4.84-1.7-6-3C272.36,132.32,272.05,127.73,274.27,124.18z"/>
<path class="st2" d="M261.41,123.6c-0.73-0.89-1.82-1.5-4-2.71c-4.27-2.37-6.4-3.56-7.82-3.16c-5.12,1.43-6.25,20.74-1.21,22.81
	c1.37,0.56,3.38-0.33,7.41-2.11c3.12-1.38,4.69-2.07,5.78-3.49C263.97,131.52,263.9,126.95,261.41,123.6z"/>
<path class="st2" d="M272.83,82.4c1,1,0.92,2.3,0.75,4.89c-0.11,1.63-0.16,2.44-0.75,3.05c-1.63,1.67-6.08,1.82-8.3,0
	c-1.04-0.92-1.6-2.27-1.51-3.66c-0.26-1.93,0.62-3.84,2.26-4.89C267.62,80.44,271.25,80.85,272.83,82.4z"/>
<path class="st2" d="M274.34,80.98c0.65-0.95,1.69-1.64,3.77-3c4.07-2.71,6.1-4.06,7.55-3.78c5.22,1,7.88,20.18,3,22.64
	c-1.32,0.67-3.4,0-7.55-1.5c-3.23-1.13-4.84-1.7-6-3C272.42,89.12,272.11,84.53,274.34,80.98z"/>
<path class="st2" d="M261.49,80.4c-0.73-0.89-1.82-1.5-4-2.71c-4.27-2.37-6.4-3.56-7.82-3.16c-5.13,1.43-6.25,20.74-1.21,22.81
	c1.37,0.56,3.38-0.33,7.41-2.11c3.12-1.38,4.69-2.07,5.77-3.49C264.04,88.32,263.98,83.75,261.49,80.4z"/>
</svg>
