<?xml version="1.0" encoding="utf-8"?>
<!-- Generator: Adobe Illustrator 25.0.0, SVG Export Plug-In . SVG Version: 6.00 Build 0)  -->
<svg version="1.1" id="Calque_1" xmlns="http://www.w3.org/2000/svg" xmlns:xlink="http://www.w3.org/1999/xlink" x="0px" y="0px"
	 viewBox="0 0 527.4 543.93" style="enable-background:new 0 0 527.4 543.93;" xml:space="preserve">
<style type="text/css">
	.st0{fill:#D8D8D8;}
	.st1{fill:#A0A0A0;}
	.st2{fill:#707070;}
</style>
<path class="st0" d="M21.49,394c-3.37,1.18-2.42,6.13-6.12,15.3c-6.08,15.11-14.63,16.54-15.29,27.54
	c-0.3,4.92,0.12,11.91,3.82,13.76c2.31,1.16,3.92-0.64,6.89,0.77c3.43,1.63,2.68,4.7,6.88,7.65c1.88,1.01,3.82,1.9,5.81,2.68
	c1.71,0.75,3.15,1.31,6.43,2.67c3.5,1.46,5.06,2.78,8.41,3.83c4.54,1.41,4.8,0.49,6.89,1.53c5.71,2.84,3.79,9.8,9.18,13
	c3.83,2.28,5.68-0.73,10.7,1.53s4.38,5.93,9.95,9.18c4.32,2.52,5.54,0.78,10.71,3.06c7.31,3.22,6.39,7.38,12.23,9.94
	c7.74,3.4,12-2.62,19.13,0.77c5.56,2.65,4,7.17,9.94,11.47c6.51,4.7,10.32,0.7,22.18,3.82c8.54,2.25,10.73,5.1,15.89,7.24
	c2.28,0.9,4.64,1.55,7.06,1.94c8.33,1.28,10.53-2.45,16.83-1.53c6.62,1,6,5.34,13,6.89c7.61,1.67,9.63-3.14,16.83-1.53
	c7.64,1.71,7.37,7.58,14.53,8.41c0,0,2.89,0.34,15.3-3.82c0,0,4.78-0.68,7.65-0.77c6.45-0.19,7.5,2.45,12.24,2.3
	c5.14-0.17,5.54-3.34,11.47-5.36c1.22-0.41,2.49-0.66,3.78-0.74c3.84-0.32,6,0.85,14.58,3.8c5,1.74,6.17,2,7.65,1.53
	c2.25-0.7,2.62-2.22,5.35-3.06c1.68-0.51,2.82-0.33,6.12,0c5.51,0.56,8.26,0.84,9.18,0.77c5.31-0.45,5.69-3,10.71-3.06
	c3.67,0,4,1.31,6.88,0.76c3.89-0.75,4-3.44,7.65-4.59c4.74-1.48,6.89,2.56,10.71,0.77c4.12-1.93,3.33-6.19,7.35-7.9
	c3.81-1.62,5.55,1.75,11,1c5.9-0.79,6-5,12.24-6.11c3.92-0.69,4.15,0.92,11.47,0.76c4.44-0.1,6.73-0.15,9.18-1.53
	c3.85-2.16,3.33-4.9,6.88-7.65c3.79-2.92,6.38-1.36,12.24-3.06c8-2.3,7-6.29,15.3-9.94c9.29-4.1,13.09,0.08,18.36-4.59
	c5.43-4.82,2.91-9.78,8.41-13c4.59-2.69,8.81-1.16,14.54-5.35s2.76-8.61,8.41-14.53s10.63-3.49,22.18-11.48
	c4.21-2.9,6.31-4.36,6.89-6.12c2.34-7.12-9.07-12.57-16.83-31.36c-2.89-7-2.06-8-3.83-9.18c-9.78-6.32-34.85,25.94-72.66,51.25
	c-31.42,21-60.19,29.6-74.2,33.66c-8.54,2.47-52.13,14.61-110.14,8.41c-19-2-67.59-7.69-117-35.95
	c-49.94-28.53-79.44-33.67-93.32-52C37,404.97,27.44,391.92,21.49,394z"/>
<path class="st1" d="M322.1,52.09c-8.8,7.56-24.26-8.47-49-10.71c-31.91-2.89-48.53,20-59.66,10.71
	c-6.86-5.74-11.47-23.58-16.83-44.37c-0.3-1.5-1.11-2.85-2.3-3.82c-2.21-1.6-4.94-0.69-9.18,0c-9.41,1.53-11.4-0.46-13,1.53
	c-1.32,1.65,0.16,6.46,3.06,16.06c1.38,4.59,1.93,5.51,3.06,10s1.15,5.82,2.29,9.17c0.28,0.82,0.69,1.94,3.83,8.42
	s4.81,9.92,6.12,12.24c2.55,4.51,5.41,6.37,4.59,8.41c-0.53,1.3-2,1.56-3.06,3.83c-0.13,0.28-0.24,0.57-0.33,0.87
	c-0.21,0.71-0.36,1.45-0.44,2.19c-0.1,1.18-0.14,10.35,0,22.94c9.11,35.86,14.77,49.22,18.36,54.31c2.35,3.09,3.69,6.83,3.83,10.71
	c0.09,3.32-0.99,6.57-3.06,9.18c-2.51,2.87-5.25,3.09-12.24,5.35c-3.92,1.27-7.63,3.12-11.48,4.59
	c-29.56,11.33-58.89,46.66-58.89,46.66c-8.54,11.92-92.4,129.21-104,153c-1.73,3.29-2.52,7-2.3,10.71
	c1.19,14,19.39,23.09,28.31,27.54c89.09,44.45,72.56,38.28,102.49,50.48c39.58,16.13,48.12,18.61,57.37,20.65
	c19.5,4.31,37,5.52,56.6,6.89c14.28,1,24.75,1.68,39,0.76c13.41-0.94,26.71-2.99,39.78-6.12c18.43-4.34,37-10.8,94.08-39
	c54.5-26.91,69.68-36.86,69.61-49.72c0-1.88-0.35-3.22-7.65-18.35c-9.61-19.91-14.41-29.86-19.12-38.25
	c-11.25-20-22.6-32.55-57.37-77.25c0,0-48-61.71-68.08-77.26c-4.59-3.56-9-7.36-13.77-10.71c-0.61-0.43-4-3.09-10.7-8.41
	c-2.46-1.95-3.71-2.95-4.59-4.59c-2.29-4.24-0.74-9.22,0-11.47c4-12.34,14.2-42.09,16.06-55.08c0.54-3.8,0.79-7.63,0.76-11.47
	c-0.09-3.91-0.49-5.46-0.76-9.95c0,0-0.33-5.38,0-12.23c0.69-14.46,9.62-18.49,10.71-35.95c0.46-7.45-0.6-11.51,1.53-19.89
	c1.44-5.7,3.38-9.53,1.53-11.48c-1.47-1.54-3.92-0.35-11.48,0c-8.1,0.38-8-0.85-9.94,0c-5.79,2.57-4.65,12.75-9.18,34.43
	C324.89,46.16,324,50.5,322.1,52.09z"/>
<path class="st0" d="M340.46,3.13c-3.88,2.9-4.28,6.53-6.88,18.36C328,46.84,325,49.05,327.46,55.92
	c3.6,9.95,14.59,15.7,16.06,14.54c0.47-0.37-0.1-1.39,0.76-3.06s1.83-1.63,2.3-3.06c0.47-1.43-0.36-1.69,0-3.06
	c0.49-1.91,2.14-1.74,3.06-3.83c0.77-1.75-0.13-2.46,0.76-3.82s2.3-1,3.06-2.3c0.91-1.57-0.7-2.77,0-5.35c0.41-1.5,1-1.39,1.53-3.06
	c0.35-1.19,0.18-1.78,0-4.59c-0.22-3.47-0.33-5.2,0-6.12c0.66-1.79,1.75-2.37,1.53-3.82c-0.17-1.14-0.93-1.45-0.76-2.3
	c0.22-1.12,1.61-1,2.29-2.29s-0.38-2,0-3.83s1.62-1.77,2.3-3.82c0.42-1.26,0.28-2.37,0-4.59c-0.33-2.63-0.81-2.89-0.77-4.59
	c0.06-2.35,1-2.92,0.77-3.83C359.56,0.23,347.54-2.15,340.46,3.13z"/>
<path class="st2" d="M238,117.92c-2.83,0.07-11,25.64,0.77,37.48c5.19,5.22,14.17,5.26,32.12,5.35c16.52,0.09,24.78,0.13,29.83-4.58
	c12.1-11.28,4.39-36.69,2.3-36.72c-1.73,0,0.8,17.45-9.94,25.24c-5.67,4.11-14.57,5.2-18.36,1.53c-3.41-3.29-2.11-9.88-3.06-9.94
	c-1.2-0.08-0.56,10.54-5.36,13s-14.38-4.2-19.88-11.47C238.72,127.64,239.72,117.83,238,117.92z"/>
<path class="st0" d="M270.85,160.7c-11.19,1.13-13.88-6.66-30.59-6.88c-4.7-0.06-11.52-0.07-13.77,3.83
	c-1.72,3,0.87,5.39,2.29,13.76c1.77,10.39-0.63,16,2.3,17.6c1.56,0.83,3.3-0.21,7.65-2.3c8.48-4.08,17.16-8.26,18.35-6.88
	c1.19,1.38-4.8,8.14-16.82,23.71C230,216.92,226.43,222.13,228,227.25c1.09,3.52,3.44,3.27,7.65,8.42c8,9.77,7,19.84,9.18,19.88
	c3,0.06,3.62-19.35,13-42.83c4.43-11.09,9-22.46,13.77-22.18c11.68,0.67,17.12,70.06,22.18,69.6c2-0.18,0.34-11.07,8.41-21.41
	c3.7-4.74,6-5,7.65-9.18c2.62-6.72-0.38-13.67-3.06-19.89c-3.43-7.59-8.08-14.57-13.78-20.65c-5.14-5.45-8.3-7.19-7.65-9.18
	c1-3.12,10.49-4.34,18.35-2.3c5.19,1.35,7.54,3.55,9.18,2.3c2-1.5-0.47-5.31,0-13.77c0.34-6.1,1.76-7,0.77-9.18
	c-2.32-5.18-12.55-6.21-19.89-5.35C281.08,153.01,281.05,159.68,270.85,160.7z"/>
<path class="st0" d="M189,3.92c5.44,2.94,4.94,7.72,10.71,23.71c6.61,18.32,10.75,21.68,8.41,28.3s-10.06,11.58-13.77,10.71
	c-1.12-0.27-2.17-0.8-3.06-1.53c-1.11-1-1-1.66-2.29-3.82c-1.83-3.11-2.63-2.79-3.06-4.59c-0.38-1.58,0.08-2.47-0.77-3.83
	c-0.53-0.84-0.8-0.64-1.53-1.53c-1.58-1.92-0.72-3.4-2.29-5.35c-0.64-0.79-0.82-0.6-1.53-1.53c-0.89-1.17-0.8-1.74-1.53-3.06
	c-1.06-1.92-1.78-1.68-2.3-3.06s0.22-1.69,0-3.82c-0.16-1.99-0.96-3.87-2.29-5.36c-0.81-0.84-1.19-0.79-1.53-1.53
	c-0.43-0.93-0.1-1.64,0-3.82c0-0.15,0.05-1.13,0-2.3c-0.1-2.25-0.15-3.38-0.76-4.59s-1.21-1.16-1.53-2.29c-0.4-1.35,0.3-1.8,0-3.06
	c-0.36-1.51-1.49-1.44-2.3-3.06c-0.78-1.43-0.78-3.16,0-4.59c1-1.45,3.21-1.48,4.59-1.53C180.92,2.05,185.3,1.92,189,3.92z"/>
<path class="st2" d="M224.19,179.06c3.27,2.2-22.27,40.14-45.89,93.32c-22.3,50.21-24.75,73.16-26.77,72.67
	c-4.53-1.13,21.6-110.93,62.72-157.57C215.41,186.16,222.61,178,224.19,179.06z"/>
<path class="st2" d="M204.31,179.06c-1.12-1.43-24.27,13.09-42.07,28.3c-37.56,32.09-57.86,72.86-55.08,75
	c3.47,2.63,44.89-52.88,88-93.31C198.36,185.97,205,179.92,204.31,179.06z"/>
<path class="st2" d="M311.4,186.71c-1.85,0.75,8.43,21.32,18.5,47c27.91,71.25,33.82,130,36.2,129.67
	c0.94-0.13-0.05-9.45-1.61-24.22c-3-28.2-4.49-42.3-8.85-59.85c-4.54-18.43-11.01-36.32-19.3-53.39
	C326.35,205.61,313.3,185.92,311.4,186.71z"/>
<path class="st2" d="M331.28,185.18c-2,2.2,13.93,19,26,33.66c41.48,50.24,51.31,91.47,54.31,90.26
	c4.19-1.7-17.57-81.37-63.49-114.74C346.05,192.86,333,183.35,331.28,185.18z"/>
<path class="st2" d="M271.62,202.77c2.64-0.41,35.18,172.82,31.36,173.64c-2.79,0.59-23.73-91.31-30.6-160.63
	C271.15,203.36,271.48,202.8,271.62,202.77z"/>
<path class="st2" d="M265.5,210.42c-10.68,28.05-39.61,154.21-33.66,155.28c5.24,0.94,25.58-97,32.13-128.5
	c6.71-32.3,5.8-34.31,5.35-34.43C268.49,202.56,266.34,208.2,265.5,210.42z"/>
<path class="st2" d="M213.49,104.1c1.91,0,3.31,12.49,6.11,37.48c1.7,15.13,1.36,16.67,0.77,16.83c-1.8,0.49-7.9-11.38-9.94-24.48
	C208.08,118.92,211.35,104.11,213.49,104.1z"/>
<path class="st2" d="M319.81,107.92c-2.94,0.12-5.93,53.82-2.3,54.3c2.74,0.37,9-29.58,3.83-50.48
	C320.41,108.03,320,107.92,319.81,107.92z"/>
</svg>
