<?xml version="1.0" standalone="no"?><!-- Generator: Gravit.io --><svg xmlns="http://www.w3.org/2000/svg" xmlns:xlink="http://www.w3.org/1999/xlink" style="isolation:isolate" viewBox="0 0 853.814 611.165" width="853.814" height="611.165"><defs><clipPath id="_clipPath_0F8B1sZNr7Kzj7HYA1tospSmQXV3PXNV"><rect width="853.814" height="611.165"/></clipPath></defs><g clip-path="url(#_clipPath_0F8B1sZNr7Kzj7HYA1tospSmQXV3PXNV)"><path d=" M 347.904 393.999 C 344.534 395.179 345.484 400.129 341.784 409.299 C 335.704 424.409 327.154 425.839 326.494 436.839 C 326.194 441.759 326.614 448.749 330.314 450.599 C 332.624 451.759 334.234 449.959 337.204 451.369 C 340.634 452.999 339.884 456.069 344.084 459.019 C 345.966 460.025 347.906 460.92 349.894 461.699 C 351.604 462.449 353.044 463.009 356.324 464.369 C 359.824 465.829 361.384 467.149 364.734 468.199 C 369.274 469.609 369.534 468.689 371.624 469.729 C 377.334 472.569 375.414 479.529 380.804 482.729 C 384.634 485.009 386.484 481.999 391.504 484.259 C 396.524 486.519 395.884 490.189 401.454 493.439 C 405.774 495.959 406.994 494.219 412.164 496.499 C 419.474 499.719 418.554 503.879 424.394 506.439 C 432.134 509.839 436.394 503.819 443.524 507.209 C 449.084 509.859 447.524 514.379 453.464 518.679 C 459.974 523.379 463.784 519.379 475.644 522.499 C 484.184 524.749 486.374 527.599 491.534 529.739 C 493.809 530.641 496.177 531.292 498.594 531.679 C 506.924 532.959 509.124 529.229 515.424 530.149 C 522.044 531.149 521.424 535.489 528.424 537.039 C 536.034 538.709 538.054 533.899 545.254 535.509 C 552.894 537.219 552.624 543.089 559.784 543.919 C 559.784 543.919 562.674 544.259 575.084 540.099 C 575.084 540.099 579.864 539.419 582.734 539.329 C 589.184 539.139 590.234 541.779 594.974 541.629 C 600.114 541.459 600.514 538.289 606.444 536.269 C 607.666 535.859 608.937 535.61 610.224 535.529 C 614.064 535.209 616.224 536.379 624.804 539.329 C 629.804 541.069 630.974 541.329 632.454 540.859 C 634.704 540.159 635.074 538.639 637.804 537.799 C 639.484 537.289 640.624 537.469 643.924 537.799 C 649.434 538.359 652.184 538.639 653.104 538.569 C 658.414 538.119 658.794 535.569 663.814 535.509 C 667.484 535.509 667.814 536.819 670.694 536.269 C 674.584 535.519 674.694 532.829 678.344 531.679 C 683.084 530.199 685.234 534.239 689.054 532.449 C 693.174 530.519 692.384 526.259 696.404 524.549 C 700.214 522.929 701.954 526.299 707.404 525.549 C 713.304 524.759 713.404 520.549 719.644 519.439 C 723.564 518.749 723.794 520.359 731.114 520.199 C 735.554 520.099 737.844 520.049 740.294 518.669 C 744.144 516.509 743.624 513.769 747.174 511.019 C 750.964 508.099 753.554 509.659 759.414 507.959 C 767.414 505.659 766.414 501.669 774.714 498.019 C 784.004 493.919 787.804 498.099 793.074 493.429 C 798.504 488.609 795.984 483.649 801.484 480.429 C 806.074 477.739 810.294 479.269 816.024 475.079 C 821.754 470.889 818.784 466.469 824.434 460.549 C 830.084 454.629 835.064 457.059 846.614 449.069 C 850.824 446.169 852.924 444.709 853.504 442.949 C 855.844 435.829 844.434 430.379 836.674 411.589 C 833.784 404.589 834.614 403.589 832.844 402.409 C 823.064 396.089 797.994 428.349 760.184 453.659 C 728.764 474.659 699.994 483.259 685.984 487.319 C 677.444 489.789 633.854 501.929 575.844 495.729 C 556.844 493.729 508.254 488.039 458.844 459.779 C 408.904 431.249 379.404 426.109 365.524 407.779 C 363.414 404.969 353.854 391.919 347.904 393.999 Z " fill="rgb(216,216,216)"/><path d=" M 648.514 52.089 C 639.714 59.649 624.254 43.619 599.514 41.379 C 567.604 38.489 550.984 61.379 539.854 52.089 C 532.994 46.349 528.384 28.509 523.024 7.719 C 522.722 6.218 521.91 4.868 520.724 3.899 C 518.514 2.299 515.784 3.209 511.544 3.899 C 502.134 5.429 500.144 3.439 498.544 5.429 C 497.224 7.079 498.704 11.889 501.604 21.489 C 502.984 26.079 503.534 26.999 504.664 31.489 C 505.794 35.979 505.814 37.309 506.954 40.659 C 507.234 41.479 507.644 42.599 510.784 49.079 C 513.924 55.559 515.594 58.999 516.904 61.319 C 519.454 65.829 522.314 67.689 521.494 69.729 C 520.964 71.029 519.494 71.289 518.434 73.559 C 518.302 73.841 518.192 74.131 518.104 74.429 C 517.889 75.144 517.742 75.877 517.664 76.619 C 517.564 77.799 517.524 86.969 517.664 99.559 C 526.774 135.419 532.434 148.779 536.024 153.869 C 538.378 156.957 539.716 160.699 539.854 164.579 C 539.943 167.903 538.86 171.153 536.794 173.759 C 534.284 176.629 531.544 176.849 524.554 179.109 C 520.634 180.379 516.924 182.229 513.074 183.699 C 483.514 195.029 454.184 230.359 454.184 230.359 C 445.644 242.279 361.784 359.569 350.184 383.359 C 348.458 386.654 347.663 390.356 347.884 394.069 C 349.074 408.069 367.274 417.159 376.194 421.609 C 465.284 466.059 448.754 459.889 478.684 472.089 C 518.264 488.219 526.804 490.699 536.054 492.739 C 555.554 497.049 573.054 498.259 592.654 499.629 C 606.934 500.629 617.404 501.309 631.654 500.389 C 645.06 499.45 658.365 497.403 671.434 494.269 C 689.864 489.929 708.434 483.469 765.514 455.269 C 820.014 428.359 835.194 418.409 835.124 405.549 C 835.124 403.669 834.774 402.329 827.474 387.199 C 817.864 367.289 813.064 357.339 808.354 348.949 C 797.104 328.949 785.754 316.399 750.984 271.699 C 750.984 271.699 702.984 209.989 682.904 194.439 C 678.314 190.879 673.904 187.079 669.134 183.729 C 668.524 183.299 665.134 180.639 658.434 175.319 C 655.974 173.369 654.724 172.369 653.844 170.729 C 651.554 166.489 653.104 161.509 653.844 159.259 C 657.844 146.919 668.044 117.169 669.904 104.179 C 670.442 100.38 670.696 96.546 670.664 92.709 C 670.574 88.799 670.174 87.249 669.904 82.759 C 669.904 82.759 669.574 77.379 669.904 70.529 C 670.594 56.069 679.524 52.039 680.614 34.579 C 681.074 27.129 680.014 23.069 682.144 14.689 C 683.584 8.989 685.524 5.159 683.674 3.209 C 682.204 1.669 679.754 2.859 672.194 3.209 C 664.094 3.589 664.194 2.359 662.254 3.209 C 656.464 5.779 657.604 15.959 653.074 37.639 C 651.304 46.159 650.414 50.499 648.514 52.089 Z " fill="rgb(160,160,160)"/><path d=" M 666.874 3.129 C 662.994 6.029 662.594 9.659 659.994 21.489 C 654.414 46.839 651.414 49.049 653.874 55.919 C 657.474 65.869 668.464 71.619 669.934 70.459 C 670.404 70.089 669.834 69.069 670.694 67.399 C 671.554 65.729 672.524 65.769 672.994 64.339 C 673.464 62.909 672.634 62.649 672.994 61.279 C 673.484 59.369 675.134 59.539 676.054 57.449 C 676.824 55.699 675.924 54.989 676.814 53.629 C 677.704 52.269 679.114 52.629 679.874 51.329 C 680.784 49.759 679.174 48.559 679.874 45.979 C 680.284 44.479 680.874 44.589 681.404 42.919 C 681.754 41.729 681.584 41.139 681.404 38.329 C 681.184 34.859 681.074 33.129 681.404 32.209 C 682.064 30.419 683.154 29.839 682.934 28.389 C 682.764 27.249 682.004 26.939 682.174 26.089 C 682.394 24.969 683.784 25.089 684.464 23.799 C 685.144 22.509 684.084 21.799 684.464 19.969 C 684.844 18.139 686.084 18.199 686.764 16.149 C 687.184 14.889 687.044 13.779 686.764 11.559 C 686.434 8.929 685.954 8.669 685.994 6.969 C 686.054 4.619 686.994 4.049 686.764 3.139 C 685.974 0.229 673.954 -2.151 666.874 3.129 Z " fill="rgb(216,216,216)"/><path d=" M 564.414 117.919 C 561.584 117.989 553.414 143.559 565.184 155.399 C 570.374 160.619 579.354 160.659 597.304 160.749 C 613.824 160.839 622.084 160.879 627.134 156.169 C 639.234 144.889 631.524 119.479 629.434 119.449 C 627.704 119.449 630.234 136.899 619.494 144.689 C 613.824 148.799 604.924 149.889 601.134 146.219 C 597.724 142.929 599.024 136.339 598.074 136.279 C 596.874 136.199 597.514 146.819 592.714 149.279 C 587.914 151.739 578.334 145.079 572.834 137.809 C 565.134 127.639 566.134 117.829 564.414 117.919 Z " fill="rgb(112,112,112)"/><path d=" M 597.264 160.699 C 586.074 161.829 583.384 154.039 566.674 153.819 C 561.974 153.759 555.154 153.749 552.904 157.649 C 551.184 160.649 553.774 163.039 555.194 171.409 C 556.964 181.799 554.564 187.409 557.494 189.009 C 559.054 189.839 560.794 188.799 565.144 186.709 C 573.624 182.629 582.304 178.449 583.494 179.829 C 584.684 181.209 578.694 187.969 566.674 203.539 C 556.414 216.919 552.844 222.129 554.414 227.249 C 555.504 230.769 557.854 230.519 562.064 235.669 C 570.064 245.439 569.064 255.509 571.244 255.549 C 574.244 255.609 574.864 236.199 584.244 212.719 C 588.674 201.629 593.244 190.259 598.014 190.539 C 609.694 191.209 615.134 260.599 620.194 260.139 C 622.194 259.959 620.534 249.069 628.604 238.729 C 632.304 233.989 634.604 233.729 636.254 229.549 C 638.874 222.829 635.874 215.879 633.194 209.659 C 629.764 202.066 625.109 195.09 619.414 189.009 C 614.274 183.559 611.114 181.819 611.764 179.829 C 612.764 176.709 622.254 175.489 630.114 177.529 C 635.304 178.879 637.654 181.079 639.294 179.829 C 641.294 178.329 638.824 174.519 639.294 166.059 C 639.634 159.959 641.054 159.059 640.064 156.879 C 637.744 151.699 627.514 150.669 620.174 151.529 C 607.494 153.009 607.464 159.679 597.264 160.699 Z " fill="rgb(216,216,216)"/><path d=" M 515.414 3.919 C 520.854 6.859 520.354 11.639 526.124 27.629 C 532.734 45.949 536.874 49.309 534.534 55.929 C 532.194 62.549 524.474 67.509 520.764 66.639 C 519.641 66.366 518.595 65.843 517.704 65.109 C 516.594 64.109 516.704 63.449 515.414 61.289 C 513.584 58.179 512.784 58.499 512.354 56.699 C 511.974 55.119 512.434 54.229 511.584 52.869 C 511.054 52.029 510.784 52.229 510.054 51.339 C 508.474 49.419 509.334 47.939 507.764 45.989 C 507.124 45.199 506.944 45.389 506.234 44.459 C 505.344 43.289 505.434 42.719 504.704 41.399 C 503.644 39.479 502.924 39.719 502.404 38.339 C 501.884 36.959 502.624 36.649 502.404 34.519 C 502.243 32.531 501.439 30.65 500.114 29.159 C 499.304 28.319 498.924 28.369 498.584 27.629 C 498.154 26.699 498.484 25.989 498.584 23.809 C 498.584 23.659 498.634 22.679 498.584 21.509 C 498.484 19.259 498.434 18.129 497.824 16.919 C 497.214 15.709 496.614 15.759 496.294 14.629 C 495.894 13.279 496.594 12.829 496.294 11.569 C 495.934 10.059 494.804 10.129 493.994 8.509 C 493.218 7.077 493.218 5.351 493.994 3.919 C 494.994 2.469 497.204 2.439 498.584 2.389 C 507.334 2.049 511.714 1.919 515.414 3.919 Z " fill="rgb(216,216,216)"/><path d=" M 550.604 179.059 C 553.874 181.259 528.334 219.199 504.714 272.379 C 482.414 322.589 479.964 345.539 477.944 345.049 C 473.414 343.919 499.544 234.119 540.664 187.479 C 541.824 186.159 549.024 177.999 550.604 179.059 Z " fill="rgb(112,112,112)"/><path d=" M 530.724 179.059 C 529.604 177.629 506.454 192.149 488.654 207.359 C 451.094 239.449 430.794 280.219 433.574 282.359 C 437.044 284.989 478.464 229.479 521.574 189.049 C 524.774 185.969 531.414 179.919 530.724 179.059 Z " fill="rgb(112,112,112)"/><path d=" M 637.814 186.709 C 635.964 187.459 646.244 208.029 656.314 233.709 C 684.224 304.959 690.134 363.709 692.514 363.379 C 693.454 363.249 692.464 353.929 690.904 339.159 C 687.904 310.959 686.414 296.859 682.054 279.309 C 677.513 260.884 671.044 242.989 662.754 225.919 C 652.764 205.609 639.714 185.919 637.814 186.709 Z " fill="rgb(112,112,112)"/><path d=" M 657.694 185.179 C 655.694 187.379 671.624 204.179 683.694 218.839 C 725.174 269.079 735.004 310.309 738.004 309.099 C 742.194 307.399 720.434 227.729 674.514 194.359 C 672.464 192.859 659.414 183.349 657.694 185.179 Z " fill="rgb(112,112,112)"/><path d=" M 598.034 202.769 C 600.674 202.359 633.214 375.589 629.394 376.409 C 626.604 376.999 605.664 285.099 598.794 215.779 C 597.564 203.359 597.894 202.799 598.034 202.769 Z " fill="rgb(112,112,112)"/><path d=" M 591.914 210.419 C 581.234 238.469 552.304 364.629 558.254 365.699 C 563.494 366.639 583.834 268.699 590.384 237.199 C 597.094 204.899 596.184 202.889 595.734 202.769 C 594.904 202.559 592.754 208.199 591.914 210.419 Z " fill="rgb(112,112,112)"/><path d=" M 539.904 104.099 C 541.814 104.099 543.214 116.589 546.014 141.579 C 547.714 156.709 547.374 158.249 546.784 158.409 C 544.984 158.899 538.884 147.029 536.844 133.929 C 534.494 118.919 537.764 104.109 539.904 104.099 Z " fill="rgb(112,112,112)"/><path d=" M 646.224 107.919 C 643.284 108.039 640.294 161.739 643.924 162.219 C 646.664 162.589 652.924 132.639 647.754 111.739 C 646.824 108.029 646.414 107.919 646.224 107.919 Z " fill="rgb(112,112,112)"/><path d=" M 22.204 489.479 C 7.464 492.189 1.884 520.119 0.314 527.969 C -0.086 529.969 -0.336 532.439 1.064 533.969 C 3.064 536.219 6.364 534.199 9.374 536.229 C 12.834 538.579 10.694 542.789 13.894 546.039 C 17.234 549.449 21.054 546.379 27.484 549.039 C 34.344 551.909 32.914 556.859 39.554 559.609 C 45.724 562.159 48.614 558.669 53.894 561.869 C 58.274 564.519 57.284 567.519 61.444 569.419 C 66.444 571.689 69.094 567.989 74.274 570.179 C 78.624 572.009 77.634 574.999 82.574 577.719 C 87.514 580.439 89.574 578.029 94.654 580.719 C 99.444 583.269 98.294 585.719 102.954 588.269 C 107.614 590.819 109.784 588.679 116.544 591.269 C 121.334 593.059 120.414 594.189 124.844 595.869 C 131.644 598.439 133.844 595.529 141.444 598.129 C 146.444 599.849 146.444 601.129 150.504 601.899 C 156.784 603.049 157.854 600.009 164.084 600.389 C 172.424 600.909 174.084 606.569 181.444 605.679 C 185.734 605.159 185.904 603.149 189.744 603.409 C 194.524 603.739 196.014 606.949 201.064 607.189 C 203.884 607.319 204.724 606.369 207.854 605.679 C 214.394 604.219 217.724 606.759 225.214 607.939 C 234.274 609.369 233.414 606.299 244.834 607.189 C 251.834 607.719 252.534 608.899 263.704 610.189 C 269.884 610.919 272.984 611.349 275.824 611.089 C 286.264 610.089 291.384 604.599 307.484 607.179 C 321.584 609.429 323.264 607.959 326.344 607.179 C 332.564 605.599 332.434 603.419 338.424 601.889 C 343.784 600.519 345.874 601.759 355.784 602.649 C 367.914 603.739 379.994 604.759 383.704 598.869 C 385.104 596.659 384.234 595.219 385.964 593.589 C 389.314 590.439 394.594 593.859 403.324 594.349 C 405.714 594.479 417.424 594.889 426.724 588.349 C 432.004 584.609 431.794 581.949 437.284 579.289 C 441.964 577.029 444.804 577.659 451.624 577.029 C 461.954 576.029 474.144 574.559 478.044 567.219 C 480.044 563.389 478.044 561.439 480.304 558.909 C 485.004 553.779 494.554 560.279 500.684 555.139 C 505.014 551.509 502.154 546.659 506.684 543.069 C 511.684 539.129 516.814 543.459 523.284 540.069 C 528.624 537.249 531.984 530.649 532.344 524.969 C 532.894 516.259 526.094 514.479 521.774 500.069 C 519.144 491.259 520.454 487.839 518.004 486.479 C 510.564 482.359 488.774 508.479 486.304 511.389 C 440.594 565.169 296.574 567.059 279.514 567.239 C 213.874 567.919 90.124 555.919 50.124 507.589 C 46.414 503.079 34.264 487.259 22.204 489.479 Z " fill="rgb(216,216,216)"/><path d=" M 316.534 56.279 C 315.364 57.879 316.794 60.159 317.294 63.069 C 318.574 70.609 312.724 77.529 308.984 81.939 C 297.584 95.409 261.984 105.769 237.294 89.489 C 231.294 85.489 216.734 71.619 216.914 59.299 C 217.063 58.24 216.794 57.164 216.164 56.299 C 212.354 52.189 198.224 64.489 175.404 67.619 C 166.404 68.859 167.634 67.059 163.334 68.369 C 161.97 68.773 160.663 69.348 159.444 70.079 C 150.614 75.499 128.614 136.299 128.614 136.299 C 125.424 145.129 113.874 176.129 121.064 180.829 C 121.664 181.219 122.944 181.829 123.334 183.089 C 124.704 187.749 112.204 194.209 113.524 196.669 C 114.294 198.119 117.794 196.399 123.334 198.179 C 125.254 198.799 125.274 199.179 130.124 201.959 C 135.454 205.039 138.994 207.089 143.704 208.749 C 146.168 209.668 148.69 210.423 151.254 211.009 C 153.221 211.474 155.232 211.729 157.254 211.769 C 160.154 211.769 160.584 211.259 161.784 211.769 C 164.674 212.989 165.274 217.309 165.964 217.129 C 166.344 217.029 166.314 215.729 166.304 215.539 C 166.124 209.279 163.604 205.769 164.804 202.709 C 165.314 201.389 165.964 201.599 167.804 199.709 C 172.154 195.249 173.334 189.219 174.604 182.349 C 175.604 176.669 175.424 174.159 176.114 174.049 C 177.114 173.899 178.854 182.189 181.394 191.409 C 186.734 210.839 191.964 220.869 188.184 223.859 C 187.53 224.346 186.739 224.613 185.924 224.619 C 179.574 225.019 107.704 255.569 22.154 460.839 C 17.104 472.939 8.954 493.269 17.624 510.649 C 19.444 514.309 25.674 525.179 64.414 540.839 C 71.524 543.719 89.414 550.679 121.014 558.199 C 151.059 565.353 181.619 570.135 212.414 572.499 C 224.494 573.439 233.414 573.759 240.344 574.009 C 276.344 575.289 317.444 576.519 366.344 567.219 C 385.342 563.724 404.022 558.674 422.194 552.119 C 434.304 547.689 443.364 543.559 449.364 540.799 C 467.892 532.259 485.796 522.425 502.944 511.369 C 509.824 506.949 513.264 504.739 514.274 503.819 C 560.734 461.059 364.414 226.579 349.744 227.599 C 348.683 227.746 347.606 227.474 346.744 226.839 C 343.744 224.209 348.014 216.029 352.024 204.199 C 356.954 189.689 358.364 179.099 359.574 179.299 C 359.964 179.359 359.874 180.459 360.324 183.819 C 361.264 190.759 361.764 194.529 364.104 197.409 C 366.734 200.649 369.584 199.549 370.894 202.689 C 371.764 204.789 370.974 206.229 372.404 208.689 C 373.094 209.899 374.004 211.489 375.404 211.689 C 377.984 212.089 378.924 207.359 384.464 204.899 C 386.194 204.119 388.254 203.239 389.744 204.139 C 391.234 205.039 391.244 207.539 393.044 208.139 C 393.712 208.3 394.415 208.236 395.044 207.959 C 397.824 206.959 406.234 203.269 405.524 200.519 C 405.394 200.019 404.914 199.389 403.344 198.899 C 404.283 198.284 405.29 197.777 406.344 197.389 C 414.124 194.579 420.244 200.269 423.704 197.389 C 425.574 195.829 425.704 192.559 425.214 190.599 C 424.214 186.509 419.784 185.919 419.214 182.289 C 418.734 179.429 420.984 176.909 421.484 176.289 C 424.554 172.239 422.354 157.859 403.364 116.669 C 403.364 116.669 398.984 107.139 377.704 73.669 C 376.218 71.214 374.159 69.155 371.704 67.669 C 367.484 65.199 363.454 65.469 360.374 65.409 C 352.234 65.239 353.174 62.849 330.194 57.099 C 322.084 55.019 317.974 54.319 316.534 56.279 Z " fill="rgb(160,160,160)"/><path d=" M 214.654 56.279 C 213.484 55.979 212.654 57.709 208.654 61.559 C 204.964 65.069 204.104 65.099 203.374 66.839 C 201.994 70.109 203.484 73.629 204.124 75.149 C 206.364 80.429 209.454 80.069 212.424 84.959 C 215.944 90.739 213.014 93.549 216.204 97.029 C 219.984 101.179 224.544 97.639 231.294 101.559 C 238.044 105.479 236.774 110.919 242.574 112.919 C 247.794 114.659 249.484 110.429 256.914 111.409 C 263.914 112.329 264.814 116.359 270.494 115.939 C 275.224 115.589 275.184 112.759 281.064 111.409 C 288.164 109.779 290.234 113.409 295.404 111.409 C 300.774 109.299 299.684 104.889 305.214 102.359 C 311.594 99.429 316.044 103.909 319.554 100.849 C 323.274 97.609 319.134 91.849 323.324 86.509 C 326.764 82.119 330.514 83.169 332.384 79.709 C 336.664 71.789 321.794 53.899 318.044 55.559 C 316.044 56.439 318.924 61.889 316.534 69.899 C 314.224 77.679 308.634 82.299 304.464 85.749 C 293.164 94.88 278.987 99.697 264.464 99.339 C 264.464 99.339 239.824 97.469 224.464 76.699 C 220.304 71.069 218.044 68.019 216.914 63.109 C 216.154 59.779 216.124 56.649 214.654 56.279 Z " fill="rgb(216,216,216)"/><path d=" M 257.664 106.839 C 262.864 102.539 262.734 99.329 266.724 94.769 C 272.084 88.649 282.084 83.249 287.104 86.469 C 292.124 89.689 290.264 100.789 290.104 101.559 C 289.494 104.819 289.004 107.429 287.104 108.349 C 283.414 110.119 278.414 103.919 267.484 96.279 C 257.084 88.979 250.484 84.279 246.344 86.469 C 240.004 89.809 240.974 108.959 247.104 111.369 C 250.564 112.729 255.474 108.659 257.664 106.839 Z " fill="rgb(112,112,112)"/><path d=" M 265.214 95.519 C 268.584 96.689 266.754 116.029 262.954 116.659 C 260.954 116.979 257.954 112.119 257.664 107.599 C 257.204 100.629 263.094 94.789 265.214 95.519 Z " fill="rgb(112,112,112)"/><path d=" M 268.234 104.579 C 268.834 108.579 268.334 110.109 269.744 112.129 C 271.034 113.979 273.634 115.859 275.744 115.129 C 278.114 114.339 278.744 110.799 278.744 110.599 C 279.994 102.829 267.594 94.199 265.914 95.499 C 265.204 96.109 267.294 98.239 268.234 104.579 Z " fill="rgb(112,112,112)"/><path d=" M 161.264 357.839 C 162.864 351.189 169.674 347.669 179.264 342.729 C 188.134 338.149 193.264 335.489 197.144 337.459 C 208.284 343.119 204.294 384.829 191.224 388.459 C 187.734 389.459 184.454 387.459 179.444 384.459 C 172.414 380.169 158.594 368.919 161.264 357.839 Z " fill="rgb(112,112,112)"/><path d=" M 148.744 353.729 C 144.744 359.249 148.494 368.869 154.144 370.109 C 158.874 371.109 164.784 366.239 165.574 360.489 C 165.994 357.489 165.134 353.289 161.844 351.079 C 157.634 348.249 151.414 349.999 148.744 353.729 Z " fill="rgb(112,112,112)"/><path d=" M 151.324 357.459 C 150.894 350.629 144.784 345.989 136.214 339.459 C 128.264 333.459 123.654 329.919 119.504 331.189 C 107.564 334.859 104.334 376.629 116.594 382.449 C 119.864 384.009 123.424 382.609 128.884 380.449 C 136.504 377.539 152.054 368.819 151.324 357.459 Z " fill="rgb(112,112,112)"/><path d=" M 62.954 440.429 C 86.744 425.929 105.364 448.629 155.784 452.499 C 207.314 456.499 222.694 435.419 256.154 450.989 C 281.604 462.829 296.704 486.139 293.894 490.239 C 291.894 493.159 280.354 486.889 272.764 493.239 C 269.504 495.979 270.134 498.409 266.764 500.039 C 260.974 502.799 256.204 497.219 250.914 500.039 C 246.914 502.189 247.804 506.439 244.124 507.579 C 239.714 508.949 237.174 503.229 232.044 503.809 C 225.714 504.519 225.094 513.749 219.214 514.379 C 213.504 514.989 211.294 506.559 204.874 506.829 C 199.034 507.079 198.414 514.179 192.044 515.129 C 184.824 516.209 181.954 507.619 173.934 508.339 C 167.654 508.899 166.934 514.389 161.104 514.339 C 154.104 514.339 152.454 506.559 146.014 506.789 C 139.574 507.019 138.354 514.499 132.424 514.339 C 126.774 514.179 126.184 507.339 119.594 506.029 C 112.184 504.599 108.534 512.429 102.234 510.559 C 96.234 508.779 96.944 500.849 90.914 499.239 C 84.884 497.629 81.064 504.849 75.824 503.019 C 70.184 501.019 72.224 491.839 66.014 488.679 C 59.804 485.519 54.014 492.469 47.904 489.429 C 42.104 486.559 41.254 477.429 41.104 475.849 C 39.734 461.569 52.174 446.989 62.954 440.429 Z " fill="rgb(112,112,112)"/><path d=" M 81.064 416.269 C 100.174 403.149 122.894 437.439 169.364 436.649 C 200.524 436.129 211.314 419.649 232.004 429.099 C 249.084 436.919 262.244 457.189 258.414 463.819 C 257.264 465.819 254.164 467.259 251.624 467.589 C 245.904 468.349 243.394 463.499 239.544 464.589 C 234.604 465.969 235.544 474.869 231.244 475.909 C 226.594 477.029 223.144 467.099 216.904 467.599 C 211.684 468.019 211.144 475.189 205.584 475.909 C 199.414 476.699 196.664 468.329 190.494 469.109 C 184.894 469.829 184.324 477.109 179.164 477.419 C 173.274 477.809 171.344 468.519 164.834 468.359 C 158.324 468.199 155.674 476.999 150.494 475.909 C 146.494 475.059 147.034 469.469 142.184 467.599 C 136.814 465.539 133.524 471.409 127.094 469.869 C 121.264 468.469 121.224 462.869 115.774 462.319 C 110.324 461.769 108.774 466.759 103.694 466.099 C 97.864 465.319 97.694 458.349 91.624 457.039 C 85.624 455.759 82.454 461.629 77.284 460.039 C 72.114 458.449 70.224 451.279 69.734 449.469 C 66.764 438.559 71.514 422.829 81.064 416.269 Z " fill="rgb(160,160,160)"/><path d=" M 132.414 386.839 C 113.244 404.589 93.854 412.649 95.414 416.269 C 96.464 418.679 104.934 414.999 109.754 420.049 C 113.304 423.769 110.904 428.049 114.284 430.609 C 118.754 433.989 124.894 427.929 130.884 431.369 C 134.884 433.669 133.764 437.309 137.684 438.919 C 142.494 440.919 145.474 435.919 151.264 437.409 C 156.454 438.749 156.264 443.299 161.074 444.199 C 166.174 445.139 167.654 440.369 173.904 440.429 C 180.424 440.429 182.784 445.699 186.734 444.199 C 190.684 442.699 189.804 437.009 193.524 435.899 C 197.724 434.639 201.354 441.099 204.844 439.669 C 207.844 438.449 206.334 433.319 210.134 430.609 C 213.934 427.899 218.434 430.609 219.184 429.099 C 220.284 426.989 211.084 420.689 202.584 413.259 C 198.284 409.499 199.654 409.129 184.474 394.389 C 160.894 371.489 159.684 367.849 154.284 367.969 C 147.274 368.139 146.004 374.239 132.414 386.839 Z " fill="rgb(112,112,112)"/><path d=" M 125.594 386.089 C 135.164 383.269 138.164 390.089 154.274 390.609 C 167.274 390.999 169.274 387.079 178.424 389.859 C 180.014 390.339 191.154 393.859 195.784 404.199 C 197.354 407.689 199.354 414.579 196.534 417.029 C 193.714 419.479 189.074 414.389 180.684 415.519 C 172.984 416.519 171.894 421.469 166.344 420.799 C 160.344 420.079 159.634 413.629 153.514 413.259 C 148.624 412.959 147.424 416.979 142.954 416.259 C 137.624 415.419 137.354 409.399 132.384 408.719 C 127.624 408.059 125.934 413.319 120.314 413.249 C 115.814 413.189 110.964 409.739 109.744 405.699 C 107.624 398.649 116.314 388.809 125.594 386.089 Z " fill="rgb(160,160,160)"/><path d=" M 31.254 487.219 C 38.194 486.219 44.384 496.779 48.614 502.309 C 73.034 534.249 134.004 532.399 205.614 530.239 C 230.954 529.469 243.614 529.079 257.684 526.459 C 290.894 520.269 302.324 510.549 320.334 516.649 C 340.804 523.589 352.334 545.059 349.384 549.149 C 346.884 552.649 332.844 548.329 328.254 552.149 C 325.594 554.379 326.554 556.149 323.894 557.829 C 318.194 561.509 312.194 555.509 306.374 558.949 C 302.314 561.329 303.234 565.349 299.574 566.489 C 295.174 567.859 292.634 562.139 287.504 562.719 C 281.174 563.429 280.504 572.649 274.674 573.279 C 268.844 573.909 266.744 565.469 260.334 565.739 C 254.494 565.979 253.864 573.089 247.504 574.039 C 240.284 575.119 237.414 566.529 229.394 567.249 C 223.104 567.809 222.394 573.249 216.564 573.249 C 209.854 573.249 208.474 565.889 201.464 565.709 C 195.974 565.559 195.224 569.999 189.014 570.189 C 182.804 570.379 182.184 566.009 175.014 564.949 C 166.464 563.689 163.674 569.399 157.274 567.169 C 151.274 565.079 151.884 559.429 146.334 558.169 C 140.244 556.779 137.614 563.169 131.234 561.939 C 125.374 560.799 125.354 555.069 118.784 553.589 C 113.484 552.399 112.234 555.839 106.704 555.099 C 99.054 554.099 98.964 546.939 90.854 544.539 C 82.744 542.139 79.494 547.969 71.994 545.289 C 64.494 542.609 65.864 536.409 57.654 532.459 C 48.934 528.269 43.654 533.459 38.024 528.689 C 33.514 524.799 35.724 520.319 30.484 515.859 C 25.544 511.659 21.354 513.859 19.164 510.569 C 15.014 504.429 22.724 488.419 31.254 487.219 Z " fill="rgb(112,112,112)"/><path d=" M 55.414 467.589 C 60.794 468.589 61.944 472.319 69.004 478.159 C 69.004 478.159 76.674 484.499 94.664 490.989 C 119.824 500.069 204.134 508.119 255.414 490.239 C 261.004 488.239 276.864 480.079 290.884 486.459 C 291.994 486.969 294.524 488.209 302.204 495.519 C 315.484 508.149 329.334 524.809 327.114 527.219 C 325.554 528.899 318.904 520.739 308.994 521.929 C 300.584 522.929 300.084 529.929 291.644 530.989 C 282.434 532.179 278.384 524.509 271.264 527.219 C 265.954 529.219 266.574 534.109 261.454 535.519 C 255.314 537.209 252.644 530.719 244.844 530.239 C 234.614 529.599 232.154 540.349 222.204 540.049 C 213.014 539.769 211.824 530.479 202.584 530.239 C 192.924 529.979 190.314 540.019 180.694 539.239 C 173.294 538.679 172.884 532.579 164.854 531.689 C 155.974 530.689 154.004 537.889 144.474 537.689 C 134.944 537.489 133.684 530.259 124.094 530.149 C 114.744 530.039 113.554 536.939 104.474 536.939 C 94.654 536.939 93.914 528.869 81.834 526.369 C 69.754 523.869 62.974 530.449 57.684 525.619 C 53.634 521.919 56.454 517.069 51.684 512.789 C 46.914 508.509 42.684 511.859 38.094 507.499 C 35.474 504.989 34.584 501.299 32.814 493.919 C 31.674 489.169 31.104 486.789 31.304 484.859 C 32.274 475.269 45.414 465.669 55.414 467.589 Z " fill="rgb(160,160,160)"/><path d=" M 119.554 180.809 C 125.654 178.699 129.174 191.609 142.194 195.899 C 149.274 198.229 165.874 200.229 166.344 201.179 C 166.554 201.599 166.514 201.679 166.624 202.999 C 166.704 203.909 166.914 205.599 167.104 207.219 C 167.294 208.839 168.154 216.379 166.344 217.029 C 165.004 217.519 163.624 213.719 161.064 214.029 C 159.374 214.219 158.514 216.029 156.264 215.849 C 155.836 215.815 155.417 215.71 155.024 215.539 C 152.584 214.539 152.484 212.729 150.504 212.539 C 148.524 212.349 147.884 214.259 145.974 214.049 C 143.654 213.799 143.724 210.879 140.684 209.519 C 138.154 208.389 137.094 209.969 134.684 208.769 C 132.024 207.469 132.574 205.259 130.154 204.239 C 127.524 203.129 126.074 205.399 123.364 204.239 C 120.964 203.239 121.214 201.089 118.834 200.469 C 116.834 199.949 115.834 201.219 114.304 200.469 C 112.774 199.719 112.304 197.699 112.044 196.689 C 111.044 192.499 113.244 188.689 114.304 186.879 C 115.924 183.969 117.314 181.579 119.554 180.809 Z " fill="rgb(216,216,216)"/><path d=" M 422.954 178.539 C 417.174 175.969 411.344 183.719 400.304 189.109 C 383.624 197.259 372.454 191.429 367.854 199.669 C 366.014 202.969 365.404 208.199 367.854 211.749 C 369.174 213.659 371.854 215.749 374.644 215.519 C 377.434 215.289 377.644 212.899 380.644 212.519 C 383.844 212.099 384.744 214.519 387.434 214.029 C 390.784 213.409 390.434 209.459 394.234 208.029 C 398.034 206.599 400.394 209.739 403.234 208.029 C 406.074 206.319 405.154 202.159 407.764 201.229 C 410.144 200.379 411.764 203.509 414.554 202.739 C 417.344 201.969 416.834 198.649 419.844 197.459 C 422.544 196.389 424.334 198.799 426.634 197.459 C 428.194 196.549 427.714 195.279 429.634 193.689 C 431.844 191.859 433.634 192.599 434.164 191.419 C 434.874 189.809 432.164 187.099 428.874 183.869 C 425.584 180.639 424.164 179.079 422.954 178.539 Z " fill="rgb(216,216,216)"/><path d=" M 272.764 180.719 C 273.764 181.719 273.684 183.019 273.514 185.609 C 273.414 187.239 273.354 188.049 272.764 188.659 C 271.134 190.329 266.694 190.479 264.464 188.659 C 263.423 187.737 262.866 186.387 262.954 184.999 C 262.954 184.049 262.834 181.489 265.214 180.109 C 267.594 178.729 271.184 179.169 272.764 180.719 Z " fill="rgb(112,112,112)"/><path d=" M 274.274 179.299 C 274.924 178.349 275.964 177.659 278.044 176.299 C 282.114 173.589 284.144 172.239 285.594 172.519 C 290.814 173.519 293.474 192.699 288.594 195.159 C 287.274 195.829 285.194 195.109 281.044 193.659 C 277.814 192.529 276.204 191.959 275.044 190.659 C 272.358 187.437 272.047 182.854 274.274 179.299 Z " fill="rgb(112,112,112)"/><path d=" M 261.414 178.719 C 260.684 177.829 259.594 177.219 257.414 176.009 C 253.144 173.639 251.014 172.449 249.594 172.849 C 244.474 174.279 243.344 193.589 248.384 195.659 C 249.754 196.219 251.764 195.329 255.794 193.549 C 258.914 192.169 260.484 191.479 261.574 190.059 C 263.966 186.638 263.901 182.071 261.414 178.719 L 261.414 178.719 Z " fill="rgb(112,112,112)"/><path d=" M 272.834 137.519 C 273.834 138.519 273.754 139.819 273.584 142.409 C 273.474 144.039 273.424 144.849 272.834 145.459 C 271.204 147.129 266.754 147.279 264.534 145.459 C 263.493 144.537 262.936 143.187 263.024 141.799 C 262.759 139.868 263.641 137.959 265.284 136.909 C 267.624 135.559 271.254 135.969 272.834 137.519 Z " fill="rgb(112,112,112)"/><path d=" M 274.344 136.099 C 274.994 135.149 276.034 134.459 278.114 133.099 C 282.184 130.389 284.214 129.039 285.664 129.319 C 290.884 130.319 293.544 149.499 288.664 151.959 C 287.344 152.629 285.264 151.959 281.114 150.459 C 277.884 149.329 276.274 148.759 275.114 147.459 C 272.425 144.238 272.114 139.653 274.344 136.099 Z " fill="rgb(112,112,112)"/><path d=" M 261.494 135.519 C 260.764 134.629 259.674 134.019 257.494 132.809 C 253.224 130.439 251.094 129.249 249.674 129.649 C 244.544 131.079 243.424 150.389 248.464 152.459 C 249.834 153.019 251.844 152.129 255.874 150.349 C 258.994 148.969 260.564 148.279 261.644 146.859 C 264.045 143.442 263.984 138.871 261.494 135.519 Z " fill="rgb(112,112,112)"/></g></svg>