<?xml version="1.0" standalone="no"?><!-- Generator: Gravit.io --><svg xmlns="http://www.w3.org/2000/svg" xmlns:xlink="http://www.w3.org/1999/xlink" style="isolation:isolate" viewBox="0 0 142.551 296" width="142.551" height="296"><defs><clipPath id="_clipPath_hm45cQj1RJRNniKMYzRLdH6E8gcRoaFI"><rect width="142.551" height="296"/></clipPath></defs><g clip-path="url(#_clipPath_hm45cQj1RJRNniKMYzRLdH6E8gcRoaFI)"><path d=" M 27.719 249.6 L 27.719 249.6 L 27.719 249.6 Q 28.119 244 29.719 243.2 L 29.719 243.2 L 29.719 243.2 Q 31.319 242.4 32.719 243 L 32.719 243 L 32.719 243 Q 34.119 243.6 47.319 244.8 L 47.319 244.8 L 47.319 244.8 Q 50.919 249.2 53.319 250 L 53.319 250 L 53.319 250 Q 62.919 259.6 66.119 259.6 L 66.119 259.6 L 66.119 259.6 Q 69.319 260 69.119 265.4 L 69.119 265.4 L 69.119 265.4 Q 68.919 270.8 65.319 275.2 L 65.319 275.2 L 65.319 275.2 Q 59.719 287.6 50.519 294.4 L 50.519 294.4 L 50.519 294.4 Q 46.119 296 43.719 296 L 43.719 296 L 43.719 296 Q 41.319 296 30.719 294.4 L 30.719 294.4 L 30.719 294.4 Q 20.119 292.8 18.519 288 L 18.519 288 L 18.519 278.8 L 18.519 278.8 Q 18.519 271.2 20.319 270 L 20.319 270 L 20.319 270 Q 22.119 268.8 22.119 263.6 L 22.119 263.6 L 23.319 255.2 L 23.319 255.2 Q 26.119 253.2 27.719 249.6 Z  M 89.319 62 L 89.319 62 L 89.319 62 Q 91.319 55.2 91.519 54.2 L 91.519 54.2 L 91.519 54.2 Q 91.719 53.2 92.519 51.6 L 92.519 51.6 L 92.519 51.6 Q 95.719 45.2 95.719 42.8 L 95.719 42.8 L 95.719 37.2 L 95.719 37.2 Q 95.719 34.4 95.319 34 L 95.319 34 L 95.319 34 Q 94.919 33.6 91.719 33.6 L 91.719 33.6 L 91.719 33.6 Q 85.719 34.8 75.519 39.4 L 75.519 39.4 L 75.519 39.4 Q 65.319 44 61.119 47.8 L 61.119 47.8 L 61.119 47.8 Q 56.919 51.6 50.119 62.6 L 50.119 62.6 L 50.119 62.6 Q 43.319 73.6 42.719 77.2 L 42.719 77.2 L 42.719 77.2 Q 42.119 80.8 40.719 82.8 L 40.719 82.8 L 40.719 82.8 Q 39.319 84.8 37.919 92.2 L 37.919 92.2 L 37.919 92.2 Q 36.519 99.6 36.519 101.8 L 36.519 101.8 L 36.519 101.8 Q 36.519 104 38.519 104 L 38.519 104 L 38.519 104 Q 42.919 104.8 35.719 107.2 L 35.719 107.2 L 35.719 107.2 Q 34.519 108 31.319 108 L 31.319 108 L 31.319 108 Q 28.119 108 27.319 107.2 L 27.319 107.2 L 27.319 107.2 Q 19.719 107.2 18.519 105.2 L 18.519 105.2 L 18.519 105.2 Q 14.119 105.2 8.919 101.8 L 8.919 101.8 L 8.919 101.8 Q 3.719 98.4 2.119 94 L 2.119 94 L 2.119 94 Q -3.481 77.6 5.719 63.2 L 5.719 63.2 L 5.719 63.2 Q 10.919 48 16.919 43.6 L 16.919 43.6 L 16.919 43.6 Q 23.719 29.2 25.119 27.8 L 25.119 27.8 L 25.119 27.8 Q 26.519 26.4 27.719 26 L 27.719 26 L 27.719 26 Q 29.319 22 29.319 21 L 29.319 21 L 29.319 21 Q 29.319 20 32.919 17.8 L 32.919 17.8 L 32.919 17.8 Q 36.519 15.6 38.519 14 L 38.519 14 L 38.519 14 Q 42.519 10.8 42.519 9.2 L 42.519 9.2 L 42.519 9.2 Q 45.319 9.2 47.719 8 L 47.719 8 L 47.719 8 Q 53.319 6.8 54.919 4 L 54.919 4 L 54.919 4 Q 57.319 4 64.919 1.6 L 64.919 1.6 L 64.919 1.6 Q 72.519 -0.8 85.319 0.4 L 85.319 0.4 L 85.319 0.4 Q 87.319 1.2 92.919 4.2 L 92.919 4.2 L 92.919 4.2 Q 98.519 7.2 99.319 7.8 L 99.319 7.8 L 99.319 7.8 Q 100.119 8.4 101.319 8.8 L 101.319 8.8 L 101.319 8.8 Q 104.519 10 106.919 13.2 L 106.919 13.2 L 106.919 13.2 Q 110.519 14 113.719 16 L 113.719 16 L 113.719 16 Q 117.719 19.6 123.719 21.6 L 123.719 21.6 L 130.519 25.6 L 130.519 25.6 Q 135.319 26.4 138.519 26.8 L 138.519 26.8 L 138.519 26.8 Q 140.119 26.8 142.519 32.4 L 142.519 32.4 L 142.519 32.4 Q 143.319 53.2 124.119 88.4 L 124.119 88.4 L 124.119 88.4 Q 122.919 91.2 119.919 97 L 119.919 97 L 119.919 97 Q 116.919 102.8 116.519 105.2 L 116.519 105.2 L 116.519 105.2 Q 112.519 114 94.919 150.8 L 94.919 150.8 L 94.919 150.8 Q 77.319 187.6 74.519 192.8 L 74.519 192.8 L 74.519 192.8 Q 74.119 192.8 72.519 195 L 72.519 195 L 72.519 195 Q 70.919 197.2 70.119 197.6 L 70.119 197.6 L 68.119 202 L 68.119 202 Q 68.119 204 63.919 205 L 63.919 205 L 63.919 205 Q 59.719 206 57.319 205.6 L 57.319 205.6 L 44.519 205.6 L 44.519 205.6 Q 34.919 203.6 33.319 202 L 33.319 202 L 33.319 202 Q 31.719 200.4 31.719 192 L 31.719 192 L 31.719 192 Q 31.719 165.6 42.519 148.4 L 42.519 148.4 L 42.519 148.4 Q 46.519 138.4 49.919 132.6 L 49.919 132.6 L 49.919 132.6 Q 53.319 126.8 54.119 123.6 L 54.119 123.6 L 54.119 123.6 Q 54.919 120.4 60.519 114.8 L 60.519 114.8 L 60.519 114.8 Q 62.919 108.4 65.319 105.2 L 65.319 105.2 L 65.319 105.2 Q 67.319 104.4 71.119 97.6 L 71.119 97.6 L 71.119 97.6 Q 74.919 90.8 74.919 88.6 L 74.919 88.6 L 74.919 88.6 Q 74.919 86.4 78.519 84 L 78.519 84 L 78.519 84 Q 78.519 82.4 80.919 78.8 L 80.919 78.8 L 80.919 78.8 Q 80.919 73.2 83.319 70.6 L 83.319 70.6 L 83.319 70.6 Q 85.719 68 85.719 64.4 L 85.719 64.4 L 85.719 64.4 Q 85.719 62 89.319 62 Z " fill-rule="evenodd"/></g></svg>
