<?xml version="1.0" encoding="utf-8"?>
<!-- Generator: Adobe Illustrator 25.0.0, SVG Export Plug-In . SVG Version: 6.00 Build 0)  -->
<svg version="1.1" id="Calque_1" xmlns="http://www.w3.org/2000/svg" xmlns:xlink="http://www.w3.org/1999/xlink" x="0px" y="0px"
	 viewBox="0 0 366.27 470.89" style="enable-background:new 0 0 366.27 470.89;" xml:space="preserve">
<style type="text/css">
	.st0{fill:#A0A0A0;}
	.st1{fill:#D8D8D8;}
	.st2{fill:#707070;}
</style>
<path class="st0" d="M360.13,413.26c0.1-0.35,0.25-0.69,0.43-1c0.49-0.82,1.13-1.17,1.79-2.3c3.26-5.55-2.85-12.78-8.88-28.86
	c-3.47-9.24-2.3-9.11-4.44-12.21c-5.31-7.67-14.42-10.34-13.32-15.54c0.33-1.54,1.38-2.58,1.11-4.44c-0.46-3.13-4.36-4.14-7.77-6.66
	c-1.62-1.19-2.46-2.22-7.77-11.1c-14.08-23.55-13.52-25.28-16.65-27.74c-0.58-0.47-2.25-1.71-2.22-3.33c0-2.2,3.18-3.8,4.44-4.44
	c3.5-1.79,5.29-1.28,10-2.22c4.11-0.83,8-1.61,11.1-4.44c2.27-2.05,3.82-4.78,4.44-7.77c1.26-8.21-9-10.24-12.21-21.09
	c-3.33-11.3,4.26-19.56-1.11-27.75c-1.11-1.81-2.63-3.33-4.44-4.44c-4-2.39-7-1.13-10-2.22c-4.84-1.79-5.84-8.6-7.77-15.54
	c-5.95-21.47-15.95-27-12.21-33.3c2.44-4.12,6.71-1.77,15.54-7.77c4.32-2.93,10.5-7.12,12.21-14.43c2.19-9.36-3.74-20.47-11.1-23.31
	c-2.79-1.07-4.13-0.44-6.66-2.22c-3.62-2.54-3.86-6.05-6.66-12.21c-1.36-3-1.3-2.16-6.66-11.09c-3-5-5-8.5-8.88-15.54
	c-0.24-0.45-5.78-10.58-13.32-22.2c-2.67-4.13-5.54-8.36-10-8.88c-2.67-0.31-5.15,0.79-5.55,0c-0.63-1.22,5.29-3.64,5.55-7.77
	c0.21-3.52-3.79-6.47-5.55-7.77c-4.45-3.28-7.16-2.63-11.1-4.44c-5.94-2.72-8.65-8.25-13.32-17.76
	c-5.37-10.93-4.26-14.57-8.88-17.76c-6.3-4.35-15.32-2.42-15.54-1.11c-0.2,1.16,6.54,1.57,7.77,5.55c0.6,2-0.42,3.81-5.55,11.1
	c-7,9.89-7.87,10.4-8.88,13.32c-2.46,7.14-0.16,13.11-1.11,13.32c-1.32,0.29-1.13-12.32-10-21.09c-3.39-3.35-8-6-13.32-13.32
	c-1.91-2.61-2.73-4.19-2.22-5.55c1.64-4.36,15.42-2.15,15.54-3.33c0.08-0.82-6.29-3.63-13.32-2.22c-8.18,1.64-13.07,8.18-14.43,10
	c-3.61,4.83-2.28,6.21-6.66,13.32c-2.45,4.08-5.44,7.81-8.88,11.1c-7.42,7-11.06,5.95-13.32,11.1c-1.88,4.3-0.4,7.44-3.33,10
	c-2,1.76-3.85,1.22-6.66,2.22c-4.66,1.66-7.23,5.88-10,11.1c-3.74,7.21-7.08,14.62-10,22.2c-7.47,18.51-12,29.61-22.2,34.4
	c-3.77,1.77-6,1.6-8.88,4.44c-5.39,5.37-5.48,14.09-5.55,20c-0.05,5.39-0.08,8.08,1.11,10c4.79,7.66,18.16,3.25,22.2,10
	c1.23,2.05,0.71,3.65-1.11,12.21c-2,9.36-2.74,13.92-10,37.74c-0.5,2.15-1.66,4.1-3.33,5.55c-3.76,3-7.85-0.12-11.1,2.22
	c-4.8,3.45-2.61,8.46-6.65,22.2c-3.25,11-4.87,16.51-8.88,21.09c-1.39,1.58-4.43,4.1-4.44,7.77c0.07,2.05,0.86,4.01,2.22,5.55
	c2.85,3.4,5.84,2.38,14.43,5.55c5.17,1.9,4.19,2.29,10,4.44c4.23,1.56,6,1.82,6.66,3.33c1.24,2.84-2.82,7.08-4.44,8.88
	c-14.73,16.43-11.5,36.81-22.19,38.84c-3.79,0.72-4.17-1.85-7.77-1.11c-9.59,2-5.64,19.84-18.87,42.18
	c-8,13.52-11.26,18.1-8.88,23.31c3.36,7.39,16.05,6.64,23.31,15.54c3.41,4.18,4.86,5.75,7.77,8.88c0.75,0.82,1.83,2,3.33,3.33
	c1.76,1.59,3.61,3.07,5.55,4.44c5.12,3.51,12.88,4.28,14.42,4.44c12.73,1.3,25.13,2.56,36.63,7.77c5.68,2.57,8.41,4.79,14.43,5.55
	c4.06,0.51,6.48,0,12.21,1.11c2.64,0.56,5.23,1.31,7.77,2.22c6.84,2.12,11.93,2,18.87,2.22c13,0.45,10.93,1.51,25.53,2.22
	c20.2,1,30.29,1.47,38.85-2.22c5.33-2.3,8-4.72,14.43-5.55c6.71-0.88,9.32,1,16.65,0c5.65-0.8,6.63-2.3,13.32-4.44
	c9-2.91,16.49-3.13,23.3-3.33c11.1-0.33,11.83,1.63,24.42,1.11c8.61-0.36,12.84-1.44,16.65-3.33s4.22-3.06,10-7.77
	c11.71-9.56,14.54-8.56,21.09-15.54C354.97,422.77,357.99,418.23,360.13,413.26z M87.13,232.34c0.76,2.79,2.78,4.42,5.55,6.66
	c3.41,2.75,8.15,5.31,8.88,4.44s-2.73-3.32-5.55-8.88c-3.86-7.63-2.67-13.06-4.44-13.32c-1.98-0.27-5.9,5.86-4.49,11.1H87.13z
	 M128.2,203.48c-0.69,0.88-1.5,1.67-2.4,2.34c-1.31,0.97-2.78,1.7-4.35,2.15c-0.9,0.27-3,0.78-8.88,0c-5.1-0.68-4.71-1.23-6.66-1.11
	c-5.18,0.32-7.77,4.2-8.88,3.33s1-4,3.33-11.1c2.64-7.88,2.25-10.11,4.44-11.1c3.11-1.4,8,1.22,10.42,3.14
	c0.47,0.37,0.92,0.77,1.34,1.19c3.04,0.89,6.27,0.93,9.33,0.11c5.25-1.5,7.59-5.27,8.88-4.44s-0.11,6.25-2.22,10
	c-1.17,2.05-2.65,3.9-4.4,5.49H128.2z M259.2,202.37c-0.73,1.29-2.38,0.82-6.65,2.22s-5,2.7-6.66,2.22
	c-1.26-0.36-1.86-1.35-4.44-6.66c-3.63-7.47-3.79-8.29-3.33-8.88c1.23-1.58,4.82,1.24,10,0c1.4-0.35,2.85-0.45,4.29-0.29
	c0.89,0.03,1.76,0.29,2.52,0.75c1.17,0.89,1.82,2.29,1.76,3.76c2.99,4.06,2.98,5.93,2.43,6.88L259.2,202.37z M269.67,241.43
	c-5.72,0-5.71-8.88,0-8.88s5.63,8.88-0.08,8.88L269.67,241.43z"/>
<path class="st1" d="M129.26,93.6c-0.28,19.27-0.43,28.91,0,33.29c0.91,9.31,2.17,14.24-1.11,17.76
	c-3.85,4.14-12.42,4.69-17.76,1.11c-6.75-4.53-3.57-12.51-10-16.65c-4.13-2.66-6.57-0.07-21.09,0c-11.92,0.06-12.9-1.67-16.65,0
	c-8.45,3.79-16.05,18.27-10,30c5,9.61,17.51,14.08,23.31,11.1c1-0.48,4.76-2.72,8.88-5.55c2.46-1.68,3.25-2.35,4.44-2.22
	c3,0.34,3.42,5.17,6.66,8.88c1.61,1.85,4,3.56,14.43,5.55c12.9,2.47,19.35,3.71,24.42,2.22c12.62-3.7,18.62-16.07,20-18.87
	c4.64-9.56,2-13.8,3.33-31.08c0.88-11.69,2.52-33.28,13.32-54.38c5.62-11,11.22-16.93,8.88-20c-2.22-2.9-8.6,0.65-27.75,3.33
	c-12.93,1.81-14.69,0.85-17.76,3.33C132.29,63.45,129.65,67.2,129.26,93.6z"/>
<path class="st1" d="M196.97,56.97c-4.71,5.49,7.17,18.44,17.76,45.51c6,15.23,8.94,22.85,8.88,33.29c0,3.08-0.31,11.19,0,23.31
	c0.26,10.48,0.72,14,3.33,16.65c2.92,3,5.91,2.28,17.76,3.33c18.41,1.64,21,4.28,30,2.22c3.29-0.75,6.63-2.35,13.32-5.55
	c12.47-5.95,18.77-9.06,22.2-15.54c2.35-4.42,3.14-9.51,2.23-14.43c-2.32-11.26-14.06-17.84-15.54-16.65c-0.61,0.5,0.78,2.16,0,4.44
	c-0.88,2.58-3.79,3.76-5.55,4.44c-11.64,4.53-17.46,6.8-23.31,7.77c-3.67,0.6-7.38,0.97-11.1,1.11c-3.26,0.18-4.91,0.27-5.54,0
	c-5-2.09-4-13.4-4.44-26.64c-0.26-7.3-0.64-18.08-3.33-28.85c-2.44-9.77-6.18-24.73-18.87-32.19c-6.08-3.42-13.04-4.96-20-4.44
	C200.45,55.22,198.27,55.45,196.97,56.97z"/>
<path class="st2" d="M175.88,2.58c-0.06,0.84-11-1.19-13.32,3.33c-1.83,3.57,2.74,9.27,3.33,10c3.3,4,6.55,4.48,10,6.66
	c8.9,5.63,14,19.55,10,26.64c-1.82,3.25-5.21,4.5-14.43,6.66c-28.6,6.7-43,10.08-50,2.22c-0.33-0.37-4.25-4.94-3.33-10
	c1.18-6.43,8.93-6.54,16.65-15.54c4.41-5.14,2.46-5.78,8.88-15.54c5.67-8.62,8.68-13.21,14.43-15.54
	C166.73-2.03,175.93,1.8,175.88,2.58z"/>
<path class="st2" d="M192.53,2.58c0.12-1.26,5.73-2.73,11.1-1.11c5.19,1.56,8.2,5.42,10,7.77c5.83,7.68,3.21,11.44,8.88,20
	c2.54,3.82,5.1,7.68,10,10c5.22,2.46,8.66,1.06,12.21,4.44c2.15,2.06,4.12,5.67,3.33,8.88c-0.24,0.94-1.44,4.76-12.21,7.77
	c-7.12,2-26.49,7.38-41.07-4.44c-3-2.44-9.63-7.81-10-15.54c-0.38-8.19,6.33-17.74,11.1-21.09c1.73-1.2,3.24-2.71,4.44-4.44
	c1.22-1.78,2.55-3.7,2.22-5.55C201.73,4.91,192.36,4.23,192.53,2.58z"/>
<path class="st1" d="M243.59,210.14c-3,3.78-5.51,6.89-5.55,11.1c-0.08,7.3,7.26,13.25,13.32,15.54c1.3,0.49,10.21,3.7,17.75-1.11
	c9.87-6.29,12.57-23.21,4.44-31.08c-5.06-4.9-13.22-5.23-18.86-3.33C249.21,203.1,246.06,207.05,243.59,210.14z"/>
<path class="st1" d="M119.27,207.97c9.85,0.55,12,0.05,14.43,2.22c4.21,3.78,3.5,10.58,3.33,12.21c-0.9,8.66-8,16.47-15.54,17.76
	c-1.17,0.2-4.48-0.24-11.1-1.11c-6.46-0.85-9.72-1.3-11.1-2.22c-5.18-3.47-6.29-11.34-5.55-16.65c0.26-1.81,1.24-8.82,6.66-12.21
	C103.73,205.84,105.45,207.15,119.27,207.97z"/>
<path class="st1" d="M266.89,242.33c2.41-4.76,11.16-7.15,15.54-7.77c4-0.58,5.4,0.19,8.88-1.11c5.18-1.94,4.93-4.68,10-6.66
	c1.08-0.42,6.75-2.51,12.21,0c1.69,0.8,3.2,1.93,4.44,3.33c6.84,7.63,0.46,17.27,5.55,30c3.33,8.29,7.52,7.82,8.88,15.54
	c0.14,0.78,2,12.32-4.44,17.76c-4.13,3.47-7.53,1-21.09,4.44c-6.77,1.73-6.8,2.58-8.88,2.22c-7.37-1.31-8.13-12.24-16.65-28.86
	C272.25,253.49,263.99,248.08,266.89,242.33z"/>
<path class="st1" d="M53.78,226.79c2.4-1.13,7.52,0,17.76,2.22c11.73,2.56,17.44,5.18,22.2,8.88c2.48,1.92,3.72,2.88,4.44,4.44
	c2.81,6-3.29,12.67-11.1,25.53c-11.92,19.65-11.63,27.11-18.87,28.86c-2.63,0.62-3.28-0.23-16.65-4.44
	c-17.44-5.5-19.57-5.08-21.08-7.77c-3.32-5.91,5-11.51,12.21-31.08C48.59,237.49,47.31,229.84,53.78,226.79z"/>
<path class="st1" d="M33.81,344.44c4.15,0.6,7.76,3.06,14.43,10c6.45,6.72,7.39,8.91,10,8.88c3.63,0,3.72-4.33,7.77-5.55
	c7.46-2.24,13.35,10.43,25.53,10c1.89-0.14,3.75-0.52,5.55-1.11c3.24-0.79,13.62-2.9,43.29,5.55c13.53,3.86,19.81,6.7,30,6.66
	c3.32-0.04,6.62-0.32,9.9-0.84l1.2-0.27c6.79-1.61,11.24-4.94,15.54-5.55c4.8-0.68,4.55,0.79,13.32,1.11
	c5.57,0.18,11.15-0.19,16.65-1.11c5.63-0.86,5.61-1.37,14.43-3.33c12.4-2.75,18.7-4.09,23.3-2.22c5,2,5.23,5,10,5.55
	c2.58,0.33,3.65-0.38,12.21-3.33c9.07-3.12,8.61-2.57,13.32-4.44c7.24-2.87,6-3.22,12.21-5.55c4-1.5,8.52-2.83,13.32-5.55
	c1.68-0.82,3.18-1.95,4.44-3.33c1.76-2.06,1.79-3.51,3.33-4.44c2-1.19,4.56-0.33,5.55,0c7.13,2.4,8.34,17.73,17.76,35.52
	c5.65,10.67,11.18,16.41,8.88,23.31c-1,3.07-3,4.62-3.33,8.88c-0.46,6.23,3.38,8.68,2.22,12.21c-1.27,3.86-6.61,3.24-14.43,6.66
	c-10.92,4.78-10.87,10.52-22.2,16.65c-6,3.26-11,4.34-16.65,5.55c-20.68,4.46-42.27,1.12-52.17,3.33c-2.62,0.61-5.21,1.35-7.76,2.22
	c-3,1-4.25,1.72-5.55,2.22c-6.88,2.65-10-1.24-17.76,0c-5.51,0.88-5.08,3-13.32,5.55c-3.98,1.17-8.07,1.91-12.21,2.22
	c-29.34,2.38-58.88,0.51-87.69-5.55c-6.32-1.51-12.41-3.27-22.2-4.44c-13.14-1.58-14.32,0.13-21.09-2.22
	c-10.65-3.71-10.57-8.93-21.08-11.1c-5-1-8.21-0.51-12.21-3.33c-3.84-2.7-3.47-5-6.66-8.88c-6.56-8-13.43-4.78-23.31-13.32
	c-3.21-2.78-6.37-5.5-7.77-10c-2-6.52,1.55-10.56,6.66-23.31c4.81-12,8.15-24.74,14.43-35.52c1.49-2.56,4.25-6.9,8.88-7.77
	C31.62,344.28,32.72,344.27,33.81,344.44z"/>
<path class="st2" d="M183.65,174.62c-2.07-1.41-3-3.23-7.77-6.66c0,0-1.71-1.23-3.33-2.22c-6-3.65-21.45-8.2-26.64-2.22
	c-2.07,2.39-1.86,5.7-1.11,11.1c2.5,17.92,5.47,39.25,13.32,40c4.31,0.39,9-5.55,13.32-11.1c1.89-2.42,7.4-9.95,13.32-12.21
	l0.63-0.23c3.43-0.98,7.08-0.9,10.47,0.23c4.51,1.63,5.42,6,8.88,11.1c3.77,5.52,12.42,14.51,18.87,13.32
	c6.64-1.23,5.21-12.19,14.43-42.18c0.51-1.67,1.4-4.52,0-6.66c-3.17-4.8-16.18-3.21-25.53,1.11c-6.2,2.87-6.15,4.78-12.21,6.66
	C196.39,175.83,188.85,178.17,183.65,174.62z"/>
<path class="st2" d="M188.09,171.29c-0.82,0.5-0.62,1.65-1.11,4.44c-0.16,0.91-0.14,0.53-1.11,4.44c-1.86,7.46-2.78,11.2-2.22,12.21
	c1.81,3.28,9.3,4.33,13.32,1.11c2.35-1.89,2.68-5.33,3.33-12.21c0.41-4.34,0.69-7.75-1.11-8.88c-1.56-1-3,0.78-6.66,0
	C190.05,171.87,189.06,170.69,188.09,171.29z"/>
</svg>
