<?xml version="1.0" encoding="utf-8"?>
<!-- Generator: Adobe Illustrator 25.0.0, SVG Export Plug-In . SVG Version: 6.00 Build 0)  -->
<svg version="1.1" id="Calque_1" xmlns="http://www.w3.org/2000/svg" xmlns:xlink="http://www.w3.org/1999/xlink" x="0px" y="0px"
	 viewBox="0 0 439.38 404.28" style="enable-background:new 0 0 439.38 404.28;" xml:space="preserve">
<style type="text/css">
	.st0{fill:#D8D8D8;}
	.st1{fill:#A0A0A0;}
	.st2{fill:#707070;}
</style>
<path class="st0" d="M124.24,195.93c5-3.75,9.56-1.72,23-1c14.26,0.77,20.74-0.89,28,3c5.26,2.57,8.98,7.5,10,13.26
	c3.36,14.12,8.4,19.55,6,21.74c-1.86,1.7-5.07-1.57-13-1c-5.33,0.38-5.16,1.95-10,2c-5.86,0.06-6.58-2.23-13-2
	c-2.68,0.18-5.35,0.51-8,1c-4.54,0.7-5,1-7,1c-3.89,0-4.14-1-8-1c-2.37,0.04-4.73,0.42-7,1.12c-3.6,1.11-4.44,2.43-6,1.88
	c-2.18-0.77-2.05-3.81-4-4c-1.14-0.11-2,0.85-4.12,0.64c-0.3,0-0.6-0.05-0.88-0.16c-2.33-1.42,1.45-16.12,9-29.48
	C121.36,199.18,122.45,197.28,124.24,195.93z"/>
<path class="st0" d="M250.24,191.93c-0.17,1.12,0.44,1.89,1,2.92c5.9,10.94-8.84,26.82-3,33.08c1.94,2.08,5.81,3.34,9,3
	c2.11-0.23,2.62-1,7-2c0.83-0.19,1-0.19,6-1c6-1,6.19-1,7-1c3.69,0,3.71,1.11,7,1c3.6-0.12,4.15-1.43,7-1c2.19,0.33,2.1,1.14,5,2
	c1.77,0.53,5.3,1.6,8,0c1.43-0.92,2.49-2.31,3-3.93c2-5.24,0.95-11.47-2-20.63c-3.11-9.64-4.66-14.46-7-16.44
	c-4.5-3.81-10.4-3.59-22-3C270.55,185.22,251.13,186.22,250.24,191.93z"/>
<path class="st1" d="M212.24,74.93c-1.62-2.07-2.36-1.43-14-6c-19.2-7.54-28.8-11.32-35-19c-5.15-6.36-8.59-13.94-10-22
	c-0.66-5.42-0.05-10.86-4-15c-2.19-2.13-4.98-3.52-8-4c-5.79-1.26-12.07-0.21-30,9c-4.69,2.41-10.87,5.73-18,10c0,0-4.89,3.39-9,7
	c-15.8,13.89-21,43-21,43c-7.45,41.72-14.36,98.4-17,118c-0.77,5.74-5.18,33.49-14,89c-7.54,47.48-10.21,63.56,0,73
	c2.81,2.59,5.08,3.29,62,7c11.93,0.78,18,1.1,22-2c9.47-7.3,6.7-23.56,4-58c-1.41-18-1.85-36-3-54c-2.27-35.48-3.46-54.35-4-78
	c-0.67-29.64-0.17-60,1-60c0.62,0,1.51,8.65,3,26c1.36,15.86,2,23.78,3,30c2.66,17.26,4.05,26.73,9,28c2.12,0.54,3.21-0.81,7,0
	c4.78,1,5.16,3.62,9,4c4,0.39,4.67-2.33,9-2c3.91,0.29,4,2.56,8,3c4.58,0.51,5.63-2.38,10-2c5.14,0.45,7,4.73,9,4
	c3.33-1.19,1.49-13.81,1-19c-1.09-11.51,2.94-23.34,11-47C206.88,97.93,219.24,83.93,212.24,74.93z"/>
<path class="st1" d="M414.24,291.93c-14.11-49.36-13.2-55.46-27-95c-6.06-17.36-5.21-13.23-8-22c-11.39-35.75-11.33-59.55-22-111
	c-1.61-7.78-4.84-22.47-16-35c-4.15-4.56-8.86-8.59-14-12c-6.78-4.44-14.2-7.81-22-10c-5-1.49-7.07-2.12-8.87-2.35
	c-5.08-0.62-10.24-0.16-15.13,1.35c3.42,5.06,5.48,10.91,6,17c1,13.62-6.46,28.47-18,35c-8.31,4.7-22.51,7.24-38,10
	c-2.6,0.5-5.04,1.6-7.15,3.2c-0.31,0.24-0.59,0.51-0.85,0.8c-8.75,9.66,7.77,28.53,17,63c6,22.53,9.21,58,17,63c3.93,2.54,7,2,7,2
	c3-0.52,3.28-2.66,6-3c3.64-0.46,4.77,3.14,9,3c3-0.1,3.17-2,6-2c4.2,0,5.62,4.15,9,4c0.75,0,3.16-0.35,6-5c7.81-12.8,9-42,9-42
	c0.88-21.65,4.42-42,6-42s2.42,21.16,3,36c0.8,20.65,1.2,31,1,48c-1.18,98.46-1.77,147.68,21,159c5.43,2.7,17.29,1.47,41-1
	c23.71-2.47,35.49-3.83,41-11C428.24,336.13,424.32,327.19,414.24,291.93z"/>
<path class="st1" d="M21.24,335.93c-5.12,4.25-2.58,11.71-4,20c-2.51,14.62-15.53,21.37-13,25c1.65,2.37,6.69-1.2,14,2
	c4.66,2,4.31,4.23,9,6c5.14,1.94,6.44-0.36,13,1c7,1.45,6.94,4.34,13,5c5.78,0.63,6.61-1.93,12-1s5.69,3.77,11,5
	c5.78,1.34,6.34-1.83,15-2c8.22-0.16,10.12,2.64,17,1c3.6-0.86,4-1.84,7-2c6.68-0.36,9.39,4.15,12,3c3.25-1.43,2.33-9.84,1-24
	c-2.27-24.24-1.88-24.38-3-26c-7.77-11.21-22.93,0.72-100-15C23.77,334.29,22.4,334.97,21.24,335.93z"/>
<path class="st0" d="M32.24,283.93c-4.63,2-6.32,7.38-8,13c-0.88,3-4.8,15.84-1,18c2.09,1.19,4.41-2.07,9-1c2.94,0.68,3,2.25,6,3
	c4,1,5.13-1.41,9-1c5.5,0.59,6,5.74,11,6c4,0.21,4.4-3,9-3s5.36,3.26,10,3c3.65-0.21,4.34-2.3,8-2c3,0.25,3,1.69,6,2
	c4.22,0.45,5.18-2.37,9-2s3.75,3.21,8,4c3.95,0.73,4.59-1.61,9-1c4.23,0.59,6.4,3.14,8,2c0.54-0.38,0.61-1.1,1-3
	c0.51-3.03,0.16-6.15-1-9c-3.54-10.88-1.44-13.71-5-17c-1.97-1.69-4.42-2.73-7-3c-15.89-2.58-26.59-0.25-39-2
	c-7.25-1-16.77-3.67-35.67-7.43C36.46,282.99,34.25,283.14,32.24,283.93z"/>
<path class="st0" d="M20.51,334.13c-3.08,7.67-6.59,15.83-3.18,19.67c2.61,2.93,8.27,2.31,9.91,2.13c3.86-0.42,3.9-1.8,7-2
	c6-0.39,7.42,4.36,13,4c4.62-0.3,5.47-3.7,9-3c4.14,0.83,4.56,5.84,8,6c3.44,0.16,4.29-4.77,8-5c4.59-0.29,6.16,7,11,7
	c4.27,0,6.1-5.8,10-5c1.41,0.29,1.41,1.09,4,3c2.18,1.6,5.7,4.2,9,4c4.68-0.28,5-6,10-7c5.23-1.1,8.6,4.3,11,3
	c3.18-1.72,3.46-14.49-3-22c-10.79-12.54-28.84,3-62.43-5.8c-16.6-4.34-30.55-12.86-37.36-6.65
	C23.09,327.71,22.24,329.85,20.51,334.13z"/>
<path class="st0" d="M319.24,25.93c-0.39-0.25-1-0.53-1-1c-0.06-1,2.54-1.32,4-3c1.67-1.92,1.22-4.89,1-6
	c-2.19-11-29.55-14.4-34.46-14.94l-0.54-0.06c-0.32-0.16-4-2-7.57,0c-1.57,0.9-2.78,2.31-3.43,4v7c0,15.08,0.16,16.23,0,18
	c-1,10.8-10.94,18.6-14,21c-16.65,13.06-39.09,9.08-40,17c0,0.16,0,0.44,0,1c0.08,3.87,0.41,19,10,25c0.62,0.39,5.79,3.85,9,2
	c2.32-1.34,2-4.53,4-5c2.34-0.56,3.59,3.71,7,4c3.6,0.3,4.41-4.27,9-5s7.24,3.48,10,2s1.12-6.38,4-8c3.06-1.73,6.8,2.77,10,1
	c2.7-1.49,1.3-5.38,4-7c3.43-2.06,7.83,2.93,11,1c2.93-1.78,0.5-6.85,4-10c2.88-2.59,6-0.53,8-3c2.37-3-1.41-7,1-11
	c1.88-3.14,5.15-2.33,6-5c1.12-3.53-4.15-6.39-3-10c0.85-2.66,4-2,5-5C323.14,32.2,321.85,27.58,319.24,25.93z"/>
<path class="st0" d="M211.24,66.93c-1.77-2.93-5.2-2.52-12-4c-15.2-3.31-29.95-12.29-38-23c-3.07-4.09-8.89-13.39-9.31-29.16
	l-3.69-4.33c-0.1-0.06-0.26-0.16-0.46-0.26c-6.74-3.61-15,0-25.5,4.75c-21.33,9.73-25.46,12.42-25,14c0.41,1.39,3.89,0.33,6,3
	c2.53,3.21-0.48,7.27,2,10c2,2.21,4.87,0.5,7,3c1.69,2,0.35,3.6,2,6s3.82,1.61,7,4c4,3,2.55,5.83,6,8c3.8,2.39,6.54-0.44,10,2
	c3.27,2.3,1.66,5.42,5,8s6,0.25,10,3c2.4,1.64,1.66,2.6,5,6c2.25,2.29,2.8,2.08,8,6c5.8,4.37,5.53,4.94,8,6c3.55,1.52,4.51,0.52,9,2
	c5,1.64,5.68,3.5,8,4C199.3,97.87,216.36,75.39,211.24,66.93z"/>
<path class="st0" d="M215.24,71.16c-4.66-2.27-15.68,12.55-34.71,38.14c-16,21.55-19.86,29.48-17.36,37.19
	c1.49,4.58,5.73,10.66,11.57,11.44c16,2.16,34.67-36.74,40.5-66.75C216.75,83.61,218.83,72.93,215.24,71.16z"/>
<path class="st0" d="M217.24,71.93c-3.31,0.58,0.63,16.1-3,54c-4.84,50.51-17.8,85.1-7,91c4.75,2.6,9.11-3.09,21-1
	c13.32,2.34,17.6,11.19,21,10C262.78,221.21,227.55,70.12,217.24,71.93z"/>
<path class="st1" d="M423.6,328.85c4.78,4.49-0.74,11.81,1.64,23.08c1.86,8.82,7.17,13.42,5,16c-1.46,1.74-4.09-0.1-8.64,1.92
	c-4,1.8-3.56,4-7.36,6.08c-4.09,2.27-5.64,0.3-13.64,1.92c-5.57,1.13-5,2.13-10.36,3.08c-6,1.07-6.79-0.17-12.64,0.92
	s-5.61,2.45-10.36,3.08c-6.86,0.92-7.62-1.87-13.64-1.08c-7.5,1-8.28,5.58-14.36,5.08c-4.59-0.38-5-3.07-10-3
	c-4.51,0.06-6.68,2.32-9,1c-2.14-1.22-2.48-4.38-2.64-6.08c-2-21.84-2.7-32.57,2-39c7.13-9.74,19.4-3.61,100-15
	C421.15,326.67,422.45,327.77,423.6,328.85z"/>
<path class="st0" d="M403.87,269.54c2.25,0.4,4.41,1.21,6.37,2.39c6.26,3.79,8.45,10.35,10,15c1.61,4.84,3.32,12.78,1,14
	c-1.76,0.92-4.91-2.53-6.37-1.39c-1.13,0.89,0.42,3.27-0.63,4.39c-2.07,2.21-10.63-5.08-14.37-2.39c-1.69,1.22-0.76,3.31-2.63,4.39
	c-2.58,1.48-5.14-2-9-1c-3,0.82-3,3.43-6,4c-2.86,0.54-3.52-1.69-7-2c-4.89-0.43-6.19,3.92-11.37,3.61
	c-3.59-0.22-3.75-2.08-7.63-2.61c-5.2-0.71-6.46,2.42-12,3c-6.78,0.71-7.84-3.67-16-4c-6.5-0.26-10.24,3.6-12.37,1.61
	c-1.41-1.32-0.91-3.93-0.63-5.61c2.44-14.52-1.71-18.33,1-23c5-8.69,20.68,2.21,47.63-4.39
	C373.11,273.28,391.24,267.08,403.87,269.54z"/>
<path class="st0" d="M424.24,320.93c1.79,6.7,2.91,16.45,0,17.72c-2.05,0.87-4.72-2.94-7-1.72c-1.66,0.9-0.86,3.36-3,5
	c-1.59,1.22-3.63,1.09-5,1c-3.82-0.25-4.49-2.26-7-2c-3,0.31-3,3.26-6,4c-4,1-5.87-3.59-10-3s-4,5.19-8,6c-4.63,0.93-6.76-4.75-12-4
	c-3.85,0.55-4.15,3.82-7.95,3.85c-3.22,0-3.74-2.35-8.05-2.85c-1.8-0.21-3.52,0.14-6.95,0.85c-6.06,1.24-5.81,2.24-8,2
	c-4.74-0.54-5.3-4.36-10.05-4.85c-3.8-0.39-5.21,1.87-7,1c-3.36-1.64-4.35-12.58,0-19c8-11.77,27.31,1,61.49-7
	c19.49-4.56,34-13.6,40.51-7C422.06,312.75,422.78,315.48,424.24,320.93z"/>
<path class="st2" d="M250.24,220.93c-0.11,0.49-0.88,3.54,0,4s2.44-1.4,3-2c10.51-11.32-6-60-6-60c-19-56.07-25.88-90.35-27-90
	c-1.6,0.5,15.23,70.47,23,99C243.24,171.93,253.14,208.27,250.24,220.93z"/>
<path class="st0" d="M217.24,70.93c-4.22,3.38,4.2,15.21,14,47c10.59,34.35,8.43,45.4,18,50c13,6.23,36.35-4.77,41-20
	c5-16.37-13-33.21-33-52C254.32,93.19,224.29,65.28,217.24,70.93z"/>
<path class="st0" d="M214.24,73.93c-3.08-0.49-5,27.05-21,69c-12.9,33.86-23.13,46.07-17,62c5.77,15,23.11,25.72,30,22
	c4.85-2.62,3.28-11.73,3-30c-0.23-15.37,1-0.41,4-60C215.33,95.16,216.38,74.27,214.24,73.93z"/>
<path class="st2" d="M219.24,75.93c-5.84-1.53-18.39,136.69-18,144c0.19,3.56,2,5,2,5c0.86,0.66,1.92,1.02,3,1
	c5.45-0.55,4-55.6,8-106C217.1,84.19,220.7,76.31,219.24,75.93z"/>
<path class="st2" d="M260.24,102.93c-1.94,1.33,11.93,14.54,13,37c0.26,5.45-0.25,11.23,3,13c3.52,1.91,10.59-1.35,13-6
	C296.57,132.77,263.24,100.86,260.24,102.93z"/>
<path class="st2" d="M204.24,104.93c-3.27-1.9-35.93,40.07-29,48c1.61,1.84,5.09,1.56,7,1c5.95-1.75,7.78-9.53,12-22
	C201.35,110.93,205.4,105.6,204.24,104.93z"/>
<path class="st2" d="M8.24,369.93c-3.91,3-9.45,8.94-8,12c1.26,2.66,6.67-0.41,13,3c5.66,3,4.46,7.15,9,9c7,2.87,12.59-5.82,20-3
	c4.88,1.86,4.41,6.37,10,8c4.37,1.27,5.38-1.27,11-1c8.92,0.43,11.19,7,18,6c4.78-0.69,4.15-4.12,9-5c7.91-1.44,12.5,7.17,19,5
	c3.66-1.22,3.35-4.35,7-5c5.27-0.94,8.07,5.19,12,4c3.65-1.1,5.19-7.58,5-12c-0.16-3.22-1.2-6.33-3-9c-7.8-11-35,7.86-66,0
	c-18.2-4.62-41.11-19.3-51-15C11.47,367.75,9.8,368.76,8.24,369.93z"/>
<path class="st2" d="M319.92,394.23c2.31,1.38,4.68-3,10.32-3.3c6.95-0.38,8.4,6,15,6c7.17,0,8.85-7.53,16-7
	c5.27,0.39,6.31,4.63,11,4c4.52-0.61,4.71-4.71,10-6c4.8-1.17,6,1.88,11,1c6.33-1.11,6.5-6.38,12-7c6.17-0.7,9.13,5.35,13.45,3.67
	c3.66-1.43,2.36-6.31,6.57-8.6c5.67-3.07,12.89,1.87,14-0.09c0.66-1.12-1.48-3.21-4.54-7.31c-5.06-6.79-5.62-9.65-7.27-11.49
	c-6.53-7.29-26.1,6.06-50.8,10.74c-30.92,5.85-58-4.15-60.33,3.1c-0.43,1.34,0.53,1.56,1.55,7.12
	C319.62,388.46,317.67,392.93,319.92,394.23z"/>
</svg>
