<?xml version="1.0" standalone="no"?><!-- Generator: Gravit.io --><svg xmlns="http://www.w3.org/2000/svg" xmlns:xlink="http://www.w3.org/1999/xlink" style="isolation:isolate" viewBox="0 0 586.928 475.866" width="586.928" height="475.866"><defs><clipPath id="_clipPath_sa166fx5oD082Lw65VX57q2Aap5s916R"><rect width="586.928" height="475.866"/></clipPath></defs><g clip-path="url(#_clipPath_sa166fx5oD082Lw65VX57q2Aap5s916R)"><path d=" M 574.004 446.615 C 574.177 446.282 574.396 445.976 574.654 445.705 C 575.304 445.015 576.004 444.815 576.904 443.865 C 581.314 439.175 576.964 430.765 574.654 413.755 C 573.324 403.975 574.444 404.355 573.044 400.865 C 569.564 392.205 561.274 387.575 563.504 382.755 C 564.164 381.325 565.424 380.545 565.574 378.675 C 565.814 375.515 562.234 373.675 559.474 370.455 C 558.164 368.925 557.574 367.745 554.364 357.905 C 545.864 331.805 546.794 330.245 544.294 327.155 C 543.824 326.575 542.474 324.995 542.864 323.415 C 543.404 321.285 546.804 320.415 548.184 320.065 C 551.984 319.065 553.624 320.005 558.414 320.125 C 562.604 320.225 566.544 320.325 570.224 318.255 C 572.872 316.749 574.973 314.442 576.224 311.665 C 579.274 303.945 569.724 299.665 569.004 288.395 C 568.264 276.635 577.504 270.265 574.084 261.095 C 573.403 259.084 572.258 257.262 570.744 255.775 C 567.394 252.565 564.134 253.115 561.494 251.395 C 557.174 248.575 557.714 241.715 557.374 234.515 C 556.374 212.265 547.814 204.665 552.864 199.335 C 556.154 195.865 559.794 199.105 569.744 195.215 C 574.594 193.315 581.564 190.595 584.854 183.855 C 589.064 175.215 585.744 163.065 579.204 158.665 C 576.724 156.995 575.274 157.315 573.204 155.025 C 570.204 151.735 570.784 148.255 569.424 141.635 C 568.754 138.415 568.624 139.245 565.424 129.335 C 563.604 123.765 562.424 119.935 560.214 112.215 C 560.074 111.725 556.924 100.615 552.214 87.615 C 550.524 82.995 548.654 78.225 544.444 76.735 C 541.914 75.845 539.244 76.365 539.034 75.505 C 538.694 74.175 545.034 73.135 546.164 69.155 C 547.164 65.775 543.914 62.015 542.484 60.355 C 538.874 56.175 536.084 56.195 532.644 53.555 C 527.464 49.555 526.044 43.555 523.644 33.285 C 520.834 21.435 522.724 18.135 518.924 13.995 C 513.754 8.355 504.524 8.235 504.024 9.465 C 503.524 10.695 510.024 12.465 510.364 16.595 C 510.514 18.595 509.114 20.225 502.494 26.185 C 493.494 34.285 492.494 34.575 490.874 37.185 C 486.874 43.605 487.804 49.935 486.874 49.925 C 485.524 49.925 488.514 37.665 481.814 27.145 C 479.264 23.145 475.374 19.485 471.814 11.145 C 470.524 8.145 470.074 6.455 470.874 5.245 C 473.444 1.355 486.384 6.575 486.764 5.445 C 487.034 4.675 481.444 0.515 474.274 0.325 C 465.934 0.115 459.714 5.395 457.984 6.865 C 453.234 10.835 454.234 12.445 448.404 18.445 C 445.107 21.876 441.368 24.853 437.284 27.295 C 428.494 32.465 425.174 30.635 421.834 35.155 C 419.044 38.925 419.784 42.325 416.364 44.155 C 413.994 45.425 412.364 44.485 409.364 44.845 C 404.444 45.425 400.994 48.965 397.154 53.445 C 391.906 59.644 387.009 66.13 382.484 72.875 C 371.104 89.265 364.234 99.095 353.234 101.445 C 349.174 102.335 347.004 101.675 343.594 103.805 C 337.144 107.805 335.114 116.325 333.744 122.055 C 332.494 127.285 331.864 129.905 332.614 132.055 C 335.614 140.575 349.614 139.245 352.034 146.725 C 352.784 148.995 351.914 150.435 348.244 158.375 C 344.244 167.065 342.474 171.375 330.124 192.955 C 329.161 194.945 327.592 196.58 325.644 197.625 C 321.304 199.705 318.014 195.775 314.324 197.325 C 308.874 199.625 309.904 204.995 302.904 217.495 C 297.294 227.495 294.494 232.495 289.564 236.085 C 287.854 237.325 284.334 239.085 283.504 242.675 C 283.127 244.691 283.459 246.775 284.444 248.575 C 286.444 252.525 289.604 252.195 297.274 257.195 C 301.894 260.195 300.854 260.365 306.034 263.745 C 309.804 266.205 311.484 266.845 311.784 268.465 C 312.354 271.465 307.454 274.745 305.484 276.135 C 287.484 288.885 286.084 309.485 275.214 309.085 C 271.354 308.945 271.564 306.355 267.884 306.275 C 258.104 306.065 257.984 324.365 240.114 343.215 C 229.314 354.615 225.114 358.365 226.284 363.965 C 227.924 371.965 240.464 373.965 245.564 384.295 C 247.954 389.135 249.024 390.975 251.164 394.675 C 251.724 395.675 252.514 396.995 253.674 398.675 C 255.034 400.615 256.51 402.472 258.094 404.235 C 262.314 408.795 269.704 411.235 271.174 411.765 C 283.294 415.865 295.104 419.845 305.174 427.475 C 310.174 431.245 312.314 434.015 318.014 436.095 C 321.854 437.495 324.344 437.485 329.674 439.885 C 332.113 441.032 334.477 442.331 336.754 443.775 C 342.944 447.365 347.944 448.355 354.654 450.135 C 367.274 453.475 364.984 454.035 379.054 457.965 C 398.504 463.445 408.234 466.145 417.394 464.445 C 423.104 463.385 426.244 461.625 432.694 462.235 C 439.434 462.875 441.564 465.315 448.934 465.935 C 454.624 466.405 455.934 465.165 462.934 464.555 C 472.414 463.735 479.714 465.175 486.404 466.485 C 497.294 468.635 497.574 470.715 509.964 472.995 C 518.434 474.555 522.794 474.445 526.964 473.445 C 531.134 472.445 531.764 471.445 538.434 468.085 C 551.974 461.365 554.504 462.975 562.434 457.625 C 566.915 454.672 570.833 450.944 574.004 446.615 Z  M 348.004 209.615 C 348.114 212.505 349.724 214.535 351.934 217.345 C 354.644 220.775 358.704 224.345 359.604 223.645 C 360.504 222.945 357.674 219.805 356.164 213.755 C 354.094 205.455 356.464 200.425 354.794 199.755 C 353.124 199.085 347.744 204.155 347.954 209.575 L 348.004 209.615 Z  M 394.454 190.615 C 393.582 191.322 392.62 191.911 391.594 192.365 C 390.13 192.998 388.566 193.37 386.974 193.465 C 386.034 193.525 383.864 193.565 378.314 191.465 C 373.494 189.665 373.994 189.215 372.074 188.905 C 366.954 188.065 363.564 191.265 362.674 190.175 C 361.784 189.085 364.514 186.455 368.384 180.095 C 372.704 173.005 372.814 170.735 375.174 170.255 C 378.524 169.585 382.704 173.255 384.644 175.635 C 385.005 176.102 385.339 176.589 385.644 177.095 C 388.413 178.633 391.548 179.387 394.714 179.275 C 400.164 178.975 403.284 175.815 404.354 176.915 C 405.424 178.015 402.854 182.975 399.974 186.165 C 398.367 187.92 396.486 189.402 394.404 190.555 L 394.454 190.615 Z  M 522.454 218.615 C 521.454 219.705 519.944 218.875 515.454 219.295 C 510.964 219.715 509.984 220.815 508.454 219.985 C 507.304 219.355 506.934 218.255 505.604 212.505 C 503.724 204.415 503.744 203.575 504.324 203.105 C 505.884 201.845 508.754 205.385 514.064 205.325 C 515.509 205.293 516.948 205.52 518.314 205.995 C 519.177 206.217 519.966 206.662 520.604 207.285 C 521.529 208.396 521.86 209.886 521.494 211.285 C 523.524 215.935 523.094 217.755 522.354 218.565 L 522.454 218.615 Z  M 523.984 259.015 C 518.404 257.745 520.384 249.085 525.984 250.355 C 531.584 251.625 529.454 260.235 523.884 258.965 L 523.984 259.015 Z " fill="rgb(160,160,160)"/><path d=" M 419.894 83.665 C 415.334 102.395 413.054 111.755 412.494 116.125 C 411.314 125.405 411.494 130.485 407.494 133.195 C 402.824 136.375 394.344 135.015 389.934 130.335 C 384.354 124.415 389.234 117.335 383.934 111.885 C 380.494 108.365 377.544 110.355 363.374 107.205 C 351.724 104.615 351.164 102.705 347.134 103.505 C 338.054 105.315 327.424 117.755 330.744 130.505 C 333.464 140.985 344.684 148.115 351.004 146.505 C 352.004 146.245 356.254 144.905 360.894 143.065 C 363.664 141.965 364.584 141.485 365.714 141.885 C 368.564 142.885 367.904 147.685 370.234 152.025 C 371.394 154.175 373.394 156.395 383.074 160.635 C 395.074 165.915 401.074 168.545 406.394 168.225 C 419.514 167.425 428.114 156.685 430.064 154.225 C 436.704 145.935 435.064 141.225 440.214 124.665 C 443.664 113.455 450.054 92.775 465.274 74.595 C 473.204 65.125 479.964 60.595 478.374 57.085 C 476.854 53.765 469.844 55.805 450.574 54.165 C 437.574 53.065 436.054 51.735 432.514 53.475 C 429.544 54.935 426.134 58.015 419.894 83.665 Z " fill="rgb(216,216,216)"/><path d=" M 494.044 62.985 C 488.234 67.295 496.934 82.565 501.244 111.305 C 503.674 127.485 504.894 135.575 502.514 145.735 C 501.814 148.735 499.724 156.575 497.334 168.465 C 495.264 178.735 494.944 182.245 496.884 185.465 C 499.064 189.045 502.144 188.995 513.464 192.665 C 531.054 198.325 532.984 201.445 542.234 201.445 C 545.604 201.445 549.234 200.625 556.454 198.995 C 569.934 195.995 576.764 194.325 581.554 188.775 C 584.827 184.985 586.72 180.198 586.924 175.195 C 587.154 163.705 577.174 154.685 575.464 155.515 C 574.754 155.865 575.744 157.795 574.464 159.845 C 573.034 162.165 569.924 162.665 568.064 162.945 C 555.704 164.765 549.524 165.685 543.614 165.335 C 539.899 165.099 536.202 164.639 532.544 163.955 C 529.314 163.405 527.694 163.125 527.134 162.725 C 522.744 159.585 526.234 148.725 528.724 135.725 C 530.084 128.545 532.114 117.945 531.884 106.845 C 531.674 96.785 531.354 81.365 520.634 71.275 C 515.463 66.598 509.028 63.547 502.134 62.505 C 497.804 62.045 495.644 61.795 494.044 62.985 Z " fill="rgb(216,216,216)"/><path d=" M 485.554 5.275 C 485.314 6.075 475.094 1.665 471.834 5.565 C 469.254 8.635 472.444 15.215 472.834 16.045 C 475.164 20.705 478.224 21.865 481.094 24.755 C 488.524 32.225 490.354 46.915 484.924 52.945 C 482.434 55.715 478.844 56.175 469.374 56.235 C 439.994 56.415 425.204 56.515 420.184 47.305 C 419.944 46.875 417.134 41.545 419.184 36.825 C 421.764 30.825 429.334 32.435 438.864 25.375 C 444.304 21.375 442.554 20.285 450.974 12.195 C 458.414 5.045 462.374 1.245 468.494 0.245 C 477.654 -1.245 485.784 4.525 485.554 5.275 Z " fill="rgb(112,112,112)"/><path d=" M 501.784 8.975 C 502.194 7.775 507.984 7.585 512.854 10.355 C 517.724 13.125 519.654 17.465 520.854 20.145 C 524.854 28.925 521.444 32.015 525.074 41.595 C 526.704 45.895 528.344 50.225 532.594 53.595 C 537.144 57.165 540.804 56.595 543.514 60.595 C 545.164 63.085 546.274 67.045 544.784 69.995 C 544.354 70.865 542.334 74.325 531.154 74.855 C 523.774 75.215 503.694 76.175 492.104 61.415 C 489.714 58.365 484.444 51.655 485.814 44.045 C 487.264 35.975 495.924 28.155 501.314 25.945 C 503.273 25.16 505.075 24.029 506.634 22.605 C 508.224 21.135 509.944 19.555 510.034 17.685 C 510.234 13.285 501.234 10.545 501.784 8.975 Z " fill="rgb(112,112,112)"/><path d=" M 505.474 222.685 C 501.694 225.685 498.574 228.185 497.604 232.275 C 495.904 239.375 501.734 246.805 507.134 250.385 C 508.304 251.155 516.274 256.265 524.694 253.245 C 535.694 249.305 542.104 233.415 535.934 223.935 C 532.084 218.025 524.204 215.935 518.274 216.495 C 512.524 217.075 508.574 220.215 505.474 222.685 Z " fill="rgb(216,216,216)"/><path d=" M 384.764 192.915 C 394.234 195.635 396.464 195.625 398.334 198.285 C 401.604 202.905 399.394 209.375 398.874 210.925 C 396.064 219.175 387.404 225.205 379.774 224.795 C 378.594 224.725 375.464 223.565 369.204 221.245 C 362.944 218.925 360.014 217.815 358.874 216.615 C 354.594 212.085 355.254 204.165 357.154 199.145 C 357.804 197.445 360.324 190.815 366.364 188.725 C 370.064 187.445 371.484 189.105 384.764 192.915 Z " fill="rgb(216,216,216)"/><path d=" M 521.054 259.245 C 524.464 255.135 533.524 254.755 537.934 255.125 C 542.004 255.455 543.154 256.515 546.834 256.015 C 552.314 255.265 552.684 252.545 558.054 251.735 C 559.194 251.565 565.194 250.735 569.964 254.445 C 571.426 255.607 572.643 257.048 573.544 258.685 C 578.544 267.685 570.154 275.615 572.304 289.135 C 573.704 297.965 577.894 298.435 577.514 306.255 C 577.514 307.055 576.754 318.725 569.234 322.585 C 564.434 325.055 561.674 321.855 547.694 322.235 C 540.694 322.425 540.484 323.235 538.544 322.425 C 531.644 319.515 533.334 308.695 528.714 290.585 C 523.804 271.315 516.944 264.205 521.054 259.245 Z " fill="rgb(216,216,216)"/><path d=" M 316.714 196.765 C 319.304 196.195 324.054 198.425 333.544 202.875 C 344.404 207.975 349.384 211.795 353.214 216.465 C 355.214 218.885 356.214 220.105 356.554 221.775 C 357.954 228.285 350.554 233.395 340.064 244.205 C 324.064 260.715 322.714 268.095 315.254 268.205 C 312.544 268.205 312.104 267.205 300.014 260.205 C 284.224 250.975 282.014 250.905 281.174 247.945 C 279.254 241.455 288.564 237.825 299.984 220.355 C 309.234 206.045 309.724 198.305 316.714 196.765 Z " fill="rgb(216,216,216)"/><path d=" M 271.114 307.045 C 275.024 308.555 277.994 311.745 282.964 319.995 C 287.764 327.995 288.194 330.315 290.724 330.865 C 294.264 331.645 295.314 327.475 299.534 327.185 C 307.304 326.645 310.224 340.315 322.204 342.595 C 324.078 342.868 325.978 342.918 327.864 342.745 C 331.204 342.745 341.794 342.935 368.864 357.745 C 381.194 364.515 386.684 368.685 396.604 370.895 C 399.846 371.593 403.135 372.054 406.444 372.275 L 407.674 372.275 C 414.674 372.215 419.724 369.955 424.054 370.275 C 428.884 370.675 428.314 372.055 436.794 374.275 C 442.17 375.722 447.677 376.633 453.234 376.995 C 458.924 377.405 459.014 376.905 468.044 376.995 C 480.754 377.065 487.184 377.155 491.264 379.995 C 495.694 383.095 495.264 385.995 499.774 387.625 C 502.214 388.515 503.404 388.055 512.414 387.085 C 521.954 386.085 521.414 386.495 526.414 385.715 C 534.114 384.525 532.954 383.895 539.554 383.015 C 543.824 382.445 548.494 382.145 553.774 380.565 C 555.59 380.133 557.309 379.367 558.844 378.305 C 561.014 376.685 561.364 375.305 563.074 374.715 C 565.284 373.995 567.594 375.405 568.484 375.945 C 574.904 379.865 572.674 395.075 577.914 414.525 C 581.054 426.175 585.164 433.005 581.394 439.225 C 579.714 441.995 577.394 443.055 576.174 447.135 C 574.344 453.135 577.544 456.355 575.624 459.535 C 573.534 463.015 568.464 461.225 560.084 462.825 C 548.364 465.055 547.144 470.675 534.734 474.125 C 528.134 475.965 523.004 475.905 517.274 475.845 C 496.114 475.595 475.804 467.545 465.664 467.505 C 462.971 467.511 460.281 467.657 457.604 467.945 C 454.484 468.295 453.074 468.675 451.694 468.875 C 444.404 469.935 442.234 465.445 434.384 464.935 C 428.814 464.565 428.764 466.745 420.164 467.385 C 416.023 467.639 411.866 467.455 407.764 466.835 C 378.626 462.641 350.246 454.261 323.504 441.955 C 317.664 439.075 312.124 436.015 302.844 432.695 C 290.374 428.235 288.844 429.645 282.774 425.845 C 273.204 419.845 274.444 414.845 264.674 410.345 C 260.024 408.225 256.784 408.015 253.514 404.345 C 250.244 400.675 251.234 398.705 248.984 394.205 C 244.364 384.965 236.984 386.565 229.224 376.045 C 226.704 372.625 224.224 369.265 223.864 364.575 C 223.324 357.775 227.724 354.625 235.534 343.325 C 242.894 332.675 248.974 321.015 257.534 311.905 C 259.534 309.735 263.214 306.115 267.914 306.295 C 269.013 306.378 270.092 306.631 271.114 307.045 L 271.114 307.045 Z " fill="rgb(216,216,216)"/><path d=" M 454.924 174.745 C 453.224 172.905 452.704 170.925 448.824 166.525 C 448.824 166.525 447.434 164.945 446.074 163.625 C 441.074 158.735 426.984 150.865 420.594 155.545 C 418.044 157.405 417.514 160.685 417.044 166.115 C 415.504 184.115 413.664 205.595 421.154 208.035 C 425.284 209.375 431.154 204.615 436.614 200.175 C 438.994 198.235 446.034 192.115 452.304 191.175 L 452.974 191.095 C 456.539 190.894 460.082 191.78 463.134 193.635 C 467.134 196.235 467.074 200.725 469.324 206.435 C 471.774 212.655 478.214 223.345 484.764 223.615 C 491.514 223.885 492.554 212.875 508.204 185.685 C 509.074 184.175 510.574 181.585 509.674 179.195 C 507.674 173.815 494.624 172.475 484.544 174.605 C 477.864 176.025 477.484 177.905 471.154 178.395 C 467.084 178.755 459.234 179.355 454.924 174.745 Z " fill="rgb(112,112,112)"/><path d=" M 459.994 172.445 C 459.084 172.755 458.994 173.905 457.924 176.525 C 457.564 177.385 457.674 177.005 455.854 180.605 C 452.384 187.465 450.664 190.915 450.984 192.015 C 451.984 195.615 459.094 198.305 463.724 196.015 C 466.434 194.705 467.514 191.425 469.724 184.855 C 471.094 180.715 472.124 177.455 470.614 175.955 C 469.314 174.645 467.504 176.045 464.124 174.475 C 461.774 173.445 461.074 172.115 459.994 172.445 Z " fill="rgb(112,112,112)"/><path d=" M 102.134 182.515 C 106.204 179.425 109.984 181.095 121.044 181.685 C 132.764 182.315 138.094 180.955 144.044 184.155 C 146.326 185.317 148.297 187.007 149.794 189.085 C 151.012 190.898 151.852 192.939 152.264 195.085 C 155.024 206.695 159.164 211.155 157.194 212.955 C 155.664 214.355 153.034 211.665 146.504 212.135 C 142.124 212.455 142.264 213.735 138.284 213.785 C 133.464 213.835 132.874 211.945 127.594 212.135 C 125.391 212.289 123.197 212.563 121.024 212.955 C 117.284 213.535 116.944 213.775 115.264 213.785 C 112.064 213.785 111.854 212.925 108.694 212.955 C 106.741 212.994 104.802 213.304 102.934 213.875 C 99.934 214.795 99.284 215.875 98.004 215.425 C 96.204 214.795 96.314 212.295 94.714 212.135 C 93.774 212.045 93.094 212.835 91.324 212.655 C 91.079 212.657 90.835 212.616 90.604 212.535 C 88.684 211.365 91.794 199.275 98.004 188.295 C 99.764 185.185 100.664 183.625 102.134 182.515 Z " fill="rgb(216,216,216)"/><path d=" M 205.714 179.225 C 205.574 180.145 206.084 180.775 206.544 181.625 C 211.394 190.625 199.274 203.675 204.074 208.815 C 206.077 210.653 208.768 211.551 211.474 211.285 C 213.204 211.095 213.624 210.455 217.224 209.645 C 217.904 209.485 218.014 209.485 222.154 208.815 C 227.054 208.035 227.244 207.995 227.914 207.995 C 230.914 207.995 230.964 208.905 233.664 208.815 C 236.664 208.725 237.074 207.645 239.424 207.995 C 241.224 208.265 241.144 208.925 243.534 209.645 C 244.994 210.075 247.894 210.955 250.114 209.645 C 251.284 208.887 252.154 207.745 252.574 206.415 C 254.234 202.095 253.364 196.985 250.934 189.415 C 248.374 181.485 247.104 177.525 245.174 175.895 C 241.474 172.755 236.634 172.895 227.094 173.425 C 222.414 173.705 206.444 174.525 205.714 179.225 Z " fill="rgb(216,216,216)"/><path d=" M 174.474 83.035 C 173.154 81.335 172.544 81.865 162.964 78.105 C 147.234 71.905 139.284 68.805 134.234 62.445 C 129.996 57.244 127.153 51.049 125.974 44.445 C 125.434 39.995 125.974 35.525 122.684 32.115 C 120.88 30.369 118.583 29.22 116.104 28.825 C 111.344 27.825 106.184 28.655 91.444 36.225 C 87.584 38.225 82.514 40.935 76.644 44.445 C 76.644 44.445 72.644 47.235 69.244 50.205 C 56.244 61.615 51.984 85.555 51.984 85.555 C 45.854 119.855 40.184 166.445 37.984 182.555 C 37.354 187.275 33.724 210.085 26.484 255.715 C 20.284 294.715 18.084 307.965 26.484 315.715 C 28.784 317.845 30.654 318.415 77.484 321.465 C 87.284 322.105 92.254 322.375 95.564 319.825 C 103.354 313.825 101.074 300.455 98.854 272.135 C 97.694 257.365 97.334 242.535 96.384 227.745 C 94.524 198.575 93.544 183.065 93.104 163.625 C 92.544 139.255 92.954 114.325 93.924 114.295 C 94.434 114.295 95.164 121.405 96.384 135.675 C 97.504 148.675 98.064 155.225 98.854 160.335 C 101.044 174.525 102.184 182.335 106.254 183.335 C 107.994 183.775 108.894 182.665 112.004 183.335 C 115.934 184.175 116.254 186.335 119.404 186.625 C 122.554 186.915 123.244 184.715 126.804 184.975 C 130.014 185.215 130.124 187.085 133.384 187.445 C 137.144 187.865 138.014 185.445 141.604 185.795 C 145.834 186.165 147.334 189.685 149.004 189.085 C 151.744 188.085 150.234 177.735 149.824 173.465 C 148.924 164.005 152.234 154.285 158.824 134.825 C 170.074 101.925 180.234 90.445 174.474 83.035 Z " fill="rgb(160,160,160)"/><path d=" M 340.544 261.445 C 328.944 220.865 329.694 215.845 318.344 183.345 C 313.344 169.065 314.064 172.465 311.764 165.255 C 302.404 135.875 302.454 116.305 293.684 74.005 C 292.354 67.615 289.684 55.535 280.524 45.235 C 277.112 41.479 273.246 38.164 269.014 35.365 C 263.443 31.717 257.345 28.944 250.934 27.145 C 248.55 26.328 246.11 25.683 243.634 25.215 C 239.469 24.703 235.243 25.077 231.234 26.315 C 234.048 30.483 235.746 35.303 236.164 40.315 C 236.994 51.515 230.854 63.725 221.364 69.095 C 214.534 72.955 202.864 75.035 190.124 77.315 C 187.991 77.727 185.982 78.627 184.254 79.945 C 183.994 80.135 183.759 80.357 183.554 80.605 C 176.364 88.545 189.934 104.055 197.554 132.395 C 202.554 150.915 205.134 180.055 211.554 184.185 C 213.218 185.39 215.254 185.971 217.304 185.825 C 219.764 185.405 220.004 183.645 222.234 183.365 C 225.234 182.985 226.164 185.945 229.634 185.825 C 232.144 185.745 232.244 184.185 234.574 184.185 C 238.024 184.185 239.184 187.605 241.974 187.475 C 242.584 187.475 244.574 187.185 246.904 183.365 C 253.324 172.835 254.304 148.835 254.304 148.835 C 255.024 131.035 257.934 114.285 259.234 114.305 C 260.534 114.325 261.234 131.705 261.704 143.905 C 262.364 160.905 262.704 169.365 262.524 183.365 C 261.524 264.305 261.064 304.775 279.784 314.075 C 284.254 316.295 293.994 315.285 313.494 313.255 C 332.994 311.225 342.674 310.105 347.194 304.255 C 352.044 297.765 348.824 290.445 340.544 261.445 Z " fill="rgb(160,160,160)"/><path d=" M 17.454 297.605 C 13.254 301.105 15.334 307.235 14.164 314.045 C 12.104 326.045 1.394 331.615 3.484 334.595 C 4.834 336.595 8.984 333.595 14.994 336.245 C 18.824 337.915 18.534 339.725 22.384 341.175 C 26.614 342.775 27.684 340.875 33.074 341.995 C 38.804 343.185 38.784 345.565 43.764 346.105 C 48.514 346.625 49.194 344.525 53.624 345.285 C 58.054 346.045 58.304 348.385 62.674 349.395 C 67.424 350.495 67.884 347.895 75.004 347.755 C 81.764 347.615 83.324 349.925 89.004 348.575 C 92.004 347.865 92.274 347.065 94.764 346.935 C 100.254 346.635 102.484 350.345 104.624 349.395 C 107.304 348.225 106.544 341.305 105.454 329.665 C 103.584 309.735 103.904 309.665 102.984 308.295 C 96.594 299.075 84.134 308.885 20.764 295.985 C 19.553 296.271 18.423 296.825 17.454 297.605 Z " fill="rgb(160,160,160)"/><path d=" M 26.504 254.855 C 22.694 256.465 21.304 260.925 19.924 265.545 C 19.194 267.975 15.974 278.545 19.104 280.345 C 20.824 281.345 22.724 278.645 26.504 279.515 C 28.914 280.085 28.934 281.365 31.434 281.985 C 34.714 282.795 35.654 280.825 38.834 281.165 C 43.354 281.645 43.754 285.885 47.834 286.095 C 51.094 286.265 51.454 283.645 55.234 283.625 C 59.014 283.605 59.634 286.315 63.454 286.095 C 66.454 285.925 67.024 284.205 70.034 284.455 C 72.484 284.655 72.534 285.835 74.964 286.095 C 78.434 286.465 79.224 284.155 82.364 284.455 C 85.504 284.755 85.444 287.095 88.934 287.735 C 92.194 288.345 92.714 286.415 96.334 286.915 C 99.954 287.415 101.604 289.495 102.914 288.565 C 103.354 288.245 103.414 287.655 103.734 286.095 C 104.153 283.6 103.869 281.037 102.914 278.695 C 100.004 269.695 101.734 267.425 98.804 264.695 C 97.182 263.307 95.177 262.446 93.054 262.225 C 79.984 260.105 71.194 262.015 60.984 260.585 C 54.984 259.745 47.204 257.585 31.664 254.475 C 29.945 254.077 28.146 254.21 26.504 254.855 Z " fill="rgb(216,216,216)"/><path d=" M 16.864 296.125 C 14.324 302.435 11.434 309.125 14.244 312.295 C 16.384 314.705 21.044 314.195 22.384 314.045 C 25.564 313.705 25.594 312.575 28.144 312.405 C 33.044 312.085 34.244 315.985 38.834 315.695 C 42.624 315.445 43.324 312.695 46.234 313.225 C 49.634 313.905 49.984 318.025 52.804 318.155 C 55.624 318.285 56.334 314.235 59.384 314.045 C 63.154 313.815 64.444 319.845 68.384 319.805 C 71.904 319.805 73.384 315.035 76.604 315.695 C 77.764 315.925 77.774 316.595 79.894 318.155 C 81.684 319.475 84.584 321.605 87.294 321.445 C 91.144 321.215 91.404 316.555 95.514 315.695 C 99.814 314.785 102.584 319.225 104.514 318.155 C 107.134 316.745 107.364 306.245 102.054 300.075 C 93.184 289.755 78.344 302.525 50.724 295.305 C 37.084 291.735 25.614 284.725 20.014 289.835 C 18.984 290.845 18.234 292.605 16.864 296.125 Z " fill="rgb(216,216,216)"/><path d=" M 262.444 42.755 C 262.124 42.555 261.644 42.315 261.624 41.935 C 261.574 41.095 263.714 40.845 264.904 39.465 C 266.274 37.885 265.904 35.465 265.734 34.535 C 263.934 25.535 241.434 22.695 237.404 22.245 L 236.954 22.245 C 234.998 21.259 232.69 21.259 230.734 22.245 C 229.44 22.989 228.443 24.159 227.914 25.555 L 227.914 31.305 C 227.914 43.705 228.044 44.645 227.914 46.105 C 227.094 54.975 218.914 61.385 216.404 63.365 C 202.714 74.105 184.274 70.825 183.524 77.365 C 183.507 77.638 183.507 77.912 183.524 78.185 C 183.584 81.365 183.854 93.775 191.744 98.735 C 192.244 99.055 196.504 101.905 199.144 100.385 C 201.044 99.285 200.804 96.655 202.424 96.275 C 204.354 95.815 205.424 99.325 208.184 99.555 C 211.184 99.805 211.814 96.045 215.584 95.445 C 219.354 94.845 221.534 98.305 223.804 97.095 C 226.074 95.885 224.724 91.855 227.094 90.515 C 229.464 89.175 232.684 92.795 235.314 91.335 C 237.534 90.115 236.384 86.915 238.604 85.585 C 241.424 83.885 245.044 87.985 247.604 86.405 C 250.004 84.945 248.014 80.775 250.894 78.185 C 253.254 76.055 255.894 77.745 257.474 75.715 C 259.474 73.265 256.314 69.985 258.294 66.715 C 259.834 64.135 262.524 64.805 263.224 62.605 C 264.144 59.705 259.814 57.345 260.754 54.385 C 261.454 52.195 264.054 52.745 264.864 50.275 C 265.644 47.905 264.584 44.105 262.444 42.755 Z " fill="rgb(216,216,216)"/><path d=" M 173.654 76.445 C 172.194 74.035 169.374 74.365 163.794 73.155 C 151.294 70.435 139.164 63.045 132.554 54.245 C 130.024 50.875 125.244 43.245 124.894 30.245 L 121.834 26.685 L 121.444 26.465 C 115.914 23.465 109.094 26.465 100.444 30.375 C 82.904 38.375 79.514 40.585 79.894 41.885 C 80.224 43.025 83.094 42.155 84.824 44.345 C 86.914 46.985 84.434 50.345 86.474 52.565 C 88.124 54.385 90.474 52.985 92.224 55.035 C 93.614 56.665 92.514 58.035 93.874 59.965 C 95.234 61.895 97.004 61.295 99.624 63.255 C 102.924 65.735 101.724 68.055 104.554 69.835 C 107.684 71.835 109.934 69.475 112.784 71.475 C 115.464 73.375 114.144 75.935 116.894 78.055 C 119.644 80.175 121.804 78.255 125.114 80.525 C 127.114 81.865 126.474 82.655 129.224 85.455 C 131.064 87.335 131.524 87.165 135.794 90.385 C 140.574 93.975 140.344 94.445 142.374 95.315 C 145.294 96.565 146.084 95.745 149.774 96.965 C 153.874 98.315 154.444 99.845 156.354 100.255 C 163.834 101.895 177.864 83.445 173.654 76.445 Z " fill="rgb(216,216,216)"/><path d=" M 176.974 79.935 C 173.144 78.065 164.084 90.255 148.444 111.295 C 135.274 129.005 132.114 135.535 134.174 141.865 C 135.394 145.625 138.874 150.625 143.684 151.275 C 156.864 153.045 172.184 121.065 176.974 96.395 C 178.234 90.175 179.894 81.365 176.974 79.935 Z " fill="rgb(216,216,216)"/><path d=" M 178.584 80.575 C 175.864 81.045 179.104 93.805 176.124 124.965 C 172.124 166.485 161.484 194.965 170.364 199.775 C 174.274 201.915 177.854 197.235 187.634 198.955 C 198.634 200.875 202.094 208.155 204.894 207.175 C 216.024 203.295 187.064 79.085 178.584 80.575 Z " fill="rgb(216,216,216)"/><path d=" M 348.234 291.785 C 352.154 295.475 347.614 301.495 349.574 310.785 C 351.104 318.045 355.464 321.785 353.684 323.945 C 352.484 325.375 350.324 323.865 346.584 325.525 C 343.264 327.005 343.654 328.785 340.534 330.525 C 337.174 332.395 335.894 330.775 329.324 332.105 C 324.744 333.035 325.184 333.855 320.804 334.635 C 315.864 335.525 315.224 334.495 310.414 335.395 C 305.604 336.295 305.794 337.395 301.894 337.925 C 296.254 338.685 295.624 336.395 290.684 337.045 C 284.514 337.855 283.874 341.635 278.874 341.215 C 275.104 340.905 274.734 338.695 270.654 338.745 C 266.944 338.805 265.164 340.655 263.254 339.575 C 261.494 338.575 261.254 335.965 261.084 334.575 C 259.474 316.575 258.864 307.805 262.734 302.515 C 268.594 294.515 278.674 299.515 344.944 290.205 C 346.234 289.985 347.294 290.895 348.234 291.785 Z " fill="rgb(160,160,160)"/><path d=" M 332.014 243.025 C 333.867 243.368 335.643 244.046 337.254 245.025 C 342.404 248.135 344.194 253.525 345.474 257.355 C 346.754 261.185 348.204 267.865 346.294 268.865 C 344.844 269.625 342.294 266.785 341.064 267.715 C 340.134 268.445 341.404 270.405 340.544 271.325 C 338.834 273.145 331.804 267.155 328.734 269.325 C 327.334 270.325 328.104 272.045 326.564 272.935 C 324.444 274.155 322.344 271.255 319.164 272.105 C 316.654 272.785 316.714 274.935 314.234 275.395 C 311.754 275.855 311.344 274.005 308.484 273.755 C 304.484 273.395 303.394 276.975 299.134 276.755 C 296.184 276.575 296.054 275.045 292.864 274.605 C 288.584 274.025 287.544 276.605 282.994 277.075 C 277.424 277.655 276.554 274.075 269.844 273.785 C 264.494 273.575 261.424 276.785 259.674 275.105 C 258.514 274.015 258.924 271.875 259.154 270.495 C 261.154 258.555 257.744 255.425 259.974 251.585 C 264.114 244.445 276.974 253.405 299.134 247.975 C 306.734 246.095 321.614 241.005 332.014 243.025 Z " fill="rgb(216,216,216)"/><path d=" M 348.764 285.275 C 350.234 290.775 351.154 298.805 348.764 299.835 C 347.084 300.565 344.894 297.425 343.044 298.425 C 341.684 299.165 342.344 301.185 340.584 302.535 C 339.362 303.307 337.898 303.599 336.474 303.355 C 333.324 303.155 332.784 301.505 330.714 301.715 C 328.254 301.965 328.264 304.395 325.784 305.005 C 322.534 305.805 320.964 302.005 317.564 302.535 C 314.164 303.065 314.294 306.805 310.984 307.475 C 307.184 308.235 305.434 303.565 301.124 304.185 C 297.954 304.635 297.704 307.325 294.584 307.345 C 291.934 307.345 291.514 305.415 287.964 305.005 C 286.484 304.835 285.074 305.125 282.254 305.705 C 277.254 306.705 277.474 307.545 275.684 307.345 C 271.784 306.905 271.314 303.765 267.414 303.345 C 264.294 303.025 263.124 304.885 261.664 304.175 C 258.894 302.825 258.084 293.835 261.664 288.555 C 268.214 278.875 284.114 289.395 312.214 282.835 C 328.214 279.095 340.164 271.655 345.514 277.045 C 346.964 278.555 347.564 280.795 348.764 285.275 Z " fill="rgb(216,216,216)"/><path d=" M 205.714 203.065 C 205.624 203.465 204.994 205.975 205.714 206.355 C 206.434 206.735 207.714 205.205 208.184 204.705 C 216.824 195.405 203.254 155.385 203.254 155.385 C 187.624 109.295 181.974 81.105 181.054 81.385 C 179.734 81.795 193.574 139.315 199.964 162.775 C 199.964 162.785 208.104 192.655 205.714 203.065 Z " fill="rgb(112,112,112)"/><path d=" M 178.584 79.745 C 175.124 82.525 182.044 92.255 190.094 118.385 C 198.804 146.625 197.034 155.715 204.894 159.495 C 215.554 164.615 234.774 155.575 238.604 143.055 C 242.704 129.595 227.944 115.745 211.474 100.305 C 209.074 98.045 184.384 75.105 178.584 79.745 Z " fill="rgb(216,216,216)"/><path d=" M 176.124 82.215 C 173.584 81.805 172.004 104.445 158.854 138.935 C 148.254 166.775 139.854 176.815 144.854 189.935 C 149.594 202.265 163.854 211.085 169.514 208.025 C 173.514 205.875 172.204 198.385 171.984 183.365 C 171.794 170.725 172.814 183.025 175.274 134.035 C 177.024 99.665 177.884 82.495 176.124 82.215 Z " fill="rgb(216,216,216)"/><path d=" M 180.234 83.855 C 175.424 82.605 165.114 196.225 165.434 202.245 C 165.404 203.78 165.995 205.262 167.074 206.355 C 167.783 206.896 168.652 207.184 169.544 207.175 C 174.024 206.725 172.804 161.465 176.124 120.035 C 178.474 90.655 181.434 84.175 180.234 83.855 Z " fill="rgb(112,112,112)"/><path d=" M 213.934 106.055 C 212.344 107.155 223.744 118.005 224.624 136.475 C 224.834 140.955 224.424 145.705 227.094 147.165 C 229.984 148.735 235.794 146.055 237.774 142.225 C 243.804 130.585 216.414 104.355 213.934 106.055 Z " fill="rgb(112,112,112)"/><path d=" M 167.904 107.695 C 165.214 106.135 138.364 140.635 144.064 147.165 C 145.384 148.675 148.244 148.445 149.814 147.985 C 154.704 146.545 156.214 140.155 159.684 129.895 C 165.524 112.605 168.854 108.255 167.904 107.695 Z " fill="rgb(112,112,112)"/><path d=" M 6.764 325.555 C 3.554 328.005 -0.996 332.905 0.194 335.425 C 1.194 337.615 5.674 335.085 10.884 337.885 C 15.524 340.395 14.544 343.765 18.274 345.285 C 24.054 347.645 28.634 340.505 34.724 342.825 C 38.724 344.345 38.344 348.055 42.944 349.395 C 46.534 350.395 47.364 348.395 51.944 348.575 C 59.284 348.935 61.144 354.315 66.744 353.505 C 70.674 352.945 70.154 350.125 74.144 349.395 C 80.644 348.215 84.424 355.295 89.764 353.505 C 92.764 352.505 92.514 349.935 95.514 349.395 C 99.844 348.625 102.144 353.665 105.384 352.685 C 108.384 351.785 109.644 346.455 109.494 342.825 C 109.359 340.179 108.505 337.621 107.024 335.425 C 100.614 326.365 78.264 341.885 52.764 335.425 C 37.764 331.625 18.964 319.555 10.844 323.095 C 9.404 323.774 8.036 324.598 6.764 325.555 L 6.764 325.555 Z " fill="rgb(112,112,112)"/><path d=" M 263.004 345.535 C 264.894 346.665 266.854 343.075 271.484 342.825 C 277.204 342.505 278.394 347.745 283.814 347.755 C 289.714 347.755 291.094 341.565 296.974 341.995 C 301.304 342.315 302.154 345.805 305.974 345.285 C 309.794 344.765 309.854 341.415 314.194 340.355 C 318.134 339.355 319.114 341.895 323.194 341.175 C 328.404 340.265 328.544 335.935 333.064 335.425 C 338.134 334.845 340.574 339.815 344.114 338.425 C 347.114 337.255 346.054 333.235 349.514 331.365 C 354.184 328.835 360.114 332.895 361.054 331.285 C 361.594 330.365 359.844 328.645 357.324 325.285 C 353.164 319.705 352.704 317.355 351.324 315.835 C 345.954 309.835 329.874 320.835 309.564 324.665 C 284.144 329.475 261.894 321.255 259.974 327.215 C 259.614 328.315 260.404 328.505 261.234 333.065 C 262.754 340.795 261.144 344.445 263.004 345.535 Z " fill="rgb(112,112,112)"/></g></svg>