<svg xmlns="http://www.w3.org/2000/svg" viewBox="0 0 387.66 387.66">
  <defs><style>.cls-1{fill:#1d1d1b;}</style></defs><path class="cls-1" d="M149.5,47.93a89.3,89.3,0,1,1-89.31,89.3,89.4,89.4,0,0,1,89.31-89.3m0-40a129.3,129.3,0,1,0,129.3,129.3A129.3,129.3,0,0,0,149.5,7.93Z"/><path class="cls-1" d="M218.63,209.34c5,.46,5.11,4.71,14.75,12.5,9.29,7.5,15,8.29,15.19,12.53.09,2-1.22,1.55-7.65,10-3.25,4.25-5.73,8.06-10.75,10.11a6.06,6.06,0,0,1-1.36.47c-4.56.63-7.57-7.52-15.11-17.11s-10.78-9.49-10.95-13.76C202.45,216.89,211.38,208.67,218.63,209.34Z"/><path class="cls-1" d="M241.92,278.36c-6-5.29-17.7-15.38-16.12-27,1.25-9.09,10.5-17.81,20.12-19.12,12.73-1.73,18.07,10.59,47.36,37.25C314.76,289.08,334.12,311,357,328.88c1.55,1.21,5.78,4.43,7.39,9.93,1.69,5.8-.42,11.06-1.19,12.92-3.89,9.32-13.32,14.7-18.19,16.29C322,375.58,301.7,331.16,241.92,278.36Z"/><path class="cls-1" d="M276.5,246.73c-6.66-6.21-19.25-18.61-33-15.95-6.08,1.17-13.4,5.48-15.2,11.87-2.77,9.84,9.09,19.11,32,41.15,32.35,31.05,67.86,65.14,72.4,82.68.33,1.29,1.28,5.53,4.35,6.72,4.53,1.78,11-4.11,16.93-9.77,5-4.72,10.29-9.87,12.34-14C373.24,335.8,348,313.39,276.5,246.73Z"/><path class="cls-1" d="M275.58,253.34c-3.22.11-6.36-13.41-7.31-21.76-.54-4.82-1.23-11.57,1.19-19.78,1.13-3.84,3.11-10.53,7.12-13.85,12.77-10.55,54.78,6,55.53,25.76.83,21.8-49.21,36.46-51.69,32.69-1.83-2.79,21.5-16.88,17.92-28.78-1.3-4.3-6.06-8.13-9.72-7.42C279.2,222,280.45,253.17,275.58,253.34Z"/><path class="cls-1" d="M243.58,276.92c.17-3.7-45.69-20.07-58-2.22-11.08,16.08,9.33,53.77,28.56,53.72,22.23-.06,34.59-50.55,31.18-52.54-2.89-1.68-19.72,30.11-30.46,26.51-4.42-1.48-7.36-8.8-5.54-13.85C213.61,276.66,243.45,279.88,243.58,276.92Z"/><path class="cls-1" d="M240.64,271.48c-2.69,1.55-2,7.3-1.85,9.13,2.22,23.27-11.14,70.33-6.43,71.41,2.54.57,6-13.29,11.22-12.84,4.89.42,5.48,12.81,8.18,12.84,6.07.05,16.66-61.75-1.3-76.84C249.15,274.08,243.63,269.76,240.64,271.48Z"/><path class="cls-1" d="M259.38,246.34c2.9-3.37,8.94-2.52,11.95-2.06,54.32,8.34,75.2,11.81,74.64,15.92-.38,2.73-9.72,2.18-10.8,6.87-1.14,4.91,8.4,9.24,7.45,11.78-1.35,3.58-21-3.05-51.85-8.91-17.11-3.26-27.62-3.88-31.54-11.8C257.58,254.81,256.76,249.37,259.38,246.34Z"/><path class="cls-1" d="M238.12,283.94c-5.87-7-17.62-20.16-14.28-33.74,1.48-6,6.15-13.11,12.63-14.59,10-2.27,18.63,10,39.48,34.07,29.39,33.87,61.66,71,78.94,76.46,1.28.4,5.46,1.56,6.5,4.68,1.54,4.62-4.66,10.76-10.61,16.42-5,4.71-10.37,9.78-14.56,11.63C322.22,385,301.1,358.67,238.12,283.94Z"/></svg>
