<?xml version="1.0" encoding="utf-8"?>
<!-- Generator: Adobe Illustrator 25.0.0, SVG Export Plug-In . SVG Version: 6.00 Build 0)  -->
<svg version="1.1" id="Calque_1" xmlns="http://www.w3.org/2000/svg" xmlns:xlink="http://www.w3.org/1999/xlink" x="0px" y="0px"
	 viewBox="0 0 459.28 390.83" style="enable-background:new 0 0 459.28 390.83;" xml:space="preserve">
<style type="text/css">
	.st0{fill:#707070;}
	.st1{fill:#A0A0A0;}
	.st2{fill:#D8D8D8;}
</style>
<path class="st0" d="M114.92,0.56c17.22,3,43.57,17.6,43.57,17.6c10.49,5.82-0.55-1,38.54,18.43c23.77,11.83,33.94,17.39,60.32,31
	c18.83,9.72,13.86,7,52.78,26.81c67.07,34.17,64.41,33.43,71.21,36c33.62,12.83,44.87,11.06,59.48,26
	c4.37,4.46,19.14,19.45,18.43,41.05c-0.12,3.78-0.53,16.3-9.21,26.81c-11.08,13.41-29.29,15.85-48.59,18.43
	c-20.79,2.79-29.32,0-31.84,5c-3.31,6.62,9.59,15.12,24.3,41.05c8.65,15.26,14.15,25.26,13.4,37.72
	c-1,16.22-11.94,27.74-17.59,33.51c-37.12,37.89-104,30.9-119,29.33c-12.9-1.36-54.58-6.72-94.67-34.35
	c-13.33-9.35-25.67-20.02-36.86-31.84c-24.34-26.41-37.7-46.92-37.7-46.92c-8.77-13.45-14.93-25.29-21.78-24.29
	c-6.43,0.94-6.65,11.94-15.08,14.24c-6.88,1.88-13.86-3.63-20.95-9.21c-5.78-4.57-15.94-12.81-23.46-28.49
	c-5.84-12.19-3.84-15.87-10.89-40.21c-5.63-19.47-6.77-16.63-8.38-25.14c-3.79-20,4.3-25.34,14.25-71.21
	c3.64-16.8,4.45-24.83,11.73-29.32c9.21-5.69,23.5-2.43,26.8-1.68c12.17,2.78,17.1,8.53,20.95,5.87c3.15-2.19,1.27-7.05,3.35-20.11
	c0.84-4.81,1.96-9.56,3.35-14.24c5-18.35,9.19-24.16,13.41-27.65c0.87-0.74,1.8-1.41,2.78-2C101.06,0.74,106.38-0.91,114.92,0.56z"
	/>
<path class="st1" d="M293.37,246.87c-0.55-20.55-23.5-32.89-53.62-52.78c-55.32-36.54-111.18-82.88-117.29-88
	c0,0-50.65-42.19-78.75-40.21c-5.37,0.38-10.55,2.1-15.08,5c-3.02,2.29-5.57,5.13-7.54,8.37C12.8,93.52,65.25,158.53,83.93,182.3
	c37.66,47.93,57,79.85,97.18,106.4c7.24,4.78,18.59,11.68,34.35,13.41c22.53,2.47,47.68-6.32,63.67-25.14
	C285.06,270.11,293.72,259.86,293.37,246.87z"/>
<path class="st1" d="M106.55,5.59c17.79-4.82,31.14,6.73,79.59,31l21.78,10.89c14.7,7.31,16.34,8.06,20.1,10
	c13.29,7,21.36,12.88,28.49,17.6c23.09,15.28,47.14,26,62,32.67c16.25,7.26,27.5,11.24,35.18,23.46c2.33,3.7,6.52,10.57,5,18.43
	c-2,10.66-13.24,16.4-25.13,22.62c-6.43,3.36-14.67,7.57-26,8.38c-12.17,0.87-21.81-2.63-27.64-5c-35.13-14.45-83-51.11-117.29-75.4
	l0,0c-34.6-14.83-51.6-40.75-66.19-63.67c-4.47-7-7.89-13.23-5.86-19.27C93.36,9.16,104.37,6.18,106.55,5.59z"/>
<path class="st2" d="M374.64,136.28c4-4.2,0.87-9.36,3.35-12.56c7.48-9.67,55.59,12,53.62,20.1c-1.4,5.72-27.07,1.69-31.84,13.41
	c-1.3,3.2-1,7.6-5,11.73c-2.62,2.71-4.84,3-6.7,4.19c-9.7,6.34,3,30.23-5,37.7c-5.78,5.38-19.2-0.41-31.84-5.87
	c-9.78-4.22-27.51-11.87-26.81-20.1c0.46-5.43,8.49-5.72,23.46-20.11c5.82-5.6,7.84-8.67,9.21-11.73c2.52-5.61,1.39-8,4.19-10.89
	C365.51,137.65,370.69,140.43,374.64,136.28z"/>
<path class="st2" d="M302.59,263.63c5.94-5.74,4.44-13.07,6.7-20.95c3.58-12.47,16.26-25.19,28.48-26
	c10.64-0.68,19.12,10.1,36.87,31c6.79,8,9.26,12.31,8.38,16.76c-1.42,7.16-10.73,10.85-21.79,15.08c-21.37,8.16-31.89,5.28-41,15.08
	c-3.51,3.75-4.87,7.29-6.7,11.72c-15.54,37.71-23.83,56.34-31.84,57.81c-3.12,0.58-6.34-0.53-36-32.67
	c-20.21-21.89-21.48-24.37-20.95-27.65c2.79-17.16,50.83-32.18,67-35.19C293.71,268.28,298.62,267.47,302.59,263.63z"/>
<path class="st2" d="M384.69,179.85c7,2.42,11.38,7.45,15.08,11.73c5.07,5.86,9.3,10.76,8.38,15.92
	c-0.86,4.81-5.55,6.14-25.13,15.91c-15.9,7.94-18.92,10.11-22.62,8.38c-4.81-2.23-6.07-8.83-8.38-20.94c-2-10.39-3-15.58-0.84-20.11
	C356.13,180.26,372.71,175.73,384.69,179.85z"/>
<path class="st2" d="M393.06,163.09c6.67,4.69,11.77,1.06,26,2.52c9.92,1,14.46,3.5,16.76,0.83c1.62-1.88,0.06-3.93,0-10.89
	c-0.09-9.56,2.81-12.94,0.83-15.08c-2.15-2.32-7.24-0.14-17.59,3.35c-22.1,7.45-30.6,8.19-31,12.57
	C387.77,159.37,391.44,162,393.06,163.09z"/>
<path class="st2" d="M381.34,293c-2.47,2.72-11.4-2.81-19.27-5.86c-22.37-8.68-38.94,1.68-41.89-4.19
	c-2.83-5.64,9.25-21.56,25.14-25.14c19.57-4.4,40.19,11,39.37,18.43c-0.2,1.8-1.59,2.65-2.51,6.71
	C380.85,288.73,382.72,291.43,381.34,293z"/>
<path class="st2" d="M315.99,319.76c0.86,2.1,1.13,4.47,1.68,9.21c1.66,14.43,3.09,27-3.35,34.35c-4.41,5.06-10.74,5.69-20.95,6.71
	c-9.48,0.94-33.9,3.36-40.21-8.38c-2.62-4.88,1.29-14.77,9.21-34.35c8.59-21.21,11.45-23.25,13.41-24.3
	C288.42,296.22,310.2,305.57,315.99,319.76z"/>
<path class="st1" d="M298.4,283.73c-6.13-5.73-36.35,10-35.19,21.79c0.62,6.2,10,11.53,17.6,10.89
	C296.4,315.09,303.72,288.71,298.4,283.73z"/>
<path class="st1" d="M317.67,265.3c-2.28-5.74,6.81-20.42,20.1-19.27c11.32,1,18.93,12.86,16.76,18.44
	C351.13,273.22,320.91,273.49,317.67,265.3z"/>
<path class="st1" d="M377.15,166.44c-4-4.56-22.81,1.28-23.46,9.22c-0.4,5,6.25,11.25,12.57,10.89
	C375.82,186,380.63,170.44,377.15,166.44z"/>
<path class="st1" d="M386.37,143c-2.08-2.85,1.77-12.95,10.05-14.25c6.22-1,12.71,3.38,12.57,6.71
	C408.75,141.07,389.39,147.13,386.37,143z"/>
<path class="st2" d="M181.11,132.09c2.47,0.59,4,2.22,9.21,6.71c6.14,5.28,9.24,7.95,9.22,10.89c0,5.8-12.24,10.06-16.76,11.73
	c-8.73,3.23-34,20.86-84.61,56.13c-11.53,8-17.37,12.13-20.95,15.92c-7.05,7.45-10.72,14-15.08,13.4c-5.29-0.76-8.09-9.17-8.36-10
	l0,0c-3.54-11.11,22.63-33.51,22.63-33.51s71.13-60.94,96.34-70.38C175.39,131.85,178.3,131.54,181.11,132.09z"/>
<path class="st2" d="M95.65,142.15c2.23-1.35,9.59-5.37,24.3-13.41c4.87-2.26,8.71-4.28,11.22-5.66c12-6.57,16.63-10.8,24.8-11.09
	c2.27-0.13,4.54,0.16,6.71,0.84c4.03,1.45,7.53,4.07,10.05,7.54c0.7,0.74,1.27,1.58,1.68,2.51c0.95,5.38-14.93,11.21-36,22.62
	c-2.59,1.4-8.43,4.84-20.11,11.73c-35.88,21.16-53.95,31.95-60.32,42.73c-5.35,9.06-6.85,17.25-13.4,18.43
	c-5.92,1.06-13.93-4-15.92-10.06C21.56,186.75,86.75,147.52,95.65,142.15z"/>
<path class="st2" d="M249.77,70.35c-0.09-1.14-0.71-2.72-3.15-4.48c3-7,10-11.07,16.59-10c7.1,1.13,10.52,7.64,10.89,8.37
	c2.23,4.09,3.11,8.79,2.52,13.41c-1.61,11.07-15,14.07-41.06,29.32c-23.31,13.65-44.38,29.37-52.78,24.3
	c-1.83-1.19-3.51-2.59-5-4.19c-3.77-4.12-5.67-9-5.87-10.89C170.36,101.81,251,85.14,249.77,70.35z"/>
<path class="st2" d="M146.76,92.72c1.31-14.63,73.87-19.26,77.08-39.38c0.28-1.77,0.61-7.36,4.18-9.21c3-1.56,6.91,0.23,10.06,1.67
	c3.93,1.8,8,3.68,9.21,7.54c1.38,4.52-1.65,10.43-7.54,14.24c-7.18,5.55-14.74,10.6-22.62,15.09c-15.76,9-14.31,5.21-38.53,16.75
	c-8.09,3.85-12.56,6.33-18.44,5C154.06,103.1,146.31,97.67,146.76,92.72z"/>
<path class="st1" d="M315.99,261.11c7.69,2.7,13.2,9.51,14.24,17.6c1.57,14.3-13.95,28.5-26,26c-12.65-2.67-21.24-23.84-12.56-36
	C297.31,261.22,307.09,258.16,315.99,261.11z"/>
<path class="st1" d="M374.64,138.8c10.14-1.51,23.17,5,24.29,16.75c1.06,11-8.89,20.53-18.43,20.95
	c-13.31,0.59-24.39-16.66-20.1-27.65C362.76,142.77,369.45,139.57,374.64,138.8z"/>
<path class="st1" d="M75.55,198.28c8.31-5.71,10.92-5.63,12.56-5c3.61,1.33,3,5.41,8.38,12.57c5,6.72,8.23,6.76,8.38,10.05
	c0.18,4.09-4.7,5.45-14.24,14.25c-8.9,8.2-9.74,11.71-13.83,11.72c-3.89,0-7.2-3.61-13.82-10.89c-4.82-5.29-7.23-7.94-7.54-10.47
	C54.49,212.74,64,206.21,75.55,198.28z M74.71,234.28c2.57-0.15,3.19-2.19,8.38-7.54c9-9.23,12.94-9.21,13.4-13.4
	c0.65-5.85-6.37-13-11.73-12.57c-0.7,0.06-1.76,0.27-8.37,5c-2.85,2.05-5.14,3.81-6.71,5c-1,0.71-5.27,3.91-5.86,9.21
	c-0.82,7.44,5.88,14.63,10.89,14.32V234.28z"/>
<path class="st1" d="M53.93,164.77c7.79-5.26,10.23-5.2,11.78-4.63c3.37,1.22,2.83,5,7.85,11.59c4.7,6.2,7.71,6.24,7.85,9.28
	c0.17,3.78-4.41,5-13.35,13.15c-8.34,7.57-9.12,10.81-12.95,10.82c-3.66,0-6.76-3.34-13-10.05c-4.51-4.89-6.77-7.33-7.06-9.67
	C34.19,178.12,43.06,172.1,53.93,164.77z M53.14,198c2.41-0.14,3-2,7.85-7c8.39-8.52,12.13-8.5,12.57-12.37c0.6-5.4-6-12-11-11.6
	c-0.65,0.05-1.65,0.25-7.85,4.64c-2.66,1.89-4.81,3.52-6.28,4.64c-0.94,0.67-4.94,3.61-5.49,8.51
	C42.17,191.67,48.45,198.31,53.14,198z"/>
</svg>
