<?xml version="1.0" standalone="no"?><!-- Generator: Gravit.io --><svg xmlns="http://www.w3.org/2000/svg" xmlns:xlink="http://www.w3.org/1999/xlink" style="isolation:isolate" viewBox="0 0 674.004 549.723" width="674.004" height="549.723"><defs><clipPath id="_clipPath_UWkENtAFqcUbEEYnqQZzB3DQtEnHoN4A"><rect width="674.004" height="549.723"/></clipPath></defs><g clip-path="url(#_clipPath_UWkENtAFqcUbEEYnqQZzB3DQtEnHoN4A)"><path d=" M 673.692 64.911 C 672.442 61.011 668.952 61.301 665.842 57.071 C 659.482 48.411 668.552 38.961 664.972 31.801 C 659.352 20.551 632.452 33.911 594.392 23.091 C 583.282 19.931 578.832 16.871 564.772 14.371 C 550.712 11.871 542.212 13.491 529.912 12.631 C 474.912 8.771 447.452 6.841 440.162 3.921 C 435.712 2.131 424.362 -2.829 415.762 2.171 C 412.102 4.311 410.262 7.491 408.762 10.021 C 403.092 19.811 406.602 26.491 403.542 40.511 C 400.902 52.571 397.672 50.511 397.442 57.941 C 397.052 70.171 405.992 73.941 409.642 90.181 C 410.802 95.371 410.702 100.031 410.512 109.351 C 409.992 133.921 404.282 137.021 407.892 147.691 C 411.422 158.111 418.762 160.691 417.482 168.601 C 416.672 173.601 412.342 173.771 409.642 179.931 C 407.382 185.061 409.092 187.201 409.642 199.101 C 410.472 217.401 406.882 222.101 411.382 228.731 C 412.632 230.571 414.382 232.421 414.862 235.731 C 415.202 238.241 414.612 240.531 412.252 246.181 C 410.082 251.371 408.252 255.081 407.892 255.771 C 403.772 264.231 407.632 270.951 409.642 291.491 C 410.642 301.401 411.092 306.351 410.512 308.921 C 407.222 323.511 395.082 326.151 393.952 340.291 C 393.602 344.741 394.542 347.771 392.212 351.621 C 389.672 355.821 386.882 354.951 381.752 360.331 C 378.242 364.021 378.622 365.401 373.912 370.791 C 371.996 372.938 369.96 374.975 367.812 376.891 C 355.002 388.221 314.002 385.261 305.102 402.131 C 303.722 404.761 303.022 408.821 301.622 416.941 C 300.681 422.413 300.099 427.942 299.882 433.491 C 298.642 459.491 298.022 472.491 303.362 479.681 C 306.062 483.291 310.362 485.571 319.042 490.131 C 328.822 495.281 339.572 500.941 353.902 503.201 C 358.772 503.971 394.682 509.731 418.382 489.261 C 422.662 485.561 426.252 481.261 429.712 482.261 C 436.252 484.261 425.712 508.671 437.552 524.961 C 440.042 528.371 443.552 531.471 451.492 535.411 C 502.232 560.471 545.602 545.001 545.602 545.001 C 565.362 537.951 557.862 533.311 598.752 510.141 C 627.562 493.821 637.492 492.521 644.062 479.651 C 645.992 475.871 646.632 473.041 645.802 427.361 C 645.162 392.281 644.692 388.991 644.062 385.541 C 641.602 372.081 638.112 363.911 636.222 346.331 C 635.422 338.951 635.662 336.901 634.472 328.901 C 632.902 318.261 631.572 315.731 632.732 310.601 C 634.552 302.551 639.132 303.031 639.732 296.661 C 640.452 288.661 634.502 285.871 634.502 275.751 C 634.502 271.281 635.732 271.631 637.122 264.421 C 640.312 247.881 635.252 238.971 640.602 234.801 C 643.602 232.431 646.402 234.401 649.322 231.311 C 650.692 229.851 651.972 227.411 651.932 219.981 C 651.919 214.994 651.335 210.025 650.192 205.171 C 647.652 194.631 643.252 177.171 651.062 165.961 C 654.392 161.201 656.562 161.961 658.902 157.251 C 662.662 149.701 657.522 144.631 657.162 131.981 C 656.992 126.171 658.032 127.821 660.652 110.191 C 663.482 91.071 661.912 91.481 664.132 85.791 C 668.532 74.511 675.572 70.821 673.692 64.911 Z  M 540.372 188.641 C 539.845 194.729 539.845 200.852 540.372 206.941 C 540.872 212.441 541.482 213.671 542.112 218.271 C 542.692 222.481 543.042 227.681 541.242 246.151 C 539.662 262.341 539.132 261.041 538.632 269.681 C 538.142 278.021 538.632 279.211 538.632 294.081 C 538.632 307.591 538.512 314.341 537.752 322.831 C 537.442 326.401 535.242 351.191 529.912 351.591 C 527.732 351.751 525.802 347.791 524.682 345.491 C 520.392 336.671 523.682 331.321 522.072 320.221 C 520.902 311.881 518.742 312.601 515.972 301.051 C 514.473 294.174 513.6 287.175 513.362 280.141 C 512.652 259.701 518.612 236.621 526.232 204.681 C 534.232 171.301 532.832 174.951 537.172 157.981 C 544.172 130.691 546.532 125.881 548.172 112.841 C 548.372 111.261 549.862 104.981 549.912 104.991 C 549.962 105.001 548.702 111.991 547.302 118.061 C 542.022 140.961 536.002 146.001 536.842 158.151 C 537.305 163.993 539.093 169.653 542.072 174.701 C 541.264 179.315 540.696 183.968 540.372 188.641 L 540.372 188.641 Z " fill="rgb(160,160,160)"/><path d=" M 492.442 55.331 C 478.032 41.331 441.842 69.851 416.642 52.711 C 410.562 48.581 408.112 43.831 404.442 44.871 C 395.362 47.451 392.442 81.541 403.572 87.571 C 408.692 90.351 413.572 85.401 424.482 81.471 C 458.542 69.161 485.882 90.471 495.062 78.851 C 499.572 73.151 498.412 61.121 492.442 55.331 Z " fill="rgb(112,112,112)"/><path d=" M 409.672 113.711 C 412.472 113.351 413.082 119.621 420.122 124.161 C 426.422 128.231 432.242 127.291 445.392 126.781 C 466.282 125.971 476.842 125.661 482.862 130.261 C 489.862 135.651 494.072 146.591 490.702 151.181 C 487.702 155.321 479.702 152.641 441.912 148.561 C 434.912 147.801 427.912 147.131 420.122 150.301 C 412.012 153.611 409.952 158.251 407.052 157.301 C 399.002 154.571 402.652 114.591 409.672 113.711 Z " fill="rgb(112,112,112)"/><path d=" M 409.672 181.671 C 411.872 178.171 416.482 174.541 420.122 175.571 C 425.992 177.241 422.412 189.051 428.842 195.571 C 440.692 207.681 471.262 186.271 482.842 198.191 C 486.912 202.371 488.392 210.401 485.452 214.741 C 477.852 226.011 444.572 206.741 423.592 221.741 C 421.312 223.361 417.842 226.351 414.872 225.221 C 411.612 223.991 411.872 218.901 409.652 201.691 C 408.052 189.121 407.132 185.701 409.672 181.671 Z " fill="rgb(112,112,112)"/><path d=" M 410.542 247.901 C 412.432 247.461 413.462 249.511 421.862 255.741 C 421.862 255.741 428.252 260.481 434.932 264.451 C 451.782 274.451 468.932 263.451 475.022 271.451 C 479.022 276.701 476.862 288.391 470.662 292.361 C 459.712 299.361 442.502 278.241 422.742 285.361 C 415.842 287.861 413.982 291.871 410.542 290.591 C 400.682 286.951 402.942 249.651 410.542 247.901 Z " fill="rgb(112,112,112)"/><path d=" M 406.182 310.631 C 408.482 308.811 411.052 306.791 414.022 307.151 C 419.882 307.861 420.072 316.981 426.222 324.581 C 437.612 338.581 457.142 332.311 461.082 342.871 C 463.022 348.101 460.532 355.791 455.852 358.561 C 446.452 364.111 435.142 345.751 415.762 348.971 C 409.122 350.081 404.562 353.221 398.342 350.721 C 394.642 349.231 390.342 345.721 389.622 341.131 C 389.022 337.401 391.282 336.321 396.622 326.321 C 401.382 317.331 401.702 314.171 406.182 310.631 Z " fill="rgb(112,112,112)"/><path d=" M 549.082 60.561 C 551.322 58.941 555.342 57.441 558.672 58.811 C 564.252 61.121 563.942 69.941 569.122 71.011 C 570.632 71.228 572.171 70.921 573.482 70.141 C 582.992 65.611 601.632 69.401 618.792 67.531 C 643.012 64.871 648.292 52.661 662.362 57.941 C 664.542 58.761 672.672 62.151 673.692 68.401 C 674.712 74.651 667.922 80.551 665.842 82.341 C 639.842 104.661 583.292 81.581 568.252 98.021 C 567.062 99.331 562.342 105.021 555.182 105.871 C 553.772 106.031 549.562 106.531 546.472 104.121 C 544.552 102.631 542.812 99.821 543.852 82.341 C 544.892 64.861 547.002 62.071 549.082 60.561 Z " fill="rgb(112,112,112)"/><path d=" M 550.002 136.331 C 553.471 133.624 558.115 132.962 562.202 134.591 C 566.692 136.651 566.202 141.041 570.922 145.051 C 573.922 147.571 577.412 148.681 583.992 149.401 C 595.712 150.691 602.202 149.121 624.072 146.791 C 639.652 145.131 644.552 145.061 650.212 140.691 C 653.362 138.261 655.092 135.771 657.212 136.331 C 661.212 137.401 663.352 149.251 658.952 157.251 C 655.842 162.891 650.062 165.521 643.272 167.701 C 609.912 178.431 582.972 168.701 566.592 176.421 C 563.32 177.995 559.76 178.883 556.132 179.031 C 554.012 179.111 545.422 179.421 542.192 174.671 C 539.902 171.301 542.352 168.371 544.812 156.371 C 547.382 143.401 546.002 139.561 550.002 136.331 Z " fill="rgb(112,112,112)"/><path d=" M 544.732 206.071 C 540.532 213.651 543.142 217.401 541.242 233.951 C 540.342 241.761 539.372 244.371 541.242 246.151 C 543.662 248.451 547.832 246.541 557.802 245.281 C 557.802 245.281 560.962 244.881 572.612 244.411 C 587.222 243.821 592.612 248.411 603.982 249.641 C 620.402 251.391 641.092 245.231 649.292 231.341 C 654.132 223.141 654.832 211.891 651.032 209.561 C 647.712 207.561 643.272 213.721 631.862 218.271 C 619.472 223.211 608.302 222.431 598.752 221.761 C 585.072 220.761 577.422 220.261 569.992 214.761 C 560.372 207.671 558.422 197.661 552.572 198.211 C 548.872 198.581 546.512 202.851 544.732 206.071 Z " fill="rgb(112,112,112)"/><path d=" M 540.372 283.621 C 540.692 279.751 540.372 277.311 542.112 275.781 C 545.312 273.001 552.112 276.071 553.442 276.651 C 562.762 280.831 562.862 287.461 569.122 291.461 C 575.122 295.301 584.242 292.911 602.232 287.981 C 624.522 281.871 635.432 275.981 640.572 280.981 C 642.682 283.031 643.002 286.101 643.192 287.981 C 644.032 296.161 637.542 302.421 635.352 304.531 C 631.379 308.227 626.578 310.919 621.352 312.381 C 598.352 319.641 586.122 311.741 566.462 317.601 C 562.842 318.681 559.402 319.491 552.522 321.091 C 540.592 323.871 539.032 323.711 537.702 322.831 C 531.442 318.681 535.372 301.831 535.962 299.311 C 537.692 292.101 539.762 290.911 540.372 283.621 Z " fill="rgb(112,112,112)"/><path d=" M 529.912 347.231 C 532.562 341.441 533.372 339.351 536.012 337.651 C 543.262 332.971 556.162 336.461 558.672 342.871 C 560.062 346.451 557.102 348.051 557.802 351.591 C 560.302 364.361 604.002 369.411 608.332 369.891 C 611.792 370.261 622.612 371.351 630.992 378.601 C 633.992 381.181 635.262 383.341 635.352 385.601 C 635.552 390.661 629.542 395.081 625.762 396.931 C 617.402 401.001 609.442 397.561 569.122 383.861 C 560.522 380.931 556.122 379.471 549.952 379.501 C 542.882 379.501 538.722 381.391 529.952 380.371 C 523.472 379.621 520.222 379.241 518.622 376.891 C 516.082 373.161 520.002 368.871 529.912 347.231 Z " fill="rgb(112,112,112)"/><path d=" M 636.222 396.901 C 629.112 407.571 624.282 409.141 609.222 423.041 C 590.002 440.711 593.132 442.521 578.712 455.331 C 570.252 462.811 557.712 473.721 538.632 481.471 C 530.972 484.581 509.302 493.071 481.992 489.311 C 467.772 487.311 450.452 484.971 442.782 472.751 C 440.782 469.561 438.102 463.581 435.782 464.041 C 433.892 464.421 432.612 469.111 433.162 472.751 C 434.832 483.661 451.412 489.441 461.052 492.751 C 473.368 497.032 486.345 499.097 499.382 498.851 C 518.602 498.362 537.427 493.281 554.282 484.031 C 558.672 481.561 565.422 477.371 597.852 445.691 C 626.672 417.541 619.642 421.341 627.472 416.071 C 633.472 412.001 642.882 406.661 644.902 396.901 C 645.602 393.531 645.612 388.741 644.032 388.181 C 642.102 387.501 638.442 393.551 636.222 396.901 Z " fill="rgb(112,112,112)"/><path d=" M 301.622 416.941 C 302.552 416.311 306.832 423.941 314.692 430.011 C 324.162 437.331 334.052 438.711 347.802 440.461 C 359.182 441.911 372.802 443.651 389.622 439.591 C 403.692 436.211 412.912 430.501 430.622 419.591 C 451.492 406.661 448.762 404.751 462.862 397.811 C 478.862 389.921 483.662 391.811 502.942 382.121 C 516.942 375.121 524.822 368.911 525.602 369.931 C 526.382 370.951 517.542 381.111 505.602 389.101 C 490.492 399.171 483.602 397.361 464.602 406.521 C 451.072 413.081 452.112 415.231 433.232 426.521 C 415.572 437.121 405.462 443.201 391.412 447.441 C 362.862 456.051 335.202 451.911 321.702 443.081 C 316.754 439.698 312.347 435.584 308.632 430.881 C 303.912 424.691 300.742 417.531 301.622 416.941 Z " fill="rgb(112,112,112)"/><path d=" M 517.712 426.521 C 510.172 422.291 507.202 417.441 502.902 418.681 C 499.362 419.681 496.902 424.311 496.802 428.271 C 496.652 439.051 514.592 452.211 529.042 448.271 C 537.172 446.071 544.332 438.421 542.982 434.331 C 541.492 429.851 531.082 434.021 517.712 426.521 Z " fill="rgb(216,216,216)"/><path d=" M 511.612 458.761 C 507.672 457.311 503.762 458.091 495.932 459.631 C 487.492 461.301 480.232 462.741 479.372 466.631 C 478.512 470.521 484.872 475.161 486.372 476.211 C 499.102 485.211 520.532 484.651 523.842 477.081 C 526.182 471.651 519.692 461.741 511.612 458.761 Z " fill="rgb(216,216,216)"/><path d=" M 452.362 455.331 C 450.602 458.171 454.642 467.421 461.952 467.531 C 467.282 467.601 472.112 462.771 471.532 459.681 C 470.592 454.611 454.742 451.451 452.362 455.331 Z " fill="rgb(216,216,216)"/><path d=" M 320.792 409.971 C 318.422 411.871 318.602 419.751 324.272 423.041 C 329.942 426.331 336.882 422.551 337.342 419.551 C 338.062 414.961 324.412 407.061 320.792 409.971 Z " fill="rgb(216,216,216)"/><path d=" M 349.542 419.551 C 350.952 412.691 363.052 407.781 370.452 412.551 C 374.882 415.431 377.652 421.791 375.682 426.491 C 372.892 433.151 361.342 434.701 354.772 429.981 C 351.842 427.901 348.702 423.681 349.542 419.551 Z " fill="rgb(216,216,216)"/><path d=" M 375.682 396.901 C 374.312 401.901 399.332 418.321 411.412 410.841 C 414.412 408.971 417.412 405.121 416.642 402.131 C 415.582 398.131 408.172 397.031 400.952 396.031 C 397.002 395.481 376.842 392.661 375.682 396.901 Z " fill="rgb(216,216,216)"/><path d=" M 553.442 50.101 C 561.002 50.501 566.442 53.621 570.872 56.201 C 576.452 59.431 589.002 66.681 588.292 76.201 C 587.882 81.741 583.022 88.081 577.842 88.401 C 566.272 89.101 556.532 59.621 553.552 50.591 C 553.552 50.591 553.552 50.041 553.442 50.061 C 553.332 50.081 561.042 94.861 577.842 96.241 C 585.642 96.881 594.362 88.061 595.262 79.681 C 597.002 63.891 571.702 43.411 550.002 48.331 C 534.002 51.971 526.582 67.921 525.612 70.111 C 521.612 79.201 519.612 93.281 524.732 96.251 C 529.852 99.221 542.582 90.711 548.262 79.691 C 555.922 64.831 549.552 48.391 550.002 48.331 C 550.452 48.271 560.382 68.431 550.872 86.671 C 544.282 99.311 528.962 109.881 521.252 105.841 C 513.032 101.521 513.022 80.361 522.122 66.621 C 528.622 56.781 540.752 49.431 553.442 50.101 Z " fill="rgb(216,216,216)"/><path d=" M 553.442 47.481 C 550.202 47.421 541.442 333.141 544.732 333.291 C 544.982 333.291 545.482 330.101 546.472 323.701 C 547.792 315.151 549.822 301.811 550.822 285.361 C 552.202 262.691 551.172 241.621 550.822 228.731 C 550.002 197.601 552.592 191.331 554.312 150.331 C 556.512 97.741 554.802 47.511 553.442 47.481 Z " fill="rgb(216,216,216)"/><path d=" M 549.562 53.141 C 551.272 52.291 588.092 99.581 604.042 169.461 C 625.412 263.061 597.152 343.831 595.712 343.631 C 594.452 343.461 614.332 282.141 601.772 199.201 C 588.602 112.181 547.692 54.071 549.562 53.141 Z " fill="rgb(216,216,216)"/><path d=" M 405.372 35.081 C 405.372 34.751 372.372 29.451 360.872 47.481 C 354.182 57.961 355.372 75.311 363.482 79.721 C 371.052 83.841 382.542 75.581 385.272 73.631 C 400.622 62.631 404.062 44.711 404.442 44.871 C 404.822 45.031 402.312 61.371 388.752 71.011 C 385.482 73.341 377.462 79.011 371.332 76.241 C 363.642 72.721 361.332 56.911 366.972 47.481 C 376.162 32.221 405.402 35.401 405.372 35.081 Z " fill="rgb(216,216,216)"/><path d=" M 407.932 33.541 C 408.102 33.281 464.402 61.131 460.352 73.621 C 458.112 80.521 437.152 83.321 423.862 74.621 C 408.802 64.791 407.662 42.861 407.932 42.761 C 410.067 50.546 413.933 57.749 419.242 63.831 C 423.402 68.511 427.012 73.191 433.112 74.111 C 438.862 74.971 446.622 72.631 448.002 68.371 C 451.752 56.851 407.792 33.771 407.932 33.541 Z " fill="rgb(216,216,216)"/><path d=" M 404.442 44.871 C 403.362 44.731 395.632 80.051 394.852 124.161 C 394.622 137.251 394.462 146.431 395.722 159.021 C 401.122 212.761 422.992 234.021 415.722 263.581 C 411.872 279.361 402.502 293.201 402.502 293.201 C 397.502 300.581 392.502 305.641 392.202 305.411 C 391.522 304.871 420.032 281.841 423.572 250.511 C 425.782 230.891 415.992 227.671 407.012 193.871 C 399.412 165.261 399.672 142.101 400.012 108.481 C 400.512 69.331 405.332 44.991 404.442 44.871 Z " fill="rgb(216,216,216)"/><path d=" M 404.442 44.001 C 402.992 43.521 379.442 104.911 387.882 139.851 C 391.022 152.851 395.262 160.291 395.272 160.291 C 400.152 168.821 404.432 171.471 410.662 182.181 C 413.249 186.799 415.537 191.579 417.512 196.491 C 426.892 219.651 427.092 245.811 427.092 251.381 C 427.092 287.191 418.462 311.321 419.252 311.501 C 420.042 311.681 430.322 285.401 431.452 250.501 C 432.002 233.381 432.352 222.561 427.962 208.681 C 421.422 187.981 413.182 181.791 401.082 154.891 C 397.65 147.023 395.263 138.739 393.982 130.251 C 386.162 83.141 405.622 44.391 404.442 44.001 Z " fill="rgb(216,216,216)"/><path d=" M 100.382 61.201 C 115.382 63.791 138.442 76.571 138.442 76.571 C 147.602 81.661 137.962 75.681 172.102 92.681 C 192.872 103.011 201.762 107.871 224.802 119.761 C 241.262 128.241 236.922 125.861 270.912 143.181 C 329.512 173.031 327.192 172.391 333.132 174.651 C 362.502 185.871 372.332 184.311 385.132 197.341 C 388.952 201.241 401.852 214.341 401.242 233.211 C 401.132 236.511 400.772 247.451 393.192 256.631 C 383.512 268.341 367.602 270.471 350.732 272.731 C 332.582 275.161 325.122 272.731 322.922 277.121 C 320.032 282.911 331.302 290.341 344.152 312.991 C 351.702 326.311 356.502 334.991 355.862 345.921 C 355.022 360.101 345.432 370.161 340.492 375.201 C 308.062 408.301 249.662 402.201 236.552 400.821 C 225.282 399.641 188.872 394.951 153.852 370.821 C 142.211 362.653 131.42 353.337 121.642 343.011 C 100.382 319.931 88.702 302.011 88.702 302.011 C 81.042 290.251 75.702 279.911 69.702 280.781 C 64.092 281.601 63.892 291.211 56.532 293.231 C 50.532 294.871 44.422 290.061 38.232 285.171 C 29.472 278.673 22.418 270.15 17.672 260.331 C 12.562 249.681 14.312 246.461 8.152 225.201 C 3.232 208.201 2.242 210.671 0.832 203.201 C -2.478 185.691 4.582 181.061 13.282 140.981 C 16.462 126.331 17.172 119.331 23.522 115.331 C 31.522 110.331 44.062 113.201 46.942 113.861 C 57.572 116.291 61.882 121.321 65.242 118.991 C 68.002 117.081 66.352 112.831 68.172 101.421 C 68.901 97.22 69.879 93.066 71.102 88.981 C 75.452 72.981 79.102 67.871 82.812 64.821 C 83.58 64.187 84.392 63.609 85.242 63.091 C 88.282 61.331 92.912 59.921 100.382 61.201 Z " fill="rgb(112,112,112)"/><path d=" M 256.282 276.391 C 255.792 258.441 235.742 247.661 209.432 230.281 C 161.102 198.331 112.302 157.871 107.002 153.431 C 107.002 153.431 62.752 116.561 38.202 118.291 C 33.512 118.628 28.983 120.141 25.032 122.691 C 22.391 124.69 20.154 127.175 18.442 130.011 C 11.192 142.471 57.022 199.271 73.332 220.011 C 106.242 261.881 123.122 289.771 158.242 313.011 C 164.572 317.191 174.482 323.211 188.242 324.721 C 207.922 326.881 229.892 319.201 243.862 302.721 C 249.002 296.691 256.582 287.741 256.282 276.391 Z " fill="rgb(160,160,160)"/><path d=" M 93.062 65.601 C 108.602 61.391 120.272 71.481 162.592 92.681 L 181.592 102.191 C 194.442 108.581 195.862 109.191 199.162 110.981 C 210.762 117.121 217.822 122.231 224.042 126.351 C 244.212 139.701 265.222 149.091 278.202 154.891 C 292.402 161.241 302.202 164.711 308.942 175.381 C 310.942 178.621 314.642 184.621 313.342 191.491 C 311.572 200.801 301.772 205.811 291.342 211.251 C 285.722 214.191 278.522 217.861 268.652 218.571 C 260.365 219.037 252.085 217.533 244.492 214.181 C 213.872 201.551 172.002 169.531 142.092 148.331 L 142.092 148.331 C 111.872 135.331 97.012 112.741 84.272 92.711 C 80.372 86.571 77.382 81.161 79.152 75.871 C 81.542 68.711 91.162 66.111 93.062 65.601 Z " fill="rgb(160,160,160)"/><path d=" M 327.272 179.781 C 330.772 176.111 328.042 171.601 330.202 168.781 C 336.732 160.331 378.772 179.331 377.002 186.331 C 375.782 191.331 353.362 187.811 349.192 198.041 C 348.052 200.841 348.292 204.691 344.802 208.291 C 342.502 210.661 340.572 210.891 338.942 211.951 C 330.472 217.491 341.552 238.361 334.552 244.891 C 329.552 249.591 317.782 244.531 306.742 239.761 C 298.202 236.081 282.742 229.391 283.322 222.201 C 283.722 217.451 290.732 217.201 303.812 204.631 C 308.902 199.741 310.662 197.061 311.812 194.381 C 314.012 189.481 313.032 187.441 315.472 184.871 C 319.302 180.971 323.832 183.401 327.272 179.781 Z " fill="rgb(216,216,216)"/><path d=" M 264.332 291.031 C 269.522 286.031 268.212 279.611 270.182 272.731 C 273.312 261.841 284.392 250.731 295.072 250.041 C 304.362 249.451 311.772 258.861 327.272 277.121 C 333.212 284.121 335.362 287.871 334.592 291.761 C 333.352 298.021 325.222 301.241 315.592 304.941 C 296.922 312.071 287.732 309.551 279.732 318.111 C 276.662 321.391 275.472 324.481 273.872 328.361 C 260.272 361.331 253.002 377.581 246.002 378.861 C 243.272 379.361 240.462 378.401 214.532 350.321 C 196.872 331.191 195.762 329.031 196.232 326.161 C 198.662 311.161 240.632 298.041 254.782 295.421 C 258.335 294.954 261.665 293.424 264.332 291.031 L 264.332 291.031 Z " fill="rgb(216,216,216)"/><path d=" M 336.062 217.841 C 342.212 219.951 346.002 224.341 349.232 228.081 C 353.662 233.211 357.352 237.491 356.552 241.991 C 355.802 246.191 351.712 247.361 334.552 255.901 C 320.672 262.831 318.032 264.721 314.792 263.221 C 310.592 261.221 309.492 255.501 307.472 244.921 C 305.742 235.841 304.872 231.311 306.742 227.351 C 311.102 218.191 325.592 214.241 336.062 217.841 Z " fill="rgb(216,216,216)"/><path d=" M 343.382 203.201 C 349.202 207.291 353.662 204.121 366.062 205.391 C 374.732 206.281 378.692 208.461 380.702 206.131 C 382.122 204.481 380.762 202.691 380.702 196.611 C 380.632 188.251 383.172 185.301 381.442 183.441 C 379.562 181.441 375.112 183.321 366.062 186.361 C 346.752 192.871 339.332 193.511 338.982 197.361 C 338.752 199.951 342.002 202.201 343.382 203.201 Z " fill="rgb(216,216,216)"/><path d=" M 333.132 316.651 C 330.972 319.031 323.132 314.191 316.292 311.521 C 296.752 303.951 282.292 312.991 279.702 307.861 C 277.232 302.941 287.772 289.031 301.702 285.911 C 318.792 282.061 336.812 295.501 336.102 302.011 C 335.922 303.581 334.712 304.321 333.902 307.861 C 332.702 312.961 334.332 315.331 333.132 316.651 Z " fill="rgb(216,216,216)"/><path d=" M 276.002 340.071 C 276.752 341.901 277.002 343.981 277.462 348.071 C 278.912 360.671 280.172 371.611 274.532 378.071 C 270.682 382.491 265.162 383.071 256.242 383.921 C 247.952 384.751 226.622 386.921 221.102 376.601 C 218.812 372.341 222.232 363.701 229.152 346.601 C 236.652 328.071 239.152 326.291 240.872 325.371 C 252.002 319.501 271.002 327.681 276.002 340.071 Z " fill="rgb(216,216,216)"/><path d=" M 260.672 308.601 C 255.312 303.601 228.912 317.351 229.932 327.601 C 230.462 333.021 238.662 337.671 245.302 337.111 C 258.922 335.991 265.322 312.951 260.672 308.601 Z " fill="rgb(160,160,160)"/><path d=" M 277.502 292.491 C 275.502 287.491 283.452 274.651 295.072 275.661 C 304.952 276.521 311.602 286.891 309.712 291.761 C 306.742 299.411 280.332 299.651 277.502 292.491 Z " fill="rgb(160,160,160)"/><path d=" M 329.472 206.131 C 325.992 202.131 309.542 207.241 308.972 214.181 C 308.622 218.511 314.432 224.011 319.972 223.691 C 328.312 223.211 332.512 209.621 329.472 206.131 Z " fill="rgb(160,160,160)"/><path d=" M 337.522 185.631 C 335.712 183.141 339.072 174.321 346.302 173.191 C 351.732 172.341 357.412 176.141 357.302 179.041 C 357.072 183.961 340.162 189.251 337.522 185.631 Z " fill="rgb(160,160,160)"/><path d=" M 158.202 176.121 C 160.362 176.631 161.702 178.051 166.252 181.971 C 171.602 186.591 174.312 188.921 174.302 191.491 C 174.302 196.561 163.612 200.271 159.662 201.731 C 152.032 204.561 129.932 219.961 85.742 250.731 C 75.662 257.731 70.562 261.341 67.442 264.641 C 61.282 271.151 58.072 276.901 54.262 276.351 C 49.642 275.691 47.192 268.351 46.962 267.611 L 46.962 267.611 C 43.872 257.911 66.732 238.331 66.732 238.331 C 66.732 238.331 128.882 185.101 150.902 176.851 C 153.204 175.867 155.751 175.613 158.202 176.121 L 158.202 176.121 Z " fill="rgb(216,216,216)"/><path d=" M 83.542 184.901 C 85.492 183.731 91.912 180.211 104.772 173.191 C 109.022 171.191 112.382 169.441 114.572 168.241 C 125.072 162.501 129.102 158.801 136.242 158.551 C 138.22 158.447 140.2 158.694 142.092 159.281 C 145.614 160.552 148.675 162.846 150.882 165.871 C 151.497 166.51 151.992 167.256 152.342 168.071 C 153.172 172.771 139.342 177.861 120.872 187.831 C 118.602 189.051 113.502 192.061 103.302 198.071 C 71.962 216.561 56.172 225.991 50.602 235.401 C 45.922 243.321 44.602 250.481 38.892 251.511 C 33.722 252.441 26.732 248.031 24.992 242.721 C 18.802 223.871 75.762 189.591 83.542 184.901 Z " fill="rgb(216,216,216)"/><path d=" M 218.192 122.171 C 218.102 121.171 217.572 119.801 215.432 118.261 C 218.072 112.111 224.172 108.591 229.932 109.511 C 236.132 110.511 239.122 116.191 239.442 116.831 C 241.388 120.406 242.158 124.503 241.642 128.541 C 240.242 138.221 228.522 140.841 205.772 154.161 C 185.412 166.081 166.992 179.821 159.662 175.381 C 158.054 174.35 156.579 173.124 155.272 171.731 C 151.982 168.131 150.322 163.831 150.152 162.211 C 148.812 149.661 219.262 135.091 218.192 122.171 Z " fill="rgb(216,216,216)"/><path d=" M 128.192 141.721 C 129.342 128.941 192.732 124.901 195.532 107.321 C 195.772 105.771 196.072 100.881 199.192 99.261 C 201.802 97.911 205.192 99.471 207.972 100.731 C 211.402 102.301 214.972 103.941 215.972 107.321 C 217.182 111.271 214.532 116.421 209.382 119.761 C 203.112 124.609 196.509 129.009 189.622 132.931 C 175.852 140.771 177.112 137.481 155.952 147.571 C 148.892 150.941 144.952 153.101 139.852 151.961 C 134.582 150.791 127.802 146.041 128.192 141.721 Z " fill="rgb(216,216,216)"/><path d=" M 276.002 288.831 C 282.719 291.193 287.531 297.139 288.442 304.201 C 289.802 316.701 276.252 329.111 265.752 326.891 C 254.702 324.561 247.202 306.071 254.752 295.421 C 259.695 288.902 268.238 286.253 276.002 288.831 Z " fill="rgb(160,160,160)"/><path d=" M 327.272 181.971 C 336.142 180.661 347.512 186.371 348.502 196.611 C 349.422 206.201 340.732 214.541 332.402 214.911 C 320.772 215.421 311.092 200.361 314.832 190.761 C 316.902 185.451 322.742 182.651 327.272 181.971 Z " fill="rgb(160,160,160)"/><path d=" M 66.002 233.941 C 73.262 228.941 75.552 229.021 77.002 229.551 C 80.152 230.711 79.652 234.271 84.322 240.551 C 88.712 246.421 91.512 246.451 91.642 249.331 C 91.802 252.901 87.532 254.091 79.202 261.771 C 71.422 268.941 70.692 272.001 67.122 272.021 C 63.722 272.021 60.832 268.861 55.052 262.501 C 50.842 257.881 48.732 255.571 48.462 253.361 C 47.572 246.581 55.882 240.871 66.002 233.941 Z  M 65.272 265.411 C 67.522 265.271 68.062 263.501 72.592 258.821 C 80.412 250.761 83.902 250.771 84.302 247.111 C 84.872 242.001 78.742 235.791 74.062 236.111 C 73.442 236.161 72.512 236.341 66.742 240.511 C 64.252 242.291 62.252 243.831 60.882 244.901 C 60.002 245.531 56.282 248.311 55.762 252.951 C 55.002 259.391 60.862 265.681 65.242 265.411 L 65.272 265.411 Z " fill="rgb(160,160,160)"/><path d=" M 47.092 204.671 C 53.892 200.071 56.032 200.121 57.382 200.611 C 60.382 201.691 59.852 204.971 64.232 210.751 C 68.342 216.161 70.972 216.201 71.092 218.851 C 71.242 222.151 67.242 223.251 59.432 230.341 C 52.152 236.951 51.432 239.781 48.122 239.791 C 44.812 239.801 42.222 236.881 36.802 231.011 C 32.802 226.741 30.882 224.611 30.632 222.571 C 29.842 216.331 37.632 211.061 47.092 204.671 Z  M 46.402 233.671 C 48.502 233.551 49.022 231.911 53.262 227.591 C 60.592 220.151 63.862 220.161 64.262 216.791 C 64.792 212.071 59.052 206.331 54.662 206.651 C 54.092 206.701 53.212 206.871 47.802 210.711 C 45.482 212.361 43.602 213.781 42.322 214.761 C 41.492 215.341 38.002 217.911 37.512 222.191 C 36.812 228.161 42.302 233.961 46.402 233.711 L 46.402 233.671 Z " fill="rgb(160,160,160)"/></g></svg>