<?xml version="1.0" encoding="utf-8"?>
<!-- Generator: Adobe Illustrator 25.0.0, SVG Export Plug-In . SVG Version: 6.00 Build 0)  -->
<svg version="1.1" id="Calque_1" xmlns="http://www.w3.org/2000/svg" xmlns:xlink="http://www.w3.org/1999/xlink" x="0px" y="0px"
	 viewBox="0 0 430.33 630.91" style="enable-background:new 0 0 430.33 630.91;" xml:space="preserve">
<style type="text/css">
	.st0{fill:#A0A0A0;}
	.st1{fill:#707070;}
	.st2{fill:#D8D8D8;}
</style>
<path class="st0" d="M429.97,74.49c-1.43-4.47-5.43-4.15-9-9c-7.3-9.93,3.11-20.78-1-29c-6.45-12.91-37.32,2.42-81-10
	c-12.76-3.63-17.86-7.14-34-10s-25.89-1-40-2c-63.09-4.43-94.64-6.65-103-10c-5.11-2.05-18.13-7.74-28-2c-4.21,2.45-6.32,6.1-8,9
	c-6.51,11.24-2.49,18.91-6,35c-3,13.83-6.73,11.53-7,20c-0.45,14,9.81,18.33,14,37c1.34,6,1.22,11.31,1,22
	c-0.59,28.2-7.15,31.76-3,44c4,12,12.47,14.94,11,24c-0.93,5.73-5.89,5.93-9,13c-2.59,5.89-0.63,8.34,0,22c1,21-3.17,26.41,2,34
	c1.44,2.11,3.49,4.24,4,8c0.39,2.88-0.29,5.51-3,12c-2.49,5.95-4.61,10.21-5,11c-4.73,9.71-0.3,17.42,2,41
	c1.11,11.37,1.66,17.05,1,20c-3.77,16.74-17.7,19.77-19,36c-0.41,5.11,0.67,8.59-2,13c-2.92,4.82-6.12,3.83-12,10
	c-4,4.23-3.6,5.82-9,12c-2.2,2.46-4.54,4.8-7,7c-14.7,13-61.82,9.65-72,29c-1.59,3-2.39,7.68-4,17c-1.08,6.28-1.74,12.63-2,19
	c-1.42,29.87-2.12,44.8,4,53c3.1,4.15,8.07,6.77,18,12c11.21,5.91,23.55,12.41,40,15c5.59,0.88,46.8,7.49,74-16
	c4.91-4.24,9-9.23,13-8c7.5,2.33-4.63,30.3,9,49c2.86,3.92,6.85,7.48,16,12c58.23,28.75,108,11,108,11c22.69-8.09,14.08-13.41,61-40
	c33.06-18.74,44.46-20.22,52-35c2.21-4.34,3-7.59,2-60c-0.73-40.27-1.28-44-2-48c-2.83-15.45-6.82-24.82-9-45
	c-0.91-8.46-0.64-10.82-2-20c-1.81-12.21-3.33-15.12-2-21c2.09-9.24,7.35-8.69,8-16c0.82-9.2-6-12.38-6-24c0-5.13,1.4-4.73,3-13
	c3.66-19-2.14-29.21,4-34c3.48-2.72,6.66-0.45,10-4c1.58-1.67,3-4.48,3-13c-0.02-5.72-0.69-11.43-2-17c-2.91-12.1-8-32.18,1-45
	c3.82-5.46,6.31-4.61,9-10c4.31-8.66-1.59-14.48-2-29c-0.19-6.66,1-4.77,4-25c3.25-21.95,1.45-21.48,4-28
	C424.05,85.49,432.14,81.27,429.97,74.49z M276.97,216.49c-0.6,6.99-0.6,14.01,0,21c0.58,6.31,1.27,7.73,2,13
	c0.66,4.83,1.07,10.79-1,32c-1.81,18.58-2.42,17.09-3,27c-0.56,9.57,0,10.94,0,28c0,15.51-0.14,23.25-1,33
	c-0.36,4.1-2.88,32.55-9,33c-2.5,0.19-4.71-4.36-6-7c-4.93-10.12-1.21-16.26-3-29c-1.35-9.57-3.82-8.74-7-22
	c-1.72-7.89-2.72-15.93-3-24c-0.81-23.46,6-49.95,14.78-86.59c9.14-38.31,7.56-34.12,12.55-53.6c8-31.32,10.74-36.85,12.67-51.81
	c0.23-1.81,1.94-9,2-9s-1.4,8-3,15c-6,26.28-13,32.06-12,46c0.53,6.71,2.58,13.21,6,19C278.03,205.79,277.36,211.13,276.97,216.49z"
	/>
<path class="st1" d="M221.97,63.49c-16.55-16.08-58.08,16.67-87-3c-7-4.74-9.78-10.2-14-9c-10.42,3-13.72,42.08-1,49
	c5.88,3.2,11.51-2.49,24-7c39.09-14.12,70.47,10.34,81-3C230.14,83.94,228.81,70.14,221.97,63.49z"/>
<path class="st1" d="M126.97,130.49c3.22-0.41,3.91,6.78,12,12c7.23,4.67,13.91,3.58,29,3c24-0.93,36.1-1.28,43,4
	c8.08,6.18,12.86,18.73,9,24c-3.49,4.75-12.63,1.68-56-3c-8.06-0.87-16.06-1.64-25,2c-9.31,3.79-11.67,9.12-15,8
	C114.72,177.39,118.97,131.49,126.97,130.49z"/>
<path class="st1" d="M126.97,208.49c2.53-4,7.82-8.18,12-7c6.73,1.91,2.62,15.47,10,23c13.6,13.89,48.68-10.68,62,3
	c4.68,4.8,6.37,14,3,19c-8.73,12.93-46.92-9.2-71,8c-2.62,1.87-6.59,5.29-10,4c-3.74-1.42-3.46-7.25-6-27
	C125.11,217.04,124.06,213.12,126.97,208.49z"/>
<path class="st1" d="M127.97,284.49c2.17-0.5,3.35,1.85,13,9c0,0,7.33,5.45,15,10c19.33,11.47,39-1.19,46,8c4.56,6,2.12,19.44-5,24
	c-12.57,8.06-32.31-16.21-55-8c-7.92,2.86-10,7.46-14,6C116.66,329.31,119.25,286.49,127.97,284.49z"/>
<path class="st1" d="M122.97,356.49c2.64-2.09,5.59-4.41,9-4c6.72,0.82,6.94,11.28,14,20c13.07,16.13,35.48,8.88,40,21
	c2.24,6-0.63,14.82-6,18c-10.79,6.38-23.77-14.7-46-11c-7.63,1.27-12.86,4.87-20,2c-4.24-1.71-9.15-5.7-10-11
	c-0.69-4.28,1.89-5.52,8-17C117.46,364.18,117.83,360.54,122.97,356.49z"/>
<path class="st1" d="M286.97,69.49c2.57-1.85,7.18-3.58,11-2c6.41,2.65,6,12.76,12,14c1.73,0.25,3.5-0.11,5-1
	c10.91-5.2,32.31-0.84,52-3c27.8-3,33.85-17.06,50-11c2.5,0.94,11.83,4.83,13,12s-6.62,13.95-9,16c-29.83,25.62-94.75-0.88-112,18
	c-1.37,1.5-6.78,8-15,9c-1.62,0.19-6.46,0.76-10-2c-2.2-1.71-4.2-4.93-3-25S284.56,71.23,286.97,69.49z"/>
<path class="st1" d="M287.97,156.49c3.72-3,9.69-4,14-2c5.15,2.36,4.62,7.41,10,12c3.4,2.9,7.46,4.17,15,5
	c13.46,1.48,20.9-0.33,46-3c17.88-1.9,23.51-2,30-7c3.62-2.79,5.6-5.65,8-5c4.56,1.23,7,14.83,2,24c-3.57,6.48-10.2,9.49-18,12
	c-38.28,12.31-69.2,1.12-88,10c-3.75,1.81-7.84,2.83-12,3c-2.43,0.09-12.3,0.45-16-5c-2.63-3.87,0.18-7.23,3-21
	C285.02,164.57,283.43,160.15,287.97,156.49z"/>
<path class="st1" d="M281.97,236.49c-4.82,8.7-1.82,13-4,32c-1,9-2.15,11.95,0,14c2.77,2.64,7.56,0.44,19-1c0,0,3.64-0.46,17-1
	c16.77-0.68,22.93,4.6,36,6c18.85,2,42.59-5.07,52-21c5.55-9.41,6.36-22.32,2-25c-3.81-2.34-8.91,4.78-22,10
	c-14.22,5.67-27,4.77-38,4c-15.69-1.1-24.48-1.72-33-8c-11-8.14-13.28-19.63-20-19C286.73,227.89,283.97,232.8,281.97,236.49z"/>
<path class="st1" d="M276.97,325.49c0.37-4.44,0-7.24,2-9c3.68-3.19,11.51,0.33,13,1c10.69,4.8,10.82,12.41,18,17
	c6.88,4.4,17.35,1.66,38-4c25.57-7,38.1-13.73,44-8c2.42,2.35,2.78,5.88,3,8c1,9.39-6.49,16.57-9,19c-4.54,4.23-10.03,7.32-16,9
	c-26.45,8.34-40.44-0.73-63,6c-4.15,1.24-8.1,2.16-16,4c-13.69,3.19-15.47,3-17,2c-7.19-4.77-2.68-24.09-2-27
	C273.9,335.21,276.27,333.85,276.97,325.49z"/>
<path class="st1" d="M264.97,398.49c3-6.64,4-9,7-11c8.32-5.37,23.12-1.36,26,6c1.6,4.11-1.8,5.94-1,10c2.88,14.66,53,20.45,58,21
	c4,0.44,16.38,1.68,26,10c3.42,3,4.9,5.44,5,8c0.23,5.81-6.66,10.88-11,13c-9.6,4.68-18.73,0.72-65-15c-9.87-3.35-15-5-22-5
	c-8.12,0-12.9,2.17-23,1c-7.44-0.86-11.17-1.3-13-4C249.09,428.25,253.63,423.32,264.97,398.49z"/>
<path class="st1" d="M386.97,455.49c-8.15,12.25-13.69,14-31,30c-22,20.28-18.45,22.35-35,37c-9.7,8.58-24.1,21.11-46,30
	c-8.79,3.57-33.66,13.31-65,9c-16.32-2.25-36.19-5-45-19c-2.31-3.67-5.37-10.53-8-10c-2.17,0.44-3.64,5.82-3,10
	c1.91,12.52,20.94,19.15,32,23c14.14,4.92,29.03,7.29,44,7c22.06-0.56,43.66-6.39,63-17c5-2.84,12.78-7.64,50-44
	c33.08-32.31,25-27.94,34-34c6.92-4.66,17.68-10.8,20-22c0.8-3.86,0.82-9.36-1-10C393.72,444.7,389.53,451.65,386.97,455.49z"/>
<path class="st1" d="M2.97,478.49c1.07-0.72,6,8,15,15c10.87,8.4,22.22,10,38,12c13.07,1.66,28.67,3.65,48-1
	c16.15-3.89,26.73-10.44,47-23c24-14.84,20.82-17,37-25c18.4-9.06,23.87-6.91,46-18c16.11-8.07,25.11-15.16,26-14
	c1,1.34-9.25,12.83-23,22c-17.35,11.57-25.32,9.49-47,20c-15.53,7.53-14.33,10-36,23c-20.26,12.17-31.88,19.14-48,24
	c-32.76,9.88-64.51,5.14-80-5c-5.68-3.88-10.74-8.6-15-14C5.6,487.39,1.97,479.17,2.97,478.49z"/>
<path class="st2" d="M250.97,489.49c-8.66-4.86-12.07-10.43-17-9c-4.06,1.18-6.93,6.46-7,11c-0.18,12.38,20.42,27.48,37,23
	c9.33-2.52,17.55-11.3,16-16C278.26,493.3,266.31,498.09,250.97,489.49z"/>
<path class="st2" d="M243.97,526.49c-4.52-1.67-9-0.78-18,1c-9.68,1.91-18,3.56-19,8s6.31,9.8,8,11c14.6,10.39,39.2,9.68,43,1
	C260.68,541.28,253.24,529.91,243.97,526.49z"/>
<path class="st2" d="M175.97,522.49c-2,3.26,2.61,13.88,11,14c6.12,0.09,11.67-5.46,11-9C196.89,521.72,178.7,518.1,175.97,522.49z"
	/>
<path class="st2" d="M24.97,470.49c-2.72,2.18-2.51,11.23,4,15s14.46-0.56,15-4C44.79,476.22,29.13,467.15,24.97,470.49z"/>
<path class="st2" d="M57.97,481.49c1.62-7.88,15.51-13.51,24-8c5.08,3.3,8.26,10.61,6,16c-3.2,7.63-16.47,9.41-24,4
	C60.6,491.07,56.97,486.22,57.97,481.49z"/>
<path class="st2" d="M87.97,455.49c-1.58,5.77,27.13,24.58,41,16c3.46-2.14,6.91-6.56,6-10c-1.21-4.57-9.71-5.84-18-7
	C112.44,453.86,89.3,450.63,87.97,455.49z"/>
<path class="st2" d="M291.97,57.49c8.68,0.46,14.88,4,20,7c6.41,3.71,20.81,12,20,23c-0.47,6.36-6,13.64-12,14
	c-13.27,0.81-24.45-33-27.88-43.39C292.09,58.1,292.09,57.47,291.97,57.49s8.72,51.42,28,53c9,0.73,19-9.39,20-19
	c2-18.17-27-41.68-52-36c-18.4,4.19-26.88,22.49-28,25c-4.65,10.43-6.94,26.59-1,30c5.94,3.41,20.48-6.36,27-19
	c8.8-17.05,1.48-35.92,2-36s11.91,23.07,1,44c-7.57,14.51-25.15,26.64-34,22c-9.43-4.95-9.45-29.24,1-45
	C263.48,65.16,277.41,56.73,291.97,57.49z"/>
<path class="st2" d="M291.97,54.49c-3.72-0.07-13.81,327.83-10,328c0.3,0,0.86-3.66,2-11c1.52-9.82,3.85-25.12,5-44
	c1.58-26,0.39-50.2,0-65c-1-35.73,2-42.88,4-90C295.5,112.16,293.53,54.49,291.97,54.49z"/>
<path class="st2" d="M287.52,60.98c2-1,44.22,53.3,62.52,133.49c24.53,107.43-7.9,200.12-9.56,199.89
	c-1.45-0.2,21.37-70.58,7-165.75C332.32,128.73,285.37,62.05,287.52,60.98z"/>
<path class="st2" d="M122.03,40.26c0-0.39-37.85-6.46-51.06,14.23c-7.67,12-6.31,31.93,3,37c8.68,4.72,21.87-4.75,25-7
	c17.62-12.65,21.57-33.18,22-33s-2.44,18.93-18,30c-3.76,2.67-13,9.22-20,6c-8.82-4-11.52-22.18-5-33
	C88.52,36.97,122.07,40.62,122.03,40.26z"/>
<path class="st2" d="M124.97,38.49c0.19-0.3,64.81,31.66,60.16,46c-2.57,7.91-26.63,11.13-41.88,1.18
	c-17.28-11.29-18.58-36.46-18.28-36.57c2.45,8.94,6.9,17.21,13,24.18c4.77,5.38,8.91,10.75,15.92,11.8c6.6,1,15.5-1.7,17.09-6.59
	C175.27,65.23,124.82,38.75,124.97,38.49z"/>
<path class="st2" d="M120.97,51.49c-1.24-0.16-10.11,40.37-11,91c-0.26,15-0.45,25.55,1,40c6.19,61.67,31.3,86.07,23,120
	c-4.43,18.11-15.18,34-15.18,34c-5.73,8.47-11.47,14.28-11.82,14c-0.78-0.61,31.94-27.05,36-63c2.54-22.52-8.7-26.21-19-65
	c-8.72-32.84-8.43-59.42-8-98C116.47,79.54,121.97,51.62,120.97,51.49z"/>
<path class="st2" d="M120.97,50.49c-1.66-0.55-28.66,69.9-19,110c3.6,14.95,8.47,23.46,8.47,23.46
	c5.61,9.78,10.52,12.83,17.68,25.12c2.96,5.3,5.58,10.79,7.85,16.42c10.76,26.59,11,56.61,11,63c0,41.09-9.9,68.79-9,69
	s12.71-30,14-70c0.64-19.65,1-32.06-4-48c-7.51-23.76-17-30.85-30.85-61.73c-3.94-9.03-6.68-18.53-8.15-28.27
	C99.97,95.4,122.32,50.94,120.97,50.49z"/>
</svg>
