<svg xmlns="http://www.w3.org/2000/svg" viewBox="0 0 1019.3 1018.64"><defs><style>.cls-1{fill:#999;}.cls-2{fill:#fff;}.cls-3{fill:#ffb6ea;opacity:0.6;}</style></defs><g id="body"><ellipse class="cls-1" cx="608.96" cy="584.14" rx="259.5" ry="283" transform="translate(-42.84 1120.06) rotate(-83.24)"/><path class="cls-1" d="M821,992c30-23.85,15.31-99.21-17-152-7.68-12.55-22.9-37.92-52-49-50.78-19.33-85.72,26.5-155.5,31.5-83.59,6-113.43-63-156.5-44.5-47,20.15-50.82,104.21-54,172-2.19,46.73,6.05,62.31,16,67,7.38,3.48,15.37.82,18,0,38.32-11.94,162.58-13.81,374-17C799.48,999.92,811.23,999.77,821,992Z"/><path class="cls-1" d="M431,797.35c-7.17-7.79-10.68-6.54-82-31.72-51.78-18.27-60.5-22.54-71-29.63-26.3-17.84-43.51-39.93-52-51-14.64-19.08-13-22.23-27.07-42.37-22.35-31.9-39.51-56.7-67.89-65.27-28.18-8.52-65.65-1.58-86.75,21.15-47.38,51,11,156.82,16.53,166.64C81.68,802,107.33,823.6,137.11,848.7c23.29,19.64,62.59,52.2,121.62,74,56.12,20.77,124.91,46.24,164.75,10.43C459.25,901,460.5,829.49,431,797.35Z"/><path class="cls-1" d="M1019.12,978.86c0-1.38,0-3.72-.12-6.86-.39-9.68-.67-16.4-2-21-6.9-23.8-54.53-32.88-71.88-49.21-14.18-13.35-8.72-14.67-29.18-41C892,830.1,873.63,806.2,844.85,799.07c-28.58-7.09-65.64,1.74-85.57,25.5-38.64,46.09-19.79,131.66,24.9,165.59,0,0,37.75,28.66,114.82,28.84h7c7.12,0,12.36-.07,13.14-.08,5.62-.06,30.78-.06,99.86.08C1019,1011.76,1019.14,993.25,1019.12,978.86Z"/><path class="cls-1" d="M323,35c-33.32-7.07-61.2,1.26-70,4C170.58,64.69,172.25,149.58,66,238,27,270.48,1.25,280.24,4.44,294.71c5.28,24,84.62,35.49,148.16,16.23,72.74-22.05,113-79.56,128-103.75a312,312,0,0,0,17,120C310.9,365,330.93,391.3,371,444c38.78,51,57.05,63.32,75,62,6.56-.48,14.8-5,31-14,30.32-16.85,49.56-27.54,58.42-38.79,22.31-28.36-3.14-83.44-24.7-128.78C390.4,71.33,364.42,43.79,323,35Z"/><path class="cls-1" d="M1020,125.78a300.88,300.88,0,0,0-29.22,10.14C845.1,194,678.65,349.77,717.69,442.7c12.76,30.39,43.68,42.61,52.64,46.14C839.19,516,930,459.51,969,399c3.26-5.06,11.16-20,19-35,14.51-27.79,25.24-50.92,32-66Q1020,211.89,1020,125.78Z"/><rect class="cls-1" x="395" y="900" width="546" height="119" rx="17.38"/></g><g id="face"><path d="M449.09,582c-9.49-49.66,9.75-90.31,38-99.73,14.27-4.75,30.37-1.39,41.59,6.13,26.16,17.53,34.5,63.41,13.13,110.84A155,155,0,0,1,449.09,582Z"/><circle class="cls-2" cx="510.49" cy="530.86" r="24"/><circle class="cls-2" cx="476.22" cy="560.45" r="19"/><path d="M461.31,510.7c-1.92-4.37-7.38-4.65-12.79-8.47-10-7.1-8.43-21.37-10.64-21.21-2,.16-5.2,11.61-.89,22,4.55,11,16.78,19.15,21.79,16.46C461.32,518.15,462.62,513.7,461.31,510.7Z"/><path d="M483.65,500.74c-2.33-5.95-12.22-2.91-20.24-10-7.39-6.54-7-16.2-8.38-16-1.57.28-3.4,12.5,2.68,22.41,5.75,9.36,18.14,15.95,23.41,12.37C483.57,507.89,484.83,503.77,483.65,500.74Z"/><path class="cls-2" d="M511.41,564.47l8.38-8q.59,5.69,1.18,11.36l10.8,5.14L520.92,578q-.81,6-1.61,12-3.94-4.74-7.88-9.49l-11.65,2q3-5.14,5.9-10.3l-5.16-9.94Z"/><path d="M775.72,618c22.93-45.06,15.77-89.46-8.77-106.37-12.39-8.54-28.79-9.79-41.67-5.69-30,9.56-50.77,51.31-43.45,102.81A155,155,0,0,0,775.72,618Z"/><circle class="cls-2" cx="730.98" cy="551.76" r="24"/><circle class="cls-2" cx="755.66" cy="589.72" r="19"/><path d="M783.83,546.09c3.06-3.67,8.38-2.41,14.63-4.58,11.63-4,14-18.18,16.13-17.41,1.87.7,1.76,12.6-5.27,21.4-7.44,9.32-21.45,13.73-25.51,9.75C781.74,553.24,781.73,548.6,783.83,546.09Z"/><path d="M765.14,530.31c3.89-5.08,12.54.59,22.22-4,8.93-4.22,11.21-13.62,12.49-13s-.21,12.95-8.81,20.77c-8.13,7.39-21.86,10.27-25.92,5.37A8,8,0,0,1,765.14,530.31Z"/><path class="cls-2" d="M720.74,583.79q-2.91-5-5.81-10-2.16,5.29-4.3,10.58l-11.8,1.93,9,7.91-1.8,12,10.21-6.92,10.62,5.17q-1.39-5.76-2.8-11.53l7.73-8.11Z"/><ellipse class="cls-3" cx="392.73" cy="610.73" rx="22.51" ry="30.85" transform="translate(-260.01 928.8) rotate(-83.24)"/><ellipse class="cls-3" cx="815.08" cy="652.2" rx="22.51" ry="30.85" transform="translate(86.24 1399.54) rotate(-84.38)"/><path d="M575.24,648c3-5.09,12.79-4.33,32.14-2.6,21.74,1.94,34.7,3.1,36.62,9.6.71,2.4-.29,4.89-16,22.32-17.86,19.84-20.75,21.27-23.93,21-5.72-.52-10.22-8.3-19-23.84C576.79,659.73,572.69,652.27,575.24,648Z"/><path d="M663,727c2,1.61,1,7.37-2,11-5.88,7.19-19,5.38-26,3-10-3.4-15.71-10.66-19-15-13.13-17.3-13.27-37.68-12-38,1.46-.37,3.68,25.86,23,39,3.43,2.33,9.35,6.36,17,6C654.09,732.53,660.25,724.76,663,727Z"/><path d="M538.27,710.81c-2.33,1-2.92,6.83-1,11.13,3.72,8.51,16.8,10.3,24.22,9.91,10.59-.57,18-6,22.35-9.32,17.31-13.11,23-32.69,21.81-33.34-1.31-.76-10.53,23.9-32.68,31.34-3.92,1.32-10.71,3.6-18,1.18C545.36,718.54,541.53,709.39,538.27,710.81Z"/></g></svg>