<?xml version="1.0" encoding="utf-8"?>
<!-- Generator: Adobe Illustrator 25.0.0, SVG Export Plug-In . SVG Version: 6.00 Build 0)  -->
<svg version="1.1" id="Calque_1" xmlns="http://www.w3.org/2000/svg" xmlns:xlink="http://www.w3.org/1999/xlink" x="0px" y="0px"
	 viewBox="0 0 281.62 445.73" style="enable-background:new 0 0 281.62 445.73;" xml:space="preserve">
<style type="text/css">
	.st0{fill:#D8D8D8;}
	.st1{fill:#707070;}
	.st2{fill:#A0A0A0;}
	.st3{fill:#727070;}
	.st4{fill:#717070;}
</style>
<path class="st0" d="M150.35,5.39c-2.89,3.46-1.83,6.2-3.6,15.72c-2.35,12.68-6.79,21.51-11.07,30c-4.06,8.08-9.16,17.5-22.53,33.9
	c-16.85,20.68-17,31.63-54,126.22c-21.59,55.24-32.39,82.86-32.52,83.15c-2.26,4.82-9.29,27.22-23.37,72c-2.31,7.35-6,19.8,0,30.15
	c4.28,7.38,11.83,10.83,18.69,13.95c9.62,4.39,19,8.71,27.66,4.81c9-4.07,14.29-15.68,14-28.74c0.15-5.16,0.45-12.39,1.12-21
	c1.14-14.68,4.48-54.59,18.81-96.59c10.19-29.88,27.67-57.35,62.61-112.28c9.66-15.18,16.39-25.7,27.11-39.47
	c14.5-18.64,18.73-20.65,27.6-34.4c12-18.6,23.18-35.72,17.37-52.52c-5.52-16-23.36-23.17-27.64-24.9
	C178.72,0.66,158.12-3.91,150.35,5.39z"/>
<path class="st0" d="M180.35,16.51c-1.49,2.7-2.15,5.78-1.9,8.85c0.11,4.54-2.51,8.49-8.77,17.21
	c-10.3,14.32-15.44,21.49-18.64,25.25c-6.14,7.24-13.4,20.64-27.91,47.44c-7.91,14.59-16,29.55-26.22,50.61
	c-16.82,34.67-13.29,32.12-39.41,91.51c-9.27,21.09-14.75,43.69-23.65,64.95c-4.5,10.76-10.5,24.18-4.4,33.68
	c3.18,5,10.64,10.35,17.21,8.78c2.57-0.72,4.84-2.25,6.47-4.37c9.81-11.87,12.28-36,13.68-45.86c1.85-12.94,6.23-24.88,15-48.74
	c5.72-15.43,12.28-30.54,19.65-45.25c7.31-15.39,15.54-30.34,24.63-44.75c6.48-10.2,6.31-8.9,15.35-22.57
	c20.61-31.19,17.85-32.42,28.8-46.34c11.94-15.16,17-16,32.88-36.88c11.23-14.8,12.53-19.45,12.46-23.87
	c-0.31-19.45-27.19-36.15-32.9-32.47C181.73,14.48,180.94,15.44,180.35,16.51z"/>
<path class="st1" d="M177.72,25.63l25.63,34.76c1.13,1.54,3.74,0,2.59-1.52l-25.59-34.75c-1.13-1.54-3.73,0-2.59,1.51H177.72z"/>
<path class="st1" d="M174.43,41.99c10.98-0.24,21.85,2.2,31.67,7.1c1.72,0.86,3.24-1.73,1.51-2.59
	c-10.29-5.16-21.67-7.74-33.18-7.51C172.5,38.99,172.49,41.99,174.43,41.99L174.43,41.99z"/>
<path class="st1" d="M172.14,41.15l21.45,36.36c0.44,0.7,1.37,0.91,2.07,0.47c0.66-0.42,0.89-1.28,0.52-1.98l-21.45-36.34
	c-0.44-0.7-1.37-0.91-2.07-0.47c-0.66,0.42-0.89,1.28-0.52,1.98V41.15z"/>
<path class="st1" d="M203.56,59.03c-11.89-0.84-23.68-2.79-35.21-5.83c-0.8-0.2-1.62,0.3-1.81,1.1c-0.19,0.77,0.26,1.56,1.01,1.79
	c11.79,3.1,23.84,5.09,36,5.94c1.92,0.13,1.92-2.87,0-3H203.56z"/>
<path class="st1" d="M164.81,52.13l13,40.51c0.59,1.83,3.48,1.05,2.89-0.8l-13-40.51C167.11,49.5,164.22,50.33,164.81,52.13
	L164.81,52.13z"/>
<path class="st1" d="M153.4,66.99l42,12.29c1.86,0.54,2.65-2.35,0.8-2.9l-42-12.28c-0.8-0.2-1.62,0.3-1.81,1.1
	C152.19,65.97,152.64,66.76,153.4,66.99z"/>
<path class="st1" d="M151.54,68.51c7.95,10.01,12.71,22.17,13.68,34.92c0.14,1.91,3.14,1.92,3,0c-1.03-13.51-6.1-26.4-14.55-37
	c-1.21-1.51-3.32,0.62-2.13,2.12V68.51z"/>
<path class="st1" d="M145.88,84.02c9.82,2.43,19.88,3.77,30,4c1.93,0,1.93-3,0-3c-9.84-0.22-19.62-1.51-29.18-3.86
	c-1.88-0.46-2.68,2.43-0.8,2.89L145.88,84.02z"/>
<path class="st1" d="M143.35,84.08c4,12.18,8.2,24.29,12.61,36.34c0.66,1.8,3.56,1,2.89-0.8c-4.33-12.07-8.52-24.18-12.56-36.33
	c-0.61-1.83-3.51-1.05-2.9,0.79L143.35,84.08z"/>
<path class="st1" d="M132.97,100.11l37.6,5.81c1.89,0.29,2.71-2.6,0.8-2.9l-37.6-5.81C131.88,96.92,131.06,99.81,132.97,100.11z"/>
<path class="st1" d="M131.28,97.33c6.08,12.93,12.38,25.76,18.91,38.48c0.88,1.72,3.47,0.2,2.59-1.52
	c-6.53-12.71-12.83-25.53-18.91-38.48C133.05,94.07,130.46,95.59,131.28,97.33z"/>
<path class="st1" d="M125.49,114.43c10.26,2.59,20.77,4.04,31.35,4.35c1.93,0.05,1.93-2.95,0-3c-10.31-0.3-20.55-1.73-30.55-4.27
	c-1.88-0.47-2.67,2.42-0.8,2.9V114.43z"/>
<path class="st1" d="M124.35,115.73c4.93,10,9.88,20,14.85,30c0.86,1.73,3.45,0.21,2.59-1.51c-4.97-10-9.92-20-14.85-30
	C126.09,112.49,123.5,114.01,124.35,115.73L124.35,115.73z"/>
<path class="st1" d="M115.76,127.4c11.11,4.84,23.06,7.46,35.18,7.7c1.93,0,1.93-3,0-3c-11.59-0.21-23.02-2.69-33.66-7.29
	C115.52,124.05,114,126.63,115.76,127.4z"/>
<path class="st1" d="M114.72,131.84c5.43,9.8,10.85,19.61,16.28,29.42c0.94,1.69,3.53,0.18,2.59-1.51
	c-5.42-9.81-10.85-19.62-16.28-29.43C116.38,128.63,113.79,130.14,114.72,131.84z"/>
<path class="st1" d="M108.18,142.71c10.53,6.18,23.12,7.83,34.89,4.57c0.79-0.24,1.24-1.08,0.99-1.88c-0.23-0.76-1.02-1.2-1.79-1.01
	c-10.99,3.06-22.74,1.52-32.57-4.27c-0.72-0.42-1.64-0.18-2.05,0.54C107.22,141.37,107.46,142.29,108.18,142.71z"/>
<path class="st1" d="M106.08,150.34c7.17,7.83,12.97,16.82,17.15,26.58c0.76,1.77,3.35,0.24,2.59-1.51
	c-4.3-9.99-10.26-19.18-17.62-27.19C106.89,146.79,104.78,148.92,106.08,150.34L106.08,150.34z"/>
<path class="st1" d="M99.76,164.1l30.21,0.78c1.93,0.05,1.93-2.95,0-3l-30.21-0.78C97.83,161.1,97.83,164.1,99.76,164.1z"/>
<path class="st1" d="M97.97,168.34l15,27.51c0.93,1.7,3.52,0.19,2.59-1.51l-15-27.52C99.63,165.13,97.04,166.64,97.97,168.34z"/>
<path class="st1" d="M93.44,184.51c8.55,1.07,17.2,1.07,25.75,0c1.89-0.24,1.91-3.25,0-3c-8.55,1.07-17.2,1.07-25.75,0
	C91.52,181.27,91.54,184.27,93.44,184.51z"/>
<path class="st1" d="M86.01,187.23l15.49,25.69c0.42,0.72,1.34,0.95,2.05,0.54c0.72-0.42,0.95-1.34,0.54-2.06l0,0L88.6,185.71
	C87.6,184.06,85,185.57,86.01,187.23z"/>
<path class="st1" d="M82.89,205.1c9.24-0.82,18.4-2.4,27.38-4.74c0.78-0.29,1.18-1.16,0.89-1.94c-0.26-0.69-0.97-1.09-1.69-0.96
	c-8.72,2.28-17.61,3.84-26.58,4.64C80.98,202.27,80.96,205.27,82.89,205.1L82.89,205.1z"/>
<path class="st1" d="M79.91,207.72c4.67,7.17,9.3,14.34,13.91,21.51c1,1.61,3.64,0.11,2.59-1.52c-4.63-7.17-9.26-14.34-13.91-21.5
	C81.5,204.59,78.86,206.09,79.91,207.72L79.91,207.72z"/>
<path class="st1" d="M72.73,226.61c9.69-1.98,19.25-4.54,28.62-7.69c1.83-0.62,1-3.52-0.79-2.9c-9.36,3.15-18.9,5.72-28.58,7.7
	c-1.89,0.38-1.09,3.27,0.8,2.89L72.73,226.61z"/>
<path class="st1" d="M69.99,224.51c2.33,10.01,7.97,18.94,16,25.36c1.5,1.19,3.64-0.92,2.12-2.12c-7.63-6.05-12.99-14.51-15.2-24
	c-0.44-1.88-3.33-1.09-2.9,0.79L69.99,224.51z"/>
<path class="st1" d="M64.35,241.92c10.24,2.57,21.08,0.64,29.81-5.29c1.59-1.09,0.09-3.69-1.51-2.59c-8.03,5.52-18.05,7.34-27.51,5
	c-1.87-0.47-2.67,2.42-0.79,2.89V241.92z"/>
<path class="st1" d="M61.86,247.1l16,20.72c0.43,0.66,1.29,0.89,2,0.54c0.71-0.42,0.95-1.34,0.54-2.06l-16-20.71
	c-0.43-0.7-1.33-0.93-2.05-0.54c-0.68,0.42-0.92,1.3-0.54,2L61.86,247.1z"/>
<path class="st1" d="M55.08,264.1c10.63,2.16,21.59,0.3,30.22-6.52c1.51-1.2-0.62-3.31-2.12-2.12c-7.72,6.1-17.82,7.67-27.3,5.75
	C53.99,260.83,53.18,263.72,55.08,264.1L55.08,264.1z"/>
<path class="st1" d="M53.78,267.39l16.19,28.78c0.94,1.68,3.54,0.17,2.59-1.52l-16.21-28.77c-0.44-0.7-1.37-0.91-2.07-0.47
	c-0.66,0.42-0.89,1.28-0.52,1.98H53.78z"/>
<path class="st1" d="M46.35,289.27c11.05-1.87,21.56-6.14,30.79-12.51c1.58-1.09,0.08-3.69-1.51-2.59
	c-9.01,6.23-19.28,10.39-30.08,12.2C43.65,286.69,44.45,289.58,46.35,289.27L46.35,289.27z"/>
<path class="st1" d="M53.35,298.34c0.83,0,1.5-0.67,1.5-1.5s-0.67-1.5-1.5-1.5s-1.5,0.67-1.5,1.5S52.52,298.34,53.35,298.34z"/>
<path class="st1" d="M42.29,308.96c9.76-2.19,19.41-4.8,28.94-7.83c1.83-0.58,1-3.48-0.8-2.89c-9.53,3.03-19.18,5.64-28.93,7.83
	C39.61,306.49,40.41,309.39,42.29,308.96z"/>
<path class="st1" d="M45.5,289.67l19.47,26.09c1.14,1.53,3.75,0,2.59-1.51l-19.47-26.09C46.94,286.63,44.34,288.16,45.5,289.67z"/>
<path class="st1" d="M39.75,309.68c1.7,1.9,3.46,3.75,5,5.74s3.11,4.23,4.56,6.4c2.85,4.23,5,8.88,6.39,13.78
	c0.29,0.78,1.16,1.18,1.94,0.89c0.69-0.26,1.09-0.97,0.96-1.69c-1.46-5.15-3.72-10.04-6.7-14.49c-3.05-4.48-6.41-8.74-10.06-12.75
	c-1.29-1.44-3.41,0.68-2.13,2.12H39.75z"/>
<path class="st1" d="M36.35,327.04c8.56-2.76,16.89-6.2,24.9-10.29c1.71-0.88,0.2-3.47-1.52-2.59c-7.78,3.98-15.86,7.32-24.18,10
	c-1.83,0.58-1.05,3.48,0.8,2.89V327.04z"/>
<path class="st1" d="M33.25,328.34c9.16,7.21,14.47,17.82,19.52,28.05c0.86,1.74,3.45,0.22,2.59-1.51
	c-5.16-10.45-10.64-21.3-20-28.66C33.86,325.04,31.72,327.15,33.25,328.34L33.25,328.34z"/>
<path class="st1" d="M27.01,348.51c10.23-1.05,19.33-6.44,29.39-8.27c1.89-0.34,1.09-3.23-0.8-2.89
	c-9.78,1.78-18.67,7.14-28.59,8.16C25.11,345.71,25.09,348.71,27.01,348.51z"/>
<path class="st2" d="M181.67,13.59c0.36,0.11-0.85,2.66-0.71,7c0.18,5.08,2.11,8,0.54,9.6c-1,1.06-2.75,0.55-3.18,1.69
	c-0.43,1.14,0.91,1.73,0.69,3.09c-0.27,1.66-2.41,1.6-3.39,3.67c-0.8,1.71,0.32,2.46-0.4,4c-1.08,2.27-4.32,1.36-5.38,3.48
	c-0.81,1.63,0.8,2.65,0,4.53c-0.91,2.27-3.59,1.62-4.93,4c-1.23,2.2,0.33,4-1.05,5.42s-2.91,0.26-4.18,1.59
	c-1.51,1.57-0.21,4.07-1.5,4.88s-3-1.13-4-0.41c-1.37,1,0.63,5.22-0.61,6c-0.91,0.56-2.63-1.4-3.43-0.85s1.16,3.56-0.05,5.53
	c-1,1.69-3.45,0.9-4.28,2.58s1,3.49,0,4.53c-0.74,0.83-2.08-0.14-3.09,0.69c-1.34,1.11,0.28,3.46-1.05,5.42
	c-1.17,1.73-3,0.84-4.28,2.58c-1.34,1.93,0.31,3.92-1,5.43s-3.68,0.48-4.18,1.58c-0.65,1.44,3.11,3.76,2.48,5.28s-4.12,0.54-4.73,2
	c-0.46,1.16,1.45,2.12,1.14,3.64c-0.4,2-4,1.7-4.93,4c-0.75,2,1.4,3.59,0.5,5.08s-4.19,0.67-4.73,2s2.14,3,1.59,4.18
	s-3.14,0.19-4.19,1.59s1.1,3.95,0,5.52c-1,1.4-3.4,0.33-4.18,1.59c-1,1.68,2.35,4.94,1.38,6.17c-0.74,0.95-3.15-0.48-4.08,0.59
	s0.94,3.71,0,4.53s-3.29-1.1-4-0.4c-0.88,0.9,2.47,4.47,1.39,6.17c-1,1.5-4.43,0.12-5.18,1.49c-0.84,1.54,3.14,4.14,2.38,6.27
	s-4.9,0.93-6.37,3.37c-1.57,2.62,1.81,6.19,0.19,8.06c-1.34,1.55-4.61,0.21-5.18,1.49s2.12,2.76,1.59,4.18s-2.89,0.66-3.73,2.14
	s1.34,3.46,0.49,5.07c-1,1.85-4.71,0.92-5.28,2.48c-0.47,1.32,2,2.53,1.59,4.19c-0.44,1.88-3.94,1.7-4.38,3.57
	c-0.38,1.63,2,2.72,1.59,4.18c-0.51,1.71-4.07,1.13-4.83,3c-0.63,1.56,1.48,2.67,1,4.63c-0.54,2.37-4,2.27-4.49,4.57
	c-0.48,2.12,2.14,3.45,1.49,5.18s-3.77,1-4.83,3s1.46,4,0.39,6.07s-3.82,1.08-4.83,3s1.46,3.93,0.4,6.07
	c-0.92,1.85-3.28,1.4-3.84,3.13s1.7,3.23,1,4.63s-3.58,0.45-4.73,2c-1.45,2,2.17,5.72,0.74,7.61c-1.05,1.39-3.81,0.51-4.18,1.59
	s2.47,2.47,2.13,3.74c-0.38,1.44-4.38,0.65-5.27,2.48s2.37,4.32,1.38,6.17c-0.77,1.44-3.26,0.83-3.73,2.13
	c-0.56,1.55,2.61,3.41,2,4.73c-0.49,1.14-3,0.17-4.18,1.59s0.86,3.62-0.16,6.52c-0.88,2.48-2.94,2.28-3.49,4.67s1.22,3.3,0.49,5.08
	c-0.88,2.13-3.81,1.68-4.38,3.57s2.17,3.52,1.49,5.18s-3.47,0.86-4.28,2.58s1.34,3.23,0.49,5.08c-0.62,1.34-1.91,0.88-2.74,2.23
	c-1.26,2.06,1.06,4.24-0.16,6.52c-0.74,1.4-1.77,0.85-2.74,2.24c-1.77,2.53,1.09,5.16-0.35,8.5c-1,2.41-3.07,2.29-3.49,4.68
	c-0.32,1.78,0.78,2.1,0.59,4.08c-0.09,1-0.31,1.65-2.59,5.76c-2.1,3.77-2.26,3.89-2.49,4.78s-1,3.68,0.39,6.07
	c1,1.77,2.12,1.39,4.67,3.49c3.58,2.94,3.56,5.46,5.47,5.57c2.08,0.13,2.48-2.88,5.37-3.47c3.29-0.68,6,2.54,6.87,1.7
	s-2.33-4.05-1.29-7.17c0.94-2.83,4.39-2.51,5-5c0.84-3.26-4.34-6.59-3.17-8.36c0.83-1.26,3.49-0.27,4.18-1.59
	c0.81-1.54-2.24-4-1.49-5.17s4.49,0.5,5.08-0.5c0.77-1.3-5.12-5.07-4.27-7.46c0.7-2,5.39-1,6.37-3.38c0.87-2.11-2.32-4.34-1.39-6.17
	s5.48-0.59,6.27-2.38c0.7-1.59-2.47-3.33-1.93-5.73c0.49-2.21,3.5-2.13,3.93-4.12c0.61-2.83-5-5.29-4.27-7.47
	c0.66-2,5.17-0.93,6.37-3.37c1.05-2.12-1.87-3.87-1.28-7.17s3.7-3,4.68-6.56c0.84-3-1-4.66,0.26-7.51c0.61-1.33,1.6-2.46,2.84-3.24
	c0.29-0.2,0.57-0.42,0.83-0.66c3.54-3.24,20.13-42.7,21.46-45.83c5.42-12.79,8.12-19.18,12-24.41c2.69-3.62,5.7-6.51,6.18-11.44
	c0.22-2.31-0.14-4.9,1.7-6.86c1.58-1.7,3-1,4.28-2.59c2.22-2.72,0.13-7,1.8-7.86c1-0.48,2,0.86,3,0.31c1.27-0.68,0.21-2.89,1.5-4.88
	c1.57-2.42,4.73-1.59,5.38-3.47s-2.24-3.81-1.49-5.18s4.15,0,5.18-1.49c1.19-1.73-2.51-5-1.29-7.16c1-1.71,3.7-0.47,5.28-2.49
	s-0.09-4,1.59-5.86c1.12-1.22,2-0.52,3.19-1.69c1.81-1.84,0.13-4.17,1.7-6.87c1.31-2.24,2.93-1.37,4.38-3.57
	c2.08-3.16,0.15-7,1.8-7.86c1-0.52,2.13,0.85,3,0.3c1.46-0.95-1-5.39,0.7-7c1.39-1.29,4.27,0.59,5.08-0.49
	c1.07-1.42-3.44-5.51-2.29-7.26c0.89-1.35,4.35-0.15,7.33-2.17c0.39-0.27,0.73-0.61,1-1c0.78-1.19,0.93-2.68,0.4-4
	c-0.63-1.49-1.84-1.56-1.79-2.19c0.12-1.55,7.52-0.62,9.46-4.07c1.3-2.3-0.54-5.35,0.6-6c1-0.53,2.25,1.7,3.88,1.4
	c2.73-0.51,2.45-7.37,5.33-8c1.46-0.32,2.08,1.32,4.88,1.5c2.43,0.16,3.76-1,4.08-0.59c0.76,0.91-6.35,7.91-10.27,12
	c-8,8.4-13,15.59-21.37,27.49c-3,4.33-1.64,2.57-10.66,16s-9.48,13.57-13.3,19.57c-7.22,11.38-6.89,12.92-13.57,22.44
	c-2.29,3.27-3.46,4.7-5.87,8.45c-3.13,4.91-6,9.99-8.58,15.21c-6.05,11.72-6.86,11.64-12.26,21.88s-8.78,18.29-11.57,25
	c-5.82,13.92-9.16,24.38-13.33,37.35c-2.76,8.61-6,18.91-9.28,32.23c-2.26,9.19-3.38,13.78-3.6,15.72c-0.74,6.4-1.93,11.17-3.9,18.7
	c-1.42,5.41-2.15,8.15-3.55,10.2c-0.33,0.49-6.29,9-14.93,8.54c-10-0.5-15.26-12.57-15.71-13.65c-2.91-7-2-13.9,3.77-32.28
	c6.14-19.63,11.28-32,11.28-32c10-22.88,6.08-17.88,19-49.34c11.06-26.79,20.28-45.92,31-68.22c8.68-18,17.35-35.93,30.12-59.27
	c14.35-26.23,23.8-43.36,33.59-53.9c4.35-4.56,8.22-9.56,11.56-14.91c2.52-4.16,4.8-8.46,6.83-12.88
	C178.68,20.79,181.06,13.4,181.67,13.59z"/>
<path class="st3" d="M39.17,363.56c-0.27-1.24,17.33-9.06,20.95-4.32c2.83,3.69-2,16.11-10,16.45c-7.8,0.33-12.42-10.86-11.91-11.31
	s6.67,8.18,11.44,6.67c2.49-0.79,4.33-4.25,3.42-6.09C51.24,361.37,39.35,364.56,39.17,363.56z"/>
<path class="st3" d="M39.14,364.71c0.19,0.81-14.27,9.28-19,4c-3.65-4.08,0-14.53,5.65-19c1-0.82,4-3.2,6.74-2.26
	c1.48,0.51,2.43,1.84,4.22,4.35c1.01,1.25,1.81,2.65,2.37,4.16c0.71,2.23,0.79,4.61,0.23,6.88c-2.05-6.93-7.24-10-10.27-8.88
	c-3.23,1.25-5,7.73-2.92,10.49C29.03,368.28,38.98,364.06,39.14,364.71z"/>
<path class="st0" d="M221.47,17.61c2.55-1.6,5.39-2.68,8.36-3.18c5.81-0.87,10.36,1.16,18.6,4.9c4.63,2.1,9.08,4.57,13.32,7.38
	c6.34,4.17,10,6.55,13,10.36c7.19,8.91,6.94,20,6.84,21.8c-0.93,16.31-14.35,20.84-23.92,37.78c-8.47,15-3.61,21.45-7.81,47.46
	c-2.27,14-10.73,34.21-27.65,74.6c-14.55,34.8-21.86,52.22-25.01,58.8c-3.91,8.12-8.35,16.88-12.07,29.93
	c-5.5,19.29-1.86,21.38-5.71,36.62c-7.7,30.4-25.51,35.23-38.29,70.5c-1.23,3.72-2.93,7.26-5.08,10.54
	c-2.92,4.4-15.68,21.84-35.25,20.56c-16.31-1.06-31.47-14.75-32.31-28.39c-0.35-5.73,1.91-10,9.18-21.18
	c6.69-10.26,16-23.81,28.1-39.38c7.77-9.47,14.83-19.5,21.13-30c0,0,5.24-8.74,9.87-18.09c17.41-35.26,29.58-93.56,29.58-93.56
	c9.25-44.41,16-77.54,21.8-106.34l0,0c0-0.07-0.14-26.08,16-68.74C205.35,36.74,210.24,24.28,221.47,17.61z"/>
<path class="st0" d="M213.54,31.38c-8.06,8.59-10.37,19.06-11.47,24c-9.34,41.73-8.1,30.92-9.85,42.73
	c-2.9,19.62-3.57,30.9-4.67,41.24c-2.08,19.66-6.92,36.26-15.1,69.83c-5.44,22.34-12.36,43.13-25.66,84.85
	c-2.8,8.78-5.34,16.6-10.23,26.61c-6.24,12.77-7.72,11.54-23.92,37.78c-11,17.87-11.91,21-18.29,26.8
	c-5.69,5.19-9.34,6.69-9.61,10.58c-0.6,8.51,15.51,20,27.44,16.85c7.32-2,11.3-9,13.35-12.72c16.26-29.67,31-59.23,36.84-71.16
	c18.77-57.89,13.65-31.86,33.84-96.08c15.87-50.52,23.81-75.77,25.27-90.92c0.07-0.76,3.22-18.61,9.51-54.32
	c0.85-5.38,2.4-10.63,4.6-15.62c3.53-7.63,8.31-14.62,14.15-20.68c6-5.89,8.67-6.08,9-9.14c0.67-6.85-11.8-13.55-19.48-16
	c-4-1.31-10.27-3.24-17-0.72C218.91,26.6,215.92,28.69,213.54,31.38z"/>
<path class="st1" d="M215.63,34.75c8.77,8.5,17.13,17.39,25.08,26.68c1.25,1.47,3.37-0.66,2.12-2.12
	c-7.94-9.28-16.3-18.17-25.08-26.68C216.36,31.29,214.24,33.4,215.63,34.75L215.63,34.75z"/>
<path class="st1" d="M253.83,43.01c-15.36-6.24-32.77-6.65-47.53,1.5c-1.69,0.93-0.18,3.52,1.51,2.59c8-4.38,17.09-6.38,26.19-5.74
	c6.54,0.49,12.95,2.02,19,4.55c1.79,0.72,2.56-2.18,0.8-2.9H253.83z"/>
<path class="st1" d="M207.67,50.25c10.22,6.86,17.9,16.9,21.83,28.56c0.6,1.82,3.5,1,2.89-0.8c-4.17-12.4-12.33-23.07-23.2-30.35
	C207.58,46.57,206.08,49.17,207.67,50.25L207.67,50.25z"/>
<path class="st1" d="M240.87,61.81c-6.78-1.24-13.7-1.63-20.58-1.14c-7.44,0.6-14.68,2.72-21.28,6.22c-1.71,0.9-0.19,3.49,1.52,2.59
	c6.24-3.33,13.11-5.31,20.16-5.84c6.48-0.44,12.99-0.08,19.38,1.06C241.96,65.03,242.77,62.14,240.87,61.81L240.87,61.81z"/>
<path class="st1" d="M199.97,71.51c7.99,10.13,16.62,19.73,25.84,28.75c1.38,1.35,3.51-0.77,2.12-2.13
	c-9.22-9.02-17.85-18.62-25.84-28.74C200.89,67.87,198.78,70.01,199.97,71.51L199.97,71.51z"/>
<path class="st1" d="M230.7,78.86c-13.23,1.19-25.98,5.53-37.19,12.65c-1.62,1-0.12,3.63,1.52,2.59
	c10.75-6.85,22.98-11.03,35.67-12.19c1.91-0.18,1.93-3.18,0-3V78.86z"/>
<path class="st1" d="M193.35,92.82c9.53,8.12,18.65,16.69,27.36,25.7c1.34,1.39,3.46-0.73,2.12-2.12
	c-8.7-9.01-17.82-17.57-27.36-25.7C194.01,89.45,191.88,91.57,193.35,92.82L193.35,92.82z"/>
<path class="st1" d="M192.02,113.85c11.51-5.01,23.23-9.45,35.18-13.34c1.83-0.6,1-3.5-0.8-2.9c-12.17,4-24.13,8.55-35.89,13.65
	C188.74,112.03,190.27,114.61,192.02,113.85z"/>
<path class="st1" d="M190.2,113.61c9.13,9.07,17.57,18.8,25.27,29.11c1.14,1.53,3.75,0,2.59-1.51
	c-7.83-10.52-16.42-20.45-25.71-29.7c-0.61-0.56-1.56-0.53-2.12,0.07c-0.54,0.58-0.54,1.47,0,2.05L190.2,113.61z"/>
<path class="st1" d="M218.03,119.51c-10.14,5.87-20.47,11.38-31,16.53c-1.74,0.85-0.22,3.44,1.51,2.59
	c10.54-5.14,20.87-10.65,31-16.53c0.72-0.42,0.95-1.34,0.53-2.05c-0.42-0.72-1.34-0.95-2.05-0.54H218.03z"/>
<path class="st1" d="M187,138.62c9.75,7.27,18.13,16.22,24.74,26.42c1.05,1.62,3.65,0.11,2.59-1.51
	c-6.9-10.63-15.65-19.94-25.82-27.5C186.96,134.88,185.51,137.48,187,138.62z"/>
<path class="st1" d="M215.65,140.94c-9.51,4.5-19.17,8.66-29,12.49c-1.78,0.69-1,3.59,0.8,2.89c10-3.91,19.89-8.18,29.67-12.79
	c1.75-0.83,0.23-3.42-1.51-2.59H215.65z"/>
<path class="st1" d="M185.12,157.43c7.86,7.9,14.53,16.91,19.8,26.74c0.91,1.71,3.5,0.19,2.59-1.51
	c-5.39-10.05-12.22-19.27-20.27-27.35c-0.61-0.56-1.56-0.53-2.12,0.07C184.58,155.97,184.58,156.86,185.12,157.43L185.12,157.43z"/>
<path class="st1" d="M213,164.51c-11.09,0.67-21.87,3.87-31.52,9.38c-0.7,0.44-0.91,1.37-0.47,2.07c0.42,0.66,1.28,0.89,1.98,0.52
	c9.18-5.26,19.44-8.34,30-9c1.91-0.12,1.93-3.12,0-3L213,164.51z"/>
<path class="st1" d="M180.97,176.85c2.45,4.75,4.65,9.75,8.12,13.87c3.34,4.1,7.11,7.81,11.26,11.08c1.54,1.17,3-1.44,1.51-2.59
	c-3.93-3.14-7.51-6.69-10.66-10.61c-3.28-3.9-5.33-8.77-7.65-13.26c-0.89-1.72-3.48-0.2-2.59,1.51L180.97,176.85z"/>
<path class="st1" d="M207.7,183.17l-31.69,10.34c-1.83,0.59-1,3.49,0.79,2.89l31.7-10.31c1.83-0.6,1-3.49-0.8-2.89V183.17z"/>
<path class="st1" d="M176.54,196.38c6.4,9.38,12.89,18.71,19.48,28c1.1,1.56,3.71,0.06,2.59-1.52
	c-6.59-9.25-13.08-18.56-19.48-27.95c-1.08-1.59-3.68-0.09-2.59,1.51V196.38z"/>
<path class="st1" d="M197.8,199.2c-3.83,2.7-8.51,3.58-12.74,5.45s-8.14,4.89-12.77,6.06c-1.88,0.47-1.08,3.37,0.79,2.89
	c4.76-1.2,8.7-4.17,13.1-6.19s9.17-2.82,13.13-5.61C200.88,200.69,199.38,198.09,197.8,199.2L197.8,199.2z"/>
<path class="st1" d="M170.35,218.1l17.89,31.73c0.42,0.72,1.34,0.95,2.05,0.54c0.72-0.42,0.95-1.34,0.54-2.06l-17.89-31.73
	c-0.42-0.72-1.34-0.95-2.05-0.54C170.17,216.47,169.93,217.39,170.35,218.1z"/>
<path class="st1" d="M193.93,222.64c-5.02,0.68-9.95,1.95-14.68,3.78c-4.27,1.81-8.23,4.31-11.7,7.39c-1.45,1.28,0.68,3.4,2.12,2.12
	c3.3-2.92,7.08-5.27,11.16-6.94c4.49-1.66,9.15-2.82,13.9-3.46C196.63,225.22,195.82,222.33,193.93,222.64z"/>
<path class="st1" d="M168,235.51c-0.39,2.79,0.45,5.31,1.44,7.89c0.92,2.39,1.97,4.73,3.14,7c2.38,4.55,5.28,8.82,8.63,12.72
	c1.25,1.47,3.37-0.66,2.12-2.12c-2.99-3.5-5.59-7.3-7.76-11.36c-1.09-2.03-2.07-4.12-2.93-6.25c-0.86-2.16-2.08-4.71-1.75-7.09
	c0.19-0.78-0.24-1.58-1-1.85c-0.78-0.22-1.6,0.23-1.84,1L168,235.51z"/>
<path class="st1" d="M163.9,255.98c8.33-5.91,17.75-10.11,27.72-12.33c1.88-0.42,1.09-3.31-0.8-2.89
	c-10.24,2.27-19.92,6.56-28.47,12.63c-1.56,1.11-0.06,3.71,1.52,2.59H163.9z"/>
<path class="st1" d="M162.15,255.51c-0.26,4.76,2.43,8.83,4.85,12.69c2.72,4.35,5.27,8.8,7.65,13.35c0.9,1.71,3.49,0.2,2.59-1.51
	c-2.24-4.27-4.62-8.45-7.15-12.55c-2.26-3.65-5.18-7.47-4.94-12c0.1-1.93-2.9-1.92-3,0V255.51z"/>
<path class="st1" d="M178.59,260.61c-8.24,3.84-16.37,7.89-24.39,12.16c-1.71,0.9-0.19,3.49,1.51,2.59
	c8-4.27,16.13-8.33,24.39-12.16C181.85,262.38,180.33,259.8,178.59,260.61z"/>
<path class="st1" d="M155.16,274.8c3.41,9.97,7.64,19.64,12.63,28.92c0.92,1.7,3.51,0.19,2.59-1.51c-4.87-9.05-9-18.49-12.33-28.21
	C157.43,272.19,154.53,273,155.16,274.8z"/>
<path class="st1" d="M172.2,278.71c-8.06,3.7-15.84,7.97-23.28,12.8c-1.62,1-0.11,3.64,1.51,2.59c7.44-4.82,15.23-9.09,23.29-12.78
	c1.75-0.8,0.23-3.39-1.52-2.59V278.71z"/>
<path class="st1" d="M147.97,300.03l10.46,21c0.86,1.73,3.45,0.21,2.59-1.51c-3.48-6.99-6.97-13.99-10.46-21
	C149.7,296.79,147.11,298.31,147.97,300.03z"/>
<path class="st1" d="M165.63,299.8l-22.41,10.71c-1.74,0.83-0.22,3.42,1.52,2.59l22.41-10.71
	C168.89,301.56,167.37,298.97,165.63,299.8L165.63,299.8z"/>
<path class="st1" d="M141.64,311.11c1.95,11.17,5.04,22.12,9.22,32.66c0.7,1.77,3.61,1,2.89-0.8c-4.18-10.54-7.27-21.49-9.22-32.66
	C144.2,308.41,141.31,309.22,141.64,311.11z"/>
<path class="st1" d="M157.95,323.12c-8.73,3.03-17.73,5.24-26.88,6.58c-1.9,0.28-1.09,3.17,0.8,2.89
	c9.15-1.34,18.15-3.54,26.88-6.57C160.56,325.39,159.75,322.49,157.95,323.12z"/>
<path class="st1" d="M130.35,333.09c3.33,10.38,6.64,20.76,9.92,31.15c0.58,1.84,3.48,1,2.89-0.79
	c-3.33-10.39-6.64-20.78-9.91-31.16C132.66,330.46,129.77,331.29,130.35,333.09z"/>
<path class="st1" d="M151.41,342.31c-9.84,3.8-20.23,5.97-30.77,6.42c-1.92,0.08-1.93,3.08,0,3c10.81-0.44,21.47-2.65,31.57-6.53
	C153.99,344.52,153.21,341.61,151.41,342.31L151.41,342.31z"/>
<path class="st1" d="M118.9,348.16c0.56,12.15,5.17,23.77,13.1,33c1.26,1.46,3.37-0.67,2.12-2.13
	c-7.39-8.63-11.69-19.48-12.22-30.83c-0.09-1.93-3.09-1.94-3,0V348.16z"/>
<path class="st1" d="M107.2,368.89c11.25,1.46,22.58,2.27,33.93,2.43c0.83,0,1.5-0.67,1.5-1.5s-0.67-1.5-1.5-1.5
	c-11.35-0.16-22.68-0.97-33.93-2.43C105.3,365.64,105.31,368.64,107.2,368.89z"/>
<path class="st1" d="M104.04,370.51c0.71,13.41,4.79,26.43,11.88,37.84c1,1.63,3.61,0.13,2.59-1.52
	c-6.82-10.95-10.77-23.44-11.47-36.32C106.94,368.59,103.94,368.58,104.04,370.51z"/>
<path class="st1" d="M94.59,392.09c12.57-0.09,25.08-1.67,37.27-4.72c1.87-0.47,1.08-3.36-0.8-2.89
	c-11.93,2.99-24.17,4.53-36.47,4.61c-0.83,0-1.5,0.67-1.5,1.5S93.76,392.09,94.59,392.09z"/>
<path class="st2" d="M253.87,45.01c-2.48,0.35-5.83,0.82-7.36,3.27s0.22,5.11-1.7,6.87c-1.19,1.09-2.29,0.5-3.19,1.69
	c-1.16,1.54,0.36,3-0.5,5c-1.15,2.63-4.78,2.09-5.48,4.47c-0.48,1.64,1.14,2.44,0.59,4.08c-0.65,2-3.19,1.45-4.38,3.58
	s0.7,3.8-0.6,6c-1,1.69-2.44,1.13-3.29,2.68c-1.25,2.3,1.41,4.37,0.29,7.07c-0.88,2.13-2.95,1.83-3.38,3.68
	c-0.58,2.47,2.92,4,2.38,6.27c-0.6,2.48-5.35,2.54-5.48,4.47s3.88,2.95,3.58,4.38s-3.59,0.86-4.28,2.58s2.06,3.32,1.48,5.18
	c-0.69,2.21-5.2,2-5.37,3.48s4.82,3,4.57,4.48c-0.21,1.25-3.91,1-4.28,2.58s2.74,2.44,2.58,4.28c-0.14,1.57-2.42,1.56-3.39,3.68
	s0.9,3.21,0.39,6.07c-0.6,3.4-3.57,3.7-3.69,6.66c-0.09,2.5,2,3.13,1.49,5.18c-0.54,2.22-3.22,2.41-3.49,4.67
	c-0.16,1.37,0.79,1.56,0.7,3.09c-0.14,2.28-2.32,2.68-2.5,4.77c-0.16,1.92,1.62,2.24,1.59,4.18c0,2.42-2.81,2.68-3.59,5.67
	c-0.69,2.66,1.23,3.54,0.39,6.07c-0.77,2.35-2.59,2.1-3.48,4.67c-0.8,2.29,0.43,3.08-0.51,5c-1.07,2.16-3.09,2-3.38,3.67
	s1.8,2.46,1.58,4.19c-0.27,2.22-3.9,2.24-4.48,4.57s2.75,3.62,2.38,6.27s-4,2.75-4.58,5.57c-0.62,3,3.08,4.72,2.28,7.26
	s-4.7,2-5.48,4.47s2.92,4.27,2.28,7.27c-0.56,2.69-3.8,2.52-4.58,5.57c-0.66,2.57,1.37,3.77,0.39,6.07
	c-0.82,1.93-2.46,1.56-3.38,3.68c-0.82,1.87,0.26,2.63-0.51,5s-1.8,1.91-2.39,3.78c-1,3.12,1.56,5.42,0.29,7.06
	c-0.85,1.12-2.29,0.42-3.19,1.69s0.22,2.43-0.4,4c-0.9,2.28-4,1.37-5.37,3.48c-2,3.11,2,7.83,0,10.05c-1.21,1.3-3.35,0.21-4.18,1.59
	s1.14,2.89,0.5,5.07c-0.59,2-2.5,1.66-3.39,3.68c-1.2,2.73,1.57,5,0.29,7.06c-1.11,1.8-3.81,1.11-4.28,2.59
	c-0.55,1.7,2.85,3.14,2.48,5.27c-0.33,1.94-3.3,1.77-4.48,4.58c-0.62,1.47,0.11,1.72-0.4,4c-0.72,3.16-2.29,3.25-2.6,5.76
	s1.17,3.19,0.49,5.08s-2.61,1.7-3.38,3.68c-0.88,2.23,1.17,3.59,0.39,6.07c-0.58,1.84-1.84,1.45-3.39,3.68
	c-2.26,3.24-0.6,5.53-2.79,7.75c-1.71,1.73-3.26,0.89-4.29,2.59c-1.27,2.11,0.7,4.11-0.6,6s-3.6,1-4.28,2.58
	c-0.58,1.38,1,2.28,0.59,4.08s-2.15,1.5-3.38,3.68s-0.15,3.48-1.5,4.87c-1.16,1.2-2.28,0.54-3.19,1.69c-1.13,1.43,0.31,2.83-0.5,5
	c-0.95,2.51-3.44,2-4.48,4.58c-0.88,2.14,0.55,3.29-0.51,5c-1.06,1.71-2.85,0.91-4.28,2.58c-1.91,2.24,0.13,5.06-1.7,6.87
	c-1.44,1.42-3.06,0-5.17,1.48c-2.34,1.62-1.29,4-3.59,5.67c-1.57,1.16-2.24,0.22-6.17,1.39c-3.32,1-4.07,2-5.18,1.48
	c-1.44-0.7-0.6-2.68-2.48-5.27c-1.18-1.63-1.81-1.26-3.68-3.39c-1.32-1.5-2.32-2.65-2.58-4.28c-0.33-2.08,0.94-2.51,1.6-5.87
	c0.7-3.6-0.47-4.6,0.6-6c1.64-2.1,5-0.47,6.27-2.38s-1.62-4.71-0.29-7.07s4.69-0.93,6.37-3.37c1.54-2.22-0.75-4.1,0.71-7
	s4.7-2.49,5.58-5.46c0.53-1.81-0.46-2.63,0.4-4c1.06-1.67,2.9-0.9,4.28-2.58s0.12-3.08,1.5-4.88c1.24-1.62,2.55-0.85,4.28-2.58
	s0.8-2.77,2.49-4.77c1.85-2.2,3.56-1.68,4.38-3.58c0.74-1.71-0.42-2.6,0.41-4c1.07-1.78,3.42-1,4.28-2.58s-1.24-3.09-0.49-5.08
	s2.91-1.29,4.38-3.58c1.23-1.91,0.13-3,1.5-4.87c1.21-1.64,2.38-1.15,3.28-2.68c1-1.69-0.19-2.68,0.51-5s2-2,3.48-4.67
	c1.28-2.37,0.42-3,1.6-5.87c1.38-3.39,2.75-3,3.59-5.67c1.11-3.48-1.18-4.48-0.19-8.06c0.87-3.12,2.79-3,3.69-6.66
	c0.6-2.42-0.23-2.61,0.5-5c0.89-2.91,2.34-3.3,2.59-5.76c0.21-2-0.71-2.16-0.59-4.08c0.19-3,2.47-3.22,3.69-6.67s-0.6-4.32,0.81-8
	c1-2.59,2.07-2.53,2.49-4.77c0.53-2.88-1.1-3.73-0.39-6.07c0.79-2.6,3.07-2.4,3.48-4.67c0.47-2.55-2.17-3.93-1.38-6.17
	c0.51-1.46,1.74-1.21,2.29-2.79c0.67-1.92-1-2.88-0.49-5.07c0.42-2,1.92-1.88,2.39-3.78c0.63-2.59-1.91-3.8-1.39-6.17
	s3-1.84,4.49-4.57c1.44-2.57-0.25-3.73,0.8-8c0.94-3.78,2.5-3.71,2.69-6.77s-1.26-4-0.39-6.07s2.81-1.8,3.39-3.68
	c0.71-2.31-1.94-3.6-1.39-6.17c0.45-2.09,2.37-1.92,3.49-4.67c0.71-1.74,0-2,0.5-5c0.66-4,2-4.46,1.7-6.87s-1.63-2.29-1.58-4.18
	c0-2.56,2.48-3,2.59-5.77c0.08-1.92-1.1-2.51-0.59-4.08s1.88-1.45,2.29-2.78c0.68-2.21-2.76-3.72-2.38-6.27
	c0.32-2.21,3.06-2.26,3.48-4.68c0.39-2.22-1.79-3-1.48-5.17c0.4-2.77,4.14-2.89,4.58-5.57c0.41-2.51-2.7-3.51-2.38-6.27
	s3.27-2.87,3.59-5.67c0.24-2.13-1.44-2.47-1.49-5.17s1.69-3.17,1.6-5.87s-1.87-3.19-1.49-5.18c0.43-2.26,2.83-2.19,3.49-4.67
	c0.57-2.15-1-2.88-0.49-5.08c0.63-2.48,2.91-2.36,3.49-4.67c0.61-2.46-1.79-3.41-1.39-6.17c0.38-2.59,2.6-2.47,3.59-5.67
	c0.87-2.83-0.59-3.84,0.6-6s3.12-2,3.39-3.68s-1.84-2.5-1.59-4.18c0.34-2.24,4.38-2.57,4.48-4.57c0.08-1.4-1.86-1.89-1.68-3.18
	c0.2-1.51,2.89-1.27,4.38-3.58c1.12-1.75,0.28-3,1.39-3.88c1.62-1.33,4.19,0.54,5.08-0.49s-0.4-4.73-2.48-5.28
	c-0.81-0.21-2.88-0.27-7.67,6.26c-4.81,6.66-8.3,14.18-10.29,22.15c-3.91,15.22-5.7,27.15-5.9,28.55
	c-2.53,17.2-3.07,23.85-4.42,33.73c-1.44,10.56-3.8,21.83-8.51,44.37c-5.18,24.83-9.64,43.52-11,49.14
	c-2.81,11.68-5.23,21.21-10.06,40.21c-4,15.67-6,23.5-6.59,25.47c-5.77,19.27-14.06,37.69-24.64,54.79
	c-12.1,19.17-18.8,29.77-31.39,42.06c-7.06,6.9-14,12.4-14.15,20.68c-0.16,8.79,5.77,19.25,14.9,21.61c7.9,2,15-2.77,19.71-6
	c9.46-6.6,13-14.16,21-29c16.52-30.65,16.77-27,23.33-41.87c5-11.38,5.58-15.12,12.77-36.9c10.82-32.84,12.99-34.84,21.06-59.31
	c7-21.08,10.8-36.18,17.28-61.57c11.47-44.96,17.21-67.42,18.72-75.51c0,0,5.8-31.57,15.67-45.65c3.26-4.64,5.44-10.14,9.47-14.12
	c0.8-0.79,2.9-2.78,2.39-3.78S255.08,44.84,253.87,45.01z"/>
<path class="st4" d="M95.02,408.37c0-0.74,11.81-5.07,16,0.62c4,5.46-1.9,16.18-6.68,16.41c-5.61,0.27-10-13.86-9.64-14
	s3.34,8,7.25,7.77c2.9-0.17,5.89-4.9,4.79-7.56C105.14,407.66,95.03,409.06,95.02,408.37z"/>
<path class="st4" d="M95.02,408.37c0.73-0.42-2.9-11.88-6.85-11.75c-4.82,0.16-10.14,17.53-6.09,20.5c3.34,2.45,13-5,12.64-5.76
	s-6.89,3.32-9.16,1.08s0.1-9.25,3-9.75S94.46,408.7,95.02,408.37z"/>
</svg>
