<?xml version="1.0" encoding="utf-8"?>
<!-- Generator: Adobe Illustrator 25.0.0, SVG Export Plug-In . SVG Version: 6.00 Build 0)  -->
<svg version="1.1" id="Calque_1" xmlns="http://www.w3.org/2000/svg" xmlns:xlink="http://www.w3.org/1999/xlink" x="0px" y="0px"
	 viewBox="0 0 249.27 345.05" style="enable-background:new 0 0 249.27 345.05;" xml:space="preserve">
<style type="text/css">
	.st0{fill:#A0A0A0;}
	.st1{fill:#D8D8D8;}
	.st2{fill:#707070;}
</style>
<path class="st0" d="M37.77,57.76c2.27,8.38,2.6,14.26,3.31,26.49c1.45,24.58,2.37,36.85,2.49,41.39
	c0.59,23.72,0.82,35.81-2.49,47.19c-3.66,12.6-6.27,11.32-9.1,22.35c-4.53,17.59,1.19,24.38,2.48,48.84
	c1.68,31.82-7.18,36.08,0,51.32c7.42,15.74,23.64,25.53,25.66,26.49c3.08,1.45,1.21,0.14,32.29,7.45c3.34,0.78,6.56,1.55,10.76,0.83
	c7.17-1.25,14.57-6.42,17.38-13.25c3.52-8.56-0.61-17.65-5-27.31c-1.22-2.7-1.47-2.8-2.49-5c-4.14-8.89-3.53-15.13-4.14-32.29
	c-0.6-16.94-1.57-21.2-1.65-39.73c0-2.71,0-2.47,0-5c-0.05-12.29-0.67-30.31-4.14-59.6c-2.23-18.81-2.78-17.43-3.31-24.83
	c-3.55-48.94,19.32-68.23,9.1-84.44c-13.75-21.8-72.53-14.49-77,0C30.76,42.69,34.31,45,37.77,57.76z"/>
<path class="st0" d="M156.98,47c-11.78,9.79,1.57,32.66,0.82,72c-0.39,20.61-4.07,15.51-8.28,51.32c-4.17,35.58-0.41,39.57-5,78.64
	c-2.82,24.21-4.23,36.31-8.28,48.84c-7.63,23.61-16.36,32.6-11.59,39.74c6.09,9.09,29.37,8.05,43.05-0.83
	c1.87-1.22,5.94-4.67,14.07-11.59c2.73-2.32,8.14-7,14.9-13.24c10.78-10,15.39-15.3,15.73-22.35c0-0.78,0-1.34,0-1.66
	c-0.59-15.59,7.48-43.57,8.28-46.36c1.59-5.6,7.82-27.43,5.79-49.66c-1.86-20.37-9.17-25-14.07-42.22
	c-14.26-50.07,24.91-90.35,9.1-104.3c-4-3.58-16.77-2.94-42.21-1.66C166.29,44.35,159.72,44.72,156.98,47z"/>
<path class="st1" d="M137.94,27.13c-6.87,10.82-9.25,23.89-6.63,36.43c0.95,4.36,2.23,7,4.14,7.45c2.55,0.54,4.06-3.44,7.45-3.31
	c3.84,0.14,4.39,5.3,8.28,5.79c4.43,0.55,6.71-5.77,10.76-5c3.4,0.68,3.53,5.48,6.62,5.8c3.65,0.38,5.4-6.08,9.11-5.8
	c3.36,0.26,3.5,5.7,7.45,6.63c4.34,1,6.81-5,11.59-4.14c4.17,0.71,4.56,5.62,8.28,5.79s4.47-4.93,9.1-5.79
	c5.51-1,8.5,5.48,13.25,4.14c4.4-1.25,5.3-7.82,7.45-7.45c2.31,0.39,1.14,8,5,9.93c2.73,1.38,7.69-0.27,9.11-3.31
	c2.49-5.35-8.47-9.72-12.42-23.18c-3.48-11.86,2-18.85-4.14-26.49c-2.22-2.61-5.06-4.6-8.27-5.79c-12.57-5.5-20.27,0.81-38.08,1.65
	c-22,1-32.62-7.57-43.05,0.83C140.95,22.92,139.93,24.33,137.94,27.13z"/>
<path class="st1" d="M31.15,13.06C10.43,19.19-2.85,41.84,0.52,47c0.87,1.34,3.78,2.91,6.62,3.31c3.07,0.43,4.12-0.77,5.8,0
	c3.45,1.59,1.22,7.73,4.14,9.94c4.69,3.54,15.25-8.65,24-5c4,1.69,3.42,4.94,7.45,5.79c5.79,1.23,9.21-5,14.9-3.31
	c3.45,1,4.2,3.87,6.63,3.31s3.17-3.6,6.62-4.14c0.54-0.12,1.11-0.12,1.65,0c2.2,0.61,2.1,3.32,4.14,5c1.94,1.35,4.42,1.66,6.63,0.83
	c3.7-1.4,3.87-5.81,5.79-5.8c2.55,0,2.56,7.8,6.62,9.11c3.51,1.13,5.76-3.94,10.76-3.31c4.21,0.53,4.77,4.39,8.28,4.14
	c2.55-0.18,3-2.27,8.28-5.8c3.81-2.53,4.8-2.26,5.79-3.31c5-5.24-2.65-30.35-20.69-39.73c-11.38-5.92-15.9,0.15-43.87-1.66
	C45.29,14.77,42.77,9.63,31.15,13.06z"/>
<path class="st2" d="M53.5,8.92C49.76,6.04,45.56,3.8,41.08,2.3c-5.12-1.71-9.57-3.2-12.41-1.66c-9.27,5-4.85,44.13,9.1,48
	c4.08,1.13,7.72-1.08,21.53-11.59C92.36,11.86,97.46,4.72,104,6.42c12.45,3.23,19.05,35.7,9.93,42.22
	c-7.67,5.47-26.08-7.64-28.15-9.11C73.53,30.83,68.16,20.24,53.5,8.92z"/>
<path class="st2" d="M53.5,18c-0.7,1.25-0.2,3.34,0.83,7.45c1.7,6.8,2.55,10.2,5,11.59c2.93,1.68,4.61-0.92,11.58-0.83
	s9.4,2.63,11.59,0.83c1.3-1.06,0.86-2.32,1.66-9.11c0.9-7.63,1.73-8.45,0.83-9.93s-2.62-2.37-14.9-2.48
	C56.18,15.41,54.3,16.59,53.5,18z"/>
<path class="st2" d="M178.5,26.31c-7.75-6.14-16.82-10.39-26.49-12.42c-5.91-1.17-11.25-2.15-14.9,0.83c-7.31,6-1.91,23,0,29
	c3.63,11.43,6.39,20.13,12.41,21.52c11.46,2.65,23.39-23.74,56.29-46.35c3.85-2.65,10.11-6.7,16.56-5c8,2.15,12.92,12.3,13.25,20.69
	c0.42,11-6.91,23.58-15.73,24.84C210.48,60.76,206.89,48.19,178.5,26.31z"/>
<path class="st2" d="M172.7,25.48c-5,4.12-3.06,18.48,3.31,21.52c2.83,1.35,4.27-0.61,12.42-0.83c7.76-0.2,9.33,1.51,11.59,0
	c5.41-3.59,4.68-18.82-1.66-22.35c-2.71-1.51-4.27,0.22-14.07,0.83C176.21,25.15,174.63,23.88,172.7,25.48z"/>
<path class="st1" d="M115.63,289.55c-6.75-7-19.07-1.75-43.88,1.65c-21.66,3-33.65,1.88-34.77,6.62c-0.69,3,3.14,7,8.28,12.42
	c2.32,2.38,4.81,4.6,7.45,6.62c6.95,5.49,11.44,9,18.21,11.59c5,1.9,9.14,2.46,15.73,3.31c4.12,0.53,8.27,0.81,12.42,0.83
	c3.6,0.06,7.21-0.22,10.76-0.83c5.1-0.88,7.91-1.36,10.76-3.31c4.14-2.9,6.83-7.43,7.41-12.45c0.21-2.16-0.22-4.18-8.28-19
	C117.12,292.19,115.81,289.78,115.63,289.55z"/>
<path class="st1" d="M194.23,305.27c-10.09-1.96-20.44-2.24-30.63-0.82c-27.57,4.71-33.23,6.54-35.5,8.78
	c-0.35,0.35-0.66,0.74-0.93,1.15c-4.73,6.38-6.87,17.1-1.65,24c4.48,5.93,12.44,6.46,14.9,6.63c3.43,0.23,7.26-0.68,14.9-2.49
	c2.5-0.59,5.39-1.28,9.11-2.48c5.57-1.8,9.74-3.15,14.07-5.79c2.87-1.76,6.61-5.92,14.07-14.08c6.12-6.69,8.28-9.31,7.45-11.59
	S195.94,305.62,194.23,305.27z"/>
</svg>
