<?xml version="1.0" standalone="no"?><!-- Generator: Gravit.io --><svg xmlns="http://www.w3.org/2000/svg" xmlns:xlink="http://www.w3.org/1999/xlink" style="isolation:isolate" viewBox="0 0 758.504 490.367" width="758.504" height="490.367"><defs><clipPath id="_clipPath_WqgM232s2ck4R1rGjoZol93sWpsYTake"><rect width="758.504" height="490.367"/></clipPath></defs><g clip-path="url(#_clipPath_WqgM232s2ck4R1rGjoZol93sWpsYTake)"><path d=" M 534.538 41.148 C 532.914 40.651 531.234 40.358 529.538 40.278 C 522.258 39.628 516.798 41.798 513.538 42.868 C 510.998 43.708 504.778 44.288 492.348 45.448 C 481.448 46.448 466.228 45.968 459.828 46.448 C 452.708 46.998 427.828 48.928 408.778 66.768 C 405.298 70.028 393.778 80.768 389.528 97.568 C 385.768 112.288 390.388 120.478 383.058 135.638 C 380.798 140.318 378.508 143.358 379.788 146.588 C 382.198 152.698 393.508 148.588 404.078 154.588 C 420.778 163.978 424.858 192.138 424.608 192.238 C 424.548 192.238 423.738 191.048 424.118 190.338 C 425.118 188.598 432.278 191.968 438.018 192.458 C 451.468 193.618 459.488 179.028 463.018 180.828 C 469.908 184.408 460.298 227.368 433.848 282.138 C 391.788 369.228 356.718 383.528 364.498 411.508 C 371.858 437.978 415.848 448.848 503.498 469.508 C 589.048 489.658 634.978 499.958 651.398 478.288 C 665.228 460.018 641.048 441.548 638.658 363.388 C 638.328 352.738 638.428 343.568 638.948 334.708 C 639.298 328.708 640.258 312.028 646.948 275.498 C 650.948 254.048 656.718 226.208 661.168 226.548 C 663.728 226.748 663.328 236.138 671.408 241.338 C 672.638 242.128 675.938 244.238 679.788 244.048 C 689.908 243.558 689.718 227.468 701.458 222.738 C 715.458 217.098 729.798 230.738 737.218 223.328 C 739.808 220.748 738.358 218.858 742.388 211.888 C 746.418 204.918 750.758 202.508 753.258 198.998 C 760.338 189.048 758.608 176.478 757.388 167.598 C 753.508 139.498 733.238 121.598 727.948 117.258 C 720.088 110.748 716.818 110.408 709.118 106.468 C 703.828 103.768 703.228 102.908 696.118 98.678 C 684.618 91.858 685.058 93.938 678.388 89.448 C 669.388 83.448 668.188 79.368 659.018 75.378 C 655.458 73.828 653.678 73.058 651.488 72.848 C 637.398 71.498 632.638 91.228 614.488 94.428 C 609.908 95.228 605.958 95.258 598.488 93.648 C 591.532 92.597 584.707 90.81 578.128 88.318 C 554.498 78.748 555.648 48.088 534.538 41.148 Z " fill="rgb(160,160,160)"/><path d=" M 468.958 45.748 C 459.198 56.258 473.128 99.678 503.428 114.228 C 530.138 127.058 542.588 104.698 579.968 112.908 C 618.708 121.408 624.618 150.218 660.868 149.308 C 666.678 149.158 684.238 148.458 697.028 135.628 C 698.488 134.158 712.028 120.538 708.308 108.468 C 705.458 99.318 695.308 99.568 673.098 84.678 C 657.008 73.878 659.678 71.948 653.098 69.568 C 627.588 60.378 608.998 96.318 583.978 90.448 C 558.728 84.518 559.298 43.448 531.338 39.548 C 524.268 38.548 524.648 41.238 501.028 42.838 C 477.088 44.458 472.438 41.998 468.958 45.748 Z " fill="rgb(216,216,216)"/><path d=" M 632.308 45.318 C 631.129 44.929 629.851 44.968 628.698 45.428 C 628.698 45.528 629.488 45.428 629.548 45.618 C 630.058 47.058 576.808 70.768 560.728 69.248 C 559.658 69.148 555.188 68.598 554.178 70.518 C 553.308 72.158 555.418 74.808 555.818 75.358 C 563.998 86.838 637.478 61.688 635.658 50.528 C 635.568 49.968 634.818 46.248 632.308 45.318 Z " fill="rgb(216,216,216)"/><path d=" M 564.878 23.528 C 565.302 23.552 565.72 23.64 566.118 23.788 C 570.018 25.278 581.878 47.438 592.718 58.268 C 598.918 64.448 615.498 77.658 622.118 79.898 C 622.648 80.078 624.878 80.778 625.118 82.178 C 625.418 84.028 621.998 85.958 621.538 86.248 C 609.128 94.038 553.118 37.458 559.598 27.248 C 562.008 23.388 564.878 23.528 564.878 23.528 Z " fill="rgb(216,216,216)"/><path d=" M 606.258 103.318 C 608.838 109.008 605.128 117.028 599.778 120.758 C 591.238 126.708 577.548 122.428 571.698 113.758 C 567.888 108.128 566.198 98.858 570.458 94.658 C 574.168 91.008 580.758 92.778 590.908 95.508 C 599.758 97.928 604.388 99.158 606.258 103.318 Z " fill="rgb(112,112,112)"/><path d=" M 585.868 103.048 C 587.738 94.448 600.868 91.878 622.038 84.358 C 649.578 74.588 651.798 70.258 657.428 72.878 C 672.428 79.878 674.928 119.108 659.958 129.478 C 654.808 133.048 652.408 129.828 629.178 129.478 C 606.178 129.138 593.538 132.088 589.058 124.998 C 587.418 122.408 586.768 118.308 586.218 114.798 C 586.098 114.088 585.008 106.978 585.868 103.048 Z " fill="rgb(112,112,112)"/><path d=" M 512.318 65.028 C 506.118 81.408 503.088 89.708 506.658 95.198 C 509.378 99.388 513.208 98.648 525.808 102.048 C 550.428 108.688 563.118 118.868 569.978 113.428 C 572.533 111.163 574.876 108.67 576.978 105.978 C 579.358 102.978 580.548 101.518 580.858 100.538 C 582.198 96.258 578.448 90.978 556.258 69.188 C 553.178 66.188 554.318 67.308 550.338 63.418 C 530.718 44.228 528.748 41.418 525.418 41.858 C 520.948 42.438 518.008 49.978 512.318 65.028 Z " fill="rgb(112,112,112)"/><path d=" M 582.128 127.728 C 579.408 135.378 581.248 142.428 586.648 156.518 C 601.388 195.018 608.648 197.258 612.808 217.808 C 616.238 234.808 613.598 244.868 619.038 246.968 C 624.478 249.068 632.518 240.688 643.578 228.968 C 658.638 212.968 666.168 204.968 667.368 193.758 C 668.298 184.898 664.628 182.758 653.498 158.458 C 638.498 125.668 639.158 116.458 627.968 110.758 C 615.248 104.308 601.428 109.678 600.298 110.128 C 598.008 111.068 586.248 116.138 582.128 127.728 Z " fill="rgb(112,112,112)"/><path d=" M 580.788 125.638 C 581.598 136.108 573.138 142.128 558.598 157.638 C 523.818 194.638 516.968 219.068 506.398 216.268 C 500.308 214.658 502.758 206.588 490.748 185.068 C 480.038 165.868 472.308 161.938 473.568 152.628 C 474.498 145.798 479.088 144.818 493.568 130.948 C 515.468 109.948 516.098 101.418 529.568 97.498 C 537.479 95.316 545.864 95.57 553.628 98.228 C 565.588 102.118 579.798 112.828 580.788 125.638 Z " fill="rgb(112,112,112)"/><path d=" M 381.838 137.178 C 386.118 132.488 405.408 138.518 419.078 151.538 C 435.428 167.098 440.498 189.538 436.078 192.908 C 435.228 193.558 434.268 193.298 429.338 195.038 C 424.568 196.718 424.448 197.318 423.448 197.348 C 416.828 197.568 417.778 171.268 403.398 161.598 C 393.048 154.598 378.938 159.118 377.398 153.268 C 377.058 151.998 377.848 149.268 379.398 143.838 C 380.658 139.828 381.248 137.818 381.838 137.178 Z " fill="rgb(216,216,216)"/><path d=" M 743.258 212.128 C 742.258 206.938 721.638 201.958 701.878 208.528 C 680.508 215.638 666.598 234.088 669.228 239.118 C 669.498 239.628 669.748 239.628 675.128 244.788 C 678.778 248.298 678.638 248.268 678.878 248.388 C 684.998 251.388 694.558 227.608 711.938 224.168 C 724.448 221.688 737.278 230.468 740.258 225.738 C 740.668 225.098 740.448 224.908 741.558 219.738 C 742.958 213.318 743.388 212.988 743.258 212.128 Z " fill="rgb(216,216,216)"/><path d=" M 142.858 5.398 C 136.218 6.398 136.578 17.918 128.858 29.398 C 117.158 46.798 101.188 42.828 83.338 58.028 C 71.528 68.078 67.068 79.568 60.168 97.328 C 57.168 105.168 48.398 129.218 46.998 174.648 C 45.848 211.698 49.078 249.648 37.278 269.008 C 34.017 274.495 30.258 279.67 26.048 284.468 C 17.308 293.838 12.048 294.708 8.668 301.128 C 5.078 307.848 7.028 313.958 9.298 326.028 C 11.918 340.028 16.748 365.728 13.828 390.828 C 11.918 407.198 8.378 408.518 10.828 413.938 C 22.468 439.618 106.828 433.488 114.468 409.738 C 117.338 400.878 108.068 394.088 112.998 382.828 C 117.678 372.118 129.298 370.828 131.878 359.118 C 132.728 355.228 132.118 352.328 130.878 346.728 C 127.598 331.948 120.378 323.448 109.638 306.848 C 102.328 295.548 98.638 289.848 96.838 285.698 C 90.618 271.468 91.098 259.168 96.458 212.248 C 100.898 173.378 101.798 171.058 103.518 170.778 C 112.048 169.358 129.518 220.058 137.348 263.708 C 145.428 308.478 152.508 347.758 134.158 387.358 C 130.808 394.568 125.778 400.118 128.028 405.878 C 132.438 417.208 157.828 415.408 231.698 410.688 C 303.968 406.058 332.288 404.418 336.768 389.688 C 338.378 384.408 335.998 379.688 335.018 376.688 C 329.108 358.778 302.358 277.768 302.218 219.208 C 302.148 192.078 307.768 158.368 315.288 157.848 C 324.208 157.218 342.938 202.778 338.688 250.238 C 334.568 296.098 305.098 339.358 315.248 346.398 C 317.248 347.788 324.618 349.678 339.388 353.468 C 340.737 353.709 341.99 354.33 342.998 355.258 C 347.478 359.728 342.238 369.258 340.748 379.008 C 338.938 390.898 342.068 407.558 350.418 412.888 C 359.698 418.808 369.778 406.768 401.068 396.318 C 433.748 385.418 452.148 386.958 454.318 377.468 C 456.248 369.008 442.138 365.528 437.928 346.208 C 436.338 338.888 436.448 332.138 437.088 318.548 C 437.948 300.048 440.158 298.788 439.798 291.988 C 438.478 267.318 408.248 262.318 391.178 230.768 C 387.568 224.098 387.038 220.348 380.908 189.308 C 362.598 96.708 358.438 62.858 334.058 46.828 C 328.293 43.128 322.237 39.904 315.948 37.188 C 291.398 26.928 281.788 33.388 270.488 23.528 C 259.488 13.928 260.308 0.528 252.648 0.018 C 248.108 -0.322 244.938 4.148 240.228 9.338 C 232.568 17.768 215.918 36.108 199.528 37.568 C 181.118 39.218 160.858 19.778 157.638 16.688 C 150.878 10.208 147.628 4.708 142.858 5.398 Z " fill="rgb(160,160,160)"/><path d=" M 218.118 61.778 C 214.298 63.418 216.458 72.858 217.238 77.558 C 220.958 99.938 221.088 122.758 224.478 145.178 C 229.278 176.948 229.388 182.108 233.208 219.288 C 234.748 234.288 236.388 260.088 239.608 311.028 C 243.278 368.918 244.088 385.708 250.138 386.348 C 255.138 386.868 263.338 376.688 261.798 369.818 C 261.568 368.818 260.668 364.748 256.798 362.698 C 254.448 361.438 251.448 361.178 251.528 360.478 C 251.588 360.018 252.938 359.838 253.948 359.528 C 257.888 358.338 260.788 354.108 261.358 350.398 C 262.108 345.588 259.038 341.128 255.138 339.248 C 252.188 337.828 249.138 338.048 249.048 337.118 C 248.958 336.188 252.338 335.868 255.388 333.668 C 255.798 333.368 261.028 329.468 260.238 324.118 C 259.638 320.048 255.778 316.598 251.828 315.978 C 250.378 315.748 249.628 315.978 249.268 315.558 C 247.908 313.838 257.598 309.398 257.968 302.818 C 257.979 299.447 256.4 296.267 253.708 294.238 C 251.098 292.238 248.398 292.108 248.288 290.648 C 248.178 289.188 250.958 288.728 253.658 285.908 C 254.208 285.328 258.028 281.218 256.848 276.528 C 256.419 274.706 255.356 273.097 253.848 271.988 C 250.498 269.528 246.848 270.818 246.018 269.348 C 244.738 267.048 253.518 263.838 254.798 257.288 C 255.54 253.361 253.782 249.383 250.378 247.288 C 247.068 245.408 242.668 246.078 242.628 245.338 C 242.628 244.768 245.138 244.678 247.458 243.428 C 253.188 240.348 255.078 231.568 251.578 227.008 C 251.023 226.314 250.392 225.683 249.698 225.128 C 246.428 222.588 242.648 222.678 242.628 221.708 C 242.628 221.058 244.338 220.708 245.798 219.978 C 249.798 217.978 252.398 212.548 251.188 207.598 C 250.058 202.958 245.748 199.348 240.138 198.348 C 240.638 198.048 250.588 191.938 249.528 184.148 C 249.335 181.828 248.2 179.689 246.388 178.228 C 242.388 175.228 236.788 176.928 235.998 175.168 C 234.998 172.998 242.848 170.558 245.678 163.708 C 246.088 162.708 248.108 157.848 245.488 153.998 C 242.868 150.148 237.768 150.608 237.288 147.928 C 236.768 145.008 242.688 143.928 244.708 138.798 C 246.398 134.528 244.498 129.608 241.708 126.608 C 237.818 122.388 232.708 122.538 232.618 119.928 C 232.528 117.758 236.058 117.318 239.418 112.928 C 240.728 111.228 243.418 107.688 242.618 103.548 C 241.848 99.768 238.298 96.438 234.198 95.418 C 230.978 94.608 229.078 95.658 228.248 94.658 C 226.758 92.848 232.878 89.278 234.548 82.868 C 235.988 77.308 233.288 72.678 232.468 71.278 C 229.178 65.578 221.598 60.318 218.118 61.778 Z " fill="rgb(112,112,112)"/><path d=" M 185.738 61.958 C 189.738 62.878 189.358 72.538 189.468 77.318 C 189.678 86.368 190.658 90.838 190.468 95.268 C 189.758 115.568 202.828 211.798 210.008 272.118 C 222.228 374.898 218.798 385.838 214.368 386.838 C 209.938 387.838 199.968 379.658 200.178 372.738 C 200.178 371.668 200.338 367.548 203.618 364.828 C 205.618 363.158 208.468 362.348 208.258 361.688 C 208.118 361.238 206.798 361.308 205.768 361.188 C 201.768 360.748 198.238 357.118 196.998 353.578 C 195.623 349.122 197.191 344.282 200.918 341.478 C 203.488 339.538 206.478 339.198 206.368 338.268 C 206.258 337.338 202.988 337.638 199.668 336.038 C 199.218 335.818 193.498 332.948 193.268 327.538 C 193.304 323.315 195.905 319.538 199.838 317.998 C 201.188 317.508 201.948 317.638 202.218 317.108 C 203.218 315.178 193.108 312.588 191.548 306.188 C 190.925 302.894 191.855 299.497 194.068 296.978 C 196.198 294.538 198.758 293.908 198.598 292.448 C 198.438 290.988 195.688 291.058 192.598 288.778 C 191.968 288.308 187.598 284.968 187.828 280.148 C 187.897 278.3 188.603 276.534 189.828 275.148 C 192.588 272.148 196.328 272.718 196.828 271.148 C 197.628 268.658 188.638 267.148 186.208 260.918 C 184.798 257.222 185.749 253.041 188.618 250.318 C 191.458 247.868 195.788 247.718 195.688 246.978 C 195.618 246.418 193.168 246.788 190.688 245.978 C 184.628 243.978 181.218 235.718 183.688 230.598 C 184.091 229.815 184.577 229.078 185.138 228.398 C 187.818 225.308 191.448 224.698 191.288 223.748 C 191.188 223.098 189.478 223.098 187.938 222.628 C 183.728 221.368 180.258 216.538 180.508 211.448 C 180.748 206.678 184.218 202.348 189.398 200.328 C 188.868 200.128 178.218 195.948 177.818 188.098 C 177.576 185.792 178.272 183.486 179.748 181.698 C 183.018 177.968 188.748 178.698 189.128 176.788 C 189.668 174.478 181.738 173.518 177.768 167.298 C 177.188 166.398 174.378 161.988 176.178 157.728 C 177.978 153.468 182.948 152.978 182.918 150.248 C 182.918 147.248 177.008 147.248 174.148 142.638 C 171.748 138.748 172.668 133.568 174.768 130.108 C 177.768 125.248 182.638 124.458 182.258 121.878 C 181.938 119.738 178.488 119.948 174.468 116.268 C 172.908 114.848 169.648 111.868 169.698 107.648 C 169.698 103.788 172.528 99.858 176.258 98.098 C 179.258 96.718 181.258 97.398 181.818 96.268 C 182.928 94.218 176.408 91.828 173.638 85.838 C 171.238 80.638 172.978 75.588 173.508 74.058 C 175.838 67.718 182.138 61.118 185.738 61.958 Z " fill="rgb(112,112,112)"/><path d=" M 193.538 44.898 C 195.358 45.898 196.218 51.028 194.968 54.078 C 194.068 56.288 192.598 56.078 191.868 58.558 C 191.048 61.248 192.528 62.478 191.718 65.338 C 191.188 67.208 190.098 68.338 188.618 69.808 C 186.298 72.148 185.498 71.638 184.068 73.558 C 182.498 75.658 183.218 76.558 181.718 78.828 C 181.458 79.198 179.168 82.508 175.788 82.688 C 173.378 82.808 173.138 81.208 170.788 81.398 C 167.978 81.618 167.788 84.028 164.788 84.398 C 162.448 84.698 161.978 83.308 159.898 83.938 C 157.818 84.568 158.018 85.938 155.968 86.798 C 153.468 87.888 150.968 86.928 149.698 86.458 C 146.838 85.368 146.948 84.098 144.608 83.458 C 141.988 82.768 141.608 84.288 138.408 83.958 C 136.028 83.621 133.789 82.631 131.938 81.098 C 129.778 79.368 130.138 78.648 128.158 77.168 C 125.218 74.978 123.998 76.238 121.688 74.308 C 119.378 72.378 120.298 71.108 117.688 67.868 C 115.078 64.628 113.918 65.508 111.688 62.428 C 109.318 59.148 110.358 57.718 108.388 55.938 C 105.708 53.488 102.748 55.228 100.978 52.378 C 100.471 51.628 100.225 50.732 100.278 49.828 C 100.488 47.918 102.538 46.978 104.138 46.128 C 110.398 42.818 110.328 40.708 112.678 40.368 C 117.738 39.648 120.018 49.098 127.878 56.898 C 137.938 66.898 150.218 67.298 154.378 67.448 C 158.228 67.578 167.658 67.898 176.768 61.448 C 186.908 54.318 190.468 43.188 193.538 44.898 Z " fill="rgb(112,112,112)"/><path d=" M 207.288 44.108 C 205.558 45.298 205.468 49.988 207.288 52.518 C 208.568 54.348 210.058 53.958 211.198 56.018 C 212.468 58.288 211.138 59.608 212.418 62.018 C 213.248 63.608 214.548 64.418 216.328 65.528 C 219.088 67.248 219.838 66.658 221.628 68.158 C 223.418 69.658 222.978 70.718 224.878 72.478 C 225.198 72.768 228.088 75.358 231.618 74.988 C 234.138 74.718 234.138 73.258 236.548 73.058 C 239.498 72.818 240.068 74.938 243.228 74.808 C 245.698 74.718 245.968 73.408 248.228 73.648 C 250.488 73.888 250.468 75.098 252.738 75.578 C 254.966 75.902 257.237 75.446 259.168 74.288 C 261.958 72.878 261.658 71.758 263.978 70.848 C 266.588 69.848 267.238 71.118 270.478 70.328 C 272.831 69.695 274.983 68.469 276.728 66.768 C 278.728 64.888 278.208 64.308 280.028 62.678 C 282.728 60.268 284.188 61.198 286.278 59.118 C 288.368 57.038 287.218 56.048 289.398 52.758 C 291.578 49.468 292.928 50.068 294.748 46.978 C 296.688 43.678 295.388 42.578 297.148 40.678 C 299.548 38.078 302.878 39.168 304.258 36.348 C 304.662 35.624 304.783 34.776 304.598 33.968 C 304.078 32.298 301.798 31.778 300.018 31.278 C 293.018 29.278 292.758 27.408 290.268 27.478 C 284.918 27.628 284.038 36.408 277.118 44.578 C 268.268 55.048 255.618 57.338 251.328 58.118 C 247.328 58.838 237.658 60.598 227.208 56.248 C 215.628 51.448 210.188 42.108 207.288 44.108 Z " fill="rgb(112,112,112)"/><path d=" M 196.988 40.548 C 198.798 41.358 199.578 45.548 198.288 48.068 C 197.358 49.898 195.898 49.778 195.128 51.788 C 194.278 54.008 195.728 54.998 194.878 57.358 C 194.328 58.898 193.228 59.818 191.718 61.078 C 189.378 63.078 188.578 62.618 187.118 64.218 C 185.528 65.968 186.228 66.718 184.698 68.578 C 183.189 70.391 181.041 71.555 178.698 71.828 C 176.288 71.968 176.068 70.658 173.768 70.828 C 170.958 71.058 170.768 73.038 167.768 73.398 C 165.428 73.678 164.978 72.548 162.888 73.098 C 160.798 73.648 160.988 74.728 158.888 75.498 C 156.84 76.119 154.644 76.052 152.638 75.308 C 149.798 74.458 149.928 73.418 147.638 72.948 C 145.028 72.418 144.638 73.668 141.438 73.448 C 139.143 73.241 136.936 72.465 135.018 71.188 C 132.878 69.808 133.258 69.188 131.298 68.018 C 128.388 66.268 127.148 67.318 124.878 65.768 C 122.608 64.218 123.538 63.158 120.988 60.538 C 118.438 57.918 117.258 58.658 115.088 56.158 C 112.768 53.498 113.828 52.308 111.888 50.868 C 109.238 48.868 106.268 50.378 104.538 48.058 C 104.05 47.476 103.81 46.726 103.868 45.968 C 104.108 44.408 106.168 43.598 107.778 42.888 C 114.078 40.078 114.038 38.338 116.398 38.028 C 121.458 37.368 123.598 45.088 131.338 51.378 C 141.238 59.428 153.498 59.598 157.658 59.658 C 161.498 59.708 170.908 59.838 180.108 54.378 C 190.228 48.368 193.958 39.188 196.988 40.548 Z " fill="rgb(216,216,216)"/><path d=" M 192.568 63.088 C 195.948 64.088 195.778 73.708 195.928 78.478 C 196.218 87.478 197.098 91.998 197.018 96.418 C 196.658 116.688 208.938 212.988 215.768 273.338 C 227.408 376.168 224.618 387.058 220.858 387.998 C 217.098 388.938 208.518 380.648 208.618 373.738 C 208.618 372.678 208.688 368.558 211.448 365.888 C 213.148 364.238 215.538 363.468 215.358 362.798 C 215.238 362.348 214.108 362.398 213.238 362.278 C 209.828 361.778 206.768 358.118 205.678 354.568 C 204.428 350.286 205.657 345.664 208.868 342.568 C 211.028 340.668 213.568 340.358 213.468 339.428 C 213.368 338.498 210.588 338.768 207.738 337.118 C 207.348 336.898 202.448 333.958 202.198 328.558 C 201.998 324.448 204.558 320.388 207.668 319.098 C 208.808 318.628 209.458 318.758 209.668 318.248 C 210.488 316.318 201.868 313.608 200.458 307.248 C 199.861 304.044 200.582 300.734 202.458 298.068 C 204.238 295.658 206.408 295.068 206.258 293.598 C 206.108 292.128 203.768 292.168 201.098 289.858 C 200.558 289.388 196.768 285.998 196.938 281.178 C 196.955 279.377 197.54 277.628 198.608 276.178 C 200.918 273.178 204.108 273.828 204.528 272.178 C 205.188 269.708 197.528 268.048 195.378 261.828 C 194.188 258.358 194.828 253.828 197.298 251.278 C 199.768 248.728 203.368 248.758 203.298 248.018 C 203.228 247.458 201.148 247.808 199.048 247.018 C 193.878 244.968 190.868 236.648 192.958 231.568 C 193.279 230.799 193.685 230.068 194.168 229.388 C 196.408 226.328 199.488 225.768 199.338 224.808 C 199.248 224.168 197.788 224.138 196.478 223.658 C 192.878 222.338 189.868 217.468 190.018 212.388 C 190.182 207.601 193.068 203.328 197.448 201.388 C 196.998 201.178 187.888 196.868 187.448 189.018 C 187.206 186.781 187.758 184.53 189.008 182.658 C 191.748 178.968 196.598 179.728 196.938 177.858 C 197.368 175.558 190.608 174.498 187.158 168.248 C 186.658 167.338 184.208 162.898 185.688 158.658 C 187.168 154.418 191.388 153.998 191.328 151.278 C 191.268 148.278 186.268 148.228 183.778 143.568 C 181.688 139.658 182.408 134.488 184.158 131.058 C 186.618 126.228 190.788 125.508 190.428 122.928 C 190.138 120.778 187.198 120.928 183.728 117.228 C 182.388 115.788 179.578 112.768 179.568 108.548 C 179.618 104.66 181.691 101.079 185.038 99.098 C 187.528 97.748 189.248 98.458 189.748 97.328 C 190.668 95.328 185.098 92.828 182.668 86.808 C 181.283 83.025 181.191 78.889 182.408 75.048 C 184.218 68.728 189.498 62.208 192.568 63.088 Z " fill="rgb(216,216,216)"/><path d=" M 211.768 60.558 C 208.628 62.138 210.578 71.558 211.318 76.308 C 214.818 98.698 215.318 121.478 218.548 143.918 C 223.108 175.718 223.298 180.868 227.138 218.048 C 228.688 233.048 230.518 258.818 234.138 309.728 C 238.228 367.568 239.208 384.338 244.248 385.088 C 248.408 385.698 255.028 375.678 253.628 368.798 C 253.418 367.798 252.628 363.718 249.388 361.608 C 247.388 360.298 244.918 359.988 244.978 359.298 C 244.978 358.838 246.128 358.678 246.978 358.388 C 250.228 357.278 252.558 353.108 252.978 349.388 C 253.429 344.93 251.358 340.591 247.608 338.138 C 245.138 336.668 242.608 336.838 242.508 335.908 C 242.408 334.978 245.218 334.718 247.718 332.568 C 248.048 332.278 252.328 328.488 251.578 323.128 C 250.998 319.058 247.738 315.538 244.438 314.858 C 243.238 314.608 242.618 314.858 242.308 314.388 C 241.148 312.648 249.108 308.388 249.308 301.828 C 249.293 298.567 247.958 295.45 245.608 293.188 C 243.408 291.188 241.158 290.968 241.048 289.508 C 240.938 288.048 243.228 287.638 245.418 284.868 C 245.858 284.308 248.958 280.268 247.898 275.578 C 247.548 273.815 246.648 272.208 245.328 270.988 C 242.508 268.468 239.488 269.698 238.778 268.208 C 237.678 265.898 244.908 262.848 245.858 256.338 C 246.378 252.708 244.908 248.338 242.008 246.338 C 239.108 244.338 235.578 244.998 235.538 244.248 C 235.538 243.688 237.608 243.638 239.538 242.438 C 244.248 239.438 245.658 230.728 242.668 226.128 C 242.207 225.434 241.674 224.79 241.078 224.208 C 238.308 221.618 235.178 221.638 235.138 220.668 C 235.138 220.018 236.538 219.718 237.738 219.008 C 241.028 217.008 243.088 211.698 241.998 206.738 C 240.944 202.064 237.313 198.401 232.648 197.308 C 233.058 197.028 241.218 191.108 240.198 183.308 C 240.02 181.052 239.058 178.929 237.478 177.308 C 234.098 174.188 229.478 175.848 228.788 174.068 C 227.948 171.888 234.398 169.598 236.628 162.808 C 236.948 161.808 238.538 157.008 236.288 153.118 C 234.038 149.228 229.818 149.588 229.378 146.908 C 228.888 143.978 233.788 142.978 235.378 137.908 C 236.708 133.678 235.048 128.728 232.688 125.688 C 229.378 121.398 225.148 121.458 225.018 118.858 C 224.908 116.688 227.828 116.318 230.538 112.018 C 231.588 110.348 233.798 106.868 233.028 102.718 C 232.252 98.905 229.547 95.772 225.888 94.448 C 223.198 93.588 221.638 94.598 220.888 93.588 C 219.608 91.748 224.628 88.298 225.888 81.928 C 226.542 77.955 225.863 73.876 223.958 70.328 C 221.018 64.558 214.628 59.128 211.768 60.558 Z " fill="rgb(216,216,216)"/><path d=" M 202.288 39.788 C 200.638 40.878 200.538 45.138 202.208 47.418 C 203.428 49.078 204.848 48.718 205.938 50.588 C 207.128 52.588 205.858 53.848 207.068 56.038 C 207.858 57.478 209.068 58.208 210.788 59.208 C 213.408 60.758 214.128 60.208 215.788 61.578 C 217.638 63.038 217.068 63.898 218.878 65.488 C 220.653 67.029 222.949 67.834 225.298 67.738 C 227.698 67.488 227.708 66.158 230.008 65.968 C 232.818 65.738 233.358 67.658 236.378 67.538 C 238.728 67.438 238.988 66.258 241.138 66.458 C 243.288 66.658 243.278 67.768 245.438 68.198 C 247.559 68.479 249.715 68.061 251.578 67.008 C 254.248 65.708 253.958 64.698 256.178 63.858 C 258.668 62.928 259.288 64.098 262.378 63.358 C 264.62 62.798 266.684 61.68 268.378 60.108 C 270.258 58.398 269.798 57.868 271.538 56.388 C 274.128 54.188 275.538 55.028 277.538 53.128 C 279.538 51.228 278.438 50.338 280.538 47.338 C 282.638 44.338 283.918 44.888 285.658 42.078 C 287.518 39.078 286.288 38.078 287.968 36.348 C 290.268 33.978 293.438 34.958 294.778 32.348 C 295.161 31.697 295.276 30.922 295.098 30.188 C 294.608 28.678 292.448 28.188 290.748 27.758 C 284.078 25.998 283.838 24.278 281.458 24.348 C 276.358 24.508 275.458 32.478 268.848 39.928 C 260.388 49.498 248.288 51.628 244.198 52.318 C 240.418 52.978 231.148 54.618 221.198 50.698 C 210.218 46.418 205.068 37.968 202.288 39.788 Z " fill="rgb(216,216,216)"/><path d=" M 235.388 393.758 C 238.268 399.478 232.228 410.568 226.248 415.988 C 225.118 416.988 225.638 416.338 216.568 422.988 C 209.568 428.168 208.828 428.858 206.838 429.318 C 201.128 430.628 199.738 426.558 192.988 426.968 C 185.788 427.398 183.988 432.238 178.988 430.868 C 174.798 429.728 175.048 426.098 170.988 425.278 C 165.988 424.278 163.928 429.618 158.318 429.068 C 153.368 428.588 153.248 424.258 148.318 423.638 C 142.318 422.888 140.318 428.998 134.318 428.228 C 129.838 427.658 129.678 424.068 124.318 422.798 C 118.098 421.328 114.488 425.248 112.778 423.728 C 109.658 420.958 115.108 402.118 128.778 393.328 C 140.258 385.928 148.728 391.198 176.498 392.248 C 213.308 393.658 231.298 385.648 235.388 393.758 Z " fill="rgb(216,216,216)"/><path d=" M 52.678 279.558 C 50.678 279.458 51.758 294.718 43.528 329.558 C 39.808 345.328 36.058 357.088 40.668 371.378 C 42.328 376.528 46.668 387.038 50.208 386.558 C 61.078 385.028 57.898 279.838 52.678 279.558 Z " fill="rgb(112,112,112)"/><path d=" M 87.278 278.848 C 85.378 279.218 92.948 373.918 115.278 376.418 C 121.658 377.128 129.278 370.318 130.868 363.418 C 133.818 350.188 113.238 342.548 98.518 314.728 C 87.868 294.618 88.048 278.698 87.278 278.848 Z " fill="rgb(112,112,112)"/><path d=" M 37.078 275.318 C 27.568 305.518 21.688 316.258 18.148 315.658 C 14.268 315.008 10.928 300.418 14.638 297.918 C 15.493 297.498 16.476 297.419 17.388 297.698 C 21.098 298.178 27.068 294.208 37.078 275.318 Z " fill="rgb(112,112,112)"/><path d=" M 58.448 394.168 C 57.658 394.308 59.018 399.718 58.128 407.368 C 56.718 419.458 51.238 423.568 53.488 427.148 C 56.768 432.368 72.708 430.418 74.148 425.478 C 74.878 422.988 71.408 421.478 67.058 414.958 C 59.978 404.368 59.528 393.968 58.448 394.168 Z " fill="rgb(112,112,112)"/><path d=" M 89.498 392.318 C 88.368 392.728 90.058 396.548 88.318 403.498 C 86.518 410.738 83.318 412.258 83.758 415.658 C 84.758 422.728 100.588 429.108 104.618 425.068 C 110.388 419.318 92.668 391.198 89.498 392.318 Z " fill="rgb(112,112,112)"/><path d=" M 31.228 383.188 C 35.578 383.558 39.788 424.798 31.338 427.548 C 27.788 428.708 21.658 423.208 20.118 417.358 C 19.178 413.808 20.208 411.178 23.718 401.818 C 30.388 384.098 30.548 383.138 31.228 383.188 Z " fill="rgb(112,112,112)"/><path d=" M 341.388 266.668 C 339.228 266.808 343.678 284.488 335.298 311.528 C 329.678 329.668 322.198 339.408 327.058 346.858 C 330.368 351.938 338.778 354.958 344.138 352.408 C 362.818 343.528 345.888 266.388 341.388 266.668 Z " fill="rgb(112,112,112)"/><path d=" M 380.148 257.318 C 378.438 254.678 377.658 253.238 377.058 253.408 C 374.328 254.198 382.058 286.888 384.858 298.528 C 393.138 333.348 396.358 336.578 399.788 337.528 C 408.438 339.938 422.528 329.038 423.788 317.528 C 424.588 310.528 420.168 306.718 394.788 275.528 C 385.558 264.188 380.938 258.518 380.148 257.318 Z " fill="rgb(112,112,112)"/><path d=" M 397.088 252.478 C 395.088 254.298 420.518 290.978 428.328 287.388 C 430.808 286.248 431.468 281.098 430.328 277.528 C 428.688 272.528 423.548 270.988 416.328 266.868 C 402.858 259.258 397.988 251.658 397.088 252.478 Z " fill="rgb(112,112,112)"/><path d=" M 348.178 368.028 C 343.688 368.638 340.768 410.938 351.958 414.858 C 356.018 416.278 362.218 412.768 363.908 408.348 C 365.458 404.348 362.838 400.468 359.248 393.478 C 350.208 375.888 350.168 367.758 348.178 368.028 Z " fill="rgb(112,112,112)"/><path d=" M 387.848 361.318 C 386.238 362.118 389.528 368.388 390.848 381.178 C 392.138 393.808 389.978 397.848 393.098 400.408 C 398.418 404.798 412.878 399.668 413.998 393.178 C 414.528 390.098 411.778 388.378 403.878 379.438 C 392.968 367.138 389.508 360.538 387.848 361.318 Z " fill="rgb(112,112,112)"/><path d=" M 429.218 341.388 C 427.648 341.798 428.398 352.898 432.378 363.318 C 434.958 370.078 437.238 376.058 443.378 379.758 C 451.838 384.828 463.438 383.118 464.198 380.158 C 465.088 376.738 450.808 374.658 439.748 360.638 C 431.908 350.658 430.688 340.998 429.218 341.388 Z " fill="rgb(112,112,112)"/><path d=" M 435.698 301.318 C 428.398 300.158 424.278 309.318 412.178 319.158 C 406.728 323.598 396.488 331.918 382.238 334.748 C 371.777 336.557 361.174 337.417 350.558 337.318 C 348.498 337.318 345.098 338.318 338.278 339.698 C 332.558 340.868 329.878 344.388 325.678 343.418 C 322.488 342.688 321.678 340.588 320.368 341.148 C 317.608 342.348 317.798 353.858 323.018 356.878 C 325.718 358.428 327.298 356.398 331.398 357.588 C 337.398 359.318 337.478 365.208 341.758 365.758 C 346.418 366.358 347.448 359.538 354.978 357.758 C 357.228 357.238 360.898 357.758 368.238 358.758 C 374.358 359.618 376.008 360.308 378.678 359.308 C 382.678 357.808 382.228 355.158 385.858 353.878 C 390.938 352.078 393.628 356.618 398.428 354.938 C 402.828 353.408 402.108 349.038 406.828 347.328 C 411.548 345.618 414.018 349.138 417.208 347.188 C 420.798 344.998 418.708 339.918 422.628 337.048 C 425.918 334.638 428.768 337.188 431.478 334.948 C 434.828 332.168 431.828 327.728 434.478 320.838 C 437.418 313.238 443.748 311.988 443.118 307.658 C 442.698 304.678 439.148 301.908 435.698 301.318 Z " fill="rgb(216,216,216)"/><path d=" M 233.068 393.258 C 236.718 385.128 247.178 385.788 279.868 380.468 C 313.458 375.008 320.398 371.388 329.508 377.158 C 339.868 383.728 347.378 398.858 343.508 405.158 C 342.958 406.068 342.068 406.768 340.288 408.158 C 337.618 410.298 332.758 414.248 326.908 414.098 C 323.208 413.998 323.318 412.378 319.848 412.588 C 315.588 412.828 315.168 415.288 310.428 416.118 C 305.978 416.888 305.108 414.938 301.428 416.118 C 297.748 417.298 297.848 419.618 294.818 420.118 C 290.678 420.798 288.478 416.858 285.648 418.118 C 283.308 419.118 284.168 422.118 281.898 423.268 C 278.588 424.968 275.268 419.348 269.898 420.078 C 265.248 420.708 264.498 425.308 260.588 424.988 C 256.678 424.668 255.008 419.988 252.588 420.778 C 250.718 421.378 251.208 424.428 249.478 425.188 C 246.708 426.408 240.918 420.618 237.568 415.058 C 236.228 412.798 229.388 401.538 233.068 393.258 Z " fill="rgb(216,216,216)"/><path d=" M 11.538 319.618 C 19.538 319.918 19.468 335.568 35.668 352.338 C 41.598 358.468 46.868 363.918 55.538 366.678 C 68.848 370.908 72.688 363.238 97.608 363.978 C 106.558 364.238 110.948 365.368 116.888 362.418 C 126.278 357.758 127.688 348.818 131.098 349.488 C 136.538 350.558 139.968 374.598 131.478 379.958 C 126.408 383.168 119.798 377.958 113.678 382.778 C 110.128 385.558 109.608 389.458 106.608 389.588 C 103.608 389.718 103.058 385.948 99.328 385.328 C 94.958 384.598 93.248 389.328 88.528 388.968 C 84.148 388.608 83.858 384.348 79.828 384.128 C 74.828 383.848 73.088 390.288 67.828 389.948 C 64.538 389.738 64.198 387.158 60.658 387.058 C 56.498 386.938 55.528 390.458 51.928 390.538 C 48.328 390.618 46.928 386.888 40.818 381.728 C 33.878 375.828 32.548 378.108 28.388 373.728 C 21.988 366.968 25.008 361.448 18.678 356.488 C 14.068 352.868 11.218 354.828 8.538 351.068 C 5.688 347.068 8.098 343.668 4.728 338.198 C 2.488 334.568 0.568 334.698 0.098 332.338 C -0.882 327.478 5.688 319.398 11.538 319.618 Z " fill="rgb(216,216,216)"/><path d=" M 449.868 365.368 C 445.318 366.898 440.928 376.148 438.058 382.268 C 437.108 384.268 436.768 385.268 435.588 385.928 C 430.378 388.738 423.068 376.778 415.588 378.538 C 409.048 380.068 409.848 390.298 402.818 392.038 C 396.458 393.608 392.148 386.168 386.588 388.498 C 382.228 390.318 383.748 395.358 378.988 397.428 C 374.228 399.498 370.898 394.968 363.718 397.278 C 361.568 397.968 360.268 398.888 358.268 398.408 C 355.348 397.698 354.798 395.298 352.428 394.718 C 348.478 393.718 344.078 399.218 343.808 399.578 C 339.148 405.498 338.448 416.138 344.148 421.038 C 346.552 422.989 349.596 423.976 352.688 423.808 C 357.988 423.308 359.688 418.808 364.118 419.428 C 366.418 419.738 366.248 420.768 369.908 422.428 C 372.999 423.745 376.392 424.188 379.718 423.708 C 382.318 423.408 384.838 422.068 389.718 419.438 C 396.838 415.638 397.578 414.438 401.038 413.668 C 405.498 412.668 405.558 414.348 410.038 413.668 C 417.778 412.448 418.718 407.298 426.758 406.078 C 430.558 405.498 430.958 406.558 433.648 405.528 C 438.578 403.638 438.018 399.788 442.648 397.168 C 447.578 394.398 449.828 397.788 455.648 394.738 C 459.278 392.828 459.368 390.988 463.528 389.248 C 467.998 387.378 470.078 388.578 470.988 387.248 C 473.978 383.008 458.148 362.588 449.868 365.368 Z " fill="rgb(216,216,216)"/><path d=" M 12.118 404.148 C 18.528 402.538 22.278 414.208 30.918 413.718 C 38.648 413.278 40.468 404.358 47.518 404.718 C 54.248 405.088 55.128 413.358 62.128 413.938 C 68.668 414.478 69.938 407.418 79.478 405.598 C 86.688 404.228 88.148 407.838 95.478 406.388 C 104.748 404.568 106.538 397.888 110.818 398.918 C 118.818 400.828 121.338 426.098 115.328 429.048 C 112.888 430.248 109.968 427.328 104.938 429.198 C 102.338 430.198 102.048 431.348 99.598 431.708 C 96.138 432.208 95.128 430.088 91.858 430.248 C 87.858 430.458 87.748 433.738 83.858 434.358 C 78.508 435.228 75.398 429.508 71.858 431.178 C 70.218 431.938 70.698 433.178 67.428 436.388 C 65.288 438.448 64.228 439.488 62.828 439.528 C 59.758 439.618 59.148 435.148 55.498 434.528 C 52.308 434.018 51.078 437.168 48.028 436.528 C 44.978 435.888 45.148 432.458 42.028 431.468 C 38.458 430.318 36.678 434.468 31.858 434.368 C 27.038 434.268 26.708 430.158 21.028 428.998 C 14.898 427.748 12.268 431.938 8.638 429.998 C 4.458 427.768 4.258 420.278 4.768 416.448 C 4.868 415.968 6.388 405.578 12.118 404.148 Z " fill="rgb(216,216,216)"/><path d=" M 156.678 280.188 C 150.148 232.608 136.678 203.748 139.298 202.558 C 142.058 201.298 161.698 231.768 168.958 271.558 C 178.628 324.558 162.338 372.028 159.108 371.478 C 156.388 371.028 164.268 335.478 156.678 280.188 Z " fill="rgb(112,112,112)"/><path d=" M 289.908 186.948 C 286.268 186.578 272.908 228.098 278.828 273.108 C 281.548 293.798 288.288 314.858 294.048 332.878 C 297.588 343.928 302.778 360.168 304.538 359.758 C 307.248 359.128 296.938 320.068 292.678 264.358 C 288.828 213.928 292.798 187.238 289.908 186.948 Z " fill="rgb(112,112,112)"/></g></svg>