<?xml version="1.0" encoding="utf-8"?>
<!-- Generator: Adobe Illustrator 25.0.0, SVG Export Plug-In . SVG Version: 6.00 Build 0)  -->
<svg version="1.1" id="Calque_1" xmlns="http://www.w3.org/2000/svg" xmlns:xlink="http://www.w3.org/1999/xlink" x="0px" y="0px"
	 viewBox="0 0 560.48 522.05" style="enable-background:new 0 0 560.48 522.05;" xml:space="preserve">
<style type="text/css">
	.st0{fill:#A0A0A0;}
	.st1{fill:#707070;}
	.st2{fill:#D8D8D8;}
</style>
<path class="st0" d="M205.02,0.01c-8,0.53-8.71,14.34-19,27.3c-15.64,19.64-34.32,13.37-57.08,29.78
	c-15.12,10.92-21.52,24.15-31.47,44.69c-4.39,9.06-17.11,36.93-23.16,91c-4.94,44.11-4.73,89.72-20.68,111.68
	c-4.42,6.24-9.4,12.05-14.89,17.37c-11.33,10.34-17.63,10.88-22.34,18.2c-4.93,7.68-3.19,15.16-1.65,29.78
	c1.79,17,5.08,48.1-0.83,77.76c-3.85,19.35-8.2,20.6-5.79,27.3c11.42,31.76,112.63,32.56,124.09,5c4.27-10.31-6.14-19.3,0.83-32.27
	c6.62-12.32,20.61-12.72,24.81-26.47c1.4-4.56,1-8.08,0-14.89c-2.49-17.94-10.28-28.78-21.51-49.63
	c-7.63-14.18-11.44-21.28-13.23-26.48c-6.05-17.57-4.3-32.2,6.62-87.68c9-46,10.33-48.64,12.4-48.81
	c10.32-0.87,26.25,61.31,31.44,114.16c5.33,54.21,10,101.72-15.76,147.21c-4.68,8.28-11.22,14.42-9.1,21.51
	c4.18,14,34.65,14.24,123.26,15.71c86.69,1.44,120.65,2.21,127.4-14.89c2.43-6.15,0.06-12.07-0.83-15.71
	c-5.33-22-29.46-121.2-24-191.1c2.53-32.37,12.48-72.06,21.51-72c10.7,0.11,28.68,56.28,19,112.51
	c-9.33,54.34-48.67,103.12-37.23,112.5c2.25,1.85,10.87,4.82,28.13,10.76c1.59,0.41,3.02,1.28,4.13,2.48
	c4.93,5.77-2.26,16.67-5,28.13c-3.31,14-1.18,34.2,8.27,41.36c10.51,8,23.7-5.44,62-14.89c40-9.87,61.86-6.26,65.36-17.37
	c3.12-9.91-13.39-15.43-16.55-38.89c-1.2-8.88-0.41-16.92,1.66-33.09c2.81-22,5.57-23.28,5.79-31.43
	c0.8-29.59-34.79-38.53-52.12-77.76c-3.67-8.31-3.94-12.84-8.27-50.46c-12.94-112.27-14.65-153.07-42.19-174.55
	c-6.52-4.97-13.44-9.4-20.68-13.24c-28.32-14.61-40.41-7.82-52.95-20.68c-12.21-12.52-9.93-28.37-19-29.78
	c-5.38-0.83-9.6,4.19-15.72,9.93c-9.95,9.33-31.58,29.61-51.29,29.78c-22.13,0.19-44.43-25-48-29
	C214.13,6.54,210.82-0.35,205.02,0.01z"/>
<path class="st1" d="M289.4,74.54c-4.71,1.6-3.05,13.06-2.57,18.76c2.29,27,0.24,54.3,2.13,81.38c2.67,38.38,2.31,44.54,3.28,89.29
	c0.39,18.06-0.13,49-1.18,110.09c-1.2,69.43-1.85,89.55,5.31,90.89c5.92,1.11,16.68-10.26,15.51-18.6c-0.18-1.26-0.87-6.16-5.23-9
	c-2.69-1.74-6.23-2.33-6.07-3.16c0.11-0.54,1.74-0.63,3-0.9c4.82-1,8.68-5.8,9.72-10.18c1.36-5.67-1.87-11.28-6.35-13.9
	c-3.38-2-7.08-2-7.07-3.13s4-1.18,7.9-3.51c0.53-0.32,7.14-4.47,6.71-10.93c-0.32-4.91-4.59-9.41-9.25-10.53
	c-1.71-0.4-2.63-0.16-3-0.75c-1.45-2.18,10.54-6.55,11.62-14.36c0.33-4.02-1.25-7.97-4.27-10.65c-2.91-2.63-6.12-3-6.11-4.81
	s3.36-2,6.86-5.14c0.71-0.63,5.66-5.17,4.71-10.88c-0.34-2.22-1.45-4.24-3.14-5.71c-3.76-3.25-8.25-2.06-9.09-3.9
	c-1.3-2.86,9.48-5.85,11.64-13.54c1.24-4.6-0.47-9.48-4.31-12.3c-3.78-2.56-9.09-2.19-9.06-3.08c0-0.68,3-0.54,5.94-1.81
	c7.14-3.13,10.24-13.43,6.5-19.2c-0.59-0.89-1.28-1.7-2.06-2.43c-3.66-3.35-8.17-3.6-8.11-4.76c0.05-0.78,2.13-1,3.95-1.75
	c5-2,8.59-8.24,7.63-14.26c-0.91-5.65-5.7-10.36-12.3-12.1c0.62-0.31,13.09-6.64,12.58-16.05c-0.01-2.79-1.17-5.44-3.19-7.36
	c-4.48-4-11.33-2.47-12.1-4.66c-0.95-2.68,8.61-4.83,12.66-12.74c0.58-1.14,3.45-6.75,0.7-11.6s-8.88-4.79-9.19-8
	c-0.35-3.53,6.82-4.29,9.72-10.18c2.43-4.93,0.64-11-2.37-14.83c-4.25-5.42-10.35-5.73-10.22-8.84c0.11-2.6,4.36-2.79,8.79-7.68
	c1.72-1.89,5.32-5.85,4.72-10.87c-0.55-4.59-4.47-8.91-9.26-10.53c-3.77-1.26-6.13-0.2-7-1.47c-1.62-2.3,6-6,8.64-13.46
	c2.26-6.5-0.52-12.28-1.36-14C302.23,80.14,293.69,73.09,289.4,74.54z"/>
<path class="st1" d="M250.75,71.64c4.63,1.48,3.3,13,3,18.69c-0.63,10.82,0.11,16.24-0.5,21.52c-2.81,24.15,3.53,140.26,6.28,212.93
	c4.7,123.83-0.45,136.55-5.83,137.32s-16.49-10-15.57-18.2c0.14-1.26,0.68-6.17,4.86-9.1c2.58-1.8,6-2.49,5.84-3.31
	c-0.12-0.54-1.71-0.59-2.92-0.82c-4.72-0.92-8.6-5.59-9.73-9.93c-1.46-5.64,1.55-11.33,5.84-14.06c3.25-2.07,6.85-2.2,6.81-3.31
	s-4-1.07-7.78-3.31c-0.52-0.31-7.07-4.29-6.82-10.76c0.2-4.91,4.25-9.52,8.76-10.75c1.65-0.45,2.55-0.23,2.92-0.83
	c1.36-2.21-10.43-6.28-11.68-14.06c-0.43-3.99,1.01-7.96,3.9-10.75c2.77-2.71,5.89-3.21,5.83-5s-3.33-1.94-6.81-5
	c-0.7-0.62-5.65-5-4.86-10.76c0.27-2.21,1.3-4.26,2.92-5.79c3.58-3.34,8-2.27,8.75-4.13c1.21-2.89-9.38-5.61-11.67-13.24
	c-1.28-4.25,0.13-9.65,3.89-12.41s8.8-2.41,8.76-3.31c0-0.67-3-0.46-5.84-1.65c-7-2.94-10.32-13.16-6.81-19
	c0.55-0.9,1.2-1.73,1.94-2.48c3.49-3.44,7.88-3.81,7.79-5c-0.06-0.78-2.1-1-3.89-1.66c-4.9-1.91-8.58-8-7.79-14.06
	c0.74-5.66,5.3-10.5,11.68-12.41c-0.61-0.29-12.92-6.3-12.65-15.72c-0.07-2.77,0.99-5.45,2.92-7.44c4.26-4.14,11-2.76,11.67-5
	c0.86-2.69-8.51-4.61-12.65-12.4c-0.6-1.13-3.53-6.67-1-11.59s8.53-5,8.76-8.27c0.24-3.54-6.76-4.11-9.73-9.92
	c-2.49-4.87-0.9-11,1.94-14.9c4-5.52,9.94-6,9.74-9.09c-0.17-2.6-4.32-2.68-8.76-7.45c-1.73-1.85-5.33-5.72-4.87-10.75
	c0.42-4.6,4.13-9,8.76-10.76c3.64-1.36,6-0.36,6.81-1.65c1.52-2.35-6-5.82-8.76-13.24c-2.36-6.43,0.2-12.29,1-14.06
	C238.38,77.57,246.53,70.3,250.75,71.64z"/>
<path class="st1" d="M261.69,52.01c2.08,1.39,2.61,7.57,0.83,11.1c-1.29,2.55-3,2.2-4.14,5c-1.23,3.12,0.41,4.74-0.83,8.07
	c-0.81,2.18-2.21,3.39-4.13,5c-3,2.57-3.9,1.88-5.79,4c-2.07,2.35-1.3,3.53-3.31,6.05c-0.34,0.43-3.39,4.15-7.45,4
	c-2.88-0.08-3-2-5.79-2c-3.37,0-3.83,2.85-7.44,3c-2.82,0.13-3.25-1.56-5.8-1s-2.42,2.15-5,3c-3.08,1.06-6-0.33-7.44-1
	c-3.31-1.57-3.06-3.08-5.79-4c-3.06-1.07-3.69,0.7-7.45,0c-2.81-0.61-5.38-2-7.44-4c-2.42-2.26-1.92-3.08-4.14-5
	c-3.3-2.9-4.88-1.52-7.45-4s-1.34-4-4.13-8.07s-4.18-3.15-6.58-7.01c-2.51-4.15-1.14-5.75-3.31-8.07c-3-3.18-6.66-1.39-8.5-5
	c-0.54-0.95-0.75-2.04-0.6-3.12c0.44-2.25,3-3.18,5-4c7.8-3.35,7.92-5.88,10.76-6.06c6.1-0.37,7.91,11.13,16.54,21.19
	c11.05,12.88,25.66,14.57,30.61,15.14c4.58,0.53,15.8,1.82,27.3-5C252.87,62.62,258.2,49.7,261.69,52.01z"/>
<path class="st1" d="M278.17,52.42c-2.17,1.25-2.73,6.84-0.86,10c1.35,2.31,3.16,2,4.33,4.56c1.29,2.83-0.43,4.28,0.87,7.29
	c0.85,2,2.32,3.07,4.33,4.56c3.13,2.32,4.08,1.69,6.07,3.65c2.17,2.12,1.36,3.19,3.47,5.47c0.35,0.38,3.55,3.75,7.8,3.64
	c3-0.07,3.17-1.81,6.07-1.82c3.54,0,4,2.58,7.8,2.73c2.95,0.13,3.41-1.41,6.07-0.91s2.54,2,5.2,2.74c3.24,1,6.3-0.3,7.81-0.91
	c3.46-1.42,3.2-2.78,6.07-3.65c3.2-1,3.86,0.64,7.8,0c2.87-0.52,5.56-1.78,7.8-3.65c2.53-2,2-2.78,4.34-4.55
	c3.45-2.62,5.1-1.37,7.8-3.65s1.41-3.57,4.33-7.29s4.48-2.87,6.94-6.38c2.63-3.75,1.19-5.2,3.47-7.3c3.11-2.87,7-1.24,8.91-4.47
	c0.55-0.83,0.77-1.84,0.62-2.82c-0.46-2-3.12-2.87-5.2-3.64c-8.17-3-8.29-5.31-11.27-5.47c-6.39-0.34-8.29,10.05-17.34,19.14
	c-11.57,11.63-26.89,13.16-32.08,13.67c-4.8,0.48-16.55,1.65-28.6-4.56C287.42,62.01,281.82,50.31,278.17,52.42z"/>
<path class="st2" d="M266.23,47.18c2.08,1.13,2.61,6.2,0.83,9.1c-1.29,2.09-3,1.8-4.14,4.13c-1.23,2.57,0.41,3.89-0.82,6.62
	c-0.81,1.79-2.22,2.78-4.14,4.14c-3,2.1-3.89,1.53-5.79,3.31c-2.07,1.93-1.3,2.89-3.31,5c-0.34,0.35-3.39,3.4-7.45,3.31
	c-2.88-0.07-3-1.65-5.79-1.66c-3.37,0-3.83,2.34-7.44,2.49c-2.81,0.11-3.25-1.28-5.79-0.83s-2.43,1.76-5,2.48
	c-3.08,0.87-6-0.27-7.44-0.83c-3.31-1.29-3.06-2.52-5.79-3.31c-3.06-0.88-3.69,0.58-7.45,0c-2.72-0.46-5.27-1.6-7.44-3.3
	c-2.42-1.86-1.91-2.53-4.14-4.14c-3.29-2.38-4.87-1.24-7.44-3.31s-1.35-3.24-4.14-6.62s-4.27-2.6-6.62-5.79
	c-2.51-3.4-1.13-4.71-3.31-6.62c-3-2.6-6.66-1.13-8.5-4.06c-0.52-0.74-0.74-1.65-0.6-2.55c0.44-1.85,3-2.61,5-3.31
	c7.79-2.75,7.91-4.82,10.75-5c6.1-0.3,7.91,9.12,16.55,17.38c11,10.55,25.65,11.94,30.6,12.4c4.59,0.44,15.8,1.5,27.3-4.13
	C257.41,55.86,262.74,45.27,266.23,47.18z"/>
<path class="st2" d="M258.82,73.65c3.93,1.47,2.8,13,2.52,18.68c-0.53,10.82,0.1,16.25-0.42,21.52c-2.39,24.16,3,140.26,5.34,212.94
	c4,123.82-0.38,136.55-5,137.32s-14-10-13.24-18.2c0.12-1.27,0.59-6.18,4.14-9.1c2.19-1.81,5.12-2.49,5-3.31
	c-0.1-0.54-1.45-0.59-2.48-0.83c-4-0.91-7.31-5.58-8.27-9.92c-1.11-5.26,0.82-10.69,5-14.07c2.76-2.07,5.82-2.19,5.79-3.31
	s-3.38-1.07-6.62-3.31c-0.44-0.3-6-4.28-5.79-10.75c0.17-4.91,3.61-9.52,7.45-10.75c1.4-0.45,2.17-0.23,2.48-0.83
	c1.16-2.22-8.86-6.28-9.93-14.06c-0.39-3.89,0.8-7.77,3.31-10.76c2.36-2.7,5-3.21,5-5s-2.84-2-5.8-5c-0.6-0.62-4.8-5-4.13-10.76
	c0.21-2.14,1.07-4.16,2.48-5.79c3-3.35,6.79-2.28,7.45-4.14c1-2.89-8-5.6-9.93-13.23c-1.09-4.26,0.11-9.66,3.31-12.41
	s7.48-2.41,7.44-3.31c0-0.68-2.54-0.46-5-1.65c-6-2.95-8.77-13.16-5.79-19c0.46-0.88,1.01-1.72,1.65-2.48c3-3.44,6.7-3.81,6.62-5
	c0-0.78-1.79-0.95-3.31-1.65c-4.16-1.91-7.29-8-6.62-14.06c0.65-5.7,4.51-10.52,9.93-12.41c-0.52-0.29-11-6.31-10.75-15.72
	c-0.07-2.69,0.81-5.33,2.48-7.44c3.62-4.15,9.33-2.76,9.93-5c0.72-2.7-7.24-4.61-10.76-12.41c-0.51-1.13-3-6.67-0.83-11.58
	s7.26-5,7.45-8.27c0.21-3.54-5.75-4.12-8.27-9.93c-2.12-4.87-0.77-11,1.65-14.89c3.4-5.52,8.45-6,8.27-9.1
	c-0.14-2.59-3.66-2.67-7.44-7.44c-1.47-1.85-4.53-5.72-4.14-10.76c0.43-4.64,3.26-8.71,7.45-10.75c3.09-1.37,5.08-0.36,5.79-1.66
	c1.29-2.34-5.13-5.81-7.45-13.23c-2-6.44,0.17-12.29,0.83-14.06C248.27,79.57,255.2,72.3,258.82,73.65z"/>
<path class="st2" d="M281.94,72.48c-3.9,1.58-2.48,13.05-2.05,18.74c2,27.07,0.44,54.3,2.12,81.39c2.38,38.38,2.11,44.54,3.11,89.29
	c0.4,18.06,0.11,49-0.5,110.07c-0.69,69.42-1.14,89.53,4.8,90.91c4.91,1.13,13.78-10.19,12.77-18.53c-0.15-1.27-0.74-6.16-4.37-9
	c-2.23-1.74-5.18-2.36-5-3.18c0.09-0.54,1.43-0.63,2.46-0.89c4-1,7.17-5.76,8-10.13c0.98-5.27-1.07-10.65-5.32-13.93
	c-2.81-2-5.87-2.05-5.87-3.16s3.35-1.16,6.53-3.48c0.43-0.32,5.9-4.44,5.51-10.9c-0.29-4.91-3.84-9.42-7.71-10.56
	c-1.42-0.42-2.18-0.17-2.5-0.76c-1.22-2.19,8.7-6.51,9.56-14.32c0.3-3.89-0.99-7.74-3.58-10.66c-2.43-2.64-5.09-3.08-5.09-4.84
	s2.78-2,5.66-5.11c0.59-0.63,4.67-5.15,3.86-10.85c-0.26-2.14-1.18-4.14-2.63-5.73c-3.13-3.27-6.84-2.1-7.55-3.94
	c-1.09-2.87,7.83-5.81,9.59-13.49c1-4.28-0.36-9.65-3.62-12.32s-7.55-2.22-7.53-3.12c0-0.67,2.53-0.52,4.92-1.78
	c5.9-3.09,8.43-13.38,5.3-19.17c-0.48-0.87-1.06-1.68-1.72-2.43c-3.05-3.37-6.79-3.64-6.74-4.8c0-0.78,1.76-1,3.27-1.74
	c4.11-2,7.08-8.19,6.25-14.22c-0.79-5.68-4.77-10.41-10.24-12.15c0.51-0.31,10.82-6.59,10.35-16c0-2.7-0.94-5.31-2.67-7.38
	c-3.73-4.05-9.4-2.52-10-4.71c-0.8-2.68,7.12-4.79,10.43-12.68c0.48-1.14,2.84-6.74,0.54-11.6s-7.38-4.83-7.66-8.08
	c-0.3-3.53,5.64-4.26,8-10.13c2-4.92,0.48-11-2-14.84c-3.54-5.44-8.59-5.77-8.5-8.89c0.08-2.6,3.6-2.77,7.25-7.63
	c1.42-1.89,4.39-5.84,3.86-10.86c-0.55-4.63-3.47-8.63-7.71-10.56c-3.13-1.29-5.09-0.23-5.83-1.51c-1.35-2.31,5-5.94,7.1-13.42
	c1.85-6.48-0.48-12.28-1.19-14C292.6,78.14,285.49,71.01,281.94,72.48z"/>
<path class="st2" d="M272.63,46.78c-2.08,1.14-2.61,6.21-0.83,9.1c1.29,2.09,3,1.81,4.14,4.14c1.22,2.56-0.41,3.88,0.82,6.62
	c0.81,1.78,2.22,2.77,4.14,4.13c3,2.11,3.89,1.54,5.79,3.31c2.07,1.93,1.3,2.89,3.31,5c0.34,0.35,3.39,3.41,7.44,3.31
	c2.89-0.06,3-1.65,5.8-1.65c3.37,0,3.83,2.34,7.44,2.48c2.81,0.11,3.25-1.28,5.79-0.83s2.43,1.77,5,2.48c3.09,0.88,6-0.26,7.45-0.82
	c3.31-1.29,3.06-2.53,5.79-3.31c3.06-0.88,3.69,0.58,7.45,0c2.72-0.46,5.28-1.6,7.44-3.31c2.42-1.86,1.91-2.53,4.14-4.14
	c3.29-2.38,4.87-1.24,7.44-3.31s1.35-3.24,4.14-6.61s4.27-2.61,6.62-5.79c2.51-3.41,1.13-4.72,3.31-6.62c3-2.61,6.66-1.14,8.5-4.07
	c0.52-0.74,0.73-1.65,0.6-2.55c-0.44-1.85-3-2.61-5-3.31c-7.79-2.75-7.91-4.82-10.75-5c-6.1-0.31-7.92,9.12-16.55,17.37
	c-11,10.56-25.66,11.94-30.61,12.41c-4.58,0.43-15.8,1.49-27.29-4.14C281.45,55.46,276.12,44.87,272.63,46.78z"/>
<path class="st2" d="M278.05,472.38c2.89,7.11-5.38,19.76-13,25.65c-1.45,1.11-0.77,0.36-12.23,7.44c-8.9,5.5-9.8,6.26-12.22,6.62
	c-6.95,1-8.21-4-16.3-4.14c-8.64-0.17-11.25,5.43-17.12,3.31c-4.89-1.76-4.24-6.08-9-7.44c-5.92-1.72-8.85,4.49-15.49,3.3
	c-5.85-1-5.59-6.22-11.41-7.44c-7.07-1.48-10,5.62-17.12,4.14c-5.29-1.12-5.13-5.42-11.41-7.45c-7.28-2.36-12,2-13.85,0
	c-3.46-3.61,4.85-25.56,22-34.74c14.42-7.72,24-0.62,57.06,3.31C251.71,470.13,273.95,462.3,278.05,472.38z"/>
<path class="st1" d="M71,318.51c-2.36-0.31-2.55,18-15.72,58.74c-6,18.46-11.56,32.13-7.44,49.63c1.48,6.31,5.67,19.26,9.93,19
	C70.89,445.19,77.21,319.35,71,318.51z"/>
<path class="st1" d="M112.36,321.01c-2.29,0.26-2.38,114,24,119.12c7.55,1.46,17.34-5.93,19.86-14.06c4.79-15.5-19-26.6-33.92-61.22
	C111.55,339.87,113.3,320.89,112.36,321.01z"/>
<path class="st1" d="M52.82,311.9c-14.25,35.12-22.3,47.37-26.47,46.32c-4.56-1.15-7.15-18.89-2.48-21.51
	c1.19-0.66,2.52-0.17,3.31,0C31.53,337.7,39.04,333.52,52.82,311.9z"/>
<path class="st1" d="M66.87,455.84c-1,0.09,0.14,6.68-1.66,15.71c-2.85,14.29-9.78,18.68-7.44,23.17c3.41,6.54,22.62,5.75,24.81,0
	c1.11-2.91-2.88-5.06-7.44-13.24C67.7,468.15,68.17,455.71,66.87,455.84z"/>
<path class="st1" d="M104.09,456.66c-1.39,0.39,0.26,5.11-2.48,13.24c-2.85,8.46-6.86,10-6.62,14.06c0.51,8.54,18.79,17.68,24,13.24
	C126.45,490.82,107.98,455.59,104.09,456.66z"/>
<path class="st1" d="M35.43,440.12c5.16,0.85,6.22,50.47-4.14,52.94c-4.34,1-11.12-6.11-12.4-13.23c-0.78-4.33,0.7-7.38,5.79-18.2
	C34.3,441.12,34.63,440.01,35.43,440.12z"/>
<path class="st1" d="M416.82,330.92c-2.58,0,1,21.48-11.58,52.95c-8.45,21.1-18.31,32-13.24,41.36c3.47,6.38,13.21,10.8,19.86,8.27
	C434.96,424.7,422.18,331.01,416.82,330.92z"/>
<path class="st1" d="M463.94,323.48c-1.79-3.32-2.57-5.12-3.31-5c-3.34,0.68,2.79,40.44,5,54.6c6.52,42.35,10.06,46.51,14.06,48
	c10.09,3.7,27.95-8,30.61-21.51c1.63-8.33-3.29-13.24-30.61-52.94C469.73,332.21,464.76,325.01,463.94,323.48z"/>
<path class="st1" d="M484.62,319.34c-2.56,2,24.25,48.2,33.92,44.67c3.06-1.12,4.36-7.2,3.31-11.58
	c-1.47-6.16-7.46-8.45-15.72-14.06C490.82,328.01,485.82,318.45,484.62,319.34z"/>
<path class="st1" d="M415.14,452.53c-5.43,0.3-13,50.49,0,56.25c4.7,2.09,12.44-1.51,14.89-6.62c2.23-4.68-0.52-9.5-4.14-18.2
	C416.82,462.1,417.53,452.39,415.14,452.53z"/>
<path class="st1" d="M463.12,448.39c-2,0.8,1.32,8.59,1.65,24c0.33,15.19-2.64,19.8,0.83,23.16c5.93,5.76,23.68,1,25.64-6.61
	c0.93-3.63-2.19-5.94-10.75-17.38C468.67,455.77,465.17,447.57,463.12,448.39z"/>
<path class="st1" d="M514.4,428.54c-1.91,0.34-2.09,13.65,1.66,26.47c2.43,8.32,4.58,15.67,11.58,20.68
	c9.61,6.87,23.62,6,24.82,2.48c1.38-4-15.45-7.84-27.3-25.64C516.73,439.86,516.2,428.21,514.4,428.54z"/>
<path class="st2" d="M525.99,381.38c-8.59-2.09-14.39,8.45-29.78,19c-6.94,4.77-20,13.72-37.23,15.72c-12.64,1.14-25.36,1.14-38,0
	c-2.47-0.21-6.61,0.64-14.89,1.65c-6.93,0.85-10.47,4.79-15.39,3.23c-3.74-1.18-4.55-3.77-6.12-3.23c-3.41,1.18-4.29,14.93,1.65,19
	c3.07,2.12,5.15-0.15,9.93,1.65c7,2.66,6.53,9.69,11.58,10.76c5.5,1.16,7.38-6.89,16.54-8.27c2.74-0.42,7.07,0.55,15.72,2.48
	c7.23,1.61,9.13,2.59,12.41,1.65c4.91-1.4,4.64-4.61,9.1-5.79c6.23-1.65,9,4,14.89,2.48c5.41-1.41,5-6.69,10.76-8.27
	s8.4,2.84,12.4,0.83c4.49-2.27,2.49-8.53,7.45-11.58c4.15-2.56,7.3,0.76,10.75-1.66c4.27-3,1.12-8.58,5-16.54
	c4.24-8.79,11.91-9.67,11.58-14.89C534.03,386.01,530.06,382.38,525.99,381.38z"/>
<path class="st2" d="M275.33,471.55c5.14-9.35,17.56-7.55,57.08-10.75c40.62-3.29,49.25-6.94,59.56,0.83
	c11.73,8.83,19.24,27.62,14.07,34.74c-0.75,1-1.88,1.79-4.14,3.31c-3.4,2.29-9.57,6.54-16.55,5.79c-4.4-0.47-4.11-2.39-8.27-2.48
	c-5.11-0.12-5.85,2.78-11.58,3.31c-5.38,0.5-6.24-1.92-10.75-0.83s-4.61,3.84-8.28,4.14c-5,0.41-7.26-4.5-10.75-3.31
	c-2.89,1-2.15,4.62-5,5.79c-4.12,1.71-7.54-5.32-14.07-5c-5.61,0.31-6.94,5.72-11.58,5s-6.18-6.47-9.1-5.79
	c-2.29,0.53-2,4.22-4.13,5c-3.42,1.18-9.77-6.28-13.24-13.23C277.22,495.18,270.1,481.08,275.33,471.55z"/>
<path class="st2" d="M18.06,362.36c9.55,1.13,7.92,19.8,25.64,41.36c6.49,7.89,12.25,14.9,22.34,19c15.48,6.32,20.8-2.45,50.46,0.82
	c10.65,1.18,15.78,3,23.16,0c11.66-4.62,14.16-15.16,18.16-14.03c6.39,1.8,8.17,30.81-2.48,36.4c-6.36,3.33-13.75-3.47-21.51,1.65
	c-4.5,3-5.5,7.58-9.1,7.45c-3.6-0.13-3.88-4.69-8.27-5.79c-5.15-1.29-7.64,4.23-13.24,3.31c-5.19-0.86-5.13-6-9.92-6.62
	c-6-0.81-8.64,6.7-14.89,5.79c-3.91-0.57-4.06-3.67-8.28-4.14c-4.95-0.54-6.45,3.57-10.75,3.31s-5.56-4.86-12.37-11.58
	c-7.72-7.7-9.52-5.11-14.06-10.75c-7-8.68-2.86-15-9.93-21.51c-5.16-4.77-8.75-2.7-11.58-7.45c-3-5.06,0.19-8.87-3.31-15.71
	c-2.33-4.56-4.63-4.59-5-7.45C2.48,370.54,11.09,361.53,18.06,362.36z"/>
<path class="st2" d="M536.74,459.14c-5.58,1.39-11.71,12-15.72,19c-1.33,2.33-1.84,3.49-3.31,4.14c-6.48,2.84-14-12.13-23.16-10.76
	c-8,1.21-8,13.49-16.54,14.89c-7.74,1.27-12.17-8-19-5.79c-5.38,1.76-4,7.91-9.93,9.93s-9.42-3.71-18.2-1.65
	c-2.64,0.61-4.27,1.59-6.62,0.82c-3.42-1.12-3.84-4-6.61-5c-4.62-1.53-10.39,4.57-10.76,5c-6.13,6.63-8,19.25-1.65,25.65
	c2.68,2.57,6.22,4.04,9.93,4.13c6.36-0.09,8.81-5.28,14.06-4.13c2.71,0.59,2.41,1.81,6.62,4.13c3.55,1.87,7.54,2.74,11.55,2.51
	c3.13-0.12,6.26-1.47,12.41-4.14c8.85-3.85,9.85-5.19,14.06-5.79c5.42-0.77,5.32,1.24,10.75,0.83c9.35-0.72,11-6.76,20.68-7.45
	c4.59-0.32,5,1,8.28,0c6.07-1.78,5.77-6.42,11.58-9.1c6.15-2.84,8.51,1.43,15.72-1.65c4.51-1.93,4.79-4.11,9.92-5.79
	c5.51-1.81,7.88-0.18,9.1-1.66C563.82,482.52,546.89,456.62,536.74,459.14z"/>
<path class="st2" d="M10.61,463.28c7.8-1.3,11.16,13,21.51,13.24c9.27,0.21,12.31-10.25,20.68-9.1c8,1.1,8.25,11,16.55,12.41
	c7.75,1.27,9.94-7,21.51-8.28c8.73-0.94,10.12,3.5,19,2.49c11.24-1.29,14-9.08,19-7.45c9.35,3,9.94,33.45,2.48,36.4
	c-3,1.19-6.23-2.58-12.41-0.83c-3.2,0.91-3.66,2.29-6.62,2.48c-4.17,0.27-5.17-2.36-9.1-2.48c-4.81-0.14-5.23,3.76-9.92,4.14
	c-6.48,0.51-9.64-6.6-14.07-5c-2,0.75-1.58,2.33-5.79,5.79c-2.74,2.27-4.11,3.4-5.79,3.31c-3.67-0.18-4-5.58-8.27-6.61
	c-3.76-0.91-5.52,2.73-9.1,1.65s-3.05-5.14-6.62-6.62c-4.14-1.71-6.67,3-12.41,2.48s-5.74-5.51-12.4-7.44
	c-7.2-2.08-10.75,2.67-14.89,0c-4.77-3.06-4.29-12-3.31-16.55C0.82,476.69,3.61,464.44,10.61,463.28z"/>
<path class="st1" d="M195.06,329.27c-3.24-57.4-16.48-93.14-13.24-94.26c3.41-1.24,23.92,37,28.75,85.21
	c6.44,64.17-17.57,119.25-21.38,118.29C185.91,437.64,198.82,396.01,195.06,329.27z"/>
<path class="st1" d="M363.02,230.83c-4.31-0.79-24.23,47.47-21.51,101.75c1.25,24.95,7.26,50.73,12.41,72.79
	c3.15,13.53,7.79,33.41,9.93,33.09c3.29-0.49-5.25-48.09-5-115C359.14,262.92,366.44,231.45,363.02,230.83z"/>
</svg>
