<?xml version="1.0" encoding="utf-8"?>
<!-- Generator: Adobe Illustrator 25.0.0, SVG Export Plug-In . SVG Version: 6.00 Build 0)  -->
<svg version="1.1" id="Calque_1" xmlns="http://www.w3.org/2000/svg" xmlns:xlink="http://www.w3.org/1999/xlink" x="0px" y="0px"
	 viewBox="0 0 432.87 512.73" style="enable-background:new 0 0 432.87 512.73;" xml:space="preserve">
<style type="text/css">
	.st0{fill:#A0A0A0;}
	.st1{fill:#D8D8D8;}
	.st2{fill:#707070;}
</style>
<path class="st0" d="M148.43,27.05c-1.94-0.16-3.88-0.08-5.8,0.24c-8.27,1-13.83,4.78-17.2,6.76c-2.63,1.54-9.42,3.7-23,8
	c-11.9,3.77-29,6.9-36,9c-7.8,2.34-35.09,10.5-52,35c-3.09,4.48-13.28,19.24-14,39c-0.63,17.32,6.5,25.33,2,44
	c-1.39,5.77-3.21,9.7-1,13c4.16,6.23,15.78-1.06,29,3c20.89,6.42,32.26,36.82,32,37c-0.06,0-1.26-1.12-1-2c0.65-2.17,9.49-0.16,16-1
	c15.28-2,20.69-20.17,25-19c8.55,2.32,8.23,52.54-8,120c-25.81,107.26-61.44,131.69-46,161c14.61,27.72,66.27,29.19,169,31
	c100.25,1.76,154,2.13,167-26c11-23.71-20.42-38.45-42-125c-2.94-11.8-5-22-6.61-32c-1.07-6.81-4-25.6-5.39-68
	c-0.8-24.86-1-57.31,4-58c2.91-0.4,4.73,10.17,15,14c1.56,0.58,5.75,2.14,10,1c11.15-3,7-20.89,19-29c14.27-9.68,33.51,2,40-8
	c2.26-3.49,0.2-5.25,3-14s7.07-12.48,9-17c5.49-12.81,0.51-26.4-3-36c-11.12-30.39-38-45.39-45-49c-10.33-5.35-14.06-4.94-23.6-7.47
	c-6.55-1.73-7.4-2.53-16.4-5.53c-14.47-4.82-13.48-2.62-22-6c-11.49-4.56-13.81-8.77-25-11c-4.34-0.86-6.5-1.3-9-1
	c-16,1.9-16.57,25.06-36,33c-4.92,2-9.31,3-18,3c-8.01,0.52-16.06,0.18-24-1C179.78,64.14,173.64,29.68,148.43,27.05z"/>
<path class="st1" d="M76.43,48.05c-8.33,14.07,17.7,59.11,55,68c32.88,7.84,41.35-20.1,85-20c45.25,0.11,58.81,30.79,99,21
	c6.45-1.57,25.85-6.6,37-24c1.28-2,13.11-20.46,6-33c-5.39-9.51-16.66-6.77-45-18c-20.55-8.15-18-10.94-26-12
	c-30.67-4.07-42.69,40.49-72,40c-29.59-0.5-38.88-46.37-71-44c-8.13,0.6-7,3.5-33,11C85.18,44.64,79.43,43.05,76.43,48.05z"/>
<path class="st1" d="M258.43,8.05c-1.41-0.15-2.82,0.21-4,1c0,0.11,0.89-0.17,1,0c0.92,1.49-52.71,40.8-71,43
	c-1.22,0.15-6.34,0.62-7,3c-0.57,2,2.42,4.48,3,5c11.9,10.82,87.73-35,83-47C263.19,12.43,261.43,8.47,258.43,8.05z"/>
<path class="st1" d="M177.99,0.05c0.48-0.07,0.96-0.07,1.44,0c4.7,0.72,23.3,22.55,38,32c8.4,5.4,30.09,16.1,38,17
	c0.64,0.07,3.3,0.32,3.88,1.82c0.78,2-2.56,5-3,5.41c-12,11.69-88.08-37.84-83.33-50.81C174.75,0.61,177.99,0.05,177.99,0.05z"/>
<path class="st2" d="M243.43,79.05c4.26,5.71,2.06,15.55-3,21c-8.08,8.71-24.38,7.25-33-1c-5.61-5.36-9.74-15.29-6-21
	c3.25-5,11-4.59,23-4C234.87,74.56,240.28,74.83,243.43,79.05z"/>
<path class="st2" d="M220.63,83.63c0-10,14-16.08,35.8-29.58c28.33-17.56,29.76-22.93,36.67-21.36c18.4,4.16,30.69,47.3,16.52,62.48
	c-4.88,5.22-8.33,2.21-34.32,7.46c-25.73,5.19-39.09,11.53-45.8,4.71c-2.46-2.49-4.17-6.9-5.64-10.68
	C223.56,95.88,220.62,88.23,220.63,83.63z"/>
<path class="st2" d="M129.43,59.05c-3,19.75-4.31,29.74,1,35c4,4,8.13,2.26,23,3c29,1.44,45.67,9.72,52,2c2.29-3.15,4.3-6.5,6-10
	c1.93-3.89,2.89-5.83,3-7c0.46-5.09-5-10.08-35-29c-4.18-2.63-2.62-1.62-8-5c-26.52-16.65-29.39-19.28-33-18
	C133.59,31.77,132.14,40.89,129.43,59.05z"/>
<path class="st2" d="M222.43,112.05c-1.18,9.19,2.58,16.61,12,31c25.75,39.36,34.41,40.1,44,62c7.94,18.12,7.43,30,14,31
	s13.51-10.27,23-26c12.93-21.44,19.39-32.17,18-45c-1.1-10.11-5.72-11.61-24-36c-24.68-32.92-26.15-43.38-40-47
	c-15.74-4.11-29.85,5.22-31,6C236.1,89.64,224.21,98.13,222.43,112.05z"/>
<path class="st2" d="M220.43,110.05c3.43,11.47-4.54,20.23-17,41c-29.81,49.71-31.55,78.56-44,78c-7.18-0.32-6.4-9.91-25-31
	c-16.59-18.81-26.16-21.33-27-32c-0.62-7.84,4.26-10.05,17-29c19.33-28.75,18-38.38,32-46c11.76-6.39,23.3-5.38,27-5
	C197.79,87.51,216.23,96.05,220.43,110.05z"/>
<path class="st1" d="M1.43,171.05c3.64-6.26,26.61-4.21,45,7c22,13.39,33.08,37.2,29,42c-0.79,0.93-1.92,0.87-7,4
	c-4.9,3-4.89,3.72-6,4c-7.33,1.85-12.63-27.7-31-35c-13.22-5.25-27.87,3.15-31-3c-0.68-1.34-0.45-4.56,0-11
	C0.76,174.29,0.93,171.91,1.43,171.05z"/>
<path class="st1" d="M422.48,167.15c-2.41-5.53-26.56-6.1-47,6c-22.1,13.09-33.14,37-29,42c0.43,0.51,0.7,0.45,8,4.9
	c4.92,3,4.76,3,5,3.1c7.54,1.83,12.46-27,31-35c13.35-5.79,29.77,0.89,32-5.1c0.3-0.82,0-1,0-7
	C422.43,168.54,422.88,168.05,422.48,167.15z"/>
</svg>
