<?xml version="1.0" encoding="utf-8"?>
<!-- Generator: Adobe Illustrator 25.0.0, SVG Export Plug-In . SVG Version: 6.00 Build 0)  -->
<svg version="1.1" id="Calque_1" xmlns="http://www.w3.org/2000/svg" xmlns:xlink="http://www.w3.org/1999/xlink" x="0px" y="0px"
	 viewBox="0 0 332.07 415.81" style="enable-background:new 0 0 332.07 415.81;" xml:space="preserve">
<style type="text/css">
	.st0{fill:#A0A0A0;}
	.st1{fill:#D8D8D8;}
	.st2{fill:#707070;}
</style>
<path class="st0" d="M34.81,69.25c9.28-22.41,20.9-49.57,40-52c5.54-0.7,6.79,1.3,23,3c10.3,1.04,20.66,1.37,31,1
	c56.32-1.24,108.64-20,141,2c10.94,7.45,17.3,24,30,57c12.86,34.26,19.96,70.42,21,107c0.35,13.68,0.88,33.8-4,58
	c-1.25,6.19-2.11,9-5,23c-2.23,10.84-4.4,22.18-8,38c-2.09,9.19-3.15,13.81-4,15c-7.41,10.38-23,7-59,7c-39.61-0.06-47.48,3.92-57-4
	c-14.53-12.1-12.81-35.23-17-35c-4.72,0.26,1,29.17-14,42c-10.55,9-23.6,3.47-69-1c-43.74-4.3-41.88-0.17-49-4
	c-40.09-21.58-28.43-114.7-19-190C15.98,134.89,19.91,105.25,34.81,69.25z"/>
<path class="st0" d="M23.81,306.25c-25.56,17.4-23.88,65.35-17,68c1.9,0.73,4.92-1.7,7,0c2.55,2.09-0.24,7.17,2,9
	c2.94,2.4,9.92-4.56,14-2c3,1.92,1.83,7.5,4,8c2.4,0.55,4.45-6.15,8-6c2.5,0.11,2.51,3.48,6,6c4.53,3.28,8.16,0.25,18,2
	c7.29,1.3,6.67,3.21,11,3c7.47-0.36,9-6,16-6c5.76,0,6.63,3.83,11,3c6.93-1.31,8.82-11.64,13-11c2.11,0.32,1.71,3,5,5
	c4,2.49,10.36,2.13,14-1c2.54-2.19,1.9-4.13,4-5c3.48-1.44,6.55,3.38,12,4c0,0,5.89,0.67,12-5c11-10.2,4.84-51.51-20-68
	c-8.68-5.76-13.47-4.4-57-6C37.81,302.45,32.55,300.3,23.81,306.25z"/>
<path class="st0" d="M183.81,313.25c-3.81,3.34-6.54,11.89-12,29c-4.57,14.33-9.2,29.23-4,33c4.55,3.3,13.44-4.21,18,0
	c3.19,2.94,1,8.61,4,10c2.69,1.24,4.91-3.09,10-3s5.88,4.67,11,5c5.61,0.36,6.71-5,13-5c4.87,0,5.67,3.22,11,3
	c4.52-0.18,4.55-2.52,9-3c7.15-0.76,10.33,4.94,15,3c3.15-1.31,2.92-4.4,6-5c3.28-0.63,4.39,2.7,8,3c6.08,0.5,8-8.56,15-9
	c4.91-0.31,6.44,4,11,3c3.73-0.84,4.07-4,8-7c7-5.23,13.63-1,17-4c6.92-6.16-1.94-41.1-26-53c-13.23-6.54-18.22,0.22-50,0
	C209.3,312.98,195.61,302.9,183.81,313.25z"/>
<path class="st0" d="M24.81,381.25c-0.66,1-1.38,2.14-1.38,2.14c-1.58,2.6-8.14,13.38-5.62,16.86c3.34,4.62,19.87-7.52,28-1
	c4.62,3.7,2.09,9.87,8,14c3.86,2.46,8.58,3.19,13,2c7.51-2,8.94-8.61,14-8c2.48,0.3,2.3,1.92,8,5c4.47,2.42,6.7,3.62,9,3
	c4.56-1.24,4.1-8.18,8-9c3.26-0.69,4.56,4,11,6c0.83,0.26,8,2.44,12-1s1.16-9.22,4-11c4.77-3,15.63,11.5,21,9
	c4.18-1.94,5-14.17,1-23C137.81,348.67,32.53,370.14,24.81,381.25z"/>
<path class="st0" d="M176.81,372.25c-7.9,8.19-7.46,24.51-2,28s14.59-6.19,21-2c5.23,3.42,2.42,12,7,14c5.52,2.42,12-9,20-7
	c5.75,1.42,6.53,8.25,11,8c5.11-0.29,6.88-9.36,11-9c3.24,0.28,2.77,6,7,8c7.31,3.54,20.76-7.52,25-11c5.07-4.17,5.35-5.56,8-6
	c7.79-1.29,11.37,9.74,20,10c7.36,0.22,15.58-7.48,17-16c1.94-11.65-9.52-20.64-10-21c-15.52-11.8-32.08,4.92-70,6
	C205.4,375.25,187.81,360.81,176.81,372.25z"/>
<path class="st1" d="M32.81,70.25c-3.85,8.38-7,15.14-4,20c2.21,3.64,7.51,5.72,12,5c8.36-1.34,10.58-11.81,15-11
	c4.25,0.78,2.94,10.61,11,17c2.63,2.05,5.72,3.42,9,4c13.1,2.1,20.77-12.18,29-9c5.25,2,3.77,8.45,11,12c5.66,2.78,11.62,1.33,13,1
	c11.9-2.88,13.23-14.31,20-14c7.56,0.34,8.2,14.69,20,18c5.77,1.61,11-0.29,13-1c12.87-4.65,15.18-17.92,21-17
	c4,0.64,3.49,7.21,12,13c2.33,1.73,5.1,2.77,8,3c2.05,0.06,4.08-0.28,6-1c9.41-3.72,10.19-18.81,15-19c3.89-0.15,4.16,9.66,12,13
	c5.01,1.94,10.67,1.19,15-2c5.91-4.62,4.47-12.32,8-13s5.43,7.58,13,10c4.83,1.54,11.52,0.54,14-3c4.63-6.6-4.28-23.6-16-32
	c-15.19-10.88-33.87-6.32-55-3c-54.79,8.6-92.31,14.49-131,6c-24.15-5.3-55-17.56-66-6C36.46,62.66,34.45,66.68,32.81,70.25z"/>
<path class="st1" d="M14.81,147.1c2.77-0.51,5.29,1.66,5.93,2.2c19.36,16.09,112.24,17.18,131.49,17.41
	c56.73,0.67,128.08,1.54,149.58-9.46c1.66-0.85,8.16-4.39,14-2s8,9.69,11,20c3.37,11.7,5.59,19.39,1.34,25.38
	c-3.28,4.62-9.97,7.62-13.34,5.62c-3.69-2.15-1.66-9.18-4.51-10.23c-3.19-1.16-6.15,7.47-15.49,11.23c-1.5,0.6-9.9,3.8-16,0
	c-4.91-3.06-4.85-8.47-7.62-8.53c-3.52-0.08-3.59,8.61-10.38,12.53c-4.94,2.85-11.57,2.11-16,0c-7.17-3.4-9.09-10.6-11.74-9.81
	c-2.37,0.71-0.59,6.44-4.26,9.81s-11,2.8-16,0c-7.68-4.31-7.29-12.58-11.65-12.88c-4.59-0.31-5.36,8.79-14.35,12.88
	c-4,1.83-10.69,3.1-15,0c-5.51-4-3.9-12.67-6.66-13.09c-3.19-0.47-4.34,11.23-12.34,14.09c-4.7,1.69-10.48-0.16-14-3
	c-5.54-4.48-4.5-10.65-7.68-11.23c-4.38-0.77-6.46,10.91-15.32,13.23c-7.09,1.85-14.25-3.43-15-4c-6.5-4.93-5.59-10.78-9.62-11.57
	c-5.42-1.05-8,9.32-17.38,10.57c-5.55,0.74-10.5-2.13-12-3c-7.14-4.14-8.72-10.58-11.57-9.94s-1.57,7-6.43,9.94
	c-3.25,2-7.22,1.16-8,1c-2.2-0.53-4.25-1.56-6-3c-6.11-4.52-6-8.11-9-9c-5.23-1.53-9.57,8-13,7C0.54,197.12,3.02,149.25,14.81,147.1
	z"/>
<path class="st1" d="M8.81,242.25c5.59-5.25,17.23-1.25,21,0c57.61,19.06,127.83,6.28,137,34c0.29,0.89,4,12.54-2,20
	c-2.76,3.34-6.7,5.49-11,6c-7,0.75-8.85-3.95-16-3c-5.51,0.73-6.74,3.87-11,3c-4.08-0.83-4-3.91-8-5c-5.9-1.61-8.83,4.36-14,3
	c-5.88-1.55-5.63-10.21-11-11c-4.26-0.63-6,4.65-11,4c-4.45-0.58-5-4.87-9-5c-4.62-0.16-6.17,5.46-10,5c-4.36-0.52-4.44-8.05-9-9
	c-5-1-8.67,7.25-13,6c-4.13-1.2-3.79-9.62-7-10s-5,8-9,8c-4.22,0-5.14-9-11-10c-4.54-0.77-7.94,3.53-10,2c-1.76-1.31-0.6-5.52,0-8
	C9.15,254.31,3.72,247.03,8.81,242.25z"/>
<path class="st1" d="M314.47,253.75c-6-6-17.66-1.16-23.06,0.89c-58.24,22.16-113.28-2.36-123.19,22.8
	c-0.34,0.86-4.63,12.16-0.08,20.07c1.97,3.43,5.25,5.92,9.09,6.87c6.08,1.31,8.12-3.22,14.3-1.7c4.76,1.17,5.55,4.4,9.36,3.88
	c3.65-0.5,3.88-3.57,7.47-4.34c5.32-1.13,7.34,5.06,12,4.12c5.3-1.07,5.87-9.71,10.65-10.06c3.79-0.28,4.84,5.11,9.27,4.87
	c3.95-0.22,4.82-4.45,8.35-4.26c4.07,0.22,4.91,5.94,8.31,5.79c3.87-0.17,4.63-7.66,8.71-8.24c4.48-0.63,6.94,7.93,10.84,7
	c3.73-0.86,4.21-9.28,7.05-9.39s3.62,8.33,7.16,8.69c3.69,0.38,5.33-8.56,10.56-9.07c3.72-0.37,5.53,3.91,8.58,2.8
	c2.33-0.85,3.44-4.14,4.15-6.65C316.41,279.25,321.58,260.9,314.47,253.75z"/>
<path class="st2" d="M74.81,4.25c-6.06,3.34-9.31,13.76-6,21c0.51,1.13,1.19,2.17,2,3.11c8.06,9.29,27.76,8.89,28,8.89
	c49.71-1,99.28-6.32,149-7c5.87-0.08,18.58-0.08,22-7c2.64-5.34-0.9-13.5-6-18c-7-6.17-16.88-5.38-21-5c-41.52,3.87-58.19,8.25-78,9
	c-18.86,0.71-57.08,2.15-78-5C85.18,3.69,79.5,1.66,74.81,4.25z"/>
<path class="st1" d="M168.18,27.15c5.6-0.21,6.45-6.86,14.45-9c0.42-0.11,7.09-1.77,12.1,1.22c11.43,6.83,8.23,34.37,0.4,37
	c-3,1-6.7-1.54-13.42-6.14c-8.38-5.74-10.09-9.73-13.62-9.14s-3.56,5.13-9.33,10.63c-1.55,1.47-8.15,7.77-13.59,6.9
	c-10.3-1.65-19.51-29.52-9.51-38.47c4.36-3.9,12.28-4.11,17.9-2.16C161.63,20.88,162.63,27.35,168.18,27.15z"/>
<path class="st0" d="M32.81,67.25c-5.26,8.77-9.65,10.46-9,14c0.88,4.78,10.24,9.1,17.72,7.15c8.6-2.24,10.62-11.81,15-11
	s2.95,10.62,11,17c2.63,2.05,5.72,3.42,9,4c13.11,2.1,20.77-12.18,29-9c5.25,2,3.77,8.45,11,12c5.66,2.78,11.63,1.33,13,1
	c11.9-2.88,13.24-14.31,20-14c7.56,0.35,8.2,14.7,20,18c5.77,1.62,11-0.29,13-1c12.88-4.65,15.18-17.92,21-17
	c4,0.64,3.49,7.21,12,13c2.33,1.73,5.1,2.77,8,3c2.05,0.06,4.08-0.28,6-1c9.41-3.72,10.2-18.81,15-19c3.89-0.15,4.17,9.67,12,13
	c5.01,1.94,10.67,1.19,15-2c5.91-4.62,4.47-12.32,8-13s5.43,7.08,13,10c6.7,2.58,16.09,0.6,18.28-4.15s-3.2-11.5-10-20
	c-3.09-3.92-6.53-7.56-10.28-10.85c-15.43-12.58-49-3.94-55-3c-54.79,8.6-92.31,14.49-131,6c-23.46-5.15-59.1-17-66-6
	C37,56.85,36.9,60.42,32.81,67.25z"/>
<path class="st0" d="M18.81,142.25l0.29-0.13l0,0c17.25-7.05,100,17.05,131.49,17.42c56.77,0.67,128.12,1.51,149.62-9.46
	c1.78-0.91,8.36-4.49,14-2c4.64,2,5,6.57,11.59,22.17c5.28,12.42,7,14.17,6,18c-2.24,8.18-14,13.73-18.59,10.83
	c-3.67-2.32-1.6-9.16-4.51-10.23c-3.19-1.17-6.15,7.46-15.49,11.23c-1.5,0.6-9.9,3.79-16,0c-4.91-3.06-4.85-8.48-7.62-8.54
	c-3.52-0.08-3.59,8.61-10.38,12.54c-4.94,2.85-11.57,2.1-16,0c-7.17-3.41-9.1-10.61-11.74-9.81c-2.37,0.71-0.59,6.44-4.26,9.81
	s-11,2.8-16,0c-7.68-4.32-7.29-12.59-11.65-12.88c-4.59-0.32-5.37,8.79-14.35,12.88c-4,1.83-10.69,3.09-15,0
	c-5.51-4-3.9-12.68-6.67-13.09c-3.18-0.48-4.36,11.22-12.33,14.09c-4.7,1.68-10.48-0.16-14-3c-5.54-4.48-4.5-10.65-7.68-11.23
	c-4.38-0.8-6.46,10.91-15.32,13.23c-7.09,1.85-14.25-3.44-15-4c-6.5-4.94-5.6-10.79-9.62-11.57c-5.42-1.05-8,9.32-17.38,10.57
	c-5.55,0.74-10.5-2.13-12-3c-7.15-4.15-8.72-10.58-11.57-9.94s-1.57,7-6.43,9.94c-3.26,2-7.22,1.15-8,1c-2.2-0.54-4.25-1.57-6-3
	c-6.28-4.65-6.19-8.82-9-9c-3.27-0.22-4,5.36-10.41,8.17c-1.33,0.58-5.94,2.73-8,1c-2.78-2.33,2.33-9,5-23c1.72-9,1.65-17,5-22
	C13.38,145.44,18.72,142.25,18.81,142.25z"/>
<path class="st0" d="M6.81,233.25c5.41-5.69,19.74-0.27,23,1c46.71,17.73,127.4,5,137,34c0.29,0.89,4,12.53-2,20
	c-2.76,3.34-6.7,5.49-11,6c-7,0.75-8.85-3.95-16-3c-5.51,0.73-6.74,3.87-11,3c-4.08-0.83-4-3.91-8-5c-5.9-1.61-8.83,4.36-14,3
	c-5.89-1.55-5.64-10.21-11-11c-4.26-0.63-6,4.65-11,4c-4.45-0.58-5-4.87-9-5c-4.62-0.16-6.17,5.46-10,5c-4.36-0.52-4.44-8-9-9
	c-5-1-8.67,7.25-13,6c-4.13-1.2-3.79-9.63-7-10s-5,8-9,8c-4.22,0-5.14-9-11-10c-4.27-0.72-6.66,3.48-10,2c-3.13-1.39-3.76-6.31-4-8
	c-0.66-5.17,1.28-7.7,3-14C6.74,239.51,3.94,236.25,6.81,233.25z"/>
<path class="st0" d="M314.81,246.67c-5.17-5.66-19.46-0.49-23.06,0.88c-58.25,22.17-113.28-2.36-123.2,22.8
	c-0.34,0.86-4.63,12.16-0.08,20.08c1.97,3.43,5.25,5.91,9.09,6.86c6.08,1.32,8.12-3.21,14.3-1.69c4.77,1.17,5.55,4.39,9.37,3.87
	c3.65-0.49,3.87-3.57,7.47-4.33c5.31-1.13,7.34,5.05,12,4.12c5.3-1.07,5.88-9.72,10.65-10.07c3.79-0.28,4.84,5.11,9.28,4.87
	c4-0.21,4.81-4.44,8.34-4.25c4.07,0.22,4.91,5.93,8.31,5.79c3.87-0.17,4.63-7.66,8.71-8.24c4.48-0.63,6.94,7.92,10.85,7
	c3.72-0.86,4.2-9.27,7-9.39s3.61,8.33,7.15,8.69c3.69,0.38,5.33-8.55,10.56-9.07c3.54-0.34,4.79,3.25,8.58,2.8
	c4.7-0.55,7.45-6.63,7.68-7.16c2-4.65,0.25-7.36-1-18C315.49,251.02,316.9,249,314.81,246.67z"/>
<path class="st2" d="M23.81,296.25c3-0.32,8.56,16.87,11,34c3.38,23.78-1.51,31.53,5,38c8.48,8.42,20.45-1.07,36,8
	c13.17,7.68,18.57,22.63,17,24c-1.39,1.21-7.77-8.73-17-8c-8.3,0.66-11.18,9.33-17,8c-5.16-1.18-4.43-8.36-11-11
	c-6-2.4-9.29,2.41-14,0c-5.71-2.92-2.39-10.78-9-19c-5.66-7-11.38-5.36-14-11c-2.83-6.1,2-12.1,6-22
	C25.96,314.63,20.74,296.58,23.81,296.25z"/>
<path class="st2" d="M288.81,308.25c-4.33,1.68,12.94,40,0,50c-4.24,3.27-7.65,0.36-16,2c-24.64,4.84-37.56,38.62-37,39
	c0.33,0.23,5.52-11.34,12.86-11c7.34,0.34,9.49,12.14,16,12s7-12.12,16-15c9.75-3.11,19.37,7.59,23.14,4c2.21-2.08-1.15-5.74,0-13
	c1.34-8.47,6.93-9.91,8.86-17c0.94-3.47,0.83-7.6-6-22C304.06,331.7,292.31,306.89,288.81,308.25z"/>
<path class="st2" d="M173.81,284.25c-0.46-0.08,2.8-11.71-3-17c-1.05-1.12-2.47-1.83-4-2c-6.77-0.3-10.14,14.58-14,14
	c-2.83-0.43-3.77-8.88-5-20c-0.74-6.97-1.08-13.99-1-21c0-5.25,0-14.91,1-15c0.58-0.05,1.08,2.91,2,6c2.64,8.89,9.27,20.6,14,20
	c3.7-0.47,3.29-8.09,12-18c3.11-3.54,4.74-5.39,6-5C188.18,228.25,174.81,284.43,173.81,284.25z"/>
</svg>
