<?xml version="1.0" standalone="no"?><!-- Generator: Gravit.io --><svg xmlns="http://www.w3.org/2000/svg" xmlns:xlink="http://www.w3.org/1999/xlink" style="isolation:isolate" viewBox="0 0 694.126 351.279" width="694.126" height="351.279"><defs><clipPath id="_clipPath_LDwcoOBxCeAqKyWXoheUPznmxIrOqQKF"><rect width="694.126" height="351.279"/></clipPath></defs><g clip-path="url(#_clipPath_LDwcoOBxCeAqKyWXoheUPznmxIrOqQKF)"><path d=" M 441.09 104.314 C 394.24 65.554 389.09 54.674 370.84 50.184 C 357.22 46.844 361.77 53.314 332.1 52.914 C 316.1 52.684 276.1 51.674 242.61 28.424 C 237.85 25.114 237.91 24.614 235.24 23.364 C 217.8 15.204 201.13 29.854 158.99 49.174 C 128.44 63.174 125.28 60.934 107.33 72.314 C 98.7 77.784 101.12 77.234 69.85 102.464 C 55 114.464 39.56 126.594 21.53 145.254 C 6.44 160.874 4.04 166.044 4.82 171.254 C 6.48 182.254 21.41 186.054 23.82 202.134 C 24.66 207.814 22.93 208.254 24.43 212.314 C 27.56 220.764 35.65 220.574 48 231.724 C 54.19 237.314 53.32 238.414 58.65 242.284 C 65.89 247.534 70.95 248.024 77.65 250.964 C 85.28 254.304 90.02 258.914 99.51 268.114 C 116.26 284.364 118.19 293.754 129.9 296.544 C 134.78 297.714 135.66 296.374 143.05 296.344 C 162.39 296.274 172.6 305.344 195.05 314.634 C 205.17 318.824 199.78 315.634 230.88 325.634 C 266.61 337.184 273.77 341.444 289.36 340.784 C 293.73 340.604 290.28 340.394 316.36 335.434 C 348.36 329.354 352.83 329.804 368.22 325.434 C 384.99 320.674 383.12 319.154 397.87 315.434 C 413.96 311.334 416.63 313.024 441.12 309.304 C 475.74 304.034 485.75 298.304 491.68 294.084 C 497.06 290.234 500.55 286.574 505.62 280.864 C 540.62 241.504 558.06 221.864 552.95 208.664 C 551.08 203.824 537.8 196.444 511.25 181.664 C 505.54 178.677 500.286 174.889 495.65 170.414 C 489.75 164.654 488.21 160.884 482.12 151.414 C 477.87 144.774 468.24 129.904 454.67 116.324 C 450.359 112.082 445.826 108.073 441.09 104.314 L 441.09 104.314 Z " fill="rgb(216,216,216)"/><path d=" M 244.46 124.584 C 241.98 115.344 248.46 105.874 249.05 106.034 C 249.44 106.144 247.59 110.644 248.53 117.034 C 249.24 121.854 251.53 127.864 254.1 127.894 C 256.67 127.924 257.33 121.814 260.01 121.644 C 264.25 121.374 266.93 136.384 270.11 136.164 C 273.95 135.904 273.92 113.884 276.24 113.794 C 278.36 113.704 284.7 131.944 277.9 138.254 C 270.68 144.994 248.28 138.584 244.46 124.584 Z " fill="rgb(160,160,160)"/><path d=" M 167.65 88.724 C 168.06 87.724 170.05 88.384 175.85 87.844 C 185.85 86.914 191.85 83.924 192.38 85.084 C 193.05 86.434 184.26 89.594 183.94 95.014 C 183.58 101.254 194.71 106.164 194.46 106.564 C 194.05 107.224 166.06 92.524 167.65 88.724 Z " fill="rgb(160,160,160)"/><path d=" M 298.9 183.594 C 297.63 183.544 299.8 198.994 292.09 210.914 C 283.4 224.364 265.39 228.324 265.44 228.434 C 265.49 228.544 282.8 215.924 297.79 220.794 C 305.2 223.194 309.33 228.984 310.98 227.664 C 312.45 226.474 309.22 221.734 304.66 207.614 C 302.976 202.819 301.639 197.91 300.66 192.924 C 299.57 187.184 299.51 183.614 298.9 183.594 Z " fill="rgb(160,160,160)"/><path d=" M 409.65 156.504 C 409.65 156.504 428.28 172.834 425.93 192.064 C 424.93 199.934 420.77 206.134 423.61 208.904 C 426.12 211.364 433.29 210.294 436.04 206.594 C 444.72 194.894 409.66 156.494 409.65 156.504 Z " fill="rgb(160,160,160)"/><path d=" M 446.68 151.524 C 446.85 151.374 474.91 173.524 470.61 190.164 C 468.93 196.694 462.68 200.904 463.03 201.234 C 463.38 201.564 467.5 197.444 479.36 185.324 C 492.3 172.094 494.43 169.714 494.12 166.164 C 493.73 161.564 489.81 161.084 482.03 151.364 C 475.53 143.234 472.62 136.514 471.93 136.844 C 470.55 137.514 484.93 162.544 478.72 168.074 C 475.59 170.864 468.34 167.684 464.85 166.154 C 453.57 161.214 446.58 151.614 446.68 151.524 Z " fill="rgb(160,160,160)"/><path d=" M 68.99 130.614 C 67.16 128.554 46.07 152.384 15.11 162.534 C 13.11 163.184 -0.41 167.534 0.01 169.534 C 0.18 170.364 2.62 169.824 4.82 171.214 C 10.5 174.774 6.18 185.794 9.57 188.014 C 12.3 189.814 20.18 186.014 51.97 151.474 C 68.36 133.694 69.5 131.194 68.99 130.614 Z " fill="rgb(160,160,160)"/><path d=" M 104.49 195.084 C 103.99 194.954 100.74 207.594 90.79 228.524 C 85.62 239.384 83.71 241.834 80.67 243.274 C 67.8 249.364 48.75 230.614 47.95 231.684 C 47.15 232.754 66.54 257.794 82.28 253.594 C 102.93 248.064 105.49 195.334 104.49 195.084 Z " fill="rgb(160,160,160)"/><path d=" M 348.86 223.814 C 346.99 222.424 353.54 214.114 355.97 201.574 C 358.97 186.264 354.09 173.314 354.85 173.154 C 355.76 172.974 356.16 192.754 369.43 206.464 C 376.85 214.144 386.36 217.904 385.89 218.834 C 385.42 219.764 375.95 212.834 365.23 214.974 C 355.48 216.894 350.63 225.134 348.86 223.814 Z " fill="rgb(160,160,160)"/><path d=" M 152.52 183.554 C 152.15 182.054 154.69 181.004 157.31 178.154 C 165.78 168.914 163.16 153.784 163.7 153.804 C 164.06 153.804 163.24 160.274 164.76 168.084 C 166.65 177.824 170.47 180.884 168.65 183.764 C 165.86 188.164 153.28 186.664 152.52 183.554 Z " fill="rgb(160,160,160)"/><path d=" M 167.2 238.074 C 165.96 237.644 161.47 270.194 139.38 278.644 C 125.04 284.134 111.22 276.434 109.97 279.644 C 108.53 283.314 124.74 298.424 139.03 295.784 C 163.16 291.294 168.76 238.614 167.2 238.074 Z " fill="rgb(160,160,160)"/><path d=" M 158.06 63.174 C 158.94 59.174 161.24 57.294 160.15 55.384 C 158.51 52.514 150.77 52.084 147.98 55.724 C 145.8 58.584 147.46 62.924 148.6 65.904 C 152.79 76.854 163.24 83.404 164.51 82.234 C 165.78 81.064 155.91 72.884 158.06 63.174 Z " fill="rgb(160,160,160)"/><path d=" M 84.02 109.474 C 82.95 107.574 85.54 104.214 88.23 100.964 C 103.75 82.174 118.89 71.244 118.64 70.844 C 118.23 70.214 71.64 88.844 74.12 108.104 C 75.77 121.054 99.03 130.104 101.78 127.104 C 103.58 125.104 96.15 118.454 98.78 112.544 C 101.57 106.184 113.86 105.464 113.88 105.544 C 113.9 105.624 86.88 114.544 84.02 109.474 Z " fill="rgb(160,160,160)"/><path d=" M 235.71 158.704 C 235.03 158.244 224.17 169.384 214.49 188.074 C 208.63 199.384 206.39 207.294 204.82 206.934 C 201.48 206.174 206.37 169.814 204.93 169.594 C 204.33 169.504 204.2 178.074 197.93 183.764 C 193.98 187.354 191.36 186.374 190.18 188.764 C 186.9 195.364 202.18 213.004 221.29 219.314 C 229.49 222.014 237.65 222.394 238.29 220.644 C 239.29 217.814 224.19 214.084 219.55 202.914 C 212.03 184.924 236.74 159.414 235.71 158.704 Z " fill="rgb(160,160,160)"/><path d=" M 17.39 197.174 C 17.77 195.854 26.95 198.404 35.39 198.644 C 57.74 199.304 73.83 183.644 74.65 184.894 C 75.47 186.144 56.97 194.344 41.54 212.624 C 39.54 215.034 34.28 221.454 32.38 220.444 C 30.78 219.584 33.71 214.624 31.91 209.274 C 29.03 200.854 16.95 198.674 17.39 197.174 Z " fill="rgb(160,160,160)"/><path d=" M 160.52 293.684 C 169.06 293.054 180.46 294.024 201.58 303.394 C 225.26 313.904 232.74 322.394 238.84 318.644 C 242.5 316.414 241.96 312.054 244.14 302.214 C 249.01 280.214 262.82 265.614 261.37 265.214 C 260.98 265.104 241.61 307.364 255.54 321.954 C 263.77 330.564 282.8 328.684 291.07 327.874 C 298.78 327.104 299.23 325.874 310.85 323.534 C 338.15 318.004 345.76 322.694 351.12 316.994 C 362.66 304.724 341.21 268.074 342.84 267.394 C 343.63 267.054 348.69 275.814 354.96 289.254 C 363.89 308.434 363.96 312.914 369.36 316.484 C 373.93 319.484 382.6 318.264 399.76 315.644 C 426.59 311.544 421.31 308.644 446.76 303.974 C 450.81 303.234 453.76 302.784 456.36 300.254 C 461.98 294.674 459.48 284.964 456.91 267.014 C 454.23 248.224 453.49 234.524 454.36 234.354 C 456.14 234.014 460.02 291.144 480.23 295.474 C 489.23 297.404 500.73 288.674 504.77 278.674 C 513.47 257.094 488.05 228.104 489.68 227.124 C 490.56 226.594 497.33 235.234 504.33 245.304 C 514.48 259.894 516.33 264.874 519.83 264.604 C 524.89 264.224 529.62 253.284 528.83 243.604 C 528.27 237.084 525.37 233.364 521.97 227.514 C 511.62 209.684 508.38 192.164 509.78 191.514 C 511.95 190.514 525.78 229.394 540.07 228.004 C 549.07 227.144 553.78 210.804 553.57 210.694 C 553.13 210.454 531.85 287.344 482.57 300.814 C 472.7 303.514 464.68 302.814 441.03 309.214 C 424.24 313.714 418.89 316.574 404.31 319.274 C 390 321.924 387.64 320.574 368.54 322.404 C 343.69 324.794 339.54 327.864 311.73 331.714 C 288.41 334.944 276.73 336.564 267.73 335.714 C 241.91 333.324 212.62 320.924 193.78 308.334 C 188.58 304.854 179.52 298.254 166.15 296.434 C 156.95 295.184 148.1 296.524 148.04 295.954 C 147.98 295.384 154.45 294.124 160.52 293.684 Z " fill="rgb(160,160,160)"/><path d=" M 225.75 113.924 C 221.59 107.744 229.92 96.094 233.17 96.774 C 236.77 97.524 238.45 114.404 233.4 116.994 C 231.07 118.194 227.37 116.324 225.75 113.924 Z " fill="rgb(160,160,160)"/><path d=" M 292.9 139.354 C 289.5 133.644 294.7 123.604 297.07 123.784 C 299.62 123.964 297.94 135.864 304.07 138.884 C 308.95 141.274 312.59 135.004 321.73 135.264 C 331.62 135.544 337.33 143.164 340.14 140.834 C 342.95 138.504 339.19 130.404 340.66 129.834 C 342.13 129.264 345.47 137.484 348.75 137.014 C 352.03 136.544 351.75 127.474 355.21 126.794 C 358.35 126.174 364.21 132.794 362.89 136.944 C 362.06 139.634 358.29 141.404 324.73 142.774 C 300.35 143.744 295.13 143.114 292.9 139.354 Z " fill="rgb(160,160,160)"/><path d=" M 386.33 128.044 C 381.4 121.544 380.33 113.654 381.33 113.214 C 383.03 112.464 392.12 132.694 395.98 131.394 C 398.76 130.454 396.64 119.134 398.75 118.654 C 401.35 118.064 406.54 134.654 408.75 134.164 C 410.96 133.674 408.26 117.554 410.09 117.164 C 410.96 116.994 411.52 120.684 415.09 124.924 C 418.92 129.484 422.18 129.864 422.2 131.924 C 422.2 134.754 416.32 137.644 411.2 138.474 C 402.12 139.994 392.11 135.674 386.33 128.044 Z " fill="rgb(160,160,160)"/><path d=" M 142.86 48.994 C 144.86 48.254 150.26 61.644 160.24 76.634 C 167.56 87.634 171.36 93.314 178.44 98.324 C 184.18 102.384 184.44 100.624 210.31 108.784 C 231.23 115.404 239.19 119.144 245.59 123.784 C 247.819 125.53 250.157 127.133 252.59 128.584 C 261.7 133.794 265.41 132.424 269.94 137.244 C 271.56 138.974 273.1 141.304 274.48 140.904 C 275.86 140.504 275.48 138.074 277.01 137.214 C 278.95 136.114 281.62 138.904 284.66 140.294 C 291.4 143.354 295.2 137.294 307.27 137.364 C 313.17 137.364 312.27 138.814 321.14 139.274 C 325.89 139.524 329.14 139.274 335.14 140.204 C 336.455 140.497 337.793 140.681 339.14 140.754 C 344.51 140.804 346.86 137.894 350.86 136.314 C 359.8 132.764 365.45 140.444 372.07 136.214 C 374.83 134.454 373.98 133.034 377.98 129.964 C 380.09 128.354 383.98 125.384 388.71 125.394 C 395.79 125.394 397.05 132.054 404.01 131.544 C 406.93 131.334 409.73 130.014 412.07 131.654 C 413.48 132.654 413.73 134.064 414.77 134.044 C 415.81 134.024 416.1 132.374 417.77 130.274 C 419.83 127.664 421.17 128.074 424.87 124.584 C 425.17 124.304 425.14 124.314 427.59 121.684 C 431.38 117.614 433.27 115.574 433.51 115.434 C 438.93 112.054 449.17 118.724 449.22 118.614 C 449.27 118.504 444.41 116.984 444.54 115.944 C 444.75 114.294 457.85 113.204 458.68 115.884 C 459.28 117.814 453.68 122.164 447.54 123.434 C 441.4 124.704 439.98 121.834 435.54 122.774 C 426.3 124.774 427.54 138.064 417.8 141.524 C 410.48 144.134 400.51 139.864 397.99 138.784 C 392.99 136.644 390.15 134.074 386.38 135.164 C 382.82 136.164 383.15 139.164 379.48 141.274 C 374.16 144.384 369.48 140.594 360.38 140.654 C 353.45 140.704 354.19 142.944 344.7 144.544 C 335.21 146.144 333.7 143.984 314.44 144.394 C 312.44 144.394 308.44 144.554 303.27 144.874 C 293.98 145.454 288.17 146.284 285.88 146.504 C 279.63 147.114 274.01 145.944 248.34 133.244 C 220.68 119.564 221.34 119.404 216.17 117.694 C 203.27 113.404 198.54 114.154 186.17 108.494 C 179.67 105.494 173.4 102.664 166.6 96.704 C 154.67 86.254 156.68 79.934 146.82 71.764 C 145.3 70.494 141.3 67.374 140.99 62.874 C 140.9 61.664 141.15 61.304 141.67 57.874 C 142.69 50.994 142.15 49.224 142.86 48.994 Z " fill="rgb(112,112,112)"/><path d=" M 72.51 97.784 C 77.41 98.424 75.41 109.154 83.92 117.534 C 90.44 123.954 94.41 120.394 103.62 128.334 C 109.1 133.044 108.75 135.214 115.13 140.024 C 122.22 145.364 124.31 143.944 127.19 147.744 C 132.11 154.234 126.73 159.304 131.52 167.524 C 134.41 172.524 148.32 183.144 144.02 179.344 C 144.02 179.344 152.22 181.154 158.74 182.344 C 171.57 184.784 173.74 184.254 182.38 186.614 C 187.57 188.034 190.16 188.744 192.01 189.964 C 198.01 193.964 197.84 198.664 204.82 206.884 C 207.344 210.104 210.361 212.905 213.76 215.184 C 222.52 220.864 232.26 221.484 234.43 219.054 C 234.542 218.908 234.669 218.774 234.81 218.654 C 236.4 217.334 238.88 218.384 242.49 219.154 C 244.451 219.547 246.435 219.82 248.43 219.974 C 253.75 220.394 253.57 219.284 255.5 219.974 C 260.29 221.604 260.59 228.144 265.44 228.414 L 265.72 228.414 C 270.05 228.464 272.86 224.814 275.32 222.704 C 278.5 219.964 281.84 219.154 286.04 218.124 C 294.39 216.124 301.77 218.504 305.99 219.874 C 313.51 222.324 312.51 224.024 319.31 225.754 C 322.14 226.474 326.86 226.684 336.31 227.094 C 343.92 227.424 345.09 227.264 346.49 226.484 C 351.21 223.824 349.65 218.944 354.08 215.414 C 357.28 212.854 361.72 213.084 370.47 213.644 C 376.454 214.094 382.403 214.929 388.28 216.144 C 391.01 216.674 400.06 218.514 406.28 215.724 L 406.47 215.634 C 411.47 213.374 413.47 210.444 415.47 208.804 C 419.75 205.304 426.1 205.684 432.01 206.044 C 435.34 206.244 436.94 206.804 440.07 206.144 C 444.07 205.304 444.3 203.774 447.55 203.144 C 453.22 202.034 455.25 206.144 459.44 204.784 C 462.44 203.784 461.77 201.504 466.61 196.694 C 471.61 191.694 474.01 192.514 475.77 188.874 C 477.66 184.974 475.31 183.224 477.14 178.964 C 479.45 173.584 485.43 171.194 485.31 170.964 C 485.19 170.734 481.18 173.684 480.93 173.384 C 480.49 172.854 490.85 161.384 493.47 163.004 C 495.47 164.254 493.76 173.654 488.17 179.434 C 485.69 182.004 484.35 181.874 482.4 184.694 C 479.4 188.944 480.86 191.584 478.77 196.304 C 476.99 200.304 474.14 202.494 469.34 206.104 C 465.51 208.994 461.34 212.164 455.23 213.244 C 449.71 214.244 448.96 212.344 442.08 213.444 C 436.4 214.344 436 215.774 431.63 216.034 C 425.2 216.424 424.06 213.454 418.89 213.264 C 410.33 212.954 409.33 220.904 398.29 223.544 C 392.06 225.024 386 224.024 380.18 223.054 C 376.18 222.394 372.58 221.404 366.31 221.134 C 361.78 220.954 359.46 220.874 357.13 221.884 C 352.03 224.094 352.19 228.294 347.69 231.684 C 344.22 234.324 340.19 234.404 332.15 234.584 C 326.05 234.724 318.25 234.894 309.37 231.434 C 301.78 228.484 300.3 225.564 294.07 225.284 C 289.7 225.094 286.35 226.344 282.62 227.744 C 271.99 231.744 271.87 235.984 266.26 236.584 C 258.6 237.404 257.36 229.634 245.42 226.634 C 237.49 224.634 236.68 227.734 226.33 226.014 C 219.193 224.787 212.376 222.142 206.28 218.234 C 202.18 215.604 196.05 211.644 192.07 204.164 C 189.83 199.924 190.73 199.164 189.07 196.674 C 184.44 189.674 174.5 190.904 159.9 188.604 C 145.3 186.304 131.76 184.174 125.47 174.764 C 120.55 167.404 125.47 163.594 120.29 153.854 C 115.52 144.854 107.16 140.254 96.72 134.444 C 86.28 128.634 83.61 129.444 76.03 123.514 C 70.65 119.324 63.31 113.604 64.21 106.734 C 64.82 102.114 69.1 97.344 72.51 97.784 Z " fill="rgb(112,112,112)"/><path d=" M 326.88 54.204 C 283.23 45.674 262.88 37.204 252.38 30.784 C 249.85 29.224 241.46 23.784 231 24.784 C 220.86 25.784 213.16 32.314 213.65 33.484 C 214.14 34.654 222.94 29.564 228.78 33.564 C 233.03 36.474 232.4 41.964 235.61 42.564 C 239.32 43.274 241.82 36.234 245.48 36.854 C 249.48 37.534 248.89 46.384 254.02 48.134 C 258.16 49.544 261.67 44.834 264.33 46.534 C 267.76 48.704 264.39 58.004 266.65 58.964 C 269.09 59.964 273.93 49.554 277.93 50.424 C 282.34 51.424 281.93 65.264 284.93 65.524 C 287.73 65.774 290.27 54.134 292.51 54.464 C 294.75 54.794 294.02 67.694 296.68 68.164 C 299.14 68.594 301.86 57.904 305.12 58.224 C 308.38 58.544 308.48 69.714 312.53 70.354 C 315.44 70.814 316.96 65.284 321.41 64.514 C 325.41 63.824 329.48 67.394 332.61 71.114 C 335.55 65.964 337.93 64.994 339.51 64.994 C 343.8 64.994 348.57 72.284 348.6 72.314 L 348.6 72.314 C 348.6 71.604 348.68 65.894 351.67 64.664 C 353.39 63.954 355.38 64.994 358.47 66.664 C 363.2 69.124 364.61 71.304 365.99 70.724 C 367.67 70.014 366.15 66.484 367.93 63.934 C 371.54 58.764 384.55 63.484 385.46 61.304 C 385.91 60.214 383.34 57.434 370.84 50.194" fill="rgb(160,160,160)"/><path d=" M 234.52 21.254 C 232.19 22.254 228.39 24.784 228.61 27.494 C 229 32.324 241.71 32.624 262.18 40.214 C 275.86 45.284 274.91 46.894 285.99 50.574 C 298.88 54.854 309.07 55.634 321.51 56.494 C 343.82 58.044 367.75 56.404 368.59 51.894 C 368.59 51.814 368.59 51.734 368.59 51.574 C 368.59 51.574 368.99 47.024 363.85 42.154 C 358.51 37.154 343.65 39.994 332.73 40.884 C 316.55 42.204 304 39.544 295.8 37.804 C 270.34 32.404 255.16 25.114 255.16 25.114 C 249.51 22.394 241.62 18.124 234.52 21.254 Z " fill="rgb(112,112,112)"/><path d=" M 341.56 79.454 C 341.93 79.454 340.47 91.564 344.93 106.164 C 346.93 112.564 349.73 118.624 348.11 119.734 C 346.49 120.844 342.66 115.354 338.47 116.384 C 333.89 117.504 332.18 125.614 332.15 125.604 C 336.262 117.375 339.175 108.599 340.8 99.544 C 342.6 88.394 341.28 79.464 341.56 79.454 Z " fill="rgb(160,160,160)"/><path d=" M 263.74 101.994 C 264.06 102.174 269.35 91.234 272.18 92.054 C 275.38 92.984 273.12 108.364 273.95 108.454 C 275.18 108.574 280.42 74.294 280.85 72.064 C 281.02 71.134 281.15 70.194 281.37 69.274 C 281.37 69.124 281.42 69.104 281.37 69.104 C 281.03 68.924 263.18 101.694 263.74 101.994 Z " fill="rgb(160,160,160)"/><path d=" M 220.28 51.574 C 210.7 44.214 175.18 75.144 175.56 75.684 C 175.79 76.014 187.42 62.244 205.9 60.684 C 213.14 60.074 220.9 61.394 222.43 57.924 C 223.28 55.994 222.06 52.994 220.28 51.574 Z " fill="rgb(160,160,160)"/><path d=" M 385.8 73.454 C 386.01 76.354 393.45 77.354 399.12 79.334 C 417.06 85.614 424.69 104.334 424.97 104.104 C 425.25 103.874 403.28 65.254 390.44 69.054 C 388.34 69.674 385.66 71.664 385.8 73.454 Z " fill="rgb(160,160,160)"/><path d=" M 168.19 114.044 C 165.46 113.044 162.33 115.364 161.51 115.944 C 151.15 123.174 115.36 127.174 115.65 128.944 C 116.01 131.194 171.15 126.694 171.6 118.514 C 171.68 117.134 170.18 114.764 168.19 114.044 Z " fill="rgb(160,160,160)"/><path d=" M 210.07 117.814 C 205.48 116.084 176.93 170.584 181.19 173.384 C 184.03 175.244 204.31 155.834 209.42 129.834 C 210.22 125.724 211.66 118.414 210.07 117.814 Z " fill="rgb(160,160,160)"/><path d=" M 336.21 147.364 C 332.6 151.364 334.88 158.414 336 163.484 C 340.07 181.974 333.47 196.414 334.45 196.584 C 336.24 196.884 348.99 148.184 341.57 145.074 C 339.95 144.394 337.49 145.994 336.21 147.364 Z " fill="rgb(160,160,160)"/><path d=" M 285.28 231.174 C 284.34 231.224 284.6 307.294 290.86 307.654 C 296.86 308.004 305.3 239.024 304.41 238.864 C 303.72 238.744 297.96 279.934 292.72 279.644 C 287.04 279.334 286 231.134 285.28 231.174 Z " fill="rgb(112,112,112)"/><path d=" M 418.61 230.424 C 418.92 233.134 423.53 234.334 425.99 235.484 C 442.92 243.424 439.51 287.744 438.99 287.754 C 438.47 287.764 441.99 225.184 428.8 222.754 C 424.63 221.994 418.28 227.054 418.61 230.424 Z " fill="rgb(112,112,112)"/><path d=" M 464.22 214.524 C 464.499 216.981 465.606 219.27 467.36 221.014 C 474.87 229.194 488.98 267.154 490.36 266.594 C 492.04 265.894 471.36 207.324 466.05 208.714 C 464.89 208.994 464.06 212.124 464.22 214.524 Z " fill="rgb(112,112,112)"/><path d=" M 519.07 241.284 C 517.68 242.184 484.89 195.284 486.19 194.344 C 486.85 193.844 496.44 205.004 503.54 214.914 C 512.06 226.804 519.81 240.814 519.07 241.284 Z " fill="rgb(112,112,112)"/><path d=" M 203.2 255.164 C 202.86 254.934 211.58 246.514 209.76 236.894 C 208.51 230.254 203.05 227.344 204.33 225.034 C 205.83 222.334 215.42 222.534 218.2 226.954 C 223.35 235.134 203.71 255.514 203.2 255.164 Z " fill="rgb(112,112,112)"/><path d=" M 149.89 195.304 C 148.49 194.144 129.36 217.574 125.94 215.204 C 122.79 213.034 135.04 190.424 134.45 190.134 C 133.86 189.844 126.6 204.374 119.58 217.354 C 105.48 243.474 99.16 252.024 100.51 253.084 C 102.62 254.724 120.07 236.024 132.19 221.084 C 142.73 208.164 150.86 196.104 149.89 195.304 Z " fill="rgb(112,112,112)"/><path d=" M 114.62 151.054 C 113 150.054 104.8 163.104 92.95 176.324 C 72.01 199.704 54.43 207.234 55.2 208.454 C 56.34 210.294 96.06 193.964 110.99 162.664 C 112.74 158.994 115.77 151.744 114.62 151.054 Z " fill="rgb(112,112,112)"/><path d=" M 91.36 136.734 C 83.887 138.379 76.701 141.13 70.04 144.894 C 57.862 151.884 47.758 161.981 40.76 174.154 C 54.122 168.992 66.446 161.465 77.14 151.934 C 82.321 147.299 87.079 142.212 91.36 136.734 L 91.36 136.734 Z " fill="rgb(112,112,112)"/><path d=" M 132.54 79.834 C 115.17 86.294 100.47 95.774 100.94 96.664 C 101.72 98.174 146.82 77.104 146.24 75.664 C 145.97 74.994 136.28 78.434 132.54 79.834 Z " fill="rgb(112,112,112)"/><path d=" M 271.72 146.524 C 270.07 146.864 271.42 155.774 270.96 166.604 C 270.08 187.364 263.28 198.544 264.46 199.024 C 266.21 199.734 282.84 175.904 276.57 155.264 C 275.41 151.464 273.01 146.254 271.72 146.524 Z " fill="rgb(112,112,112)"/><path d=" M 379.63 147.304 Q 382.05 153.874 384.94 160.724 C 390.589 174.029 397.21 186.901 404.75 199.234 C 405.1 187.503 402.166 175.907 396.28 165.754 C 392.025 158.548 386.362 152.273 379.63 147.304 L 379.63 147.304 Z " fill="rgb(112,112,112)"/><path d=" M 355.53 73.314 C 356.01 72.974 360.6 77.584 364.21 83.594 C 372.8 97.934 371.83 113.724 371.13 113.824 C 370.6 113.904 370.5 104.824 365.13 91.824 C 360.5 80.714 354.97 73.704 355.53 73.314 Z " fill="rgb(112,112,112)"/><path d=" M 306.89 74.664 C 306.07 74.814 306.77 79.894 306.95 88.804 C 307.39 109.904 304.27 120.634 305.54 120.914 C 306.97 121.224 313.24 108.434 312.35 93.584 C 311.75 83.614 308.02 74.454 306.89 74.664 Z " fill="rgb(112,112,112)"/><path d=" M 255.76 57.494 C 246.33 50.494 203.29 91.344 204.44 92.804 C 205.27 93.854 226.44 70.804 247.18 68.424 C 249.39 68.174 256.6 67.594 257.91 63.854 C 258.68 61.654 257.28 58.654 255.76 57.494 Z " fill="rgb(112,112,112)"/><path d=" M 361.91 231.674 C 362.91 231.404 366.26 246.754 376.1 275.024 C 377.78 279.844 379.88 285.714 378.56 286.474 C 376.87 287.474 370.45 279.474 367.05 274.784 C 354.33 257.154 349.86 237.684 351.05 237.244 C 352.63 236.644 364.95 269.834 367.88 268.844 C 370.81 267.854 360.42 232.094 361.91 231.674 Z " fill="rgb(112,112,112)"/><path d=" M 231.92 259.134 C 224.86 256.344 204.17 293.234 204.92 293.764 C 205.67 294.294 221.85 267.054 228.43 269.764 C 235.27 272.574 227.08 305.914 227.43 305.974 C 227.78 306.034 239.28 261.994 231.92 259.134 Z " fill="rgb(112,112,112)"/><path d=" M 443.1 60.134 C 450.7 41.204 460.23 18.264 476.27 16.054 C 480.92 15.404 481.98 17.054 495.63 18.364 C 504.3 19.144 513.013 19.334 521.71 18.934 C 569.04 17.384 612.87 1.114 640.28 19.354 C 649.55 25.514 655.03 39.354 666.01 67.004 C 677.133 95.696 683.425 126.034 684.63 156.784 C 685.05 168.284 685.63 185.194 681.78 205.594 C 680.78 210.814 680.08 213.174 677.78 224.974 C 676 234.104 674.28 243.664 671.4 256.974 C 669.72 264.724 668.87 268.614 668.17 269.624 C 662.03 278.414 648.93 275.764 618.62 276.034 C 585.32 276.344 578.73 279.754 570.62 273.184 C 558.29 263.184 559.53 243.674 556.01 243.904 C 552.01 244.174 557.13 268.424 544.62 279.344 C 535.83 287.014 524.81 282.474 486.62 279.124 C 449.81 275.894 451.41 279.354 445.39 276.194 C 411.49 258.414 420.46 180.014 427.71 116.614 C 427.85 115.484 430.89 90.514 443.1 60.134 Z " fill="rgb(160,160,160)"/><path d=" M 435.97 259.504 C 414.64 274.354 416.48 314.664 422.29 316.824 C 423.89 317.424 426.41 315.354 428.17 316.764 C 430.33 318.494 428.03 322.764 429.93 324.314 C 432.43 326.314 438.24 320.394 441.69 322.504 C 444.27 324.094 443.29 328.794 445.12 329.194 C 447.12 329.644 448.81 323.984 451.79 324.084 C 453.9 324.144 453.94 326.984 456.89 329.084 C 460.73 331.794 463.76 329.214 472.04 330.604 C 478.18 331.604 477.68 333.244 481.32 333.024 C 487.6 332.654 488.8 327.884 494.72 327.844 C 499.57 327.844 500.33 330.994 504 330.264 C 509.81 329.094 511.31 320.394 514.83 320.894 C 516.6 321.154 516.29 323.374 519.08 325.054 C 522.845 327.111 527.475 326.717 530.84 324.054 C 532.96 322.184 532.4 320.564 534.16 319.814 C 537.07 318.574 539.7 322.594 544.28 323.064 C 544.28 323.064 549.28 323.574 554.28 318.754 C 563.43 310.084 557.88 275.404 536.85 261.754 C 529.5 256.984 525.49 258.174 488.85 257.214 C 447.73 256.174 443.28 254.414 435.97 259.504 Z " fill="rgb(160,160,160)"/><path d=" M 570.56 263.994 C 567.39 266.834 565.17 274.054 560.73 288.484 C 557.01 300.574 553.26 313.144 557.66 316.264 C 561.52 318.994 568.93 312.604 572.8 316.104 C 575.5 318.554 573.72 323.334 576.25 324.474 C 578.52 325.474 580.35 321.834 584.63 321.864 C 588.91 321.894 589.63 325.744 593.93 325.974 C 598.65 326.224 599.52 321.704 604.81 321.654 C 608.91 321.654 609.61 324.304 614.09 324.074 C 617.89 323.884 617.89 321.914 621.63 321.474 C 627.63 320.764 630.35 325.534 634.27 323.864 C 636.91 322.734 636.68 320.134 639.27 319.604 C 642.02 319.044 642.98 321.834 646.02 322.054 C 651.14 322.424 652.69 314.784 658.55 314.354 C 662.68 314.044 664 317.684 667.83 316.774 C 670.95 316.034 671.22 313.334 674.49 310.824 C 680.3 306.354 685.94 309.824 688.75 307.304 C 694.51 302.064 686.75 272.764 666.41 262.974 C 655.23 257.594 651.1 263.324 624.41 263.424 C 591.99 263.504 580.39 255.144 570.56 263.994 Z " fill="rgb(160,160,160)"/><path d=" M 437.48 322.554 C 436.94 323.354 436.34 324.364 436.34 324.364 C 435.03 326.564 429.62 335.684 431.77 338.594 C 434.62 342.444 448.4 332.094 455.3 337.494 C 459.22 340.574 457.14 345.774 462.15 349.194 C 465.431 351.244 469.425 351.814 473.15 350.764 C 479.45 349.034 480.59 343.444 484.85 343.914 C 486.94 344.144 486.85 345.504 491.62 348.044 C 495.4 350.044 497.29 351.044 499.22 350.484 C 503.04 349.404 502.59 343.574 505.86 342.844 C 508.6 342.244 509.73 346.144 515.16 347.794 C 515.87 348.004 521.95 349.794 525.24 346.844 C 528.53 343.894 526.14 339.084 528.51 337.564 C 532.51 334.994 541.75 347.084 546.25 344.944 C 549.75 343.264 550.32 332.944 546.88 325.594 C 532.2 294.144 443.88 313.144 437.48 322.554 Z " fill="rgb(160,160,160)"/><path d=" M 565.2 313.624 C 558.64 320.624 559.2 334.304 563.77 337.184 C 568.34 340.064 575.98 331.844 581.41 335.314 C 585.84 338.144 583.55 345.374 587.41 347.024 C 592.08 349.024 597.41 339.354 604.17 340.964 C 609.01 342.104 609.73 347.834 613.49 347.584 C 617.78 347.304 619.19 339.654 622.66 339.924 C 625.38 340.134 625.04 344.924 628.66 346.584 C 634.84 349.494 646.05 340.084 649.58 337.114 C 653.81 333.564 654.03 332.394 656.26 331.994 C 662.8 330.844 665.9 340.084 673.16 340.224 C 679.36 340.344 686.16 333.794 687.31 326.624 C 688.84 316.814 679.12 309.354 678.72 309.054 C 665.57 299.264 651.79 313.474 619.91 314.724 C 589.28 315.924 574.38 303.904 565.2 313.624 Z " fill="rgb(160,160,160)"/><path d=" M 441.43 60.994 C 438.27 68.074 435.72 73.774 438.24 77.844 C 440.13 80.844 444.61 82.584 448.38 81.934 C 455.38 80.744 457.16 71.934 460.89 72.554 C 464.62 73.174 463.46 81.454 470.29 86.754 C 472.518 88.449 475.127 89.575 477.89 90.034 C 488.89 91.684 495.25 79.604 502.2 82.204 C 506.63 83.864 505.44 89.274 511.55 92.204 C 516.33 94.494 521.34 93.204 522.49 92.934 C 532.49 90.404 533.49 80.784 539.18 80.984 C 545.54 81.204 546.18 93.264 556.18 95.934 C 561.04 97.244 565.46 95.594 567.1 94.984 C 577.88 90.984 579.7 79.774 584.61 80.494 C 588 80.994 587.61 86.494 594.81 91.324 C 596.79 92.755 599.132 93.604 601.57 93.774 C 603.278 93.794 604.975 93.489 606.57 92.874 C 614.45 89.664 614.97 76.964 619.01 76.764 C 622.28 76.604 622.6 84.854 629.22 87.594 C 633.451 89.183 638.201 88.496 641.81 85.774 C 646.74 81.844 645.46 75.374 648.42 74.774 C 651.38 74.174 653.06 81.104 659.42 83.064 C 663.5 84.324 669.11 83.414 671.17 80.414 C 675.01 74.824 667.36 60.614 657.43 53.654 C 644.56 44.654 628.9 48.654 611.16 51.654 C 565.16 59.374 533.67 64.654 501.07 57.874 C 480.71 53.634 454.68 43.594 445.52 53.414 C 444.43 54.574 442.77 57.994 441.43 60.994 Z " fill="rgb(216,216,216)"/><path d=" M 426.95 125.764 C 429.27 125.314 431.41 127.114 431.95 127.564 C 448.37 140.914 526.48 140.994 542.67 140.994 C 590.41 141.054 650.4 141.124 668.38 131.704 C 669.77 130.974 675.2 127.944 680.14 129.894 C 685.08 131.844 686.97 137.974 689.56 146.614 C 692.5 156.424 694.43 162.864 690.92 167.934 C 688.2 171.874 682.6 174.404 679.75 172.784 C 676.63 171.014 678.27 165.084 675.87 164.224 C 673.18 163.274 670.77 170.554 662.94 173.804 C 661.69 174.324 654.65 177.084 649.49 173.944 C 645.34 171.424 645.34 166.864 643 166.844 C 640 166.844 640.07 174.114 634.39 177.474 C 630.26 179.914 624.68 179.344 620.94 177.614 C 614.88 174.814 613.2 168.784 610.94 169.474 C 608.94 170.094 610.5 174.894 607.45 177.764 C 604.4 180.634 598.21 180.214 593.99 177.904 C 587.5 174.344 587.75 167.384 584.08 167.174 C 580.22 166.954 579.65 174.624 572.08 178.174 C 568.71 179.754 563.08 180.874 559.47 178.314 C 554.8 175.034 556.08 167.684 553.75 167.364 C 551.07 166.994 550.18 176.844 543.5 179.364 C 539.57 180.824 534.69 179.364 531.71 176.964 C 527.01 173.254 527.83 168.054 525.15 167.594 C 521.46 166.964 519.81 176.824 512.38 178.854 C 506.44 180.474 500.38 176.094 499.74 175.624 C 494.23 171.534 494.94 166.624 491.54 165.984 C 486.98 165.144 484.87 173.884 477.03 174.984 C 472.37 175.654 468.18 173.284 466.91 172.564 C 460.91 169.144 459.49 163.754 457.1 164.314 C 454.71 164.874 455.84 170.224 451.77 172.724 C 449.06 174.404 445.72 173.724 445.06 173.644 C 443.204 173.216 441.47 172.371 439.99 171.174 C 434.81 167.424 434.9 164.404 432.34 163.684 C 427.93 162.444 424.34 170.504 421.47 169.684 C 415.43 167.994 417.09 127.684 426.95 125.764 Z " fill="rgb(216,216,216)"/><path d=" M 422.79 205.824 C 427.44 201.354 437.26 204.624 440.44 205.634 C 489.05 221.144 547.98 209.774 555.94 232.994 C 556.19 233.744 559.39 243.504 554.43 249.834 C 552.153 252.663 548.878 254.51 545.28 254.994 C 539.39 255.694 537.8 251.754 531.8 252.614 C 527.17 253.274 526.17 255.924 522.58 255.234 C 519.14 254.574 519.17 251.984 515.81 251.104 C 510.81 249.804 508.42 254.844 504.06 253.754 C 499.06 252.504 499.23 245.214 494.71 244.604 C 491.13 244.114 489.71 248.604 485.5 248.064 C 481.76 247.614 481.27 244.014 477.89 243.934 C 474 243.854 472.75 248.584 469.53 248.234 C 465.85 247.834 465.72 241.504 461.88 240.744 C 457.66 239.914 454.65 246.924 451 245.904 C 447.52 244.904 447.73 237.844 445 237.564 C 442.27 237.284 440.9 244.304 437.5 244.364 C 434.1 244.424 433.1 236.834 428.16 236.054 C 424.34 235.454 421.52 239.054 419.77 237.834 C 418.28 236.744 419.22 233.194 419.7 231.104 C 423.18 215.994 418.55 209.884 422.79 205.824 Z " fill="rgb(216,216,216)"/><path d=" M 679.89 212.754 C 674.82 207.754 665.03 211.934 660.51 213.754 C 611.74 232.904 565.24 212.754 557.13 234.024 C 556.86 234.754 553.35 244.294 557.25 250.904 C 558.928 253.775 561.712 255.832 564.95 256.594 C 570.07 257.644 571.75 253.814 576.95 255.044 C 580.95 255.984 581.65 258.684 584.86 258.214 C 587.92 257.764 588.08 255.214 591.1 254.504 C 595.56 253.504 597.31 258.684 601.22 257.854 C 605.67 256.914 606.07 249.634 610.09 249.304 C 613.27 249.034 614.2 253.554 617.93 253.304 C 621.25 253.084 621.93 249.524 624.93 249.654 C 628.35 249.804 629.1 254.594 631.93 254.444 C 635.18 254.264 635.76 247.964 639.18 247.444 C 642.95 246.864 645.09 254.044 648.36 253.254 C 651.63 252.464 651.82 245.414 654.21 245.254 C 656.6 245.094 657.33 252.254 660.3 252.504 C 663.27 252.754 664.71 245.264 669.1 244.784 C 672.23 244.444 673.79 248.024 676.34 247.064 C 678.29 246.324 679.19 243.554 679.77 241.434 C 681.75 234.184 685.93 218.704 679.89 212.754 Z " fill="rgb(216,216,216)"/><path d=" M 476.15 5.124 C 471.09 7.984 468.45 16.774 471.29 22.834 C 471.733 23.772 472.305 24.644 472.99 25.424 C 479.85 33.164 496.42 32.654 496.62 32.654 C 538.41 31.374 580.05 26.454 621.84 25.434 C 626.77 25.314 637.46 25.194 640.28 19.354 C 642.45 14.844 639.4 8.004 635.07 4.274 C 629.13 -0.856 620.83 -0.106 617.37 0.274 C 582.49 3.904 568.52 7.734 551.87 8.544 C 536.01 9.304 503.87 10.854 486.24 5.034 C 484.86 4.554 480.07 2.904 476.15 5.124 Z " fill="rgb(112,112,112)"/><path d=" M 554.86 23.534 C 559.56 23.314 560.22 17.714 566.93 15.874 C 567.28 15.784 572.93 14.324 577.11 16.794 C 586.79 22.434 584.34 45.624 577.79 47.944 C 575.29 48.824 572.13 46.714 566.44 42.944 C 559.35 38.194 557.87 34.864 554.91 35.384 C 551.95 35.904 551.91 39.724 547.16 44.384 C 545.87 45.644 540.38 50.994 535.8 50.304 C 527.12 49.014 519.13 25.664 527.46 18.054 C 531.09 14.734 537.75 14.484 542.46 16.054 C 549.28 18.324 550.19 23.754 554.86 23.534 Z " fill="rgb(216,216,216)"/><path d=" M 441.4 58.464 C 437.05 65.894 433.4 67.344 433.96 70.314 C 434.74 74.314 442.65 77.884 448.96 76.174 C 456.17 74.174 457.78 66.174 461.48 66.794 C 465.18 67.414 464.05 75.684 470.88 80.984 C 473.102 82.69 475.714 83.817 478.48 84.264 C 489.48 85.914 495.83 73.844 502.78 76.444 C 507.21 78.094 506.03 83.514 512.14 86.444 C 516.92 88.724 521.93 87.444 523.08 87.164 C 533.08 84.634 534.08 75.014 539.77 75.164 C 546.13 75.384 546.77 87.444 556.77 90.164 C 560.425 90.981 564.244 90.631 567.69 89.164 C 578.47 85.164 580.29 73.964 585.19 74.684 C 588.59 75.184 588.19 80.684 595.4 85.504 C 597.375 86.938 599.714 87.787 602.15 87.954 C 603.858 87.98 605.555 87.678 607.15 87.064 C 615.03 83.854 615.55 71.154 619.59 70.954 C 622.86 70.794 623.18 79.044 629.8 81.774 C 634.019 83.361 638.757 82.69 642.37 79.994 C 647.3 76.054 646.02 69.584 648.98 68.994 C 651.94 68.404 653.61 74.904 659.98 77.294 C 665.64 79.404 673.51 77.654 675.31 73.634 C 677.11 69.614 672.52 63.994 666.72 56.914 C 664.093 53.652 661.17 50.639 657.99 47.914 C 644.9 37.474 616.76 45.034 611.72 45.914 C 565.72 53.634 534.23 58.914 501.62 52.124 C 481.85 48.004 451.78 38.334 446.08 47.674 C 444.83 49.684 444.78 52.694 441.4 58.464 Z " fill="rgb(160,160,160)"/><path d=" M 430.28 121.654 L 430.53 121.544 L 430.53 121.544 C 444.99 115.464 514.79 134.994 541.28 134.994 C 589.03 135.054 649.02 135.124 667 125.704 C 668.49 124.924 674 121.854 678.75 123.894 C 682.67 125.574 682.98 129.384 688.7 142.434 C 693.25 152.834 694.75 154.284 693.9 157.524 C 692.09 164.414 682.27 169.194 678.37 166.784 C 675.27 164.874 676.94 159.104 674.48 158.234 C 671.8 157.234 669.38 164.564 661.56 167.804 C 660.31 168.324 653.27 171.094 648.11 167.954 C 643.96 165.424 643.96 160.874 641.62 160.844 C 638.62 160.844 638.68 168.114 633.01 171.474 C 628.88 173.914 623.3 173.354 619.56 171.614 C 613.5 168.824 611.82 162.784 609.56 163.474 C 607.56 164.094 609.12 168.894 606.06 171.764 C 603 174.634 596.82 174.214 592.61 171.904 C 586.12 168.344 586.37 161.394 582.7 161.184 C 578.84 160.954 578.27 168.624 570.7 172.134 C 567.33 173.714 561.7 174.834 558.09 172.274 C 553.42 168.994 554.7 161.654 552.37 161.274 C 549.68 160.904 548.8 170.754 542.12 173.274 C 538.19 174.734 533.31 173.274 530.32 170.874 C 525.63 167.164 526.44 161.964 523.77 161.504 C 520.08 160.874 518.43 170.734 511 172.764 C 505.06 174.384 499 170.004 498.35 169.534 C 492.85 165.444 493.55 160.534 490.16 159.894 C 485.6 159.054 483.49 167.804 475.64 168.894 C 470.98 169.564 466.8 167.194 465.53 166.484 C 459.48 163.054 458.1 157.664 455.71 158.224 C 453.32 158.784 454.46 164.134 450.39 166.644 C 448.333 167.739 445.953 168.062 443.68 167.554 C 441.821 167.125 440.085 166.28 438.6 165.084 C 433.28 161.234 433.32 157.734 430.96 157.594 C 428.2 157.444 427.67 162.144 422.28 164.594 C 421.16 165.094 417.28 166.944 415.56 165.504 C 413.2 163.574 417.44 157.944 419.56 146.124 C 420.92 138.514 420.79 131.784 423.56 127.584 C 425.76 124.384 430.22 121.684 430.28 121.654 Z " fill="rgb(160,160,160)"/><path d=" M 421.02 198.274 C 425.52 193.434 437.62 197.874 440.34 198.874 C 479.78 213.364 547.51 201.924 555.84 226.234 C 556.09 226.984 559.3 236.744 554.34 243.074 C 552.044 245.902 548.751 247.741 545.14 248.214 C 539.25 248.914 537.66 244.974 531.66 245.834 C 527.03 246.494 526.03 249.144 522.44 248.454 C 519.01 247.794 519.03 245.204 515.67 244.324 C 510.67 243.024 508.28 248.064 503.92 246.974 C 498.92 245.724 499.1 238.434 494.58 237.824 C 490.99 237.334 489.58 241.824 485.36 241.284 C 481.62 240.834 481.13 237.234 477.75 237.154 C 473.86 237.074 472.61 241.804 469.39 241.454 C 465.72 241.054 465.58 234.724 461.74 233.964 C 457.52 233.134 454.51 240.144 450.86 239.124 C 447.38 238.124 447.59 231.064 444.86 230.784 C 442.13 230.504 440.76 237.524 437.36 237.584 C 433.96 237.644 432.96 230.054 428.02 229.274 C 424.43 228.714 422.45 232.274 419.63 231.054 C 416.99 229.914 416.42 225.774 416.23 224.394 C 415.62 220.044 417.23 217.904 418.62 212.594 C 421.02 203.534 418.64 200.844 421.02 198.274 Z " fill="rgb(160,160,160)"/><path d=" M 680.08 206.794 C 675.68 202.094 663.71 206.564 660.69 207.794 C 611.92 226.944 565.43 206.794 557.32 228.064 C 557.04 228.794 553.53 238.334 557.43 244.944 C 559.111 247.813 561.893 249.869 565.13 250.634 C 570.26 251.634 571.93 247.854 577.13 249.084 C 581.13 250.024 581.84 252.724 585.04 252.254 C 588.24 251.784 588.27 249.254 591.28 248.544 C 595.74 247.544 597.5 252.724 601.4 251.894 C 605.85 250.954 606.26 243.674 610.27 243.344 C 613.45 243.074 614.39 247.594 618.11 247.344 C 621.43 247.124 622.11 243.564 625.11 243.694 C 628.53 243.844 629.29 248.634 632.11 248.484 C 635.36 248.304 635.93 242.004 639.36 241.484 C 643.12 240.904 645.26 248.084 648.54 247.294 C 651.82 246.504 651.99 239.454 654.38 239.294 C 656.77 239.134 657.5 246.294 660.48 246.544 C 663.46 246.794 664.88 239.304 669.27 238.824 C 672.27 238.504 673.33 241.504 676.51 241.104 C 680.51 240.594 682.71 235.454 682.91 235.004 C 684.57 231.074 683.05 228.814 681.91 219.884 C 680.73 210.444 681.89 208.744 680.08 206.794 Z " fill="rgb(160,160,160)"/><path d=" M 435.88 251.094 C 438.4 250.794 443.23 265.194 445.43 279.584 C 448.49 299.584 444.43 306.104 449.98 311.484 C 457.18 318.484 467.16 310.404 480.32 317.894 C 491.46 324.234 496.13 336.754 494.83 337.894 C 493.53 339.034 488.22 330.624 480.46 331.324 C 473.46 331.954 471.14 339.274 466.24 338.204 C 461.89 337.204 462.44 331.204 456.89 329.054 C 451.89 327.054 449.1 331.164 445.12 329.174 C 440.3 326.774 443.01 320.174 437.38 313.284 C 432.56 307.414 427.77 308.884 425.51 304.164 C 423.08 299.054 427.08 293.974 430.36 285.604 C 437.86 266.524 433.28 251.394 435.88 251.094 Z " fill="rgb(112,112,112)"/><path d=" M 658.8 258.814 C 655.17 260.264 670.04 292.334 659.25 300.814 C 655.71 303.604 652.82 301.184 645.81 302.634 C 625.14 306.924 614.58 335.444 615.05 335.754 C 615.33 335.944 619.59 326.174 625.77 326.354 C 631.95 326.534 633.86 336.474 639.33 336.354 C 644.8 336.234 645.08 326.094 652.65 323.594 C 660.81 320.894 669 329.804 672.14 326.794 C 673.98 325.024 671.14 321.974 672.02 315.864 C 673.02 308.724 677.76 307.464 679.32 301.444 C 680.08 298.514 679.95 295.054 674.08 283.004 C 671.84 278.394 661.73 257.634 658.8 258.814 Z " fill="rgb(112,112,112)"/><path d=" M 561.89 239.664 C 561.5 239.594 564.14 229.794 559.22 225.394 C 558.323 224.462 557.126 223.877 555.84 223.744 C 550.14 223.564 547.44 236.104 544.19 235.644 C 541.81 235.314 540.94 228.214 539.81 218.874 C 539.128 213.015 538.794 207.122 538.81 201.224 C 538.75 196.814 538.64 188.684 539.52 188.604 C 540.01 188.554 540.45 191.044 541.25 193.604 C 543.55 201.054 549.25 210.834 553.2 210.294 C 556.31 209.864 555.9 203.464 563.13 195.054 C 565.71 192.054 567.07 190.474 568.13 190.794 C 573.47 192.434 562.75 239.804 561.89 239.664 Z " fill="rgb(112,112,112)"/></g></svg>