<?xml version="1.0" encoding="utf-8"?>
<!-- Generator: Adobe Illustrator 25.0.0, SVG Export Plug-In . SVG Version: 6.00 Build 0)  -->
<svg version="1.1" id="Calque_1" xmlns="http://www.w3.org/2000/svg" xmlns:xlink="http://www.w3.org/1999/xlink" x="0px" y="0px"
	 viewBox="0 0 554.7 311.99" style="enable-background:new 0 0 554.7 311.99;" xml:space="preserve">
<style type="text/css">
	.st0{fill:#D8D8D8;}
	.st1{fill:#A0A0A0;}
	.st2{fill:#707070;}
</style>
<path class="st0" d="M428.03,55.98c-51.72-32-58.29-42.06-77-44c-13.95-1.45-8.56,4.34-38,8c-15.9,2-55.64,6.44-92-12
	c-5.17-2.62-5.18-3.13-8-4c-18.4-5.7-32.9,11.09-72,36c-28.34,18.05-31.78,16.27-48,30c-7.8,6.6-5.48,5.72-33,35
	c-13.07,13.91-26.7,28.05-42,49c-12.81,17.54-14.48,23-13,28c3.14,10.63,18.46,12.39,23,28c1.6,5.51,0,6.18,2,10
	c4.26,7.94,12.24,6.65,26,16c6.9,4.69,6.19,5.9,12,9c7.88,4.21,13,4,20,6c8,2.27,13.34,6.18,24,14c18.81,13.8,22,22.83,34,24
	c5,0.49,5.68-1,13-2c19.15-2.72,30.5,4.89,54,11c10.6,2.76,4.82,0.31,37,6c37,6.54,44.65,9.79,60,7c4.3-0.78,0.86-0.52,26-9
	c30.82-10.4,35.35-10.57,50-17c16-7,13.9-8.25,28-14c15.38-6.27,18.25-5,42-12c33.58-10,42.71-17,48-22c4.8-4.54,7.76-8.65,12-15
	c29.24-43.77,43.86-65.66,37-78c-2.52-4.54-16.68-10-45-21c-6.07-2.18-11.79-5.21-17-9c-6.63-4.9-8.67-8.42-16-17
	c-5.12-6-16.7-19.41-32-31C438.21,62.39,433.2,59.05,428.03,55.98z"/>
<path class="st1" d="M236.03,102.98c-3.72-8.81,1.4-19.08,2-19c0.4,0.06-0.82,4.76,1,11c1.36,4.68,4.47,10.32,7,10s2.37-6.46,5-7
	c4.16-0.85,8.87,13.65,12,13c3.76-0.78,0.72-22.59,3-23c2.09-0.37,10.87,16.82,5,24C264.79,119.61,241.67,116.33,236.03,102.98z"/>
<path class="st1" d="M155.03,77.98c0.27-1,2.33-0.67,8-2c9.74-2.29,15.28-6.06,16-5c0.84,1.25-7.43,5.59-7,11
	c0.5,6.23,12.19,9.56,12,10C183.72,92.69,154.03,81.98,155.03,77.98z"/>
<path class="st1" d="M298.03,153.98c-1.26,0.12,3,15.13-3,28c-6.77,14.51-24.07,20.89-24,21s15.48-14.77,31-12
	c7.66,1.37,12.55,6.54,14,5c1.3-1.38-2.55-5.63-9-19c-2.33-4.52-4.34-9.2-6-14C299.19,157.44,298.64,153.92,298.03,153.98z"/>
<path class="st1" d="M404.03,111.98c0,0,20.69,13.62,21,33c0.13,7.92-3.19,14.64,0,17c2.83,2.09,9.78,0.05,12-4
	C444.03,145.21,404.03,111.98,404.03,111.98z"/>
<path class="st1" d="M440.03,101.98c0.14-0.18,31,17.89,29,35c-0.77,6.7-6.39,11.72-6,12s3.91-4.37,14-18
	c11-14.88,12.79-17.52,12-21c-1-4.5-5-4.44-14-13c-7.56-7.16-11.36-13.43-12-13c-1.28,0.85,16.37,23.68,11,30
	c-2.71,3.19-10.33,1-14,0C452.46,111.73,445.58,107.6,440.03,101.98z"/>
<path class="st1" d="M63.03,132.98c-2.09-1.79-19.72,24.71-49,39c-1.87,0.91-14.68,7.09-14,9c0.29,0.8,2.63-0.07,5,1
	c6.11,2.75,3.34,14.26,7,16c3,1.4,10.24-3.47,37-42C62.83,136.12,63.62,133.48,63.03,132.98z"/>
<path class="st1" d="M107.03,191.98c-0.51-0.05-2,12.9-9,35c-3.63,11.47-5.19,14.16-8,16c-11.91,7.8-33.35-8.17-34-7
	c-0.65,1.17,22,23.32,37,17C112.74,244.68,108.03,192.09,107.03,191.98z"/>
<path class="st1" d="M353.03,186.98c-2-1.12,3.31-10.25,4-23c0.85-15.58-5.73-27.74-5-28s4,19.23,19,31c8.41,6.59,18.34,9,18,10
	s-10.66-4.56-21-1C358.64,179.22,354.97,188.04,353.03,186.98z"/>
<path class="st1" d="M153.03,173.98c-0.57-1.43,1.8-2.82,4-6c7.13-10.31,2.46-24.94,3-25c0.36,0,0.43,6.48,3,14
	c3.21,9.39,7.41,11.9,6,15C166.87,176.73,154.22,176.98,153.03,173.98z"/>
<path class="st1" d="M175.03,225.98c-1.28-0.25-1.28,32.6-22,44c-13.46,7.4-28.2,1.66-29,5c-0.92,3.83,17.21,16.58,31,12
	C178.32,279.25,176.66,226.3,175.03,225.98z"/>
<path class="st1" d="M142.03,53.98c0.33-4.05,2.34-6.26,1-8c-2-2.62-9.74-2-12,2c-1.78,3.13,0.46,7.2,2,10
	c5.65,10.28,16.9,15.33,18,14S141.23,63.89,142.03,53.98z"/>
<path class="st1" d="M75.03,109.98c-1.32-1.73,0.79-5.41,3-9c12.8-20.74,26.3-33.65,26-34c-0.49-0.57-44.07,24.25-39,43
	c3.41,12.6,27.69,18.38,30,15c1.51-2.21-6.76-7.79-5-14c1.89-6.68,14-9.08,14-9S78.56,114.62,75.03,109.98z"/>
<path class="st1" d="M232.03,137.98c-0.74-0.37-10,12.15-17,32c-4.26,12-5.39,20.14-7,20c-3.41-0.29-3.54-37-5-37
	c-0.6,0,0.44,8.5-5,15c-3.43,4.1-6.16,3.49-7,6c-2.34,7,15.19,22.37,35,26c8.49,1.56,16.63,0.81,17-1c0.59-2.94-14.87-4.57-21-15
	C212.16,167.19,233.15,138.54,232.03,137.98z"/>
<path class="st1" d="M21.03,205.98c0.2-1.36,9.64-0.09,18-1c22.22-2.41,36-20.13,37-19s-16.21,11.78-29,32c-1.69,2.67-6,9.74-8,9
	c-1.7-0.63,0.52-5.94-2-11C33.03,208.03,20.8,207.53,21.03,205.98z"/>
<path class="st1" d="M176.03,281.98c8.37-1.79,19.8-2.39,42,4c24.9,7.17,33.47,14.52,39,10c3.32-2.71,2.19-7,3-17
	c1.81-22.44,13.49-38.81,12-39c-0.4,0-13.8,44.46,2,57c9.33,7.41,27.93,2.94,36,1c7.53-1.81,7.82-3.08,19-7
	c26.29-9.22,34.47-5.62,39-12c9.75-13.73-16.51-47.1-15-48c0.74-0.44,7,7.54,15,20c11.48,17.78,12.18,22.2,18,25
	c4.94,2.37,13.36,0,30-5c26-7.73,20.38-9.91,45-18c3.91-1.28,6.81-2.14,9-5c4.8-6.29,1-15.57-4-33c-5.23-18.24-7.84-31.71-7-32
	c1.71-0.59,13.38,55.48,34,57c9.19,0.68,19.38-9.54,22-20c5.66-22.57-23.49-47.8-22-49c0.8-0.64,8.69,7,17,16
	c12,13.07,14.56,17.74,18,17c5-1.07,8.14-12.56,6-22c-1.45-6.38-4.83-9.67-9-15c-12.69-16.24-18.3-33.16-17-34c2-1.3,21,35.33,35,32
	c8.8-2.09,11.22-18.92,11-19c-0.47-0.17-11,78.91-58,99c-9.41,4-17.45,4.47-40,14c-16,6.77-20.92,10.32-35,15
	c-13.81,4.59-16.34,3.57-35,8c-24.29,5.76-28,9.38-55,17c-22.66,6.4-34,9.59-43,10c-25.91,1.17-56.61-7.1-77-17
	c-5.63-2.73-15.5-8-29-8c-9.28,0-17.87,2.56-18,2S170.08,283.25,176.03,281.98z"/>
<path class="st1" d="M216.03,94.98c-5-5.55,1.69-18.23,5-18c3.67,0.25,7.65,16.74,3,20C221.89,98.48,217.96,97.14,216.03,94.98z"/>
<path class="st1" d="M286.03,110.98c-4.15-5.19-0.37-15.85,2-16c2.55-0.16,2.51,11.86,9,14c5.16,1.71,7.91-5,17-6
	c9.84-1.08,16.54,5.69,19,3s-2.37-10.21-1-11s5.82,6.91,9,6s1.71-9.86,5-11c3-1.05,9.72,4.65,9,9c-0.46,2.78-3.95,5-37,11
	C294.03,114.31,288.76,114.39,286.03,110.98z"/>
<path class="st1" d="M377.03,86.98c-5.77-5.77-7.93-13.43-7-14c1.58-1,13.35,17.82,17,16c2.62-1.31-1-12.23,1-13
	c2.49-0.94,9.92,14.83,12,14s-2.76-16.39-1-17c0.84-0.29,1.9,3.29,6,7c4.42,4,7.7,3.92,8,6c0.4,2.8-5,6.47-10,8
	C394.31,96.67,383.8,93.75,377.03,86.98z"/>
<path class="st2" d="M125.03,41.98c1.87-1,9.06,11.53,21,25c8.75,9.87,13.3,15,21,19c6.24,3.24,6.29,1.45,33,6
	c21.63,3.69,30,6.3,37,10c2.46,1.42,5.01,2.69,7.63,3.79c9.74,3.92,13.22,2,18.37,6.21c1.84,1.49,3.69,3.59,5,3s0.62-2.94,2-4
	c1.77-1.35,4.8,1.05,8,2c7.1,2.11,10-4.38,22-6c5.85-0.79,5.18,0.75,14,0c4.74-0.4,7.92-1.11,14-1c1.33,0.1,2.67,0.1,4,0
	c5.33-0.69,7.26-3.89,11-6c8.37-4.74,15,2.09,21-3c2.5-2.13,1.45-3.41,5-7c1.87-1.89,5.3-5.36,10-6c7-0.95,9.18,5.46,16,4
	c2.87-0.61,5.45-2.31,8-1c1.53,0.79,2,2.16,3,2s1.09-1.83,2.44-4.14c1.69-2.87,3.08-2.65,6.26-6.61c0.26-0.32,0.23-0.3,2.3-3.25
	c3.19-4.55,4.79-6.82,5-7c4.92-4.09,16,1.12,16,1s-5-1-5-2c0-1.67,12.81-4.54,14-2c0.85,1.83-4.12,6.91-10,9s-7.71-0.55-12,1
	c-8.88,3.2-5.85,16.24-15,21c-6.9,3.59-17.36,0.72-20,0c-5.26-1.44-8.42-3.6-12-2c-3.39,1.51-2.65,4.37-6,7
	c-4.84,3.8-10.05,0.7-19,2c-6.86,1-5.82,3.11-15,6s-11,0.95-30,4c-1.94,0.31-5.94,1-11,2c-9.12,1.85-14.77,3.47-17,4
	c-6.11,1.46-11.83,1.06-39-8c-29.28-9.77-28.65-10-34-11c-13.37-2.48-17.95-1.09-31-5c-6.84-2.05-13.44-4-21-9
	c-13.24-8.72-12.11-15.25-23-22c-1.68-1-6.07-3.59-7-8c-0.25-1.19-0.05-1.59,0-5C125.14,43.98,124.36,42.34,125.03,41.98z"/>
<path class="st2" d="M62.03,99.98c4.94,0,4.43,10.87,14,18c7.34,5.47,10.79,1.4,21,8c6.07,3.92,6,6.11,13,10
	c7.76,4.32,9.63,2.63,13,6c5.77,5.76,1.13,11.51,7,19c3.54,4.51,18.78,13.17,14,10c0,0,8.37,0.66,15,1c13,0.66,15.1-0.16,24,1
	c5.33,0.69,8,1,10,2c6.49,3.11,7,7.82,15,15c2.94,2.85,6.32,5.21,10,7c9.46,4.42,19.19,3.71,21,1c0.1-0.16,0.21-0.31,0.33-0.45
	c1.38-1.52,4-0.82,7.67-0.55c2,0.12,4,0.12,6,0c5.32-0.31,5-1.39,7-1c5,1,6.16,7.39,11,7h0.27c4.3-0.54,6.59-4.54,8.73-7
	c2.78-3.15,6-4.41,10-6c8-3.16,15.63-1.78,20-1c7.78,1.4,7,3.21,14,4c2.9,0.33,7.6-0.12,17-1c7.59-0.71,8.73-1,10-2
	c4.31-3.28,2.1-7.9,6-12c2.83-3,7.26-3.36,16-4c5.99-0.38,12.01-0.38,18,0c2.78,0.16,12,0.74,17.82-2.88l0.18-0.12
	c4.59-2.92,6.24-6.1,8-8c3.75-4.05,10.1-4.54,16-5c3.33-0.26,5,0.08,8-1c3.86-1.38,3.87-2.93,7-4c5.46-1.87,8,1.92,12,0
	c2.88-1.4,1.87-3.57,6-9c4.26-5.6,6.75-5.15,8-9c1.34-4.12-1.23-5.53,0-10c1.55-5.65,7.15-8.84,7-9s-3.71,3.26-4,3
	c-0.51-0.47,8.18-13.26,11-12c2.16,1,1.74,10.51-3,17c-2.11,2.89-3.45,2.94-5,6c-2.34,4.62-0.58,7-2,12c-1.22,4.25-3.74,6.76-8,11
	c-3.4,3.38-7.13,7.1-13,9c-5.34,1.73-6.34,0-13,2c-5.51,1.67-5.71,3.14-10,4c-6.32,1.26-7.85-1.52-13-1c-8.52,0.86-8.42,8.88-19,13
	c-6,2.33-12.11,2.16-18,2c-4.06-0.11-7.76-0.6-14,0c-4.52,0.43-6.82,0.68-9,2c-4.74,2.88-4,7-8,11c-3.09,3.08-7.06,3.72-15,5
	c-6,1-13.73,2.21-23,0c-7.93-1.89-9.79-4.58-16-4c-4.35,0.41-7.5,2.11-11,4c-10,5.4-9.53,9.63-15,11c-7.47,1.86-9.76-5.67-22-7
	c-8.13-0.89-8.51,2.29-19,2c-7.27-0.24-14.41-1.94-21-5c-4.42-2.05-11-5.13-16-12c-2.81-3.88-2-4.73-4-7c-5.55-6.34-15.23-3.72-30-4
	s-28.48-0.54-36-9c-5.88-6.62-1.53-11.07-8-20c-5.95-8.22-14.86-11.68-26-16s-13.67-3.18-22-8c-5.9-3.41-14-8.07-14-15
	C55.03,105.32,58.59,99.98,62.03,99.98z"/>
<path class="st1" d="M308.03,21.98c-44.41-2.48-65.74-8-77-13c-2.72-1.2-11.77-5.42-22-3c-9.91,2.34-16.64,9.9-16,11s8.67-5.16,15-2
	c4.61,2.3,4.74,7.83,8,8c3.78,0.2,5.28-7.11,9-7c4.07,0.12,4.68,9,10,10c4.3,0.83,7.13-4.31,10-3c3.69,1.68,1.63,11.36,4,12
	c2.56,0.69,5.92-10.32,10-10c4.5,0.35,6,14.16,9,14c2.81-0.14,3.73-12,6-12s3.3,12.9,6,13c2.5,0.09,3.73-10.87,7-11s4.9,10.92,9,11
	c2.95,0.06,3.7-5.63,8-7c3.87-1.23,8.38,1.75,12,5c2.21-5.5,4.43-6.79,6-7c4.25-0.56,10,6,10,6l0,0c-0.09-0.7-0.8-6.37,2-8
	c1.6-0.93,3.72-0.18,7,1c5,1.8,6.72,3.76,8,3c1.57-0.93-0.42-4.23,1-7c2.86-5.61,16.4-2.71,17-5c0.3-1.14-2.63-3.54-16-9"/>
<path class="st2" d="M212.03,1.98c-2.17,1.34-5.59,4.35-5,7c1.05,4.73,13.68,3.29,35,8c14.24,3.15,13.52,4.87,25,7
	c13.35,2.47,23.56,1.85,36,1c22.3-1.52,45.79-6.42,46-11c0-0.08,0-0.16,0-0.32c0,0-0.23-4.56-6-8.68c-6-4.27-20.3,0.62-31,3
	c-15.85,3.52-28.64,2.6-37,2c-26-1.86-42-7-42-7C227.03,1.06,218.63-2.09,212.03,1.98z"/>
<path class="st1" d="M326.03,44.98c0.37-0.07,0.58,12.15,7,26c2.81,6.07,6.46,11.68,5,13s-6-3.59-10-2c-4.38,1.74-5,10-5,10
	c2.94-8.72,4.62-17.81,5-27C328.29,53.69,325.71,45.04,326.03,44.98z"/>
<path class="st1" d="M252.03,77.98c0.34,0.14,4.09-11.43,7-11c3.3,0.48,3.17,16,4,16c1.24-0.05,1.74-34.72,1.85-37
	c0-0.94,0-1.89,0.14-2.84c0-0.14,0-0.17,0-0.17C264.63,42.83,251.43,77.74,252.03,77.98z"/>
<path class="st1" d="M202.03,33.98c-10.5-6-41.45,29.51-41,30c0.27,0.3,9.9-14.94,28-19c7.09-1.59,14.93-1.35,16-5
	C205.62,37.98,204.03,35.12,202.03,33.98z"/>
<path class="st1" d="M369.03,32.98c0.61,2.84,8.12,2.81,14,4c18.64,3.76,28.75,21.24,29,21s-26.78-35.52-39-30
	C371.03,28.88,368.65,31.22,369.03,32.98z"/>
<path class="st1" d="M159.03,102.98c-2.84-0.61-5.62,2.12-6.36,2.8c-9.27,8.58-44.18,17.45-43.64,19.2c0.67,2.17,54.67-9.83,54-18
	C162.91,105.57,161.1,103.42,159.03,102.98z"/>
<path class="st1" d="M201.03,100.98c-4.78-1.08-25.6,56.82-21,59c3.08,1.46,20.5-20.55,22-47
	C202.27,108.8,202.69,101.36,201.03,100.98z"/>
<path class="st1" d="M330.03,112.98c-3,4.47,0.2,11.13,2,16c6.56,17.76,2,33,3,33c1.81,0.05,7.77-49.93,0-52
	C333.33,109.53,331.1,111.4,330.03,112.98z"/>
<path class="st2" d="M291.03,202.98c-0.93,0.18,9.74,75.5,16,75c6-0.48,4.91-70,4-70c-0.7,0-0.77,41.57-6,42
	C299.39,250.44,291.77,202.84,291.03,202.98z"/>
<path class="st2" d="M423.03,183.98c0.67,2.64,5.41,3.2,8,4c17.86,5.54,20.55,49.91,20,50s-5.65-62.38-19-63
	C427.83,174.79,422.19,180.69,423.03,183.98z"/>
<path class="st2" d="M466.03,161.98c0.61,2.4,2.02,4.51,4,6c8.55,7.07,27.73,42.74,29,42c1.57-0.92-26.89-56.12-32-54
	C465.94,156.43,465.54,159.62,466.03,161.98z"/>
<path class="st2" d="M524.03,180.98c-1.26,1.08-40.15-40.84-39-42c0.58-0.59,11.61,9.16,20,18
	C515.1,167.59,524.69,180.41,524.03,180.98z"/>
<path class="st2" d="M213.03,237.98c-0.36-0.18,7.12-9.72,4-19c-2.15-6.41-7.95-8.54-7-11c1.11-2.88,10.64-4,14,0
	C230.25,215.38,213.58,238.25,213.03,237.98z"/>
<path class="st2" d="M152.03,185.98c-1.54-1-17.29,24.87-21,23c-3.42-1.72,5.62-25.79,5-26s-5.83,15.18-11,29
	c-10.39,27.8-15.49,37.14-14,38c2.31,1.34,17-19.58,27-36C146.7,199.7,153.1,186.64,152.03,185.98z"/>
<path class="st2" d="M111.03,146.98c-1.73-0.74-8.07,13.28-18,28c-17.55,26-33.93,35.89-33,37c1.39,1.66,38.5-20,49-53
	C110.26,155.11,112.26,147.5,111.03,146.98z"/>
<path class="st2" d="M86.03,135.98c-7.18,2.65-13.92,6.36-20,11c-11.1,8.6-19.73,19.98-25,33c12.53-6.94,23.71-16.09,33-27
	C78.52,147.68,82.53,141.99,86.03,135.98z"/>
<path class="st2" d="M119.03,73.98c-16.31,8.78-29.58,20.18-29,21c1,1.39,42.78-25.66,42-27C131.68,67.37,122.56,72.08,119.03,73.98
	z"/>
<path class="st2" d="M266.03,120.98c-1.58,0.56,1,9.21,2,20c2,20.68-3.24,32.69-2,33c1.83,0.46,15-25.42,6-45
	C270.36,125.37,267.28,120.54,266.03,120.98z"/>
<path class="st2" d="M373.03,106.98c2.2,4.12,4.57,8.31,7.1,12.56c7.42,12.41,15.74,24.25,24.9,35.44c-1.27-11.67-5.77-22.75-13-32
	C386.84,116.42,380.37,110.98,373.03,106.98z"/>
<path class="st2" d="M339.03,36.98c0.43-0.4,5.61,3.54,10,9c10.47,13,11.68,28.8,11,29c-0.52,0.15-1.86-8.81-9-21
	C344.97,43.63,338.53,37.45,339.03,36.98z"/>
<path class="st2" d="M291.03,44.98c-0.79,0.26,0.6,5.2,2,14c3.32,20.84,1.7,31.9,3,32s5.92-13.41,3-28
	C297.03,53.19,292.12,44.62,291.03,44.98z"/>
<path class="st2" d="M238.03,34.98c-10.3-5.66-47.33,40.71-46,42c1,0.93,18.8-24.84,39-30c2.16-0.55,9.21-2.11,10-6
	C241.49,38.7,239.73,35.91,238.03,34.98z"/>
<path class="st2" d="M367.03,192.98c0.92-0.4,6.38,14.34,20,41c2.32,4.54,5.2,10.07,4,11c-1.54,1.19-9-5.81-13-10
	c-15-15.72-22.11-34.4-21-35c1.48-0.8,18.23,30.39,21,29S365.62,193.6,367.03,192.98z"/>
<path class="st2" d="M242.03,237.98c-7.38-1.8-22.82,37.57-22,38s13.12-28.78,20-27c7.16,1.85,3.61,36,4,36
	S249.69,239.84,242.03,237.98z"/>
</svg>
