<svg id="item" xmlns="http://www.w3.org/2000/svg" viewBox="0 0 176 329"><defs><style>.cls-1{fill:#892806;}.cls-1,.cls-2,.cls-6{stroke:#fff;stroke-width:2px;}.cls-1,.cls-2,.cls-6,.cls-7{stroke-miterlimit:10;}.cls-2{fill:#964000;}.cls-3,.cls-5{fill:#515151;}.cls-3{opacity:0.44;}.cls-4{fill:#331500;}.cls-6{fill:#300c01;}.cls-7{fill:none;stroke:#000;}</style></defs><path class="cls-1" d="M36.14,28.39C38,30.45,37.89,30.63,38.51,31a4.9,4.9,0,0,0,5.21-.53c2.51-2.31.38-7.91-1.79-10.7A4.08,4.08,0,0,0,40,18.17c-2.22-.76-5.23,1-6.32,3.45a4.91,4.91,0,0,0-.37,3.2C33.58,25.83,34.08,26.06,36.14,28.39Z"/><path class="cls-1" d="M24.72,16.61c1.39,2.36,1.3,2.53,1.84,3a4.92,4.92,0,0,0,5.22.46c2.9-1.79,1.87-7.69.27-10.84a4.11,4.11,0,0,0-1.59-1.9c-2-1.16-5.33,0-6.86,2.2a4.89,4.89,0,0,0-1,3.07C22.7,13.61,23.15,13.93,24.72,16.61Z"/><path class="cls-1" d="M61.41,106.19c-6.67-3.1-14.52.63-18.14,2.35-6.33,3-9.81,7.41-13,11.5-5.61,7.27-12.38,16-11.47,26.24C20.08,160.4,35,165.9,32.08,176.46c-1.12,4.09-4.5,7.41-3,9.73,1.21,1.84,4.23,1.18,6.86,1.54,13.36,1.8,23,30.36,17.91,34.42-1,.82-2,.11-4.32,1.43s-2.34,2.64-5.34,6-3.8,3.1-4.25,4.65c-.75,2.63,1.52,4.2,3,7.88,1.92,4.63.22,6.79-.28,19.14,0,0-.16,4-.07,9.26.2,12.85,8.28,28,19.48,38.17,9.15,8.34,18.36,11.35,28,14.5,9.21,3,17.2,5.62,27.8,4.57C135.48,326,147,315.3,151.23,311.3c7.34-7,20.25-19.27,17.85-35.37-2.08-14-14.4-22-17.4-23.89-4.42-5.1-10.61-9.46-9.57-14.51.65-3.14,3.68-4.58,3.1-6.72-.63-2.37-4.83-2.54-8-3.45-14.54-4.16-24.06-28.18-19.84-36.59a7.09,7.09,0,0,0,1-4.72c-.6-2.79-3.43-3.46-5.22-5.29-4.15-4.24-.2-12.19-.18-20.65,0-9.45-4.89-16.39-9.34-22.7a54.48,54.48,0,0,0-24.16-18.94c-1-.4-1.88-.59-3.36-1.23C67.57,113.53,66.59,108.6,61.41,106.19Z"/><path class="cls-2" d="M47.26,108.63c-2,1.25-16,9.86-16.13,22-.12,12,13.33,18.07,10.8,30.42-.8,3.94-3.25,8.59-1.45,10.08,1.17,1,3.16-.21,4.91-.5,9.8-1.58,27.81,22.75,23.15,39.59a23.06,23.06,0,0,1-7.3,11.17,9.3,9.3,0,0,1-5.25,2c-2.58.15-4.07-1-4.74-.26-.84.87.78,3.27,1.85,6,.89,2.27,1.14,4.09,1.25,12.29.09,5.91-.24,8.87,0,14.4.83,20,17.23,35,19.69,37.21,9.18,8.17,18.39,11.15,28,14.27,9.21,3,17.2,5.57,27.77,4.62,5-.46,21.29-1.93,33.15-15.8,1.21-1.42,12.65-15.21,10.55-32.85A49.11,49.11,0,0,0,163,238.56c-8.26-6.18-9.84-10.9-9.64-14.16.22-3.53,2.6-6.5,1.11-8.55-1.22-1.69-3.91-1.19-6.09-1.37-12.77-1-24.55-26.81-20-35.68a6.67,6.67,0,0,0,1-4.58c-.61-2.72-3.44-3.38-5.24-5.17-4.17-4.15-.28-11.86-.31-20.08,0-9.19-5-16-9.46-22.12a55.81,55.81,0,0,0-27.58-19.78C80.22,104.88,62.77,99.07,47.26,108.63Z"/><path class="cls-3" d="M123.77,213.77c.57,1.06-.64,1.67-2,6.69-1,3.79-.59,4.38-1.49,5.34-1.63,1.72-3.82.65-9.83,1s-7.89,1.64-8.89.41,1-2.72,2-9.15c.29-1.78.45-3.61,1.79-4.4a3.47,3.47,0,0,1,2.45-.25C114.18,214.63,122.31,211.06,123.77,213.77Z"/><path class="cls-4" d="M88.58,192.34c-.22-.6-1.56-.94-2.54-.57-.56.22-1.39.83-1.87,3.26a16,16,0,0,0,.53,7.85c5.69,15.17,11.67,24.61,8.6,31.34C92,237,89.13,239.57,86,239.58c-2.86,0-6.28-2.15-6.55-4.77A3.7,3.7,0,0,1,81,231.46c1.48-1,3.78-.75,4.51.28s-.2,2.09.54,2.69c.55.45,1.5.17,1.89.06a8.71,8.71,0,0,0,1.35-2.64c1.6-5.13-2.74-8.63-6.34-17.6a52.29,52.29,0,0,1-3-15.39c-.16-3.48.11-5.8,1.72-7.71a7.84,7.84,0,0,1,7.47-2.74,6.88,6.88,0,0,1,4,2.72c.9,1.3,2.2,4.24.56,6-1.43,1.54-4.52,1.6-5.75.19a3,3,0,0,1-.62-2.35C87.47,193.5,88.82,193,88.58,192.34Z"/><path class="cls-4" d="M113.93,188.54c0-.61,1-1.51,2-1.64.59-.07,1.56.06,3,1.9a14.09,14.09,0,0,1,2.68,6.86c1.06,15.4-.44,26.09,5,30.37,2.22,1.76,5.85,2.61,8.61,1.2,2.54-1.3,4.71-4.68,3.89-7a3.26,3.26,0,0,0-2.68-2.13c-1.72-.17-3.66,1.09-3.89,2.29s1,1.68.61,2.52c-.31.63-1.27.83-1.66.91a7.87,7.87,0,0,1-2.26-1.61c-3.47-3.6-1-8.53-1.45-17.75a47.52,47.52,0,0,0-3.51-14.37c-1.26-3-2.42-4.84-4.62-5.71a7.88,7.88,0,0,0-7.73,1.09,7.11,7.11,0,0,0-2.41,4.1c-.27,1.51-.25,4.58,1.92,5.33,1.88.65,4.65-.72,5.17-2.47a2.72,2.72,0,0,0-.39-2.26C115.38,189,114,189.2,113.93,188.54Z"/><path class="cls-5" d="M29.33,23c2.33,1.43,4,5.29,3.47,7.71-.28,1.29-1.23,2.39-10.82,4-8.83,1.5-10.42,1-11.73-.2-2.45-2.2-3.88-6.63-2.79-8.43s3.85.42,8.76.27C23.65,26.09,25.78,20.76,29.33,23Z"/><path class="cls-6" d="M29,19c.17-.49.54-.59,1-1,2.13-1.88,1.53-6.16,1-8-1.23-4.26-5.4-7.07-9-8C15.19.25,7.91,4.58,4.45,10.22c-4.87,7.94-1.06,16.65-.7,17.45C6,32.89,10.15,35.73,14.83,39c6.15,4.25,8.37,3.82,12.1,6.71s5.67,7.44,9.38,18.91C46.52,96.19,47.63,96.75,47.17,101.1c-.11,1-.61,5.22,1.19,6.18,2,1,4.67-2.91,7.62-1.78,1.82.7,3.28,3.17,3.64,5.09.08.41,0,.6.19,1.22.64,2.61,2.9,4.54,16,48,1.8,6,3.26,10.93,6.92,12,3,.82,4.5-1.65,11.7-2.19,3.85-.29,5.37.28,6.61-.92,2.29-2.23.53-7.58-.25-9.66-13.17-35.6-34.19-79.67-34.19-79.67C58.77,62.91,44.54,30.27,34,24.83l-.06,0C31.18,23.37,28.45,20.63,29,19Z"/><line class="cls-7" x1="121.78" y1="213.73" x2="34.02" y2="30.04"/><path class="cls-7" d="M33.09,30.64Q75,122.43,116.86,214.23"/><path class="cls-7" d="M32,32q40.44,91.08,80.89,182.15"/><path class="cls-7" d="M30.29,32.41q39.22,91.2,78.44,182.4"/><line class="cls-7" x1="125.46" y1="247.36" x2="121.78" y2="213.73"/><line class="cls-7" x1="120.71" y1="247.1" x2="116.86" y2="214.23"/><line class="cls-7" x1="116.56" y1="247.77" x2="112.88" y2="214.14"/><line class="cls-7" x1="111.06" y1="247.34" x2="108.73" y2="214.81"/><path d="M10.77,18.58c.16,1.09,15.53,4.55,18.19-2.65C30.53,11.67,27.17,5,22.54,3.17c-6.8-2.7-14.06,5.9-14,5.91s4.65-4.3,9-2.9a6.17,6.17,0,0,1,3.1,2.18,6,6,0,0,1,1.13,4.23C21,17.21,10.63,17.67,10.77,18.58Z"/><path class="cls-6" d="M128.73,238.09c5.46,1.5,5,11.53,9.36,33.3a310.36,310.36,0,0,1,4.85,37.77c.16,2.73.4,8.25-3.06,11.45-1.23,1.14-3.19,1.83-7.12,3.21-4.9,1.72-7.35,2.58-8.53,1.85-2.63-1.65-.7-8.32,0-13.21,1.25-8.78-2.47-18.33-9.91-37.43-7.66-19.65-13.42-28.36-9.91-31.92,1.74-1.77,3.8-.31,12.46-2.07C125.22,239.34,126.19,237.39,128.73,238.09Z"/><path class="cls-1" d="M11.92,25.1c-2.08-1.78-2.05-2-2.7-2.21a4.93,4.93,0,0,0-5.09,1.27C2,26.8,4.88,32,7.42,34.5a4.13,4.13,0,0,0,2.12,1.27c2.3.43,5-1.75,5.76-4.31a4.84,4.84,0,0,0-.08-3.22C14.82,27.28,14.29,27.12,11.92,25.1Z"/><path class="cls-1" d="M24.15,37.41c-1.37-2.37-1.27-2.54-1.82-3a4.9,4.9,0,0,0-5.21-.49c-2.91,1.78-1.91,7.68-.33,10.84a4,4,0,0,0,1.58,1.9c2,1.18,5.32,0,6.87-2.15a4.93,4.93,0,0,0,1-3.07C26.16,40.42,25.72,40.1,24.15,37.41Z"/></svg>