<svg id="item" xmlns="http://www.w3.org/2000/svg" viewBox="0 0 238 390"><defs><style>.cls-1{stroke:#fff;}.cls-1,.cls-5{stroke-linecap:round;}.cls-1,.cls-10,.cls-2,.cls-3,.cls-4,.cls-7{stroke-miterlimit:10;}.cls-1,.cls-10,.cls-2,.cls-3,.cls-4,.cls-5,.cls-7{stroke-width:2px;}.cls-2{fill:#6d4505;}.cls-10,.cls-2,.cls-3,.cls-4,.cls-5{stroke:#fcfcfc;}.cls-3{fill:#845502;}.cls-4{fill:#efac25;}.cls-5,.cls-8{fill:#3d3c3c;}.cls-5{stroke-linejoin:round;}.cls-6{fill:#492d01;}.cls-7{fill:none;stroke:#282828;}.cls-10,.cls-9{fill:#232323;}</style></defs><line class="cls-1" x1="153" y1="26" x2="71" y2="371"/><path class="cls-2" d="M153,16c3.32-3,19.22,8.61,22,11,33.63,28.91-5,293.21-78,344-7.57,5.26-30.46,21.19-36,16-2.36-2.22-1.59-8.3,1-12,2.43-3.47,5.83-4,14-7,4.76-1.77,9.3-4.07,14-6,15.68-6.43,27.88-32.55,29-35,56.72-124,60-232,60-232s1.9-62.59-19-66c-1.63-.27-9.08-.73-10-4-.36-1.27.26-3,1-5C151.32,19.13,152.18,16.75,153,16Z"/><path class="cls-3" d="M166,136c1.07.52,2.71,3.35,6,9,9,15.52,13.54,23.28,13,33-.47,8.41-4.46,15.16-8,21-5,8.28-8.57,9.58-11,17-3,9.22-.44,16.07-3,17-3.55,1.29-8.62-11.84-15-11-4.08.54-6.43,6.5-9,13-2.9,7.35-5.21,13.19-3,19,3.05,8,11.91,8.56,12,14,.07,4.2-5.5,5.08-10,11-6.28,8.26-2.15,15.14-5,26-4.82,18.33-24.2,27.65-27,29-11,5.28-20.67,5.16-33,5a23.53,23.53,0,0,1-7-1,29.75,29.75,0,0,1-14-11C38.87,308.25,142.5,124.48,166,136Z"/><path class="cls-4" d="M134,117c-23-1.53-43.36,17.65-47,30-.94,3.2-1.79,9.43-7,14-3.68,3.23-7.66,4-8,7-.27,2.39,2,3.51,4,7,2.68,4.79,2.27,9.76,2,13-1.13,13.62-16,27.38-25,25-5.24-1.39-7-7.86-10-7-2.52.73-1.87,5.55-5,12-1.75,3.61-3.66,5.6-9,11-11.14,11.27-14.5,14.12-16,16C.82,260.33,3.66,281.65,4,284c4.43,30.22,39.32,56.66,70,50,16.18-3.51,33-16.62,37-30,3.41-11.48,4-16,4-16,1-7.88.29-12.62,4-17,1.74-2.05,2.35-1.54,6-5s7.89-7.47,7-10c-1.13-3.22-9.34.17-14-4-6.22-5.57-3-21.8,5-32,1.06-1.36,10.53-13.24,19-11,7.16,1.89,9.16,12.69,12,12,2.23-.55,1.26-7.27,3-15,2.71-12,9.29-14.6,14-24,5.83-11.65,5.88-27.95-1-41S149.24,118,134,117Z"/><path class="cls-5" d="M205,26,187,53c-8.44,12.65-21.21,31.62-40,59h0c-.2.3-5.25,8-51,78l4,2,4,2c4.89,2.51,7.37,3.78,8,5,.09.17.52,1,1,1s1.3-1.37,1-1c0,0,16.19-23.64,31-51,1.15-2.13,10.51-19.46,15-18,1.18.38,1.62,1.95,3,2,3,.11,5.52-6.73,6-8,7-18.53,48.76-86.62,48-87-.21-.1-2.8,5.1-3,5a7.8,7.8,0,0,1,3-5c2.57-1.85,4.94-.44,8-1,5.77-1.06,11.11-9,11-17,0-1-.26-9-7-14-1.47-1.08-6.56-4.46-13-3a15.62,15.62,0,0,0-9,6,17.12,17.12,0,0,0-3,9A22.32,22.32,0,0,0,205,26Z"/><path class="cls-6" d="M103.28,224.92c-2.63.6-4.79,3.88-4.2,5.89.51,1.77,3.36,3.37,3.36,3.37a10.17,10.17,0,0,1,1.68,3.36c.14.82,0,2.17-2.52,5.05-2.4,2.71-4.18,3.63-5.89,5-.32.26-6.13,5.24-6.73,12.62-.16,2-.51,6.28,2.52,9.25,2.38,2.33,6.84,3.82,10.1,1.68s4.44-7.38,2.52-9.25c-1.28-1.25-4.11-1.13-5.89,0s-1.81,2.59-2.52,2.52c-1.1-.1-2.56-4.07-1.68-7.57,1.25-5,6.15-4.8,11.78-10.93,1.75-1.92,7.58-8.27,5.89-14.31C110.65,227.93,106.69,224.15,103.28,224.92Z"/><path class="cls-6" d="M77.53,214.23c.69,2.25-.94,5.4-2.78,5.9-1.62.44-4.15-1-4.15-1a9.39,9.39,0,0,0-3.4.31c-.71.27-1.73,1-2.87,4.25A33.88,33.88,0,0,0,63,230.5c-.06.37-1.41,7.05-7,10.94-1.47,1-4.73,3.31-8.42,2.42-2.89-.71-6-3.36-5.8-6.8s3.85-6.78,6.18-6.21c1.56.38,2.72,2.56,2.61,4.42s-1.24,2.58-.87,3.08c.57.77,4.35,0,6.72-2.27,3.37-3.26,1.06-6.86,3.4-13.94.73-2.21,3.16-9.55,8.67-11.09C71.88,210.1,76.62,211.31,77.53,214.23Z"/><line class="cls-7" x1="208" y1="26" x2="57" y2="252"/><line class="cls-7" x1="211" y1="29" x2="63" y2="255"/><line class="cls-7" x1="214" y1="31" x2="68" y2="260"/><line class="cls-7" x1="218" y1="31" x2="73" y2="262"/><line class="cls-7" x1="44" y1="282" x2="62" y2="244"/><line class="cls-7" x1="49" y1="283" x2="68" y2="247"/><line class="cls-7" x1="54.15" y1="285.06" x2="73.85" y2="250.94"/><line class="cls-7" x1="59" y1="287" x2="80" y2="251"/><path class="cls-8" d="M48,265c-5.87.95-4,10.1-13,24-3.79,5.88-6.53,10.92-12,21-.58,1.06-1.93,3.65-1,6,.51,1.28,1.49,2,3,3,4.81,3.24,7.21,4.86,8,5,5.1.89,9.24-9.2,19-23,10.68-15.1,18.36-20.9,16-26-.86-1.86-3.57-3.24-9-6C53.25,266.08,50.38,264.61,48,265Z"/><path class="cls-9" d="M213.13,25.36c-1.48-.32-4.3-.92-6.13-3.36-2.38-3.17-1.42-7.2-1-9,.2-.85,1.82-7.23,8-10a13.65,13.65,0,0,1,8-1c7.83,1.56,15.16,11.5,13,21-1.62,7.09-8.42,13.51-15,13-7.41-.58-12.22-9.78-12-10a19,19,0,0,0,6,4,15.14,15.14,0,0,0,7,1c4.91-.59,11.43-4.56,12-11,.61-6.9-5.57-12.55-11-13a10.27,10.27,0,0,0-7,2,11.63,11.63,0,0,0-3,4,6.68,6.68,0,0,0-1,3,5.86,5.86,0,0,0,3,5c2.42,1.35,5,.39,6,0,4.09-1.66,5.49-5.28,6-5s-.25,5.33-4,8C218.48,26.5,214.27,25.6,213.13,25.36Z"/><path class="cls-10" d="M204,13.29c-2.27-.4-5.24,2.26-5.87,5.08-.73,3.22,1.48,7,4.08,7.07,2.06,0,3.87-2.28,4.55-4C208,18.17,206.64,13.75,204,13.29Z"/><path class="cls-8" d="M59,243.57c-2.35.87-3.49,5.2-2.8,8.55C58,261.13,73.89,267,79,262.77a7.15,7.15,0,0,0,1.55-7.92c-1.48-3.13-4.91-2.3-11.73-5.95C62.76,245.66,61.21,242.74,59,243.57Z"/><path class="cls-10" d="M229.61,32.68c-.64-2.36-4.59-3.81-7.65-3-3.49.94-6.23,4.94-5.11,7.42.88,2,4,2.51,6,2.27C226.62,38.92,230.34,35.37,229.61,32.68Z"/><path class="cls-10" d="M219.77,40.39c-1.9-1.69-6.21-1.4-8.45.43-2.54,2.07-2.69,6.36-.31,8,1.9,1.28,4.94.56,6.6-.4C220.66,46.61,221.93,42.32,219.77,40.39Z"/><path class="cls-10" d="M198.18,24.73c-2.16-.3-4.89,2.27-5.42,4.93-.61,3,1.57,6.5,4,6.47,2,0,3.6-2.24,4.19-3.9C202.08,29.17,200.66,25.08,198.18,24.73Z"/></svg>